solid Body66_Default_sldprt
   facet normal 0.000000e+000 1.000000e+000 0.000000e+000
      outer loop
         vertex 6.744756e-001 -5.826772e-001 -2.314392e+000
         vertex 6.656738e-001 -5.826772e-001 -2.315051e+000
         vertex 6.280398e-001 -5.826772e-001 -2.254929e+000
      endloop
   endfacet
   facet normal 0.000000e+000 1.000000e+000 0.000000e+000
      outer loop
         vertex 6.280398e-001 -5.826772e-001 -2.254929e+000
         vertex 6.656738e-001 -5.826772e-001 -2.315051e+000
         vertex 6.570688e-001 -5.826772e-001 -2.317015e+000
      endloop
   endfacet
   facet normal 0.000000e+000 1.000000e+000 0.000000e+000
      outer loop
         vertex 6.280398e-001 -5.826772e-001 -2.254929e+000
         vertex 6.570688e-001 -5.826772e-001 -2.317015e+000
         vertex 6.488525e-001 -5.826772e-001 -2.320240e+000
      endloop
   endfacet
   facet normal 0.000000e+000 1.000000e+000 0.000000e+000
      outer loop
         vertex 6.744756e-001 -5.826772e-001 -2.432502e+000
         vertex 6.832772e-001 -5.826772e-001 -2.431842e+000
         vertex 7.209113e-001 -5.826772e-001 -2.491964e+000
      endloop
   endfacet
   facet normal 0.000000e+000 1.000000e+000 0.000000e+000
      outer loop
         vertex 7.209113e-001 -5.826772e-001 -2.491964e+000
         vertex 6.832772e-001 -5.826772e-001 -2.431842e+000
         vertex 6.918823e-001 -5.826772e-001 -2.429878e+000
      endloop
   endfacet
   facet normal 0.000000e+000 1.000000e+000 0.000000e+000
      outer loop
         vertex 7.209113e-001 -5.826772e-001 -2.491964e+000
         vertex 6.918823e-001 -5.826772e-001 -2.429878e+000
         vertex 7.000986e-001 -5.826772e-001 -2.426654e+000
      endloop
   endfacet
   facet normal 0.000000e+000 1.000000e+000 0.000000e+000
      outer loop
         vertex 7.077425e-001 -5.826772e-001 -2.324653e+000
         vertex 7.000986e-001 -5.826772e-001 -2.320240e+000
         vertex 7.538970e-001 -5.826772e-001 -2.273973e+000
      endloop
   endfacet
   facet normal 0.000000e+000 1.000000e+000 0.000000e+000
      outer loop
         vertex 7.538970e-001 -5.826772e-001 -2.273973e+000
         vertex 7.000986e-001 -5.826772e-001 -2.320240e+000
         vertex 6.918823e-001 -5.826772e-001 -2.317015e+000
      endloop
   endfacet
   facet normal 0.000000e+000 1.000000e+000 0.000000e+000
      outer loop
         vertex 7.538970e-001 -5.826772e-001 -2.273973e+000
         vertex 6.918823e-001 -5.826772e-001 -2.317015e+000
         vertex 6.280398e-001 -5.826772e-001 -2.254929e+000
      endloop
   endfacet
   facet normal 0.000000e+000 1.000000e+000 0.000000e+000
      outer loop
         vertex 6.280398e-001 -5.826772e-001 -2.254929e+000
         vertex 6.918823e-001 -5.826772e-001 -2.317015e+000
         vertex 6.832772e-001 -5.826772e-001 -2.315051e+000
      endloop
   endfacet
   facet normal 0.000000e+000 1.000000e+000 0.000000e+000
      outer loop
         vertex 6.280398e-001 -5.826772e-001 -2.254929e+000
         vertex 6.832772e-001 -5.826772e-001 -2.315051e+000
         vertex 6.744756e-001 -5.826772e-001 -2.314392e+000
      endloop
   endfacet
   facet normal 0.000000e+000 1.000000e+000 0.000000e+000
      outer loop
         vertex 6.412086e-001 -5.826772e-001 -2.422240e+000
         vertex 6.488525e-001 -5.826772e-001 -2.426654e+000
         vertex 5.950541e-001 -5.826772e-001 -2.472920e+000
      endloop
   endfacet
   facet normal 0.000000e+000 1.000000e+000 0.000000e+000
      outer loop
         vertex 5.950541e-001 -5.826772e-001 -2.472920e+000
         vertex 6.488525e-001 -5.826772e-001 -2.426654e+000
         vertex 6.570688e-001 -5.826772e-001 -2.429878e+000
      endloop
   endfacet
   facet normal 0.000000e+000 1.000000e+000 0.000000e+000
      outer loop
         vertex 5.950541e-001 -5.826772e-001 -2.472920e+000
         vertex 6.570688e-001 -5.826772e-001 -2.429878e+000
         vertex 7.209113e-001 -5.826772e-001 -2.491964e+000
      endloop
   endfacet
   facet normal 0.000000e+000 1.000000e+000 0.000000e+000
      outer loop
         vertex 7.209113e-001 -5.826772e-001 -2.491964e+000
         vertex 6.570688e-001 -5.826772e-001 -2.429878e+000
         vertex 6.656738e-001 -5.826772e-001 -2.431842e+000
      endloop
   endfacet
   facet normal 0.000000e+000 1.000000e+000 0.000000e+000
      outer loop
         vertex 7.209113e-001 -5.826772e-001 -2.491964e+000
         vertex 6.656738e-001 -5.826772e-001 -2.431842e+000
         vertex 6.744756e-001 -5.826772e-001 -2.432502e+000
      endloop
   endfacet
   facet normal 0.000000e+000 1.000000e+000 0.000000e+000
      outer loop
         vertex 6.233323e-001 -5.826772e-001 -2.343919e+000
         vertex 6.195027e-001 -5.826772e-001 -2.351871e+000
         vertex 5.486184e-001 -5.826772e-001 -2.354403e+000
      endloop
   endfacet
   facet normal 0.000000e+000 1.000000e+000 0.000000e+000
      outer loop
         vertex 5.486184e-001 -5.826772e-001 -2.354403e+000
         vertex 6.195027e-001 -5.826772e-001 -2.351871e+000
         vertex 6.169010e-001 -5.826772e-001 -2.360306e+000
      endloop
   endfacet
   facet normal 0.000000e+000 1.000000e+000 0.000000e+000
      outer loop
         vertex 5.486184e-001 -5.826772e-001 -2.354403e+000
         vertex 6.169010e-001 -5.826772e-001 -2.360306e+000
         vertex 6.155856e-001 -5.826772e-001 -2.369034e+000
      endloop
   endfacet
   facet normal 0.000000e+000 1.000000e+000 0.000000e+000
      outer loop
         vertex 7.256188e-001 -5.826772e-001 -2.402974e+000
         vertex 7.294484e-001 -5.826772e-001 -2.395022e+000
         vertex 8.003327e-001 -5.826772e-001 -2.392491e+000
      endloop
   endfacet
   facet normal 0.000000e+000 1.000000e+000 0.000000e+000
      outer loop
         vertex 8.003327e-001 -5.826772e-001 -2.392491e+000
         vertex 7.294484e-001 -5.826772e-001 -2.395022e+000
         vertex 7.320501e-001 -5.826772e-001 -2.386588e+000
      endloop
   endfacet
   facet normal 0.000000e+000 1.000000e+000 0.000000e+000
      outer loop
         vertex 8.003327e-001 -5.826772e-001 -2.392491e+000
         vertex 7.320501e-001 -5.826772e-001 -2.386588e+000
         vertex 7.333656e-001 -5.826772e-001 -2.377860e+000
      endloop
   endfacet
   facet normal 0.000000e+000 1.000000e+000 0.000000e+000
      outer loop
         vertex 6.488525e-001 -5.826772e-001 -2.320240e+000
         vertex 6.412086e-001 -5.826772e-001 -2.324653e+000
         vertex 6.280398e-001 -5.826772e-001 -2.254929e+000
      endloop
   endfacet
   facet normal 0.000000e+000 1.000000e+000 0.000000e+000
      outer loop
         vertex 6.280398e-001 -5.826772e-001 -2.254929e+000
         vertex 6.412086e-001 -5.826772e-001 -2.324653e+000
         vertex 6.343079e-001 -5.826772e-001 -2.330156e+000
      endloop
   endfacet
   facet normal 0.000000e+000 1.000000e+000 0.000000e+000
      outer loop
         vertex 6.280398e-001 -5.826772e-001 -2.254929e+000
         vertex 6.343079e-001 -5.826772e-001 -2.330156e+000
         vertex 5.486184e-001 -5.826772e-001 -2.354403e+000
      endloop
   endfacet
   facet normal 0.000000e+000 1.000000e+000 0.000000e+000
      outer loop
         vertex 5.486184e-001 -5.826772e-001 -2.354403e+000
         vertex 6.343079e-001 -5.826772e-001 -2.330156e+000
         vertex 6.283044e-001 -5.826772e-001 -2.336627e+000
      endloop
   endfacet
   facet normal 0.000000e+000 1.000000e+000 0.000000e+000
      outer loop
         vertex 5.486184e-001 -5.826772e-001 -2.354403e+000
         vertex 6.283044e-001 -5.826772e-001 -2.336627e+000
         vertex 6.233323e-001 -5.826772e-001 -2.343919e+000
      endloop
   endfacet
   facet normal 0.000000e+000 1.000000e+000 0.000000e+000
      outer loop
         vertex 6.233323e-001 -5.826772e-001 -2.402974e+000
         vertex 6.283044e-001 -5.826772e-001 -2.410267e+000
         vertex 5.950541e-001 -5.826772e-001 -2.472920e+000
      endloop
   endfacet
   facet normal 0.000000e+000 1.000000e+000 0.000000e+000
      outer loop
         vertex 5.950541e-001 -5.826772e-001 -2.472920e+000
         vertex 6.283044e-001 -5.826772e-001 -2.410267e+000
         vertex 6.343079e-001 -5.826772e-001 -2.416737e+000
      endloop
   endfacet
   facet normal 0.000000e+000 1.000000e+000 0.000000e+000
      outer loop
         vertex 5.950541e-001 -5.826772e-001 -2.472920e+000
         vertex 6.343079e-001 -5.826772e-001 -2.416737e+000
         vertex 6.412086e-001 -5.826772e-001 -2.422240e+000
      endloop
   endfacet
   facet normal 0.000000e+000 1.000000e+000 0.000000e+000
      outer loop
         vertex 7.000986e-001 -5.826772e-001 -2.426654e+000
         vertex 7.077425e-001 -5.826772e-001 -2.422240e+000
         vertex 7.209113e-001 -5.826772e-001 -2.491964e+000
      endloop
   endfacet
   facet normal 0.000000e+000 1.000000e+000 0.000000e+000
      outer loop
         vertex 7.209113e-001 -5.826772e-001 -2.491964e+000
         vertex 7.077425e-001 -5.826772e-001 -2.422240e+000
         vertex 7.146433e-001 -5.826772e-001 -2.416737e+000
      endloop
   endfacet
   facet normal 0.000000e+000 1.000000e+000 0.000000e+000
      outer loop
         vertex 7.209113e-001 -5.826772e-001 -2.491964e+000
         vertex 7.146433e-001 -5.826772e-001 -2.416737e+000
         vertex 8.003327e-001 -5.826772e-001 -2.392491e+000
      endloop
   endfacet
   facet normal 0.000000e+000 1.000000e+000 0.000000e+000
      outer loop
         vertex 8.003327e-001 -5.826772e-001 -2.392491e+000
         vertex 7.146433e-001 -5.826772e-001 -2.416737e+000
         vertex 7.206467e-001 -5.826772e-001 -2.410267e+000
      endloop
   endfacet
   facet normal 0.000000e+000 1.000000e+000 0.000000e+000
      outer loop
         vertex 8.003327e-001 -5.826772e-001 -2.392491e+000
         vertex 7.206467e-001 -5.826772e-001 -2.410267e+000
         vertex 7.256188e-001 -5.826772e-001 -2.402974e+000
      endloop
   endfacet
   facet normal 0.000000e+000 1.000000e+000 0.000000e+000
      outer loop
         vertex 7.256188e-001 -5.826772e-001 -2.343919e+000
         vertex 7.206467e-001 -5.826772e-001 -2.336627e+000
         vertex 7.538970e-001 -5.826772e-001 -2.273973e+000
      endloop
   endfacet
   facet normal 0.000000e+000 1.000000e+000 0.000000e+000
      outer loop
         vertex 7.538970e-001 -5.826772e-001 -2.273973e+000
         vertex 7.206467e-001 -5.826772e-001 -2.336627e+000
         vertex 7.146433e-001 -5.826772e-001 -2.330156e+000
      endloop
   endfacet
   facet normal 0.000000e+000 1.000000e+000 0.000000e+000
      outer loop
         vertex 7.538970e-001 -5.826772e-001 -2.273973e+000
         vertex 7.146433e-001 -5.826772e-001 -2.330156e+000
         vertex 7.077425e-001 -5.826772e-001 -2.324653e+000
      endloop
   endfacet
   facet normal 0.000000e+000 1.000000e+000 0.000000e+000
      outer loop
         vertex 6.155856e-001 -5.826772e-001 -2.369034e+000
         vertex 6.155856e-001 -5.826772e-001 -2.377860e+000
         vertex 5.486184e-001 -5.826772e-001 -2.354403e+000
      endloop
   endfacet
   facet normal 0.000000e+000 1.000000e+000 0.000000e+000
      outer loop
         vertex 5.486184e-001 -5.826772e-001 -2.354403e+000
         vertex 6.155856e-001 -5.826772e-001 -2.377860e+000
         vertex 6.169010e-001 -5.826772e-001 -2.386588e+000
      endloop
   endfacet
   facet normal 0.000000e+000 1.000000e+000 0.000000e+000
      outer loop
         vertex 5.486184e-001 -5.826772e-001 -2.354403e+000
         vertex 6.169010e-001 -5.826772e-001 -2.386588e+000
         vertex 5.950541e-001 -5.826772e-001 -2.472920e+000
      endloop
   endfacet
   facet normal 0.000000e+000 1.000000e+000 0.000000e+000
      outer loop
         vertex 5.950541e-001 -5.826772e-001 -2.472920e+000
         vertex 6.169010e-001 -5.826772e-001 -2.386588e+000
         vertex 6.195027e-001 -5.826772e-001 -2.395022e+000
      endloop
   endfacet
   facet normal 0.000000e+000 1.000000e+000 0.000000e+000
      outer loop
         vertex 5.950541e-001 -5.826772e-001 -2.472920e+000
         vertex 6.195027e-001 -5.826772e-001 -2.395022e+000
         vertex 6.233323e-001 -5.826772e-001 -2.402974e+000
      endloop
   endfacet
   facet normal 0.000000e+000 1.000000e+000 0.000000e+000
      outer loop
         vertex 7.333656e-001 -5.826772e-001 -2.377860e+000
         vertex 7.333656e-001 -5.826772e-001 -2.369034e+000
         vertex 8.003327e-001 -5.826772e-001 -2.392491e+000
      endloop
   endfacet
   facet normal 0.000000e+000 1.000000e+000 0.000000e+000
      outer loop
         vertex 8.003327e-001 -5.826772e-001 -2.392491e+000
         vertex 7.333656e-001 -5.826772e-001 -2.369034e+000
         vertex 7.320501e-001 -5.826772e-001 -2.360306e+000
      endloop
   endfacet
   facet normal 0.000000e+000 1.000000e+000 0.000000e+000
      outer loop
         vertex 8.003327e-001 -5.826772e-001 -2.392491e+000
         vertex 7.320501e-001 -5.826772e-001 -2.360306e+000
         vertex 7.538970e-001 -5.826772e-001 -2.273973e+000
      endloop
   endfacet
   facet normal 0.000000e+000 1.000000e+000 0.000000e+000
      outer loop
         vertex 7.538970e-001 -5.826772e-001 -2.273973e+000
         vertex 7.320501e-001 -5.826772e-001 -2.360306e+000
         vertex 7.294484e-001 -5.826772e-001 -2.351871e+000
      endloop
   endfacet
   facet normal 0.000000e+000 1.000000e+000 0.000000e+000
      outer loop
         vertex 7.538970e-001 -5.826772e-001 -2.273973e+000
         vertex 7.294484e-001 -5.826772e-001 -2.351871e+000
         vertex 7.256188e-001 -5.826772e-001 -2.343919e+000
      endloop
   endfacet
   facet normal 0.000000e+000 -1.000000e+000 0.000000e+000
      outer loop
         vertex 6.412086e-001 -6.614173e-001 -2.324653e+000
         vertex 6.488525e-001 -6.614173e-001 -2.320240e+000
         vertex 6.280398e-001 -6.614173e-001 -2.254929e+000
      endloop
   endfacet
   facet normal 0.000000e+000 -1.000000e+000 0.000000e+000
      outer loop
         vertex 6.280398e-001 -6.614173e-001 -2.254929e+000
         vertex 6.488525e-001 -6.614173e-001 -2.320240e+000
         vertex 6.570688e-001 -6.614173e-001 -2.317015e+000
      endloop
   endfacet
   facet normal 0.000000e+000 -1.000000e+000 0.000000e+000
      outer loop
         vertex 6.280398e-001 -6.614173e-001 -2.254929e+000
         vertex 6.570688e-001 -6.614173e-001 -2.317015e+000
         vertex 6.656738e-001 -6.614173e-001 -2.315051e+000
      endloop
   endfacet
   facet normal 0.000000e+000 -1.000000e+000 0.000000e+000
      outer loop
         vertex 6.656738e-001 -6.614173e-001 -2.315051e+000
         vertex 6.744756e-001 -6.614173e-001 -2.314392e+000
         vertex 6.280398e-001 -6.614173e-001 -2.254929e+000
      endloop
   endfacet
   facet normal 0.000000e+000 -1.000000e+000 0.000000e+000
      outer loop
         vertex 6.280398e-001 -6.614173e-001 -2.254929e+000
         vertex 6.744756e-001 -6.614173e-001 -2.314392e+000
         vertex 6.832772e-001 -6.614173e-001 -2.315051e+000
      endloop
   endfacet
   facet normal 0.000000e+000 -1.000000e+000 0.000000e+000
      outer loop
         vertex 6.280398e-001 -6.614173e-001 -2.254929e+000
         vertex 6.832772e-001 -6.614173e-001 -2.315051e+000
         vertex 7.538970e-001 -6.614173e-001 -2.273973e+000
      endloop
   endfacet
   facet normal 0.000000e+000 -1.000000e+000 0.000000e+000
      outer loop
         vertex 7.538970e-001 -6.614173e-001 -2.273973e+000
         vertex 6.832772e-001 -6.614173e-001 -2.315051e+000
         vertex 6.918823e-001 -6.614173e-001 -2.317015e+000
      endloop
   endfacet
   facet normal 0.000000e+000 -1.000000e+000 0.000000e+000
      outer loop
         vertex 7.538970e-001 -6.614173e-001 -2.273973e+000
         vertex 6.918823e-001 -6.614173e-001 -2.317015e+000
         vertex 7.000986e-001 -6.614173e-001 -2.320240e+000
      endloop
   endfacet
   facet normal 0.000000e+000 -1.000000e+000 0.000000e+000
      outer loop
         vertex 7.077425e-001 -6.614173e-001 -2.422240e+000
         vertex 7.000986e-001 -6.614173e-001 -2.426654e+000
         vertex 7.209113e-001 -6.614173e-001 -2.491964e+000
      endloop
   endfacet
   facet normal 0.000000e+000 -1.000000e+000 0.000000e+000
      outer loop
         vertex 7.209113e-001 -6.614173e-001 -2.491964e+000
         vertex 7.000986e-001 -6.614173e-001 -2.426654e+000
         vertex 6.918823e-001 -6.614173e-001 -2.429878e+000
      endloop
   endfacet
   facet normal 0.000000e+000 -1.000000e+000 0.000000e+000
      outer loop
         vertex 7.209113e-001 -6.614173e-001 -2.491964e+000
         vertex 6.918823e-001 -6.614173e-001 -2.429878e+000
         vertex 6.832772e-001 -6.614173e-001 -2.431842e+000
      endloop
   endfacet
   facet normal 0.000000e+000 -1.000000e+000 0.000000e+000
      outer loop
         vertex 6.832772e-001 -6.614173e-001 -2.431842e+000
         vertex 6.744756e-001 -6.614173e-001 -2.432502e+000
         vertex 7.209113e-001 -6.614173e-001 -2.491964e+000
      endloop
   endfacet
   facet normal 0.000000e+000 -1.000000e+000 0.000000e+000
      outer loop
         vertex 7.209113e-001 -6.614173e-001 -2.491964e+000
         vertex 6.744756e-001 -6.614173e-001 -2.432502e+000
         vertex 6.656738e-001 -6.614173e-001 -2.431842e+000
      endloop
   endfacet
   facet normal 0.000000e+000 -1.000000e+000 0.000000e+000
      outer loop
         vertex 7.209113e-001 -6.614173e-001 -2.491964e+000
         vertex 6.656738e-001 -6.614173e-001 -2.431842e+000
         vertex 5.950541e-001 -6.614173e-001 -2.472920e+000
      endloop
   endfacet
   facet normal 0.000000e+000 -1.000000e+000 0.000000e+000
      outer loop
         vertex 5.950541e-001 -6.614173e-001 -2.472920e+000
         vertex 6.656738e-001 -6.614173e-001 -2.431842e+000
         vertex 6.570688e-001 -6.614173e-001 -2.429878e+000
      endloop
   endfacet
   facet normal 0.000000e+000 -1.000000e+000 0.000000e+000
      outer loop
         vertex 5.950541e-001 -6.614173e-001 -2.472920e+000
         vertex 6.570688e-001 -6.614173e-001 -2.429878e+000
         vertex 6.488525e-001 -6.614173e-001 -2.426654e+000
      endloop
   endfacet
   facet normal 0.000000e+000 -1.000000e+000 0.000000e+000
      outer loop
         vertex 6.488525e-001 -6.614173e-001 -2.426654e+000
         vertex 6.412086e-001 -6.614173e-001 -2.422240e+000
         vertex 5.950541e-001 -6.614173e-001 -2.472920e+000
      endloop
   endfacet
   facet normal 0.000000e+000 -1.000000e+000 0.000000e+000
      outer loop
         vertex 5.950541e-001 -6.614173e-001 -2.472920e+000
         vertex 6.412086e-001 -6.614173e-001 -2.422240e+000
         vertex 6.343079e-001 -6.614173e-001 -2.416737e+000
      endloop
   endfacet
   facet normal 0.000000e+000 -1.000000e+000 0.000000e+000
      outer loop
         vertex 5.950541e-001 -6.614173e-001 -2.472920e+000
         vertex 6.343079e-001 -6.614173e-001 -2.416737e+000
         vertex 6.283044e-001 -6.614173e-001 -2.410267e+000
      endloop
   endfacet
   facet normal 0.000000e+000 -1.000000e+000 0.000000e+000
      outer loop
         vertex 7.000986e-001 -6.614173e-001 -2.320240e+000
         vertex 7.077425e-001 -6.614173e-001 -2.324653e+000
         vertex 7.538970e-001 -6.614173e-001 -2.273973e+000
      endloop
   endfacet
   facet normal 0.000000e+000 -1.000000e+000 0.000000e+000
      outer loop
         vertex 7.538970e-001 -6.614173e-001 -2.273973e+000
         vertex 7.077425e-001 -6.614173e-001 -2.324653e+000
         vertex 7.146433e-001 -6.614173e-001 -2.330156e+000
      endloop
   endfacet
   facet normal 0.000000e+000 -1.000000e+000 0.000000e+000
      outer loop
         vertex 7.538970e-001 -6.614173e-001 -2.273973e+000
         vertex 7.146433e-001 -6.614173e-001 -2.330156e+000
         vertex 7.206467e-001 -6.614173e-001 -2.336627e+000
      endloop
   endfacet
   facet normal 0.000000e+000 -1.000000e+000 0.000000e+000
      outer loop
         vertex 6.283044e-001 -6.614173e-001 -2.410267e+000
         vertex 6.233323e-001 -6.614173e-001 -2.402974e+000
         vertex 5.950541e-001 -6.614173e-001 -2.472920e+000
      endloop
   endfacet
   facet normal 0.000000e+000 -1.000000e+000 0.000000e+000
      outer loop
         vertex 5.950541e-001 -6.614173e-001 -2.472920e+000
         vertex 6.233323e-001 -6.614173e-001 -2.402974e+000
         vertex 6.195027e-001 -6.614173e-001 -2.395022e+000
      endloop
   endfacet
   facet normal 0.000000e+000 -1.000000e+000 0.000000e+000
      outer loop
         vertex 5.950541e-001 -6.614173e-001 -2.472920e+000
         vertex 6.195027e-001 -6.614173e-001 -2.395022e+000
         vertex 5.486184e-001 -6.614173e-001 -2.354403e+000
      endloop
   endfacet
   facet normal 0.000000e+000 -1.000000e+000 0.000000e+000
      outer loop
         vertex 5.486184e-001 -6.614173e-001 -2.354403e+000
         vertex 6.195027e-001 -6.614173e-001 -2.395022e+000
         vertex 6.169010e-001 -6.614173e-001 -2.386588e+000
      endloop
   endfacet
   facet normal 0.000000e+000 -1.000000e+000 0.000000e+000
      outer loop
         vertex 5.486184e-001 -6.614173e-001 -2.354403e+000
         vertex 6.169010e-001 -6.614173e-001 -2.386588e+000
         vertex 6.155856e-001 -6.614173e-001 -2.377860e+000
      endloop
   endfacet
   facet normal 0.000000e+000 -1.000000e+000 0.000000e+000
      outer loop
         vertex 6.155856e-001 -6.614173e-001 -2.377860e+000
         vertex 6.155856e-001 -6.614173e-001 -2.369034e+000
         vertex 5.486184e-001 -6.614173e-001 -2.354403e+000
      endloop
   endfacet
   facet normal 0.000000e+000 -1.000000e+000 0.000000e+000
      outer loop
         vertex 5.486184e-001 -6.614173e-001 -2.354403e+000
         vertex 6.155856e-001 -6.614173e-001 -2.369034e+000
         vertex 6.169010e-001 -6.614173e-001 -2.360306e+000
      endloop
   endfacet
   facet normal 0.000000e+000 -1.000000e+000 0.000000e+000
      outer loop
         vertex 5.486184e-001 -6.614173e-001 -2.354403e+000
         vertex 6.169010e-001 -6.614173e-001 -2.360306e+000
         vertex 6.195027e-001 -6.614173e-001 -2.351871e+000
      endloop
   endfacet
   facet normal 0.000000e+000 -1.000000e+000 0.000000e+000
      outer loop
         vertex 7.206467e-001 -6.614173e-001 -2.336627e+000
         vertex 7.256188e-001 -6.614173e-001 -2.343919e+000
         vertex 7.538970e-001 -6.614173e-001 -2.273973e+000
      endloop
   endfacet
   facet normal 0.000000e+000 -1.000000e+000 0.000000e+000
      outer loop
         vertex 7.538970e-001 -6.614173e-001 -2.273973e+000
         vertex 7.256188e-001 -6.614173e-001 -2.343919e+000
         vertex 7.294484e-001 -6.614173e-001 -2.351871e+000
      endloop
   endfacet
   facet normal 0.000000e+000 -1.000000e+000 0.000000e+000
      outer loop
         vertex 7.538970e-001 -6.614173e-001 -2.273973e+000
         vertex 7.294484e-001 -6.614173e-001 -2.351871e+000
         vertex 8.003327e-001 -6.614173e-001 -2.392491e+000
      endloop
   endfacet
   facet normal 0.000000e+000 -1.000000e+000 0.000000e+000
      outer loop
         vertex 8.003327e-001 -6.614173e-001 -2.392491e+000
         vertex 7.294484e-001 -6.614173e-001 -2.351871e+000
         vertex 7.320501e-001 -6.614173e-001 -2.360306e+000
      endloop
   endfacet
   facet normal 0.000000e+000 -1.000000e+000 0.000000e+000
      outer loop
         vertex 8.003327e-001 -6.614173e-001 -2.392491e+000
         vertex 7.320501e-001 -6.614173e-001 -2.360306e+000
         vertex 7.333656e-001 -6.614173e-001 -2.369034e+000
      endloop
   endfacet
   facet normal 0.000000e+000 -1.000000e+000 0.000000e+000
      outer loop
         vertex 7.333656e-001 -6.614173e-001 -2.369034e+000
         vertex 7.333656e-001 -6.614173e-001 -2.377860e+000
         vertex 8.003327e-001 -6.614173e-001 -2.392491e+000
      endloop
   endfacet
   facet normal 0.000000e+000 -1.000000e+000 0.000000e+000
      outer loop
         vertex 8.003327e-001 -6.614173e-001 -2.392491e+000
         vertex 7.333656e-001 -6.614173e-001 -2.377860e+000
         vertex 7.320501e-001 -6.614173e-001 -2.386588e+000
      endloop
   endfacet
   facet normal 0.000000e+000 -1.000000e+000 0.000000e+000
      outer loop
         vertex 8.003327e-001 -6.614173e-001 -2.392491e+000
         vertex 7.320501e-001 -6.614173e-001 -2.386588e+000
         vertex 7.294484e-001 -6.614173e-001 -2.395022e+000
      endloop
   endfacet
   facet normal 0.000000e+000 -1.000000e+000 0.000000e+000
      outer loop
         vertex 6.195027e-001 -6.614173e-001 -2.351871e+000
         vertex 6.233323e-001 -6.614173e-001 -2.343919e+000
         vertex 5.486184e-001 -6.614173e-001 -2.354403e+000
      endloop
   endfacet
   facet normal 0.000000e+000 -1.000000e+000 0.000000e+000
      outer loop
         vertex 5.486184e-001 -6.614173e-001 -2.354403e+000
         vertex 6.233323e-001 -6.614173e-001 -2.343919e+000
         vertex 6.283044e-001 -6.614173e-001 -2.336627e+000
      endloop
   endfacet
   facet normal 0.000000e+000 -1.000000e+000 0.000000e+000
      outer loop
         vertex 5.486184e-001 -6.614173e-001 -2.354403e+000
         vertex 6.283044e-001 -6.614173e-001 -2.336627e+000
         vertex 6.280398e-001 -6.614173e-001 -2.254929e+000
      endloop
   endfacet
   facet normal 0.000000e+000 -1.000000e+000 0.000000e+000
      outer loop
         vertex 6.280398e-001 -6.614173e-001 -2.254929e+000
         vertex 6.283044e-001 -6.614173e-001 -2.336627e+000
         vertex 6.343079e-001 -6.614173e-001 -2.330156e+000
      endloop
   endfacet
   facet normal 0.000000e+000 -1.000000e+000 0.000000e+000
      outer loop
         vertex 6.280398e-001 -6.614173e-001 -2.254929e+000
         vertex 6.343079e-001 -6.614173e-001 -2.330156e+000
         vertex 6.412086e-001 -6.614173e-001 -2.324653e+000
      endloop
   endfacet
   facet normal 0.000000e+000 -1.000000e+000 0.000000e+000
      outer loop
         vertex 7.294484e-001 -6.614173e-001 -2.395022e+000
         vertex 7.256188e-001 -6.614173e-001 -2.402974e+000
         vertex 8.003327e-001 -6.614173e-001 -2.392491e+000
      endloop
   endfacet
   facet normal 0.000000e+000 -1.000000e+000 0.000000e+000
      outer loop
         vertex 8.003327e-001 -6.614173e-001 -2.392491e+000
         vertex 7.256188e-001 -6.614173e-001 -2.402974e+000
         vertex 7.206467e-001 -6.614173e-001 -2.410267e+000
      endloop
   endfacet
   facet normal 0.000000e+000 -1.000000e+000 0.000000e+000
      outer loop
         vertex 8.003327e-001 -6.614173e-001 -2.392491e+000
         vertex 7.206467e-001 -6.614173e-001 -2.410267e+000
         vertex 7.209113e-001 -6.614173e-001 -2.491964e+000
      endloop
   endfacet
   facet normal 0.000000e+000 -1.000000e+000 0.000000e+000
      outer loop
         vertex 7.209113e-001 -6.614173e-001 -2.491964e+000
         vertex 7.206467e-001 -6.614173e-001 -2.410267e+000
         vertex 7.146433e-001 -6.614173e-001 -2.416737e+000
      endloop
   endfacet
   facet normal 0.000000e+000 -1.000000e+000 0.000000e+000
      outer loop
         vertex 7.209113e-001 -6.614173e-001 -2.491964e+000
         vertex 7.146433e-001 -6.614173e-001 -2.416737e+000
         vertex 7.077425e-001 -6.614173e-001 -2.422240e+000
      endloop
   endfacet
   facet normal 9.310847e-001 0.000000e+000 3.648032e-001
      outer loop
         vertex 8.003327e-001 -5.826772e-001 -2.392491e+000
         vertex 7.538970e-001 -5.826772e-001 -2.273973e+000
         vertex 8.003327e-001 -6.614173e-001 -2.392491e+000
      endloop
   endfacet
   facet normal 9.310847e-001 0.000000e+000 3.648032e-001
      outer loop
         vertex 8.003327e-001 -6.614173e-001 -2.392491e+000
         vertex 7.538970e-001 -5.826772e-001 -2.273973e+000
         vertex 7.538970e-001 -6.614173e-001 -2.273973e+000
      endloop
   endfacet
   facet normal 7.814711e-001 0.000000e+000 -6.239415e-001
      outer loop
         vertex 7.209113e-001 -5.826772e-001 -2.491964e+000
         vertex 8.003327e-001 -5.826772e-001 -2.392491e+000
         vertex 7.209113e-001 -6.614173e-001 -2.491964e+000
      endloop
   endfacet
   facet normal 7.814711e-001 0.000000e+000 -6.239415e-001
      outer loop
         vertex 7.209113e-001 -6.614173e-001 -2.491964e+000
         vertex 8.003327e-001 -5.826772e-001 -2.392491e+000
         vertex 8.003327e-001 -6.614173e-001 -2.392491e+000
      endloop
   endfacet
   facet normal -1.496135e-001 0.000000e+000 -9.887446e-001
      outer loop
         vertex 5.950541e-001 -5.826772e-001 -2.472920e+000
         vertex 7.209113e-001 -5.826772e-001 -2.491964e+000
         vertex 5.950541e-001 -6.614173e-001 -2.472920e+000
      endloop
   endfacet
   facet normal -1.496135e-001 0.000000e+000 -9.887446e-001
      outer loop
         vertex 5.950541e-001 -6.614173e-001 -2.472920e+000
         vertex 7.209113e-001 -5.826772e-001 -2.491964e+000
         vertex 7.209113e-001 -6.614173e-001 -2.491964e+000
      endloop
   endfacet
   facet normal -9.310847e-001 0.000000e+000 -3.648032e-001
      outer loop
         vertex 5.486184e-001 -5.826772e-001 -2.354403e+000
         vertex 5.950541e-001 -5.826772e-001 -2.472920e+000
         vertex 5.486184e-001 -6.614173e-001 -2.354403e+000
      endloop
   endfacet
   facet normal -9.310847e-001 0.000000e+000 -3.648032e-001
      outer loop
         vertex 5.486184e-001 -6.614173e-001 -2.354403e+000
         vertex 5.950541e-001 -5.826772e-001 -2.472920e+000
         vertex 5.950541e-001 -6.614173e-001 -2.472920e+000
      endloop
   endfacet
   facet normal -7.814711e-001 0.000000e+000 6.239415e-001
      outer loop
         vertex 6.280398e-001 -5.826772e-001 -2.254929e+000
         vertex 5.486184e-001 -5.826772e-001 -2.354403e+000
         vertex 6.280398e-001 -6.614173e-001 -2.254929e+000
      endloop
   endfacet
   facet normal -7.814711e-001 0.000000e+000 6.239415e-001
      outer loop
         vertex 6.280398e-001 -6.614173e-001 -2.254929e+000
         vertex 5.486184e-001 -5.826772e-001 -2.354403e+000
         vertex 5.486184e-001 -6.614173e-001 -2.354403e+000
      endloop
   endfacet
   facet normal 1.496135e-001 0.000000e+000 9.887446e-001
      outer loop
         vertex 7.538970e-001 -5.826772e-001 -2.273973e+000
         vertex 6.280398e-001 -5.826772e-001 -2.254929e+000
         vertex 7.538970e-001 -6.614173e-001 -2.273973e+000
      endloop
   endfacet
   facet normal 1.496135e-001 0.000000e+000 9.887446e-001
      outer loop
         vertex 7.538970e-001 -6.614173e-001 -2.273973e+000
         vertex 6.280398e-001 -5.826772e-001 -2.254929e+000
         vertex 6.280398e-001 -6.614173e-001 -2.254929e+000
      endloop
   endfacet
   facet normal 4.980453e-002 0.000000e+000 9.987590e-001
      outer loop
         vertex 6.656738e-001 -5.826772e-001 -2.431842e+000
         vertex 6.744756e-001 -6.614173e-001 -2.432502e+000
         vertex 6.744756e-001 -5.826772e-001 -2.432502e+000
      endloop
   endfacet
   facet normal -4.980453e-002 0.000000e+000 9.987590e-001
      outer loop
         vertex 6.744756e-001 -5.826772e-001 -2.432502e+000
         vertex 6.744756e-001 -6.614173e-001 -2.432502e+000
         vertex 6.832772e-001 -6.614173e-001 -2.431842e+000
      endloop
   endfacet
   facet normal -9.960905e-002 0.000000e+000 9.950266e-001
      outer loop
         vertex 6.744756e-001 -5.826772e-001 -2.432502e+000
         vertex 6.832772e-001 -6.614173e-001 -2.431842e+000
         vertex 6.832772e-001 -5.826772e-001 -2.431842e+000
      endloop
   endfacet
   facet normal -1.981055e-001 0.000000e+000 9.801807e-001
      outer loop
         vertex 6.832772e-001 -5.826772e-001 -2.431842e+000
         vertex 6.832772e-001 -6.614173e-001 -2.431842e+000
         vertex 6.918823e-001 -6.614173e-001 -2.429878e+000
      endloop
   endfacet
   facet normal -2.467975e-001 0.000000e+000 9.690670e-001
      outer loop
         vertex 6.832772e-001 -5.826772e-001 -2.431842e+000
         vertex 6.918823e-001 -6.614173e-001 -2.429878e+000
         vertex 6.918823e-001 -5.826772e-001 -2.429878e+000
      endloop
   endfacet
   facet normal -3.419812e-001 0.000000e+000 9.397067e-001
      outer loop
         vertex 6.918823e-001 -5.826772e-001 -2.429878e+000
         vertex 6.918823e-001 -6.614173e-001 -2.429878e+000
         vertex 7.000986e-001 -6.614173e-001 -2.426654e+000
      endloop
   endfacet
   facet normal -3.884729e-001 0.000000e+000 9.214601e-001
      outer loop
         vertex 6.918823e-001 -5.826772e-001 -2.429878e+000
         vertex 7.000986e-001 -6.614173e-001 -2.426654e+000
         vertex 7.000986e-001 -5.826772e-001 -2.426654e+000
      endloop
   endfacet
   facet normal -4.782176e-001 0.000000e+000 8.782414e-001
      outer loop
         vertex 7.000986e-001 -5.826772e-001 -2.426654e+000
         vertex 7.000986e-001 -6.614173e-001 -2.426654e+000
         vertex 7.077425e-001 -6.614173e-001 -2.422240e+000
      endloop
   endfacet
   facet normal -5.214705e-001 0.000000e+000 8.532693e-001
      outer loop
         vertex 7.000986e-001 -5.826772e-001 -2.426654e+000
         vertex 7.077425e-001 -6.614173e-001 -2.422240e+000
         vertex 7.077425e-001 -5.826772e-001 -2.422240e+000
      endloop
   endfacet
   facet normal -6.037714e-001 0.000000e+000 7.971576e-001
      outer loop
         vertex 7.077425e-001 -5.826772e-001 -2.422240e+000
         vertex 7.077425e-001 -6.614173e-001 -2.422240e+000
         vertex 7.146433e-001 -6.614173e-001 -2.416737e+000
      endloop
   endfacet
   facet normal -6.428193e-001 0.000000e+000 7.660179e-001
      outer loop
         vertex 7.077425e-001 -5.826772e-001 -2.422240e+000
         vertex 7.146433e-001 -6.614173e-001 -2.416737e+000
         vertex 7.146433e-001 -5.826772e-001 -2.416737e+000
      endloop
   endfacet
   facet normal -7.158380e-001 0.000000e+000 6.982664e-001
      outer loop
         vertex 7.146433e-001 -5.826772e-001 -2.416737e+000
         vertex 7.146433e-001 -6.614173e-001 -2.416737e+000
         vertex 7.206467e-001 -6.614173e-001 -2.410267e+000
      endloop
   endfacet
   facet normal -7.498086e-001 0.000000e+000 6.616548e-001
      outer loop
         vertex 7.146433e-001 -5.826772e-001 -2.416737e+000
         vertex 7.206467e-001 -6.614173e-001 -2.410267e+000
         vertex 7.206467e-001 -5.826772e-001 -2.410267e+000
      endloop
   endfacet
   facet normal -8.119138e-001 0.000000e+000 5.837772e-001
      outer loop
         vertex 7.206467e-001 -5.826772e-001 -2.410267e+000
         vertex 7.206467e-001 -6.614173e-001 -2.410267e+000
         vertex 7.256188e-001 -6.614173e-001 -2.402974e+000
      endloop
   endfacet
   facet normal -8.400484e-001 0.000000e+000 5.425115e-001
      outer loop
         vertex 7.206467e-001 -5.826772e-001 -2.410267e+000
         vertex 7.256188e-001 -6.614173e-001 -2.402974e+000
         vertex 7.256188e-001 -5.826772e-001 -2.402974e+000
      endloop
   endfacet
   facet normal -8.898529e-001 0.000000e+000 4.562475e-001
      outer loop
         vertex 7.256188e-001 -5.826772e-001 -2.402974e+000
         vertex 7.256188e-001 -6.614173e-001 -2.402974e+000
         vertex 7.294484e-001 -6.614173e-001 -2.395022e+000
      endloop
   endfacet
   facet normal -9.115229e-001 0.000000e+000 4.112494e-001
      outer loop
         vertex 7.256188e-001 -5.826772e-001 -2.402974e+000
         vertex 7.294484e-001 -6.614173e-001 -2.395022e+000
         vertex 7.294484e-001 -5.826772e-001 -2.395022e+000
      endloop
   endfacet
   facet normal -9.479141e-001 0.000000e+000 3.185259e-001
      outer loop
         vertex 7.294484e-001 -5.826772e-001 -2.395022e+000
         vertex 7.294484e-001 -6.614173e-001 -2.395022e+000
         vertex 7.320501e-001 -6.614173e-001 -2.386588e+000
      endloop
   endfacet
   facet normal -9.626355e-001 0.000000e+000 2.708006e-001
      outer loop
         vertex 7.294484e-001 -5.826772e-001 -2.395022e+000
         vertex 7.320501e-001 -6.614173e-001 -2.386588e+000
         vertex 7.320501e-001 -5.826772e-001 -2.386588e+000
      endloop
   endfacet
   facet normal -9.848005e-001 0.000000e+000 1.736889e-001
      outer loop
         vertex 7.320501e-001 -5.826772e-001 -2.386588e+000
         vertex 7.320501e-001 -6.614173e-001 -2.386588e+000
         vertex 7.333656e-001 -6.614173e-001 -2.377860e+000
      endloop
   endfacet
   facet normal -9.922444e-001 0.000000e+000 1.243026e-001
      outer loop
         vertex 7.320501e-001 -5.826772e-001 -2.386588e+000
         vertex 7.333656e-001 -6.614173e-001 -2.377860e+000
         vertex 7.333656e-001 -5.826772e-001 -2.377860e+000
      endloop
   endfacet
   facet normal -9.996881e-001 0.000000e+000 2.497209e-002
      outer loop
         vertex 7.333656e-001 -5.826772e-001 -2.377860e+000
         vertex 7.333656e-001 -6.614173e-001 -2.377860e+000
         vertex 7.333656e-001 -6.614173e-001 -2.369034e+000
      endloop
   endfacet
   facet normal -9.996881e-001 0.000000e+000 -2.497209e-002
      outer loop
         vertex 7.333656e-001 -5.826772e-001 -2.377860e+000
         vertex 7.333656e-001 -6.614173e-001 -2.369034e+000
         vertex 7.333656e-001 -5.826772e-001 -2.369034e+000
      endloop
   endfacet
   facet normal -9.922444e-001 0.000000e+000 -1.243026e-001
      outer loop
         vertex 7.333656e-001 -5.826772e-001 -2.369034e+000
         vertex 7.333656e-001 -6.614173e-001 -2.369034e+000
         vertex 7.320501e-001 -6.614173e-001 -2.360306e+000
      endloop
   endfacet
   facet normal -9.848005e-001 0.000000e+000 -1.736889e-001
      outer loop
         vertex 7.333656e-001 -5.826772e-001 -2.369034e+000
         vertex 7.320501e-001 -6.614173e-001 -2.360306e+000
         vertex 7.320501e-001 -5.826772e-001 -2.360306e+000
      endloop
   endfacet
   facet normal -9.626355e-001 0.000000e+000 -2.708006e-001
      outer loop
         vertex 7.320501e-001 -5.826772e-001 -2.360306e+000
         vertex 7.320501e-001 -6.614173e-001 -2.360306e+000
         vertex 7.294484e-001 -6.614173e-001 -2.351871e+000
      endloop
   endfacet
   facet normal -9.479141e-001 0.000000e+000 -3.185259e-001
      outer loop
         vertex 7.320501e-001 -5.826772e-001 -2.360306e+000
         vertex 7.294484e-001 -6.614173e-001 -2.351871e+000
         vertex 7.294484e-001 -5.826772e-001 -2.351871e+000
      endloop
   endfacet
   facet normal -9.115229e-001 0.000000e+000 -4.112494e-001
      outer loop
         vertex 7.294484e-001 -5.826772e-001 -2.351871e+000
         vertex 7.294484e-001 -6.614173e-001 -2.351871e+000
         vertex 7.256188e-001 -6.614173e-001 -2.343919e+000
      endloop
   endfacet
   facet normal -8.898529e-001 0.000000e+000 -4.562475e-001
      outer loop
         vertex 7.294484e-001 -5.826772e-001 -2.351871e+000
         vertex 7.256188e-001 -6.614173e-001 -2.343919e+000
         vertex 7.256188e-001 -5.826772e-001 -2.343919e+000
      endloop
   endfacet
   facet normal -8.400484e-001 0.000000e+000 -5.425115e-001
      outer loop
         vertex 7.256188e-001 -5.826772e-001 -2.343919e+000
         vertex 7.256188e-001 -6.614173e-001 -2.343919e+000
         vertex 7.206467e-001 -6.614173e-001 -2.336627e+000
      endloop
   endfacet
   facet normal -8.119138e-001 0.000000e+000 -5.837773e-001
      outer loop
         vertex 7.256188e-001 -5.826772e-001 -2.343919e+000
         vertex 7.206467e-001 -6.614173e-001 -2.336627e+000
         vertex 7.206467e-001 -5.826772e-001 -2.336627e+000
      endloop
   endfacet
   facet normal -7.498086e-001 0.000000e+000 -6.616548e-001
      outer loop
         vertex 7.206467e-001 -5.826772e-001 -2.336627e+000
         vertex 7.206467e-001 -6.614173e-001 -2.336627e+000
         vertex 7.146433e-001 -6.614173e-001 -2.330156e+000
      endloop
   endfacet
   facet normal -7.158380e-001 0.000000e+000 -6.982664e-001
      outer loop
         vertex 7.206467e-001 -5.826772e-001 -2.336627e+000
         vertex 7.146433e-001 -6.614173e-001 -2.330156e+000
         vertex 7.146433e-001 -5.826772e-001 -2.330156e+000
      endloop
   endfacet
   facet normal -6.428193e-001 0.000000e+000 -7.660179e-001
      outer loop
         vertex 7.146433e-001 -5.826772e-001 -2.330156e+000
         vertex 7.146433e-001 -6.614173e-001 -2.330156e+000
         vertex 7.077425e-001 -6.614173e-001 -2.324653e+000
      endloop
   endfacet
   facet normal -6.037714e-001 0.000000e+000 -7.971575e-001
      outer loop
         vertex 7.146433e-001 -5.826772e-001 -2.330156e+000
         vertex 7.077425e-001 -6.614173e-001 -2.324653e+000
         vertex 7.077425e-001 -5.826772e-001 -2.324653e+000
      endloop
   endfacet
   facet normal -5.214705e-001 0.000000e+000 -8.532693e-001
      outer loop
         vertex 7.077425e-001 -5.826772e-001 -2.324653e+000
         vertex 7.077425e-001 -6.614173e-001 -2.324653e+000
         vertex 7.000986e-001 -6.614173e-001 -2.320240e+000
      endloop
   endfacet
   facet normal -4.782176e-001 0.000000e+000 -8.782414e-001
      outer loop
         vertex 7.077425e-001 -5.826772e-001 -2.324653e+000
         vertex 7.000986e-001 -6.614173e-001 -2.320240e+000
         vertex 7.000986e-001 -5.826772e-001 -2.320240e+000
      endloop
   endfacet
   facet normal -3.884729e-001 0.000000e+000 -9.214601e-001
      outer loop
         vertex 7.000986e-001 -5.826772e-001 -2.320240e+000
         vertex 7.000986e-001 -6.614173e-001 -2.320240e+000
         vertex 6.918823e-001 -6.614173e-001 -2.317015e+000
      endloop
   endfacet
   facet normal -3.419812e-001 0.000000e+000 -9.397067e-001
      outer loop
         vertex 7.000986e-001 -5.826772e-001 -2.320240e+000
         vertex 6.918823e-001 -6.614173e-001 -2.317015e+000
         vertex 6.918823e-001 -5.826772e-001 -2.317015e+000
      endloop
   endfacet
   facet normal -2.467975e-001 0.000000e+000 -9.690670e-001
      outer loop
         vertex 6.918823e-001 -5.826772e-001 -2.317015e+000
         vertex 6.918823e-001 -6.614173e-001 -2.317015e+000
         vertex 6.832772e-001 -6.614173e-001 -2.315051e+000
      endloop
   endfacet
   facet normal -1.981055e-001 0.000000e+000 -9.801807e-001
      outer loop
         vertex 6.918823e-001 -5.826772e-001 -2.317015e+000
         vertex 6.832772e-001 -6.614173e-001 -2.315051e+000
         vertex 6.832772e-001 -5.826772e-001 -2.315051e+000
      endloop
   endfacet
   facet normal -9.960905e-002 0.000000e+000 -9.950266e-001
      outer loop
         vertex 6.832772e-001 -5.826772e-001 -2.315051e+000
         vertex 6.832772e-001 -6.614173e-001 -2.315051e+000
         vertex 6.744756e-001 -6.614173e-001 -2.314392e+000
      endloop
   endfacet
   facet normal -4.980453e-002 0.000000e+000 -9.987590e-001
      outer loop
         vertex 6.832772e-001 -5.826772e-001 -2.315051e+000
         vertex 6.744756e-001 -6.614173e-001 -2.314392e+000
         vertex 6.744756e-001 -5.826772e-001 -2.314392e+000
      endloop
   endfacet
   facet normal 4.980453e-002 0.000000e+000 -9.987590e-001
      outer loop
         vertex 6.744756e-001 -5.826772e-001 -2.314392e+000
         vertex 6.744756e-001 -6.614173e-001 -2.314392e+000
         vertex 6.656738e-001 -6.614173e-001 -2.315051e+000
      endloop
   endfacet
   facet normal 9.960905e-002 0.000000e+000 -9.950266e-001
      outer loop
         vertex 6.744756e-001 -5.826772e-001 -2.314392e+000
         vertex 6.656738e-001 -6.614173e-001 -2.315051e+000
         vertex 6.656738e-001 -5.826772e-001 -2.315051e+000
      endloop
   endfacet
   facet normal 1.981055e-001 0.000000e+000 -9.801807e-001
      outer loop
         vertex 6.656738e-001 -5.826772e-001 -2.315051e+000
         vertex 6.656738e-001 -6.614173e-001 -2.315051e+000
         vertex 6.570688e-001 -6.614173e-001 -2.317015e+000
      endloop
   endfacet
   facet normal 2.467975e-001 0.000000e+000 -9.690670e-001
      outer loop
         vertex 6.656738e-001 -5.826772e-001 -2.315051e+000
         vertex 6.570688e-001 -6.614173e-001 -2.317015e+000
         vertex 6.570688e-001 -5.826772e-001 -2.317015e+000
      endloop
   endfacet
   facet normal 3.419812e-001 0.000000e+000 -9.397067e-001
      outer loop
         vertex 6.570688e-001 -5.826772e-001 -2.317015e+000
         vertex 6.570688e-001 -6.614173e-001 -2.317015e+000
         vertex 6.488525e-001 -6.614173e-001 -2.320240e+000
      endloop
   endfacet
   facet normal 3.884729e-001 0.000000e+000 -9.214601e-001
      outer loop
         vertex 6.570688e-001 -5.826772e-001 -2.317015e+000
         vertex 6.488525e-001 -6.614173e-001 -2.320240e+000
         vertex 6.488525e-001 -5.826772e-001 -2.320240e+000
      endloop
   endfacet
   facet normal 4.782176e-001 0.000000e+000 -8.782414e-001
      outer loop
         vertex 6.488525e-001 -5.826772e-001 -2.320240e+000
         vertex 6.488525e-001 -6.614173e-001 -2.320240e+000
         vertex 6.412086e-001 -6.614173e-001 -2.324653e+000
      endloop
   endfacet
   facet normal 5.214705e-001 0.000000e+000 -8.532693e-001
      outer loop
         vertex 6.488525e-001 -5.826772e-001 -2.320240e+000
         vertex 6.412086e-001 -6.614173e-001 -2.324653e+000
         vertex 6.412086e-001 -5.826772e-001 -2.324653e+000
      endloop
   endfacet
   facet normal 6.037714e-001 0.000000e+000 -7.971576e-001
      outer loop
         vertex 6.412086e-001 -5.826772e-001 -2.324653e+000
         vertex 6.412086e-001 -6.614173e-001 -2.324653e+000
         vertex 6.343079e-001 -6.614173e-001 -2.330156e+000
      endloop
   endfacet
   facet normal 6.428193e-001 0.000000e+000 -7.660179e-001
      outer loop
         vertex 6.412086e-001 -5.826772e-001 -2.324653e+000
         vertex 6.343079e-001 -6.614173e-001 -2.330156e+000
         vertex 6.343079e-001 -5.826772e-001 -2.330156e+000
      endloop
   endfacet
   facet normal 7.158380e-001 0.000000e+000 -6.982664e-001
      outer loop
         vertex 6.343079e-001 -5.826772e-001 -2.330156e+000
         vertex 6.343079e-001 -6.614173e-001 -2.330156e+000
         vertex 6.283044e-001 -6.614173e-001 -2.336627e+000
      endloop
   endfacet
   facet normal 7.498086e-001 0.000000e+000 -6.616548e-001
      outer loop
         vertex 6.343079e-001 -5.826772e-001 -2.330156e+000
         vertex 6.283044e-001 -6.614173e-001 -2.336627e+000
         vertex 6.283044e-001 -5.826772e-001 -2.336627e+000
      endloop
   endfacet
   facet normal 8.119138e-001 0.000000e+000 -5.837772e-001
      outer loop
         vertex 6.283044e-001 -5.826772e-001 -2.336627e+000
         vertex 6.283044e-001 -6.614173e-001 -2.336627e+000
         vertex 6.233323e-001 -6.614173e-001 -2.343919e+000
      endloop
   endfacet
   facet normal 8.400484e-001 0.000000e+000 -5.425115e-001
      outer loop
         vertex 6.283044e-001 -5.826772e-001 -2.336627e+000
         vertex 6.233323e-001 -6.614173e-001 -2.343919e+000
         vertex 6.233323e-001 -5.826772e-001 -2.343919e+000
      endloop
   endfacet
   facet normal 8.898529e-001 0.000000e+000 -4.562475e-001
      outer loop
         vertex 6.233323e-001 -5.826772e-001 -2.343919e+000
         vertex 6.233323e-001 -6.614173e-001 -2.343919e+000
         vertex 6.195027e-001 -6.614173e-001 -2.351871e+000
      endloop
   endfacet
   facet normal 9.115229e-001 0.000000e+000 -4.112494e-001
      outer loop
         vertex 6.233323e-001 -5.826772e-001 -2.343919e+000
         vertex 6.195027e-001 -6.614173e-001 -2.351871e+000
         vertex 6.195027e-001 -5.826772e-001 -2.351871e+000
      endloop
   endfacet
   facet normal 9.479141e-001 0.000000e+000 -3.185259e-001
      outer loop
         vertex 6.195027e-001 -5.826772e-001 -2.351871e+000
         vertex 6.195027e-001 -6.614173e-001 -2.351871e+000
         vertex 6.169010e-001 -6.614173e-001 -2.360306e+000
      endloop
   endfacet
   facet normal 9.626355e-001 0.000000e+000 -2.708006e-001
      outer loop
         vertex 6.195027e-001 -5.826772e-001 -2.351871e+000
         vertex 6.169010e-001 -6.614173e-001 -2.360306e+000
         vertex 6.169010e-001 -5.826772e-001 -2.360306e+000
      endloop
   endfacet
   facet normal 9.848005e-001 0.000000e+000 -1.736889e-001
      outer loop
         vertex 6.169010e-001 -5.826772e-001 -2.360306e+000
         vertex 6.169010e-001 -6.614173e-001 -2.360306e+000
         vertex 6.155856e-001 -6.614173e-001 -2.369034e+000
      endloop
   endfacet
   facet normal 9.922444e-001 0.000000e+000 -1.243026e-001
      outer loop
         vertex 6.169010e-001 -5.826772e-001 -2.360306e+000
         vertex 6.155856e-001 -6.614173e-001 -2.369034e+000
         vertex 6.155856e-001 -5.826772e-001 -2.369034e+000
      endloop
   endfacet
   facet normal 9.996881e-001 0.000000e+000 -2.497209e-002
      outer loop
         vertex 6.155856e-001 -5.826772e-001 -2.369034e+000
         vertex 6.155856e-001 -6.614173e-001 -2.369034e+000
         vertex 6.155856e-001 -6.614173e-001 -2.377860e+000
      endloop
   endfacet
   facet normal 9.996881e-001 0.000000e+000 2.497209e-002
      outer loop
         vertex 6.155856e-001 -5.826772e-001 -2.369034e+000
         vertex 6.155856e-001 -6.614173e-001 -2.377860e+000
         vertex 6.155856e-001 -5.826772e-001 -2.377860e+000
      endloop
   endfacet
   facet normal 9.922444e-001 0.000000e+000 1.243026e-001
      outer loop
         vertex 6.155856e-001 -5.826772e-001 -2.377860e+000
         vertex 6.155856e-001 -6.614173e-001 -2.377860e+000
         vertex 6.169010e-001 -6.614173e-001 -2.386588e+000
      endloop
   endfacet
   facet normal 9.848005e-001 0.000000e+000 1.736889e-001
      outer loop
         vertex 6.155856e-001 -5.826772e-001 -2.377860e+000
         vertex 6.169010e-001 -6.614173e-001 -2.386588e+000
         vertex 6.169010e-001 -5.826772e-001 -2.386588e+000
      endloop
   endfacet
   facet normal 9.626355e-001 0.000000e+000 2.708006e-001
      outer loop
         vertex 6.169010e-001 -5.826772e-001 -2.386588e+000
         vertex 6.169010e-001 -6.614173e-001 -2.386588e+000
         vertex 6.195027e-001 -6.614173e-001 -2.395022e+000
      endloop
   endfacet
   facet normal 9.479141e-001 0.000000e+000 3.185259e-001
      outer loop
         vertex 6.169010e-001 -5.826772e-001 -2.386588e+000
         vertex 6.195027e-001 -6.614173e-001 -2.395022e+000
         vertex 6.195027e-001 -5.826772e-001 -2.395022e+000
      endloop
   endfacet
   facet normal 9.115229e-001 0.000000e+000 4.112494e-001
      outer loop
         vertex 6.195027e-001 -5.826772e-001 -2.395022e+000
         vertex 6.195027e-001 -6.614173e-001 -2.395022e+000
         vertex 6.233323e-001 -6.614173e-001 -2.402974e+000
      endloop
   endfacet
   facet normal 8.898529e-001 0.000000e+000 4.562475e-001
      outer loop
         vertex 6.195027e-001 -5.826772e-001 -2.395022e+000
         vertex 6.233323e-001 -6.614173e-001 -2.402974e+000
         vertex 6.233323e-001 -5.826772e-001 -2.402974e+000
      endloop
   endfacet
   facet normal 8.400484e-001 0.000000e+000 5.425115e-001
      outer loop
         vertex 6.233323e-001 -5.826772e-001 -2.402974e+000
         vertex 6.233323e-001 -6.614173e-001 -2.402974e+000
         vertex 6.283044e-001 -6.614173e-001 -2.410267e+000
      endloop
   endfacet
   facet normal 8.119138e-001 0.000000e+000 5.837773e-001
      outer loop
         vertex 6.233323e-001 -5.826772e-001 -2.402974e+000
         vertex 6.283044e-001 -6.614173e-001 -2.410267e+000
         vertex 6.283044e-001 -5.826772e-001 -2.410267e+000
      endloop
   endfacet
   facet normal 7.498086e-001 0.000000e+000 6.616548e-001
      outer loop
         vertex 6.283044e-001 -5.826772e-001 -2.410267e+000
         vertex 6.283044e-001 -6.614173e-001 -2.410267e+000
         vertex 6.343079e-001 -6.614173e-001 -2.416737e+000
      endloop
   endfacet
   facet normal 7.158380e-001 0.000000e+000 6.982664e-001
      outer loop
         vertex 6.283044e-001 -5.826772e-001 -2.410267e+000
         vertex 6.343079e-001 -6.614173e-001 -2.416737e+000
         vertex 6.343079e-001 -5.826772e-001 -2.416737e+000
      endloop
   endfacet
   facet normal 6.428193e-001 0.000000e+000 7.660179e-001
      outer loop
         vertex 6.343079e-001 -5.826772e-001 -2.416737e+000
         vertex 6.343079e-001 -6.614173e-001 -2.416737e+000
         vertex 6.412086e-001 -6.614173e-001 -2.422240e+000
      endloop
   endfacet
   facet normal 6.037714e-001 0.000000e+000 7.971575e-001
      outer loop
         vertex 6.343079e-001 -5.826772e-001 -2.416737e+000
         vertex 6.412086e-001 -6.614173e-001 -2.422240e+000
         vertex 6.412086e-001 -5.826772e-001 -2.422240e+000
      endloop
   endfacet
   facet normal 5.214705e-001 0.000000e+000 8.532693e-001
      outer loop
         vertex 6.412086e-001 -5.826772e-001 -2.422240e+000
         vertex 6.412086e-001 -6.614173e-001 -2.422240e+000
         vertex 6.488525e-001 -6.614173e-001 -2.426654e+000
      endloop
   endfacet
   facet normal 4.782176e-001 0.000000e+000 8.782414e-001
      outer loop
         vertex 6.412086e-001 -5.826772e-001 -2.422240e+000
         vertex 6.488525e-001 -6.614173e-001 -2.426654e+000
         vertex 6.488525e-001 -5.826772e-001 -2.426654e+000
      endloop
   endfacet
   facet normal 3.884729e-001 0.000000e+000 9.214601e-001
      outer loop
         vertex 6.488525e-001 -5.826772e-001 -2.426654e+000
         vertex 6.488525e-001 -6.614173e-001 -2.426654e+000
         vertex 6.570688e-001 -6.614173e-001 -2.429878e+000
      endloop
   endfacet
   facet normal 3.419812e-001 0.000000e+000 9.397067e-001
      outer loop
         vertex 6.488525e-001 -5.826772e-001 -2.426654e+000
         vertex 6.570688e-001 -6.614173e-001 -2.429878e+000
         vertex 6.570688e-001 -5.826772e-001 -2.429878e+000
      endloop
   endfacet
   facet normal 2.467975e-001 0.000000e+000 9.690670e-001
      outer loop
         vertex 6.570688e-001 -5.826772e-001 -2.429878e+000
         vertex 6.570688e-001 -6.614173e-001 -2.429878e+000
         vertex 6.656738e-001 -6.614173e-001 -2.431842e+000
      endloop
   endfacet
   facet normal 1.981055e-001 0.000000e+000 9.801807e-001
      outer loop
         vertex 6.570688e-001 -5.826772e-001 -2.429878e+000
         vertex 6.656738e-001 -6.614173e-001 -2.431842e+000
         vertex 6.656738e-001 -5.826772e-001 -2.431842e+000
      endloop
   endfacet
   facet normal 9.960905e-002 0.000000e+000 9.950266e-001
      outer loop
         vertex 6.656738e-001 -5.826772e-001 -2.431842e+000
         vertex 6.656738e-001 -6.614173e-001 -2.431842e+000
         vertex 6.744756e-001 -6.614173e-001 -2.432502e+000
      endloop
   endfacet
endsolid