solid Body68_Default_sldprt
   facet normal 0.000000e+000 1.000000e+000 0.000000e+000
      outer loop
         vertex -6.694673e-001 6.829620e-017 -2.314605e+000
         vertex -6.744756e-001 6.829620e-017 -2.314392e+000
         vertex -6.914715e-001 6.829620e-017 -2.247297e+000
      endloop
   endfacet
   facet normal 0.000000e+000 1.000000e+000 0.000000e+000
      outer loop
         vertex -6.914715e-001 6.829620e-017 -2.247297e+000
         vertex -6.744756e-001 6.829620e-017 -2.314392e+000
         vertex -6.794838e-001 6.829620e-017 -2.314605e+000
      endloop
   endfacet
   facet normal 0.000000e+000 1.000000e+000 0.000000e+000
      outer loop
         vertex -6.914715e-001 6.829620e-017 -2.247297e+000
         vertex -6.794838e-001 6.829620e-017 -2.314605e+000
         vertex -6.893561e-001 6.829620e-017 -2.316297e+000
      endloop
   endfacet
   facet normal 0.000000e+000 1.000000e+000 0.000000e+000
      outer loop
         vertex -7.752268e-001 6.829620e-017 -2.451241e+000
         vertex -7.292721e-001 6.829620e-017 -2.395466e+000
         vertex -7.247627e-001 6.829620e-017 -2.404410e+000
      endloop
   endfacet
   facet normal 0.000000e+000 1.000000e+000 0.000000e+000
      outer loop
         vertex -7.309421e-001 6.829620e-017 -2.356154e+000
         vertex -7.922227e-001 6.829620e-017 -2.325091e+000
         vertex -7.272074e-001 6.829620e-017 -2.346860e+000
      endloop
   endfacet
   facet normal 0.000000e+000 1.000000e+000 0.000000e+000
      outer loop
         vertex -7.272074e-001 6.829620e-017 -2.346860e+000
         vertex -7.922227e-001 6.829620e-017 -2.325091e+000
         vertex -7.219557e-001 6.829620e-017 -2.338331e+000
      endloop
   endfacet
   facet normal 0.000000e+000 1.000000e+000 0.000000e+000
      outer loop
         vertex -7.752268e-001 6.829620e-017 -2.451241e+000
         vertex -7.032765e-001 6.829620e-017 -2.425003e+000
         vertex -6.574796e-001 6.829620e-017 -2.499597e+000
      endloop
   endfacet
   facet normal 0.000000e+000 1.000000e+000 0.000000e+000
      outer loop
         vertex -6.574796e-001 6.829620e-017 -2.499597e+000
         vertex -7.032765e-001 6.829620e-017 -2.425003e+000
         vertex -6.941492e-001 6.829620e-017 -2.429128e+000
      endloop
   endfacet
   facet normal 0.000000e+000 1.000000e+000 0.000000e+000
      outer loop
         vertex -6.941492e-001 6.829620e-017 -2.429128e+000
         vertex -6.844559e-001 6.829620e-017 -2.431653e+000
         vertex -6.574796e-001 6.829620e-017 -2.499597e+000
      endloop
   endfacet
   facet normal 0.000000e+000 1.000000e+000 0.000000e+000
      outer loop
         vertex -6.574796e-001 6.829620e-017 -2.499597e+000
         vertex -6.844559e-001 6.829620e-017 -2.431653e+000
         vertex -6.744756e-001 6.829620e-017 -2.432502e+000
      endloop
   endfacet
   facet normal 0.000000e+000 1.000000e+000 0.000000e+000
      outer loop
         vertex -6.574796e-001 6.829620e-017 -2.499597e+000
         vertex -6.744756e-001 6.829620e-017 -2.432502e+000
         vertex -6.644952e-001 6.829620e-017 -2.431653e+000
      endloop
   endfacet
   facet normal 0.000000e+000 1.000000e+000 0.000000e+000
      outer loop
         vertex -6.301445e-001 6.829620e-017 -2.412463e+000
         vertex -6.241884e-001 6.829620e-017 -2.404410e+000
         vertex -5.567284e-001 6.829620e-017 -2.421803e+000
      endloop
   endfacet
   facet normal 0.000000e+000 1.000000e+000 0.000000e+000
      outer loop
         vertex -5.567284e-001 6.829620e-017 -2.421803e+000
         vertex -6.241884e-001 6.829620e-017 -2.404410e+000
         vertex -6.196790e-001 6.829620e-017 -2.395466e+000
      endloop
   endfacet
   facet normal 0.000000e+000 1.000000e+000 0.000000e+000
      outer loop
         vertex -5.567284e-001 6.829620e-017 -2.421803e+000
         vertex -6.196790e-001 6.829620e-017 -2.395466e+000
         vertex -6.167459e-001 6.829620e-017 -2.385888e+000
      endloop
   endfacet
   facet normal 0.000000e+000 1.000000e+000 0.000000e+000
      outer loop
         vertex -6.217437e-001 6.829620e-017 -2.346860e+000
         vertex -6.269954e-001 6.829620e-017 -2.338331e+000
         vertex -5.737244e-001 6.829620e-017 -2.295653e+000
      endloop
   endfacet
   facet normal 0.000000e+000 1.000000e+000 0.000000e+000
      outer loop
         vertex -5.737244e-001 6.829620e-017 -2.295653e+000
         vertex -6.269954e-001 6.829620e-017 -2.338331e+000
         vertex -6.336130e-001 6.829620e-017 -2.330812e+000
      endloop
   endfacet
   facet normal 0.000000e+000 1.000000e+000 0.000000e+000
      outer loop
         vertex -6.893561e-001 6.829620e-017 -2.316297e+000
         vertex -6.988004e-001 6.829620e-017 -2.319634e+000
         vertex -6.914715e-001 6.829620e-017 -2.247297e+000
      endloop
   endfacet
   facet normal 0.000000e+000 1.000000e+000 0.000000e+000
      outer loop
         vertex -6.914715e-001 6.829620e-017 -2.247297e+000
         vertex -6.988004e-001 6.829620e-017 -2.319634e+000
         vertex -7.075449e-001 6.829620e-017 -2.324519e+000
      endloop
   endfacet
   facet normal 0.000000e+000 1.000000e+000 0.000000e+000
      outer loop
         vertex -6.914715e-001 6.829620e-017 -2.247297e+000
         vertex -7.075449e-001 6.829620e-017 -2.324519e+000
         vertex -7.922227e-001 6.829620e-017 -2.325091e+000
      endloop
   endfacet
   facet normal 0.000000e+000 1.000000e+000 0.000000e+000
      outer loop
         vertex -7.922227e-001 6.829620e-017 -2.325091e+000
         vertex -7.075449e-001 6.829620e-017 -2.324519e+000
         vertex -7.153381e-001 6.829620e-017 -2.330812e+000
      endloop
   endfacet
   facet normal 0.000000e+000 1.000000e+000 0.000000e+000
      outer loop
         vertex -7.922227e-001 6.829620e-017 -2.325091e+000
         vertex -7.153381e-001 6.829620e-017 -2.330812e+000
         vertex -7.219557e-001 6.829620e-017 -2.338331e+000
      endloop
   endfacet
   facet normal 0.000000e+000 1.000000e+000 0.000000e+000
      outer loop
         vertex -7.309421e-001 6.829620e-017 -2.356154e+000
         vertex -7.330524e-001 6.829620e-017 -2.365946e+000
         vertex -7.922227e-001 6.829620e-017 -2.325091e+000
      endloop
   endfacet
   facet normal 0.000000e+000 1.000000e+000 0.000000e+000
      outer loop
         vertex -7.922227e-001 6.829620e-017 -2.325091e+000
         vertex -7.330524e-001 6.829620e-017 -2.365946e+000
         vertex -7.334775e-001 6.829620e-017 -2.375953e+000
      endloop
   endfacet
   facet normal 0.000000e+000 1.000000e+000 0.000000e+000
      outer loop
         vertex -7.922227e-001 6.829620e-017 -2.325091e+000
         vertex -7.334775e-001 6.829620e-017 -2.375953e+000
         vertex -7.752268e-001 6.829620e-017 -2.451241e+000
      endloop
   endfacet
   facet normal 0.000000e+000 1.000000e+000 0.000000e+000
      outer loop
         vertex -7.752268e-001 6.829620e-017 -2.451241e+000
         vertex -7.334775e-001 6.829620e-017 -2.375953e+000
         vertex -7.322052e-001 6.829620e-017 -2.385888e+000
      endloop
   endfacet
   facet normal 0.000000e+000 1.000000e+000 0.000000e+000
      outer loop
         vertex -7.752268e-001 6.829620e-017 -2.451241e+000
         vertex -7.322052e-001 6.829620e-017 -2.385888e+000
         vertex -7.292721e-001 6.829620e-017 -2.395466e+000
      endloop
   endfacet
   facet normal 0.000000e+000 1.000000e+000 0.000000e+000
      outer loop
         vertex -7.247627e-001 6.829620e-017 -2.404410e+000
         vertex -7.188066e-001 6.829620e-017 -2.412463e+000
         vertex -7.752268e-001 6.829620e-017 -2.451241e+000
      endloop
   endfacet
   facet normal 0.000000e+000 1.000000e+000 0.000000e+000
      outer loop
         vertex -7.752268e-001 6.829620e-017 -2.451241e+000
         vertex -7.188066e-001 6.829620e-017 -2.412463e+000
         vertex -7.115752e-001 6.829620e-017 -2.419394e+000
      endloop
   endfacet
   facet normal 0.000000e+000 1.000000e+000 0.000000e+000
      outer loop
         vertex -7.752268e-001 6.829620e-017 -2.451241e+000
         vertex -7.115752e-001 6.829620e-017 -2.419394e+000
         vertex -7.032765e-001 6.829620e-017 -2.425003e+000
      endloop
   endfacet
   facet normal 0.000000e+000 1.000000e+000 0.000000e+000
      outer loop
         vertex -6.167459e-001 6.829620e-017 -2.385888e+000
         vertex -6.154736e-001 6.829620e-017 -2.375953e+000
         vertex -5.567284e-001 6.829620e-017 -2.421803e+000
      endloop
   endfacet
   facet normal 0.000000e+000 1.000000e+000 0.000000e+000
      outer loop
         vertex -5.567284e-001 6.829620e-017 -2.421803e+000
         vertex -6.154736e-001 6.829620e-017 -2.375953e+000
         vertex -6.158987e-001 6.829620e-017 -2.365946e+000
      endloop
   endfacet
   facet normal 0.000000e+000 1.000000e+000 0.000000e+000
      outer loop
         vertex -5.567284e-001 6.829620e-017 -2.421803e+000
         vertex -6.158987e-001 6.829620e-017 -2.365946e+000
         vertex -5.737244e-001 6.829620e-017 -2.295653e+000
      endloop
   endfacet
   facet normal 0.000000e+000 1.000000e+000 0.000000e+000
      outer loop
         vertex -5.737244e-001 6.829620e-017 -2.295653e+000
         vertex -6.158987e-001 6.829620e-017 -2.365946e+000
         vertex -6.180090e-001 6.829620e-017 -2.356154e+000
      endloop
   endfacet
   facet normal 0.000000e+000 1.000000e+000 0.000000e+000
      outer loop
         vertex -5.737244e-001 6.829620e-017 -2.295653e+000
         vertex -6.180090e-001 6.829620e-017 -2.356154e+000
         vertex -6.217437e-001 6.829620e-017 -2.346860e+000
      endloop
   endfacet
   facet normal 0.000000e+000 1.000000e+000 0.000000e+000
      outer loop
         vertex -6.336130e-001 6.829620e-017 -2.330812e+000
         vertex -6.414062e-001 6.829620e-017 -2.324519e+000
         vertex -5.737244e-001 6.829620e-017 -2.295653e+000
      endloop
   endfacet
   facet normal 0.000000e+000 1.000000e+000 0.000000e+000
      outer loop
         vertex -5.737244e-001 6.829620e-017 -2.295653e+000
         vertex -6.414062e-001 6.829620e-017 -2.324519e+000
         vertex -6.501507e-001 6.829620e-017 -2.319634e+000
      endloop
   endfacet
   facet normal 0.000000e+000 1.000000e+000 0.000000e+000
      outer loop
         vertex -5.737244e-001 6.829620e-017 -2.295653e+000
         vertex -6.501507e-001 6.829620e-017 -2.319634e+000
         vertex -6.914715e-001 6.829620e-017 -2.247297e+000
      endloop
   endfacet
   facet normal 0.000000e+000 1.000000e+000 0.000000e+000
      outer loop
         vertex -6.914715e-001 6.829620e-017 -2.247297e+000
         vertex -6.501507e-001 6.829620e-017 -2.319634e+000
         vertex -6.595950e-001 6.829620e-017 -2.316297e+000
      endloop
   endfacet
   facet normal 0.000000e+000 1.000000e+000 0.000000e+000
      outer loop
         vertex -6.914715e-001 6.829620e-017 -2.247297e+000
         vertex -6.595950e-001 6.829620e-017 -2.316297e+000
         vertex -6.694673e-001 6.829620e-017 -2.314605e+000
      endloop
   endfacet
   facet normal 0.000000e+000 1.000000e+000 0.000000e+000
      outer loop
         vertex -6.644952e-001 6.829620e-017 -2.431653e+000
         vertex -6.548019e-001 6.829620e-017 -2.429128e+000
         vertex -6.574796e-001 6.829620e-017 -2.499597e+000
      endloop
   endfacet
   facet normal 0.000000e+000 1.000000e+000 0.000000e+000
      outer loop
         vertex -6.574796e-001 6.829620e-017 -2.499597e+000
         vertex -6.548019e-001 6.829620e-017 -2.429128e+000
         vertex -6.456746e-001 6.829620e-017 -2.425003e+000
      endloop
   endfacet
   facet normal 0.000000e+000 1.000000e+000 0.000000e+000
      outer loop
         vertex -6.574796e-001 6.829620e-017 -2.499597e+000
         vertex -6.456746e-001 6.829620e-017 -2.425003e+000
         vertex -5.567284e-001 6.829620e-017 -2.421803e+000
      endloop
   endfacet
   facet normal 0.000000e+000 1.000000e+000 0.000000e+000
      outer loop
         vertex -5.567284e-001 6.829620e-017 -2.421803e+000
         vertex -6.456746e-001 6.829620e-017 -2.425003e+000
         vertex -6.373760e-001 6.829620e-017 -2.419394e+000
      endloop
   endfacet
   facet normal 0.000000e+000 1.000000e+000 0.000000e+000
      outer loop
         vertex -5.567284e-001 6.829620e-017 -2.421803e+000
         vertex -6.373760e-001 6.829620e-017 -2.419394e+000
         vertex -6.301445e-001 6.829620e-017 -2.412463e+000
      endloop
   endfacet
   facet normal 0.000000e+000 -1.000000e+000 0.000000e+000
      outer loop
         vertex -6.644952e-001 -5.039370e-001 -2.431653e+000
         vertex -6.744756e-001 -5.039370e-001 -2.432502e+000
         vertex -6.574796e-001 -5.039370e-001 -2.499597e+000
      endloop
   endfacet
   facet normal 0.000000e+000 -1.000000e+000 0.000000e+000
      outer loop
         vertex -6.644952e-001 -5.039370e-001 -2.431653e+000
         vertex -6.574796e-001 -5.039370e-001 -2.499597e+000
         vertex -6.548019e-001 -5.039370e-001 -2.429128e+000
      endloop
   endfacet
   facet normal 0.000000e+000 -1.000000e+000 0.000000e+000
      outer loop
         vertex -6.988004e-001 -5.039370e-001 -2.319634e+000
         vertex -6.893561e-001 -5.039370e-001 -2.316297e+000
         vertex -6.914715e-001 -5.039370e-001 -2.247297e+000
      endloop
   endfacet
   facet normal 0.000000e+000 -1.000000e+000 0.000000e+000
      outer loop
         vertex -6.914715e-001 -5.039370e-001 -2.247297e+000
         vertex -6.893561e-001 -5.039370e-001 -2.316297e+000
         vertex -6.794838e-001 -5.039370e-001 -2.314605e+000
      endloop
   endfacet
   facet normal 0.000000e+000 -1.000000e+000 0.000000e+000
      outer loop
         vertex -6.501507e-001 -5.039370e-001 -2.319634e+000
         vertex -5.737244e-001 -5.039370e-001 -2.295653e+000
         vertex -6.595950e-001 -5.039370e-001 -2.316297e+000
      endloop
   endfacet
   facet normal 0.000000e+000 -1.000000e+000 0.000000e+000
      outer loop
         vertex -6.595950e-001 -5.039370e-001 -2.316297e+000
         vertex -5.737244e-001 -5.039370e-001 -2.295653e+000
         vertex -6.914715e-001 -5.039370e-001 -2.247297e+000
      endloop
   endfacet
   facet normal 0.000000e+000 -1.000000e+000 0.000000e+000
      outer loop
         vertex -6.154736e-001 -5.039370e-001 -2.375953e+000
         vertex -6.167459e-001 -5.039370e-001 -2.385888e+000
         vertex -5.567284e-001 -5.039370e-001 -2.421803e+000
      endloop
   endfacet
   facet normal 0.000000e+000 -1.000000e+000 0.000000e+000
      outer loop
         vertex -5.567284e-001 -5.039370e-001 -2.421803e+000
         vertex -6.167459e-001 -5.039370e-001 -2.385888e+000
         vertex -6.196790e-001 -5.039370e-001 -2.395466e+000
      endloop
   endfacet
   facet normal 0.000000e+000 -1.000000e+000 0.000000e+000
      outer loop
         vertex -5.567284e-001 -5.039370e-001 -2.421803e+000
         vertex -6.196790e-001 -5.039370e-001 -2.395466e+000
         vertex -6.241884e-001 -5.039370e-001 -2.404410e+000
      endloop
   endfacet
   facet normal 0.000000e+000 -1.000000e+000 0.000000e+000
      outer loop
         vertex -7.032765e-001 -5.039370e-001 -2.425003e+000
         vertex -7.752268e-001 -5.039370e-001 -2.451241e+000
         vertex -6.941492e-001 -5.039370e-001 -2.429128e+000
      endloop
   endfacet
   facet normal 0.000000e+000 -1.000000e+000 0.000000e+000
      outer loop
         vertex -6.941492e-001 -5.039370e-001 -2.429128e+000
         vertex -7.752268e-001 -5.039370e-001 -2.451241e+000
         vertex -6.574796e-001 -5.039370e-001 -2.499597e+000
      endloop
   endfacet
   facet normal 0.000000e+000 -1.000000e+000 0.000000e+000
      outer loop
         vertex -6.941492e-001 -5.039370e-001 -2.429128e+000
         vertex -6.574796e-001 -5.039370e-001 -2.499597e+000
         vertex -6.844559e-001 -5.039370e-001 -2.431653e+000
      endloop
   endfacet
   facet normal 0.000000e+000 -1.000000e+000 0.000000e+000
      outer loop
         vertex -6.844559e-001 -5.039370e-001 -2.431653e+000
         vertex -6.574796e-001 -5.039370e-001 -2.499597e+000
         vertex -6.744756e-001 -5.039370e-001 -2.432502e+000
      endloop
   endfacet
   facet normal 0.000000e+000 -1.000000e+000 0.000000e+000
      outer loop
         vertex -6.501507e-001 -5.039370e-001 -2.319634e+000
         vertex -6.414062e-001 -5.039370e-001 -2.324519e+000
         vertex -5.737244e-001 -5.039370e-001 -2.295653e+000
      endloop
   endfacet
   facet normal 0.000000e+000 -1.000000e+000 0.000000e+000
      outer loop
         vertex -5.737244e-001 -5.039370e-001 -2.295653e+000
         vertex -6.414062e-001 -5.039370e-001 -2.324519e+000
         vertex -6.336130e-001 -5.039370e-001 -2.330812e+000
      endloop
   endfacet
   facet normal 0.000000e+000 -1.000000e+000 0.000000e+000
      outer loop
         vertex -5.737244e-001 -5.039370e-001 -2.295653e+000
         vertex -6.336130e-001 -5.039370e-001 -2.330812e+000
         vertex -6.269954e-001 -5.039370e-001 -2.338331e+000
      endloop
   endfacet
   facet normal 0.000000e+000 -1.000000e+000 0.000000e+000
      outer loop
         vertex -6.269954e-001 -5.039370e-001 -2.338331e+000
         vertex -6.217437e-001 -5.039370e-001 -2.346860e+000
         vertex -5.737244e-001 -5.039370e-001 -2.295653e+000
      endloop
   endfacet
   facet normal 0.000000e+000 -1.000000e+000 0.000000e+000
      outer loop
         vertex -5.737244e-001 -5.039370e-001 -2.295653e+000
         vertex -6.217437e-001 -5.039370e-001 -2.346860e+000
         vertex -6.180090e-001 -5.039370e-001 -2.356154e+000
      endloop
   endfacet
   facet normal 0.000000e+000 -1.000000e+000 0.000000e+000
      outer loop
         vertex -5.737244e-001 -5.039370e-001 -2.295653e+000
         vertex -6.180090e-001 -5.039370e-001 -2.356154e+000
         vertex -5.567284e-001 -5.039370e-001 -2.421803e+000
      endloop
   endfacet
   facet normal 0.000000e+000 -1.000000e+000 0.000000e+000
      outer loop
         vertex -5.567284e-001 -5.039370e-001 -2.421803e+000
         vertex -6.180090e-001 -5.039370e-001 -2.356154e+000
         vertex -6.158987e-001 -5.039370e-001 -2.365946e+000
      endloop
   endfacet
   facet normal 0.000000e+000 -1.000000e+000 0.000000e+000
      outer loop
         vertex -5.567284e-001 -5.039370e-001 -2.421803e+000
         vertex -6.158987e-001 -5.039370e-001 -2.365946e+000
         vertex -6.154736e-001 -5.039370e-001 -2.375953e+000
      endloop
   endfacet
   facet normal 0.000000e+000 -1.000000e+000 0.000000e+000
      outer loop
         vertex -7.330524e-001 -5.039370e-001 -2.365946e+000
         vertex -7.309421e-001 -5.039370e-001 -2.356154e+000
         vertex -7.922227e-001 -5.039370e-001 -2.325091e+000
      endloop
   endfacet
   facet normal 0.000000e+000 -1.000000e+000 0.000000e+000
      outer loop
         vertex -7.922227e-001 -5.039370e-001 -2.325091e+000
         vertex -7.309421e-001 -5.039370e-001 -2.356154e+000
         vertex -7.272074e-001 -5.039370e-001 -2.346860e+000
      endloop
   endfacet
   facet normal 0.000000e+000 -1.000000e+000 0.000000e+000
      outer loop
         vertex -6.794838e-001 -5.039370e-001 -2.314605e+000
         vertex -6.744756e-001 -5.039370e-001 -2.314392e+000
         vertex -6.914715e-001 -5.039370e-001 -2.247297e+000
      endloop
   endfacet
   facet normal 0.000000e+000 -1.000000e+000 0.000000e+000
      outer loop
         vertex -6.914715e-001 -5.039370e-001 -2.247297e+000
         vertex -6.744756e-001 -5.039370e-001 -2.314392e+000
         vertex -6.694673e-001 -5.039370e-001 -2.314605e+000
      endloop
   endfacet
   facet normal 0.000000e+000 -1.000000e+000 0.000000e+000
      outer loop
         vertex -6.914715e-001 -5.039370e-001 -2.247297e+000
         vertex -6.694673e-001 -5.039370e-001 -2.314605e+000
         vertex -6.595950e-001 -5.039370e-001 -2.316297e+000
      endloop
   endfacet
   facet normal 0.000000e+000 -1.000000e+000 0.000000e+000
      outer loop
         vertex -6.241884e-001 -5.039370e-001 -2.404410e+000
         vertex -6.301445e-001 -5.039370e-001 -2.412463e+000
         vertex -5.567284e-001 -5.039370e-001 -2.421803e+000
      endloop
   endfacet
   facet normal 0.000000e+000 -1.000000e+000 0.000000e+000
      outer loop
         vertex -5.567284e-001 -5.039370e-001 -2.421803e+000
         vertex -6.301445e-001 -5.039370e-001 -2.412463e+000
         vertex -6.373760e-001 -5.039370e-001 -2.419394e+000
      endloop
   endfacet
   facet normal 0.000000e+000 -1.000000e+000 0.000000e+000
      outer loop
         vertex -5.567284e-001 -5.039370e-001 -2.421803e+000
         vertex -6.373760e-001 -5.039370e-001 -2.419394e+000
         vertex -6.574796e-001 -5.039370e-001 -2.499597e+000
      endloop
   endfacet
   facet normal 0.000000e+000 -1.000000e+000 0.000000e+000
      outer loop
         vertex -6.574796e-001 -5.039370e-001 -2.499597e+000
         vertex -6.373760e-001 -5.039370e-001 -2.419394e+000
         vertex -6.456746e-001 -5.039370e-001 -2.425003e+000
      endloop
   endfacet
   facet normal 0.000000e+000 -1.000000e+000 0.000000e+000
      outer loop
         vertex -6.574796e-001 -5.039370e-001 -2.499597e+000
         vertex -6.456746e-001 -5.039370e-001 -2.425003e+000
         vertex -6.548019e-001 -5.039370e-001 -2.429128e+000
      endloop
   endfacet
   facet normal 0.000000e+000 -1.000000e+000 0.000000e+000
      outer loop
         vertex -7.032765e-001 -5.039370e-001 -2.425003e+000
         vertex -7.115752e-001 -5.039370e-001 -2.419394e+000
         vertex -7.752268e-001 -5.039370e-001 -2.451241e+000
      endloop
   endfacet
   facet normal 0.000000e+000 -1.000000e+000 0.000000e+000
      outer loop
         vertex -7.752268e-001 -5.039370e-001 -2.451241e+000
         vertex -7.115752e-001 -5.039370e-001 -2.419394e+000
         vertex -7.188066e-001 -5.039370e-001 -2.412463e+000
      endloop
   endfacet
   facet normal 0.000000e+000 -1.000000e+000 0.000000e+000
      outer loop
         vertex -7.752268e-001 -5.039370e-001 -2.451241e+000
         vertex -7.188066e-001 -5.039370e-001 -2.412463e+000
         vertex -7.247627e-001 -5.039370e-001 -2.404410e+000
      endloop
   endfacet
   facet normal 0.000000e+000 -1.000000e+000 0.000000e+000
      outer loop
         vertex -7.247627e-001 -5.039370e-001 -2.404410e+000
         vertex -7.292721e-001 -5.039370e-001 -2.395466e+000
         vertex -7.752268e-001 -5.039370e-001 -2.451241e+000
      endloop
   endfacet
   facet normal 0.000000e+000 -1.000000e+000 0.000000e+000
      outer loop
         vertex -7.752268e-001 -5.039370e-001 -2.451241e+000
         vertex -7.292721e-001 -5.039370e-001 -2.395466e+000
         vertex -7.322052e-001 -5.039370e-001 -2.385888e+000
      endloop
   endfacet
   facet normal 0.000000e+000 -1.000000e+000 0.000000e+000
      outer loop
         vertex -7.752268e-001 -5.039370e-001 -2.451241e+000
         vertex -7.322052e-001 -5.039370e-001 -2.385888e+000
         vertex -7.922227e-001 -5.039370e-001 -2.325091e+000
      endloop
   endfacet
   facet normal 0.000000e+000 -1.000000e+000 0.000000e+000
      outer loop
         vertex -7.922227e-001 -5.039370e-001 -2.325091e+000
         vertex -7.322052e-001 -5.039370e-001 -2.385888e+000
         vertex -7.334775e-001 -5.039370e-001 -2.375953e+000
      endloop
   endfacet
   facet normal 0.000000e+000 -1.000000e+000 0.000000e+000
      outer loop
         vertex -7.922227e-001 -5.039370e-001 -2.325091e+000
         vertex -7.334775e-001 -5.039370e-001 -2.375953e+000
         vertex -7.330524e-001 -5.039370e-001 -2.365946e+000
      endloop
   endfacet
   facet normal 0.000000e+000 -1.000000e+000 0.000000e+000
      outer loop
         vertex -7.272074e-001 -5.039370e-001 -2.346860e+000
         vertex -7.219557e-001 -5.039370e-001 -2.338331e+000
         vertex -7.922227e-001 -5.039370e-001 -2.325091e+000
      endloop
   endfacet
   facet normal 0.000000e+000 -1.000000e+000 0.000000e+000
      outer loop
         vertex -7.922227e-001 -5.039370e-001 -2.325091e+000
         vertex -7.219557e-001 -5.039370e-001 -2.338331e+000
         vertex -7.153381e-001 -5.039370e-001 -2.330812e+000
      endloop
   endfacet
   facet normal 0.000000e+000 -1.000000e+000 0.000000e+000
      outer loop
         vertex -7.922227e-001 -5.039370e-001 -2.325091e+000
         vertex -7.153381e-001 -5.039370e-001 -2.330812e+000
         vertex -6.914715e-001 -5.039370e-001 -2.247297e+000
      endloop
   endfacet
   facet normal 0.000000e+000 -1.000000e+000 0.000000e+000
      outer loop
         vertex -6.914715e-001 -5.039370e-001 -2.247297e+000
         vertex -7.153381e-001 -5.039370e-001 -2.330812e+000
         vertex -7.075449e-001 -5.039370e-001 -2.324519e+000
      endloop
   endfacet
   facet normal 0.000000e+000 -1.000000e+000 0.000000e+000
      outer loop
         vertex -6.914715e-001 -5.039370e-001 -2.247297e+000
         vertex -7.075449e-001 -5.039370e-001 -2.324519e+000
         vertex -6.988004e-001 -5.039370e-001 -2.319634e+000
      endloop
   endfacet
   facet normal 9.910460e-001 0.000000e+000 1.335215e-001
      outer loop
         vertex -5.567284e-001 6.829620e-017 -2.421803e+000
         vertex -5.737244e-001 6.829620e-017 -2.295653e+000
         vertex -5.567284e-001 -5.039370e-001 -2.421803e+000
      endloop
   endfacet
   facet normal 9.910460e-001 0.000000e+000 1.335215e-001
      outer loop
         vertex -5.567284e-001 -5.039370e-001 -2.421803e+000
         vertex -5.737244e-001 6.829620e-017 -2.295653e+000
         vertex -5.737244e-001 -5.039370e-001 -2.295653e+000
      endloop
   endfacet
   facet normal 6.111559e-001 0.000000e+000 -7.915103e-001
      outer loop
         vertex -6.574796e-001 6.829620e-017 -2.499597e+000
         vertex -5.567284e-001 6.829620e-017 -2.421803e+000
         vertex -6.574796e-001 -5.039370e-001 -2.499597e+000
      endloop
   endfacet
   facet normal 6.111559e-001 0.000000e+000 -7.915103e-001
      outer loop
         vertex -6.574796e-001 -5.039370e-001 -2.499597e+000
         vertex -5.567284e-001 6.829620e-017 -2.421803e+000
         vertex -5.567284e-001 -5.039370e-001 -2.421803e+000
      endloop
   endfacet
   facet normal -3.798900e-001 0.000000e+000 -9.250317e-001
      outer loop
         vertex -7.752268e-001 6.829620e-017 -2.451241e+000
         vertex -6.574796e-001 6.829620e-017 -2.499597e+000
         vertex -7.752268e-001 -5.039370e-001 -2.451241e+000
      endloop
   endfacet
   facet normal -3.798900e-001 0.000000e+000 -9.250317e-001
      outer loop
         vertex -7.752268e-001 -5.039370e-001 -2.451241e+000
         vertex -6.574796e-001 6.829620e-017 -2.499597e+000
         vertex -6.574796e-001 -5.039370e-001 -2.499597e+000
      endloop
   endfacet
   facet normal -9.910460e-001 0.000000e+000 -1.335215e-001
      outer loop
         vertex -7.922227e-001 6.829620e-017 -2.325091e+000
         vertex -7.752268e-001 6.829620e-017 -2.451241e+000
         vertex -7.922227e-001 -5.039370e-001 -2.325091e+000
      endloop
   endfacet
   facet normal -9.910460e-001 0.000000e+000 -1.335215e-001
      outer loop
         vertex -7.922227e-001 -5.039370e-001 -2.325091e+000
         vertex -7.752268e-001 6.829620e-017 -2.451241e+000
         vertex -7.752268e-001 -5.039370e-001 -2.451241e+000
      endloop
   endfacet
   facet normal -6.111559e-001 0.000000e+000 7.915103e-001
      outer loop
         vertex -6.914715e-001 6.829620e-017 -2.247297e+000
         vertex -7.922227e-001 6.829620e-017 -2.325091e+000
         vertex -6.914715e-001 -5.039370e-001 -2.247297e+000
      endloop
   endfacet
   facet normal -6.111559e-001 0.000000e+000 7.915103e-001
      outer loop
         vertex -6.914715e-001 -5.039370e-001 -2.247297e+000
         vertex -7.922227e-001 6.829620e-017 -2.325091e+000
         vertex -7.922227e-001 -5.039370e-001 -2.325091e+000
      endloop
   endfacet
   facet normal 3.798900e-001 0.000000e+000 9.250317e-001
      outer loop
         vertex -5.737244e-001 6.829620e-017 -2.295653e+000
         vertex -6.914715e-001 6.829620e-017 -2.247297e+000
         vertex -5.737244e-001 -5.039370e-001 -2.295653e+000
      endloop
   endfacet
   facet normal 3.798900e-001 0.000000e+000 9.250317e-001
      outer loop
         vertex -5.737244e-001 -5.039370e-001 -2.295653e+000
         vertex -6.914715e-001 6.829620e-017 -2.247297e+000
         vertex -6.914715e-001 -5.039370e-001 -2.247297e+000
      endloop
   endfacet
   facet normal 2.829130e-002 0.000000e+000 -9.995998e-001
      outer loop
         vertex -6.794838e-001 6.829620e-017 -2.314605e+000
         vertex -6.744756e-001 6.829620e-017 -2.314392e+000
         vertex -6.744756e-001 -5.039370e-001 -2.314392e+000
      endloop
   endfacet
   facet normal -2.829130e-002 0.000000e+000 -9.995998e-001
      outer loop
         vertex -6.744756e-001 -5.039370e-001 -2.314392e+000
         vertex -6.744756e-001 6.829620e-017 -2.314392e+000
         vertex -6.694673e-001 -5.039370e-001 -2.314605e+000
      endloop
   endfacet
   facet normal 5.658260e-002 0.000000e+000 -9.983979e-001
      outer loop
         vertex -6.744756e-001 -5.039370e-001 -2.314392e+000
         vertex -6.794838e-001 -5.039370e-001 -2.314605e+000
         vertex -6.794838e-001 6.829620e-017 -2.314605e+000
      endloop
   endfacet
   facet normal 1.409813e-001 0.000000e+000 -9.900123e-001
      outer loop
         vertex -6.794838e-001 6.829620e-017 -2.314605e+000
         vertex -6.794838e-001 -5.039370e-001 -2.314605e+000
         vertex -6.893561e-001 -5.039370e-001 -2.316297e+000
      endloop
   endfacet
   facet normal 1.968844e-001 0.000000e+000 -9.804267e-001
      outer loop
         vertex -6.794838e-001 6.829620e-017 -2.314605e+000
         vertex -6.893561e-001 -5.039370e-001 -2.316297e+000
         vertex -6.893561e-001 6.829620e-017 -2.316297e+000
      endloop
   endfacet
   facet normal 3.062663e-001 0.000000e+000 -9.519458e-001
      outer loop
         vertex -6.893561e-001 6.829620e-017 -2.316297e+000
         vertex -6.893561e-001 -5.039370e-001 -2.316297e+000
         vertex -6.988004e-001 -5.039370e-001 -2.319634e+000
      endloop
   endfacet
   facet normal 3.597453e-001 0.000000e+000 -9.330506e-001
      outer loop
         vertex -6.893561e-001 6.829620e-017 -2.316297e+000
         vertex -6.988004e-001 -5.039370e-001 -2.319634e+000
         vertex -6.988004e-001 6.829620e-017 -2.319634e+000
      endloop
   endfacet
   facet normal 4.627406e-001 0.000000e+000 -8.864937e-001
      outer loop
         vertex -6.988004e-001 6.829620e-017 -2.319634e+000
         vertex -6.988004e-001 -5.039370e-001 -2.319634e+000
         vertex -7.075449e-001 -5.039370e-001 -2.324519e+000
      endloop
   endfacet
   facet normal 5.122570e-001 0.000000e+000 -8.588322e-001
      outer loop
         vertex -6.988004e-001 6.829620e-017 -2.319634e+000
         vertex -7.075449e-001 -5.039370e-001 -2.324519e+000
         vertex -7.075449e-001 6.829620e-017 -2.324519e+000
      endloop
   endfacet
   facet normal 6.059027e-001 0.000000e+000 -7.955388e-001
      outer loop
         vertex -7.075449e-001 6.829620e-017 -2.324519e+000
         vertex -7.075449e-001 -5.039370e-001 -2.324519e+000
         vertex -7.153381e-001 -5.039370e-001 -2.330812e+000
      endloop
   endfacet
   facet normal 6.500320e-001 0.000000e+000 -7.599069e-001
      outer loop
         vertex -7.075449e-001 6.829620e-017 -2.324519e+000
         vertex -7.153381e-001 -5.039370e-001 -2.330812e+000
         vertex -7.153381e-001 6.829620e-017 -2.330812e+000
      endloop
   endfacet
   facet normal 7.316340e-001 0.000000e+000 -6.816977e-001
      outer loop
         vertex -7.153381e-001 6.829620e-017 -2.330812e+000
         vertex -7.153381e-001 -5.039370e-001 -2.330812e+000
         vertex -7.219557e-001 -5.039370e-001 -2.338331e+000
      endloop
   endfacet
   facet normal 7.691067e-001 0.000000e+000 -6.391203e-001
      outer loop
         vertex -7.153381e-001 6.829620e-017 -2.330812e+000
         vertex -7.219557e-001 -5.039370e-001 -2.338331e+000
         vertex -7.219557e-001 6.829620e-017 -2.338331e+000
      endloop
   endfacet
   facet normal 8.363176e-001 0.000000e+000 -5.482453e-001
      outer loop
         vertex -7.219557e-001 6.829620e-017 -2.338331e+000
         vertex -7.219557e-001 -5.039370e-001 -2.338331e+000
         vertex -7.272074e-001 -5.039370e-001 -2.346860e+000
      endloop
   endfacet
   facet normal 8.660557e-001 0.000000e+000 -4.999475e-001
      outer loop
         vertex -7.219557e-001 6.829620e-017 -2.338331e+000
         vertex -7.272074e-001 -5.039370e-001 -2.346860e+000
         vertex -7.272074e-001 6.829620e-017 -2.346860e+000
      endloop
   endfacet
   facet normal 9.169418e-001 0.000000e+000 -3.990209e-001
      outer loop
         vertex -7.272074e-001 6.829620e-017 -2.346860e+000
         vertex -7.272074e-001 -5.039370e-001 -2.346860e+000
         vertex -7.309421e-001 -5.039370e-001 -2.356154e+000
      endloop
   endfacet
   facet normal 9.380898e-001 0.000000e+000 -3.463921e-001
      outer loop
         vertex -7.272074e-001 6.829620e-017 -2.346860e+000
         vertex -7.309421e-001 -5.039370e-001 -2.356154e+000
         vertex -7.309421e-001 6.829620e-017 -2.356154e+000
      endloop
   endfacet
   facet normal 9.711873e-001 0.000000e+000 -2.383175e-001
      outer loop
         vertex -7.309421e-001 6.829620e-017 -2.356154e+000
         vertex -7.309421e-001 -5.039370e-001 -2.356154e+000
         vertex -7.330524e-001 -5.039370e-001 -2.365946e+000
      endloop
   endfacet
   facet normal 9.831368e-001 0.000000e+000 -1.828716e-001
      outer loop
         vertex -7.309421e-001 6.829620e-017 -2.356154e+000
         vertex -7.330524e-001 -5.039370e-001 -2.365946e+000
         vertex -7.330524e-001 6.829620e-017 -2.365946e+000
      endloop
   endfacet
   facet normal 9.974935e-001 0.000000e+000 -7.075802e-002
      outer loop
         vertex -7.330524e-001 6.829620e-017 -2.365946e+000
         vertex -7.330524e-001 -5.039370e-001 -2.365946e+000
         vertex -7.334775e-001 -5.039370e-001 -2.375953e+000
      endloop
   endfacet
   facet normal 9.999007e-001 0.000000e+000 -1.409025e-002
      outer loop
         vertex -7.330524e-001 6.829620e-017 -2.365946e+000
         vertex -7.334775e-001 -5.039370e-001 -2.375953e+000
         vertex -7.334775e-001 6.829620e-017 -2.375953e+000
      endloop
   endfacet
   facet normal 9.951036e-001 0.000000e+000 9.883699e-002
      outer loop
         vertex -7.334775e-001 6.829620e-017 -2.375953e+000
         vertex -7.334775e-001 -5.039370e-001 -2.375953e+000
         vertex -7.322052e-001 -5.039370e-001 -2.385888e+000
      endloop
   endfacet
   facet normal 9.878993e-001 0.000000e+000 1.550965e-001
      outer loop
         vertex -7.334775e-001 6.829620e-017 -2.375953e+000
         vertex -7.322052e-001 -5.039370e-001 -2.385888e+000
         vertex -7.322052e-001 6.829620e-017 -2.385888e+000
      endloop
   endfacet
   facet normal 9.640865e-001 0.000000e+000 2.655886e-001
      outer loop
         vertex -7.322052e-001 6.829620e-017 -2.385888e+000
         vertex -7.322052e-001 -5.039370e-001 -2.385888e+000
         vertex -7.292721e-001 -5.039370e-001 -2.395466e+000
      endloop
   endfacet
   facet normal 9.474779e-001 0.000000e+000 3.198213e-001
      outer loop
         vertex -7.322052e-001 6.829620e-017 -2.385888e+000
         vertex -7.292721e-001 -5.039370e-001 -2.395466e+000
         vertex -7.292721e-001 6.829620e-017 -2.395466e+000
      endloop
   endfacet
   facet normal 9.053342e-001 0.000000e+000 4.246998e-001
      outer loop
         vertex -7.292721e-001 6.829620e-017 -2.395466e+000
         vertex -7.292721e-001 -5.039370e-001 -2.395466e+000
         vertex -7.247627e-001 -5.039370e-001 -2.404410e+000
      endloop
   endfacet
   facet normal 8.797992e-001 0.000000e+000 4.753455e-001
      outer loop
         vertex -7.292721e-001 6.829620e-017 -2.395466e+000
         vertex -7.247627e-001 -5.039370e-001 -2.404410e+000
         vertex -7.247627e-001 6.829620e-017 -2.404410e+000
      endloop
   endfacet
   facet normal 8.205372e-001 0.000000e+000 5.715931e-001
      outer loop
         vertex -7.247627e-001 6.829620e-017 -2.404410e+000
         vertex -7.247627e-001 -5.039370e-001 -2.404410e+000
         vertex -7.188066e-001 -5.039370e-001 -2.412463e+000
      endloop
   endfacet
   facet normal 7.868103e-001 0.000000e+000 6.171949e-001
      outer loop
         vertex -7.247627e-001 6.829620e-017 -2.404410e+000
         vertex -7.188066e-001 -5.039370e-001 -2.412463e+000
         vertex -7.188066e-001 6.829620e-017 -2.412463e+000
      endloop
   endfacet
   facet normal 7.121348e-001 0.000000e+000 7.020428e-001
      outer loop
         vertex -7.188066e-001 6.829620e-017 -2.412463e+000
         vertex -7.188066e-001 -5.039370e-001 -2.412463e+000
         vertex -7.115752e-001 -5.039370e-001 -2.419394e+000
      endloop
   endfacet
   facet normal 6.711863e-001 0.000000e+000 7.412888e-001
      outer loop
         vertex -7.188066e-001 6.829620e-017 -2.412463e+000
         vertex -7.115752e-001 -5.039370e-001 -2.419394e+000
         vertex -7.115752e-001 6.829620e-017 -2.419394e+000
      endloop
   endfacet
   facet normal 5.832456e-001 0.000000e+000 8.122959e-001
      outer loop
         vertex -7.115752e-001 6.829620e-017 -2.419394e+000
         vertex -7.115752e-001 -5.039370e-001 -2.419394e+000
         vertex -7.032765e-001 -5.039370e-001 -2.425003e+000
      endloop
   endfacet
   facet normal 5.362535e-001 0.000000e+000 8.440570e-001
      outer loop
         vertex -7.115752e-001 6.829620e-017 -2.419394e+000
         vertex -7.032765e-001 -5.039370e-001 -2.425003e+000
         vertex -7.032765e-001 6.829620e-017 -2.425003e+000
      endloop
   endfacet
   facet normal 4.375775e-001 0.000000e+000 8.991807e-001
      outer loop
         vertex -7.032765e-001 6.829620e-017 -2.425003e+000
         vertex -7.032765e-001 -5.039370e-001 -2.425003e+000
         vertex -6.941492e-001 -5.039370e-001 -2.429128e+000
      endloop
   endfacet
   facet normal 3.858936e-001 0.000000e+000 9.225433e-001
      outer loop
         vertex -7.032765e-001 6.829620e-017 -2.425003e+000
         vertex -6.941492e-001 -5.039370e-001 -2.429128e+000
         vertex -6.941492e-001 6.829620e-017 -2.429128e+000
      endloop
   endfacet
   facet normal 2.793211e-001 0.000000e+000 9.601977e-001
      outer loop
         vertex -6.941492e-001 6.829620e-017 -2.429128e+000
         vertex -6.941492e-001 -5.039370e-001 -2.429128e+000
         vertex -6.844559e-001 -5.039370e-001 -2.431653e+000
      endloop
   endfacet
   facet normal 2.244324e-001 0.000000e+000 9.744897e-001
      outer loop
         vertex -6.941492e-001 6.829620e-017 -2.429128e+000
         vertex -6.844559e-001 -5.039370e-001 -2.431653e+000
         vertex -6.844559e-001 6.829620e-017 -2.431653e+000
      endloop
   endfacet
   facet normal 1.130291e-001 0.000000e+000 9.935917e-001
      outer loop
         vertex -6.844559e-001 6.829620e-017 -2.431653e+000
         vertex -6.844559e-001 -5.039370e-001 -2.431653e+000
         vertex -6.744756e-001 -5.039370e-001 -2.432502e+000
      endloop
   endfacet
   facet normal 5.651454e-002 0.000000e+000 9.984018e-001
      outer loop
         vertex -6.844559e-001 6.829620e-017 -2.431653e+000
         vertex -6.744756e-001 -5.039370e-001 -2.432502e+000
         vertex -6.744756e-001 6.829620e-017 -2.432502e+000
      endloop
   endfacet
   facet normal -5.651454e-002 0.000000e+000 9.984018e-001
      outer loop
         vertex -6.744756e-001 6.829620e-017 -2.432502e+000
         vertex -6.744756e-001 -5.039370e-001 -2.432502e+000
         vertex -6.644952e-001 -5.039370e-001 -2.431653e+000
      endloop
   endfacet
   facet normal -1.130291e-001 0.000000e+000 9.935917e-001
      outer loop
         vertex -6.744756e-001 6.829620e-017 -2.432502e+000
         vertex -6.644952e-001 -5.039370e-001 -2.431653e+000
         vertex -6.644952e-001 6.829620e-017 -2.431653e+000
      endloop
   endfacet
   facet normal -2.244324e-001 0.000000e+000 9.744897e-001
      outer loop
         vertex -6.644952e-001 6.829620e-017 -2.431653e+000
         vertex -6.644952e-001 -5.039370e-001 -2.431653e+000
         vertex -6.548019e-001 -5.039370e-001 -2.429128e+000
      endloop
   endfacet
   facet normal -2.793211e-001 0.000000e+000 9.601977e-001
      outer loop
         vertex -6.644952e-001 6.829620e-017 -2.431653e+000
         vertex -6.548019e-001 -5.039370e-001 -2.429128e+000
         vertex -6.548019e-001 6.829620e-017 -2.429128e+000
      endloop
   endfacet
   facet normal -3.858936e-001 0.000000e+000 9.225433e-001
      outer loop
         vertex -6.548019e-001 6.829620e-017 -2.429128e+000
         vertex -6.548019e-001 -5.039370e-001 -2.429128e+000
         vertex -6.456746e-001 -5.039370e-001 -2.425003e+000
      endloop
   endfacet
   facet normal -4.375775e-001 0.000000e+000 8.991807e-001
      outer loop
         vertex -6.548019e-001 6.829620e-017 -2.429128e+000
         vertex -6.456746e-001 -5.039370e-001 -2.425003e+000
         vertex -6.456746e-001 6.829620e-017 -2.425003e+000
      endloop
   endfacet
   facet normal -5.362535e-001 0.000000e+000 8.440570e-001
      outer loop
         vertex -6.456746e-001 6.829620e-017 -2.425003e+000
         vertex -6.456746e-001 -5.039370e-001 -2.425003e+000
         vertex -6.373760e-001 -5.039370e-001 -2.419394e+000
      endloop
   endfacet
   facet normal -5.832456e-001 0.000000e+000 8.122959e-001
      outer loop
         vertex -6.456746e-001 6.829620e-017 -2.425003e+000
         vertex -6.373760e-001 -5.039370e-001 -2.419394e+000
         vertex -6.373760e-001 6.829620e-017 -2.419394e+000
      endloop
   endfacet
   facet normal -6.711863e-001 0.000000e+000 7.412888e-001
      outer loop
         vertex -6.373760e-001 6.829620e-017 -2.419394e+000
         vertex -6.373760e-001 -5.039370e-001 -2.419394e+000
         vertex -6.301445e-001 -5.039370e-001 -2.412463e+000
      endloop
   endfacet
   facet normal -7.121348e-001 0.000000e+000 7.020428e-001
      outer loop
         vertex -6.373760e-001 6.829620e-017 -2.419394e+000
         vertex -6.301445e-001 -5.039370e-001 -2.412463e+000
         vertex -6.301445e-001 6.829620e-017 -2.412463e+000
      endloop
   endfacet
   facet normal -7.868103e-001 0.000000e+000 6.171949e-001
      outer loop
         vertex -6.301445e-001 6.829620e-017 -2.412463e+000
         vertex -6.301445e-001 -5.039370e-001 -2.412463e+000
         vertex -6.241884e-001 -5.039370e-001 -2.404410e+000
      endloop
   endfacet
   facet normal -8.205372e-001 0.000000e+000 5.715931e-001
      outer loop
         vertex -6.301445e-001 6.829620e-017 -2.412463e+000
         vertex -6.241884e-001 -5.039370e-001 -2.404410e+000
         vertex -6.241884e-001 6.829620e-017 -2.404410e+000
      endloop
   endfacet
   facet normal -8.797992e-001 0.000000e+000 4.753455e-001
      outer loop
         vertex -6.241884e-001 6.829620e-017 -2.404410e+000
         vertex -6.241884e-001 -5.039370e-001 -2.404410e+000
         vertex -6.196790e-001 -5.039370e-001 -2.395466e+000
      endloop
   endfacet
   facet normal -9.053342e-001 0.000000e+000 4.246998e-001
      outer loop
         vertex -6.241884e-001 6.829620e-017 -2.404410e+000
         vertex -6.196790e-001 -5.039370e-001 -2.395466e+000
         vertex -6.196790e-001 6.829620e-017 -2.395466e+000
      endloop
   endfacet
   facet normal -9.474779e-001 0.000000e+000 3.198213e-001
      outer loop
         vertex -6.196790e-001 6.829620e-017 -2.395466e+000
         vertex -6.196790e-001 -5.039370e-001 -2.395466e+000
         vertex -6.167459e-001 -5.039370e-001 -2.385888e+000
      endloop
   endfacet
   facet normal -9.640865e-001 0.000000e+000 2.655886e-001
      outer loop
         vertex -6.196790e-001 6.829620e-017 -2.395466e+000
         vertex -6.167459e-001 -5.039370e-001 -2.385888e+000
         vertex -6.167459e-001 6.829620e-017 -2.385888e+000
      endloop
   endfacet
   facet normal -9.878993e-001 0.000000e+000 1.550965e-001
      outer loop
         vertex -6.167459e-001 6.829620e-017 -2.385888e+000
         vertex -6.167459e-001 -5.039370e-001 -2.385888e+000
         vertex -6.154736e-001 -5.039370e-001 -2.375953e+000
      endloop
   endfacet
   facet normal -9.951036e-001 0.000000e+000 9.883699e-002
      outer loop
         vertex -6.167459e-001 6.829620e-017 -2.385888e+000
         vertex -6.154736e-001 -5.039370e-001 -2.375953e+000
         vertex -6.154736e-001 6.829620e-017 -2.375953e+000
      endloop
   endfacet
   facet normal -9.999007e-001 0.000000e+000 -1.409025e-002
      outer loop
         vertex -6.154736e-001 6.829620e-017 -2.375953e+000
         vertex -6.154736e-001 -5.039370e-001 -2.375953e+000
         vertex -6.158987e-001 -5.039370e-001 -2.365946e+000
      endloop
   endfacet
   facet normal -9.974935e-001 0.000000e+000 -7.075802e-002
      outer loop
         vertex -6.154736e-001 6.829620e-017 -2.375953e+000
         vertex -6.158987e-001 -5.039370e-001 -2.365946e+000
         vertex -6.158987e-001 6.829620e-017 -2.365946e+000
      endloop
   endfacet
   facet normal -9.831368e-001 0.000000e+000 -1.828716e-001
      outer loop
         vertex -6.158987e-001 6.829620e-017 -2.365946e+000
         vertex -6.158987e-001 -5.039370e-001 -2.365946e+000
         vertex -6.180090e-001 -5.039370e-001 -2.356154e+000
      endloop
   endfacet
   facet normal -9.711873e-001 0.000000e+000 -2.383175e-001
      outer loop
         vertex -6.158987e-001 6.829620e-017 -2.365946e+000
         vertex -6.180090e-001 -5.039370e-001 -2.356154e+000
         vertex -6.180090e-001 6.829620e-017 -2.356154e+000
      endloop
   endfacet
   facet normal -9.380898e-001 0.000000e+000 -3.463921e-001
      outer loop
         vertex -6.180090e-001 6.829620e-017 -2.356154e+000
         vertex -6.180090e-001 -5.039370e-001 -2.356154e+000
         vertex -6.217437e-001 -5.039370e-001 -2.346860e+000
      endloop
   endfacet
   facet normal -9.169418e-001 0.000000e+000 -3.990209e-001
      outer loop
         vertex -6.180090e-001 6.829620e-017 -2.356154e+000
         vertex -6.217437e-001 -5.039370e-001 -2.346860e+000
         vertex -6.217437e-001 6.829620e-017 -2.346860e+000
      endloop
   endfacet
   facet normal -8.660557e-001 0.000000e+000 -4.999475e-001
      outer loop
         vertex -6.217437e-001 6.829620e-017 -2.346860e+000
         vertex -6.217437e-001 -5.039370e-001 -2.346860e+000
         vertex -6.269954e-001 -5.039370e-001 -2.338331e+000
      endloop
   endfacet
   facet normal -8.363176e-001 0.000000e+000 -5.482453e-001
      outer loop
         vertex -6.217437e-001 6.829620e-017 -2.346860e+000
         vertex -6.269954e-001 -5.039370e-001 -2.338331e+000
         vertex -6.269954e-001 6.829620e-017 -2.338331e+000
      endloop
   endfacet
   facet normal -7.691067e-001 0.000000e+000 -6.391203e-001
      outer loop
         vertex -6.269954e-001 6.829620e-017 -2.338331e+000
         vertex -6.269954e-001 -5.039370e-001 -2.338331e+000
         vertex -6.336130e-001 -5.039370e-001 -2.330812e+000
      endloop
   endfacet
   facet normal -7.316340e-001 0.000000e+000 -6.816977e-001
      outer loop
         vertex -6.269954e-001 6.829620e-017 -2.338331e+000
         vertex -6.336130e-001 -5.039370e-001 -2.330812e+000
         vertex -6.336130e-001 6.829620e-017 -2.330812e+000
      endloop
   endfacet
   facet normal -6.500320e-001 0.000000e+000 -7.599069e-001
      outer loop
         vertex -6.336130e-001 6.829620e-017 -2.330812e+000
         vertex -6.336130e-001 -5.039370e-001 -2.330812e+000
         vertex -6.414062e-001 -5.039370e-001 -2.324519e+000
      endloop
   endfacet
   facet normal -6.059027e-001 0.000000e+000 -7.955388e-001
      outer loop
         vertex -6.336130e-001 6.829620e-017 -2.330812e+000
         vertex -6.414062e-001 -5.039370e-001 -2.324519e+000
         vertex -6.414062e-001 6.829620e-017 -2.324519e+000
      endloop
   endfacet
   facet normal -5.122570e-001 0.000000e+000 -8.588322e-001
      outer loop
         vertex -6.414062e-001 6.829620e-017 -2.324519e+000
         vertex -6.414062e-001 -5.039370e-001 -2.324519e+000
         vertex -6.501507e-001 -5.039370e-001 -2.319634e+000
      endloop
   endfacet
   facet normal -4.627406e-001 0.000000e+000 -8.864937e-001
      outer loop
         vertex -6.414062e-001 6.829620e-017 -2.324519e+000
         vertex -6.501507e-001 -5.039370e-001 -2.319634e+000
         vertex -6.501507e-001 6.829620e-017 -2.319634e+000
      endloop
   endfacet
   facet normal -3.597453e-001 0.000000e+000 -9.330506e-001
      outer loop
         vertex -6.501507e-001 6.829620e-017 -2.319634e+000
         vertex -6.501507e-001 -5.039370e-001 -2.319634e+000
         vertex -6.595950e-001 -5.039370e-001 -2.316297e+000
      endloop
   endfacet
   facet normal -3.062663e-001 0.000000e+000 -9.519458e-001
      outer loop
         vertex -6.501507e-001 6.829620e-017 -2.319634e+000
         vertex -6.595950e-001 -5.039370e-001 -2.316297e+000
         vertex -6.595950e-001 6.829620e-017 -2.316297e+000
      endloop
   endfacet
   facet normal -1.968844e-001 0.000000e+000 -9.804267e-001
      outer loop
         vertex -6.595950e-001 6.829620e-017 -2.316297e+000
         vertex -6.595950e-001 -5.039370e-001 -2.316297e+000
         vertex -6.694673e-001 -5.039370e-001 -2.314605e+000
      endloop
   endfacet
   facet normal -1.409813e-001 0.000000e+000 -9.900123e-001
      outer loop
         vertex -6.595950e-001 6.829620e-017 -2.316297e+000
         vertex -6.694673e-001 -5.039370e-001 -2.314605e+000
         vertex -6.694673e-001 6.829620e-017 -2.314605e+000
      endloop
   endfacet
   facet normal -5.658260e-002 0.000000e+000 -9.983979e-001
      outer loop
         vertex -6.694673e-001 6.829620e-017 -2.314605e+000
         vertex -6.694673e-001 -5.039370e-001 -2.314605e+000
         vertex -6.744756e-001 6.829620e-017 -2.314392e+000
      endloop
   endfacet
endsolid