solid Body106_Default_sldprt
   facet normal 0.000000e+000 1.000000e+000 0.000000e+000
      outer loop
         vertex -2.125990e+000 -5.826772e-001 4.669339e-001
         vertex -2.134791e+000 -5.826772e-001 4.662744e-001
         vertex -2.172426e+000 -5.826772e-001 5.263965e-001
      endloop
   endfacet
   facet normal 0.000000e+000 1.000000e+000 0.000000e+000
      outer loop
         vertex -2.172426e+000 -5.826772e-001 5.263965e-001
         vertex -2.134791e+000 -5.826772e-001 4.662744e-001
         vertex -2.143397e+000 -5.826772e-001 4.643103e-001
      endloop
   endfacet
   facet normal 0.000000e+000 1.000000e+000 0.000000e+000
      outer loop
         vertex -2.172426e+000 -5.826772e-001 5.263965e-001
         vertex -2.143397e+000 -5.826772e-001 4.643103e-001
         vertex -2.151613e+000 -5.826772e-001 4.610856e-001
      endloop
   endfacet
   facet normal 0.000000e+000 1.000000e+000 0.000000e+000
      outer loop
         vertex -2.177133e+000 -5.826772e-001 4.374064e-001
         vertex -2.180963e+000 -5.826772e-001 4.294541e-001
         vertex -2.251847e+000 -5.826772e-001 4.269231e-001
      endloop
   endfacet
   facet normal 0.000000e+000 1.000000e+000 0.000000e+000
      outer loop
         vertex -2.251847e+000 -5.826772e-001 4.269231e-001
         vertex -2.180963e+000 -5.826772e-001 4.294541e-001
         vertex -2.183564e+000 -5.826772e-001 4.210199e-001
      endloop
   endfacet
   facet normal 0.000000e+000 1.000000e+000 0.000000e+000
      outer loop
         vertex -2.251847e+000 -5.826772e-001 4.269231e-001
         vertex -2.183564e+000 -5.826772e-001 4.210199e-001
         vertex -2.184880e+000 -5.826772e-001 4.122920e-001
      endloop
   endfacet
   facet normal 0.000000e+000 1.000000e+000 0.000000e+000
      outer loop
         vertex -2.074847e+000 -5.826772e-001 4.374064e-001
         vertex -2.079818e+000 -5.826772e-001 4.446991e-001
         vertex -2.046568e+000 -5.826772e-001 5.073522e-001
      endloop
   endfacet
   facet normal 0.000000e+000 1.000000e+000 0.000000e+000
      outer loop
         vertex -2.046568e+000 -5.826772e-001 5.073522e-001
         vertex -2.079818e+000 -5.826772e-001 4.446991e-001
         vertex -2.085822e+000 -5.826772e-001 4.511693e-001
      endloop
   endfacet
   facet normal 0.000000e+000 1.000000e+000 0.000000e+000
      outer loop
         vertex -2.046568e+000 -5.826772e-001 5.073522e-001
         vertex -2.085822e+000 -5.826772e-001 4.511693e-001
         vertex -2.092723e+000 -5.826772e-001 4.566725e-001
      endloop
   endfacet
   facet normal 0.000000e+000 1.000000e+000 0.000000e+000
      outer loop
         vertex -2.151613e+000 -5.826772e-001 4.610856e-001
         vertex -2.159257e+000 -5.826772e-001 4.566725e-001
         vertex -2.172426e+000 -5.826772e-001 5.263965e-001
      endloop
   endfacet
   facet normal 0.000000e+000 1.000000e+000 0.000000e+000
      outer loop
         vertex -2.172426e+000 -5.826772e-001 5.263965e-001
         vertex -2.159257e+000 -5.826772e-001 4.566725e-001
         vertex -2.166157e+000 -5.826772e-001 4.511693e-001
      endloop
   endfacet
   facet normal 0.000000e+000 1.000000e+000 0.000000e+000
      outer loop
         vertex -2.172426e+000 -5.826772e-001 5.263965e-001
         vertex -2.166157e+000 -5.826772e-001 4.511693e-001
         vertex -2.251847e+000 -5.826772e-001 4.269231e-001
      endloop
   endfacet
   facet normal 0.000000e+000 1.000000e+000 0.000000e+000
      outer loop
         vertex -2.251847e+000 -5.826772e-001 4.269231e-001
         vertex -2.166157e+000 -5.826772e-001 4.511693e-001
         vertex -2.172161e+000 -5.826772e-001 4.446991e-001
      endloop
   endfacet
   facet normal 0.000000e+000 1.000000e+000 0.000000e+000
      outer loop
         vertex -2.251847e+000 -5.826772e-001 4.269231e-001
         vertex -2.172161e+000 -5.826772e-001 4.446991e-001
         vertex -2.177133e+000 -5.826772e-001 4.374064e-001
      endloop
   endfacet
   facet normal 0.000000e+000 1.000000e+000 0.000000e+000
      outer loop
         vertex -2.074847e+000 -5.826772e-001 3.783513e-001
         vertex -2.071017e+000 -5.826772e-001 3.863036e-001
         vertex -2.000133e+000 -5.826772e-001 3.888345e-001
      endloop
   endfacet
   facet normal 0.000000e+000 1.000000e+000 0.000000e+000
      outer loop
         vertex -2.000133e+000 -5.826772e-001 3.888345e-001
         vertex -2.071017e+000 -5.826772e-001 3.863036e-001
         vertex -2.068415e+000 -5.826772e-001 3.947378e-001
      endloop
   endfacet
   facet normal 0.000000e+000 1.000000e+000 0.000000e+000
      outer loop
         vertex -2.000133e+000 -5.826772e-001 3.888345e-001
         vertex -2.068415e+000 -5.826772e-001 3.947378e-001
         vertex -2.067100e+000 -5.826772e-001 4.034656e-001
      endloop
   endfacet
   facet normal 0.000000e+000 1.000000e+000 0.000000e+000
      outer loop
         vertex -2.184880e+000 -5.826772e-001 4.122920e-001
         vertex -2.184880e+000 -5.826772e-001 4.034656e-001
         vertex -2.251847e+000 -5.826772e-001 4.269231e-001
      endloop
   endfacet
   facet normal 0.000000e+000 1.000000e+000 0.000000e+000
      outer loop
         vertex -2.251847e+000 -5.826772e-001 4.269231e-001
         vertex -2.184880e+000 -5.826772e-001 4.034656e-001
         vertex -2.183564e+000 -5.826772e-001 3.947378e-001
      endloop
   endfacet
   facet normal 0.000000e+000 1.000000e+000 0.000000e+000
      outer loop
         vertex -2.251847e+000 -5.826772e-001 4.269231e-001
         vertex -2.183564e+000 -5.826772e-001 3.947378e-001
         vertex -2.205411e+000 -5.826772e-001 3.084055e-001
      endloop
   endfacet
   facet normal 0.000000e+000 1.000000e+000 0.000000e+000
      outer loop
         vertex -2.205411e+000 -5.826772e-001 3.084055e-001
         vertex -2.183564e+000 -5.826772e-001 3.947378e-001
         vertex -2.180963e+000 -5.826772e-001 3.863036e-001
      endloop
   endfacet
   facet normal 0.000000e+000 1.000000e+000 0.000000e+000
      outer loop
         vertex -2.205411e+000 -5.826772e-001 3.084055e-001
         vertex -2.180963e+000 -5.826772e-001 3.863036e-001
         vertex -2.177133e+000 -5.826772e-001 3.783513e-001
      endloop
   endfacet
   facet normal 0.000000e+000 1.000000e+000 0.000000e+000
      outer loop
         vertex -2.177133e+000 -5.826772e-001 3.783513e-001
         vertex -2.172161e+000 -5.826772e-001 3.710586e-001
         vertex -2.205411e+000 -5.826772e-001 3.084055e-001
      endloop
   endfacet
   facet normal 0.000000e+000 1.000000e+000 0.000000e+000
      outer loop
         vertex -2.205411e+000 -5.826772e-001 3.084055e-001
         vertex -2.172161e+000 -5.826772e-001 3.710586e-001
         vertex -2.166157e+000 -5.826772e-001 3.645884e-001
      endloop
   endfacet
   facet normal 0.000000e+000 1.000000e+000 0.000000e+000
      outer loop
         vertex -2.205411e+000 -5.826772e-001 3.084055e-001
         vertex -2.166157e+000 -5.826772e-001 3.645884e-001
         vertex -2.159257e+000 -5.826772e-001 3.590852e-001
      endloop
   endfacet
   facet normal 0.000000e+000 1.000000e+000 0.000000e+000
      outer loop
         vertex -2.092723e+000 -5.826772e-001 4.566725e-001
         vertex -2.100367e+000 -5.826772e-001 4.610856e-001
         vertex -2.046568e+000 -5.826772e-001 5.073522e-001
      endloop
   endfacet
   facet normal 0.000000e+000 1.000000e+000 0.000000e+000
      outer loop
         vertex -2.046568e+000 -5.826772e-001 5.073522e-001
         vertex -2.100367e+000 -5.826772e-001 4.610856e-001
         vertex -2.108583e+000 -5.826772e-001 4.643103e-001
      endloop
   endfacet
   facet normal 0.000000e+000 1.000000e+000 0.000000e+000
      outer loop
         vertex -2.046568e+000 -5.826772e-001 5.073522e-001
         vertex -2.108583e+000 -5.826772e-001 4.643103e-001
         vertex -2.172426e+000 -5.826772e-001 5.263965e-001
      endloop
   endfacet
   facet normal 0.000000e+000 1.000000e+000 0.000000e+000
      outer loop
         vertex -2.172426e+000 -5.826772e-001 5.263965e-001
         vertex -2.108583e+000 -5.826772e-001 4.643103e-001
         vertex -2.117188e+000 -5.826772e-001 4.662744e-001
      endloop
   endfacet
   facet normal 0.000000e+000 1.000000e+000 0.000000e+000
      outer loop
         vertex -2.172426e+000 -5.826772e-001 5.263965e-001
         vertex -2.117188e+000 -5.826772e-001 4.662744e-001
         vertex -2.125990e+000 -5.826772e-001 4.669339e-001
      endloop
   endfacet
   facet normal 0.000000e+000 1.000000e+000 0.000000e+000
      outer loop
         vertex -2.067100e+000 -5.826772e-001 4.034656e-001
         vertex -2.067100e+000 -5.826772e-001 4.122920e-001
         vertex -2.000133e+000 -5.826772e-001 3.888345e-001
      endloop
   endfacet
   facet normal 0.000000e+000 1.000000e+000 0.000000e+000
      outer loop
         vertex -2.000133e+000 -5.826772e-001 3.888345e-001
         vertex -2.067100e+000 -5.826772e-001 4.122920e-001
         vertex -2.068415e+000 -5.826772e-001 4.210199e-001
      endloop
   endfacet
   facet normal 0.000000e+000 1.000000e+000 0.000000e+000
      outer loop
         vertex -2.000133e+000 -5.826772e-001 3.888345e-001
         vertex -2.068415e+000 -5.826772e-001 4.210199e-001
         vertex -2.046568e+000 -5.826772e-001 5.073522e-001
      endloop
   endfacet
   facet normal 0.000000e+000 1.000000e+000 0.000000e+000
      outer loop
         vertex -2.046568e+000 -5.826772e-001 5.073522e-001
         vertex -2.068415e+000 -5.826772e-001 4.210199e-001
         vertex -2.071017e+000 -5.826772e-001 4.294541e-001
      endloop
   endfacet
   facet normal 0.000000e+000 1.000000e+000 0.000000e+000
      outer loop
         vertex -2.046568e+000 -5.826772e-001 5.073522e-001
         vertex -2.071017e+000 -5.826772e-001 4.294541e-001
         vertex -2.074847e+000 -5.826772e-001 4.374064e-001
      endloop
   endfacet
   facet normal 0.000000e+000 1.000000e+000 0.000000e+000
      outer loop
         vertex -2.159257e+000 -5.826772e-001 3.590852e-001
         vertex -2.151613e+000 -5.826772e-001 3.546720e-001
         vertex -2.205411e+000 -5.826772e-001 3.084055e-001
      endloop
   endfacet
   facet normal 0.000000e+000 1.000000e+000 0.000000e+000
      outer loop
         vertex -2.205411e+000 -5.826772e-001 3.084055e-001
         vertex -2.151613e+000 -5.826772e-001 3.546720e-001
         vertex -2.143397e+000 -5.826772e-001 3.514474e-001
      endloop
   endfacet
   facet normal 0.000000e+000 1.000000e+000 0.000000e+000
      outer loop
         vertex -2.205411e+000 -5.826772e-001 3.084055e-001
         vertex -2.143397e+000 -5.826772e-001 3.514474e-001
         vertex -2.079554e+000 -5.826772e-001 2.893612e-001
      endloop
   endfacet
   facet normal 0.000000e+000 1.000000e+000 0.000000e+000
      outer loop
         vertex -2.079554e+000 -5.826772e-001 2.893612e-001
         vertex -2.143397e+000 -5.826772e-001 3.514474e-001
         vertex -2.134791e+000 -5.826772e-001 3.494833e-001
      endloop
   endfacet
   facet normal 0.000000e+000 1.000000e+000 0.000000e+000
      outer loop
         vertex -2.079554e+000 -5.826772e-001 2.893612e-001
         vertex -2.134791e+000 -5.826772e-001 3.494833e-001
         vertex -2.125990e+000 -5.826772e-001 3.488237e-001
      endloop
   endfacet
   facet normal 0.000000e+000 1.000000e+000 0.000000e+000
      outer loop
         vertex -2.125990e+000 -5.826772e-001 3.488237e-001
         vertex -2.117188e+000 -5.826772e-001 3.494833e-001
         vertex -2.079554e+000 -5.826772e-001 2.893612e-001
      endloop
   endfacet
   facet normal 0.000000e+000 1.000000e+000 0.000000e+000
      outer loop
         vertex -2.079554e+000 -5.826772e-001 2.893612e-001
         vertex -2.117188e+000 -5.826772e-001 3.494833e-001
         vertex -2.108583e+000 -5.826772e-001 3.514474e-001
      endloop
   endfacet
   facet normal 0.000000e+000 1.000000e+000 0.000000e+000
      outer loop
         vertex -2.079554e+000 -5.826772e-001 2.893612e-001
         vertex -2.108583e+000 -5.826772e-001 3.514474e-001
         vertex -2.100367e+000 -5.826772e-001 3.546720e-001
      endloop
   endfacet
   facet normal 0.000000e+000 1.000000e+000 0.000000e+000
      outer loop
         vertex -2.100367e+000 -5.826772e-001 3.546720e-001
         vertex -2.092723e+000 -5.826772e-001 3.590852e-001
         vertex -2.079554e+000 -5.826772e-001 2.893612e-001
      endloop
   endfacet
   facet normal 0.000000e+000 1.000000e+000 0.000000e+000
      outer loop
         vertex -2.079554e+000 -5.826772e-001 2.893612e-001
         vertex -2.092723e+000 -5.826772e-001 3.590852e-001
         vertex -2.085822e+000 -5.826772e-001 3.645884e-001
      endloop
   endfacet
   facet normal 0.000000e+000 1.000000e+000 0.000000e+000
      outer loop
         vertex -2.079554e+000 -5.826772e-001 2.893612e-001
         vertex -2.085822e+000 -5.826772e-001 3.645884e-001
         vertex -2.000133e+000 -5.826772e-001 3.888345e-001
      endloop
   endfacet
   facet normal 0.000000e+000 1.000000e+000 0.000000e+000
      outer loop
         vertex -2.000133e+000 -5.826772e-001 3.888345e-001
         vertex -2.085822e+000 -5.826772e-001 3.645884e-001
         vertex -2.079818e+000 -5.826772e-001 3.710586e-001
      endloop
   endfacet
   facet normal 0.000000e+000 1.000000e+000 0.000000e+000
      outer loop
         vertex -2.000133e+000 -5.826772e-001 3.888345e-001
         vertex -2.079818e+000 -5.826772e-001 3.710586e-001
         vertex -2.074847e+000 -5.826772e-001 3.783513e-001
      endloop
   endfacet
   facet normal 0.000000e+000 -1.000000e+000 0.000000e+000
      outer loop
         vertex -2.184880e+000 -6.614173e-001 4.034656e-001
         vertex -2.184880e+000 -6.614173e-001 4.122920e-001
         vertex -2.251847e+000 -6.614173e-001 4.269231e-001
      endloop
   endfacet
   facet normal 0.000000e+000 -1.000000e+000 0.000000e+000
      outer loop
         vertex -2.251847e+000 -6.614173e-001 4.269231e-001
         vertex -2.184880e+000 -6.614173e-001 4.122920e-001
         vertex -2.183564e+000 -6.614173e-001 4.210199e-001
      endloop
   endfacet
   facet normal 0.000000e+000 -1.000000e+000 0.000000e+000
      outer loop
         vertex -2.251847e+000 -6.614173e-001 4.269231e-001
         vertex -2.183564e+000 -6.614173e-001 4.210199e-001
         vertex -2.180963e+000 -6.614173e-001 4.294541e-001
      endloop
   endfacet
   facet normal 0.000000e+000 -1.000000e+000 0.000000e+000
      outer loop
         vertex -2.079818e+000 -6.614173e-001 4.446991e-001
         vertex -2.074847e+000 -6.614173e-001 4.374064e-001
         vertex -2.046568e+000 -6.614173e-001 5.073522e-001
      endloop
   endfacet
   facet normal 0.000000e+000 -1.000000e+000 0.000000e+000
      outer loop
         vertex -2.046568e+000 -6.614173e-001 5.073522e-001
         vertex -2.074847e+000 -6.614173e-001 4.374064e-001
         vertex -2.071017e+000 -6.614173e-001 4.294541e-001
      endloop
   endfacet
   facet normal 0.000000e+000 -1.000000e+000 0.000000e+000
      outer loop
         vertex -2.046568e+000 -6.614173e-001 5.073522e-001
         vertex -2.071017e+000 -6.614173e-001 4.294541e-001
         vertex -2.000133e+000 -6.614173e-001 3.888345e-001
      endloop
   endfacet
   facet normal 0.000000e+000 -1.000000e+000 0.000000e+000
      outer loop
         vertex -2.000133e+000 -6.614173e-001 3.888345e-001
         vertex -2.071017e+000 -6.614173e-001 4.294541e-001
         vertex -2.068415e+000 -6.614173e-001 4.210199e-001
      endloop
   endfacet
   facet normal 0.000000e+000 -1.000000e+000 0.000000e+000
      outer loop
         vertex -2.000133e+000 -6.614173e-001 3.888345e-001
         vertex -2.068415e+000 -6.614173e-001 4.210199e-001
         vertex -2.067100e+000 -6.614173e-001 4.122920e-001
      endloop
   endfacet
   facet normal 0.000000e+000 -1.000000e+000 0.000000e+000
      outer loop
         vertex -2.067100e+000 -6.614173e-001 4.122920e-001
         vertex -2.067100e+000 -6.614173e-001 4.034656e-001
         vertex -2.000133e+000 -6.614173e-001 3.888345e-001
      endloop
   endfacet
   facet normal 0.000000e+000 -1.000000e+000 0.000000e+000
      outer loop
         vertex -2.000133e+000 -6.614173e-001 3.888345e-001
         vertex -2.067100e+000 -6.614173e-001 4.034656e-001
         vertex -2.068415e+000 -6.614173e-001 3.947378e-001
      endloop
   endfacet
   facet normal 0.000000e+000 -1.000000e+000 0.000000e+000
      outer loop
         vertex -2.000133e+000 -6.614173e-001 3.888345e-001
         vertex -2.068415e+000 -6.614173e-001 3.947378e-001
         vertex -2.071017e+000 -6.614173e-001 3.863036e-001
      endloop
   endfacet
   facet normal 0.000000e+000 -1.000000e+000 0.000000e+000
      outer loop
         vertex -2.092723e+000 -6.614173e-001 3.590852e-001
         vertex -2.100367e+000 -6.614173e-001 3.546720e-001
         vertex -2.079554e+000 -6.614173e-001 2.893612e-001
      endloop
   endfacet
   facet normal 0.000000e+000 -1.000000e+000 0.000000e+000
      outer loop
         vertex -2.079554e+000 -6.614173e-001 2.893612e-001
         vertex -2.100367e+000 -6.614173e-001 3.546720e-001
         vertex -2.108583e+000 -6.614173e-001 3.514474e-001
      endloop
   endfacet
   facet normal 0.000000e+000 -1.000000e+000 0.000000e+000
      outer loop
         vertex -2.079554e+000 -6.614173e-001 2.893612e-001
         vertex -2.108583e+000 -6.614173e-001 3.514474e-001
         vertex -2.117188e+000 -6.614173e-001 3.494833e-001
      endloop
   endfacet
   facet normal 0.000000e+000 -1.000000e+000 0.000000e+000
      outer loop
         vertex -2.151613e+000 -6.614173e-001 3.546720e-001
         vertex -2.159257e+000 -6.614173e-001 3.590852e-001
         vertex -2.205411e+000 -6.614173e-001 3.084055e-001
      endloop
   endfacet
   facet normal 0.000000e+000 -1.000000e+000 0.000000e+000
      outer loop
         vertex -2.205411e+000 -6.614173e-001 3.084055e-001
         vertex -2.159257e+000 -6.614173e-001 3.590852e-001
         vertex -2.166157e+000 -6.614173e-001 3.645884e-001
      endloop
   endfacet
   facet normal 0.000000e+000 -1.000000e+000 0.000000e+000
      outer loop
         vertex -2.205411e+000 -6.614173e-001 3.084055e-001
         vertex -2.166157e+000 -6.614173e-001 3.645884e-001
         vertex -2.172161e+000 -6.614173e-001 3.710586e-001
      endloop
   endfacet
   facet normal 0.000000e+000 -1.000000e+000 0.000000e+000
      outer loop
         vertex -2.159257e+000 -6.614173e-001 4.566725e-001
         vertex -2.151613e+000 -6.614173e-001 4.610856e-001
         vertex -2.172426e+000 -6.614173e-001 5.263965e-001
      endloop
   endfacet
   facet normal 0.000000e+000 -1.000000e+000 0.000000e+000
      outer loop
         vertex -2.172426e+000 -6.614173e-001 5.263965e-001
         vertex -2.151613e+000 -6.614173e-001 4.610856e-001
         vertex -2.143397e+000 -6.614173e-001 4.643103e-001
      endloop
   endfacet
   facet normal 0.000000e+000 -1.000000e+000 0.000000e+000
      outer loop
         vertex -2.172426e+000 -6.614173e-001 5.263965e-001
         vertex -2.143397e+000 -6.614173e-001 4.643103e-001
         vertex -2.134791e+000 -6.614173e-001 4.662744e-001
      endloop
   endfacet
   facet normal 0.000000e+000 -1.000000e+000 0.000000e+000
      outer loop
         vertex -2.071017e+000 -6.614173e-001 3.863036e-001
         vertex -2.074847e+000 -6.614173e-001 3.783513e-001
         vertex -2.000133e+000 -6.614173e-001 3.888345e-001
      endloop
   endfacet
   facet normal 0.000000e+000 -1.000000e+000 0.000000e+000
      outer loop
         vertex -2.000133e+000 -6.614173e-001 3.888345e-001
         vertex -2.074847e+000 -6.614173e-001 3.783513e-001
         vertex -2.079818e+000 -6.614173e-001 3.710586e-001
      endloop
   endfacet
   facet normal 0.000000e+000 -1.000000e+000 0.000000e+000
      outer loop
         vertex -2.000133e+000 -6.614173e-001 3.888345e-001
         vertex -2.079818e+000 -6.614173e-001 3.710586e-001
         vertex -2.079554e+000 -6.614173e-001 2.893612e-001
      endloop
   endfacet
   facet normal 0.000000e+000 -1.000000e+000 0.000000e+000
      outer loop
         vertex -2.079554e+000 -6.614173e-001 2.893612e-001
         vertex -2.079818e+000 -6.614173e-001 3.710586e-001
         vertex -2.085822e+000 -6.614173e-001 3.645884e-001
      endloop
   endfacet
   facet normal 0.000000e+000 -1.000000e+000 0.000000e+000
      outer loop
         vertex -2.079554e+000 -6.614173e-001 2.893612e-001
         vertex -2.085822e+000 -6.614173e-001 3.645884e-001
         vertex -2.092723e+000 -6.614173e-001 3.590852e-001
      endloop
   endfacet
   facet normal 0.000000e+000 -1.000000e+000 0.000000e+000
      outer loop
         vertex -2.172161e+000 -6.614173e-001 3.710586e-001
         vertex -2.177133e+000 -6.614173e-001 3.783513e-001
         vertex -2.205411e+000 -6.614173e-001 3.084055e-001
      endloop
   endfacet
   facet normal 0.000000e+000 -1.000000e+000 0.000000e+000
      outer loop
         vertex -2.205411e+000 -6.614173e-001 3.084055e-001
         vertex -2.177133e+000 -6.614173e-001 3.783513e-001
         vertex -2.180963e+000 -6.614173e-001 3.863036e-001
      endloop
   endfacet
   facet normal 0.000000e+000 -1.000000e+000 0.000000e+000
      outer loop
         vertex -2.205411e+000 -6.614173e-001 3.084055e-001
         vertex -2.180963e+000 -6.614173e-001 3.863036e-001
         vertex -2.251847e+000 -6.614173e-001 4.269231e-001
      endloop
   endfacet
   facet normal 0.000000e+000 -1.000000e+000 0.000000e+000
      outer loop
         vertex -2.251847e+000 -6.614173e-001 4.269231e-001
         vertex -2.180963e+000 -6.614173e-001 3.863036e-001
         vertex -2.183564e+000 -6.614173e-001 3.947378e-001
      endloop
   endfacet
   facet normal 0.000000e+000 -1.000000e+000 0.000000e+000
      outer loop
         vertex -2.251847e+000 -6.614173e-001 4.269231e-001
         vertex -2.183564e+000 -6.614173e-001 3.947378e-001
         vertex -2.184880e+000 -6.614173e-001 4.034656e-001
      endloop
   endfacet
   facet normal 0.000000e+000 -1.000000e+000 0.000000e+000
      outer loop
         vertex -2.180963e+000 -6.614173e-001 4.294541e-001
         vertex -2.177133e+000 -6.614173e-001 4.374064e-001
         vertex -2.251847e+000 -6.614173e-001 4.269231e-001
      endloop
   endfacet
   facet normal 0.000000e+000 -1.000000e+000 0.000000e+000
      outer loop
         vertex -2.251847e+000 -6.614173e-001 4.269231e-001
         vertex -2.177133e+000 -6.614173e-001 4.374064e-001
         vertex -2.172161e+000 -6.614173e-001 4.446991e-001
      endloop
   endfacet
   facet normal 0.000000e+000 -1.000000e+000 0.000000e+000
      outer loop
         vertex -2.251847e+000 -6.614173e-001 4.269231e-001
         vertex -2.172161e+000 -6.614173e-001 4.446991e-001
         vertex -2.172426e+000 -6.614173e-001 5.263965e-001
      endloop
   endfacet
   facet normal 0.000000e+000 -1.000000e+000 0.000000e+000
      outer loop
         vertex -2.172426e+000 -6.614173e-001 5.263965e-001
         vertex -2.172161e+000 -6.614173e-001 4.446991e-001
         vertex -2.166157e+000 -6.614173e-001 4.511693e-001
      endloop
   endfacet
   facet normal 0.000000e+000 -1.000000e+000 0.000000e+000
      outer loop
         vertex -2.172426e+000 -6.614173e-001 5.263965e-001
         vertex -2.166157e+000 -6.614173e-001 4.511693e-001
         vertex -2.159257e+000 -6.614173e-001 4.566725e-001
      endloop
   endfacet
   facet normal 0.000000e+000 -1.000000e+000 0.000000e+000
      outer loop
         vertex -2.117188e+000 -6.614173e-001 3.494833e-001
         vertex -2.125990e+000 -6.614173e-001 3.488237e-001
         vertex -2.079554e+000 -6.614173e-001 2.893612e-001
      endloop
   endfacet
   facet normal 0.000000e+000 -1.000000e+000 0.000000e+000
      outer loop
         vertex -2.079554e+000 -6.614173e-001 2.893612e-001
         vertex -2.125990e+000 -6.614173e-001 3.488237e-001
         vertex -2.134791e+000 -6.614173e-001 3.494833e-001
      endloop
   endfacet
   facet normal 0.000000e+000 -1.000000e+000 0.000000e+000
      outer loop
         vertex -2.079554e+000 -6.614173e-001 2.893612e-001
         vertex -2.134791e+000 -6.614173e-001 3.494833e-001
         vertex -2.205411e+000 -6.614173e-001 3.084055e-001
      endloop
   endfacet
   facet normal 0.000000e+000 -1.000000e+000 0.000000e+000
      outer loop
         vertex -2.205411e+000 -6.614173e-001 3.084055e-001
         vertex -2.134791e+000 -6.614173e-001 3.494833e-001
         vertex -2.143397e+000 -6.614173e-001 3.514474e-001
      endloop
   endfacet
   facet normal 0.000000e+000 -1.000000e+000 0.000000e+000
      outer loop
         vertex -2.205411e+000 -6.614173e-001 3.084055e-001
         vertex -2.143397e+000 -6.614173e-001 3.514474e-001
         vertex -2.151613e+000 -6.614173e-001 3.546720e-001
      endloop
   endfacet
   facet normal 0.000000e+000 -1.000000e+000 0.000000e+000
      outer loop
         vertex -2.100367e+000 -6.614173e-001 4.610856e-001
         vertex -2.092723e+000 -6.614173e-001 4.566725e-001
         vertex -2.046568e+000 -6.614173e-001 5.073522e-001
      endloop
   endfacet
   facet normal 0.000000e+000 -1.000000e+000 0.000000e+000
      outer loop
         vertex -2.046568e+000 -6.614173e-001 5.073522e-001
         vertex -2.092723e+000 -6.614173e-001 4.566725e-001
         vertex -2.085822e+000 -6.614173e-001 4.511693e-001
      endloop
   endfacet
   facet normal 0.000000e+000 -1.000000e+000 0.000000e+000
      outer loop
         vertex -2.046568e+000 -6.614173e-001 5.073522e-001
         vertex -2.085822e+000 -6.614173e-001 4.511693e-001
         vertex -2.079818e+000 -6.614173e-001 4.446991e-001
      endloop
   endfacet
   facet normal 0.000000e+000 -1.000000e+000 0.000000e+000
      outer loop
         vertex -2.134791e+000 -6.614173e-001 4.662744e-001
         vertex -2.125990e+000 -6.614173e-001 4.669339e-001
         vertex -2.172426e+000 -6.614173e-001 5.263965e-001
      endloop
   endfacet
   facet normal 0.000000e+000 -1.000000e+000 0.000000e+000
      outer loop
         vertex -2.172426e+000 -6.614173e-001 5.263965e-001
         vertex -2.125990e+000 -6.614173e-001 4.669339e-001
         vertex -2.117188e+000 -6.614173e-001 4.662744e-001
      endloop
   endfacet
   facet normal 0.000000e+000 -1.000000e+000 0.000000e+000
      outer loop
         vertex -2.172426e+000 -6.614173e-001 5.263965e-001
         vertex -2.117188e+000 -6.614173e-001 4.662744e-001
         vertex -2.046568e+000 -6.614173e-001 5.073522e-001
      endloop
   endfacet
   facet normal 0.000000e+000 -1.000000e+000 0.000000e+000
      outer loop
         vertex -2.046568e+000 -6.614173e-001 5.073522e-001
         vertex -2.117188e+000 -6.614173e-001 4.662744e-001
         vertex -2.108583e+000 -6.614173e-001 4.643103e-001
      endloop
   endfacet
   facet normal 0.000000e+000 -1.000000e+000 0.000000e+000
      outer loop
         vertex -2.046568e+000 -6.614173e-001 5.073522e-001
         vertex -2.108583e+000 -6.614173e-001 4.643103e-001
         vertex -2.100367e+000 -6.614173e-001 4.610856e-001
      endloop
   endfacet
   facet normal 9.310847e-001 0.000000e+000 3.648032e-001
      outer loop
         vertex -2.000133e+000 -5.826772e-001 3.888345e-001
         vertex -2.046568e+000 -5.826772e-001 5.073522e-001
         vertex -2.000133e+000 -6.614173e-001 3.888345e-001
      endloop
   endfacet
   facet normal 9.310847e-001 0.000000e+000 3.648032e-001
      outer loop
         vertex -2.000133e+000 -6.614173e-001 3.888345e-001
         vertex -2.046568e+000 -5.826772e-001 5.073522e-001
         vertex -2.046568e+000 -6.614173e-001 5.073522e-001
      endloop
   endfacet
   facet normal 7.814711e-001 0.000000e+000 -6.239415e-001
      outer loop
         vertex -2.079554e+000 -5.826772e-001 2.893612e-001
         vertex -2.000133e+000 -5.826772e-001 3.888345e-001
         vertex -2.079554e+000 -6.614173e-001 2.893612e-001
      endloop
   endfacet
   facet normal 7.814711e-001 0.000000e+000 -6.239415e-001
      outer loop
         vertex -2.079554e+000 -6.614173e-001 2.893612e-001
         vertex -2.000133e+000 -5.826772e-001 3.888345e-001
         vertex -2.000133e+000 -6.614173e-001 3.888345e-001
      endloop
   endfacet
   facet normal -1.496135e-001 0.000000e+000 -9.887446e-001
      outer loop
         vertex -2.205411e+000 -5.826772e-001 3.084055e-001
         vertex -2.079554e+000 -5.826772e-001 2.893612e-001
         vertex -2.205411e+000 -6.614173e-001 3.084055e-001
      endloop
   endfacet
   facet normal -1.496135e-001 0.000000e+000 -9.887446e-001
      outer loop
         vertex -2.205411e+000 -6.614173e-001 3.084055e-001
         vertex -2.079554e+000 -5.826772e-001 2.893612e-001
         vertex -2.079554e+000 -6.614173e-001 2.893612e-001
      endloop
   endfacet
   facet normal -9.310847e-001 0.000000e+000 -3.648032e-001
      outer loop
         vertex -2.251847e+000 -5.826772e-001 4.269231e-001
         vertex -2.205411e+000 -5.826772e-001 3.084055e-001
         vertex -2.251847e+000 -6.614173e-001 4.269231e-001
      endloop
   endfacet
   facet normal -9.310847e-001 0.000000e+000 -3.648032e-001
      outer loop
         vertex -2.251847e+000 -6.614173e-001 4.269231e-001
         vertex -2.205411e+000 -5.826772e-001 3.084055e-001
         vertex -2.205411e+000 -6.614173e-001 3.084055e-001
      endloop
   endfacet
   facet normal -7.814711e-001 0.000000e+000 6.239415e-001
      outer loop
         vertex -2.172426e+000 -5.826772e-001 5.263965e-001
         vertex -2.251847e+000 -5.826772e-001 4.269231e-001
         vertex -2.172426e+000 -6.614173e-001 5.263965e-001
      endloop
   endfacet
   facet normal -7.814711e-001 0.000000e+000 6.239415e-001
      outer loop
         vertex -2.172426e+000 -6.614173e-001 5.263965e-001
         vertex -2.251847e+000 -5.826772e-001 4.269231e-001
         vertex -2.251847e+000 -6.614173e-001 4.269231e-001
      endloop
   endfacet
   facet normal 1.496135e-001 0.000000e+000 9.887446e-001
      outer loop
         vertex -2.046568e+000 -5.826772e-001 5.073522e-001
         vertex -2.172426e+000 -5.826772e-001 5.263965e-001
         vertex -2.046568e+000 -6.614173e-001 5.073522e-001
      endloop
   endfacet
   facet normal 1.496135e-001 0.000000e+000 9.887446e-001
      outer loop
         vertex -2.046568e+000 -6.614173e-001 5.073522e-001
         vertex -2.172426e+000 -5.826772e-001 5.263965e-001
         vertex -2.172426e+000 -6.614173e-001 5.263965e-001
      endloop
   endfacet
   facet normal 4.980453e-002 0.000000e+000 9.987590e-001
      outer loop
         vertex -2.134791e+000 -5.826772e-001 3.494833e-001
         vertex -2.125990e+000 -6.614173e-001 3.488237e-001
         vertex -2.125990e+000 -5.826772e-001 3.488237e-001
      endloop
   endfacet
   facet normal -4.980453e-002 0.000000e+000 9.987590e-001
      outer loop
         vertex -2.125990e+000 -5.826772e-001 3.488237e-001
         vertex -2.125990e+000 -6.614173e-001 3.488237e-001
         vertex -2.117188e+000 -6.614173e-001 3.494833e-001
      endloop
   endfacet
   facet normal -9.960905e-002 0.000000e+000 9.950266e-001
      outer loop
         vertex -2.125990e+000 -5.826772e-001 3.488237e-001
         vertex -2.117188e+000 -6.614173e-001 3.494833e-001
         vertex -2.117188e+000 -5.826772e-001 3.494833e-001
      endloop
   endfacet
   facet normal -1.981055e-001 0.000000e+000 9.801807e-001
      outer loop
         vertex -2.117188e+000 -5.826772e-001 3.494833e-001
         vertex -2.117188e+000 -6.614173e-001 3.494833e-001
         vertex -2.108583e+000 -6.614173e-001 3.514474e-001
      endloop
   endfacet
   facet normal -2.467975e-001 0.000000e+000 9.690670e-001
      outer loop
         vertex -2.117188e+000 -5.826772e-001 3.494833e-001
         vertex -2.108583e+000 -6.614173e-001 3.514474e-001
         vertex -2.108583e+000 -5.826772e-001 3.514474e-001
      endloop
   endfacet
   facet normal -3.419812e-001 0.000000e+000 9.397067e-001
      outer loop
         vertex -2.108583e+000 -5.826772e-001 3.514474e-001
         vertex -2.108583e+000 -6.614173e-001 3.514474e-001
         vertex -2.100367e+000 -6.614173e-001 3.546720e-001
      endloop
   endfacet
   facet normal -3.884729e-001 0.000000e+000 9.214601e-001
      outer loop
         vertex -2.108583e+000 -5.826772e-001 3.514474e-001
         vertex -2.100367e+000 -6.614173e-001 3.546720e-001
         vertex -2.100367e+000 -5.826772e-001 3.546720e-001
      endloop
   endfacet
   facet normal -4.782176e-001 0.000000e+000 8.782414e-001
      outer loop
         vertex -2.100367e+000 -5.826772e-001 3.546720e-001
         vertex -2.100367e+000 -6.614173e-001 3.546720e-001
         vertex -2.092723e+000 -6.614173e-001 3.590852e-001
      endloop
   endfacet
   facet normal -5.214705e-001 0.000000e+000 8.532693e-001
      outer loop
         vertex -2.100367e+000 -5.826772e-001 3.546720e-001
         vertex -2.092723e+000 -6.614173e-001 3.590852e-001
         vertex -2.092723e+000 -5.826772e-001 3.590852e-001
      endloop
   endfacet
   facet normal -6.037714e-001 0.000000e+000 7.971576e-001
      outer loop
         vertex -2.092723e+000 -5.826772e-001 3.590852e-001
         vertex -2.092723e+000 -6.614173e-001 3.590852e-001
         vertex -2.085822e+000 -6.614173e-001 3.645884e-001
      endloop
   endfacet
   facet normal -6.428193e-001 0.000000e+000 7.660179e-001
      outer loop
         vertex -2.092723e+000 -5.826772e-001 3.590852e-001
         vertex -2.085822e+000 -6.614173e-001 3.645884e-001
         vertex -2.085822e+000 -5.826772e-001 3.645884e-001
      endloop
   endfacet
   facet normal -7.158380e-001 0.000000e+000 6.982664e-001
      outer loop
         vertex -2.085822e+000 -5.826772e-001 3.645884e-001
         vertex -2.085822e+000 -6.614173e-001 3.645884e-001
         vertex -2.079818e+000 -6.614173e-001 3.710586e-001
      endloop
   endfacet
   facet normal -7.498086e-001 0.000000e+000 6.616548e-001
      outer loop
         vertex -2.085822e+000 -5.826772e-001 3.645884e-001
         vertex -2.079818e+000 -6.614173e-001 3.710586e-001
         vertex -2.079818e+000 -5.826772e-001 3.710586e-001
      endloop
   endfacet
   facet normal -8.119138e-001 0.000000e+000 5.837772e-001
      outer loop
         vertex -2.079818e+000 -5.826772e-001 3.710586e-001
         vertex -2.079818e+000 -6.614173e-001 3.710586e-001
         vertex -2.074847e+000 -6.614173e-001 3.783513e-001
      endloop
   endfacet
   facet normal -8.400484e-001 0.000000e+000 5.425115e-001
      outer loop
         vertex -2.079818e+000 -5.826772e-001 3.710586e-001
         vertex -2.074847e+000 -6.614173e-001 3.783513e-001
         vertex -2.074847e+000 -5.826772e-001 3.783513e-001
      endloop
   endfacet
   facet normal -8.898529e-001 0.000000e+000 4.562475e-001
      outer loop
         vertex -2.074847e+000 -5.826772e-001 3.783513e-001
         vertex -2.074847e+000 -6.614173e-001 3.783513e-001
         vertex -2.071017e+000 -6.614173e-001 3.863036e-001
      endloop
   endfacet
   facet normal -9.115229e-001 0.000000e+000 4.112494e-001
      outer loop
         vertex -2.074847e+000 -5.826772e-001 3.783513e-001
         vertex -2.071017e+000 -6.614173e-001 3.863036e-001
         vertex -2.071017e+000 -5.826772e-001 3.863036e-001
      endloop
   endfacet
   facet normal -9.479141e-001 0.000000e+000 3.185259e-001
      outer loop
         vertex -2.071017e+000 -5.826772e-001 3.863036e-001
         vertex -2.071017e+000 -6.614173e-001 3.863036e-001
         vertex -2.068415e+000 -6.614173e-001 3.947378e-001
      endloop
   endfacet
   facet normal -9.626355e-001 0.000000e+000 2.708006e-001
      outer loop
         vertex -2.071017e+000 -5.826772e-001 3.863036e-001
         vertex -2.068415e+000 -6.614173e-001 3.947378e-001
         vertex -2.068415e+000 -5.826772e-001 3.947378e-001
      endloop
   endfacet
   facet normal -9.848005e-001 0.000000e+000 1.736889e-001
      outer loop
         vertex -2.068415e+000 -5.826772e-001 3.947378e-001
         vertex -2.068415e+000 -6.614173e-001 3.947378e-001
         vertex -2.067100e+000 -6.614173e-001 4.034656e-001
      endloop
   endfacet
   facet normal -9.922444e-001 0.000000e+000 1.243026e-001
      outer loop
         vertex -2.068415e+000 -5.826772e-001 3.947378e-001
         vertex -2.067100e+000 -6.614173e-001 4.034656e-001
         vertex -2.067100e+000 -5.826772e-001 4.034656e-001
      endloop
   endfacet
   facet normal -9.996881e-001 0.000000e+000 2.497209e-002
      outer loop
         vertex -2.067100e+000 -5.826772e-001 4.034656e-001
         vertex -2.067100e+000 -6.614173e-001 4.034656e-001
         vertex -2.067100e+000 -6.614173e-001 4.122920e-001
      endloop
   endfacet
   facet normal -9.996881e-001 0.000000e+000 -2.497209e-002
      outer loop
         vertex -2.067100e+000 -5.826772e-001 4.034656e-001
         vertex -2.067100e+000 -6.614173e-001 4.122920e-001
         vertex -2.067100e+000 -5.826772e-001 4.122920e-001
      endloop
   endfacet
   facet normal -9.922444e-001 0.000000e+000 -1.243026e-001
      outer loop
         vertex -2.067100e+000 -5.826772e-001 4.122920e-001
         vertex -2.067100e+000 -6.614173e-001 4.122920e-001
         vertex -2.068415e+000 -6.614173e-001 4.210199e-001
      endloop
   endfacet
   facet normal -9.848005e-001 0.000000e+000 -1.736889e-001
      outer loop
         vertex -2.067100e+000 -5.826772e-001 4.122920e-001
         vertex -2.068415e+000 -6.614173e-001 4.210199e-001
         vertex -2.068415e+000 -5.826772e-001 4.210199e-001
      endloop
   endfacet
   facet normal -9.626355e-001 0.000000e+000 -2.708006e-001
      outer loop
         vertex -2.068415e+000 -5.826772e-001 4.210199e-001
         vertex -2.068415e+000 -6.614173e-001 4.210199e-001
         vertex -2.071017e+000 -6.614173e-001 4.294541e-001
      endloop
   endfacet
   facet normal -9.479141e-001 0.000000e+000 -3.185259e-001
      outer loop
         vertex -2.068415e+000 -5.826772e-001 4.210199e-001
         vertex -2.071017e+000 -6.614173e-001 4.294541e-001
         vertex -2.071017e+000 -5.826772e-001 4.294541e-001
      endloop
   endfacet
   facet normal -9.115229e-001 0.000000e+000 -4.112494e-001
      outer loop
         vertex -2.071017e+000 -5.826772e-001 4.294541e-001
         vertex -2.071017e+000 -6.614173e-001 4.294541e-001
         vertex -2.074847e+000 -6.614173e-001 4.374064e-001
      endloop
   endfacet
   facet normal -8.898529e-001 0.000000e+000 -4.562475e-001
      outer loop
         vertex -2.071017e+000 -5.826772e-001 4.294541e-001
         vertex -2.074847e+000 -6.614173e-001 4.374064e-001
         vertex -2.074847e+000 -5.826772e-001 4.374064e-001
      endloop
   endfacet
   facet normal -8.400484e-001 0.000000e+000 -5.425115e-001
      outer loop
         vertex -2.074847e+000 -5.826772e-001 4.374064e-001
         vertex -2.074847e+000 -6.614173e-001 4.374064e-001
         vertex -2.079818e+000 -6.614173e-001 4.446991e-001
      endloop
   endfacet
   facet normal -8.119138e-001 0.000000e+000 -5.837773e-001
      outer loop
         vertex -2.074847e+000 -5.826772e-001 4.374064e-001
         vertex -2.079818e+000 -6.614173e-001 4.446991e-001
         vertex -2.079818e+000 -5.826772e-001 4.446991e-001
      endloop
   endfacet
   facet normal -7.498086e-001 0.000000e+000 -6.616548e-001
      outer loop
         vertex -2.079818e+000 -5.826772e-001 4.446991e-001
         vertex -2.079818e+000 -6.614173e-001 4.446991e-001
         vertex -2.085822e+000 -6.614173e-001 4.511693e-001
      endloop
   endfacet
   facet normal -7.158380e-001 0.000000e+000 -6.982664e-001
      outer loop
         vertex -2.079818e+000 -5.826772e-001 4.446991e-001
         vertex -2.085822e+000 -6.614173e-001 4.511693e-001
         vertex -2.085822e+000 -5.826772e-001 4.511693e-001
      endloop
   endfacet
   facet normal -6.428193e-001 0.000000e+000 -7.660179e-001
      outer loop
         vertex -2.085822e+000 -5.826772e-001 4.511693e-001
         vertex -2.085822e+000 -6.614173e-001 4.511693e-001
         vertex -2.092723e+000 -6.614173e-001 4.566725e-001
      endloop
   endfacet
   facet normal -6.037714e-001 0.000000e+000 -7.971575e-001
      outer loop
         vertex -2.085822e+000 -5.826772e-001 4.511693e-001
         vertex -2.092723e+000 -6.614173e-001 4.566725e-001
         vertex -2.092723e+000 -5.826772e-001 4.566725e-001
      endloop
   endfacet
   facet normal -5.214705e-001 0.000000e+000 -8.532693e-001
      outer loop
         vertex -2.092723e+000 -5.826772e-001 4.566725e-001
         vertex -2.092723e+000 -6.614173e-001 4.566725e-001
         vertex -2.100367e+000 -6.614173e-001 4.610856e-001
      endloop
   endfacet
   facet normal -4.782176e-001 0.000000e+000 -8.782414e-001
      outer loop
         vertex -2.092723e+000 -5.826772e-001 4.566725e-001
         vertex -2.100367e+000 -6.614173e-001 4.610856e-001
         vertex -2.100367e+000 -5.826772e-001 4.610856e-001
      endloop
   endfacet
   facet normal -3.884729e-001 0.000000e+000 -9.214601e-001
      outer loop
         vertex -2.100367e+000 -5.826772e-001 4.610856e-001
         vertex -2.100367e+000 -6.614173e-001 4.610856e-001
         vertex -2.108583e+000 -6.614173e-001 4.643103e-001
      endloop
   endfacet
   facet normal -3.419812e-001 0.000000e+000 -9.397067e-001
      outer loop
         vertex -2.100367e+000 -5.826772e-001 4.610856e-001
         vertex -2.108583e+000 -6.614173e-001 4.643103e-001
         vertex -2.108583e+000 -5.826772e-001 4.643103e-001
      endloop
   endfacet
   facet normal -2.467975e-001 0.000000e+000 -9.690670e-001
      outer loop
         vertex -2.108583e+000 -5.826772e-001 4.643103e-001
         vertex -2.108583e+000 -6.614173e-001 4.643103e-001
         vertex -2.117188e+000 -6.614173e-001 4.662744e-001
      endloop
   endfacet
   facet normal -1.981055e-001 0.000000e+000 -9.801807e-001
      outer loop
         vertex -2.108583e+000 -5.826772e-001 4.643103e-001
         vertex -2.117188e+000 -6.614173e-001 4.662744e-001
         vertex -2.117188e+000 -5.826772e-001 4.662744e-001
      endloop
   endfacet
   facet normal -9.960905e-002 0.000000e+000 -9.950266e-001
      outer loop
         vertex -2.117188e+000 -5.826772e-001 4.662744e-001
         vertex -2.117188e+000 -6.614173e-001 4.662744e-001
         vertex -2.125990e+000 -6.614173e-001 4.669339e-001
      endloop
   endfacet
   facet normal -4.980453e-002 0.000000e+000 -9.987590e-001
      outer loop
         vertex -2.117188e+000 -5.826772e-001 4.662744e-001
         vertex -2.125990e+000 -6.614173e-001 4.669339e-001
         vertex -2.125990e+000 -5.826772e-001 4.669339e-001
      endloop
   endfacet
   facet normal 4.980453e-002 0.000000e+000 -9.987590e-001
      outer loop
         vertex -2.125990e+000 -5.826772e-001 4.669339e-001
         vertex -2.125990e+000 -6.614173e-001 4.669339e-001
         vertex -2.134791e+000 -6.614173e-001 4.662744e-001
      endloop
   endfacet
   facet normal 9.960905e-002 0.000000e+000 -9.950266e-001
      outer loop
         vertex -2.125990e+000 -5.826772e-001 4.669339e-001
         vertex -2.134791e+000 -6.614173e-001 4.662744e-001
         vertex -2.134791e+000 -5.826772e-001 4.662744e-001
      endloop
   endfacet
   facet normal 1.981055e-001 0.000000e+000 -9.801807e-001
      outer loop
         vertex -2.134791e+000 -5.826772e-001 4.662744e-001
         vertex -2.134791e+000 -6.614173e-001 4.662744e-001
         vertex -2.143397e+000 -6.614173e-001 4.643103e-001
      endloop
   endfacet
   facet normal 2.467975e-001 0.000000e+000 -9.690670e-001
      outer loop
         vertex -2.134791e+000 -5.826772e-001 4.662744e-001
         vertex -2.143397e+000 -6.614173e-001 4.643103e-001
         vertex -2.143397e+000 -5.826772e-001 4.643103e-001
      endloop
   endfacet
   facet normal 3.419812e-001 0.000000e+000 -9.397067e-001
      outer loop
         vertex -2.143397e+000 -5.826772e-001 4.643103e-001
         vertex -2.143397e+000 -6.614173e-001 4.643103e-001
         vertex -2.151613e+000 -6.614173e-001 4.610856e-001
      endloop
   endfacet
   facet normal 3.884729e-001 0.000000e+000 -9.214601e-001
      outer loop
         vertex -2.143397e+000 -5.826772e-001 4.643103e-001
         vertex -2.151613e+000 -6.614173e-001 4.610856e-001
         vertex -2.151613e+000 -5.826772e-001 4.610856e-001
      endloop
   endfacet
   facet normal 4.782176e-001 0.000000e+000 -8.782414e-001
      outer loop
         vertex -2.151613e+000 -5.826772e-001 4.610856e-001
         vertex -2.151613e+000 -6.614173e-001 4.610856e-001
         vertex -2.159257e+000 -6.614173e-001 4.566725e-001
      endloop
   endfacet
   facet normal 5.214705e-001 0.000000e+000 -8.532693e-001
      outer loop
         vertex -2.151613e+000 -5.826772e-001 4.610856e-001
         vertex -2.159257e+000 -6.614173e-001 4.566725e-001
         vertex -2.159257e+000 -5.826772e-001 4.566725e-001
      endloop
   endfacet
   facet normal 6.037714e-001 0.000000e+000 -7.971576e-001
      outer loop
         vertex -2.159257e+000 -5.826772e-001 4.566725e-001
         vertex -2.159257e+000 -6.614173e-001 4.566725e-001
         vertex -2.166157e+000 -6.614173e-001 4.511693e-001
      endloop
   endfacet
   facet normal 6.428193e-001 0.000000e+000 -7.660179e-001
      outer loop
         vertex -2.159257e+000 -5.826772e-001 4.566725e-001
         vertex -2.166157e+000 -6.614173e-001 4.511693e-001
         vertex -2.166157e+000 -5.826772e-001 4.511693e-001
      endloop
   endfacet
   facet normal 7.158380e-001 0.000000e+000 -6.982664e-001
      outer loop
         vertex -2.166157e+000 -5.826772e-001 4.511693e-001
         vertex -2.166157e+000 -6.614173e-001 4.511693e-001
         vertex -2.172161e+000 -6.614173e-001 4.446991e-001
      endloop
   endfacet
   facet normal 7.498086e-001 0.000000e+000 -6.616548e-001
      outer loop
         vertex -2.166157e+000 -5.826772e-001 4.511693e-001
         vertex -2.172161e+000 -6.614173e-001 4.446991e-001
         vertex -2.172161e+000 -5.826772e-001 4.446991e-001
      endloop
   endfacet
   facet normal 8.119138e-001 0.000000e+000 -5.837772e-001
      outer loop
         vertex -2.172161e+000 -5.826772e-001 4.446991e-001
         vertex -2.172161e+000 -6.614173e-001 4.446991e-001
         vertex -2.177133e+000 -6.614173e-001 4.374064e-001
      endloop
   endfacet
   facet normal 8.400484e-001 0.000000e+000 -5.425115e-001
      outer loop
         vertex -2.172161e+000 -5.826772e-001 4.446991e-001
         vertex -2.177133e+000 -6.614173e-001 4.374064e-001
         vertex -2.177133e+000 -5.826772e-001 4.374064e-001
      endloop
   endfacet
   facet normal 8.898529e-001 0.000000e+000 -4.562475e-001
      outer loop
         vertex -2.177133e+000 -5.826772e-001 4.374064e-001
         vertex -2.177133e+000 -6.614173e-001 4.374064e-001
         vertex -2.180963e+000 -6.614173e-001 4.294541e-001
      endloop
   endfacet
   facet normal 9.115229e-001 0.000000e+000 -4.112494e-001
      outer loop
         vertex -2.177133e+000 -5.826772e-001 4.374064e-001
         vertex -2.180963e+000 -6.614173e-001 4.294541e-001
         vertex -2.180963e+000 -5.826772e-001 4.294541e-001
      endloop
   endfacet
   facet normal 9.479141e-001 0.000000e+000 -3.185259e-001
      outer loop
         vertex -2.180963e+000 -5.826772e-001 4.294541e-001
         vertex -2.180963e+000 -6.614173e-001 4.294541e-001
         vertex -2.183564e+000 -6.614173e-001 4.210199e-001
      endloop
   endfacet
   facet normal 9.626355e-001 0.000000e+000 -2.708006e-001
      outer loop
         vertex -2.180963e+000 -5.826772e-001 4.294541e-001
         vertex -2.183564e+000 -6.614173e-001 4.210199e-001
         vertex -2.183564e+000 -5.826772e-001 4.210199e-001
      endloop
   endfacet
   facet normal 9.848005e-001 0.000000e+000 -1.736889e-001
      outer loop
         vertex -2.183564e+000 -5.826772e-001 4.210199e-001
         vertex -2.183564e+000 -6.614173e-001 4.210199e-001
         vertex -2.184880e+000 -6.614173e-001 4.122920e-001
      endloop
   endfacet
   facet normal 9.922444e-001 0.000000e+000 -1.243026e-001
      outer loop
         vertex -2.183564e+000 -5.826772e-001 4.210199e-001
         vertex -2.184880e+000 -6.614173e-001 4.122920e-001
         vertex -2.184880e+000 -5.826772e-001 4.122920e-001
      endloop
   endfacet
   facet normal 9.996881e-001 0.000000e+000 -2.497209e-002
      outer loop
         vertex -2.184880e+000 -5.826772e-001 4.122920e-001
         vertex -2.184880e+000 -6.614173e-001 4.122920e-001
         vertex -2.184880e+000 -6.614173e-001 4.034656e-001
      endloop
   endfacet
   facet normal 9.996881e-001 0.000000e+000 2.497209e-002
      outer loop
         vertex -2.184880e+000 -5.826772e-001 4.122920e-001
         vertex -2.184880e+000 -6.614173e-001 4.034656e-001
         vertex -2.184880e+000 -5.826772e-001 4.034656e-001
      endloop
   endfacet
   facet normal 9.922444e-001 0.000000e+000 1.243026e-001
      outer loop
         vertex -2.184880e+000 -5.826772e-001 4.034656e-001
         vertex -2.184880e+000 -6.614173e-001 4.034656e-001
         vertex -2.183564e+000 -6.614173e-001 3.947378e-001
      endloop
   endfacet
   facet normal 9.848005e-001 0.000000e+000 1.736889e-001
      outer loop
         vertex -2.184880e+000 -5.826772e-001 4.034656e-001
         vertex -2.183564e+000 -6.614173e-001 3.947378e-001
         vertex -2.183564e+000 -5.826772e-001 3.947378e-001
      endloop
   endfacet
   facet normal 9.626355e-001 0.000000e+000 2.708006e-001
      outer loop
         vertex -2.183564e+000 -5.826772e-001 3.947378e-001
         vertex -2.183564e+000 -6.614173e-001 3.947378e-001
         vertex -2.180963e+000 -6.614173e-001 3.863036e-001
      endloop
   endfacet
   facet normal 9.479141e-001 0.000000e+000 3.185259e-001
      outer loop
         vertex -2.183564e+000 -5.826772e-001 3.947378e-001
         vertex -2.180963e+000 -6.614173e-001 3.863036e-001
         vertex -2.180963e+000 -5.826772e-001 3.863036e-001
      endloop
   endfacet
   facet normal 9.115229e-001 0.000000e+000 4.112494e-001
      outer loop
         vertex -2.180963e+000 -5.826772e-001 3.863036e-001
         vertex -2.180963e+000 -6.614173e-001 3.863036e-001
         vertex -2.177133e+000 -6.614173e-001 3.783513e-001
      endloop
   endfacet
   facet normal 8.898529e-001 0.000000e+000 4.562475e-001
      outer loop
         vertex -2.180963e+000 -5.826772e-001 3.863036e-001
         vertex -2.177133e+000 -6.614173e-001 3.783513e-001
         vertex -2.177133e+000 -5.826772e-001 3.783513e-001
      endloop
   endfacet
   facet normal 8.400484e-001 0.000000e+000 5.425115e-001
      outer loop
         vertex -2.177133e+000 -5.826772e-001 3.783513e-001
         vertex -2.177133e+000 -6.614173e-001 3.783513e-001
         vertex -2.172161e+000 -6.614173e-001 3.710586e-001
      endloop
   endfacet
   facet normal 8.119138e-001 0.000000e+000 5.837773e-001
      outer loop
         vertex -2.177133e+000 -5.826772e-001 3.783513e-001
         vertex -2.172161e+000 -6.614173e-001 3.710586e-001
         vertex -2.172161e+000 -5.826772e-001 3.710586e-001
      endloop
   endfacet
   facet normal 7.498086e-001 0.000000e+000 6.616548e-001
      outer loop
         vertex -2.172161e+000 -5.826772e-001 3.710586e-001
         vertex -2.172161e+000 -6.614173e-001 3.710586e-001
         vertex -2.166157e+000 -6.614173e-001 3.645884e-001
      endloop
   endfacet
   facet normal 7.158380e-001 0.000000e+000 6.982664e-001
      outer loop
         vertex -2.172161e+000 -5.826772e-001 3.710586e-001
         vertex -2.166157e+000 -6.614173e-001 3.645884e-001
         vertex -2.166157e+000 -5.826772e-001 3.645884e-001
      endloop
   endfacet
   facet normal 6.428193e-001 0.000000e+000 7.660179e-001
      outer loop
         vertex -2.166157e+000 -5.826772e-001 3.645884e-001
         vertex -2.166157e+000 -6.614173e-001 3.645884e-001
         vertex -2.159257e+000 -6.614173e-001 3.590852e-001
      endloop
   endfacet
   facet normal 6.037714e-001 0.000000e+000 7.971575e-001
      outer loop
         vertex -2.166157e+000 -5.826772e-001 3.645884e-001
         vertex -2.159257e+000 -6.614173e-001 3.590852e-001
         vertex -2.159257e+000 -5.826772e-001 3.590852e-001
      endloop
   endfacet
   facet normal 5.214705e-001 0.000000e+000 8.532693e-001
      outer loop
         vertex -2.159257e+000 -5.826772e-001 3.590852e-001
         vertex -2.159257e+000 -6.614173e-001 3.590852e-001
         vertex -2.151613e+000 -6.614173e-001 3.546720e-001
      endloop
   endfacet
   facet normal 4.782176e-001 0.000000e+000 8.782414e-001
      outer loop
         vertex -2.159257e+000 -5.826772e-001 3.590852e-001
         vertex -2.151613e+000 -6.614173e-001 3.546720e-001
         vertex -2.151613e+000 -5.826772e-001 3.546720e-001
      endloop
   endfacet
   facet normal 3.884729e-001 0.000000e+000 9.214601e-001
      outer loop
         vertex -2.151613e+000 -5.826772e-001 3.546720e-001
         vertex -2.151613e+000 -6.614173e-001 3.546720e-001
         vertex -2.143397e+000 -6.614173e-001 3.514474e-001
      endloop
   endfacet
   facet normal 3.419812e-001 0.000000e+000 9.397067e-001
      outer loop
         vertex -2.151613e+000 -5.826772e-001 3.546720e-001
         vertex -2.143397e+000 -6.614173e-001 3.514474e-001
         vertex -2.143397e+000 -5.826772e-001 3.514474e-001
      endloop
   endfacet
   facet normal 2.467975e-001 0.000000e+000 9.690670e-001
      outer loop
         vertex -2.143397e+000 -5.826772e-001 3.514474e-001
         vertex -2.143397e+000 -6.614173e-001 3.514474e-001
         vertex -2.134791e+000 -6.614173e-001 3.494833e-001
      endloop
   endfacet
   facet normal 1.981055e-001 0.000000e+000 9.801807e-001
      outer loop
         vertex -2.143397e+000 -5.826772e-001 3.514474e-001
         vertex -2.134791e+000 -6.614173e-001 3.494833e-001
         vertex -2.134791e+000 -5.826772e-001 3.494833e-001
      endloop
   endfacet
   facet normal 9.960905e-002 0.000000e+000 9.950266e-001
      outer loop
         vertex -2.134791e+000 -5.826772e-001 3.494833e-001
         vertex -2.134791e+000 -6.614173e-001 3.494833e-001
         vertex -2.125990e+000 -6.614173e-001 3.488237e-001
      endloop
   endfacet
endsolid