solid Body27_Default_sldprt
   facet normal 0.000000e+000 1.000000e+000 0.000000e+000
      outer loop
         vertex 1.217539e+000 6.829620e-017 -9.386360e-001
         vertex 1.207846e+000 6.829620e-017 -9.361120e-001
         vertex 1.180870e+000 6.829620e-017 -8.681677e-001
      endloop
   endfacet
   facet normal 0.000000e+000 1.000000e+000 0.000000e+000
      outer loop
         vertex 1.180870e+000 6.829620e-017 -8.681677e-001
         vertex 1.207846e+000 6.829620e-017 -9.361120e-001
         vertex 1.197866e+000 6.829620e-017 -9.352627e-001
      endloop
   endfacet
   facet normal 0.000000e+000 1.000000e+000 0.000000e+000
      outer loop
         vertex 1.180870e+000 6.829620e-017 -8.681677e-001
         vertex 1.197866e+000 6.829620e-017 -9.352627e-001
         vertex 1.187885e+000 6.829620e-017 -9.361120e-001
      endloop
   endfacet
   facet normal 0.000000e+000 1.000000e+000 0.000000e+000
      outer loop
         vertex 1.153534e+000 6.829620e-017 -9.553016e-001
         vertex 1.147578e+000 6.829620e-017 -9.633547e-001
         vertex 1.080118e+000 6.829620e-017 -9.459617e-001
      endloop
   endfacet
   facet normal 0.000000e+000 1.000000e+000 0.000000e+000
      outer loop
         vertex 1.080118e+000 6.829620e-017 -9.459617e-001
         vertex 1.147578e+000 6.829620e-017 -9.633547e-001
         vertex 1.143069e+000 6.829620e-017 -9.722986e-001
      endloop
   endfacet
   facet normal 0.000000e+000 1.000000e+000 0.000000e+000
      outer loop
         vertex 1.080118e+000 6.829620e-017 -9.459617e-001
         vertex 1.143069e+000 6.829620e-017 -9.722986e-001
         vertex 1.140136e+000 6.829620e-017 -9.818761e-001
      endloop
   endfacet
   facet normal 0.000000e+000 1.000000e+000 0.000000e+000
      outer loop
         vertex 1.217539e+000 6.829620e-017 -9.386360e-001
         vertex 1.180870e+000 6.829620e-017 -8.681677e-001
         vertex 1.226666e+000 6.829620e-017 -9.427618e-001
      endloop
   endfacet
   facet normal 0.000000e+000 1.000000e+000 0.000000e+000
      outer loop
         vertex 1.226666e+000 6.829620e-017 -9.427618e-001
         vertex 1.180870e+000 6.829620e-017 -8.681677e-001
         vertex 1.298617e+000 6.829620e-017 -9.165239e-001
      endloop
   endfacet
   facet normal 0.000000e+000 1.000000e+000 0.000000e+000
      outer loop
         vertex 1.226666e+000 6.829620e-017 -9.427618e-001
         vertex 1.298617e+000 6.829620e-017 -9.165239e-001
         vertex 1.234965e+000 6.829620e-017 -9.483708e-001
      endloop
   endfacet
   facet normal 0.000000e+000 1.000000e+000 0.000000e+000
      outer loop
         vertex 1.187885e+000 6.829620e-017 -9.361120e-001
         vertex 1.178192e+000 6.829620e-017 -9.386360e-001
         vertex 1.180870e+000 6.829620e-017 -8.681677e-001
      endloop
   endfacet
   facet normal 0.000000e+000 1.000000e+000 0.000000e+000
      outer loop
         vertex 1.180870e+000 6.829620e-017 -8.681677e-001
         vertex 1.178192e+000 6.829620e-017 -9.386360e-001
         vertex 1.169065e+000 6.829620e-017 -9.427618e-001
      endloop
   endfacet
   facet normal 0.000000e+000 1.000000e+000 0.000000e+000
      outer loop
         vertex 1.180870e+000 6.829620e-017 -8.681677e-001
         vertex 1.169065e+000 6.829620e-017 -9.427618e-001
         vertex 1.080118e+000 6.829620e-017 -9.459617e-001
      endloop
   endfacet
   facet normal 0.000000e+000 1.000000e+000 0.000000e+000
      outer loop
         vertex 1.080118e+000 6.829620e-017 -9.459617e-001
         vertex 1.169065e+000 6.829620e-017 -9.427618e-001
         vertex 1.160766e+000 6.829620e-017 -9.483708e-001
      endloop
   endfacet
   facet normal 0.000000e+000 1.000000e+000 0.000000e+000
      outer loop
         vertex 1.080118e+000 6.829620e-017 -9.459617e-001
         vertex 1.160766e+000 6.829620e-017 -9.483708e-001
         vertex 1.153534e+000 6.829620e-017 -9.553016e-001
      endloop
   endfacet
   facet normal 0.000000e+000 1.000000e+000 0.000000e+000
      outer loop
         vertex 1.140136e+000 6.829620e-017 -9.818761e-001
         vertex 1.138864e+000 6.829620e-017 -9.918114e-001
         vertex 1.080118e+000 6.829620e-017 -9.459617e-001
      endloop
   endfacet
   facet normal 0.000000e+000 1.000000e+000 0.000000e+000
      outer loop
         vertex 1.080118e+000 6.829620e-017 -9.459617e-001
         vertex 1.138864e+000 6.829620e-017 -9.918114e-001
         vertex 1.139289e+000 6.829620e-017 -1.001819e+000
      endloop
   endfacet
   facet normal 0.000000e+000 1.000000e+000 0.000000e+000
      outer loop
         vertex 1.080118e+000 6.829620e-017 -9.459617e-001
         vertex 1.139289e+000 6.829620e-017 -1.001819e+000
         vertex 1.097114e+000 6.829620e-017 -1.072112e+000
      endloop
   endfacet
   facet normal 0.000000e+000 1.000000e+000 0.000000e+000
      outer loop
         vertex 1.097114e+000 6.829620e-017 -1.072112e+000
         vertex 1.139289e+000 6.829620e-017 -1.001819e+000
         vertex 1.141399e+000 6.829620e-017 -1.011610e+000
      endloop
   endfacet
   facet normal 0.000000e+000 1.000000e+000 0.000000e+000
      outer loop
         vertex 1.141399e+000 6.829620e-017 -1.011610e+000
         vertex 1.145134e+000 6.829620e-017 -1.020905e+000
         vertex 1.097114e+000 6.829620e-017 -1.072112e+000
      endloop
   endfacet
   facet normal 0.000000e+000 1.000000e+000 0.000000e+000
      outer loop
         vertex 1.097114e+000 6.829620e-017 -1.072112e+000
         vertex 1.145134e+000 6.829620e-017 -1.020905e+000
         vertex 1.150385e+000 6.829620e-017 -1.029434e+000
      endloop
   endfacet
   facet normal 0.000000e+000 1.000000e+000 0.000000e+000
      outer loop
         vertex 1.097114e+000 6.829620e-017 -1.072112e+000
         vertex 1.150385e+000 6.829620e-017 -1.029434e+000
         vertex 1.157003e+000 6.829620e-017 -1.036953e+000
      endloop
   endfacet
   facet normal 0.000000e+000 1.000000e+000 0.000000e+000
      outer loop
         vertex 1.157003e+000 6.829620e-017 -1.036953e+000
         vertex 1.164796e+000 6.829620e-017 -1.043245e+000
         vertex 1.097114e+000 6.829620e-017 -1.072112e+000
      endloop
   endfacet
   facet normal 0.000000e+000 1.000000e+000 0.000000e+000
      outer loop
         vertex 1.097114e+000 6.829620e-017 -1.072112e+000
         vertex 1.164796e+000 6.829620e-017 -1.043245e+000
         vertex 1.173541e+000 6.829620e-017 -1.048131e+000
      endloop
   endfacet
   facet normal 0.000000e+000 1.000000e+000 0.000000e+000
      outer loop
         vertex 1.097114e+000 6.829620e-017 -1.072112e+000
         vertex 1.173541e+000 6.829620e-017 -1.048131e+000
         vertex 1.214862e+000 6.829620e-017 -1.120468e+000
      endloop
   endfacet
   facet normal 0.000000e+000 1.000000e+000 0.000000e+000
      outer loop
         vertex 1.214862e+000 6.829620e-017 -1.120468e+000
         vertex 1.173541e+000 6.829620e-017 -1.048131e+000
         vertex 1.182985e+000 6.829620e-017 -1.051467e+000
      endloop
   endfacet
   facet normal 0.000000e+000 1.000000e+000 0.000000e+000
      outer loop
         vertex 1.214862e+000 6.829620e-017 -1.120468e+000
         vertex 1.182985e+000 6.829620e-017 -1.051467e+000
         vertex 1.192857e+000 6.829620e-017 -1.053160e+000
      endloop
   endfacet
   facet normal 0.000000e+000 1.000000e+000 0.000000e+000
      outer loop
         vertex 1.212746e+000 6.829620e-017 -1.051467e+000
         vertex 1.222190e+000 6.829620e-017 -1.048131e+000
         vertex 1.214862e+000 6.829620e-017 -1.120468e+000
      endloop
   endfacet
   facet normal 0.000000e+000 1.000000e+000 0.000000e+000
      outer loop
         vertex 1.214862e+000 6.829620e-017 -1.120468e+000
         vertex 1.222190e+000 6.829620e-017 -1.048131e+000
         vertex 1.230935e+000 6.829620e-017 -1.043245e+000
      endloop
   endfacet
   facet normal 0.000000e+000 1.000000e+000 0.000000e+000
      outer loop
         vertex 1.214862e+000 6.829620e-017 -1.120468e+000
         vertex 1.230935e+000 6.829620e-017 -1.043245e+000
         vertex 1.315613e+000 6.829620e-017 -1.042674e+000
      endloop
   endfacet
   facet normal 0.000000e+000 1.000000e+000 0.000000e+000
      outer loop
         vertex 1.315613e+000 6.829620e-017 -1.042674e+000
         vertex 1.230935e+000 6.829620e-017 -1.043245e+000
         vertex 1.238728e+000 6.829620e-017 -1.036953e+000
      endloop
   endfacet
   facet normal 0.000000e+000 1.000000e+000 0.000000e+000
      outer loop
         vertex 1.238728e+000 6.829620e-017 -1.036953e+000
         vertex 1.245346e+000 6.829620e-017 -1.029434e+000
         vertex 1.315613e+000 6.829620e-017 -1.042674e+000
      endloop
   endfacet
   facet normal 0.000000e+000 1.000000e+000 0.000000e+000
      outer loop
         vertex 1.315613e+000 6.829620e-017 -1.042674e+000
         vertex 1.245346e+000 6.829620e-017 -1.029434e+000
         vertex 1.250597e+000 6.829620e-017 -1.020905e+000
      endloop
   endfacet
   facet normal 0.000000e+000 1.000000e+000 0.000000e+000
      outer loop
         vertex 1.315613e+000 6.829620e-017 -1.042674e+000
         vertex 1.250597e+000 6.829620e-017 -1.020905e+000
         vertex 1.254332e+000 6.829620e-017 -1.011610e+000
      endloop
   endfacet
   facet normal 0.000000e+000 1.000000e+000 0.000000e+000
      outer loop
         vertex 1.252662e+000 6.829620e-017 -9.722986e-001
         vertex 1.248153e+000 6.829620e-017 -9.633547e-001
         vertex 1.298617e+000 6.829620e-017 -9.165239e-001
      endloop
   endfacet
   facet normal 0.000000e+000 1.000000e+000 0.000000e+000
      outer loop
         vertex 1.298617e+000 6.829620e-017 -9.165239e-001
         vertex 1.248153e+000 6.829620e-017 -9.633547e-001
         vertex 1.242197e+000 6.829620e-017 -9.553016e-001
      endloop
   endfacet
   facet normal 0.000000e+000 1.000000e+000 0.000000e+000
      outer loop
         vertex 1.298617e+000 6.829620e-017 -9.165239e-001
         vertex 1.242197e+000 6.829620e-017 -9.553016e-001
         vertex 1.234965e+000 6.829620e-017 -9.483708e-001
      endloop
   endfacet
   facet normal 0.000000e+000 1.000000e+000 0.000000e+000
      outer loop
         vertex 1.192857e+000 6.829620e-017 -1.053160e+000
         vertex 1.197866e+000 6.829620e-017 -1.053373e+000
         vertex 1.214862e+000 6.829620e-017 -1.120468e+000
      endloop
   endfacet
   facet normal 0.000000e+000 1.000000e+000 0.000000e+000
      outer loop
         vertex 1.214862e+000 6.829620e-017 -1.120468e+000
         vertex 1.197866e+000 6.829620e-017 -1.053373e+000
         vertex 1.202874e+000 6.829620e-017 -1.053160e+000
      endloop
   endfacet
   facet normal 0.000000e+000 1.000000e+000 0.000000e+000
      outer loop
         vertex 1.214862e+000 6.829620e-017 -1.120468e+000
         vertex 1.202874e+000 6.829620e-017 -1.053160e+000
         vertex 1.212746e+000 6.829620e-017 -1.051467e+000
      endloop
   endfacet
   facet normal 0.000000e+000 1.000000e+000 0.000000e+000
      outer loop
         vertex 1.254332e+000 6.829620e-017 -1.011610e+000
         vertex 1.256442e+000 6.829620e-017 -1.001819e+000
         vertex 1.315613e+000 6.829620e-017 -1.042674e+000
      endloop
   endfacet
   facet normal 0.000000e+000 1.000000e+000 0.000000e+000
      outer loop
         vertex 1.315613e+000 6.829620e-017 -1.042674e+000
         vertex 1.256442e+000 6.829620e-017 -1.001819e+000
         vertex 1.256868e+000 6.829620e-017 -9.918114e-001
      endloop
   endfacet
   facet normal 0.000000e+000 1.000000e+000 0.000000e+000
      outer loop
         vertex 1.315613e+000 6.829620e-017 -1.042674e+000
         vertex 1.256868e+000 6.829620e-017 -9.918114e-001
         vertex 1.298617e+000 6.829620e-017 -9.165239e-001
      endloop
   endfacet
   facet normal 0.000000e+000 1.000000e+000 0.000000e+000
      outer loop
         vertex 1.298617e+000 6.829620e-017 -9.165239e-001
         vertex 1.256868e+000 6.829620e-017 -9.918114e-001
         vertex 1.255595e+000 6.829620e-017 -9.818761e-001
      endloop
   endfacet
   facet normal 0.000000e+000 1.000000e+000 0.000000e+000
      outer loop
         vertex 1.298617e+000 6.829620e-017 -9.165239e-001
         vertex 1.255595e+000 6.829620e-017 -9.818761e-001
         vertex 1.252662e+000 6.829620e-017 -9.722986e-001
      endloop
   endfacet
   facet normal 0.000000e+000 -1.000000e+000 0.000000e+000
      outer loop
         vertex 1.178192e+000 -5.039370e-001 -9.386360e-001
         vertex 1.187885e+000 -5.039370e-001 -9.361120e-001
         vertex 1.180870e+000 -5.039370e-001 -8.681677e-001
      endloop
   endfacet
   facet normal 0.000000e+000 -1.000000e+000 0.000000e+000
      outer loop
         vertex 1.180870e+000 -5.039370e-001 -8.681677e-001
         vertex 1.187885e+000 -5.039370e-001 -9.361120e-001
         vertex 1.197866e+000 -5.039370e-001 -9.352627e-001
      endloop
   endfacet
   facet normal 0.000000e+000 -1.000000e+000 0.000000e+000
      outer loop
         vertex 1.197866e+000 -5.039370e-001 -9.352627e-001
         vertex 1.207846e+000 -5.039370e-001 -9.361120e-001
         vertex 1.180870e+000 -5.039370e-001 -8.681677e-001
      endloop
   endfacet
   facet normal 0.000000e+000 -1.000000e+000 0.000000e+000
      outer loop
         vertex 1.180870e+000 -5.039370e-001 -8.681677e-001
         vertex 1.207846e+000 -5.039370e-001 -9.361120e-001
         vertex 1.217539e+000 -5.039370e-001 -9.386360e-001
      endloop
   endfacet
   facet normal 0.000000e+000 -1.000000e+000 0.000000e+000
      outer loop
         vertex 1.180870e+000 -5.039370e-001 -8.681677e-001
         vertex 1.217539e+000 -5.039370e-001 -9.386360e-001
         vertex 1.298617e+000 -5.039370e-001 -9.165239e-001
      endloop
   endfacet
   facet normal 0.000000e+000 -1.000000e+000 0.000000e+000
      outer loop
         vertex 1.298617e+000 -5.039370e-001 -9.165239e-001
         vertex 1.217539e+000 -5.039370e-001 -9.386360e-001
         vertex 1.226666e+000 -5.039370e-001 -9.427618e-001
      endloop
   endfacet
   facet normal 0.000000e+000 -1.000000e+000 0.000000e+000
      outer loop
         vertex 1.230935e+000 -5.039370e-001 -1.043245e+000
         vertex 1.222190e+000 -5.039370e-001 -1.048131e+000
         vertex 1.214862e+000 -5.039370e-001 -1.120468e+000
      endloop
   endfacet
   facet normal 0.000000e+000 -1.000000e+000 0.000000e+000
      outer loop
         vertex 1.214862e+000 -5.039370e-001 -1.120468e+000
         vertex 1.222190e+000 -5.039370e-001 -1.048131e+000
         vertex 1.212746e+000 -5.039370e-001 -1.051467e+000
      endloop
   endfacet
   facet normal 0.000000e+000 -1.000000e+000 0.000000e+000
      outer loop
         vertex 1.173541e+000 -5.039370e-001 -1.048131e+000
         vertex 1.097114e+000 -5.039370e-001 -1.072112e+000
         vertex 1.182985e+000 -5.039370e-001 -1.051467e+000
      endloop
   endfacet
   facet normal 0.000000e+000 -1.000000e+000 0.000000e+000
      outer loop
         vertex 1.182985e+000 -5.039370e-001 -1.051467e+000
         vertex 1.097114e+000 -5.039370e-001 -1.072112e+000
         vertex 1.214862e+000 -5.039370e-001 -1.120468e+000
      endloop
   endfacet
   facet normal 0.000000e+000 -1.000000e+000 0.000000e+000
      outer loop
         vertex 1.182985e+000 -5.039370e-001 -1.051467e+000
         vertex 1.214862e+000 -5.039370e-001 -1.120468e+000
         vertex 1.192857e+000 -5.039370e-001 -1.053160e+000
      endloop
   endfacet
   facet normal 0.000000e+000 -1.000000e+000 0.000000e+000
      outer loop
         vertex 1.173541e+000 -5.039370e-001 -1.048131e+000
         vertex 1.164796e+000 -5.039370e-001 -1.043245e+000
         vertex 1.097114e+000 -5.039370e-001 -1.072112e+000
      endloop
   endfacet
   facet normal 0.000000e+000 -1.000000e+000 0.000000e+000
      outer loop
         vertex 1.097114e+000 -5.039370e-001 -1.072112e+000
         vertex 1.164796e+000 -5.039370e-001 -1.043245e+000
         vertex 1.157003e+000 -5.039370e-001 -1.036953e+000
      endloop
   endfacet
   facet normal 0.000000e+000 -1.000000e+000 0.000000e+000
      outer loop
         vertex 1.097114e+000 -5.039370e-001 -1.072112e+000
         vertex 1.157003e+000 -5.039370e-001 -1.036953e+000
         vertex 1.150385e+000 -5.039370e-001 -1.029434e+000
      endloop
   endfacet
   facet normal 0.000000e+000 -1.000000e+000 0.000000e+000
      outer loop
         vertex 1.150385e+000 -5.039370e-001 -1.029434e+000
         vertex 1.145134e+000 -5.039370e-001 -1.020905e+000
         vertex 1.097114e+000 -5.039370e-001 -1.072112e+000
      endloop
   endfacet
   facet normal 0.000000e+000 -1.000000e+000 0.000000e+000
      outer loop
         vertex 1.097114e+000 -5.039370e-001 -1.072112e+000
         vertex 1.145134e+000 -5.039370e-001 -1.020905e+000
         vertex 1.141399e+000 -5.039370e-001 -1.011610e+000
      endloop
   endfacet
   facet normal 0.000000e+000 -1.000000e+000 0.000000e+000
      outer loop
         vertex 1.097114e+000 -5.039370e-001 -1.072112e+000
         vertex 1.141399e+000 -5.039370e-001 -1.011610e+000
         vertex 1.080118e+000 -5.039370e-001 -9.459617e-001
      endloop
   endfacet
   facet normal 0.000000e+000 -1.000000e+000 0.000000e+000
      outer loop
         vertex 1.080118e+000 -5.039370e-001 -9.459617e-001
         vertex 1.141399e+000 -5.039370e-001 -1.011610e+000
         vertex 1.139289e+000 -5.039370e-001 -1.001819e+000
      endloop
   endfacet
   facet normal 0.000000e+000 -1.000000e+000 0.000000e+000
      outer loop
         vertex 1.080118e+000 -5.039370e-001 -9.459617e-001
         vertex 1.139289e+000 -5.039370e-001 -1.001819e+000
         vertex 1.138864e+000 -5.039370e-001 -9.918114e-001
      endloop
   endfacet
   facet normal 0.000000e+000 -1.000000e+000 0.000000e+000
      outer loop
         vertex 1.138864e+000 -5.039370e-001 -9.918114e-001
         vertex 1.140136e+000 -5.039370e-001 -9.818761e-001
         vertex 1.080118e+000 -5.039370e-001 -9.459617e-001
      endloop
   endfacet
   facet normal 0.000000e+000 -1.000000e+000 0.000000e+000
      outer loop
         vertex 1.080118e+000 -5.039370e-001 -9.459617e-001
         vertex 1.140136e+000 -5.039370e-001 -9.818761e-001
         vertex 1.143069e+000 -5.039370e-001 -9.722986e-001
      endloop
   endfacet
   facet normal 0.000000e+000 -1.000000e+000 0.000000e+000
      outer loop
         vertex 1.080118e+000 -5.039370e-001 -9.459617e-001
         vertex 1.143069e+000 -5.039370e-001 -9.722986e-001
         vertex 1.147578e+000 -5.039370e-001 -9.633547e-001
      endloop
   endfacet
   facet normal 0.000000e+000 -1.000000e+000 0.000000e+000
      outer loop
         vertex 1.212746e+000 -5.039370e-001 -1.051467e+000
         vertex 1.202874e+000 -5.039370e-001 -1.053160e+000
         vertex 1.214862e+000 -5.039370e-001 -1.120468e+000
      endloop
   endfacet
   facet normal 0.000000e+000 -1.000000e+000 0.000000e+000
      outer loop
         vertex 1.214862e+000 -5.039370e-001 -1.120468e+000
         vertex 1.202874e+000 -5.039370e-001 -1.053160e+000
         vertex 1.197866e+000 -5.039370e-001 -1.053373e+000
      endloop
   endfacet
   facet normal 0.000000e+000 -1.000000e+000 0.000000e+000
      outer loop
         vertex 1.214862e+000 -5.039370e-001 -1.120468e+000
         vertex 1.197866e+000 -5.039370e-001 -1.053373e+000
         vertex 1.192857e+000 -5.039370e-001 -1.053160e+000
      endloop
   endfacet
   facet normal 0.000000e+000 -1.000000e+000 0.000000e+000
      outer loop
         vertex 1.147578e+000 -5.039370e-001 -9.633547e-001
         vertex 1.153534e+000 -5.039370e-001 -9.553016e-001
         vertex 1.080118e+000 -5.039370e-001 -9.459617e-001
      endloop
   endfacet
   facet normal 0.000000e+000 -1.000000e+000 0.000000e+000
      outer loop
         vertex 1.080118e+000 -5.039370e-001 -9.459617e-001
         vertex 1.153534e+000 -5.039370e-001 -9.553016e-001
         vertex 1.160766e+000 -5.039370e-001 -9.483708e-001
      endloop
   endfacet
   facet normal 0.000000e+000 -1.000000e+000 0.000000e+000
      outer loop
         vertex 1.080118e+000 -5.039370e-001 -9.459617e-001
         vertex 1.160766e+000 -5.039370e-001 -9.483708e-001
         vertex 1.180870e+000 -5.039370e-001 -8.681677e-001
      endloop
   endfacet
   facet normal 0.000000e+000 -1.000000e+000 0.000000e+000
      outer loop
         vertex 1.180870e+000 -5.039370e-001 -8.681677e-001
         vertex 1.160766e+000 -5.039370e-001 -9.483708e-001
         vertex 1.169065e+000 -5.039370e-001 -9.427618e-001
      endloop
   endfacet
   facet normal 0.000000e+000 -1.000000e+000 0.000000e+000
      outer loop
         vertex 1.180870e+000 -5.039370e-001 -8.681677e-001
         vertex 1.169065e+000 -5.039370e-001 -9.427618e-001
         vertex 1.178192e+000 -5.039370e-001 -9.386360e-001
      endloop
   endfacet
   facet normal 0.000000e+000 -1.000000e+000 0.000000e+000
      outer loop
         vertex 1.226666e+000 -5.039370e-001 -9.427618e-001
         vertex 1.234965e+000 -5.039370e-001 -9.483708e-001
         vertex 1.298617e+000 -5.039370e-001 -9.165239e-001
      endloop
   endfacet
   facet normal 0.000000e+000 -1.000000e+000 0.000000e+000
      outer loop
         vertex 1.298617e+000 -5.039370e-001 -9.165239e-001
         vertex 1.234965e+000 -5.039370e-001 -9.483708e-001
         vertex 1.242197e+000 -5.039370e-001 -9.553016e-001
      endloop
   endfacet
   facet normal 0.000000e+000 -1.000000e+000 0.000000e+000
      outer loop
         vertex 1.298617e+000 -5.039370e-001 -9.165239e-001
         vertex 1.242197e+000 -5.039370e-001 -9.553016e-001
         vertex 1.248153e+000 -5.039370e-001 -9.633547e-001
      endloop
   endfacet
   facet normal 0.000000e+000 -1.000000e+000 0.000000e+000
      outer loop
         vertex 1.230935e+000 -5.039370e-001 -1.043245e+000
         vertex 1.214862e+000 -5.039370e-001 -1.120468e+000
         vertex 1.238728e+000 -5.039370e-001 -1.036953e+000
      endloop
   endfacet
   facet normal 0.000000e+000 -1.000000e+000 0.000000e+000
      outer loop
         vertex 1.238728e+000 -5.039370e-001 -1.036953e+000
         vertex 1.214862e+000 -5.039370e-001 -1.120468e+000
         vertex 1.315613e+000 -5.039370e-001 -1.042674e+000
      endloop
   endfacet
   facet normal 0.000000e+000 -1.000000e+000 0.000000e+000
      outer loop
         vertex 1.238728e+000 -5.039370e-001 -1.036953e+000
         vertex 1.315613e+000 -5.039370e-001 -1.042674e+000
         vertex 1.245346e+000 -5.039370e-001 -1.029434e+000
      endloop
   endfacet
   facet normal 0.000000e+000 -1.000000e+000 0.000000e+000
      outer loop
         vertex 1.256442e+000 -5.039370e-001 -1.001819e+000
         vertex 1.254332e+000 -5.039370e-001 -1.011610e+000
         vertex 1.315613e+000 -5.039370e-001 -1.042674e+000
      endloop
   endfacet
   facet normal 0.000000e+000 -1.000000e+000 0.000000e+000
      outer loop
         vertex 1.315613e+000 -5.039370e-001 -1.042674e+000
         vertex 1.254332e+000 -5.039370e-001 -1.011610e+000
         vertex 1.250597e+000 -5.039370e-001 -1.020905e+000
      endloop
   endfacet
   facet normal 0.000000e+000 -1.000000e+000 0.000000e+000
      outer loop
         vertex 1.315613e+000 -5.039370e-001 -1.042674e+000
         vertex 1.250597e+000 -5.039370e-001 -1.020905e+000
         vertex 1.245346e+000 -5.039370e-001 -1.029434e+000
      endloop
   endfacet
   facet normal 0.000000e+000 -1.000000e+000 0.000000e+000
      outer loop
         vertex 1.248153e+000 -5.039370e-001 -9.633547e-001
         vertex 1.252662e+000 -5.039370e-001 -9.722986e-001
         vertex 1.298617e+000 -5.039370e-001 -9.165239e-001
      endloop
   endfacet
   facet normal 0.000000e+000 -1.000000e+000 0.000000e+000
      outer loop
         vertex 1.298617e+000 -5.039370e-001 -9.165239e-001
         vertex 1.252662e+000 -5.039370e-001 -9.722986e-001
         vertex 1.255595e+000 -5.039370e-001 -9.818761e-001
      endloop
   endfacet
   facet normal 0.000000e+000 -1.000000e+000 0.000000e+000
      outer loop
         vertex 1.298617e+000 -5.039370e-001 -9.165239e-001
         vertex 1.255595e+000 -5.039370e-001 -9.818761e-001
         vertex 1.315613e+000 -5.039370e-001 -1.042674e+000
      endloop
   endfacet
   facet normal 0.000000e+000 -1.000000e+000 0.000000e+000
      outer loop
         vertex 1.315613e+000 -5.039370e-001 -1.042674e+000
         vertex 1.255595e+000 -5.039370e-001 -9.818761e-001
         vertex 1.256868e+000 -5.039370e-001 -9.918114e-001
      endloop
   endfacet
   facet normal 0.000000e+000 -1.000000e+000 0.000000e+000
      outer loop
         vertex 1.315613e+000 -5.039370e-001 -1.042674e+000
         vertex 1.256868e+000 -5.039370e-001 -9.918114e-001
         vertex 1.256442e+000 -5.039370e-001 -1.001819e+000
      endloop
   endfacet
   facet normal -9.910460e-001 0.000000e+000 -1.335215e-001
      outer loop
         vertex 1.080118e+000 6.829620e-017 -9.459617e-001
         vertex 1.097114e+000 6.829620e-017 -1.072112e+000
         vertex 1.080118e+000 -5.039370e-001 -9.459617e-001
      endloop
   endfacet
   facet normal -9.910460e-001 0.000000e+000 -1.335215e-001
      outer loop
         vertex 1.080118e+000 -5.039370e-001 -9.459617e-001
         vertex 1.097114e+000 6.829620e-017 -1.072112e+000
         vertex 1.097114e+000 -5.039370e-001 -1.072112e+000
      endloop
   endfacet
   facet normal -6.111559e-001 0.000000e+000 7.915103e-001
      outer loop
         vertex 1.180870e+000 6.829620e-017 -8.681677e-001
         vertex 1.080118e+000 6.829620e-017 -9.459617e-001
         vertex 1.180870e+000 -5.039370e-001 -8.681677e-001
      endloop
   endfacet
   facet normal -6.111559e-001 0.000000e+000 7.915103e-001
      outer loop
         vertex 1.180870e+000 -5.039370e-001 -8.681677e-001
         vertex 1.080118e+000 6.829620e-017 -9.459617e-001
         vertex 1.080118e+000 -5.039370e-001 -9.459617e-001
      endloop
   endfacet
   facet normal 3.798900e-001 0.000000e+000 9.250317e-001
      outer loop
         vertex 1.298617e+000 6.829620e-017 -9.165239e-001
         vertex 1.180870e+000 6.829620e-017 -8.681677e-001
         vertex 1.298617e+000 -5.039370e-001 -9.165239e-001
      endloop
   endfacet
   facet normal 3.798900e-001 0.000000e+000 9.250317e-001
      outer loop
         vertex 1.298617e+000 -5.039370e-001 -9.165239e-001
         vertex 1.180870e+000 6.829620e-017 -8.681677e-001
         vertex 1.180870e+000 -5.039370e-001 -8.681677e-001
      endloop
   endfacet
   facet normal 9.910460e-001 0.000000e+000 1.335215e-001
      outer loop
         vertex 1.315613e+000 6.829620e-017 -1.042674e+000
         vertex 1.298617e+000 6.829620e-017 -9.165239e-001
         vertex 1.315613e+000 -5.039370e-001 -1.042674e+000
      endloop
   endfacet
   facet normal 9.910460e-001 0.000000e+000 1.335215e-001
      outer loop
         vertex 1.315613e+000 -5.039370e-001 -1.042674e+000
         vertex 1.298617e+000 6.829620e-017 -9.165239e-001
         vertex 1.298617e+000 -5.039370e-001 -9.165239e-001
      endloop
   endfacet
   facet normal 6.111559e-001 0.000000e+000 -7.915103e-001
      outer loop
         vertex 1.214862e+000 6.829620e-017 -1.120468e+000
         vertex 1.315613e+000 6.829620e-017 -1.042674e+000
         vertex 1.214862e+000 -5.039370e-001 -1.120468e+000
      endloop
   endfacet
   facet normal 6.111559e-001 0.000000e+000 -7.915103e-001
      outer loop
         vertex 1.214862e+000 -5.039370e-001 -1.120468e+000
         vertex 1.315613e+000 6.829620e-017 -1.042674e+000
         vertex 1.315613e+000 -5.039370e-001 -1.042674e+000
      endloop
   endfacet
   facet normal -3.798900e-001 0.000000e+000 -9.250317e-001
      outer loop
         vertex 1.097114e+000 6.829620e-017 -1.072112e+000
         vertex 1.214862e+000 6.829620e-017 -1.120468e+000
         vertex 1.097114e+000 -5.039370e-001 -1.072112e+000
      endloop
   endfacet
   facet normal -3.798900e-001 0.000000e+000 -9.250317e-001
      outer loop
         vertex 1.097114e+000 -5.039370e-001 -1.072112e+000
         vertex 1.214862e+000 6.829620e-017 -1.120468e+000
         vertex 1.214862e+000 -5.039370e-001 -1.120468e+000
      endloop
   endfacet
   facet normal -2.829130e-002 0.000000e+000 9.995998e-001
      outer loop
         vertex 1.202874e+000 6.829620e-017 -1.053160e+000
         vertex 1.197866e+000 6.829620e-017 -1.053373e+000
         vertex 1.197866e+000 -5.039370e-001 -1.053373e+000
      endloop
   endfacet
   facet normal 2.829130e-002 0.000000e+000 9.995998e-001
      outer loop
         vertex 1.197866e+000 -5.039370e-001 -1.053373e+000
         vertex 1.197866e+000 6.829620e-017 -1.053373e+000
         vertex 1.192857e+000 -5.039370e-001 -1.053160e+000
      endloop
   endfacet
   facet normal -5.658260e-002 0.000000e+000 9.983979e-001
      outer loop
         vertex 1.197866e+000 -5.039370e-001 -1.053373e+000
         vertex 1.202874e+000 -5.039370e-001 -1.053160e+000
         vertex 1.202874e+000 6.829620e-017 -1.053160e+000
      endloop
   endfacet
   facet normal -1.409813e-001 0.000000e+000 9.900123e-001
      outer loop
         vertex 1.202874e+000 6.829620e-017 -1.053160e+000
         vertex 1.202874e+000 -5.039370e-001 -1.053160e+000
         vertex 1.212746e+000 -5.039370e-001 -1.051467e+000
      endloop
   endfacet
   facet normal -1.968844e-001 0.000000e+000 9.804267e-001
      outer loop
         vertex 1.202874e+000 6.829620e-017 -1.053160e+000
         vertex 1.212746e+000 -5.039370e-001 -1.051467e+000
         vertex 1.212746e+000 6.829620e-017 -1.051467e+000
      endloop
   endfacet
   facet normal -3.062663e-001 0.000000e+000 9.519458e-001
      outer loop
         vertex 1.212746e+000 6.829620e-017 -1.051467e+000
         vertex 1.212746e+000 -5.039370e-001 -1.051467e+000
         vertex 1.222190e+000 -5.039370e-001 -1.048131e+000
      endloop
   endfacet
   facet normal -3.597453e-001 0.000000e+000 9.330506e-001
      outer loop
         vertex 1.212746e+000 6.829620e-017 -1.051467e+000
         vertex 1.222190e+000 -5.039370e-001 -1.048131e+000
         vertex 1.222190e+000 6.829620e-017 -1.048131e+000
      endloop
   endfacet
   facet normal -4.627406e-001 0.000000e+000 8.864937e-001
      outer loop
         vertex 1.222190e+000 6.829620e-017 -1.048131e+000
         vertex 1.222190e+000 -5.039370e-001 -1.048131e+000
         vertex 1.230935e+000 -5.039370e-001 -1.043245e+000
      endloop
   endfacet
   facet normal -5.122570e-001 0.000000e+000 8.588322e-001
      outer loop
         vertex 1.222190e+000 6.829620e-017 -1.048131e+000
         vertex 1.230935e+000 -5.039370e-001 -1.043245e+000
         vertex 1.230935e+000 6.829620e-017 -1.043245e+000
      endloop
   endfacet
   facet normal -6.059027e-001 0.000000e+000 7.955388e-001
      outer loop
         vertex 1.230935e+000 6.829620e-017 -1.043245e+000
         vertex 1.230935e+000 -5.039370e-001 -1.043245e+000
         vertex 1.238728e+000 -5.039370e-001 -1.036953e+000
      endloop
   endfacet
   facet normal -6.500320e-001 0.000000e+000 7.599069e-001
      outer loop
         vertex 1.230935e+000 6.829620e-017 -1.043245e+000
         vertex 1.238728e+000 -5.039370e-001 -1.036953e+000
         vertex 1.238728e+000 6.829620e-017 -1.036953e+000
      endloop
   endfacet
   facet normal -7.316340e-001 0.000000e+000 6.816977e-001
      outer loop
         vertex 1.238728e+000 6.829620e-017 -1.036953e+000
         vertex 1.238728e+000 -5.039370e-001 -1.036953e+000
         vertex 1.245346e+000 -5.039370e-001 -1.029434e+000
      endloop
   endfacet
   facet normal -7.691067e-001 0.000000e+000 6.391203e-001
      outer loop
         vertex 1.238728e+000 6.829620e-017 -1.036953e+000
         vertex 1.245346e+000 -5.039370e-001 -1.029434e+000
         vertex 1.245346e+000 6.829620e-017 -1.029434e+000
      endloop
   endfacet
   facet normal -8.363176e-001 0.000000e+000 5.482453e-001
      outer loop
         vertex 1.245346e+000 6.829620e-017 -1.029434e+000
         vertex 1.245346e+000 -5.039370e-001 -1.029434e+000
         vertex 1.250597e+000 -5.039370e-001 -1.020905e+000
      endloop
   endfacet
   facet normal -8.660557e-001 0.000000e+000 4.999475e-001
      outer loop
         vertex 1.245346e+000 6.829620e-017 -1.029434e+000
         vertex 1.250597e+000 -5.039370e-001 -1.020905e+000
         vertex 1.250597e+000 6.829620e-017 -1.020905e+000
      endloop
   endfacet
   facet normal -9.169418e-001 0.000000e+000 3.990209e-001
      outer loop
         vertex 1.250597e+000 6.829620e-017 -1.020905e+000
         vertex 1.250597e+000 -5.039370e-001 -1.020905e+000
         vertex 1.254332e+000 -5.039370e-001 -1.011610e+000
      endloop
   endfacet
   facet normal -9.380898e-001 0.000000e+000 3.463921e-001
      outer loop
         vertex 1.250597e+000 6.829620e-017 -1.020905e+000
         vertex 1.254332e+000 -5.039370e-001 -1.011610e+000
         vertex 1.254332e+000 6.829620e-017 -1.011610e+000
      endloop
   endfacet
   facet normal -9.711873e-001 0.000000e+000 2.383175e-001
      outer loop
         vertex 1.254332e+000 6.829620e-017 -1.011610e+000
         vertex 1.254332e+000 -5.039370e-001 -1.011610e+000
         vertex 1.256442e+000 -5.039370e-001 -1.001819e+000
      endloop
   endfacet
   facet normal -9.831368e-001 0.000000e+000 1.828716e-001
      outer loop
         vertex 1.254332e+000 6.829620e-017 -1.011610e+000
         vertex 1.256442e+000 -5.039370e-001 -1.001819e+000
         vertex 1.256442e+000 6.829620e-017 -1.001819e+000
      endloop
   endfacet
   facet normal -9.974935e-001 0.000000e+000 7.075802e-002
      outer loop
         vertex 1.256442e+000 6.829620e-017 -1.001819e+000
         vertex 1.256442e+000 -5.039370e-001 -1.001819e+000
         vertex 1.256868e+000 -5.039370e-001 -9.918114e-001
      endloop
   endfacet
   facet normal -9.999007e-001 0.000000e+000 1.409025e-002
      outer loop
         vertex 1.256442e+000 6.829620e-017 -1.001819e+000
         vertex 1.256868e+000 -5.039370e-001 -9.918114e-001
         vertex 1.256868e+000 6.829620e-017 -9.918114e-001
      endloop
   endfacet
   facet normal -9.951036e-001 0.000000e+000 -9.883699e-002
      outer loop
         vertex 1.256868e+000 6.829620e-017 -9.918114e-001
         vertex 1.256868e+000 -5.039370e-001 -9.918114e-001
         vertex 1.255595e+000 -5.039370e-001 -9.818761e-001
      endloop
   endfacet
   facet normal -9.878993e-001 0.000000e+000 -1.550965e-001
      outer loop
         vertex 1.256868e+000 6.829620e-017 -9.918114e-001
         vertex 1.255595e+000 -5.039370e-001 -9.818761e-001
         vertex 1.255595e+000 6.829620e-017 -9.818761e-001
      endloop
   endfacet
   facet normal -9.640865e-001 0.000000e+000 -2.655886e-001
      outer loop
         vertex 1.255595e+000 6.829620e-017 -9.818761e-001
         vertex 1.255595e+000 -5.039370e-001 -9.818761e-001
         vertex 1.252662e+000 -5.039370e-001 -9.722986e-001
      endloop
   endfacet
   facet normal -9.474779e-001 0.000000e+000 -3.198213e-001
      outer loop
         vertex 1.255595e+000 6.829620e-017 -9.818761e-001
         vertex 1.252662e+000 -5.039370e-001 -9.722986e-001
         vertex 1.252662e+000 6.829620e-017 -9.722986e-001
      endloop
   endfacet
   facet normal -9.053342e-001 0.000000e+000 -4.246998e-001
      outer loop
         vertex 1.252662e+000 6.829620e-017 -9.722986e-001
         vertex 1.252662e+000 -5.039370e-001 -9.722986e-001
         vertex 1.248153e+000 -5.039370e-001 -9.633547e-001
      endloop
   endfacet
   facet normal -8.797992e-001 0.000000e+000 -4.753455e-001
      outer loop
         vertex 1.252662e+000 6.829620e-017 -9.722986e-001
         vertex 1.248153e+000 -5.039370e-001 -9.633547e-001
         vertex 1.248153e+000 6.829620e-017 -9.633547e-001
      endloop
   endfacet
   facet normal -8.205372e-001 0.000000e+000 -5.715931e-001
      outer loop
         vertex 1.248153e+000 6.829620e-017 -9.633547e-001
         vertex 1.248153e+000 -5.039370e-001 -9.633547e-001
         vertex 1.242197e+000 -5.039370e-001 -9.553016e-001
      endloop
   endfacet
   facet normal -7.868103e-001 0.000000e+000 -6.171949e-001
      outer loop
         vertex 1.248153e+000 6.829620e-017 -9.633547e-001
         vertex 1.242197e+000 -5.039370e-001 -9.553016e-001
         vertex 1.242197e+000 6.829620e-017 -9.553016e-001
      endloop
   endfacet
   facet normal -7.121348e-001 0.000000e+000 -7.020428e-001
      outer loop
         vertex 1.242197e+000 6.829620e-017 -9.553016e-001
         vertex 1.242197e+000 -5.039370e-001 -9.553016e-001
         vertex 1.234965e+000 -5.039370e-001 -9.483708e-001
      endloop
   endfacet
   facet normal -6.711863e-001 0.000000e+000 -7.412888e-001
      outer loop
         vertex 1.242197e+000 6.829620e-017 -9.553016e-001
         vertex 1.234965e+000 -5.039370e-001 -9.483708e-001
         vertex 1.234965e+000 6.829620e-017 -9.483708e-001
      endloop
   endfacet
   facet normal -5.832456e-001 0.000000e+000 -8.122959e-001
      outer loop
         vertex 1.234965e+000 6.829620e-017 -9.483708e-001
         vertex 1.234965e+000 -5.039370e-001 -9.483708e-001
         vertex 1.226666e+000 -5.039370e-001 -9.427618e-001
      endloop
   endfacet
   facet normal -5.362535e-001 0.000000e+000 -8.440570e-001
      outer loop
         vertex 1.234965e+000 6.829620e-017 -9.483708e-001
         vertex 1.226666e+000 -5.039370e-001 -9.427618e-001
         vertex 1.226666e+000 6.829620e-017 -9.427618e-001
      endloop
   endfacet
   facet normal -4.375775e-001 0.000000e+000 -8.991807e-001
      outer loop
         vertex 1.226666e+000 6.829620e-017 -9.427618e-001
         vertex 1.226666e+000 -5.039370e-001 -9.427618e-001
         vertex 1.217539e+000 -5.039370e-001 -9.386360e-001
      endloop
   endfacet
   facet normal -3.858936e-001 0.000000e+000 -9.225433e-001
      outer loop
         vertex 1.226666e+000 6.829620e-017 -9.427618e-001
         vertex 1.217539e+000 -5.039370e-001 -9.386360e-001
         vertex 1.217539e+000 6.829620e-017 -9.386360e-001
      endloop
   endfacet
   facet normal -2.793211e-001 0.000000e+000 -9.601977e-001
      outer loop
         vertex 1.217539e+000 6.829620e-017 -9.386360e-001
         vertex 1.217539e+000 -5.039370e-001 -9.386360e-001
         vertex 1.207846e+000 -5.039370e-001 -9.361120e-001
      endloop
   endfacet
   facet normal -2.244324e-001 0.000000e+000 -9.744897e-001
      outer loop
         vertex 1.217539e+000 6.829620e-017 -9.386360e-001
         vertex 1.207846e+000 -5.039370e-001 -9.361120e-001
         vertex 1.207846e+000 6.829620e-017 -9.361120e-001
      endloop
   endfacet
   facet normal -1.130291e-001 0.000000e+000 -9.935917e-001
      outer loop
         vertex 1.207846e+000 6.829620e-017 -9.361120e-001
         vertex 1.207846e+000 -5.039370e-001 -9.361120e-001
         vertex 1.197866e+000 -5.039370e-001 -9.352627e-001
      endloop
   endfacet
   facet normal -5.651454e-002 0.000000e+000 -9.984018e-001
      outer loop
         vertex 1.207846e+000 6.829620e-017 -9.361120e-001
         vertex 1.197866e+000 -5.039370e-001 -9.352627e-001
         vertex 1.197866e+000 6.829620e-017 -9.352627e-001
      endloop
   endfacet
   facet normal 5.651454e-002 0.000000e+000 -9.984018e-001
      outer loop
         vertex 1.197866e+000 6.829620e-017 -9.352627e-001
         vertex 1.197866e+000 -5.039370e-001 -9.352627e-001
         vertex 1.187885e+000 -5.039370e-001 -9.361120e-001
      endloop
   endfacet
   facet normal 1.130291e-001 0.000000e+000 -9.935917e-001
      outer loop
         vertex 1.197866e+000 6.829620e-017 -9.352627e-001
         vertex 1.187885e+000 -5.039370e-001 -9.361120e-001
         vertex 1.187885e+000 6.829620e-017 -9.361120e-001
      endloop
   endfacet
   facet normal 2.244324e-001 0.000000e+000 -9.744897e-001
      outer loop
         vertex 1.187885e+000 6.829620e-017 -9.361120e-001
         vertex 1.187885e+000 -5.039370e-001 -9.361120e-001
         vertex 1.178192e+000 -5.039370e-001 -9.386360e-001
      endloop
   endfacet
   facet normal 2.793211e-001 0.000000e+000 -9.601977e-001
      outer loop
         vertex 1.187885e+000 6.829620e-017 -9.361120e-001
         vertex 1.178192e+000 -5.039370e-001 -9.386360e-001
         vertex 1.178192e+000 6.829620e-017 -9.386360e-001
      endloop
   endfacet
   facet normal 3.858936e-001 0.000000e+000 -9.225433e-001
      outer loop
         vertex 1.178192e+000 6.829620e-017 -9.386360e-001
         vertex 1.178192e+000 -5.039370e-001 -9.386360e-001
         vertex 1.169065e+000 -5.039370e-001 -9.427618e-001
      endloop
   endfacet
   facet normal 4.375775e-001 0.000000e+000 -8.991807e-001
      outer loop
         vertex 1.178192e+000 6.829620e-017 -9.386360e-001
         vertex 1.169065e+000 -5.039370e-001 -9.427618e-001
         vertex 1.169065e+000 6.829620e-017 -9.427618e-001
      endloop
   endfacet
   facet normal 5.362535e-001 0.000000e+000 -8.440570e-001
      outer loop
         vertex 1.169065e+000 6.829620e-017 -9.427618e-001
         vertex 1.169065e+000 -5.039370e-001 -9.427618e-001
         vertex 1.160766e+000 -5.039370e-001 -9.483708e-001
      endloop
   endfacet
   facet normal 5.832456e-001 0.000000e+000 -8.122959e-001
      outer loop
         vertex 1.169065e+000 6.829620e-017 -9.427618e-001
         vertex 1.160766e+000 -5.039370e-001 -9.483708e-001
         vertex 1.160766e+000 6.829620e-017 -9.483708e-001
      endloop
   endfacet
   facet normal 6.711863e-001 0.000000e+000 -7.412888e-001
      outer loop
         vertex 1.160766e+000 6.829620e-017 -9.483708e-001
         vertex 1.160766e+000 -5.039370e-001 -9.483708e-001
         vertex 1.153534e+000 -5.039370e-001 -9.553016e-001
      endloop
   endfacet
   facet normal 7.121348e-001 0.000000e+000 -7.020428e-001
      outer loop
         vertex 1.160766e+000 6.829620e-017 -9.483708e-001
         vertex 1.153534e+000 -5.039370e-001 -9.553016e-001
         vertex 1.153534e+000 6.829620e-017 -9.553016e-001
      endloop
   endfacet
   facet normal 7.868103e-001 0.000000e+000 -6.171949e-001
      outer loop
         vertex 1.153534e+000 6.829620e-017 -9.553016e-001
         vertex 1.153534e+000 -5.039370e-001 -9.553016e-001
         vertex 1.147578e+000 -5.039370e-001 -9.633547e-001
      endloop
   endfacet
   facet normal 8.205372e-001 0.000000e+000 -5.715931e-001
      outer loop
         vertex 1.153534e+000 6.829620e-017 -9.553016e-001
         vertex 1.147578e+000 -5.039370e-001 -9.633547e-001
         vertex 1.147578e+000 6.829620e-017 -9.633547e-001
      endloop
   endfacet
   facet normal 8.797992e-001 0.000000e+000 -4.753455e-001
      outer loop
         vertex 1.147578e+000 6.829620e-017 -9.633547e-001
         vertex 1.147578e+000 -5.039370e-001 -9.633547e-001
         vertex 1.143069e+000 -5.039370e-001 -9.722986e-001
      endloop
   endfacet
   facet normal 9.053342e-001 0.000000e+000 -4.246998e-001
      outer loop
         vertex 1.147578e+000 6.829620e-017 -9.633547e-001
         vertex 1.143069e+000 -5.039370e-001 -9.722986e-001
         vertex 1.143069e+000 6.829620e-017 -9.722986e-001
      endloop
   endfacet
   facet normal 9.474779e-001 0.000000e+000 -3.198213e-001
      outer loop
         vertex 1.143069e+000 6.829620e-017 -9.722986e-001
         vertex 1.143069e+000 -5.039370e-001 -9.722986e-001
         vertex 1.140136e+000 -5.039370e-001 -9.818761e-001
      endloop
   endfacet
   facet normal 9.640865e-001 0.000000e+000 -2.655886e-001
      outer loop
         vertex 1.143069e+000 6.829620e-017 -9.722986e-001
         vertex 1.140136e+000 -5.039370e-001 -9.818761e-001
         vertex 1.140136e+000 6.829620e-017 -9.818761e-001
      endloop
   endfacet
   facet normal 9.878993e-001 0.000000e+000 -1.550965e-001
      outer loop
         vertex 1.140136e+000 6.829620e-017 -9.818761e-001
         vertex 1.140136e+000 -5.039370e-001 -9.818761e-001
         vertex 1.138864e+000 -5.039370e-001 -9.918114e-001
      endloop
   endfacet
   facet normal 9.951036e-001 0.000000e+000 -9.883699e-002
      outer loop
         vertex 1.140136e+000 6.829620e-017 -9.818761e-001
         vertex 1.138864e+000 -5.039370e-001 -9.918114e-001
         vertex 1.138864e+000 6.829620e-017 -9.918114e-001
      endloop
   endfacet
   facet normal 9.999007e-001 0.000000e+000 1.409025e-002
      outer loop
         vertex 1.138864e+000 6.829620e-017 -9.918114e-001
         vertex 1.138864e+000 -5.039370e-001 -9.918114e-001
         vertex 1.139289e+000 -5.039370e-001 -1.001819e+000
      endloop
   endfacet
   facet normal 9.974935e-001 0.000000e+000 7.075802e-002
      outer loop
         vertex 1.138864e+000 6.829620e-017 -9.918114e-001
         vertex 1.139289e+000 -5.039370e-001 -1.001819e+000
         vertex 1.139289e+000 6.829620e-017 -1.001819e+000
      endloop
   endfacet
   facet normal 9.831368e-001 0.000000e+000 1.828716e-001
      outer loop
         vertex 1.139289e+000 6.829620e-017 -1.001819e+000
         vertex 1.139289e+000 -5.039370e-001 -1.001819e+000
         vertex 1.141399e+000 -5.039370e-001 -1.011610e+000
      endloop
   endfacet
   facet normal 9.711873e-001 0.000000e+000 2.383175e-001
      outer loop
         vertex 1.139289e+000 6.829620e-017 -1.001819e+000
         vertex 1.141399e+000 -5.039370e-001 -1.011610e+000
         vertex 1.141399e+000 6.829620e-017 -1.011610e+000
      endloop
   endfacet
   facet normal 9.380898e-001 0.000000e+000 3.463921e-001
      outer loop
         vertex 1.141399e+000 6.829620e-017 -1.011610e+000
         vertex 1.141399e+000 -5.039370e-001 -1.011610e+000
         vertex 1.145134e+000 -5.039370e-001 -1.020905e+000
      endloop
   endfacet
   facet normal 9.169418e-001 0.000000e+000 3.990209e-001
      outer loop
         vertex 1.141399e+000 6.829620e-017 -1.011610e+000
         vertex 1.145134e+000 -5.039370e-001 -1.020905e+000
         vertex 1.145134e+000 6.829620e-017 -1.020905e+000
      endloop
   endfacet
   facet normal 8.660557e-001 0.000000e+000 4.999475e-001
      outer loop
         vertex 1.145134e+000 6.829620e-017 -1.020905e+000
         vertex 1.145134e+000 -5.039370e-001 -1.020905e+000
         vertex 1.150385e+000 -5.039370e-001 -1.029434e+000
      endloop
   endfacet
   facet normal 8.363176e-001 0.000000e+000 5.482453e-001
      outer loop
         vertex 1.145134e+000 6.829620e-017 -1.020905e+000
         vertex 1.150385e+000 -5.039370e-001 -1.029434e+000
         vertex 1.150385e+000 6.829620e-017 -1.029434e+000
      endloop
   endfacet
   facet normal 7.691067e-001 0.000000e+000 6.391203e-001
      outer loop
         vertex 1.150385e+000 6.829620e-017 -1.029434e+000
         vertex 1.150385e+000 -5.039370e-001 -1.029434e+000
         vertex 1.157003e+000 -5.039370e-001 -1.036953e+000
      endloop
   endfacet
   facet normal 7.316340e-001 0.000000e+000 6.816977e-001
      outer loop
         vertex 1.150385e+000 6.829620e-017 -1.029434e+000
         vertex 1.157003e+000 -5.039370e-001 -1.036953e+000
         vertex 1.157003e+000 6.829620e-017 -1.036953e+000
      endloop
   endfacet
   facet normal 6.500320e-001 0.000000e+000 7.599069e-001
      outer loop
         vertex 1.157003e+000 6.829620e-017 -1.036953e+000
         vertex 1.157003e+000 -5.039370e-001 -1.036953e+000
         vertex 1.164796e+000 -5.039370e-001 -1.043245e+000
      endloop
   endfacet
   facet normal 6.059027e-001 0.000000e+000 7.955388e-001
      outer loop
         vertex 1.157003e+000 6.829620e-017 -1.036953e+000
         vertex 1.164796e+000 -5.039370e-001 -1.043245e+000
         vertex 1.164796e+000 6.829620e-017 -1.043245e+000
      endloop
   endfacet
   facet normal 5.122570e-001 0.000000e+000 8.588322e-001
      outer loop
         vertex 1.164796e+000 6.829620e-017 -1.043245e+000
         vertex 1.164796e+000 -5.039370e-001 -1.043245e+000
         vertex 1.173541e+000 -5.039370e-001 -1.048131e+000
      endloop
   endfacet
   facet normal 4.627406e-001 0.000000e+000 8.864937e-001
      outer loop
         vertex 1.164796e+000 6.829620e-017 -1.043245e+000
         vertex 1.173541e+000 -5.039370e-001 -1.048131e+000
         vertex 1.173541e+000 6.829620e-017 -1.048131e+000
      endloop
   endfacet
   facet normal 3.597453e-001 0.000000e+000 9.330506e-001
      outer loop
         vertex 1.173541e+000 6.829620e-017 -1.048131e+000
         vertex 1.173541e+000 -5.039370e-001 -1.048131e+000
         vertex 1.182985e+000 -5.039370e-001 -1.051467e+000
      endloop
   endfacet
   facet normal 3.062663e-001 0.000000e+000 9.519458e-001
      outer loop
         vertex 1.173541e+000 6.829620e-017 -1.048131e+000
         vertex 1.182985e+000 -5.039370e-001 -1.051467e+000
         vertex 1.182985e+000 6.829620e-017 -1.051467e+000
      endloop
   endfacet
   facet normal 1.968844e-001 0.000000e+000 9.804267e-001
      outer loop
         vertex 1.182985e+000 6.829620e-017 -1.051467e+000
         vertex 1.182985e+000 -5.039370e-001 -1.051467e+000
         vertex 1.192857e+000 -5.039370e-001 -1.053160e+000
      endloop
   endfacet
   facet normal 1.409813e-001 0.000000e+000 9.900123e-001
      outer loop
         vertex 1.182985e+000 6.829620e-017 -1.051467e+000
         vertex 1.192857e+000 -5.039370e-001 -1.053160e+000
         vertex 1.192857e+000 6.829620e-017 -1.053160e+000
      endloop
   endfacet
   facet normal 5.658260e-002 0.000000e+000 9.983979e-001
      outer loop
         vertex 1.192857e+000 6.829620e-017 -1.053160e+000
         vertex 1.192857e+000 -5.039370e-001 -1.053160e+000
         vertex 1.197866e+000 6.829620e-017 -1.053373e+000
      endloop
   endfacet
endsolid