solid Body44_Default_sldprt
   facet normal 0.000000e+000 1.000000e+000 0.000000e+000
      outer loop
         vertex 4.748014e-002 6.829620e-017 1.625680e+000
         vertex 4.086253e-002 6.829620e-017 1.633199e+000
         vertex 1.007512e-001 6.829620e-017 1.668358e+000
      endloop
   endfacet
   facet normal 0.000000e+000 1.000000e+000 0.000000e+000
      outer loop
         vertex 5.008224e-003 6.829620e-017 1.649407e+000
         vertex 2.169650e-017 6.829620e-017 1.649619e+000
         vertex -1.699592e-002 6.829620e-017 1.716714e+000
      endloop
   endfacet
   facet normal 0.000000e+000 1.000000e+000 0.000000e+000
      outer loop
         vertex -1.699592e-002 6.829620e-017 1.716714e+000
         vertex 2.169650e-017 6.829620e-017 1.649619e+000
         vertex -5.008224e-003 6.829620e-017 1.649407e+000
      endloop
   endfacet
   facet normal 0.000000e+000 1.000000e+000 0.000000e+000
      outer loop
         vertex -1.699592e-002 6.829620e-017 1.716714e+000
         vertex -5.008224e-003 6.829620e-017 1.649407e+000
         vertex -1.488059e-002 6.829620e-017 1.647714e+000
      endloop
   endfacet
   facet normal 0.000000e+000 1.000000e+000 0.000000e+000
      outer loop
         vertex -9.980364e-003 6.829620e-017 1.532359e+000
         vertex 0.000000e+000 6.829620e-017 1.531509e+000
         vertex 1.699592e-002 6.829620e-017 1.464414e+000
      endloop
   endfacet
   facet normal 0.000000e+000 1.000000e+000 0.000000e+000
      outer loop
         vertex 1.699592e-002 6.829620e-017 1.464414e+000
         vertex 0.000000e+000 6.829620e-017 1.531509e+000
         vertex 9.980364e-003 6.829620e-017 1.532359e+000
      endloop
   endfacet
   facet normal 0.000000e+000 1.000000e+000 0.000000e+000
      outer loop
         vertex 4.748014e-002 6.829620e-017 1.625680e+000
         vertex 1.007512e-001 6.829620e-017 1.668358e+000
         vertex 5.273184e-002 6.829620e-017 1.617151e+000
      endloop
   endfacet
   facet normal 0.000000e+000 1.000000e+000 0.000000e+000
      outer loop
         vertex 4.086253e-002 6.829620e-017 1.633199e+000
         vertex 3.306938e-002 6.829620e-017 1.639492e+000
         vertex 1.007512e-001 6.829620e-017 1.668358e+000
      endloop
   endfacet
   facet normal 0.000000e+000 1.000000e+000 0.000000e+000
      outer loop
         vertex 1.007512e-001 6.829620e-017 1.668358e+000
         vertex 3.306938e-002 6.829620e-017 1.639492e+000
         vertex 2.432488e-002 6.829620e-017 1.644377e+000
      endloop
   endfacet
   facet normal 0.000000e+000 1.000000e+000 0.000000e+000
      outer loop
         vertex 1.007512e-001 6.829620e-017 1.668358e+000
         vertex 2.432488e-002 6.829620e-017 1.644377e+000
         vertex -1.699592e-002 6.829620e-017 1.716714e+000
      endloop
   endfacet
   facet normal 0.000000e+000 1.000000e+000 0.000000e+000
      outer loop
         vertex -1.699592e-002 6.829620e-017 1.716714e+000
         vertex 2.432488e-002 6.829620e-017 1.644377e+000
         vertex 1.488059e-002 6.829620e-017 1.647714e+000
      endloop
   endfacet
   facet normal 0.000000e+000 1.000000e+000 0.000000e+000
      outer loop
         vertex -1.699592e-002 6.829620e-017 1.716714e+000
         vertex 1.488059e-002 6.829620e-017 1.647714e+000
         vertex 5.008224e-003 6.829620e-017 1.649407e+000
      endloop
   endfacet
   facet normal 0.000000e+000 1.000000e+000 0.000000e+000
      outer loop
         vertex -4.086253e-002 6.829620e-017 1.633199e+000
         vertex -1.177471e-001 6.829620e-017 1.638920e+000
         vertex -3.306938e-002 6.829620e-017 1.639492e+000
      endloop
   endfacet
   facet normal 0.000000e+000 1.000000e+000 0.000000e+000
      outer loop
         vertex -3.306938e-002 6.829620e-017 1.639492e+000
         vertex -1.177471e-001 6.829620e-017 1.638920e+000
         vertex -1.699592e-002 6.829620e-017 1.716714e+000
      endloop
   endfacet
   facet normal 0.000000e+000 1.000000e+000 0.000000e+000
      outer loop
         vertex -3.306938e-002 6.829620e-017 1.639492e+000
         vertex -1.699592e-002 6.829620e-017 1.716714e+000
         vertex -2.432488e-002 6.829620e-017 1.644377e+000
      endloop
   endfacet
   facet normal 0.000000e+000 1.000000e+000 0.000000e+000
      outer loop
         vertex -2.432488e-002 6.829620e-017 1.644377e+000
         vertex -1.699592e-002 6.829620e-017 1.716714e+000
         vertex -1.488059e-002 6.829620e-017 1.647714e+000
      endloop
   endfacet
   facet normal 0.000000e+000 1.000000e+000 0.000000e+000
      outer loop
         vertex -4.433104e-002 6.829620e-017 1.551548e+000
         vertex -1.007512e-001 6.829620e-017 1.512770e+000
         vertex -5.028715e-002 6.829620e-017 1.559601e+000
      endloop
   endfacet
   facet normal 0.000000e+000 1.000000e+000 0.000000e+000
      outer loop
         vertex -5.028715e-002 6.829620e-017 1.559601e+000
         vertex -1.007512e-001 6.829620e-017 1.512770e+000
         vertex -5.479660e-002 6.829620e-017 1.568545e+000
      endloop
   endfacet
   facet normal 0.000000e+000 1.000000e+000 0.000000e+000
      outer loop
         vertex -4.433104e-002 6.829620e-017 1.551548e+000
         vertex -3.709961e-002 6.829620e-017 1.544617e+000
         vertex -1.007512e-001 6.829620e-017 1.512770e+000
      endloop
   endfacet
   facet normal 0.000000e+000 1.000000e+000 0.000000e+000
      outer loop
         vertex -1.007512e-001 6.829620e-017 1.512770e+000
         vertex -3.709961e-002 6.829620e-017 1.544617e+000
         vertex -2.880088e-002 6.829620e-017 1.539008e+000
      endloop
   endfacet
   facet normal 0.000000e+000 1.000000e+000 0.000000e+000
      outer loop
         vertex -1.007512e-001 6.829620e-017 1.512770e+000
         vertex -2.880088e-002 6.829620e-017 1.539008e+000
         vertex 1.699592e-002 6.829620e-017 1.464414e+000
      endloop
   endfacet
   facet normal 0.000000e+000 1.000000e+000 0.000000e+000
      outer loop
         vertex 1.699592e-002 6.829620e-017 1.464414e+000
         vertex -2.880088e-002 6.829620e-017 1.539008e+000
         vertex -1.967361e-002 6.829620e-017 1.534882e+000
      endloop
   endfacet
   facet normal 0.000000e+000 1.000000e+000 0.000000e+000
      outer loop
         vertex 1.699592e-002 6.829620e-017 1.464414e+000
         vertex -1.967361e-002 6.829620e-017 1.534882e+000
         vertex -9.980364e-003 6.829620e-017 1.532359e+000
      endloop
   endfacet
   facet normal 0.000000e+000 1.000000e+000 0.000000e+000
      outer loop
         vertex 4.433104e-002 6.829620e-017 1.551548e+000
         vertex 5.028715e-002 6.829620e-017 1.559601e+000
         vertex 1.177471e-001 6.829620e-017 1.542208e+000
      endloop
   endfacet
   facet normal 0.000000e+000 1.000000e+000 0.000000e+000
      outer loop
         vertex 1.177471e-001 6.829620e-017 1.542208e+000
         vertex 5.028715e-002 6.829620e-017 1.559601e+000
         vertex 5.479660e-002 6.829620e-017 1.568545e+000
      endloop
   endfacet
   facet normal 0.000000e+000 1.000000e+000 0.000000e+000
      outer loop
         vertex 1.177471e-001 6.829620e-017 1.542208e+000
         vertex 5.479660e-002 6.829620e-017 1.568545e+000
         vertex 5.772964e-002 6.829620e-017 1.578122e+000
      endloop
   endfacet
   facet normal 0.000000e+000 1.000000e+000 0.000000e+000
      outer loop
         vertex -4.086253e-002 6.829620e-017 1.633199e+000
         vertex -4.748014e-002 6.829620e-017 1.625680e+000
         vertex -1.177471e-001 6.829620e-017 1.638920e+000
      endloop
   endfacet
   facet normal 0.000000e+000 1.000000e+000 0.000000e+000
      outer loop
         vertex -1.177471e-001 6.829620e-017 1.638920e+000
         vertex -4.748014e-002 6.829620e-017 1.625680e+000
         vertex -5.273184e-002 6.829620e-017 1.617151e+000
      endloop
   endfacet
   facet normal 0.000000e+000 1.000000e+000 0.000000e+000
      outer loop
         vertex -1.177471e-001 6.829620e-017 1.638920e+000
         vertex -5.273184e-002 6.829620e-017 1.617151e+000
         vertex -5.646654e-002 6.829620e-017 1.607857e+000
      endloop
   endfacet
   facet normal 0.000000e+000 1.000000e+000 0.000000e+000
      outer loop
         vertex -5.646654e-002 6.829620e-017 1.607857e+000
         vertex -5.857680e-002 6.829620e-017 1.598065e+000
         vertex -1.177471e-001 6.829620e-017 1.638920e+000
      endloop
   endfacet
   facet normal 0.000000e+000 1.000000e+000 0.000000e+000
      outer loop
         vertex -1.177471e-001 6.829620e-017 1.638920e+000
         vertex -5.857680e-002 6.829620e-017 1.598065e+000
         vertex -5.900191e-002 6.829620e-017 1.588058e+000
      endloop
   endfacet
   facet normal 0.000000e+000 1.000000e+000 0.000000e+000
      outer loop
         vertex -1.177471e-001 6.829620e-017 1.638920e+000
         vertex -5.900191e-002 6.829620e-017 1.588058e+000
         vertex -1.007512e-001 6.829620e-017 1.512770e+000
      endloop
   endfacet
   facet normal 0.000000e+000 1.000000e+000 0.000000e+000
      outer loop
         vertex -1.007512e-001 6.829620e-017 1.512770e+000
         vertex -5.900191e-002 6.829620e-017 1.588058e+000
         vertex -5.772964e-002 6.829620e-017 1.578122e+000
      endloop
   endfacet
   facet normal 0.000000e+000 1.000000e+000 0.000000e+000
      outer loop
         vertex -1.007512e-001 6.829620e-017 1.512770e+000
         vertex -5.772964e-002 6.829620e-017 1.578122e+000
         vertex -5.479660e-002 6.829620e-017 1.568545e+000
      endloop
   endfacet
   facet normal 0.000000e+000 1.000000e+000 0.000000e+000
      outer loop
         vertex 9.980364e-003 6.829620e-017 1.532359e+000
         vertex 1.967361e-002 6.829620e-017 1.534882e+000
         vertex 1.699592e-002 6.829620e-017 1.464414e+000
      endloop
   endfacet
   facet normal 0.000000e+000 1.000000e+000 0.000000e+000
      outer loop
         vertex 1.699592e-002 6.829620e-017 1.464414e+000
         vertex 1.967361e-002 6.829620e-017 1.534882e+000
         vertex 2.880088e-002 6.829620e-017 1.539008e+000
      endloop
   endfacet
   facet normal 0.000000e+000 1.000000e+000 0.000000e+000
      outer loop
         vertex 1.699592e-002 6.829620e-017 1.464414e+000
         vertex 2.880088e-002 6.829620e-017 1.539008e+000
         vertex 1.177471e-001 6.829620e-017 1.542208e+000
      endloop
   endfacet
   facet normal 0.000000e+000 1.000000e+000 0.000000e+000
      outer loop
         vertex 1.177471e-001 6.829620e-017 1.542208e+000
         vertex 2.880088e-002 6.829620e-017 1.539008e+000
         vertex 3.709961e-002 6.829620e-017 1.544617e+000
      endloop
   endfacet
   facet normal 0.000000e+000 1.000000e+000 0.000000e+000
      outer loop
         vertex 1.177471e-001 6.829620e-017 1.542208e+000
         vertex 3.709961e-002 6.829620e-017 1.544617e+000
         vertex 4.433104e-002 6.829620e-017 1.551548e+000
      endloop
   endfacet
   facet normal 0.000000e+000 1.000000e+000 0.000000e+000
      outer loop
         vertex 5.772964e-002 6.829620e-017 1.578122e+000
         vertex 5.900191e-002 6.829620e-017 1.588058e+000
         vertex 1.177471e-001 6.829620e-017 1.542208e+000
      endloop
   endfacet
   facet normal 0.000000e+000 1.000000e+000 0.000000e+000
      outer loop
         vertex 1.177471e-001 6.829620e-017 1.542208e+000
         vertex 5.900191e-002 6.829620e-017 1.588058e+000
         vertex 5.857680e-002 6.829620e-017 1.598065e+000
      endloop
   endfacet
   facet normal 0.000000e+000 1.000000e+000 0.000000e+000
      outer loop
         vertex 1.177471e-001 6.829620e-017 1.542208e+000
         vertex 5.857680e-002 6.829620e-017 1.598065e+000
         vertex 1.007512e-001 6.829620e-017 1.668358e+000
      endloop
   endfacet
   facet normal 0.000000e+000 1.000000e+000 0.000000e+000
      outer loop
         vertex 1.007512e-001 6.829620e-017 1.668358e+000
         vertex 5.857680e-002 6.829620e-017 1.598065e+000
         vertex 5.646654e-002 6.829620e-017 1.607857e+000
      endloop
   endfacet
   facet normal 0.000000e+000 1.000000e+000 0.000000e+000
      outer loop
         vertex 1.007512e-001 6.829620e-017 1.668358e+000
         vertex 5.646654e-002 6.829620e-017 1.607857e+000
         vertex 5.273184e-002 6.829620e-017 1.617151e+000
      endloop
   endfacet
   facet normal 0.000000e+000 -1.000000e+000 0.000000e+000
      outer loop
         vertex 9.980364e-003 -5.039370e-001 1.532359e+000
         vertex 0.000000e+000 -5.039370e-001 1.531509e+000
         vertex 1.699592e-002 -5.039370e-001 1.464414e+000
      endloop
   endfacet
   facet normal 0.000000e+000 -1.000000e+000 0.000000e+000
      outer loop
         vertex 9.980364e-003 -5.039370e-001 1.532359e+000
         vertex 1.699592e-002 -5.039370e-001 1.464414e+000
         vertex 1.967361e-002 -5.039370e-001 1.534882e+000
      endloop
   endfacet
   facet normal 0.000000e+000 -1.000000e+000 0.000000e+000
      outer loop
         vertex 3.306938e-002 -5.039370e-001 1.639492e+000
         vertex 4.086253e-002 -5.039370e-001 1.633199e+000
         vertex 1.007512e-001 -5.039370e-001 1.668358e+000
      endloop
   endfacet
   facet normal 0.000000e+000 -1.000000e+000 0.000000e+000
      outer loop
         vertex 1.007512e-001 -5.039370e-001 1.668358e+000
         vertex 4.086253e-002 -5.039370e-001 1.633199e+000
         vertex 4.748014e-002 -5.039370e-001 1.625680e+000
      endloop
   endfacet
   facet normal 0.000000e+000 -1.000000e+000 0.000000e+000
      outer loop
         vertex -2.880088e-002 -5.039370e-001 1.539008e+000
         vertex -1.007512e-001 -5.039370e-001 1.512770e+000
         vertex -1.967361e-002 -5.039370e-001 1.534882e+000
      endloop
   endfacet
   facet normal 0.000000e+000 -1.000000e+000 0.000000e+000
      outer loop
         vertex -1.967361e-002 -5.039370e-001 1.534882e+000
         vertex -1.007512e-001 -5.039370e-001 1.512770e+000
         vertex 1.699592e-002 -5.039370e-001 1.464414e+000
      endloop
   endfacet
   facet normal 0.000000e+000 -1.000000e+000 0.000000e+000
      outer loop
         vertex -1.967361e-002 -5.039370e-001 1.534882e+000
         vertex 1.699592e-002 -5.039370e-001 1.464414e+000
         vertex -9.980364e-003 -5.039370e-001 1.532359e+000
      endloop
   endfacet
   facet normal 0.000000e+000 -1.000000e+000 0.000000e+000
      outer loop
         vertex -9.980364e-003 -5.039370e-001 1.532359e+000
         vertex 1.699592e-002 -5.039370e-001 1.464414e+000
         vertex 0.000000e+000 -5.039370e-001 1.531509e+000
      endloop
   endfacet
   facet normal 0.000000e+000 -1.000000e+000 0.000000e+000
      outer loop
         vertex -2.880088e-002 -5.039370e-001 1.539008e+000
         vertex -3.709961e-002 -5.039370e-001 1.544617e+000
         vertex -1.007512e-001 -5.039370e-001 1.512770e+000
      endloop
   endfacet
   facet normal 0.000000e+000 -1.000000e+000 0.000000e+000
      outer loop
         vertex -1.007512e-001 -5.039370e-001 1.512770e+000
         vertex -3.709961e-002 -5.039370e-001 1.544617e+000
         vertex -4.433104e-002 -5.039370e-001 1.551548e+000
      endloop
   endfacet
   facet normal 0.000000e+000 -1.000000e+000 0.000000e+000
      outer loop
         vertex -1.007512e-001 -5.039370e-001 1.512770e+000
         vertex -4.433104e-002 -5.039370e-001 1.551548e+000
         vertex -5.028715e-002 -5.039370e-001 1.559601e+000
      endloop
   endfacet
   facet normal 0.000000e+000 -1.000000e+000 0.000000e+000
      outer loop
         vertex -1.177471e-001 -5.039370e-001 1.638920e+000
         vertex -4.086253e-002 -5.039370e-001 1.633199e+000
         vertex -1.699592e-002 -5.039370e-001 1.716714e+000
      endloop
   endfacet
   facet normal 0.000000e+000 -1.000000e+000 0.000000e+000
      outer loop
         vertex -1.699592e-002 -5.039370e-001 1.716714e+000
         vertex -4.086253e-002 -5.039370e-001 1.633199e+000
         vertex -3.306938e-002 -5.039370e-001 1.639492e+000
      endloop
   endfacet
   facet normal 0.000000e+000 -1.000000e+000 0.000000e+000
      outer loop
         vertex -3.306938e-002 -5.039370e-001 1.639492e+000
         vertex -2.432488e-002 -5.039370e-001 1.644377e+000
         vertex -1.699592e-002 -5.039370e-001 1.716714e+000
      endloop
   endfacet
   facet normal 0.000000e+000 -1.000000e+000 0.000000e+000
      outer loop
         vertex -1.699592e-002 -5.039370e-001 1.716714e+000
         vertex -2.432488e-002 -5.039370e-001 1.644377e+000
         vertex -1.488059e-002 -5.039370e-001 1.647714e+000
      endloop
   endfacet
   facet normal 0.000000e+000 -1.000000e+000 0.000000e+000
      outer loop
         vertex -1.699592e-002 -5.039370e-001 1.716714e+000
         vertex -1.488059e-002 -5.039370e-001 1.647714e+000
         vertex -5.008224e-003 -5.039370e-001 1.649407e+000
      endloop
   endfacet
   facet normal 0.000000e+000 -1.000000e+000 0.000000e+000
      outer loop
         vertex -1.699592e-002 -5.039370e-001 1.716714e+000
         vertex 1.488059e-002 -5.039370e-001 1.647714e+000
         vertex 1.007512e-001 -5.039370e-001 1.668358e+000
      endloop
   endfacet
   facet normal 0.000000e+000 -1.000000e+000 0.000000e+000
      outer loop
         vertex 1.007512e-001 -5.039370e-001 1.668358e+000
         vertex 1.488059e-002 -5.039370e-001 1.647714e+000
         vertex 2.432488e-002 -5.039370e-001 1.644377e+000
      endloop
   endfacet
   facet normal 0.000000e+000 -1.000000e+000 0.000000e+000
      outer loop
         vertex 1.007512e-001 -5.039370e-001 1.668358e+000
         vertex 2.432488e-002 -5.039370e-001 1.644377e+000
         vertex 3.306938e-002 -5.039370e-001 1.639492e+000
      endloop
   endfacet
   facet normal 0.000000e+000 -1.000000e+000 0.000000e+000
      outer loop
         vertex -1.177471e-001 -5.039370e-001 1.638920e+000
         vertex -5.857680e-002 -5.039370e-001 1.598065e+000
         vertex -5.646654e-002 -5.039370e-001 1.607857e+000
      endloop
   endfacet
   facet normal 0.000000e+000 -1.000000e+000 0.000000e+000
      outer loop
         vertex -5.008224e-003 -5.039370e-001 1.649407e+000
         vertex 7.232166e-018 -5.039370e-001 1.649619e+000
         vertex -1.699592e-002 -5.039370e-001 1.716714e+000
      endloop
   endfacet
   facet normal 0.000000e+000 -1.000000e+000 0.000000e+000
      outer loop
         vertex -1.699592e-002 -5.039370e-001 1.716714e+000
         vertex 7.232166e-018 -5.039370e-001 1.649619e+000
         vertex 5.008224e-003 -5.039370e-001 1.649407e+000
      endloop
   endfacet
   facet normal 0.000000e+000 -1.000000e+000 0.000000e+000
      outer loop
         vertex -1.699592e-002 -5.039370e-001 1.716714e+000
         vertex 5.008224e-003 -5.039370e-001 1.649407e+000
         vertex 1.488059e-002 -5.039370e-001 1.647714e+000
      endloop
   endfacet
   facet normal 0.000000e+000 -1.000000e+000 0.000000e+000
      outer loop
         vertex 4.748014e-002 -5.039370e-001 1.625680e+000
         vertex 5.273184e-002 -5.039370e-001 1.617151e+000
         vertex 1.007512e-001 -5.039370e-001 1.668358e+000
      endloop
   endfacet
   facet normal 0.000000e+000 -1.000000e+000 0.000000e+000
      outer loop
         vertex 1.007512e-001 -5.039370e-001 1.668358e+000
         vertex 5.273184e-002 -5.039370e-001 1.617151e+000
         vertex 5.646654e-002 -5.039370e-001 1.607857e+000
      endloop
   endfacet
   facet normal 0.000000e+000 -1.000000e+000 0.000000e+000
      outer loop
         vertex 1.007512e-001 -5.039370e-001 1.668358e+000
         vertex 5.646654e-002 -5.039370e-001 1.607857e+000
         vertex 1.177471e-001 -5.039370e-001 1.542208e+000
      endloop
   endfacet
   facet normal 0.000000e+000 -1.000000e+000 0.000000e+000
      outer loop
         vertex 1.177471e-001 -5.039370e-001 1.542208e+000
         vertex 5.646654e-002 -5.039370e-001 1.607857e+000
         vertex 5.857680e-002 -5.039370e-001 1.598065e+000
      endloop
   endfacet
   facet normal 0.000000e+000 -1.000000e+000 0.000000e+000
      outer loop
         vertex 1.177471e-001 -5.039370e-001 1.542208e+000
         vertex 5.857680e-002 -5.039370e-001 1.598065e+000
         vertex 5.900191e-002 -5.039370e-001 1.588058e+000
      endloop
   endfacet
   facet normal 0.000000e+000 -1.000000e+000 0.000000e+000
      outer loop
         vertex -5.028715e-002 -5.039370e-001 1.559601e+000
         vertex -5.479660e-002 -5.039370e-001 1.568545e+000
         vertex -1.007512e-001 -5.039370e-001 1.512770e+000
      endloop
   endfacet
   facet normal 0.000000e+000 -1.000000e+000 0.000000e+000
      outer loop
         vertex -1.007512e-001 -5.039370e-001 1.512770e+000
         vertex -5.479660e-002 -5.039370e-001 1.568545e+000
         vertex -5.772964e-002 -5.039370e-001 1.578122e+000
      endloop
   endfacet
   facet normal 0.000000e+000 -1.000000e+000 0.000000e+000
      outer loop
         vertex -1.007512e-001 -5.039370e-001 1.512770e+000
         vertex -5.772964e-002 -5.039370e-001 1.578122e+000
         vertex -1.177471e-001 -5.039370e-001 1.638920e+000
      endloop
   endfacet
   facet normal 0.000000e+000 -1.000000e+000 0.000000e+000
      outer loop
         vertex -1.177471e-001 -5.039370e-001 1.638920e+000
         vertex -5.772964e-002 -5.039370e-001 1.578122e+000
         vertex -5.900191e-002 -5.039370e-001 1.588058e+000
      endloop
   endfacet
   facet normal 0.000000e+000 -1.000000e+000 0.000000e+000
      outer loop
         vertex -1.177471e-001 -5.039370e-001 1.638920e+000
         vertex -5.900191e-002 -5.039370e-001 1.588058e+000
         vertex -5.857680e-002 -5.039370e-001 1.598065e+000
      endloop
   endfacet
   facet normal 0.000000e+000 -1.000000e+000 0.000000e+000
      outer loop
         vertex -5.646654e-002 -5.039370e-001 1.607857e+000
         vertex -5.273184e-002 -5.039370e-001 1.617151e+000
         vertex -1.177471e-001 -5.039370e-001 1.638920e+000
      endloop
   endfacet
   facet normal 0.000000e+000 -1.000000e+000 0.000000e+000
      outer loop
         vertex -1.177471e-001 -5.039370e-001 1.638920e+000
         vertex -5.273184e-002 -5.039370e-001 1.617151e+000
         vertex -4.748014e-002 -5.039370e-001 1.625680e+000
      endloop
   endfacet
   facet normal 0.000000e+000 -1.000000e+000 0.000000e+000
      outer loop
         vertex -1.177471e-001 -5.039370e-001 1.638920e+000
         vertex -4.748014e-002 -5.039370e-001 1.625680e+000
         vertex -4.086253e-002 -5.039370e-001 1.633199e+000
      endloop
   endfacet
   facet normal 0.000000e+000 -1.000000e+000 0.000000e+000
      outer loop
         vertex 5.900191e-002 -5.039370e-001 1.588058e+000
         vertex 5.772964e-002 -5.039370e-001 1.578122e+000
         vertex 1.177471e-001 -5.039370e-001 1.542208e+000
      endloop
   endfacet
   facet normal 0.000000e+000 -1.000000e+000 0.000000e+000
      outer loop
         vertex 1.177471e-001 -5.039370e-001 1.542208e+000
         vertex 5.772964e-002 -5.039370e-001 1.578122e+000
         vertex 5.479660e-002 -5.039370e-001 1.568545e+000
      endloop
   endfacet
   facet normal 0.000000e+000 -1.000000e+000 0.000000e+000
      outer loop
         vertex 1.177471e-001 -5.039370e-001 1.542208e+000
         vertex 5.479660e-002 -5.039370e-001 1.568545e+000
         vertex 5.028715e-002 -5.039370e-001 1.559601e+000
      endloop
   endfacet
   facet normal 0.000000e+000 -1.000000e+000 0.000000e+000
      outer loop
         vertex 5.028715e-002 -5.039370e-001 1.559601e+000
         vertex 4.433104e-002 -5.039370e-001 1.551548e+000
         vertex 1.177471e-001 -5.039370e-001 1.542208e+000
      endloop
   endfacet
   facet normal 0.000000e+000 -1.000000e+000 0.000000e+000
      outer loop
         vertex 1.177471e-001 -5.039370e-001 1.542208e+000
         vertex 4.433104e-002 -5.039370e-001 1.551548e+000
         vertex 3.709961e-002 -5.039370e-001 1.544617e+000
      endloop
   endfacet
   facet normal 0.000000e+000 -1.000000e+000 0.000000e+000
      outer loop
         vertex 1.177471e-001 -5.039370e-001 1.542208e+000
         vertex 3.709961e-002 -5.039370e-001 1.544617e+000
         vertex 1.699592e-002 -5.039370e-001 1.464414e+000
      endloop
   endfacet
   facet normal 0.000000e+000 -1.000000e+000 0.000000e+000
      outer loop
         vertex 1.699592e-002 -5.039370e-001 1.464414e+000
         vertex 3.709961e-002 -5.039370e-001 1.544617e+000
         vertex 2.880088e-002 -5.039370e-001 1.539008e+000
      endloop
   endfacet
   facet normal 0.000000e+000 -1.000000e+000 0.000000e+000
      outer loop
         vertex 1.699592e-002 -5.039370e-001 1.464414e+000
         vertex 2.880088e-002 -5.039370e-001 1.539008e+000
         vertex 1.967361e-002 -5.039370e-001 1.534882e+000
      endloop
   endfacet
   facet normal 9.910460e-001 0.000000e+000 1.335215e-001
      outer loop
         vertex 1.177471e-001 6.829620e-017 1.542208e+000
         vertex 1.007512e-001 6.829620e-017 1.668358e+000
         vertex 1.177471e-001 -5.039370e-001 1.542208e+000
      endloop
   endfacet
   facet normal 9.910460e-001 0.000000e+000 1.335215e-001
      outer loop
         vertex 1.177471e-001 -5.039370e-001 1.542208e+000
         vertex 1.007512e-001 6.829620e-017 1.668358e+000
         vertex 1.007512e-001 -5.039370e-001 1.668358e+000
      endloop
   endfacet
   facet normal 6.111559e-001 0.000000e+000 -7.915103e-001
      outer loop
         vertex 1.699592e-002 6.829620e-017 1.464414e+000
         vertex 1.177471e-001 6.829620e-017 1.542208e+000
         vertex 1.699592e-002 -5.039370e-001 1.464414e+000
      endloop
   endfacet
   facet normal 6.111559e-001 0.000000e+000 -7.915103e-001
      outer loop
         vertex 1.699592e-002 -5.039370e-001 1.464414e+000
         vertex 1.177471e-001 6.829620e-017 1.542208e+000
         vertex 1.177471e-001 -5.039370e-001 1.542208e+000
      endloop
   endfacet
   facet normal -3.798900e-001 0.000000e+000 -9.250317e-001
      outer loop
         vertex -1.007512e-001 6.829620e-017 1.512770e+000
         vertex 1.699592e-002 6.829620e-017 1.464414e+000
         vertex -1.007512e-001 -5.039370e-001 1.512770e+000
      endloop
   endfacet
   facet normal -3.798900e-001 0.000000e+000 -9.250317e-001
      outer loop
         vertex -1.007512e-001 -5.039370e-001 1.512770e+000
         vertex 1.699592e-002 6.829620e-017 1.464414e+000
         vertex 1.699592e-002 -5.039370e-001 1.464414e+000
      endloop
   endfacet
   facet normal -9.910460e-001 0.000000e+000 -1.335215e-001
      outer loop
         vertex -1.177471e-001 6.829620e-017 1.638920e+000
         vertex -1.007512e-001 6.829620e-017 1.512770e+000
         vertex -1.177471e-001 -5.039370e-001 1.638920e+000
      endloop
   endfacet
   facet normal -9.910460e-001 0.000000e+000 -1.335215e-001
      outer loop
         vertex -1.177471e-001 -5.039370e-001 1.638920e+000
         vertex -1.007512e-001 6.829620e-017 1.512770e+000
         vertex -1.007512e-001 -5.039370e-001 1.512770e+000
      endloop
   endfacet
   facet normal -6.111559e-001 0.000000e+000 7.915103e-001
      outer loop
         vertex -1.699592e-002 6.829620e-017 1.716714e+000
         vertex -1.177471e-001 6.829620e-017 1.638920e+000
         vertex -1.699592e-002 -5.039370e-001 1.716714e+000
      endloop
   endfacet
   facet normal -6.111559e-001 0.000000e+000 7.915103e-001
      outer loop
         vertex -1.699592e-002 -5.039370e-001 1.716714e+000
         vertex -1.177471e-001 6.829620e-017 1.638920e+000
         vertex -1.177471e-001 -5.039370e-001 1.638920e+000
      endloop
   endfacet
   facet normal 3.798900e-001 0.000000e+000 9.250317e-001
      outer loop
         vertex 1.007512e-001 6.829620e-017 1.668358e+000
         vertex -1.699592e-002 6.829620e-017 1.716714e+000
         vertex 1.007512e-001 -5.039370e-001 1.668358e+000
      endloop
   endfacet
   facet normal 3.798900e-001 0.000000e+000 9.250317e-001
      outer loop
         vertex 1.007512e-001 -5.039370e-001 1.668358e+000
         vertex -1.699592e-002 6.829620e-017 1.716714e+000
         vertex -1.699592e-002 -5.039370e-001 1.716714e+000
      endloop
   endfacet
   facet normal 2.829130e-002 0.000000e+000 -9.995998e-001
      outer loop
         vertex -5.008224e-003 6.829620e-017 1.649407e+000
         vertex 7.232166e-018 6.829620e-017 1.649619e+000
         vertex 2.169650e-017 -5.039370e-001 1.649619e+000
      endloop
   endfacet
   facet normal -2.829130e-002 0.000000e+000 -9.995998e-001
      outer loop
         vertex 2.169650e-017 -5.039370e-001 1.649619e+000
         vertex 7.232166e-018 6.829620e-017 1.649619e+000
         vertex 5.008224e-003 -5.039370e-001 1.649407e+000
      endloop
   endfacet
   facet normal 5.658260e-002 0.000000e+000 -9.983979e-001
      outer loop
         vertex 2.169650e-017 -5.039370e-001 1.649619e+000
         vertex -5.008224e-003 -5.039370e-001 1.649407e+000
         vertex -5.008224e-003 6.829620e-017 1.649407e+000
      endloop
   endfacet
   facet normal 1.409813e-001 0.000000e+000 -9.900123e-001
      outer loop
         vertex -5.008224e-003 6.829620e-017 1.649407e+000
         vertex -5.008224e-003 -5.039370e-001 1.649407e+000
         vertex -1.488059e-002 -5.039370e-001 1.647714e+000
      endloop
   endfacet
   facet normal 1.968844e-001 0.000000e+000 -9.804267e-001
      outer loop
         vertex -5.008224e-003 6.829620e-017 1.649407e+000
         vertex -1.488059e-002 -5.039370e-001 1.647714e+000
         vertex -1.488059e-002 6.829620e-017 1.647714e+000
      endloop
   endfacet
   facet normal 3.062663e-001 0.000000e+000 -9.519458e-001
      outer loop
         vertex -1.488059e-002 6.829620e-017 1.647714e+000
         vertex -1.488059e-002 -5.039370e-001 1.647714e+000
         vertex -2.432488e-002 -5.039370e-001 1.644377e+000
      endloop
   endfacet
   facet normal 3.597453e-001 0.000000e+000 -9.330506e-001
      outer loop
         vertex -1.488059e-002 6.829620e-017 1.647714e+000
         vertex -2.432488e-002 -5.039370e-001 1.644377e+000
         vertex -2.432488e-002 6.829620e-017 1.644377e+000
      endloop
   endfacet
   facet normal 4.627406e-001 0.000000e+000 -8.864937e-001
      outer loop
         vertex -2.432488e-002 6.829620e-017 1.644377e+000
         vertex -2.432488e-002 -5.039370e-001 1.644377e+000
         vertex -3.306938e-002 -5.039370e-001 1.639492e+000
      endloop
   endfacet
   facet normal 5.122570e-001 0.000000e+000 -8.588322e-001
      outer loop
         vertex -2.432488e-002 6.829620e-017 1.644377e+000
         vertex -3.306938e-002 -5.039370e-001 1.639492e+000
         vertex -3.306938e-002 6.829620e-017 1.639492e+000
      endloop
   endfacet
   facet normal 6.059027e-001 0.000000e+000 -7.955388e-001
      outer loop
         vertex -3.306938e-002 6.829620e-017 1.639492e+000
         vertex -3.306938e-002 -5.039370e-001 1.639492e+000
         vertex -4.086253e-002 -5.039370e-001 1.633199e+000
      endloop
   endfacet
   facet normal 6.500320e-001 0.000000e+000 -7.599069e-001
      outer loop
         vertex -3.306938e-002 6.829620e-017 1.639492e+000
         vertex -4.086253e-002 -5.039370e-001 1.633199e+000
         vertex -4.086253e-002 6.829620e-017 1.633199e+000
      endloop
   endfacet
   facet normal 7.316340e-001 0.000000e+000 -6.816977e-001
      outer loop
         vertex -4.086253e-002 6.829620e-017 1.633199e+000
         vertex -4.086253e-002 -5.039370e-001 1.633199e+000
         vertex -4.748014e-002 -5.039370e-001 1.625680e+000
      endloop
   endfacet
   facet normal 7.691067e-001 0.000000e+000 -6.391203e-001
      outer loop
         vertex -4.086253e-002 6.829620e-017 1.633199e+000
         vertex -4.748014e-002 -5.039370e-001 1.625680e+000
         vertex -4.748014e-002 6.829620e-017 1.625680e+000
      endloop
   endfacet
   facet normal 8.363176e-001 0.000000e+000 -5.482453e-001
      outer loop
         vertex -4.748014e-002 6.829620e-017 1.625680e+000
         vertex -4.748014e-002 -5.039370e-001 1.625680e+000
         vertex -5.273184e-002 -5.039370e-001 1.617151e+000
      endloop
   endfacet
   facet normal 8.660557e-001 0.000000e+000 -4.999475e-001
      outer loop
         vertex -4.748014e-002 6.829620e-017 1.625680e+000
         vertex -5.273184e-002 -5.039370e-001 1.617151e+000
         vertex -5.273184e-002 6.829620e-017 1.617151e+000
      endloop
   endfacet
   facet normal 9.169418e-001 0.000000e+000 -3.990209e-001
      outer loop
         vertex -5.273184e-002 6.829620e-017 1.617151e+000
         vertex -5.273184e-002 -5.039370e-001 1.617151e+000
         vertex -5.646654e-002 -5.039370e-001 1.607857e+000
      endloop
   endfacet
   facet normal 9.380898e-001 0.000000e+000 -3.463921e-001
      outer loop
         vertex -5.273184e-002 6.829620e-017 1.617151e+000
         vertex -5.646654e-002 -5.039370e-001 1.607857e+000
         vertex -5.646654e-002 6.829620e-017 1.607857e+000
      endloop
   endfacet
   facet normal 9.711873e-001 0.000000e+000 -2.383175e-001
      outer loop
         vertex -5.646654e-002 6.829620e-017 1.607857e+000
         vertex -5.646654e-002 -5.039370e-001 1.607857e+000
         vertex -5.857680e-002 -5.039370e-001 1.598065e+000
      endloop
   endfacet
   facet normal 9.831368e-001 0.000000e+000 -1.828716e-001
      outer loop
         vertex -5.646654e-002 6.829620e-017 1.607857e+000
         vertex -5.857680e-002 -5.039370e-001 1.598065e+000
         vertex -5.857680e-002 6.829620e-017 1.598065e+000
      endloop
   endfacet
   facet normal 9.974935e-001 0.000000e+000 -7.075802e-002
      outer loop
         vertex -5.857680e-002 6.829620e-017 1.598065e+000
         vertex -5.857680e-002 -5.039370e-001 1.598065e+000
         vertex -5.900191e-002 -5.039370e-001 1.588058e+000
      endloop
   endfacet
   facet normal 9.999007e-001 0.000000e+000 -1.409025e-002
      outer loop
         vertex -5.857680e-002 6.829620e-017 1.598065e+000
         vertex -5.900191e-002 -5.039370e-001 1.588058e+000
         vertex -5.900191e-002 6.829620e-017 1.588058e+000
      endloop
   endfacet
   facet normal 9.951036e-001 0.000000e+000 9.883699e-002
      outer loop
         vertex -5.900191e-002 6.829620e-017 1.588058e+000
         vertex -5.900191e-002 -5.039370e-001 1.588058e+000
         vertex -5.772964e-002 -5.039370e-001 1.578122e+000
      endloop
   endfacet
   facet normal 9.878993e-001 0.000000e+000 1.550965e-001
      outer loop
         vertex -5.900191e-002 6.829620e-017 1.588058e+000
         vertex -5.772964e-002 -5.039370e-001 1.578122e+000
         vertex -5.772964e-002 6.829620e-017 1.578122e+000
      endloop
   endfacet
   facet normal 9.640865e-001 0.000000e+000 2.655886e-001
      outer loop
         vertex -5.772964e-002 6.829620e-017 1.578122e+000
         vertex -5.772964e-002 -5.039370e-001 1.578122e+000
         vertex -5.479660e-002 -5.039370e-001 1.568545e+000
      endloop
   endfacet
   facet normal 9.474779e-001 0.000000e+000 3.198213e-001
      outer loop
         vertex -5.772964e-002 6.829620e-017 1.578122e+000
         vertex -5.479660e-002 -5.039370e-001 1.568545e+000
         vertex -5.479660e-002 6.829620e-017 1.568545e+000
      endloop
   endfacet
   facet normal 9.053342e-001 0.000000e+000 4.246998e-001
      outer loop
         vertex -5.479660e-002 6.829620e-017 1.568545e+000
         vertex -5.479660e-002 -5.039370e-001 1.568545e+000
         vertex -5.028715e-002 -5.039370e-001 1.559601e+000
      endloop
   endfacet
   facet normal 8.797992e-001 0.000000e+000 4.753455e-001
      outer loop
         vertex -5.479660e-002 6.829620e-017 1.568545e+000
         vertex -5.028715e-002 -5.039370e-001 1.559601e+000
         vertex -5.028715e-002 6.829620e-017 1.559601e+000
      endloop
   endfacet
   facet normal 8.205372e-001 0.000000e+000 5.715931e-001
      outer loop
         vertex -5.028715e-002 6.829620e-017 1.559601e+000
         vertex -5.028715e-002 -5.039370e-001 1.559601e+000
         vertex -4.433104e-002 -5.039370e-001 1.551548e+000
      endloop
   endfacet
   facet normal 7.868103e-001 0.000000e+000 6.171949e-001
      outer loop
         vertex -5.028715e-002 6.829620e-017 1.559601e+000
         vertex -4.433104e-002 -5.039370e-001 1.551548e+000
         vertex -4.433104e-002 6.829620e-017 1.551548e+000
      endloop
   endfacet
   facet normal 7.121348e-001 0.000000e+000 7.020428e-001
      outer loop
         vertex -4.433104e-002 6.829620e-017 1.551548e+000
         vertex -4.433104e-002 -5.039370e-001 1.551548e+000
         vertex -3.709961e-002 -5.039370e-001 1.544617e+000
      endloop
   endfacet
   facet normal 6.711863e-001 0.000000e+000 7.412888e-001
      outer loop
         vertex -4.433104e-002 6.829620e-017 1.551548e+000
         vertex -3.709961e-002 -5.039370e-001 1.544617e+000
         vertex -3.709961e-002 6.829620e-017 1.544617e+000
      endloop
   endfacet
   facet normal 5.832456e-001 0.000000e+000 8.122959e-001
      outer loop
         vertex -3.709961e-002 6.829620e-017 1.544617e+000
         vertex -3.709961e-002 -5.039370e-001 1.544617e+000
         vertex -2.880088e-002 -5.039370e-001 1.539008e+000
      endloop
   endfacet
   facet normal 5.362535e-001 0.000000e+000 8.440570e-001
      outer loop
         vertex -3.709961e-002 6.829620e-017 1.544617e+000
         vertex -2.880088e-002 -5.039370e-001 1.539008e+000
         vertex -2.880088e-002 6.829620e-017 1.539008e+000
      endloop
   endfacet
   facet normal 4.375775e-001 0.000000e+000 8.991807e-001
      outer loop
         vertex -2.880088e-002 6.829620e-017 1.539008e+000
         vertex -2.880088e-002 -5.039370e-001 1.539008e+000
         vertex -1.967361e-002 -5.039370e-001 1.534882e+000
      endloop
   endfacet
   facet normal 3.858936e-001 0.000000e+000 9.225433e-001
      outer loop
         vertex -2.880088e-002 6.829620e-017 1.539008e+000
         vertex -1.967361e-002 -5.039370e-001 1.534882e+000
         vertex -1.967361e-002 6.829620e-017 1.534882e+000
      endloop
   endfacet
   facet normal 2.793211e-001 0.000000e+000 9.601977e-001
      outer loop
         vertex -1.967361e-002 6.829620e-017 1.534882e+000
         vertex -1.967361e-002 -5.039370e-001 1.534882e+000
         vertex -9.980364e-003 -5.039370e-001 1.532359e+000
      endloop
   endfacet
   facet normal 2.244324e-001 0.000000e+000 9.744897e-001
      outer loop
         vertex -1.967361e-002 6.829620e-017 1.534882e+000
         vertex -9.980364e-003 -5.039370e-001 1.532359e+000
         vertex -9.980364e-003 6.829620e-017 1.532359e+000
      endloop
   endfacet
   facet normal 1.130291e-001 0.000000e+000 9.935917e-001
      outer loop
         vertex -9.980364e-003 6.829620e-017 1.532359e+000
         vertex -9.980364e-003 -5.039370e-001 1.532359e+000
         vertex -1.446433e-017 -5.039370e-001 1.531509e+000
      endloop
   endfacet
   facet normal 5.651454e-002 0.000000e+000 9.984018e-001
      outer loop
         vertex -9.980364e-003 6.829620e-017 1.532359e+000
         vertex -1.446433e-017 -5.039370e-001 1.531509e+000
         vertex -1.446433e-017 6.829620e-017 1.531509e+000
      endloop
   endfacet
   facet normal -5.651454e-002 0.000000e+000 9.984018e-001
      outer loop
         vertex -1.446433e-017 6.829620e-017 1.531509e+000
         vertex -1.446433e-017 -5.039370e-001 1.531509e+000
         vertex 9.980364e-003 -5.039370e-001 1.532359e+000
      endloop
   endfacet
   facet normal -1.130291e-001 0.000000e+000 9.935917e-001
      outer loop
         vertex -1.446433e-017 6.829620e-017 1.531509e+000
         vertex 9.980364e-003 -5.039370e-001 1.532359e+000
         vertex 9.980364e-003 6.829620e-017 1.532359e+000
      endloop
   endfacet
   facet normal -2.244324e-001 0.000000e+000 9.744897e-001
      outer loop
         vertex 9.980364e-003 6.829620e-017 1.532359e+000
         vertex 9.980364e-003 -5.039370e-001 1.532359e+000
         vertex 1.967361e-002 -5.039370e-001 1.534882e+000
      endloop
   endfacet
   facet normal -2.793211e-001 0.000000e+000 9.601977e-001
      outer loop
         vertex 9.980364e-003 6.829620e-017 1.532359e+000
         vertex 1.967361e-002 -5.039370e-001 1.534882e+000
         vertex 1.967361e-002 6.829620e-017 1.534882e+000
      endloop
   endfacet
   facet normal -3.858936e-001 0.000000e+000 9.225433e-001
      outer loop
         vertex 1.967361e-002 6.829620e-017 1.534882e+000
         vertex 1.967361e-002 -5.039370e-001 1.534882e+000
         vertex 2.880088e-002 -5.039370e-001 1.539008e+000
      endloop
   endfacet
   facet normal -4.375775e-001 0.000000e+000 8.991807e-001
      outer loop
         vertex 1.967361e-002 6.829620e-017 1.534882e+000
         vertex 2.880088e-002 -5.039370e-001 1.539008e+000
         vertex 2.880088e-002 6.829620e-017 1.539008e+000
      endloop
   endfacet
   facet normal -5.362535e-001 0.000000e+000 8.440570e-001
      outer loop
         vertex 2.880088e-002 6.829620e-017 1.539008e+000
         vertex 2.880088e-002 -5.039370e-001 1.539008e+000
         vertex 3.709961e-002 -5.039370e-001 1.544617e+000
      endloop
   endfacet
   facet normal -5.832456e-001 0.000000e+000 8.122959e-001
      outer loop
         vertex 2.880088e-002 6.829620e-017 1.539008e+000
         vertex 3.709961e-002 -5.039370e-001 1.544617e+000
         vertex 3.709961e-002 6.829620e-017 1.544617e+000
      endloop
   endfacet
   facet normal -6.711863e-001 0.000000e+000 7.412888e-001
      outer loop
         vertex 3.709961e-002 6.829620e-017 1.544617e+000
         vertex 3.709961e-002 -5.039370e-001 1.544617e+000
         vertex 4.433104e-002 -5.039370e-001 1.551548e+000
      endloop
   endfacet
   facet normal -7.121348e-001 0.000000e+000 7.020428e-001
      outer loop
         vertex 3.709961e-002 6.829620e-017 1.544617e+000
         vertex 4.433104e-002 -5.039370e-001 1.551548e+000
         vertex 4.433104e-002 6.829620e-017 1.551548e+000
      endloop
   endfacet
   facet normal -7.868103e-001 0.000000e+000 6.171949e-001
      outer loop
         vertex 4.433104e-002 6.829620e-017 1.551548e+000
         vertex 4.433104e-002 -5.039370e-001 1.551548e+000
         vertex 5.028715e-002 -5.039370e-001 1.559601e+000
      endloop
   endfacet
   facet normal -8.205372e-001 0.000000e+000 5.715931e-001
      outer loop
         vertex 4.433104e-002 6.829620e-017 1.551548e+000
         vertex 5.028715e-002 -5.039370e-001 1.559601e+000
         vertex 5.028715e-002 6.829620e-017 1.559601e+000
      endloop
   endfacet
   facet normal -8.797992e-001 0.000000e+000 4.753455e-001
      outer loop
         vertex 5.028715e-002 6.829620e-017 1.559601e+000
         vertex 5.028715e-002 -5.039370e-001 1.559601e+000
         vertex 5.479660e-002 -5.039370e-001 1.568545e+000
      endloop
   endfacet
   facet normal -9.053342e-001 0.000000e+000 4.246998e-001
      outer loop
         vertex 5.028715e-002 6.829620e-017 1.559601e+000
         vertex 5.479660e-002 -5.039370e-001 1.568545e+000
         vertex 5.479660e-002 6.829620e-017 1.568545e+000
      endloop
   endfacet
   facet normal -9.474779e-001 0.000000e+000 3.198213e-001
      outer loop
         vertex 5.479660e-002 6.829620e-017 1.568545e+000
         vertex 5.479660e-002 -5.039370e-001 1.568545e+000
         vertex 5.772964e-002 -5.039370e-001 1.578122e+000
      endloop
   endfacet
   facet normal -9.640865e-001 0.000000e+000 2.655886e-001
      outer loop
         vertex 5.479660e-002 6.829620e-017 1.568545e+000
         vertex 5.772964e-002 -5.039370e-001 1.578122e+000
         vertex 5.772964e-002 6.829620e-017 1.578122e+000
      endloop
   endfacet
   facet normal -9.878993e-001 0.000000e+000 1.550965e-001
      outer loop
         vertex 5.772964e-002 6.829620e-017 1.578122e+000
         vertex 5.772964e-002 -5.039370e-001 1.578122e+000
         vertex 5.900191e-002 -5.039370e-001 1.588058e+000
      endloop
   endfacet
   facet normal -9.951036e-001 0.000000e+000 9.883699e-002
      outer loop
         vertex 5.772964e-002 6.829620e-017 1.578122e+000
         vertex 5.900191e-002 -5.039370e-001 1.588058e+000
         vertex 5.900191e-002 6.829620e-017 1.588058e+000
      endloop
   endfacet
   facet normal -9.999007e-001 0.000000e+000 -1.409025e-002
      outer loop
         vertex 5.900191e-002 6.829620e-017 1.588058e+000
         vertex 5.900191e-002 -5.039370e-001 1.588058e+000
         vertex 5.857680e-002 -5.039370e-001 1.598065e+000
      endloop
   endfacet
   facet normal -9.974935e-001 0.000000e+000 -7.075802e-002
      outer loop
         vertex 5.900191e-002 6.829620e-017 1.588058e+000
         vertex 5.857680e-002 -5.039370e-001 1.598065e+000
         vertex 5.857680e-002 6.829620e-017 1.598065e+000
      endloop
   endfacet
   facet normal -9.831368e-001 0.000000e+000 -1.828716e-001
      outer loop
         vertex 5.857680e-002 6.829620e-017 1.598065e+000
         vertex 5.857680e-002 -5.039370e-001 1.598065e+000
         vertex 5.646654e-002 -5.039370e-001 1.607857e+000
      endloop
   endfacet
   facet normal -9.711873e-001 0.000000e+000 -2.383175e-001
      outer loop
         vertex 5.857680e-002 6.829620e-017 1.598065e+000
         vertex 5.646654e-002 -5.039370e-001 1.607857e+000
         vertex 5.646654e-002 6.829620e-017 1.607857e+000
      endloop
   endfacet
   facet normal -9.380898e-001 0.000000e+000 -3.463921e-001
      outer loop
         vertex 5.646654e-002 6.829620e-017 1.607857e+000
         vertex 5.646654e-002 -5.039370e-001 1.607857e+000
         vertex 5.273184e-002 -5.039370e-001 1.617151e+000
      endloop
   endfacet
   facet normal -9.169418e-001 0.000000e+000 -3.990209e-001
      outer loop
         vertex 5.646654e-002 6.829620e-017 1.607857e+000
         vertex 5.273184e-002 -5.039370e-001 1.617151e+000
         vertex 5.273184e-002 6.829620e-017 1.617151e+000
      endloop
   endfacet
   facet normal -8.660557e-001 0.000000e+000 -4.999475e-001
      outer loop
         vertex 5.273184e-002 6.829620e-017 1.617151e+000
         vertex 5.273184e-002 -5.039370e-001 1.617151e+000
         vertex 4.748014e-002 -5.039370e-001 1.625680e+000
      endloop
   endfacet
   facet normal -8.363176e-001 0.000000e+000 -5.482453e-001
      outer loop
         vertex 5.273184e-002 6.829620e-017 1.617151e+000
         vertex 4.748014e-002 -5.039370e-001 1.625680e+000
         vertex 4.748014e-002 6.829620e-017 1.625680e+000
      endloop
   endfacet
   facet normal -7.691067e-001 0.000000e+000 -6.391203e-001
      outer loop
         vertex 4.748014e-002 6.829620e-017 1.625680e+000
         vertex 4.748014e-002 -5.039370e-001 1.625680e+000
         vertex 4.086253e-002 -5.039370e-001 1.633199e+000
      endloop
   endfacet
   facet normal -7.316340e-001 0.000000e+000 -6.816977e-001
      outer loop
         vertex 4.748014e-002 6.829620e-017 1.625680e+000
         vertex 4.086253e-002 -5.039370e-001 1.633199e+000
         vertex 4.086253e-002 6.829620e-017 1.633199e+000
      endloop
   endfacet
   facet normal -6.500320e-001 0.000000e+000 -7.599069e-001
      outer loop
         vertex 4.086253e-002 6.829620e-017 1.633199e+000
         vertex 4.086253e-002 -5.039370e-001 1.633199e+000
         vertex 3.306938e-002 -5.039370e-001 1.639492e+000
      endloop
   endfacet
   facet normal -6.059027e-001 0.000000e+000 -7.955388e-001
      outer loop
         vertex 4.086253e-002 6.829620e-017 1.633199e+000
         vertex 3.306938e-002 -5.039370e-001 1.639492e+000
         vertex 3.306938e-002 6.829620e-017 1.639492e+000
      endloop
   endfacet
   facet normal -5.122570e-001 0.000000e+000 -8.588322e-001
      outer loop
         vertex 3.306938e-002 6.829620e-017 1.639492e+000
         vertex 3.306938e-002 -5.039370e-001 1.639492e+000
         vertex 2.432488e-002 -5.039370e-001 1.644377e+000
      endloop
   endfacet
   facet normal -4.627406e-001 0.000000e+000 -8.864937e-001
      outer loop
         vertex 3.306938e-002 6.829620e-017 1.639492e+000
         vertex 2.432488e-002 -5.039370e-001 1.644377e+000
         vertex 2.432488e-002 6.829620e-017 1.644377e+000
      endloop
   endfacet
   facet normal -3.597453e-001 0.000000e+000 -9.330506e-001
      outer loop
         vertex 2.432488e-002 6.829620e-017 1.644377e+000
         vertex 2.432488e-002 -5.039370e-001 1.644377e+000
         vertex 1.488059e-002 -5.039370e-001 1.647714e+000
      endloop
   endfacet
   facet normal -3.062663e-001 0.000000e+000 -9.519458e-001
      outer loop
         vertex 2.432488e-002 6.829620e-017 1.644377e+000
         vertex 1.488059e-002 -5.039370e-001 1.647714e+000
         vertex 1.488059e-002 6.829620e-017 1.647714e+000
      endloop
   endfacet
   facet normal -1.968844e-001 0.000000e+000 -9.804267e-001
      outer loop
         vertex 1.488059e-002 6.829620e-017 1.647714e+000
         vertex 1.488059e-002 -5.039370e-001 1.647714e+000
         vertex 5.008224e-003 -5.039370e-001 1.649407e+000
      endloop
   endfacet
   facet normal -1.409813e-001 0.000000e+000 -9.900123e-001
      outer loop
         vertex 1.488059e-002 6.829620e-017 1.647714e+000
         vertex 5.008224e-003 -5.039370e-001 1.649407e+000
         vertex 5.008224e-003 6.829620e-017 1.649407e+000
      endloop
   endfacet
   facet normal -5.658260e-002 0.000000e+000 -9.983979e-001
      outer loop
         vertex 5.008224e-003 6.829620e-017 1.649407e+000
         vertex 5.008224e-003 -5.039370e-001 1.649407e+000
         vertex 7.232166e-018 6.829620e-017 1.649619e+000
      endloop
   endfacet
endsolid