solid Body114_Default_sldprt
   facet normal 0.000000e+000 1.000000e+000 0.000000e+000
      outer loop
         vertex -1.249009e+000 -5.826772e-001 -9.647902e-001
         vertex -1.252838e+000 -5.826772e-001 -9.727426e-001
         vertex -1.323723e+000 -5.826772e-001 -9.752734e-001
      endloop
   endfacet
   facet normal 0.000000e+000 1.000000e+000 0.000000e+000
      outer loop
         vertex -1.323723e+000 -5.826772e-001 -9.752734e-001
         vertex -1.252838e+000 -5.826772e-001 -9.727426e-001
         vertex -1.255440e+000 -5.826772e-001 -9.811768e-001
      endloop
   endfacet
   facet normal 0.000000e+000 1.000000e+000 0.000000e+000
      outer loop
         vertex -1.323723e+000 -5.826772e-001 -9.752734e-001
         vertex -1.255440e+000 -5.826772e-001 -9.811768e-001
         vertex -1.256756e+000 -5.826772e-001 -9.899046e-001
      endloop
   endfacet
   facet normal 0.000000e+000 1.000000e+000 0.000000e+000
      outer loop
         vertex -1.197866e+000 -5.826772e-001 -9.352627e-001
         vertex -1.206667e+000 -5.826772e-001 -9.359222e-001
         vertex -1.244301e+000 -5.826772e-001 -8.758001e-001
      endloop
   endfacet
   facet normal 0.000000e+000 1.000000e+000 0.000000e+000
      outer loop
         vertex -1.244301e+000 -5.826772e-001 -8.758001e-001
         vertex -1.206667e+000 -5.826772e-001 -9.359222e-001
         vertex -1.215272e+000 -5.826772e-001 -9.378863e-001
      endloop
   endfacet
   facet normal 0.000000e+000 1.000000e+000 0.000000e+000
      outer loop
         vertex -1.244301e+000 -5.826772e-001 -8.758001e-001
         vertex -1.215272e+000 -5.826772e-001 -9.378863e-001
         vertex -1.223489e+000 -5.826772e-001 -9.411109e-001
      endloop
   endfacet
   facet normal 0.000000e+000 1.000000e+000 0.000000e+000
      outer loop
         vertex -1.223489e+000 -5.826772e-001 -9.411109e-001
         vertex -1.231133e+000 -5.826772e-001 -9.455242e-001
         vertex -1.244301e+000 -5.826772e-001 -8.758001e-001
      endloop
   endfacet
   facet normal 0.000000e+000 1.000000e+000 0.000000e+000
      outer loop
         vertex -1.244301e+000 -5.826772e-001 -8.758001e-001
         vertex -1.231133e+000 -5.826772e-001 -9.455242e-001
         vertex -1.238033e+000 -5.826772e-001 -9.510273e-001
      endloop
   endfacet
   facet normal 0.000000e+000 1.000000e+000 0.000000e+000
      outer loop
         vertex -1.244301e+000 -5.826772e-001 -8.758001e-001
         vertex -1.238033e+000 -5.826772e-001 -9.510273e-001
         vertex -1.323723e+000 -5.826772e-001 -9.752734e-001
      endloop
   endfacet
   facet normal 0.000000e+000 1.000000e+000 0.000000e+000
      outer loop
         vertex -1.323723e+000 -5.826772e-001 -9.752734e-001
         vertex -1.238033e+000 -5.826772e-001 -9.510273e-001
         vertex -1.244037e+000 -5.826772e-001 -9.574975e-001
      endloop
   endfacet
   facet normal 0.000000e+000 1.000000e+000 0.000000e+000
      outer loop
         vertex -1.323723e+000 -5.826772e-001 -9.752734e-001
         vertex -1.244037e+000 -5.826772e-001 -9.574975e-001
         vertex -1.249009e+000 -5.826772e-001 -9.647902e-001
      endloop
   endfacet
   facet normal 0.000000e+000 1.000000e+000 0.000000e+000
      outer loop
         vertex -1.256756e+000 -5.826772e-001 -9.899046e-001
         vertex -1.256756e+000 -5.826772e-001 -9.987310e-001
         vertex -1.323723e+000 -5.826772e-001 -9.752734e-001
      endloop
   endfacet
   facet normal 0.000000e+000 1.000000e+000 0.000000e+000
      outer loop
         vertex -1.323723e+000 -5.826772e-001 -9.752734e-001
         vertex -1.256756e+000 -5.826772e-001 -9.987310e-001
         vertex -1.255440e+000 -5.826772e-001 -1.007459e+000
      endloop
   endfacet
   facet normal 0.000000e+000 1.000000e+000 0.000000e+000
      outer loop
         vertex -1.323723e+000 -5.826772e-001 -9.752734e-001
         vertex -1.255440e+000 -5.826772e-001 -1.007459e+000
         vertex -1.277287e+000 -5.826772e-001 -1.093791e+000
      endloop
   endfacet
   facet normal 0.000000e+000 1.000000e+000 0.000000e+000
      outer loop
         vertex -1.277287e+000 -5.826772e-001 -1.093791e+000
         vertex -1.255440e+000 -5.826772e-001 -1.007459e+000
         vertex -1.252838e+000 -5.826772e-001 -1.015893e+000
      endloop
   endfacet
   facet normal 0.000000e+000 1.000000e+000 0.000000e+000
      outer loop
         vertex -1.277287e+000 -5.826772e-001 -1.093791e+000
         vertex -1.252838e+000 -5.826772e-001 -1.015893e+000
         vertex -1.249009e+000 -5.826772e-001 -1.023845e+000
      endloop
   endfacet
   facet normal 0.000000e+000 1.000000e+000 0.000000e+000
      outer loop
         vertex -1.249009e+000 -5.826772e-001 -1.023845e+000
         vertex -1.244037e+000 -5.826772e-001 -1.031138e+000
         vertex -1.277287e+000 -5.826772e-001 -1.093791e+000
      endloop
   endfacet
   facet normal 0.000000e+000 1.000000e+000 0.000000e+000
      outer loop
         vertex -1.277287e+000 -5.826772e-001 -1.093791e+000
         vertex -1.244037e+000 -5.826772e-001 -1.031138e+000
         vertex -1.238033e+000 -5.826772e-001 -1.037608e+000
      endloop
   endfacet
   facet normal 0.000000e+000 1.000000e+000 0.000000e+000
      outer loop
         vertex -1.277287e+000 -5.826772e-001 -1.093791e+000
         vertex -1.238033e+000 -5.826772e-001 -1.037608e+000
         vertex -1.231133e+000 -5.826772e-001 -1.043111e+000
      endloop
   endfacet
   facet normal 0.000000e+000 1.000000e+000 0.000000e+000
      outer loop
         vertex -1.197866e+000 -5.826772e-001 -1.053373e+000
         vertex -1.189064e+000 -5.826772e-001 -1.052713e+000
         vertex -1.151430e+000 -5.826772e-001 -1.112835e+000
      endloop
   endfacet
   facet normal 0.000000e+000 1.000000e+000 0.000000e+000
      outer loop
         vertex -1.151430e+000 -5.826772e-001 -1.112835e+000
         vertex -1.189064e+000 -5.826772e-001 -1.052713e+000
         vertex -1.180459e+000 -5.826772e-001 -1.050749e+000
      endloop
   endfacet
   facet normal 0.000000e+000 1.000000e+000 0.000000e+000
      outer loop
         vertex -1.151430e+000 -5.826772e-001 -1.112835e+000
         vertex -1.180459e+000 -5.826772e-001 -1.050749e+000
         vertex -1.172242e+000 -5.826772e-001 -1.047525e+000
      endloop
   endfacet
   facet normal 0.000000e+000 1.000000e+000 0.000000e+000
      outer loop
         vertex -1.146722e+000 -5.826772e-001 -1.023845e+000
         vertex -1.142893e+000 -5.826772e-001 -1.015893e+000
         vertex -1.072008e+000 -5.826772e-001 -1.013362e+000
      endloop
   endfacet
   facet normal 0.000000e+000 1.000000e+000 0.000000e+000
      outer loop
         vertex -1.072008e+000 -5.826772e-001 -1.013362e+000
         vertex -1.142893e+000 -5.826772e-001 -1.015893e+000
         vertex -1.140291e+000 -5.826772e-001 -1.007459e+000
      endloop
   endfacet
   facet normal 0.000000e+000 1.000000e+000 0.000000e+000
      outer loop
         vertex -1.072008e+000 -5.826772e-001 -1.013362e+000
         vertex -1.140291e+000 -5.826772e-001 -1.007459e+000
         vertex -1.138976e+000 -5.826772e-001 -9.987310e-001
      endloop
   endfacet
   facet normal 0.000000e+000 1.000000e+000 0.000000e+000
      outer loop
         vertex -1.118444e+000 -5.826772e-001 -8.948444e-001
         vertex -1.180459e+000 -5.826772e-001 -9.378863e-001
         vertex -1.244301e+000 -5.826772e-001 -8.758001e-001
      endloop
   endfacet
   facet normal 0.000000e+000 1.000000e+000 0.000000e+000
      outer loop
         vertex -1.244301e+000 -5.826772e-001 -8.758001e-001
         vertex -1.180459e+000 -5.826772e-001 -9.378863e-001
         vertex -1.189064e+000 -5.826772e-001 -9.359222e-001
      endloop
   endfacet
   facet normal 0.000000e+000 1.000000e+000 0.000000e+000
      outer loop
         vertex -1.244301e+000 -5.826772e-001 -8.758001e-001
         vertex -1.189064e+000 -5.826772e-001 -9.359222e-001
         vertex -1.197866e+000 -5.826772e-001 -9.352627e-001
      endloop
   endfacet
   facet normal 0.000000e+000 1.000000e+000 0.000000e+000
      outer loop
         vertex -1.231133e+000 -5.826772e-001 -1.043111e+000
         vertex -1.223489e+000 -5.826772e-001 -1.047525e+000
         vertex -1.277287e+000 -5.826772e-001 -1.093791e+000
      endloop
   endfacet
   facet normal 0.000000e+000 1.000000e+000 0.000000e+000
      outer loop
         vertex -1.277287e+000 -5.826772e-001 -1.093791e+000
         vertex -1.223489e+000 -5.826772e-001 -1.047525e+000
         vertex -1.215272e+000 -5.826772e-001 -1.050749e+000
      endloop
   endfacet
   facet normal 0.000000e+000 1.000000e+000 0.000000e+000
      outer loop
         vertex -1.277287e+000 -5.826772e-001 -1.093791e+000
         vertex -1.215272e+000 -5.826772e-001 -1.050749e+000
         vertex -1.151430e+000 -5.826772e-001 -1.112835e+000
      endloop
   endfacet
   facet normal 0.000000e+000 1.000000e+000 0.000000e+000
      outer loop
         vertex -1.151430e+000 -5.826772e-001 -1.112835e+000
         vertex -1.215272e+000 -5.826772e-001 -1.050749e+000
         vertex -1.206667e+000 -5.826772e-001 -1.052713e+000
      endloop
   endfacet
   facet normal 0.000000e+000 1.000000e+000 0.000000e+000
      outer loop
         vertex -1.151430e+000 -5.826772e-001 -1.112835e+000
         vertex -1.206667e+000 -5.826772e-001 -1.052713e+000
         vertex -1.197866e+000 -5.826772e-001 -1.053373e+000
      endloop
   endfacet
   facet normal 0.000000e+000 1.000000e+000 0.000000e+000
      outer loop
         vertex -1.142893e+000 -5.826772e-001 -9.727426e-001
         vertex -1.118444e+000 -5.826772e-001 -8.948444e-001
         vertex -1.140291e+000 -5.826772e-001 -9.811768e-001
      endloop
   endfacet
   facet normal 0.000000e+000 1.000000e+000 0.000000e+000
      outer loop
         vertex -1.140291e+000 -5.826772e-001 -9.811768e-001
         vertex -1.118444e+000 -5.826772e-001 -8.948444e-001
         vertex -1.072008e+000 -5.826772e-001 -1.013362e+000
      endloop
   endfacet
   facet normal 0.000000e+000 1.000000e+000 0.000000e+000
      outer loop
         vertex -1.140291e+000 -5.826772e-001 -9.811768e-001
         vertex -1.072008e+000 -5.826772e-001 -1.013362e+000
         vertex -1.138976e+000 -5.826772e-001 -9.899046e-001
      endloop
   endfacet
   facet normal 0.000000e+000 1.000000e+000 0.000000e+000
      outer loop
         vertex -1.138976e+000 -5.826772e-001 -9.899046e-001
         vertex -1.072008e+000 -5.826772e-001 -1.013362e+000
         vertex -1.138976e+000 -5.826772e-001 -9.987310e-001
      endloop
   endfacet
   facet normal 0.000000e+000 1.000000e+000 0.000000e+000
      outer loop
         vertex -1.142893e+000 -5.826772e-001 -9.727426e-001
         vertex -1.146722e+000 -5.826772e-001 -9.647902e-001
         vertex -1.118444e+000 -5.826772e-001 -8.948444e-001
      endloop
   endfacet
   facet normal 0.000000e+000 1.000000e+000 0.000000e+000
      outer loop
         vertex -1.118444e+000 -5.826772e-001 -8.948444e-001
         vertex -1.146722e+000 -5.826772e-001 -9.647902e-001
         vertex -1.151694e+000 -5.826772e-001 -9.574975e-001
      endloop
   endfacet
   facet normal 0.000000e+000 1.000000e+000 0.000000e+000
      outer loop
         vertex -1.118444e+000 -5.826772e-001 -8.948444e-001
         vertex -1.151694e+000 -5.826772e-001 -9.574975e-001
         vertex -1.157698e+000 -5.826772e-001 -9.510273e-001
      endloop
   endfacet
   facet normal 0.000000e+000 1.000000e+000 0.000000e+000
      outer loop
         vertex -1.157698e+000 -5.826772e-001 -9.510273e-001
         vertex -1.164599e+000 -5.826772e-001 -9.455242e-001
         vertex -1.118444e+000 -5.826772e-001 -8.948444e-001
      endloop
   endfacet
   facet normal 0.000000e+000 1.000000e+000 0.000000e+000
      outer loop
         vertex -1.118444e+000 -5.826772e-001 -8.948444e-001
         vertex -1.164599e+000 -5.826772e-001 -9.455242e-001
         vertex -1.172242e+000 -5.826772e-001 -9.411109e-001
      endloop
   endfacet
   facet normal 0.000000e+000 1.000000e+000 0.000000e+000
      outer loop
         vertex -1.118444e+000 -5.826772e-001 -8.948444e-001
         vertex -1.172242e+000 -5.826772e-001 -9.411109e-001
         vertex -1.180459e+000 -5.826772e-001 -9.378863e-001
      endloop
   endfacet
   facet normal 0.000000e+000 1.000000e+000 0.000000e+000
      outer loop
         vertex -1.172242e+000 -5.826772e-001 -1.047525e+000
         vertex -1.164599e+000 -5.826772e-001 -1.043111e+000
         vertex -1.151430e+000 -5.826772e-001 -1.112835e+000
      endloop
   endfacet
   facet normal 0.000000e+000 1.000000e+000 0.000000e+000
      outer loop
         vertex -1.151430e+000 -5.826772e-001 -1.112835e+000
         vertex -1.164599e+000 -5.826772e-001 -1.043111e+000
         vertex -1.157698e+000 -5.826772e-001 -1.037608e+000
      endloop
   endfacet
   facet normal 0.000000e+000 1.000000e+000 0.000000e+000
      outer loop
         vertex -1.151430e+000 -5.826772e-001 -1.112835e+000
         vertex -1.157698e+000 -5.826772e-001 -1.037608e+000
         vertex -1.072008e+000 -5.826772e-001 -1.013362e+000
      endloop
   endfacet
   facet normal 0.000000e+000 1.000000e+000 0.000000e+000
      outer loop
         vertex -1.072008e+000 -5.826772e-001 -1.013362e+000
         vertex -1.157698e+000 -5.826772e-001 -1.037608e+000
         vertex -1.151694e+000 -5.826772e-001 -1.031138e+000
      endloop
   endfacet
   facet normal 0.000000e+000 1.000000e+000 0.000000e+000
      outer loop
         vertex -1.072008e+000 -5.826772e-001 -1.013362e+000
         vertex -1.151694e+000 -5.826772e-001 -1.031138e+000
         vertex -1.146722e+000 -5.826772e-001 -1.023845e+000
      endloop
   endfacet
   facet normal 0.000000e+000 -1.000000e+000 0.000000e+000
      outer loop
         vertex -1.256756e+000 -6.614173e-001 -9.987310e-001
         vertex -1.256756e+000 -6.614173e-001 -9.899046e-001
         vertex -1.323723e+000 -6.614173e-001 -9.752734e-001
      endloop
   endfacet
   facet normal 0.000000e+000 -1.000000e+000 0.000000e+000
      outer loop
         vertex -1.323723e+000 -6.614173e-001 -9.752734e-001
         vertex -1.256756e+000 -6.614173e-001 -9.899046e-001
         vertex -1.255440e+000 -6.614173e-001 -9.811768e-001
      endloop
   endfacet
   facet normal 0.000000e+000 -1.000000e+000 0.000000e+000
      outer loop
         vertex -1.323723e+000 -6.614173e-001 -9.752734e-001
         vertex -1.255440e+000 -6.614173e-001 -9.811768e-001
         vertex -1.252838e+000 -6.614173e-001 -9.727426e-001
      endloop
   endfacet
   facet normal 0.000000e+000 -1.000000e+000 0.000000e+000
      outer loop
         vertex -1.151430e+000 -6.614173e-001 -1.112835e+000
         vertex -1.206667e+000 -6.614173e-001 -1.052713e+000
         vertex -1.277287e+000 -6.614173e-001 -1.093791e+000
      endloop
   endfacet
   facet normal 0.000000e+000 -1.000000e+000 0.000000e+000
      outer loop
         vertex -1.277287e+000 -6.614173e-001 -1.093791e+000
         vertex -1.206667e+000 -6.614173e-001 -1.052713e+000
         vertex -1.215272e+000 -6.614173e-001 -1.050749e+000
      endloop
   endfacet
   facet normal 0.000000e+000 -1.000000e+000 0.000000e+000
      outer loop
         vertex -1.277287e+000 -6.614173e-001 -1.093791e+000
         vertex -1.215272e+000 -6.614173e-001 -1.050749e+000
         vertex -1.223489e+000 -6.614173e-001 -1.047525e+000
      endloop
   endfacet
   facet normal 0.000000e+000 -1.000000e+000 0.000000e+000
      outer loop
         vertex -1.180459e+000 -6.614173e-001 -1.050749e+000
         vertex -1.151430e+000 -6.614173e-001 -1.112835e+000
         vertex -1.172242e+000 -6.614173e-001 -1.047525e+000
      endloop
   endfacet
   facet normal 0.000000e+000 -1.000000e+000 0.000000e+000
      outer loop
         vertex -1.172242e+000 -6.614173e-001 -1.047525e+000
         vertex -1.151430e+000 -6.614173e-001 -1.112835e+000
         vertex -1.164599e+000 -6.614173e-001 -1.043111e+000
      endloop
   endfacet
   facet normal 0.000000e+000 -1.000000e+000 0.000000e+000
      outer loop
         vertex -1.180459e+000 -6.614173e-001 -1.050749e+000
         vertex -1.189064e+000 -6.614173e-001 -1.052713e+000
         vertex -1.151430e+000 -6.614173e-001 -1.112835e+000
      endloop
   endfacet
   facet normal 0.000000e+000 -1.000000e+000 0.000000e+000
      outer loop
         vertex -1.151430e+000 -6.614173e-001 -1.112835e+000
         vertex -1.189064e+000 -6.614173e-001 -1.052713e+000
         vertex -1.197866e+000 -6.614173e-001 -1.053373e+000
      endloop
   endfacet
   facet normal 0.000000e+000 -1.000000e+000 0.000000e+000
      outer loop
         vertex -1.151430e+000 -6.614173e-001 -1.112835e+000
         vertex -1.197866e+000 -6.614173e-001 -1.053373e+000
         vertex -1.206667e+000 -6.614173e-001 -1.052713e+000
      endloop
   endfacet
   facet normal 0.000000e+000 -1.000000e+000 0.000000e+000
      outer loop
         vertex -1.223489e+000 -6.614173e-001 -1.047525e+000
         vertex -1.231133e+000 -6.614173e-001 -1.043111e+000
         vertex -1.277287e+000 -6.614173e-001 -1.093791e+000
      endloop
   endfacet
   facet normal 0.000000e+000 -1.000000e+000 0.000000e+000
      outer loop
         vertex -1.277287e+000 -6.614173e-001 -1.093791e+000
         vertex -1.231133e+000 -6.614173e-001 -1.043111e+000
         vertex -1.238033e+000 -6.614173e-001 -1.037608e+000
      endloop
   endfacet
   facet normal 0.000000e+000 -1.000000e+000 0.000000e+000
      outer loop
         vertex -1.277287e+000 -6.614173e-001 -1.093791e+000
         vertex -1.238033e+000 -6.614173e-001 -1.037608e+000
         vertex -1.244037e+000 -6.614173e-001 -1.031138e+000
      endloop
   endfacet
   facet normal 0.000000e+000 -1.000000e+000 0.000000e+000
      outer loop
         vertex -1.244037e+000 -6.614173e-001 -1.031138e+000
         vertex -1.249009e+000 -6.614173e-001 -1.023845e+000
         vertex -1.277287e+000 -6.614173e-001 -1.093791e+000
      endloop
   endfacet
   facet normal 0.000000e+000 -1.000000e+000 0.000000e+000
      outer loop
         vertex -1.277287e+000 -6.614173e-001 -1.093791e+000
         vertex -1.249009e+000 -6.614173e-001 -1.023845e+000
         vertex -1.252838e+000 -6.614173e-001 -1.015893e+000
      endloop
   endfacet
   facet normal 0.000000e+000 -1.000000e+000 0.000000e+000
      outer loop
         vertex -1.277287e+000 -6.614173e-001 -1.093791e+000
         vertex -1.252838e+000 -6.614173e-001 -1.015893e+000
         vertex -1.323723e+000 -6.614173e-001 -9.752734e-001
      endloop
   endfacet
   facet normal 0.000000e+000 -1.000000e+000 0.000000e+000
      outer loop
         vertex -1.323723e+000 -6.614173e-001 -9.752734e-001
         vertex -1.252838e+000 -6.614173e-001 -1.015893e+000
         vertex -1.255440e+000 -6.614173e-001 -1.007459e+000
      endloop
   endfacet
   facet normal 0.000000e+000 -1.000000e+000 0.000000e+000
      outer loop
         vertex -1.323723e+000 -6.614173e-001 -9.752734e-001
         vertex -1.255440e+000 -6.614173e-001 -1.007459e+000
         vertex -1.256756e+000 -6.614173e-001 -9.987310e-001
      endloop
   endfacet
   facet normal 0.000000e+000 -1.000000e+000 0.000000e+000
      outer loop
         vertex -1.252838e+000 -6.614173e-001 -9.727426e-001
         vertex -1.249009e+000 -6.614173e-001 -9.647902e-001
         vertex -1.323723e+000 -6.614173e-001 -9.752734e-001
      endloop
   endfacet
   facet normal 0.000000e+000 -1.000000e+000 0.000000e+000
      outer loop
         vertex -1.323723e+000 -6.614173e-001 -9.752734e-001
         vertex -1.249009e+000 -6.614173e-001 -9.647902e-001
         vertex -1.244037e+000 -6.614173e-001 -9.574975e-001
      endloop
   endfacet
   facet normal 0.000000e+000 -1.000000e+000 0.000000e+000
      outer loop
         vertex -1.323723e+000 -6.614173e-001 -9.752734e-001
         vertex -1.244037e+000 -6.614173e-001 -9.574975e-001
         vertex -1.244301e+000 -6.614173e-001 -8.758001e-001
      endloop
   endfacet
   facet normal 0.000000e+000 -1.000000e+000 0.000000e+000
      outer loop
         vertex -1.244301e+000 -6.614173e-001 -8.758001e-001
         vertex -1.244037e+000 -6.614173e-001 -9.574975e-001
         vertex -1.238033e+000 -6.614173e-001 -9.510273e-001
      endloop
   endfacet
   facet normal 0.000000e+000 -1.000000e+000 0.000000e+000
      outer loop
         vertex -1.244301e+000 -6.614173e-001 -8.758001e-001
         vertex -1.238033e+000 -6.614173e-001 -9.510273e-001
         vertex -1.231133e+000 -6.614173e-001 -9.455242e-001
      endloop
   endfacet
   facet normal 0.000000e+000 -1.000000e+000 0.000000e+000
      outer loop
         vertex -1.231133e+000 -6.614173e-001 -9.455242e-001
         vertex -1.223489e+000 -6.614173e-001 -9.411109e-001
         vertex -1.244301e+000 -6.614173e-001 -8.758001e-001
      endloop
   endfacet
   facet normal 0.000000e+000 -1.000000e+000 0.000000e+000
      outer loop
         vertex -1.244301e+000 -6.614173e-001 -8.758001e-001
         vertex -1.223489e+000 -6.614173e-001 -9.411109e-001
         vertex -1.215272e+000 -6.614173e-001 -9.378863e-001
      endloop
   endfacet
   facet normal 0.000000e+000 -1.000000e+000 0.000000e+000
      outer loop
         vertex -1.244301e+000 -6.614173e-001 -8.758001e-001
         vertex -1.215272e+000 -6.614173e-001 -9.378863e-001
         vertex -1.206667e+000 -6.614173e-001 -9.359222e-001
      endloop
   endfacet
   facet normal 0.000000e+000 -1.000000e+000 0.000000e+000
      outer loop
         vertex -1.118444e+000 -6.614173e-001 -8.948444e-001
         vertex -1.142893e+000 -6.614173e-001 -9.727426e-001
         vertex -1.072008e+000 -6.614173e-001 -1.013362e+000
      endloop
   endfacet
   facet normal 0.000000e+000 -1.000000e+000 0.000000e+000
      outer loop
         vertex -1.072008e+000 -6.614173e-001 -1.013362e+000
         vertex -1.142893e+000 -6.614173e-001 -9.727426e-001
         vertex -1.140291e+000 -6.614173e-001 -9.811768e-001
      endloop
   endfacet
   facet normal 0.000000e+000 -1.000000e+000 0.000000e+000
      outer loop
         vertex -1.072008e+000 -6.614173e-001 -1.013362e+000
         vertex -1.140291e+000 -6.614173e-001 -1.007459e+000
         vertex -1.142893e+000 -6.614173e-001 -1.015893e+000
      endloop
   endfacet
   facet normal 0.000000e+000 -1.000000e+000 0.000000e+000
      outer loop
         vertex -1.140291e+000 -6.614173e-001 -9.811768e-001
         vertex -1.138976e+000 -6.614173e-001 -9.899046e-001
         vertex -1.072008e+000 -6.614173e-001 -1.013362e+000
      endloop
   endfacet
   facet normal 0.000000e+000 -1.000000e+000 0.000000e+000
      outer loop
         vertex -1.072008e+000 -6.614173e-001 -1.013362e+000
         vertex -1.138976e+000 -6.614173e-001 -9.899046e-001
         vertex -1.138976e+000 -6.614173e-001 -9.987310e-001
      endloop
   endfacet
   facet normal 0.000000e+000 -1.000000e+000 0.000000e+000
      outer loop
         vertex -1.072008e+000 -6.614173e-001 -1.013362e+000
         vertex -1.138976e+000 -6.614173e-001 -9.987310e-001
         vertex -1.140291e+000 -6.614173e-001 -1.007459e+000
      endloop
   endfacet
   facet normal 0.000000e+000 -1.000000e+000 0.000000e+000
      outer loop
         vertex -1.180459e+000 -6.614173e-001 -9.378863e-001
         vertex -1.118444e+000 -6.614173e-001 -8.948444e-001
         vertex -1.189064e+000 -6.614173e-001 -9.359222e-001
      endloop
   endfacet
   facet normal 0.000000e+000 -1.000000e+000 0.000000e+000
      outer loop
         vertex -1.189064e+000 -6.614173e-001 -9.359222e-001
         vertex -1.118444e+000 -6.614173e-001 -8.948444e-001
         vertex -1.244301e+000 -6.614173e-001 -8.758001e-001
      endloop
   endfacet
   facet normal 0.000000e+000 -1.000000e+000 0.000000e+000
      outer loop
         vertex -1.189064e+000 -6.614173e-001 -9.359222e-001
         vertex -1.244301e+000 -6.614173e-001 -8.758001e-001
         vertex -1.197866e+000 -6.614173e-001 -9.352627e-001
      endloop
   endfacet
   facet normal 0.000000e+000 -1.000000e+000 0.000000e+000
      outer loop
         vertex -1.197866e+000 -6.614173e-001 -9.352627e-001
         vertex -1.244301e+000 -6.614173e-001 -8.758001e-001
         vertex -1.206667e+000 -6.614173e-001 -9.359222e-001
      endloop
   endfacet
   facet normal 0.000000e+000 -1.000000e+000 0.000000e+000
      outer loop
         vertex -1.180459e+000 -6.614173e-001 -9.378863e-001
         vertex -1.172242e+000 -6.614173e-001 -9.411109e-001
         vertex -1.118444e+000 -6.614173e-001 -8.948444e-001
      endloop
   endfacet
   facet normal 0.000000e+000 -1.000000e+000 0.000000e+000
      outer loop
         vertex -1.118444e+000 -6.614173e-001 -8.948444e-001
         vertex -1.172242e+000 -6.614173e-001 -9.411109e-001
         vertex -1.164599e+000 -6.614173e-001 -9.455242e-001
      endloop
   endfacet
   facet normal 0.000000e+000 -1.000000e+000 0.000000e+000
      outer loop
         vertex -1.118444e+000 -6.614173e-001 -8.948444e-001
         vertex -1.164599e+000 -6.614173e-001 -9.455242e-001
         vertex -1.157698e+000 -6.614173e-001 -9.510273e-001
      endloop
   endfacet
   facet normal 0.000000e+000 -1.000000e+000 0.000000e+000
      outer loop
         vertex -1.157698e+000 -6.614173e-001 -9.510273e-001
         vertex -1.151694e+000 -6.614173e-001 -9.574975e-001
         vertex -1.118444e+000 -6.614173e-001 -8.948444e-001
      endloop
   endfacet
   facet normal 0.000000e+000 -1.000000e+000 0.000000e+000
      outer loop
         vertex -1.118444e+000 -6.614173e-001 -8.948444e-001
         vertex -1.151694e+000 -6.614173e-001 -9.574975e-001
         vertex -1.146722e+000 -6.614173e-001 -9.647902e-001
      endloop
   endfacet
   facet normal 0.000000e+000 -1.000000e+000 0.000000e+000
      outer loop
         vertex -1.118444e+000 -6.614173e-001 -8.948444e-001
         vertex -1.146722e+000 -6.614173e-001 -9.647902e-001
         vertex -1.142893e+000 -6.614173e-001 -9.727426e-001
      endloop
   endfacet
   facet normal 0.000000e+000 -1.000000e+000 0.000000e+000
      outer loop
         vertex -1.142893e+000 -6.614173e-001 -1.015893e+000
         vertex -1.146722e+000 -6.614173e-001 -1.023845e+000
         vertex -1.072008e+000 -6.614173e-001 -1.013362e+000
      endloop
   endfacet
   facet normal 0.000000e+000 -1.000000e+000 0.000000e+000
      outer loop
         vertex -1.072008e+000 -6.614173e-001 -1.013362e+000
         vertex -1.146722e+000 -6.614173e-001 -1.023845e+000
         vertex -1.151694e+000 -6.614173e-001 -1.031138e+000
      endloop
   endfacet
   facet normal 0.000000e+000 -1.000000e+000 0.000000e+000
      outer loop
         vertex -1.072008e+000 -6.614173e-001 -1.013362e+000
         vertex -1.151694e+000 -6.614173e-001 -1.031138e+000
         vertex -1.151430e+000 -6.614173e-001 -1.112835e+000
      endloop
   endfacet
   facet normal 0.000000e+000 -1.000000e+000 0.000000e+000
      outer loop
         vertex -1.151430e+000 -6.614173e-001 -1.112835e+000
         vertex -1.151694e+000 -6.614173e-001 -1.031138e+000
         vertex -1.157698e+000 -6.614173e-001 -1.037608e+000
      endloop
   endfacet
   facet normal 0.000000e+000 -1.000000e+000 0.000000e+000
      outer loop
         vertex -1.151430e+000 -6.614173e-001 -1.112835e+000
         vertex -1.157698e+000 -6.614173e-001 -1.037608e+000
         vertex -1.164599e+000 -6.614173e-001 -1.043111e+000
      endloop
   endfacet
   facet normal 9.310847e-001 0.000000e+000 3.648032e-001
      outer loop
         vertex -1.072008e+000 -5.826772e-001 -1.013362e+000
         vertex -1.118444e+000 -5.826772e-001 -8.948444e-001
         vertex -1.072008e+000 -6.614173e-001 -1.013362e+000
      endloop
   endfacet
   facet normal 9.310847e-001 0.000000e+000 3.648032e-001
      outer loop
         vertex -1.072008e+000 -6.614173e-001 -1.013362e+000
         vertex -1.118444e+000 -5.826772e-001 -8.948444e-001
         vertex -1.118444e+000 -6.614173e-001 -8.948444e-001
      endloop
   endfacet
   facet normal 7.814711e-001 0.000000e+000 -6.239415e-001
      outer loop
         vertex -1.151430e+000 -5.826772e-001 -1.112835e+000
         vertex -1.072008e+000 -5.826772e-001 -1.013362e+000
         vertex -1.151430e+000 -6.614173e-001 -1.112835e+000
      endloop
   endfacet
   facet normal 7.814711e-001 0.000000e+000 -6.239415e-001
      outer loop
         vertex -1.151430e+000 -6.614173e-001 -1.112835e+000
         vertex -1.072008e+000 -5.826772e-001 -1.013362e+000
         vertex -1.072008e+000 -6.614173e-001 -1.013362e+000
      endloop
   endfacet
   facet normal -1.496135e-001 0.000000e+000 -9.887446e-001
      outer loop
         vertex -1.277287e+000 -5.826772e-001 -1.093791e+000
         vertex -1.151430e+000 -5.826772e-001 -1.112835e+000
         vertex -1.277287e+000 -6.614173e-001 -1.093791e+000
      endloop
   endfacet
   facet normal -1.496135e-001 0.000000e+000 -9.887446e-001
      outer loop
         vertex -1.277287e+000 -6.614173e-001 -1.093791e+000
         vertex -1.151430e+000 -5.826772e-001 -1.112835e+000
         vertex -1.151430e+000 -6.614173e-001 -1.112835e+000
      endloop
   endfacet
   facet normal -9.310847e-001 0.000000e+000 -3.648032e-001
      outer loop
         vertex -1.323723e+000 -5.826772e-001 -9.752734e-001
         vertex -1.277287e+000 -5.826772e-001 -1.093791e+000
         vertex -1.323723e+000 -6.614173e-001 -9.752734e-001
      endloop
   endfacet
   facet normal -9.310847e-001 0.000000e+000 -3.648032e-001
      outer loop
         vertex -1.323723e+000 -6.614173e-001 -9.752734e-001
         vertex -1.277287e+000 -5.826772e-001 -1.093791e+000
         vertex -1.277287e+000 -6.614173e-001 -1.093791e+000
      endloop
   endfacet
   facet normal -7.814711e-001 0.000000e+000 6.239415e-001
      outer loop
         vertex -1.244301e+000 -5.826772e-001 -8.758001e-001
         vertex -1.323723e+000 -5.826772e-001 -9.752734e-001
         vertex -1.244301e+000 -6.614173e-001 -8.758001e-001
      endloop
   endfacet
   facet normal -7.814711e-001 0.000000e+000 6.239415e-001
      outer loop
         vertex -1.244301e+000 -6.614173e-001 -8.758001e-001
         vertex -1.323723e+000 -5.826772e-001 -9.752734e-001
         vertex -1.323723e+000 -6.614173e-001 -9.752734e-001
      endloop
   endfacet
   facet normal 1.496135e-001 0.000000e+000 9.887446e-001
      outer loop
         vertex -1.118444e+000 -5.826772e-001 -8.948444e-001
         vertex -1.244301e+000 -5.826772e-001 -8.758001e-001
         vertex -1.118444e+000 -6.614173e-001 -8.948444e-001
      endloop
   endfacet
   facet normal 1.496135e-001 0.000000e+000 9.887446e-001
      outer loop
         vertex -1.118444e+000 -6.614173e-001 -8.948444e-001
         vertex -1.244301e+000 -5.826772e-001 -8.758001e-001
         vertex -1.244301e+000 -6.614173e-001 -8.758001e-001
      endloop
   endfacet
   facet normal 4.980453e-002 0.000000e+000 9.987590e-001
      outer loop
         vertex -1.206667e+000 -5.826772e-001 -1.052713e+000
         vertex -1.197866e+000 -6.614173e-001 -1.053373e+000
         vertex -1.197866e+000 -5.826772e-001 -1.053373e+000
      endloop
   endfacet
   facet normal -4.980453e-002 0.000000e+000 9.987590e-001
      outer loop
         vertex -1.197866e+000 -5.826772e-001 -1.053373e+000
         vertex -1.197866e+000 -6.614173e-001 -1.053373e+000
         vertex -1.189064e+000 -6.614173e-001 -1.052713e+000
      endloop
   endfacet
   facet normal -9.960905e-002 0.000000e+000 9.950266e-001
      outer loop
         vertex -1.197866e+000 -5.826772e-001 -1.053373e+000
         vertex -1.189064e+000 -6.614173e-001 -1.052713e+000
         vertex -1.189064e+000 -5.826772e-001 -1.052713e+000
      endloop
   endfacet
   facet normal -1.981055e-001 0.000000e+000 9.801807e-001
      outer loop
         vertex -1.189064e+000 -5.826772e-001 -1.052713e+000
         vertex -1.189064e+000 -6.614173e-001 -1.052713e+000
         vertex -1.180459e+000 -6.614173e-001 -1.050749e+000
      endloop
   endfacet
   facet normal -2.467975e-001 0.000000e+000 9.690670e-001
      outer loop
         vertex -1.189064e+000 -5.826772e-001 -1.052713e+000
         vertex -1.180459e+000 -6.614173e-001 -1.050749e+000
         vertex -1.180459e+000 -5.826772e-001 -1.050749e+000
      endloop
   endfacet
   facet normal -3.419812e-001 0.000000e+000 9.397067e-001
      outer loop
         vertex -1.180459e+000 -5.826772e-001 -1.050749e+000
         vertex -1.180459e+000 -6.614173e-001 -1.050749e+000
         vertex -1.172242e+000 -6.614173e-001 -1.047525e+000
      endloop
   endfacet
   facet normal -3.884729e-001 0.000000e+000 9.214601e-001
      outer loop
         vertex -1.180459e+000 -5.826772e-001 -1.050749e+000
         vertex -1.172242e+000 -6.614173e-001 -1.047525e+000
         vertex -1.172242e+000 -5.826772e-001 -1.047525e+000
      endloop
   endfacet
   facet normal -4.782176e-001 0.000000e+000 8.782414e-001
      outer loop
         vertex -1.172242e+000 -5.826772e-001 -1.047525e+000
         vertex -1.172242e+000 -6.614173e-001 -1.047525e+000
         vertex -1.164599e+000 -6.614173e-001 -1.043111e+000
      endloop
   endfacet
   facet normal -5.214705e-001 0.000000e+000 8.532693e-001
      outer loop
         vertex -1.172242e+000 -5.826772e-001 -1.047525e+000
         vertex -1.164599e+000 -6.614173e-001 -1.043111e+000
         vertex -1.164599e+000 -5.826772e-001 -1.043111e+000
      endloop
   endfacet
   facet normal -6.037714e-001 0.000000e+000 7.971576e-001
      outer loop
         vertex -1.164599e+000 -5.826772e-001 -1.043111e+000
         vertex -1.164599e+000 -6.614173e-001 -1.043111e+000
         vertex -1.157698e+000 -6.614173e-001 -1.037608e+000
      endloop
   endfacet
   facet normal -6.428193e-001 0.000000e+000 7.660179e-001
      outer loop
         vertex -1.164599e+000 -5.826772e-001 -1.043111e+000
         vertex -1.157698e+000 -6.614173e-001 -1.037608e+000
         vertex -1.157698e+000 -5.826772e-001 -1.037608e+000
      endloop
   endfacet
   facet normal -7.158380e-001 0.000000e+000 6.982664e-001
      outer loop
         vertex -1.157698e+000 -5.826772e-001 -1.037608e+000
         vertex -1.157698e+000 -6.614173e-001 -1.037608e+000
         vertex -1.151694e+000 -6.614173e-001 -1.031138e+000
      endloop
   endfacet
   facet normal -7.498086e-001 0.000000e+000 6.616548e-001
      outer loop
         vertex -1.157698e+000 -5.826772e-001 -1.037608e+000
         vertex -1.151694e+000 -6.614173e-001 -1.031138e+000
         vertex -1.151694e+000 -5.826772e-001 -1.031138e+000
      endloop
   endfacet
   facet normal -8.119138e-001 0.000000e+000 5.837772e-001
      outer loop
         vertex -1.151694e+000 -5.826772e-001 -1.031138e+000
         vertex -1.151694e+000 -6.614173e-001 -1.031138e+000
         vertex -1.146722e+000 -6.614173e-001 -1.023845e+000
      endloop
   endfacet
   facet normal -8.400484e-001 0.000000e+000 5.425115e-001
      outer loop
         vertex -1.151694e+000 -5.826772e-001 -1.031138e+000
         vertex -1.146722e+000 -6.614173e-001 -1.023845e+000
         vertex -1.146722e+000 -5.826772e-001 -1.023845e+000
      endloop
   endfacet
   facet normal -8.898529e-001 0.000000e+000 4.562475e-001
      outer loop
         vertex -1.146722e+000 -5.826772e-001 -1.023845e+000
         vertex -1.146722e+000 -6.614173e-001 -1.023845e+000
         vertex -1.142893e+000 -6.614173e-001 -1.015893e+000
      endloop
   endfacet
   facet normal -9.115229e-001 0.000000e+000 4.112494e-001
      outer loop
         vertex -1.146722e+000 -5.826772e-001 -1.023845e+000
         vertex -1.142893e+000 -6.614173e-001 -1.015893e+000
         vertex -1.142893e+000 -5.826772e-001 -1.015893e+000
      endloop
   endfacet
   facet normal -9.479141e-001 0.000000e+000 3.185259e-001
      outer loop
         vertex -1.142893e+000 -5.826772e-001 -1.015893e+000
         vertex -1.142893e+000 -6.614173e-001 -1.015893e+000
         vertex -1.140291e+000 -6.614173e-001 -1.007459e+000
      endloop
   endfacet
   facet normal -9.626355e-001 0.000000e+000 2.708006e-001
      outer loop
         vertex -1.142893e+000 -5.826772e-001 -1.015893e+000
         vertex -1.140291e+000 -6.614173e-001 -1.007459e+000
         vertex -1.140291e+000 -5.826772e-001 -1.007459e+000
      endloop
   endfacet
   facet normal -9.848005e-001 0.000000e+000 1.736889e-001
      outer loop
         vertex -1.140291e+000 -5.826772e-001 -1.007459e+000
         vertex -1.140291e+000 -6.614173e-001 -1.007459e+000
         vertex -1.138976e+000 -6.614173e-001 -9.987310e-001
      endloop
   endfacet
   facet normal -9.922444e-001 0.000000e+000 1.243026e-001
      outer loop
         vertex -1.140291e+000 -5.826772e-001 -1.007459e+000
         vertex -1.138976e+000 -6.614173e-001 -9.987310e-001
         vertex -1.138976e+000 -5.826772e-001 -9.987310e-001
      endloop
   endfacet
   facet normal -9.996881e-001 0.000000e+000 2.497209e-002
      outer loop
         vertex -1.138976e+000 -5.826772e-001 -9.987310e-001
         vertex -1.138976e+000 -6.614173e-001 -9.987310e-001
         vertex -1.138976e+000 -6.614173e-001 -9.899046e-001
      endloop
   endfacet
   facet normal -9.996881e-001 0.000000e+000 -2.497209e-002
      outer loop
         vertex -1.138976e+000 -5.826772e-001 -9.987310e-001
         vertex -1.138976e+000 -6.614173e-001 -9.899046e-001
         vertex -1.138976e+000 -5.826772e-001 -9.899046e-001
      endloop
   endfacet
   facet normal -9.922444e-001 0.000000e+000 -1.243026e-001
      outer loop
         vertex -1.138976e+000 -5.826772e-001 -9.899046e-001
         vertex -1.138976e+000 -6.614173e-001 -9.899046e-001
         vertex -1.140291e+000 -6.614173e-001 -9.811768e-001
      endloop
   endfacet
   facet normal -9.848005e-001 0.000000e+000 -1.736889e-001
      outer loop
         vertex -1.138976e+000 -5.826772e-001 -9.899046e-001
         vertex -1.140291e+000 -6.614173e-001 -9.811768e-001
         vertex -1.140291e+000 -5.826772e-001 -9.811768e-001
      endloop
   endfacet
   facet normal -9.626355e-001 0.000000e+000 -2.708006e-001
      outer loop
         vertex -1.140291e+000 -5.826772e-001 -9.811768e-001
         vertex -1.140291e+000 -6.614173e-001 -9.811768e-001
         vertex -1.142893e+000 -6.614173e-001 -9.727426e-001
      endloop
   endfacet
   facet normal -9.479141e-001 0.000000e+000 -3.185259e-001
      outer loop
         vertex -1.140291e+000 -5.826772e-001 -9.811768e-001
         vertex -1.142893e+000 -6.614173e-001 -9.727426e-001
         vertex -1.142893e+000 -5.826772e-001 -9.727426e-001
      endloop
   endfacet
   facet normal -9.115229e-001 0.000000e+000 -4.112494e-001
      outer loop
         vertex -1.142893e+000 -5.826772e-001 -9.727426e-001
         vertex -1.142893e+000 -6.614173e-001 -9.727426e-001
         vertex -1.146722e+000 -6.614173e-001 -9.647902e-001
      endloop
   endfacet
   facet normal -8.898529e-001 0.000000e+000 -4.562475e-001
      outer loop
         vertex -1.142893e+000 -5.826772e-001 -9.727426e-001
         vertex -1.146722e+000 -6.614173e-001 -9.647902e-001
         vertex -1.146722e+000 -5.826772e-001 -9.647902e-001
      endloop
   endfacet
   facet normal -8.400484e-001 0.000000e+000 -5.425115e-001
      outer loop
         vertex -1.146722e+000 -5.826772e-001 -9.647902e-001
         vertex -1.146722e+000 -6.614173e-001 -9.647902e-001
         vertex -1.151694e+000 -6.614173e-001 -9.574975e-001
      endloop
   endfacet
   facet normal -8.119138e-001 0.000000e+000 -5.837773e-001
      outer loop
         vertex -1.146722e+000 -5.826772e-001 -9.647902e-001
         vertex -1.151694e+000 -6.614173e-001 -9.574975e-001
         vertex -1.151694e+000 -5.826772e-001 -9.574975e-001
      endloop
   endfacet
   facet normal -7.498086e-001 0.000000e+000 -6.616548e-001
      outer loop
         vertex -1.151694e+000 -5.826772e-001 -9.574975e-001
         vertex -1.151694e+000 -6.614173e-001 -9.574975e-001
         vertex -1.157698e+000 -6.614173e-001 -9.510273e-001
      endloop
   endfacet
   facet normal -7.158380e-001 0.000000e+000 -6.982664e-001
      outer loop
         vertex -1.151694e+000 -5.826772e-001 -9.574975e-001
         vertex -1.157698e+000 -6.614173e-001 -9.510273e-001
         vertex -1.157698e+000 -5.826772e-001 -9.510273e-001
      endloop
   endfacet
   facet normal -6.428193e-001 0.000000e+000 -7.660179e-001
      outer loop
         vertex -1.157698e+000 -5.826772e-001 -9.510273e-001
         vertex -1.157698e+000 -6.614173e-001 -9.510273e-001
         vertex -1.164599e+000 -6.614173e-001 -9.455242e-001
      endloop
   endfacet
   facet normal -6.037714e-001 0.000000e+000 -7.971575e-001
      outer loop
         vertex -1.157698e+000 -5.826772e-001 -9.510273e-001
         vertex -1.164599e+000 -6.614173e-001 -9.455242e-001
         vertex -1.164599e+000 -5.826772e-001 -9.455242e-001
      endloop
   endfacet
   facet normal -5.214705e-001 0.000000e+000 -8.532693e-001
      outer loop
         vertex -1.164599e+000 -5.826772e-001 -9.455242e-001
         vertex -1.164599e+000 -6.614173e-001 -9.455242e-001
         vertex -1.172242e+000 -6.614173e-001 -9.411109e-001
      endloop
   endfacet
   facet normal -4.782176e-001 0.000000e+000 -8.782414e-001
      outer loop
         vertex -1.164599e+000 -5.826772e-001 -9.455242e-001
         vertex -1.172242e+000 -6.614173e-001 -9.411109e-001
         vertex -1.172242e+000 -5.826772e-001 -9.411109e-001
      endloop
   endfacet
   facet normal -3.884729e-001 0.000000e+000 -9.214601e-001
      outer loop
         vertex -1.172242e+000 -5.826772e-001 -9.411109e-001
         vertex -1.172242e+000 -6.614173e-001 -9.411109e-001
         vertex -1.180459e+000 -6.614173e-001 -9.378863e-001
      endloop
   endfacet
   facet normal -3.419812e-001 0.000000e+000 -9.397067e-001
      outer loop
         vertex -1.172242e+000 -5.826772e-001 -9.411109e-001
         vertex -1.180459e+000 -6.614173e-001 -9.378863e-001
         vertex -1.180459e+000 -5.826772e-001 -9.378863e-001
      endloop
   endfacet
   facet normal -2.467975e-001 0.000000e+000 -9.690670e-001
      outer loop
         vertex -1.180459e+000 -5.826772e-001 -9.378863e-001
         vertex -1.180459e+000 -6.614173e-001 -9.378863e-001
         vertex -1.189064e+000 -6.614173e-001 -9.359222e-001
      endloop
   endfacet
   facet normal -1.981055e-001 0.000000e+000 -9.801807e-001
      outer loop
         vertex -1.180459e+000 -5.826772e-001 -9.378863e-001
         vertex -1.189064e+000 -6.614173e-001 -9.359222e-001
         vertex -1.189064e+000 -5.826772e-001 -9.359222e-001
      endloop
   endfacet
   facet normal -9.960905e-002 0.000000e+000 -9.950266e-001
      outer loop
         vertex -1.189064e+000 -5.826772e-001 -9.359222e-001
         vertex -1.189064e+000 -6.614173e-001 -9.359222e-001
         vertex -1.197866e+000 -6.614173e-001 -9.352627e-001
      endloop
   endfacet
   facet normal -4.980453e-002 0.000000e+000 -9.987590e-001
      outer loop
         vertex -1.189064e+000 -5.826772e-001 -9.359222e-001
         vertex -1.197866e+000 -6.614173e-001 -9.352627e-001
         vertex -1.197866e+000 -5.826772e-001 -9.352627e-001
      endloop
   endfacet
   facet normal 4.980453e-002 0.000000e+000 -9.987590e-001
      outer loop
         vertex -1.197866e+000 -5.826772e-001 -9.352627e-001
         vertex -1.197866e+000 -6.614173e-001 -9.352627e-001
         vertex -1.206667e+000 -6.614173e-001 -9.359222e-001
      endloop
   endfacet
   facet normal 9.960905e-002 0.000000e+000 -9.950266e-001
      outer loop
         vertex -1.197866e+000 -5.826772e-001 -9.352627e-001
         vertex -1.206667e+000 -6.614173e-001 -9.359222e-001
         vertex -1.206667e+000 -5.826772e-001 -9.359222e-001
      endloop
   endfacet
   facet normal 1.981055e-001 0.000000e+000 -9.801807e-001
      outer loop
         vertex -1.206667e+000 -5.826772e-001 -9.359222e-001
         vertex -1.206667e+000 -6.614173e-001 -9.359222e-001
         vertex -1.215272e+000 -6.614173e-001 -9.378863e-001
      endloop
   endfacet
   facet normal 2.467975e-001 0.000000e+000 -9.690670e-001
      outer loop
         vertex -1.206667e+000 -5.826772e-001 -9.359222e-001
         vertex -1.215272e+000 -6.614173e-001 -9.378863e-001
         vertex -1.215272e+000 -5.826772e-001 -9.378863e-001
      endloop
   endfacet
   facet normal 3.419812e-001 0.000000e+000 -9.397067e-001
      outer loop
         vertex -1.215272e+000 -5.826772e-001 -9.378863e-001
         vertex -1.215272e+000 -6.614173e-001 -9.378863e-001
         vertex -1.223489e+000 -6.614173e-001 -9.411109e-001
      endloop
   endfacet
   facet normal 3.884729e-001 0.000000e+000 -9.214601e-001
      outer loop
         vertex -1.215272e+000 -5.826772e-001 -9.378863e-001
         vertex -1.223489e+000 -6.614173e-001 -9.411109e-001
         vertex -1.223489e+000 -5.826772e-001 -9.411109e-001
      endloop
   endfacet
   facet normal 4.782176e-001 0.000000e+000 -8.782414e-001
      outer loop
         vertex -1.223489e+000 -5.826772e-001 -9.411109e-001
         vertex -1.223489e+000 -6.614173e-001 -9.411109e-001
         vertex -1.231133e+000 -6.614173e-001 -9.455242e-001
      endloop
   endfacet
   facet normal 5.214705e-001 0.000000e+000 -8.532693e-001
      outer loop
         vertex -1.223489e+000 -5.826772e-001 -9.411109e-001
         vertex -1.231133e+000 -6.614173e-001 -9.455242e-001
         vertex -1.231133e+000 -5.826772e-001 -9.455242e-001
      endloop
   endfacet
   facet normal 6.037714e-001 0.000000e+000 -7.971576e-001
      outer loop
         vertex -1.231133e+000 -5.826772e-001 -9.455242e-001
         vertex -1.231133e+000 -6.614173e-001 -9.455242e-001
         vertex -1.238033e+000 -6.614173e-001 -9.510273e-001
      endloop
   endfacet
   facet normal 6.428193e-001 0.000000e+000 -7.660179e-001
      outer loop
         vertex -1.231133e+000 -5.826772e-001 -9.455242e-001
         vertex -1.238033e+000 -6.614173e-001 -9.510273e-001
         vertex -1.238033e+000 -5.826772e-001 -9.510273e-001
      endloop
   endfacet
   facet normal 7.158380e-001 0.000000e+000 -6.982664e-001
      outer loop
         vertex -1.238033e+000 -5.826772e-001 -9.510273e-001
         vertex -1.238033e+000 -6.614173e-001 -9.510273e-001
         vertex -1.244037e+000 -6.614173e-001 -9.574975e-001
      endloop
   endfacet
   facet normal 7.498086e-001 0.000000e+000 -6.616548e-001
      outer loop
         vertex -1.238033e+000 -5.826772e-001 -9.510273e-001
         vertex -1.244037e+000 -6.614173e-001 -9.574975e-001
         vertex -1.244037e+000 -5.826772e-001 -9.574975e-001
      endloop
   endfacet
   facet normal 8.119138e-001 0.000000e+000 -5.837772e-001
      outer loop
         vertex -1.244037e+000 -5.826772e-001 -9.574975e-001
         vertex -1.244037e+000 -6.614173e-001 -9.574975e-001
         vertex -1.249009e+000 -6.614173e-001 -9.647902e-001
      endloop
   endfacet
   facet normal 8.400484e-001 0.000000e+000 -5.425115e-001
      outer loop
         vertex -1.244037e+000 -5.826772e-001 -9.574975e-001
         vertex -1.249009e+000 -6.614173e-001 -9.647902e-001
         vertex -1.249009e+000 -5.826772e-001 -9.647902e-001
      endloop
   endfacet
   facet normal 8.898529e-001 0.000000e+000 -4.562475e-001
      outer loop
         vertex -1.249009e+000 -5.826772e-001 -9.647902e-001
         vertex -1.249009e+000 -6.614173e-001 -9.647902e-001
         vertex -1.252838e+000 -6.614173e-001 -9.727426e-001
      endloop
   endfacet
   facet normal 9.115229e-001 0.000000e+000 -4.112494e-001
      outer loop
         vertex -1.249009e+000 -5.826772e-001 -9.647902e-001
         vertex -1.252838e+000 -6.614173e-001 -9.727426e-001
         vertex -1.252838e+000 -5.826772e-001 -9.727426e-001
      endloop
   endfacet
   facet normal 9.479141e-001 0.000000e+000 -3.185259e-001
      outer loop
         vertex -1.252838e+000 -5.826772e-001 -9.727426e-001
         vertex -1.252838e+000 -6.614173e-001 -9.727426e-001
         vertex -1.255440e+000 -6.614173e-001 -9.811768e-001
      endloop
   endfacet
   facet normal 9.626355e-001 0.000000e+000 -2.708006e-001
      outer loop
         vertex -1.252838e+000 -5.826772e-001 -9.727426e-001
         vertex -1.255440e+000 -6.614173e-001 -9.811768e-001
         vertex -1.255440e+000 -5.826772e-001 -9.811768e-001
      endloop
   endfacet
   facet normal 9.848005e-001 0.000000e+000 -1.736889e-001
      outer loop
         vertex -1.255440e+000 -5.826772e-001 -9.811768e-001
         vertex -1.255440e+000 -6.614173e-001 -9.811768e-001
         vertex -1.256756e+000 -6.614173e-001 -9.899046e-001
      endloop
   endfacet
   facet normal 9.922444e-001 0.000000e+000 -1.243026e-001
      outer loop
         vertex -1.255440e+000 -5.826772e-001 -9.811768e-001
         vertex -1.256756e+000 -6.614173e-001 -9.899046e-001
         vertex -1.256756e+000 -5.826772e-001 -9.899046e-001
      endloop
   endfacet
   facet normal 9.996881e-001 0.000000e+000 -2.497209e-002
      outer loop
         vertex -1.256756e+000 -5.826772e-001 -9.899046e-001
         vertex -1.256756e+000 -6.614173e-001 -9.899046e-001
         vertex -1.256756e+000 -6.614173e-001 -9.987310e-001
      endloop
   endfacet
   facet normal 9.996881e-001 0.000000e+000 2.497209e-002
      outer loop
         vertex -1.256756e+000 -5.826772e-001 -9.899046e-001
         vertex -1.256756e+000 -6.614173e-001 -9.987310e-001
         vertex -1.256756e+000 -5.826772e-001 -9.987310e-001
      endloop
   endfacet
   facet normal 9.922444e-001 0.000000e+000 1.243026e-001
      outer loop
         vertex -1.256756e+000 -5.826772e-001 -9.987310e-001
         vertex -1.256756e+000 -6.614173e-001 -9.987310e-001
         vertex -1.255440e+000 -6.614173e-001 -1.007459e+000
      endloop
   endfacet
   facet normal 9.848005e-001 0.000000e+000 1.736889e-001
      outer loop
         vertex -1.256756e+000 -5.826772e-001 -9.987310e-001
         vertex -1.255440e+000 -6.614173e-001 -1.007459e+000
         vertex -1.255440e+000 -5.826772e-001 -1.007459e+000
      endloop
   endfacet
   facet normal 9.626355e-001 0.000000e+000 2.708006e-001
      outer loop
         vertex -1.255440e+000 -5.826772e-001 -1.007459e+000
         vertex -1.255440e+000 -6.614173e-001 -1.007459e+000
         vertex -1.252838e+000 -6.614173e-001 -1.015893e+000
      endloop
   endfacet
   facet normal 9.479141e-001 0.000000e+000 3.185259e-001
      outer loop
         vertex -1.255440e+000 -5.826772e-001 -1.007459e+000
         vertex -1.252838e+000 -6.614173e-001 -1.015893e+000
         vertex -1.252838e+000 -5.826772e-001 -1.015893e+000
      endloop
   endfacet
   facet normal 9.115229e-001 0.000000e+000 4.112494e-001
      outer loop
         vertex -1.252838e+000 -5.826772e-001 -1.015893e+000
         vertex -1.252838e+000 -6.614173e-001 -1.015893e+000
         vertex -1.249009e+000 -6.614173e-001 -1.023845e+000
      endloop
   endfacet
   facet normal 8.898529e-001 0.000000e+000 4.562475e-001
      outer loop
         vertex -1.252838e+000 -5.826772e-001 -1.015893e+000
         vertex -1.249009e+000 -6.614173e-001 -1.023845e+000
         vertex -1.249009e+000 -5.826772e-001 -1.023845e+000
      endloop
   endfacet
   facet normal 8.400484e-001 0.000000e+000 5.425115e-001
      outer loop
         vertex -1.249009e+000 -5.826772e-001 -1.023845e+000
         vertex -1.249009e+000 -6.614173e-001 -1.023845e+000
         vertex -1.244037e+000 -6.614173e-001 -1.031138e+000
      endloop
   endfacet
   facet normal 8.119138e-001 0.000000e+000 5.837773e-001
      outer loop
         vertex -1.249009e+000 -5.826772e-001 -1.023845e+000
         vertex -1.244037e+000 -6.614173e-001 -1.031138e+000
         vertex -1.244037e+000 -5.826772e-001 -1.031138e+000
      endloop
   endfacet
   facet normal 7.498086e-001 0.000000e+000 6.616548e-001
      outer loop
         vertex -1.244037e+000 -5.826772e-001 -1.031138e+000
         vertex -1.244037e+000 -6.614173e-001 -1.031138e+000
         vertex -1.238033e+000 -6.614173e-001 -1.037608e+000
      endloop
   endfacet
   facet normal 7.158380e-001 0.000000e+000 6.982664e-001
      outer loop
         vertex -1.244037e+000 -5.826772e-001 -1.031138e+000
         vertex -1.238033e+000 -6.614173e-001 -1.037608e+000
         vertex -1.238033e+000 -5.826772e-001 -1.037608e+000
      endloop
   endfacet
   facet normal 6.428193e-001 0.000000e+000 7.660179e-001
      outer loop
         vertex -1.238033e+000 -5.826772e-001 -1.037608e+000
         vertex -1.238033e+000 -6.614173e-001 -1.037608e+000
         vertex -1.231133e+000 -6.614173e-001 -1.043111e+000
      endloop
   endfacet
   facet normal 6.037714e-001 0.000000e+000 7.971575e-001
      outer loop
         vertex -1.238033e+000 -5.826772e-001 -1.037608e+000
         vertex -1.231133e+000 -6.614173e-001 -1.043111e+000
         vertex -1.231133e+000 -5.826772e-001 -1.043111e+000
      endloop
   endfacet
   facet normal 5.214705e-001 0.000000e+000 8.532693e-001
      outer loop
         vertex -1.231133e+000 -5.826772e-001 -1.043111e+000
         vertex -1.231133e+000 -6.614173e-001 -1.043111e+000
         vertex -1.223489e+000 -6.614173e-001 -1.047525e+000
      endloop
   endfacet
   facet normal 4.782176e-001 0.000000e+000 8.782414e-001
      outer loop
         vertex -1.231133e+000 -5.826772e-001 -1.043111e+000
         vertex -1.223489e+000 -6.614173e-001 -1.047525e+000
         vertex -1.223489e+000 -5.826772e-001 -1.047525e+000
      endloop
   endfacet
   facet normal 3.884729e-001 0.000000e+000 9.214601e-001
      outer loop
         vertex -1.223489e+000 -5.826772e-001 -1.047525e+000
         vertex -1.223489e+000 -6.614173e-001 -1.047525e+000
         vertex -1.215272e+000 -6.614173e-001 -1.050749e+000
      endloop
   endfacet
   facet normal 3.419812e-001 0.000000e+000 9.397067e-001
      outer loop
         vertex -1.223489e+000 -5.826772e-001 -1.047525e+000
         vertex -1.215272e+000 -6.614173e-001 -1.050749e+000
         vertex -1.215272e+000 -5.826772e-001 -1.050749e+000
      endloop
   endfacet
   facet normal 2.467975e-001 0.000000e+000 9.690670e-001
      outer loop
         vertex -1.215272e+000 -5.826772e-001 -1.050749e+000
         vertex -1.215272e+000 -6.614173e-001 -1.050749e+000
         vertex -1.206667e+000 -6.614173e-001 -1.052713e+000
      endloop
   endfacet
   facet normal 1.981055e-001 0.000000e+000 9.801807e-001
      outer loop
         vertex -1.215272e+000 -5.826772e-001 -1.050749e+000
         vertex -1.206667e+000 -6.614173e-001 -1.052713e+000
         vertex -1.206667e+000 -5.826772e-001 -1.052713e+000
      endloop
   endfacet
   facet normal 9.960905e-002 0.000000e+000 9.950266e-001
      outer loop
         vertex -1.206667e+000 -5.826772e-001 -1.052713e+000
         vertex -1.206667e+000 -6.614173e-001 -1.052713e+000
         vertex -1.197866e+000 -6.614173e-001 -1.053373e+000
      endloop
   endfacet
endsolid