solid Body31_Default_sldprt
   facet normal 0.000000e+000 1.000000e+000 0.000000e+000
      outer loop
         vertex 2.135970e+000 -2.048886e-016 4.660845e-001
         vertex 2.125990e+000 -2.048886e-016 4.669339e-001
         vertex 2.108994e+000 -2.048886e-016 5.340289e-001
      endloop
   endfacet
   facet normal 0.000000e+000 1.000000e+000 0.000000e+000
      outer loop
         vertex 2.108994e+000 -2.048886e-016 5.340289e-001
         vertex 2.125990e+000 -2.048886e-016 4.669339e-001
         vertex 2.116009e+000 -2.048886e-016 4.660845e-001
      endloop
   endfacet
   facet normal 0.000000e+000 1.000000e+000 0.000000e+000
      outer loop
         vertex 2.081659e+000 -2.048886e-016 4.468951e-001
         vertex 2.075703e+000 -2.048886e-016 4.388419e-001
         vertex 2.008243e+000 -2.048886e-016 4.562350e-001
      endloop
   endfacet
   facet normal 0.000000e+000 1.000000e+000 0.000000e+000
      outer loop
         vertex 2.008243e+000 -2.048886e-016 4.562350e-001
         vertex 2.075703e+000 -2.048886e-016 4.388419e-001
         vertex 2.071193e+000 -2.048886e-016 4.298979e-001
      endloop
   endfacet
   facet normal 0.000000e+000 1.000000e+000 0.000000e+000
      outer loop
         vertex 2.008243e+000 -2.048886e-016 4.562350e-001
         vertex 2.071193e+000 -2.048886e-016 4.298979e-001
         vertex 2.068260e+000 -2.048886e-016 4.203205e-001
      endloop
   endfacet
   facet normal 0.000000e+000 1.000000e+000 0.000000e+000
      outer loop
         vertex 2.170321e+000 -2.048886e-016 4.468951e-001
         vertex 2.226741e+000 -2.048886e-016 4.856728e-001
         vertex 2.176277e+000 -2.048886e-016 4.388419e-001
      endloop
   endfacet
   facet normal 0.000000e+000 1.000000e+000 0.000000e+000
      outer loop
         vertex 2.176277e+000 -2.048886e-016 4.388419e-001
         vertex 2.226741e+000 -2.048886e-016 4.856728e-001
         vertex 2.180786e+000 -2.048886e-016 4.298979e-001
      endloop
   endfacet
   facet normal 0.000000e+000 1.000000e+000 0.000000e+000
      outer loop
         vertex 2.116009e+000 -2.048886e-016 4.660845e-001
         vertex 2.106316e+000 -2.048886e-016 4.635606e-001
         vertex 2.108994e+000 -2.048886e-016 5.340289e-001
      endloop
   endfacet
   facet normal 0.000000e+000 1.000000e+000 0.000000e+000
      outer loop
         vertex 2.108994e+000 -2.048886e-016 5.340289e-001
         vertex 2.106316e+000 -2.048886e-016 4.635606e-001
         vertex 2.097189e+000 -2.048886e-016 4.594348e-001
      endloop
   endfacet
   facet normal 0.000000e+000 1.000000e+000 0.000000e+000
      outer loop
         vertex 2.108994e+000 -2.048886e-016 5.340289e-001
         vertex 2.097189e+000 -2.048886e-016 4.594348e-001
         vertex 2.008243e+000 -2.048886e-016 4.562350e-001
      endloop
   endfacet
   facet normal 0.000000e+000 1.000000e+000 0.000000e+000
      outer loop
         vertex 2.008243e+000 -2.048886e-016 4.562350e-001
         vertex 2.097189e+000 -2.048886e-016 4.594348e-001
         vertex 2.088890e+000 -2.048886e-016 4.538258e-001
      endloop
   endfacet
   facet normal 0.000000e+000 1.000000e+000 0.000000e+000
      outer loop
         vertex 2.008243e+000 -2.048886e-016 4.562350e-001
         vertex 2.088890e+000 -2.048886e-016 4.538258e-001
         vertex 2.081659e+000 -2.048886e-016 4.468951e-001
      endloop
   endfacet
   facet normal 0.000000e+000 1.000000e+000 0.000000e+000
      outer loop
         vertex 2.170321e+000 -2.048886e-016 4.468951e-001
         vertex 2.163089e+000 -2.048886e-016 4.538258e-001
         vertex 2.226741e+000 -2.048886e-016 4.856728e-001
      endloop
   endfacet
   facet normal 0.000000e+000 1.000000e+000 0.000000e+000
      outer loop
         vertex 2.226741e+000 -2.048886e-016 4.856728e-001
         vertex 2.163089e+000 -2.048886e-016 4.538258e-001
         vertex 2.154791e+000 -2.048886e-016 4.594348e-001
      endloop
   endfacet
   facet normal 0.000000e+000 1.000000e+000 0.000000e+000
      outer loop
         vertex 2.226741e+000 -2.048886e-016 4.856728e-001
         vertex 2.154791e+000 -2.048886e-016 4.594348e-001
         vertex 2.108994e+000 -2.048886e-016 5.340289e-001
      endloop
   endfacet
   facet normal 0.000000e+000 1.000000e+000 0.000000e+000
      outer loop
         vertex 2.108994e+000 -2.048886e-016 5.340289e-001
         vertex 2.154791e+000 -2.048886e-016 4.594348e-001
         vertex 2.145663e+000 -2.048886e-016 4.635606e-001
      endloop
   endfacet
   facet normal 0.000000e+000 1.000000e+000 0.000000e+000
      outer loop
         vertex 2.108994e+000 -2.048886e-016 5.340289e-001
         vertex 2.145663e+000 -2.048886e-016 4.635606e-001
         vertex 2.135970e+000 -2.048886e-016 4.660845e-001
      endloop
   endfacet
   facet normal 0.000000e+000 1.000000e+000 0.000000e+000
      outer loop
         vertex 2.069523e+000 -2.048886e-016 3.905861e-001
         vertex 2.025239e+000 -2.048886e-016 3.300849e-001
         vertex 2.067413e+000 -2.048886e-016 4.003778e-001
      endloop
   endfacet
   facet normal 0.000000e+000 1.000000e+000 0.000000e+000
      outer loop
         vertex 2.067413e+000 -2.048886e-016 4.003778e-001
         vertex 2.025239e+000 -2.048886e-016 3.300849e-001
         vertex 2.008243e+000 -2.048886e-016 4.562350e-001
      endloop
   endfacet
   facet normal 0.000000e+000 1.000000e+000 0.000000e+000
      outer loop
         vertex 2.067413e+000 -2.048886e-016 4.003778e-001
         vertex 2.008243e+000 -2.048886e-016 4.562350e-001
         vertex 2.066988e+000 -2.048886e-016 4.103852e-001
      endloop
   endfacet
   facet normal 0.000000e+000 1.000000e+000 0.000000e+000
      outer loop
         vertex 2.066988e+000 -2.048886e-016 4.103852e-001
         vertex 2.008243e+000 -2.048886e-016 4.562350e-001
         vertex 2.068260e+000 -2.048886e-016 4.203205e-001
      endloop
   endfacet
   facet normal 0.000000e+000 1.000000e+000 0.000000e+000
      outer loop
         vertex 2.069523e+000 -2.048886e-016 3.905861e-001
         vertex 2.073258e+000 -2.048886e-016 3.812920e-001
         vertex 2.025239e+000 -2.048886e-016 3.300849e-001
      endloop
   endfacet
   facet normal 0.000000e+000 1.000000e+000 0.000000e+000
      outer loop
         vertex 2.025239e+000 -2.048886e-016 3.300849e-001
         vertex 2.073258e+000 -2.048886e-016 3.812920e-001
         vertex 2.078510e+000 -2.048886e-016 3.727627e-001
      endloop
   endfacet
   facet normal 0.000000e+000 1.000000e+000 0.000000e+000
      outer loop
         vertex 2.025239e+000 -2.048886e-016 3.300849e-001
         vertex 2.078510e+000 -2.048886e-016 3.727627e-001
         vertex 2.085127e+000 -2.048886e-016 3.652436e-001
      endloop
   endfacet
   facet normal 0.000000e+000 1.000000e+000 0.000000e+000
      outer loop
         vertex 2.085127e+000 -2.048886e-016 3.652436e-001
         vertex 2.092920e+000 -2.048886e-016 3.589511e-001
         vertex 2.025239e+000 -2.048886e-016 3.300849e-001
      endloop
   endfacet
   facet normal 0.000000e+000 1.000000e+000 0.000000e+000
      outer loop
         vertex 2.025239e+000 -2.048886e-016 3.300849e-001
         vertex 2.092920e+000 -2.048886e-016 3.589511e-001
         vertex 2.101665e+000 -2.048886e-016 3.540661e-001
      endloop
   endfacet
   facet normal 0.000000e+000 1.000000e+000 0.000000e+000
      outer loop
         vertex 2.025239e+000 -2.048886e-016 3.300849e-001
         vertex 2.101665e+000 -2.048886e-016 3.540661e-001
         vertex 2.142986e+000 -2.048886e-016 2.817288e-001
      endloop
   endfacet
   facet normal 0.000000e+000 1.000000e+000 0.000000e+000
      outer loop
         vertex 2.142986e+000 -2.048886e-016 2.817288e-001
         vertex 2.101665e+000 -2.048886e-016 3.540661e-001
         vertex 2.111109e+000 -2.048886e-016 3.507293e-001
      endloop
   endfacet
   facet normal 0.000000e+000 1.000000e+000 0.000000e+000
      outer loop
         vertex 2.142986e+000 -2.048886e-016 2.817288e-001
         vertex 2.111109e+000 -2.048886e-016 3.507293e-001
         vertex 2.120982e+000 -2.048886e-016 3.490365e-001
      endloop
   endfacet
   facet normal 0.000000e+000 1.000000e+000 0.000000e+000
      outer loop
         vertex 2.120982e+000 -2.048886e-016 3.490365e-001
         vertex 2.125990e+000 -2.048886e-016 3.488237e-001
         vertex 2.142986e+000 -2.048886e-016 2.817288e-001
      endloop
   endfacet
   facet normal 0.000000e+000 1.000000e+000 0.000000e+000
      outer loop
         vertex 2.142986e+000 -2.048886e-016 2.817288e-001
         vertex 2.125990e+000 -2.048886e-016 3.488237e-001
         vertex 2.130998e+000 -2.048886e-016 3.490365e-001
      endloop
   endfacet
   facet normal 0.000000e+000 1.000000e+000 0.000000e+000
      outer loop
         vertex 2.142986e+000 -2.048886e-016 2.817288e-001
         vertex 2.130998e+000 -2.048886e-016 3.490365e-001
         vertex 2.140870e+000 -2.048886e-016 3.507293e-001
      endloop
   endfacet
   facet normal 0.000000e+000 1.000000e+000 0.000000e+000
      outer loop
         vertex 2.173470e+000 -2.048886e-016 3.727627e-001
         vertex 2.178721e+000 -2.048886e-016 3.812920e-001
         vertex 2.243737e+000 -2.048886e-016 3.595227e-001
      endloop
   endfacet
   facet normal 0.000000e+000 1.000000e+000 0.000000e+000
      outer loop
         vertex 2.243737e+000 -2.048886e-016 3.595227e-001
         vertex 2.178721e+000 -2.048886e-016 3.812920e-001
         vertex 2.182456e+000 -2.048886e-016 3.905861e-001
      endloop
   endfacet
   facet normal 0.000000e+000 1.000000e+000 0.000000e+000
      outer loop
         vertex 2.140870e+000 -2.048886e-016 3.507293e-001
         vertex 2.150315e+000 -2.048886e-016 3.540661e-001
         vertex 2.142986e+000 -2.048886e-016 2.817288e-001
      endloop
   endfacet
   facet normal 0.000000e+000 1.000000e+000 0.000000e+000
      outer loop
         vertex 2.142986e+000 -2.048886e-016 2.817288e-001
         vertex 2.150315e+000 -2.048886e-016 3.540661e-001
         vertex 2.159059e+000 -2.048886e-016 3.589511e-001
      endloop
   endfacet
   facet normal 0.000000e+000 1.000000e+000 0.000000e+000
      outer loop
         vertex 2.142986e+000 -2.048886e-016 2.817288e-001
         vertex 2.159059e+000 -2.048886e-016 3.589511e-001
         vertex 2.243737e+000 -2.048886e-016 3.595227e-001
      endloop
   endfacet
   facet normal 0.000000e+000 1.000000e+000 0.000000e+000
      outer loop
         vertex 2.243737e+000 -2.048886e-016 3.595227e-001
         vertex 2.159059e+000 -2.048886e-016 3.589511e-001
         vertex 2.166852e+000 -2.048886e-016 3.652436e-001
      endloop
   endfacet
   facet normal 0.000000e+000 1.000000e+000 0.000000e+000
      outer loop
         vertex 2.243737e+000 -2.048886e-016 3.595227e-001
         vertex 2.166852e+000 -2.048886e-016 3.652436e-001
         vertex 2.173470e+000 -2.048886e-016 3.727627e-001
      endloop
   endfacet
   facet normal 0.000000e+000 1.000000e+000 0.000000e+000
      outer loop
         vertex 2.182456e+000 -2.048886e-016 3.905861e-001
         vertex 2.184566e+000 -2.048886e-016 4.003778e-001
         vertex 2.243737e+000 -2.048886e-016 3.595227e-001
      endloop
   endfacet
   facet normal 0.000000e+000 1.000000e+000 0.000000e+000
      outer loop
         vertex 2.243737e+000 -2.048886e-016 3.595227e-001
         vertex 2.184566e+000 -2.048886e-016 4.003778e-001
         vertex 2.184992e+000 -2.048886e-016 4.103852e-001
      endloop
   endfacet
   facet normal 0.000000e+000 1.000000e+000 0.000000e+000
      outer loop
         vertex 2.243737e+000 -2.048886e-016 3.595227e-001
         vertex 2.184992e+000 -2.048886e-016 4.103852e-001
         vertex 2.226741e+000 -2.048886e-016 4.856728e-001
      endloop
   endfacet
   facet normal 0.000000e+000 1.000000e+000 0.000000e+000
      outer loop
         vertex 2.226741e+000 -2.048886e-016 4.856728e-001
         vertex 2.184992e+000 -2.048886e-016 4.103852e-001
         vertex 2.183719e+000 -2.048886e-016 4.203205e-001
      endloop
   endfacet
   facet normal 0.000000e+000 1.000000e+000 0.000000e+000
      outer loop
         vertex 2.226741e+000 -2.048886e-016 4.856728e-001
         vertex 2.183719e+000 -2.048886e-016 4.203205e-001
         vertex 2.180786e+000 -2.048886e-016 4.298979e-001
      endloop
   endfacet
   facet normal 0.000000e+000 -1.000000e+000 0.000000e+000
      outer loop
         vertex 2.073258e+000 -5.039370e-001 3.812920e-001
         vertex 2.069523e+000 -5.039370e-001 3.905861e-001
         vertex 2.025239e+000 -5.039370e-001 3.300849e-001
      endloop
   endfacet
   facet normal 0.000000e+000 -1.000000e+000 0.000000e+000
      outer loop
         vertex 2.120982e+000 -5.039370e-001 3.490365e-001
         vertex 2.111109e+000 -5.039370e-001 3.507293e-001
         vertex 2.142986e+000 -5.039370e-001 2.817288e-001
      endloop
   endfacet
   facet normal 0.000000e+000 -1.000000e+000 0.000000e+000
      outer loop
         vertex 2.066988e+000 -5.039370e-001 4.103852e-001
         vertex 2.068260e+000 -5.039370e-001 4.203205e-001
         vertex 2.008243e+000 -5.039370e-001 4.562350e-001
      endloop
   endfacet
   facet normal 0.000000e+000 -1.000000e+000 0.000000e+000
      outer loop
         vertex 2.008243e+000 -5.039370e-001 4.562350e-001
         vertex 2.068260e+000 -5.039370e-001 4.203205e-001
         vertex 2.071193e+000 -5.039370e-001 4.298979e-001
      endloop
   endfacet
   facet normal 0.000000e+000 -1.000000e+000 0.000000e+000
      outer loop
         vertex 2.008243e+000 -5.039370e-001 4.562350e-001
         vertex 2.071193e+000 -5.039370e-001 4.298979e-001
         vertex 2.075703e+000 -5.039370e-001 4.388419e-001
      endloop
   endfacet
   facet normal 0.000000e+000 -1.000000e+000 0.000000e+000
      outer loop
         vertex 2.025239e+000 -5.039370e-001 3.300849e-001
         vertex 2.069523e+000 -5.039370e-001 3.905861e-001
         vertex 2.008243e+000 -5.039370e-001 4.562350e-001
      endloop
   endfacet
   facet normal 0.000000e+000 -1.000000e+000 0.000000e+000
      outer loop
         vertex 2.008243e+000 -5.039370e-001 4.562350e-001
         vertex 2.069523e+000 -5.039370e-001 3.905861e-001
         vertex 2.067413e+000 -5.039370e-001 4.003778e-001
      endloop
   endfacet
   facet normal 0.000000e+000 -1.000000e+000 0.000000e+000
      outer loop
         vertex 2.008243e+000 -5.039370e-001 4.562350e-001
         vertex 2.067413e+000 -5.039370e-001 4.003778e-001
         vertex 2.066988e+000 -5.039370e-001 4.103852e-001
      endloop
   endfacet
   facet normal 0.000000e+000 -1.000000e+000 0.000000e+000
      outer loop
         vertex 2.116009e+000 -5.039370e-001 4.660845e-001
         vertex 2.125990e+000 -5.039370e-001 4.669339e-001
         vertex 2.108994e+000 -5.039370e-001 5.340289e-001
      endloop
   endfacet
   facet normal 0.000000e+000 -1.000000e+000 0.000000e+000
      outer loop
         vertex 2.182456e+000 -5.039370e-001 3.905861e-001
         vertex 2.178721e+000 -5.039370e-001 3.812920e-001
         vertex 2.243737e+000 -5.039370e-001 3.595227e-001
      endloop
   endfacet
   facet normal 0.000000e+000 -1.000000e+000 0.000000e+000
      outer loop
         vertex 2.092920e+000 -5.039370e-001 3.589511e-001
         vertex 2.085127e+000 -5.039370e-001 3.652436e-001
         vertex 2.025239e+000 -5.039370e-001 3.300849e-001
      endloop
   endfacet
   facet normal 0.000000e+000 -1.000000e+000 0.000000e+000
      outer loop
         vertex 2.025239e+000 -5.039370e-001 3.300849e-001
         vertex 2.085127e+000 -5.039370e-001 3.652436e-001
         vertex 2.078510e+000 -5.039370e-001 3.727627e-001
      endloop
   endfacet
   facet normal 0.000000e+000 -1.000000e+000 0.000000e+000
      outer loop
         vertex 2.025239e+000 -5.039370e-001 3.300849e-001
         vertex 2.078510e+000 -5.039370e-001 3.727627e-001
         vertex 2.073258e+000 -5.039370e-001 3.812920e-001
      endloop
   endfacet
   facet normal 0.000000e+000 -1.000000e+000 0.000000e+000
      outer loop
         vertex 2.116009e+000 -5.039370e-001 4.660845e-001
         vertex 2.108994e+000 -5.039370e-001 5.340289e-001
         vertex 2.106316e+000 -5.039370e-001 4.635606e-001
      endloop
   endfacet
   facet normal 0.000000e+000 -1.000000e+000 0.000000e+000
      outer loop
         vertex 2.163089e+000 -5.039370e-001 4.538258e-001
         vertex 2.170321e+000 -5.039370e-001 4.468951e-001
         vertex 2.226741e+000 -5.039370e-001 4.856728e-001
      endloop
   endfacet
   facet normal 0.000000e+000 -1.000000e+000 0.000000e+000
      outer loop
         vertex 2.226741e+000 -5.039370e-001 4.856728e-001
         vertex 2.170321e+000 -5.039370e-001 4.468951e-001
         vertex 2.176277e+000 -5.039370e-001 4.388419e-001
      endloop
   endfacet
   facet normal 0.000000e+000 -1.000000e+000 0.000000e+000
      outer loop
         vertex 2.142986e+000 -5.039370e-001 2.817288e-001
         vertex 2.111109e+000 -5.039370e-001 3.507293e-001
         vertex 2.025239e+000 -5.039370e-001 3.300849e-001
      endloop
   endfacet
   facet normal 0.000000e+000 -1.000000e+000 0.000000e+000
      outer loop
         vertex 2.025239e+000 -5.039370e-001 3.300849e-001
         vertex 2.111109e+000 -5.039370e-001 3.507293e-001
         vertex 2.101665e+000 -5.039370e-001 3.540661e-001
      endloop
   endfacet
   facet normal 0.000000e+000 -1.000000e+000 0.000000e+000
      outer loop
         vertex 2.025239e+000 -5.039370e-001 3.300849e-001
         vertex 2.101665e+000 -5.039370e-001 3.540661e-001
         vertex 2.092920e+000 -5.039370e-001 3.589511e-001
      endloop
   endfacet
   facet normal 0.000000e+000 -1.000000e+000 0.000000e+000
      outer loop
         vertex 2.142986e+000 -5.039370e-001 2.817288e-001
         vertex 2.150315e+000 -5.039370e-001 3.540661e-001
         vertex 2.140870e+000 -5.039370e-001 3.507293e-001
      endloop
   endfacet
   facet normal 0.000000e+000 -1.000000e+000 0.000000e+000
      outer loop
         vertex 2.075703e+000 -5.039370e-001 4.388419e-001
         vertex 2.081659e+000 -5.039370e-001 4.468951e-001
         vertex 2.008243e+000 -5.039370e-001 4.562350e-001
      endloop
   endfacet
   facet normal 0.000000e+000 -1.000000e+000 0.000000e+000
      outer loop
         vertex 2.008243e+000 -5.039370e-001 4.562350e-001
         vertex 2.081659e+000 -5.039370e-001 4.468951e-001
         vertex 2.088890e+000 -5.039370e-001 4.538258e-001
      endloop
   endfacet
   facet normal 0.000000e+000 -1.000000e+000 0.000000e+000
      outer loop
         vertex 2.008243e+000 -5.039370e-001 4.562350e-001
         vertex 2.088890e+000 -5.039370e-001 4.538258e-001
         vertex 2.108994e+000 -5.039370e-001 5.340289e-001
      endloop
   endfacet
   facet normal 0.000000e+000 -1.000000e+000 0.000000e+000
      outer loop
         vertex 2.108994e+000 -5.039370e-001 5.340289e-001
         vertex 2.088890e+000 -5.039370e-001 4.538258e-001
         vertex 2.097189e+000 -5.039370e-001 4.594348e-001
      endloop
   endfacet
   facet normal 0.000000e+000 -1.000000e+000 0.000000e+000
      outer loop
         vertex 2.108994e+000 -5.039370e-001 5.340289e-001
         vertex 2.097189e+000 -5.039370e-001 4.594348e-001
         vertex 2.106316e+000 -5.039370e-001 4.635606e-001
      endloop
   endfacet
   facet normal 0.000000e+000 -1.000000e+000 0.000000e+000
      outer loop
         vertex 2.182456e+000 -5.039370e-001 3.905861e-001
         vertex 2.243737e+000 -5.039370e-001 3.595227e-001
         vertex 2.184566e+000 -5.039370e-001 4.003778e-001
      endloop
   endfacet
   facet normal 0.000000e+000 -1.000000e+000 0.000000e+000
      outer loop
         vertex 2.140870e+000 -5.039370e-001 3.507293e-001
         vertex 2.130998e+000 -5.039370e-001 3.490365e-001
         vertex 2.142986e+000 -5.039370e-001 2.817288e-001
      endloop
   endfacet
   facet normal 0.000000e+000 -1.000000e+000 0.000000e+000
      outer loop
         vertex 2.142986e+000 -5.039370e-001 2.817288e-001
         vertex 2.130998e+000 -5.039370e-001 3.490365e-001
         vertex 2.125990e+000 -5.039370e-001 3.488237e-001
      endloop
   endfacet
   facet normal 0.000000e+000 -1.000000e+000 0.000000e+000
      outer loop
         vertex 2.142986e+000 -5.039370e-001 2.817288e-001
         vertex 2.125990e+000 -5.039370e-001 3.488237e-001
         vertex 2.120982e+000 -5.039370e-001 3.490365e-001
      endloop
   endfacet
   facet normal 0.000000e+000 -1.000000e+000 0.000000e+000
      outer loop
         vertex 2.125990e+000 -5.039370e-001 4.669339e-001
         vertex 2.135970e+000 -5.039370e-001 4.660845e-001
         vertex 2.108994e+000 -5.039370e-001 5.340289e-001
      endloop
   endfacet
   facet normal 0.000000e+000 -1.000000e+000 0.000000e+000
      outer loop
         vertex 2.108994e+000 -5.039370e-001 5.340289e-001
         vertex 2.135970e+000 -5.039370e-001 4.660845e-001
         vertex 2.145663e+000 -5.039370e-001 4.635606e-001
      endloop
   endfacet
   facet normal 0.000000e+000 -1.000000e+000 0.000000e+000
      outer loop
         vertex 2.108994e+000 -5.039370e-001 5.340289e-001
         vertex 2.145663e+000 -5.039370e-001 4.635606e-001
         vertex 2.226741e+000 -5.039370e-001 4.856728e-001
      endloop
   endfacet
   facet normal 0.000000e+000 -1.000000e+000 0.000000e+000
      outer loop
         vertex 2.226741e+000 -5.039370e-001 4.856728e-001
         vertex 2.145663e+000 -5.039370e-001 4.635606e-001
         vertex 2.154791e+000 -5.039370e-001 4.594348e-001
      endloop
   endfacet
   facet normal 0.000000e+000 -1.000000e+000 0.000000e+000
      outer loop
         vertex 2.226741e+000 -5.039370e-001 4.856728e-001
         vertex 2.154791e+000 -5.039370e-001 4.594348e-001
         vertex 2.163089e+000 -5.039370e-001 4.538258e-001
      endloop
   endfacet
   facet normal 0.000000e+000 -1.000000e+000 0.000000e+000
      outer loop
         vertex 2.176277e+000 -5.039370e-001 4.388419e-001
         vertex 2.180786e+000 -5.039370e-001 4.298979e-001
         vertex 2.226741e+000 -5.039370e-001 4.856728e-001
      endloop
   endfacet
   facet normal 0.000000e+000 -1.000000e+000 0.000000e+000
      outer loop
         vertex 2.226741e+000 -5.039370e-001 4.856728e-001
         vertex 2.180786e+000 -5.039370e-001 4.298979e-001
         vertex 2.183719e+000 -5.039370e-001 4.203205e-001
      endloop
   endfacet
   facet normal 0.000000e+000 -1.000000e+000 0.000000e+000
      outer loop
         vertex 2.226741e+000 -5.039370e-001 4.856728e-001
         vertex 2.183719e+000 -5.039370e-001 4.203205e-001
         vertex 2.243737e+000 -5.039370e-001 3.595227e-001
      endloop
   endfacet
   facet normal 0.000000e+000 -1.000000e+000 0.000000e+000
      outer loop
         vertex 2.243737e+000 -5.039370e-001 3.595227e-001
         vertex 2.183719e+000 -5.039370e-001 4.203205e-001
         vertex 2.184992e+000 -5.039370e-001 4.103852e-001
      endloop
   endfacet
   facet normal 0.000000e+000 -1.000000e+000 0.000000e+000
      outer loop
         vertex 2.243737e+000 -5.039370e-001 3.595227e-001
         vertex 2.184992e+000 -5.039370e-001 4.103852e-001
         vertex 2.184566e+000 -5.039370e-001 4.003778e-001
      endloop
   endfacet
   facet normal 0.000000e+000 -1.000000e+000 0.000000e+000
      outer loop
         vertex 2.178721e+000 -5.039370e-001 3.812920e-001
         vertex 2.173470e+000 -5.039370e-001 3.727627e-001
         vertex 2.243737e+000 -5.039370e-001 3.595227e-001
      endloop
   endfacet
   facet normal 0.000000e+000 -1.000000e+000 0.000000e+000
      outer loop
         vertex 2.243737e+000 -5.039370e-001 3.595227e-001
         vertex 2.173470e+000 -5.039370e-001 3.727627e-001
         vertex 2.166852e+000 -5.039370e-001 3.652436e-001
      endloop
   endfacet
   facet normal 0.000000e+000 -1.000000e+000 0.000000e+000
      outer loop
         vertex 2.243737e+000 -5.039370e-001 3.595227e-001
         vertex 2.166852e+000 -5.039370e-001 3.652436e-001
         vertex 2.142986e+000 -5.039370e-001 2.817288e-001
      endloop
   endfacet
   facet normal 0.000000e+000 -1.000000e+000 0.000000e+000
      outer loop
         vertex 2.142986e+000 -5.039370e-001 2.817288e-001
         vertex 2.166852e+000 -5.039370e-001 3.652436e-001
         vertex 2.159059e+000 -5.039370e-001 3.589511e-001
      endloop
   endfacet
   facet normal 0.000000e+000 -1.000000e+000 0.000000e+000
      outer loop
         vertex 2.142986e+000 -5.039370e-001 2.817288e-001
         vertex 2.159059e+000 -5.039370e-001 3.589511e-001
         vertex 2.150315e+000 -5.039370e-001 3.540661e-001
      endloop
   endfacet
   facet normal -9.910460e-001 0.000000e+000 -1.335215e-001
      outer loop
         vertex 2.008243e+000 -2.048886e-016 4.562350e-001
         vertex 2.025239e+000 -2.048886e-016 3.300849e-001
         vertex 2.008243e+000 -5.039370e-001 4.562350e-001
      endloop
   endfacet
   facet normal -9.910460e-001 0.000000e+000 -1.335215e-001
      outer loop
         vertex 2.008243e+000 -5.039370e-001 4.562350e-001
         vertex 2.025239e+000 -2.048886e-016 3.300849e-001
         vertex 2.025239e+000 -5.039370e-001 3.300849e-001
      endloop
   endfacet
   facet normal -6.111559e-001 0.000000e+000 7.915103e-001
      outer loop
         vertex 2.108994e+000 -2.048886e-016 5.340289e-001
         vertex 2.008243e+000 -2.048886e-016 4.562350e-001
         vertex 2.108994e+000 -5.039370e-001 5.340289e-001
      endloop
   endfacet
   facet normal -6.111559e-001 0.000000e+000 7.915103e-001
      outer loop
         vertex 2.108994e+000 -5.039370e-001 5.340289e-001
         vertex 2.008243e+000 -2.048886e-016 4.562350e-001
         vertex 2.008243e+000 -5.039370e-001 4.562350e-001
      endloop
   endfacet
   facet normal 3.798900e-001 0.000000e+000 9.250317e-001
      outer loop
         vertex 2.226741e+000 -2.048886e-016 4.856728e-001
         vertex 2.108994e+000 -2.048886e-016 5.340289e-001
         vertex 2.226741e+000 -5.039370e-001 4.856728e-001
      endloop
   endfacet
   facet normal 3.798900e-001 0.000000e+000 9.250317e-001
      outer loop
         vertex 2.226741e+000 -5.039370e-001 4.856728e-001
         vertex 2.108994e+000 -2.048886e-016 5.340289e-001
         vertex 2.108994e+000 -5.039370e-001 5.340289e-001
      endloop
   endfacet
   facet normal 9.910460e-001 0.000000e+000 1.335215e-001
      outer loop
         vertex 2.243737e+000 -2.048886e-016 3.595227e-001
         vertex 2.226741e+000 -2.048886e-016 4.856728e-001
         vertex 2.243737e+000 -5.039370e-001 3.595227e-001
      endloop
   endfacet
   facet normal 9.910460e-001 0.000000e+000 1.335215e-001
      outer loop
         vertex 2.243737e+000 -5.039370e-001 3.595227e-001
         vertex 2.226741e+000 -2.048886e-016 4.856728e-001
         vertex 2.226741e+000 -5.039370e-001 4.856728e-001
      endloop
   endfacet
   facet normal 6.111559e-001 0.000000e+000 -7.915103e-001
      outer loop
         vertex 2.142986e+000 -2.048886e-016 2.817288e-001
         vertex 2.243737e+000 -2.048886e-016 3.595227e-001
         vertex 2.142986e+000 -5.039370e-001 2.817288e-001
      endloop
   endfacet
   facet normal 6.111559e-001 0.000000e+000 -7.915103e-001
      outer loop
         vertex 2.142986e+000 -5.039370e-001 2.817288e-001
         vertex 2.243737e+000 -2.048886e-016 3.595227e-001
         vertex 2.243737e+000 -5.039370e-001 3.595227e-001
      endloop
   endfacet
   facet normal -3.798900e-001 0.000000e+000 -9.250317e-001
      outer loop
         vertex 2.025239e+000 -2.048886e-016 3.300849e-001
         vertex 2.142986e+000 -2.048886e-016 2.817288e-001
         vertex 2.025239e+000 -5.039370e-001 3.300849e-001
      endloop
   endfacet
   facet normal -3.798900e-001 0.000000e+000 -9.250317e-001
      outer loop
         vertex 2.025239e+000 -5.039370e-001 3.300849e-001
         vertex 2.142986e+000 -2.048886e-016 2.817288e-001
         vertex 2.142986e+000 -5.039370e-001 2.817288e-001
      endloop
   endfacet
   facet normal -2.829130e-002 0.000000e+000 9.995998e-001
      outer loop
         vertex 2.130998e+000 -2.048886e-016 3.490365e-001
         vertex 2.125990e+000 -2.048886e-016 3.488237e-001
         vertex 2.125990e+000 -5.039370e-001 3.488237e-001
      endloop
   endfacet
   facet normal 2.829130e-002 0.000000e+000 9.995998e-001
      outer loop
         vertex 2.125990e+000 -5.039370e-001 3.488237e-001
         vertex 2.125990e+000 -2.048886e-016 3.488237e-001
         vertex 2.120982e+000 -5.039370e-001 3.490365e-001
      endloop
   endfacet
   facet normal -5.658260e-002 0.000000e+000 9.983979e-001
      outer loop
         vertex 2.125990e+000 -5.039370e-001 3.488237e-001
         vertex 2.130998e+000 -5.039370e-001 3.490365e-001
         vertex 2.130998e+000 -2.048886e-016 3.490365e-001
      endloop
   endfacet
   facet normal -1.409813e-001 0.000000e+000 9.900123e-001
      outer loop
         vertex 2.130998e+000 -2.048886e-016 3.490365e-001
         vertex 2.130998e+000 -5.039370e-001 3.490365e-001
         vertex 2.140870e+000 -5.039370e-001 3.507293e-001
      endloop
   endfacet
   facet normal -1.968844e-001 0.000000e+000 9.804267e-001
      outer loop
         vertex 2.130998e+000 -2.048886e-016 3.490365e-001
         vertex 2.140870e+000 -5.039370e-001 3.507293e-001
         vertex 2.140870e+000 -2.048886e-016 3.507293e-001
      endloop
   endfacet
   facet normal -3.062663e-001 0.000000e+000 9.519458e-001
      outer loop
         vertex 2.140870e+000 -2.048886e-016 3.507293e-001
         vertex 2.140870e+000 -5.039370e-001 3.507293e-001
         vertex 2.150315e+000 -5.039370e-001 3.540661e-001
      endloop
   endfacet
   facet normal -3.597453e-001 0.000000e+000 9.330506e-001
      outer loop
         vertex 2.140870e+000 -2.048886e-016 3.507293e-001
         vertex 2.150315e+000 -5.039370e-001 3.540661e-001
         vertex 2.150315e+000 -2.048886e-016 3.540661e-001
      endloop
   endfacet
   facet normal -4.627406e-001 0.000000e+000 8.864937e-001
      outer loop
         vertex 2.150315e+000 -2.048886e-016 3.540661e-001
         vertex 2.150315e+000 -5.039370e-001 3.540661e-001
         vertex 2.159059e+000 -5.039370e-001 3.589511e-001
      endloop
   endfacet
   facet normal -5.122570e-001 0.000000e+000 8.588322e-001
      outer loop
         vertex 2.150315e+000 -2.048886e-016 3.540661e-001
         vertex 2.159059e+000 -5.039370e-001 3.589511e-001
         vertex 2.159059e+000 -2.048886e-016 3.589511e-001
      endloop
   endfacet
   facet normal -6.059027e-001 0.000000e+000 7.955388e-001
      outer loop
         vertex 2.159059e+000 -2.048886e-016 3.589511e-001
         vertex 2.159059e+000 -5.039370e-001 3.589511e-001
         vertex 2.166852e+000 -5.039370e-001 3.652436e-001
      endloop
   endfacet
   facet normal -6.500320e-001 0.000000e+000 7.599069e-001
      outer loop
         vertex 2.159059e+000 -2.048886e-016 3.589511e-001
         vertex 2.166852e+000 -5.039370e-001 3.652436e-001
         vertex 2.166852e+000 -2.048886e-016 3.652436e-001
      endloop
   endfacet
   facet normal -7.316340e-001 0.000000e+000 6.816977e-001
      outer loop
         vertex 2.166852e+000 -2.048886e-016 3.652436e-001
         vertex 2.166852e+000 -5.039370e-001 3.652436e-001
         vertex 2.173470e+000 -5.039370e-001 3.727627e-001
      endloop
   endfacet
   facet normal -7.691067e-001 0.000000e+000 6.391203e-001
      outer loop
         vertex 2.166852e+000 -2.048886e-016 3.652436e-001
         vertex 2.173470e+000 -5.039370e-001 3.727627e-001
         vertex 2.173470e+000 -2.048886e-016 3.727627e-001
      endloop
   endfacet
   facet normal -8.363176e-001 0.000000e+000 5.482453e-001
      outer loop
         vertex 2.173470e+000 -2.048886e-016 3.727627e-001
         vertex 2.173470e+000 -5.039370e-001 3.727627e-001
         vertex 2.178721e+000 -5.039370e-001 3.812920e-001
      endloop
   endfacet
   facet normal -8.660557e-001 0.000000e+000 4.999475e-001
      outer loop
         vertex 2.173470e+000 -2.048886e-016 3.727627e-001
         vertex 2.178721e+000 -5.039370e-001 3.812920e-001
         vertex 2.178721e+000 -2.048886e-016 3.812920e-001
      endloop
   endfacet
   facet normal -9.169418e-001 0.000000e+000 3.990209e-001
      outer loop
         vertex 2.178721e+000 -2.048886e-016 3.812920e-001
         vertex 2.178721e+000 -5.039370e-001 3.812920e-001
         vertex 2.182456e+000 -5.039370e-001 3.905861e-001
      endloop
   endfacet
   facet normal -9.380898e-001 0.000000e+000 3.463921e-001
      outer loop
         vertex 2.178721e+000 -2.048886e-016 3.812920e-001
         vertex 2.182456e+000 -5.039370e-001 3.905861e-001
         vertex 2.182456e+000 -2.048886e-016 3.905861e-001
      endloop
   endfacet
   facet normal -9.711873e-001 0.000000e+000 2.383175e-001
      outer loop
         vertex 2.182456e+000 -2.048886e-016 3.905861e-001
         vertex 2.182456e+000 -5.039370e-001 3.905861e-001
         vertex 2.184566e+000 -5.039370e-001 4.003778e-001
      endloop
   endfacet
   facet normal -9.831368e-001 0.000000e+000 1.828716e-001
      outer loop
         vertex 2.182456e+000 -2.048886e-016 3.905861e-001
         vertex 2.184566e+000 -5.039370e-001 4.003778e-001
         vertex 2.184566e+000 -2.048886e-016 4.003778e-001
      endloop
   endfacet
   facet normal -9.974935e-001 0.000000e+000 7.075802e-002
      outer loop
         vertex 2.184566e+000 -2.048886e-016 4.003778e-001
         vertex 2.184566e+000 -5.039370e-001 4.003778e-001
         vertex 2.184992e+000 -5.039370e-001 4.103852e-001
      endloop
   endfacet
   facet normal -9.999007e-001 0.000000e+000 1.409025e-002
      outer loop
         vertex 2.184566e+000 -2.048886e-016 4.003778e-001
         vertex 2.184992e+000 -5.039370e-001 4.103852e-001
         vertex 2.184992e+000 -2.048886e-016 4.103852e-001
      endloop
   endfacet
   facet normal -9.951036e-001 0.000000e+000 -9.883699e-002
      outer loop
         vertex 2.184992e+000 -2.048886e-016 4.103852e-001
         vertex 2.184992e+000 -5.039370e-001 4.103852e-001
         vertex 2.183719e+000 -5.039370e-001 4.203205e-001
      endloop
   endfacet
   facet normal -9.878993e-001 0.000000e+000 -1.550965e-001
      outer loop
         vertex 2.184992e+000 -2.048886e-016 4.103852e-001
         vertex 2.183719e+000 -5.039370e-001 4.203205e-001
         vertex 2.183719e+000 -2.048886e-016 4.203205e-001
      endloop
   endfacet
   facet normal -9.640865e-001 0.000000e+000 -2.655886e-001
      outer loop
         vertex 2.183719e+000 -2.048886e-016 4.203205e-001
         vertex 2.183719e+000 -5.039370e-001 4.203205e-001
         vertex 2.180786e+000 -5.039370e-001 4.298979e-001
      endloop
   endfacet
   facet normal -9.474779e-001 0.000000e+000 -3.198213e-001
      outer loop
         vertex 2.183719e+000 -2.048886e-016 4.203205e-001
         vertex 2.180786e+000 -5.039370e-001 4.298979e-001
         vertex 2.180786e+000 -2.048886e-016 4.298979e-001
      endloop
   endfacet
   facet normal -9.053342e-001 0.000000e+000 -4.246998e-001
      outer loop
         vertex 2.180786e+000 -2.048886e-016 4.298979e-001
         vertex 2.180786e+000 -5.039370e-001 4.298979e-001
         vertex 2.176277e+000 -5.039370e-001 4.388419e-001
      endloop
   endfacet
   facet normal -8.797992e-001 0.000000e+000 -4.753455e-001
      outer loop
         vertex 2.180786e+000 -2.048886e-016 4.298979e-001
         vertex 2.176277e+000 -5.039370e-001 4.388419e-001
         vertex 2.176277e+000 -2.048886e-016 4.388419e-001
      endloop
   endfacet
   facet normal -8.205372e-001 0.000000e+000 -5.715931e-001
      outer loop
         vertex 2.176277e+000 -2.048886e-016 4.388419e-001
         vertex 2.176277e+000 -5.039370e-001 4.388419e-001
         vertex 2.170321e+000 -5.039370e-001 4.468951e-001
      endloop
   endfacet
   facet normal -7.868103e-001 0.000000e+000 -6.171949e-001
      outer loop
         vertex 2.176277e+000 -2.048886e-016 4.388419e-001
         vertex 2.170321e+000 -5.039370e-001 4.468951e-001
         vertex 2.170321e+000 -2.048886e-016 4.468951e-001
      endloop
   endfacet
   facet normal -7.121348e-001 0.000000e+000 -7.020428e-001
      outer loop
         vertex 2.170321e+000 -2.048886e-016 4.468951e-001
         vertex 2.170321e+000 -5.039370e-001 4.468951e-001
         vertex 2.163089e+000 -5.039370e-001 4.538258e-001
      endloop
   endfacet
   facet normal -6.711863e-001 0.000000e+000 -7.412888e-001
      outer loop
         vertex 2.170321e+000 -2.048886e-016 4.468951e-001
         vertex 2.163089e+000 -5.039370e-001 4.538258e-001
         vertex 2.163089e+000 -2.048886e-016 4.538258e-001
      endloop
   endfacet
   facet normal -5.832456e-001 0.000000e+000 -8.122959e-001
      outer loop
         vertex 2.163089e+000 -2.048886e-016 4.538258e-001
         vertex 2.163089e+000 -5.039370e-001 4.538258e-001
         vertex 2.154791e+000 -5.039370e-001 4.594348e-001
      endloop
   endfacet
   facet normal -5.362535e-001 0.000000e+000 -8.440570e-001
      outer loop
         vertex 2.163089e+000 -2.048886e-016 4.538258e-001
         vertex 2.154791e+000 -5.039370e-001 4.594348e-001
         vertex 2.154791e+000 -2.048886e-016 4.594348e-001
      endloop
   endfacet
   facet normal -4.375775e-001 0.000000e+000 -8.991807e-001
      outer loop
         vertex 2.154791e+000 -2.048886e-016 4.594348e-001
         vertex 2.154791e+000 -5.039370e-001 4.594348e-001
         vertex 2.145663e+000 -5.039370e-001 4.635606e-001
      endloop
   endfacet
   facet normal -3.858936e-001 0.000000e+000 -9.225433e-001
      outer loop
         vertex 2.154791e+000 -2.048886e-016 4.594348e-001
         vertex 2.145663e+000 -5.039370e-001 4.635606e-001
         vertex 2.145663e+000 -2.048886e-016 4.635606e-001
      endloop
   endfacet
   facet normal -2.793211e-001 0.000000e+000 -9.601977e-001
      outer loop
         vertex 2.145663e+000 -2.048886e-016 4.635606e-001
         vertex 2.145663e+000 -5.039370e-001 4.635606e-001
         vertex 2.135970e+000 -5.039370e-001 4.660845e-001
      endloop
   endfacet
   facet normal -2.244324e-001 0.000000e+000 -9.744897e-001
      outer loop
         vertex 2.145663e+000 -2.048886e-016 4.635606e-001
         vertex 2.135970e+000 -5.039370e-001 4.660845e-001
         vertex 2.135970e+000 -2.048886e-016 4.660845e-001
      endloop
   endfacet
   facet normal -1.130291e-001 0.000000e+000 -9.935917e-001
      outer loop
         vertex 2.135970e+000 -2.048886e-016 4.660845e-001
         vertex 2.135970e+000 -5.039370e-001 4.660845e-001
         vertex 2.125990e+000 -5.039370e-001 4.669339e-001
      endloop
   endfacet
   facet normal -5.651454e-002 0.000000e+000 -9.984018e-001
      outer loop
         vertex 2.135970e+000 -2.048886e-016 4.660845e-001
         vertex 2.125990e+000 -5.039370e-001 4.669339e-001
         vertex 2.125990e+000 -2.048886e-016 4.669339e-001
      endloop
   endfacet
   facet normal 5.651454e-002 0.000000e+000 -9.984018e-001
      outer loop
         vertex 2.125990e+000 -2.048886e-016 4.669339e-001
         vertex 2.125990e+000 -5.039370e-001 4.669339e-001
         vertex 2.116009e+000 -5.039370e-001 4.660845e-001
      endloop
   endfacet
   facet normal 1.130291e-001 0.000000e+000 -9.935917e-001
      outer loop
         vertex 2.125990e+000 -2.048886e-016 4.669339e-001
         vertex 2.116009e+000 -5.039370e-001 4.660845e-001
         vertex 2.116009e+000 -2.048886e-016 4.660845e-001
      endloop
   endfacet
   facet normal 2.244324e-001 0.000000e+000 -9.744897e-001
      outer loop
         vertex 2.116009e+000 -2.048886e-016 4.660845e-001
         vertex 2.116009e+000 -5.039370e-001 4.660845e-001
         vertex 2.106316e+000 -5.039370e-001 4.635606e-001
      endloop
   endfacet
   facet normal 2.793211e-001 0.000000e+000 -9.601977e-001
      outer loop
         vertex 2.116009e+000 -2.048886e-016 4.660845e-001
         vertex 2.106316e+000 -5.039370e-001 4.635606e-001
         vertex 2.106316e+000 -2.048886e-016 4.635606e-001
      endloop
   endfacet
   facet normal 3.858936e-001 0.000000e+000 -9.225433e-001
      outer loop
         vertex 2.106316e+000 -2.048886e-016 4.635606e-001
         vertex 2.106316e+000 -5.039370e-001 4.635606e-001
         vertex 2.097189e+000 -5.039370e-001 4.594348e-001
      endloop
   endfacet
   facet normal 4.375775e-001 0.000000e+000 -8.991807e-001
      outer loop
         vertex 2.106316e+000 -2.048886e-016 4.635606e-001
         vertex 2.097189e+000 -5.039370e-001 4.594348e-001
         vertex 2.097189e+000 -2.048886e-016 4.594348e-001
      endloop
   endfacet
   facet normal 5.362535e-001 0.000000e+000 -8.440570e-001
      outer loop
         vertex 2.097189e+000 -2.048886e-016 4.594348e-001
         vertex 2.097189e+000 -5.039370e-001 4.594348e-001
         vertex 2.088890e+000 -5.039370e-001 4.538258e-001
      endloop
   endfacet
   facet normal 5.832456e-001 0.000000e+000 -8.122959e-001
      outer loop
         vertex 2.097189e+000 -2.048886e-016 4.594348e-001
         vertex 2.088890e+000 -5.039370e-001 4.538258e-001
         vertex 2.088890e+000 -2.048886e-016 4.538258e-001
      endloop
   endfacet
   facet normal 6.711863e-001 0.000000e+000 -7.412888e-001
      outer loop
         vertex 2.088890e+000 -2.048886e-016 4.538258e-001
         vertex 2.088890e+000 -5.039370e-001 4.538258e-001
         vertex 2.081659e+000 -5.039370e-001 4.468951e-001
      endloop
   endfacet
   facet normal 7.121348e-001 0.000000e+000 -7.020428e-001
      outer loop
         vertex 2.088890e+000 -2.048886e-016 4.538258e-001
         vertex 2.081659e+000 -5.039370e-001 4.468951e-001
         vertex 2.081659e+000 -2.048886e-016 4.468951e-001
      endloop
   endfacet
   facet normal 7.868103e-001 0.000000e+000 -6.171949e-001
      outer loop
         vertex 2.081659e+000 -2.048886e-016 4.468951e-001
         vertex 2.081659e+000 -5.039370e-001 4.468951e-001
         vertex 2.075703e+000 -5.039370e-001 4.388419e-001
      endloop
   endfacet
   facet normal 8.205372e-001 0.000000e+000 -5.715931e-001
      outer loop
         vertex 2.081659e+000 -2.048886e-016 4.468951e-001
         vertex 2.075703e+000 -5.039370e-001 4.388419e-001
         vertex 2.075703e+000 -2.048886e-016 4.388419e-001
      endloop
   endfacet
   facet normal 8.797992e-001 0.000000e+000 -4.753455e-001
      outer loop
         vertex 2.075703e+000 -2.048886e-016 4.388419e-001
         vertex 2.075703e+000 -5.039370e-001 4.388419e-001
         vertex 2.071193e+000 -5.039370e-001 4.298979e-001
      endloop
   endfacet
   facet normal 9.053342e-001 0.000000e+000 -4.246998e-001
      outer loop
         vertex 2.075703e+000 -2.048886e-016 4.388419e-001
         vertex 2.071193e+000 -5.039370e-001 4.298979e-001
         vertex 2.071193e+000 -2.048886e-016 4.298979e-001
      endloop
   endfacet
   facet normal 9.474779e-001 0.000000e+000 -3.198213e-001
      outer loop
         vertex 2.071193e+000 -2.048886e-016 4.298979e-001
         vertex 2.071193e+000 -5.039370e-001 4.298979e-001
         vertex 2.068260e+000 -5.039370e-001 4.203205e-001
      endloop
   endfacet
   facet normal 9.640865e-001 0.000000e+000 -2.655886e-001
      outer loop
         vertex 2.071193e+000 -2.048886e-016 4.298979e-001
         vertex 2.068260e+000 -5.039370e-001 4.203205e-001
         vertex 2.068260e+000 -2.048886e-016 4.203205e-001
      endloop
   endfacet
   facet normal 9.878993e-001 0.000000e+000 -1.550965e-001
      outer loop
         vertex 2.068260e+000 -2.048886e-016 4.203205e-001
         vertex 2.068260e+000 -5.039370e-001 4.203205e-001
         vertex 2.066988e+000 -5.039370e-001 4.103852e-001
      endloop
   endfacet
   facet normal 9.951036e-001 0.000000e+000 -9.883699e-002
      outer loop
         vertex 2.068260e+000 -2.048886e-016 4.203205e-001
         vertex 2.066988e+000 -5.039370e-001 4.103852e-001
         vertex 2.066988e+000 -2.048886e-016 4.103852e-001
      endloop
   endfacet
   facet normal 9.999007e-001 0.000000e+000 1.409025e-002
      outer loop
         vertex 2.066988e+000 -2.048886e-016 4.103852e-001
         vertex 2.066988e+000 -5.039370e-001 4.103852e-001
         vertex 2.067413e+000 -5.039370e-001 4.003778e-001
      endloop
   endfacet
   facet normal 9.974935e-001 0.000000e+000 7.075802e-002
      outer loop
         vertex 2.066988e+000 -2.048886e-016 4.103852e-001
         vertex 2.067413e+000 -5.039370e-001 4.003778e-001
         vertex 2.067413e+000 -2.048886e-016 4.003778e-001
      endloop
   endfacet
   facet normal 9.831368e-001 0.000000e+000 1.828716e-001
      outer loop
         vertex 2.067413e+000 -2.048886e-016 4.003778e-001
         vertex 2.067413e+000 -5.039370e-001 4.003778e-001
         vertex 2.069523e+000 -5.039370e-001 3.905861e-001
      endloop
   endfacet
   facet normal 9.711873e-001 0.000000e+000 2.383175e-001
      outer loop
         vertex 2.067413e+000 -2.048886e-016 4.003778e-001
         vertex 2.069523e+000 -5.039370e-001 3.905861e-001
         vertex 2.069523e+000 -2.048886e-016 3.905861e-001
      endloop
   endfacet
   facet normal 9.380898e-001 0.000000e+000 3.463921e-001
      outer loop
         vertex 2.069523e+000 -2.048886e-016 3.905861e-001
         vertex 2.069523e+000 -5.039370e-001 3.905861e-001
         vertex 2.073258e+000 -5.039370e-001 3.812920e-001
      endloop
   endfacet
   facet normal 9.169418e-001 0.000000e+000 3.990209e-001
      outer loop
         vertex 2.069523e+000 -2.048886e-016 3.905861e-001
         vertex 2.073258e+000 -5.039370e-001 3.812920e-001
         vertex 2.073258e+000 -2.048886e-016 3.812920e-001
      endloop
   endfacet
   facet normal 8.660557e-001 0.000000e+000 4.999475e-001
      outer loop
         vertex 2.073258e+000 -2.048886e-016 3.812920e-001
         vertex 2.073258e+000 -5.039370e-001 3.812920e-001
         vertex 2.078510e+000 -5.039370e-001 3.727627e-001
      endloop
   endfacet
   facet normal 8.363176e-001 0.000000e+000 5.482453e-001
      outer loop
         vertex 2.073258e+000 -2.048886e-016 3.812920e-001
         vertex 2.078510e+000 -5.039370e-001 3.727627e-001
         vertex 2.078510e+000 -2.048886e-016 3.727627e-001
      endloop
   endfacet
   facet normal 7.691067e-001 0.000000e+000 6.391203e-001
      outer loop
         vertex 2.078510e+000 -2.048886e-016 3.727627e-001
         vertex 2.078510e+000 -5.039370e-001 3.727627e-001
         vertex 2.085127e+000 -5.039370e-001 3.652436e-001
      endloop
   endfacet
   facet normal 7.316340e-001 0.000000e+000 6.816977e-001
      outer loop
         vertex 2.078510e+000 -2.048886e-016 3.727627e-001
         vertex 2.085127e+000 -5.039370e-001 3.652436e-001
         vertex 2.085127e+000 -2.048886e-016 3.652436e-001
      endloop
   endfacet
   facet normal 6.500320e-001 0.000000e+000 7.599069e-001
      outer loop
         vertex 2.085127e+000 -2.048886e-016 3.652436e-001
         vertex 2.085127e+000 -5.039370e-001 3.652436e-001
         vertex 2.092920e+000 -5.039370e-001 3.589511e-001
      endloop
   endfacet
   facet normal 6.059027e-001 0.000000e+000 7.955388e-001
      outer loop
         vertex 2.085127e+000 -2.048886e-016 3.652436e-001
         vertex 2.092920e+000 -5.039370e-001 3.589511e-001
         vertex 2.092920e+000 -2.048886e-016 3.589511e-001
      endloop
   endfacet
   facet normal 5.122570e-001 0.000000e+000 8.588322e-001
      outer loop
         vertex 2.092920e+000 -2.048886e-016 3.589511e-001
         vertex 2.092920e+000 -5.039370e-001 3.589511e-001
         vertex 2.101665e+000 -5.039370e-001 3.540661e-001
      endloop
   endfacet
   facet normal 4.627406e-001 0.000000e+000 8.864937e-001
      outer loop
         vertex 2.092920e+000 -2.048886e-016 3.589511e-001
         vertex 2.101665e+000 -5.039370e-001 3.540661e-001
         vertex 2.101665e+000 -2.048886e-016 3.540661e-001
      endloop
   endfacet
   facet normal 3.597453e-001 0.000000e+000 9.330506e-001
      outer loop
         vertex 2.101665e+000 -2.048886e-016 3.540661e-001
         vertex 2.101665e+000 -5.039370e-001 3.540661e-001
         vertex 2.111109e+000 -5.039370e-001 3.507293e-001
      endloop
   endfacet
   facet normal 3.062663e-001 0.000000e+000 9.519458e-001
      outer loop
         vertex 2.101665e+000 -2.048886e-016 3.540661e-001
         vertex 2.111109e+000 -5.039370e-001 3.507293e-001
         vertex 2.111109e+000 -2.048886e-016 3.507293e-001
      endloop
   endfacet
   facet normal 1.968844e-001 0.000000e+000 9.804267e-001
      outer loop
         vertex 2.111109e+000 -2.048886e-016 3.507293e-001
         vertex 2.111109e+000 -5.039370e-001 3.507293e-001
         vertex 2.120982e+000 -5.039370e-001 3.490365e-001
      endloop
   endfacet
   facet normal 1.409813e-001 0.000000e+000 9.900123e-001
      outer loop
         vertex 2.111109e+000 -2.048886e-016 3.507293e-001
         vertex 2.120982e+000 -5.039370e-001 3.490365e-001
         vertex 2.120982e+000 -2.048886e-016 3.490365e-001
      endloop
   endfacet
   facet normal 5.658260e-002 0.000000e+000 9.983979e-001
      outer loop
         vertex 2.120982e+000 -2.048886e-016 3.490365e-001
         vertex 2.120982e+000 -5.039370e-001 3.490365e-001
         vertex 2.125990e+000 -2.048886e-016 3.488237e-001
      endloop
   endfacet
endsolid