solid Body50_Default_sldprt
   facet normal 0.000000e+000 1.000000e+000 0.000000e+000
      outer loop
         vertex -1.749713e+000 -6.829620e-017 2.133154e+000
         vertex -1.754721e+000 -6.829620e-017 2.133367e+000
         vertex -1.771717e+000 -6.829620e-017 2.200462e+000
      endloop
   endfacet
   facet normal 0.000000e+000 1.000000e+000 0.000000e+000
      outer loop
         vertex -1.771717e+000 -6.829620e-017 2.200462e+000
         vertex -1.754721e+000 -6.829620e-017 2.133367e+000
         vertex -1.759729e+000 -6.829620e-017 2.133154e+000
      endloop
   endfacet
   facet normal 0.000000e+000 1.000000e+000 0.000000e+000
      outer loop
         vertex -1.771717e+000 -6.829620e-017 2.200462e+000
         vertex -1.759729e+000 -6.829620e-017 2.133154e+000
         vertex -1.769602e+000 -6.829620e-017 2.131461e+000
      endloop
   endfacet
   facet normal 0.000000e+000 1.000000e+000 0.000000e+000
      outer loop
         vertex -1.799052e+000 -6.829620e-017 2.035295e+000
         vertex -1.855472e+000 -6.829620e-017 1.996518e+000
         vertex -1.805008e+000 -6.829620e-017 2.043349e+000
      endloop
   endfacet
   facet normal 0.000000e+000 1.000000e+000 0.000000e+000
      outer loop
         vertex -1.805008e+000 -6.829620e-017 2.043349e+000
         vertex -1.855472e+000 -6.829620e-017 1.996518e+000
         vertex -1.809518e+000 -6.829620e-017 2.052292e+000
      endloop
   endfacet
   facet normal 0.000000e+000 1.000000e+000 0.000000e+000
      outer loop
         vertex -1.811188e+000 -6.829620e-017 2.091604e+000
         vertex -1.872468e+000 -6.829620e-017 2.122668e+000
         vertex -1.807453e+000 -6.829620e-017 2.100898e+000
      endloop
   endfacet
   facet normal 0.000000e+000 1.000000e+000 0.000000e+000
      outer loop
         vertex -1.807453e+000 -6.829620e-017 2.100898e+000
         vertex -1.872468e+000 -6.829620e-017 2.122668e+000
         vertex -1.802201e+000 -6.829620e-017 2.109428e+000
      endloop
   endfacet
   facet normal 0.000000e+000 1.000000e+000 0.000000e+000
      outer loop
         vertex -1.799052e+000 -6.829620e-017 2.035295e+000
         vertex -1.791821e+000 -6.829620e-017 2.028364e+000
         vertex -1.855472e+000 -6.829620e-017 1.996518e+000
      endloop
   endfacet
   facet normal 0.000000e+000 1.000000e+000 0.000000e+000
      outer loop
         vertex -1.855472e+000 -6.829620e-017 1.996518e+000
         vertex -1.791821e+000 -6.829620e-017 2.028364e+000
         vertex -1.783522e+000 -6.829620e-017 2.022755e+000
      endloop
   endfacet
   facet normal 0.000000e+000 1.000000e+000 0.000000e+000
      outer loop
         vertex -1.855472e+000 -6.829620e-017 1.996518e+000
         vertex -1.783522e+000 -6.829620e-017 2.022755e+000
         vertex -1.737725e+000 -6.829620e-017 1.948161e+000
      endloop
   endfacet
   facet normal 0.000000e+000 1.000000e+000 0.000000e+000
      outer loop
         vertex -1.737725e+000 -6.829620e-017 1.948161e+000
         vertex -1.783522e+000 -6.829620e-017 2.022755e+000
         vertex -1.774395e+000 -6.829620e-017 2.018630e+000
      endloop
   endfacet
   facet normal 0.000000e+000 1.000000e+000 0.000000e+000
      outer loop
         vertex -1.774395e+000 -6.829620e-017 2.018630e+000
         vertex -1.764702e+000 -6.829620e-017 2.016106e+000
         vertex -1.737725e+000 -6.829620e-017 1.948161e+000
      endloop
   endfacet
   facet normal 0.000000e+000 1.000000e+000 0.000000e+000
      outer loop
         vertex -1.737725e+000 -6.829620e-017 1.948161e+000
         vertex -1.764702e+000 -6.829620e-017 2.016106e+000
         vertex -1.754721e+000 -6.829620e-017 2.015256e+000
      endloop
   endfacet
   facet normal 0.000000e+000 1.000000e+000 0.000000e+000
      outer loop
         vertex -1.737725e+000 -6.829620e-017 1.948161e+000
         vertex -1.754721e+000 -6.829620e-017 2.015256e+000
         vertex -1.744741e+000 -6.829620e-017 2.016106e+000
      endloop
   endfacet
   facet normal 0.000000e+000 1.000000e+000 0.000000e+000
      outer loop
         vertex -1.701989e+000 -6.829620e-017 2.100898e+000
         vertex -1.707241e+000 -6.829620e-017 2.109428e+000
         vertex -1.653970e+000 -6.829620e-017 2.152105e+000
      endloop
   endfacet
   facet normal 0.000000e+000 1.000000e+000 0.000000e+000
      outer loop
         vertex -1.653970e+000 -6.829620e-017 2.152105e+000
         vertex -1.707241e+000 -6.829620e-017 2.109428e+000
         vertex -1.713858e+000 -6.829620e-017 2.116947e+000
      endloop
   endfacet
   facet normal 0.000000e+000 1.000000e+000 0.000000e+000
      outer loop
         vertex -1.769602e+000 -6.829620e-017 2.131461e+000
         vertex -1.779046e+000 -6.829620e-017 2.128124e+000
         vertex -1.771717e+000 -6.829620e-017 2.200462e+000
      endloop
   endfacet
   facet normal 0.000000e+000 1.000000e+000 0.000000e+000
      outer loop
         vertex -1.771717e+000 -6.829620e-017 2.200462e+000
         vertex -1.779046e+000 -6.829620e-017 2.128124e+000
         vertex -1.787791e+000 -6.829620e-017 2.123239e+000
      endloop
   endfacet
   facet normal 0.000000e+000 1.000000e+000 0.000000e+000
      outer loop
         vertex -1.771717e+000 -6.829620e-017 2.200462e+000
         vertex -1.787791e+000 -6.829620e-017 2.123239e+000
         vertex -1.872468e+000 -6.829620e-017 2.122668e+000
      endloop
   endfacet
   facet normal 0.000000e+000 1.000000e+000 0.000000e+000
      outer loop
         vertex -1.872468e+000 -6.829620e-017 2.122668e+000
         vertex -1.787791e+000 -6.829620e-017 2.123239e+000
         vertex -1.795584e+000 -6.829620e-017 2.116947e+000
      endloop
   endfacet
   facet normal 0.000000e+000 1.000000e+000 0.000000e+000
      outer loop
         vertex -1.872468e+000 -6.829620e-017 2.122668e+000
         vertex -1.795584e+000 -6.829620e-017 2.116947e+000
         vertex -1.802201e+000 -6.829620e-017 2.109428e+000
      endloop
   endfacet
   facet normal 0.000000e+000 1.000000e+000 0.000000e+000
      outer loop
         vertex -1.744741e+000 -6.829620e-017 2.016106e+000
         vertex -1.735047e+000 -6.829620e-017 2.018630e+000
         vertex -1.737725e+000 -6.829620e-017 1.948161e+000
      endloop
   endfacet
   facet normal 0.000000e+000 1.000000e+000 0.000000e+000
      outer loop
         vertex -1.737725e+000 -6.829620e-017 1.948161e+000
         vertex -1.735047e+000 -6.829620e-017 2.018630e+000
         vertex -1.725920e+000 -6.829620e-017 2.022755e+000
      endloop
   endfacet
   facet normal 0.000000e+000 1.000000e+000 0.000000e+000
      outer loop
         vertex -1.737725e+000 -6.829620e-017 1.948161e+000
         vertex -1.725920e+000 -6.829620e-017 2.022755e+000
         vertex -1.636974e+000 -6.829620e-017 2.025955e+000
      endloop
   endfacet
   facet normal 0.000000e+000 1.000000e+000 0.000000e+000
      outer loop
         vertex -1.636974e+000 -6.829620e-017 2.025955e+000
         vertex -1.725920e+000 -6.829620e-017 2.022755e+000
         vertex -1.717622e+000 -6.829620e-017 2.028364e+000
      endloop
   endfacet
   facet normal 0.000000e+000 1.000000e+000 0.000000e+000
      outer loop
         vertex -1.636974e+000 -6.829620e-017 2.025955e+000
         vertex -1.717622e+000 -6.829620e-017 2.028364e+000
         vertex -1.710390e+000 -6.829620e-017 2.035295e+000
      endloop
   endfacet
   facet normal 0.000000e+000 1.000000e+000 0.000000e+000
      outer loop
         vertex -1.713858e+000 -6.829620e-017 2.116947e+000
         vertex -1.721652e+000 -6.829620e-017 2.123239e+000
         vertex -1.653970e+000 -6.829620e-017 2.152105e+000
      endloop
   endfacet
   facet normal 0.000000e+000 1.000000e+000 0.000000e+000
      outer loop
         vertex -1.653970e+000 -6.829620e-017 2.152105e+000
         vertex -1.721652e+000 -6.829620e-017 2.123239e+000
         vertex -1.730396e+000 -6.829620e-017 2.128124e+000
      endloop
   endfacet
   facet normal 0.000000e+000 1.000000e+000 0.000000e+000
      outer loop
         vertex -1.653970e+000 -6.829620e-017 2.152105e+000
         vertex -1.730396e+000 -6.829620e-017 2.128124e+000
         vertex -1.771717e+000 -6.829620e-017 2.200462e+000
      endloop
   endfacet
   facet normal 0.000000e+000 1.000000e+000 0.000000e+000
      outer loop
         vertex -1.771717e+000 -6.829620e-017 2.200462e+000
         vertex -1.730396e+000 -6.829620e-017 2.128124e+000
         vertex -1.739841e+000 -6.829620e-017 2.131461e+000
      endloop
   endfacet
   facet normal 0.000000e+000 1.000000e+000 0.000000e+000
      outer loop
         vertex -1.771717e+000 -6.829620e-017 2.200462e+000
         vertex -1.739841e+000 -6.829620e-017 2.131461e+000
         vertex -1.749713e+000 -6.829620e-017 2.133154e+000
      endloop
   endfacet
   facet normal 0.000000e+000 1.000000e+000 0.000000e+000
      outer loop
         vertex -1.811188e+000 -6.829620e-017 2.091604e+000
         vertex -1.813298e+000 -6.829620e-017 2.081812e+000
         vertex -1.872468e+000 -6.829620e-017 2.122668e+000
      endloop
   endfacet
   facet normal 0.000000e+000 1.000000e+000 0.000000e+000
      outer loop
         vertex -1.872468e+000 -6.829620e-017 2.122668e+000
         vertex -1.813298e+000 -6.829620e-017 2.081812e+000
         vertex -1.813723e+000 -6.829620e-017 2.071805e+000
      endloop
   endfacet
   facet normal 0.000000e+000 1.000000e+000 0.000000e+000
      outer loop
         vertex -1.872468e+000 -6.829620e-017 2.122668e+000
         vertex -1.813723e+000 -6.829620e-017 2.071805e+000
         vertex -1.855472e+000 -6.829620e-017 1.996518e+000
      endloop
   endfacet
   facet normal 0.000000e+000 1.000000e+000 0.000000e+000
      outer loop
         vertex -1.855472e+000 -6.829620e-017 1.996518e+000
         vertex -1.813723e+000 -6.829620e-017 2.071805e+000
         vertex -1.812451e+000 -6.829620e-017 2.061870e+000
      endloop
   endfacet
   facet normal 0.000000e+000 1.000000e+000 0.000000e+000
      outer loop
         vertex -1.855472e+000 -6.829620e-017 1.996518e+000
         vertex -1.812451e+000 -6.829620e-017 2.061870e+000
         vertex -1.809518e+000 -6.829620e-017 2.052292e+000
      endloop
   endfacet
   facet normal 0.000000e+000 1.000000e+000 0.000000e+000
      outer loop
         vertex -1.710390e+000 -6.829620e-017 2.035295e+000
         vertex -1.704434e+000 -6.829620e-017 2.043349e+000
         vertex -1.636974e+000 -6.829620e-017 2.025955e+000
      endloop
   endfacet
   facet normal 0.000000e+000 1.000000e+000 0.000000e+000
      outer loop
         vertex -1.636974e+000 -6.829620e-017 2.025955e+000
         vertex -1.704434e+000 -6.829620e-017 2.043349e+000
         vertex -1.699924e+000 -6.829620e-017 2.052292e+000
      endloop
   endfacet
   facet normal 0.000000e+000 1.000000e+000 0.000000e+000
      outer loop
         vertex -1.636974e+000 -6.829620e-017 2.025955e+000
         vertex -1.699924e+000 -6.829620e-017 2.052292e+000
         vertex -1.696991e+000 -6.829620e-017 2.061870e+000
      endloop
   endfacet
   facet normal 0.000000e+000 1.000000e+000 0.000000e+000
      outer loop
         vertex -1.696991e+000 -6.829620e-017 2.061870e+000
         vertex -1.695719e+000 -6.829620e-017 2.071805e+000
         vertex -1.636974e+000 -6.829620e-017 2.025955e+000
      endloop
   endfacet
   facet normal 0.000000e+000 1.000000e+000 0.000000e+000
      outer loop
         vertex -1.636974e+000 -6.829620e-017 2.025955e+000
         vertex -1.695719e+000 -6.829620e-017 2.071805e+000
         vertex -1.696144e+000 -6.829620e-017 2.081812e+000
      endloop
   endfacet
   facet normal 0.000000e+000 1.000000e+000 0.000000e+000
      outer loop
         vertex -1.636974e+000 -6.829620e-017 2.025955e+000
         vertex -1.696144e+000 -6.829620e-017 2.081812e+000
         vertex -1.653970e+000 -6.829620e-017 2.152105e+000
      endloop
   endfacet
   facet normal 0.000000e+000 1.000000e+000 0.000000e+000
      outer loop
         vertex -1.653970e+000 -6.829620e-017 2.152105e+000
         vertex -1.696144e+000 -6.829620e-017 2.081812e+000
         vertex -1.698255e+000 -6.829620e-017 2.091604e+000
      endloop
   endfacet
   facet normal 0.000000e+000 1.000000e+000 0.000000e+000
      outer loop
         vertex -1.653970e+000 -6.829620e-017 2.152105e+000
         vertex -1.698255e+000 -6.829620e-017 2.091604e+000
         vertex -1.701989e+000 -6.829620e-017 2.100898e+000
      endloop
   endfacet
   facet normal 0.000000e+000 -1.000000e+000 0.000000e+000
      outer loop
         vertex -1.744741e+000 -5.039370e-001 2.016106e+000
         vertex -1.754721e+000 -5.039370e-001 2.015256e+000
         vertex -1.737725e+000 -5.039370e-001 1.948161e+000
      endloop
   endfacet
   facet normal 0.000000e+000 -1.000000e+000 0.000000e+000
      outer loop
         vertex -1.744741e+000 -5.039370e-001 2.016106e+000
         vertex -1.737725e+000 -5.039370e-001 1.948161e+000
         vertex -1.735047e+000 -5.039370e-001 2.018630e+000
      endloop
   endfacet
   facet normal 0.000000e+000 -1.000000e+000 0.000000e+000
      outer loop
         vertex -1.779046e+000 -5.039370e-001 2.128124e+000
         vertex -1.769602e+000 -5.039370e-001 2.131461e+000
         vertex -1.771717e+000 -5.039370e-001 2.200462e+000
      endloop
   endfacet
   facet normal 0.000000e+000 -1.000000e+000 0.000000e+000
      outer loop
         vertex -1.771717e+000 -5.039370e-001 2.200462e+000
         vertex -1.769602e+000 -5.039370e-001 2.131461e+000
         vertex -1.759729e+000 -5.039370e-001 2.133154e+000
      endloop
   endfacet
   facet normal 0.000000e+000 -1.000000e+000 0.000000e+000
      outer loop
         vertex -1.730396e+000 -5.039370e-001 2.128124e+000
         vertex -1.653970e+000 -5.039370e-001 2.152105e+000
         vertex -1.739841e+000 -5.039370e-001 2.131461e+000
      endloop
   endfacet
   facet normal 0.000000e+000 -1.000000e+000 0.000000e+000
      outer loop
         vertex -1.739841e+000 -5.039370e-001 2.131461e+000
         vertex -1.653970e+000 -5.039370e-001 2.152105e+000
         vertex -1.771717e+000 -5.039370e-001 2.200462e+000
      endloop
   endfacet
   facet normal 0.000000e+000 -1.000000e+000 0.000000e+000
      outer loop
         vertex -1.783522e+000 -5.039370e-001 2.022755e+000
         vertex -1.855472e+000 -5.039370e-001 1.996518e+000
         vertex -1.774395e+000 -5.039370e-001 2.018630e+000
      endloop
   endfacet
   facet normal 0.000000e+000 -1.000000e+000 0.000000e+000
      outer loop
         vertex -1.774395e+000 -5.039370e-001 2.018630e+000
         vertex -1.855472e+000 -5.039370e-001 1.996518e+000
         vertex -1.737725e+000 -5.039370e-001 1.948161e+000
      endloop
   endfacet
   facet normal 0.000000e+000 -1.000000e+000 0.000000e+000
      outer loop
         vertex -1.774395e+000 -5.039370e-001 2.018630e+000
         vertex -1.737725e+000 -5.039370e-001 1.948161e+000
         vertex -1.764702e+000 -5.039370e-001 2.016106e+000
      endloop
   endfacet
   facet normal 0.000000e+000 -1.000000e+000 0.000000e+000
      outer loop
         vertex -1.764702e+000 -5.039370e-001 2.016106e+000
         vertex -1.737725e+000 -5.039370e-001 1.948161e+000
         vertex -1.754721e+000 -5.039370e-001 2.015256e+000
      endloop
   endfacet
   facet normal 0.000000e+000 -1.000000e+000 0.000000e+000
      outer loop
         vertex -1.783522e+000 -5.039370e-001 2.022755e+000
         vertex -1.791821e+000 -5.039370e-001 2.028364e+000
         vertex -1.855472e+000 -5.039370e-001 1.996518e+000
      endloop
   endfacet
   facet normal 0.000000e+000 -1.000000e+000 0.000000e+000
      outer loop
         vertex -1.855472e+000 -5.039370e-001 1.996518e+000
         vertex -1.791821e+000 -5.039370e-001 2.028364e+000
         vertex -1.799052e+000 -5.039370e-001 2.035295e+000
      endloop
   endfacet
   facet normal 0.000000e+000 -1.000000e+000 0.000000e+000
      outer loop
         vertex -1.855472e+000 -5.039370e-001 1.996518e+000
         vertex -1.799052e+000 -5.039370e-001 2.035295e+000
         vertex -1.805008e+000 -5.039370e-001 2.043349e+000
      endloop
   endfacet
   facet normal 0.000000e+000 -1.000000e+000 0.000000e+000
      outer loop
         vertex -1.730396e+000 -5.039370e-001 2.128124e+000
         vertex -1.721652e+000 -5.039370e-001 2.123239e+000
         vertex -1.653970e+000 -5.039370e-001 2.152105e+000
      endloop
   endfacet
   facet normal 0.000000e+000 -1.000000e+000 0.000000e+000
      outer loop
         vertex -1.653970e+000 -5.039370e-001 2.152105e+000
         vertex -1.721652e+000 -5.039370e-001 2.123239e+000
         vertex -1.713858e+000 -5.039370e-001 2.116947e+000
      endloop
   endfacet
   facet normal 0.000000e+000 -1.000000e+000 0.000000e+000
      outer loop
         vertex -1.653970e+000 -5.039370e-001 2.152105e+000
         vertex -1.713858e+000 -5.039370e-001 2.116947e+000
         vertex -1.707241e+000 -5.039370e-001 2.109428e+000
      endloop
   endfacet
   facet normal 0.000000e+000 -1.000000e+000 0.000000e+000
      outer loop
         vertex -1.704434e+000 -5.039370e-001 2.043349e+000
         vertex -1.710390e+000 -5.039370e-001 2.035295e+000
         vertex -1.636974e+000 -5.039370e-001 2.025955e+000
      endloop
   endfacet
   facet normal 0.000000e+000 -1.000000e+000 0.000000e+000
      outer loop
         vertex -1.636974e+000 -5.039370e-001 2.025955e+000
         vertex -1.710390e+000 -5.039370e-001 2.035295e+000
         vertex -1.717622e+000 -5.039370e-001 2.028364e+000
      endloop
   endfacet
   facet normal 0.000000e+000 -1.000000e+000 0.000000e+000
      outer loop
         vertex -1.636974e+000 -5.039370e-001 2.025955e+000
         vertex -1.717622e+000 -5.039370e-001 2.028364e+000
         vertex -1.737725e+000 -5.039370e-001 1.948161e+000
      endloop
   endfacet
   facet normal 0.000000e+000 -1.000000e+000 0.000000e+000
      outer loop
         vertex -1.737725e+000 -5.039370e-001 1.948161e+000
         vertex -1.717622e+000 -5.039370e-001 2.028364e+000
         vertex -1.725920e+000 -5.039370e-001 2.022755e+000
      endloop
   endfacet
   facet normal 0.000000e+000 -1.000000e+000 0.000000e+000
      outer loop
         vertex -1.737725e+000 -5.039370e-001 1.948161e+000
         vertex -1.725920e+000 -5.039370e-001 2.022755e+000
         vertex -1.735047e+000 -5.039370e-001 2.018630e+000
      endloop
   endfacet
   facet normal 0.000000e+000 -1.000000e+000 0.000000e+000
      outer loop
         vertex -1.813298e+000 -5.039370e-001 2.081812e+000
         vertex -1.811188e+000 -5.039370e-001 2.091604e+000
         vertex -1.872468e+000 -5.039370e-001 2.122668e+000
      endloop
   endfacet
   facet normal 0.000000e+000 -1.000000e+000 0.000000e+000
      outer loop
         vertex -1.872468e+000 -5.039370e-001 2.122668e+000
         vertex -1.811188e+000 -5.039370e-001 2.091604e+000
         vertex -1.807453e+000 -5.039370e-001 2.100898e+000
      endloop
   endfacet
   facet normal 0.000000e+000 -1.000000e+000 0.000000e+000
      outer loop
         vertex -1.759729e+000 -5.039370e-001 2.133154e+000
         vertex -1.754721e+000 -5.039370e-001 2.133367e+000
         vertex -1.771717e+000 -5.039370e-001 2.200462e+000
      endloop
   endfacet
   facet normal 0.000000e+000 -1.000000e+000 0.000000e+000
      outer loop
         vertex -1.771717e+000 -5.039370e-001 2.200462e+000
         vertex -1.754721e+000 -5.039370e-001 2.133367e+000
         vertex -1.749713e+000 -5.039370e-001 2.133154e+000
      endloop
   endfacet
   facet normal 0.000000e+000 -1.000000e+000 0.000000e+000
      outer loop
         vertex -1.771717e+000 -5.039370e-001 2.200462e+000
         vertex -1.749713e+000 -5.039370e-001 2.133154e+000
         vertex -1.739841e+000 -5.039370e-001 2.131461e+000
      endloop
   endfacet
   facet normal 0.000000e+000 -1.000000e+000 0.000000e+000
      outer loop
         vertex -1.695719e+000 -5.039370e-001 2.071805e+000
         vertex -1.696991e+000 -5.039370e-001 2.061870e+000
         vertex -1.636974e+000 -5.039370e-001 2.025955e+000
      endloop
   endfacet
   facet normal 0.000000e+000 -1.000000e+000 0.000000e+000
      outer loop
         vertex -1.636974e+000 -5.039370e-001 2.025955e+000
         vertex -1.696991e+000 -5.039370e-001 2.061870e+000
         vertex -1.699924e+000 -5.039370e-001 2.052292e+000
      endloop
   endfacet
   facet normal 0.000000e+000 -1.000000e+000 0.000000e+000
      outer loop
         vertex -1.636974e+000 -5.039370e-001 2.025955e+000
         vertex -1.699924e+000 -5.039370e-001 2.052292e+000
         vertex -1.704434e+000 -5.039370e-001 2.043349e+000
      endloop
   endfacet
   facet normal 0.000000e+000 -1.000000e+000 0.000000e+000
      outer loop
         vertex -1.807453e+000 -5.039370e-001 2.100898e+000
         vertex -1.802201e+000 -5.039370e-001 2.109428e+000
         vertex -1.872468e+000 -5.039370e-001 2.122668e+000
      endloop
   endfacet
   facet normal 0.000000e+000 -1.000000e+000 0.000000e+000
      outer loop
         vertex -1.872468e+000 -5.039370e-001 2.122668e+000
         vertex -1.802201e+000 -5.039370e-001 2.109428e+000
         vertex -1.795584e+000 -5.039370e-001 2.116947e+000
      endloop
   endfacet
   facet normal 0.000000e+000 -1.000000e+000 0.000000e+000
      outer loop
         vertex -1.872468e+000 -5.039370e-001 2.122668e+000
         vertex -1.795584e+000 -5.039370e-001 2.116947e+000
         vertex -1.771717e+000 -5.039370e-001 2.200462e+000
      endloop
   endfacet
   facet normal 0.000000e+000 -1.000000e+000 0.000000e+000
      outer loop
         vertex -1.771717e+000 -5.039370e-001 2.200462e+000
         vertex -1.795584e+000 -5.039370e-001 2.116947e+000
         vertex -1.787791e+000 -5.039370e-001 2.123239e+000
      endloop
   endfacet
   facet normal 0.000000e+000 -1.000000e+000 0.000000e+000
      outer loop
         vertex -1.771717e+000 -5.039370e-001 2.200462e+000
         vertex -1.787791e+000 -5.039370e-001 2.123239e+000
         vertex -1.779046e+000 -5.039370e-001 2.128124e+000
      endloop
   endfacet
   facet normal 0.000000e+000 -1.000000e+000 0.000000e+000
      outer loop
         vertex -1.707241e+000 -5.039370e-001 2.109428e+000
         vertex -1.701989e+000 -5.039370e-001 2.100898e+000
         vertex -1.653970e+000 -5.039370e-001 2.152105e+000
      endloop
   endfacet
   facet normal 0.000000e+000 -1.000000e+000 0.000000e+000
      outer loop
         vertex -1.653970e+000 -5.039370e-001 2.152105e+000
         vertex -1.701989e+000 -5.039370e-001 2.100898e+000
         vertex -1.698255e+000 -5.039370e-001 2.091604e+000
      endloop
   endfacet
   facet normal 0.000000e+000 -1.000000e+000 0.000000e+000
      outer loop
         vertex -1.653970e+000 -5.039370e-001 2.152105e+000
         vertex -1.698255e+000 -5.039370e-001 2.091604e+000
         vertex -1.636974e+000 -5.039370e-001 2.025955e+000
      endloop
   endfacet
   facet normal 0.000000e+000 -1.000000e+000 0.000000e+000
      outer loop
         vertex -1.636974e+000 -5.039370e-001 2.025955e+000
         vertex -1.698255e+000 -5.039370e-001 2.091604e+000
         vertex -1.696144e+000 -5.039370e-001 2.081812e+000
      endloop
   endfacet
   facet normal 0.000000e+000 -1.000000e+000 0.000000e+000
      outer loop
         vertex -1.636974e+000 -5.039370e-001 2.025955e+000
         vertex -1.696144e+000 -5.039370e-001 2.081812e+000
         vertex -1.695719e+000 -5.039370e-001 2.071805e+000
      endloop
   endfacet
   facet normal 0.000000e+000 -1.000000e+000 0.000000e+000
      outer loop
         vertex -1.805008e+000 -5.039370e-001 2.043349e+000
         vertex -1.809518e+000 -5.039370e-001 2.052292e+000
         vertex -1.855472e+000 -5.039370e-001 1.996518e+000
      endloop
   endfacet
   facet normal 0.000000e+000 -1.000000e+000 0.000000e+000
      outer loop
         vertex -1.855472e+000 -5.039370e-001 1.996518e+000
         vertex -1.809518e+000 -5.039370e-001 2.052292e+000
         vertex -1.812451e+000 -5.039370e-001 2.061870e+000
      endloop
   endfacet
   facet normal 0.000000e+000 -1.000000e+000 0.000000e+000
      outer loop
         vertex -1.855472e+000 -5.039370e-001 1.996518e+000
         vertex -1.812451e+000 -5.039370e-001 2.061870e+000
         vertex -1.872468e+000 -5.039370e-001 2.122668e+000
      endloop
   endfacet
   facet normal 0.000000e+000 -1.000000e+000 0.000000e+000
      outer loop
         vertex -1.872468e+000 -5.039370e-001 2.122668e+000
         vertex -1.812451e+000 -5.039370e-001 2.061870e+000
         vertex -1.813723e+000 -5.039370e-001 2.071805e+000
      endloop
   endfacet
   facet normal 0.000000e+000 -1.000000e+000 0.000000e+000
      outer loop
         vertex -1.872468e+000 -5.039370e-001 2.122668e+000
         vertex -1.813723e+000 -5.039370e-001 2.071805e+000
         vertex -1.813298e+000 -5.039370e-001 2.081812e+000
      endloop
   endfacet
   facet normal 9.910460e-001 0.000000e+000 1.335215e-001
      outer loop
         vertex -1.636974e+000 -6.829620e-017 2.025955e+000
         vertex -1.653970e+000 -6.829620e-017 2.152105e+000
         vertex -1.636974e+000 -5.039370e-001 2.025955e+000
      endloop
   endfacet
   facet normal 9.910460e-001 0.000000e+000 1.335215e-001
      outer loop
         vertex -1.636974e+000 -5.039370e-001 2.025955e+000
         vertex -1.653970e+000 -6.829620e-017 2.152105e+000
         vertex -1.653970e+000 -5.039370e-001 2.152105e+000
      endloop
   endfacet
   facet normal 6.111559e-001 0.000000e+000 -7.915103e-001
      outer loop
         vertex -1.737725e+000 -6.829620e-017 1.948161e+000
         vertex -1.636974e+000 -6.829620e-017 2.025955e+000
         vertex -1.737725e+000 -5.039370e-001 1.948161e+000
      endloop
   endfacet
   facet normal 6.111559e-001 0.000000e+000 -7.915103e-001
      outer loop
         vertex -1.737725e+000 -5.039370e-001 1.948161e+000
         vertex -1.636974e+000 -6.829620e-017 2.025955e+000
         vertex -1.636974e+000 -5.039370e-001 2.025955e+000
      endloop
   endfacet
   facet normal -3.798900e-001 0.000000e+000 -9.250317e-001
      outer loop
         vertex -1.855472e+000 -6.829620e-017 1.996518e+000
         vertex -1.737725e+000 -6.829620e-017 1.948161e+000
         vertex -1.855472e+000 -5.039370e-001 1.996518e+000
      endloop
   endfacet
   facet normal -3.798900e-001 0.000000e+000 -9.250317e-001
      outer loop
         vertex -1.855472e+000 -5.039370e-001 1.996518e+000
         vertex -1.737725e+000 -6.829620e-017 1.948161e+000
         vertex -1.737725e+000 -5.039370e-001 1.948161e+000
      endloop
   endfacet
   facet normal -9.910460e-001 0.000000e+000 -1.335215e-001
      outer loop
         vertex -1.872468e+000 -6.829620e-017 2.122668e+000
         vertex -1.855472e+000 -6.829620e-017 1.996518e+000
         vertex -1.872468e+000 -5.039370e-001 2.122668e+000
      endloop
   endfacet
   facet normal -9.910460e-001 0.000000e+000 -1.335215e-001
      outer loop
         vertex -1.872468e+000 -5.039370e-001 2.122668e+000
         vertex -1.855472e+000 -6.829620e-017 1.996518e+000
         vertex -1.855472e+000 -5.039370e-001 1.996518e+000
      endloop
   endfacet
   facet normal -6.111559e-001 0.000000e+000 7.915103e-001
      outer loop
         vertex -1.771717e+000 -6.829620e-017 2.200462e+000
         vertex -1.872468e+000 -6.829620e-017 2.122668e+000
         vertex -1.771717e+000 -5.039370e-001 2.200462e+000
      endloop
   endfacet
   facet normal -6.111559e-001 0.000000e+000 7.915103e-001
      outer loop
         vertex -1.771717e+000 -5.039370e-001 2.200462e+000
         vertex -1.872468e+000 -6.829620e-017 2.122668e+000
         vertex -1.872468e+000 -5.039370e-001 2.122668e+000
      endloop
   endfacet
   facet normal 3.798900e-001 0.000000e+000 9.250317e-001
      outer loop
         vertex -1.653970e+000 -6.829620e-017 2.152105e+000
         vertex -1.771717e+000 -6.829620e-017 2.200462e+000
         vertex -1.653970e+000 -5.039370e-001 2.152105e+000
      endloop
   endfacet
   facet normal 3.798900e-001 0.000000e+000 9.250317e-001
      outer loop
         vertex -1.653970e+000 -5.039370e-001 2.152105e+000
         vertex -1.771717e+000 -6.829620e-017 2.200462e+000
         vertex -1.771717e+000 -5.039370e-001 2.200462e+000
      endloop
   endfacet
   facet normal 2.829130e-002 0.000000e+000 -9.995998e-001
      outer loop
         vertex -1.759729e+000 -6.829620e-017 2.133154e+000
         vertex -1.754721e+000 -6.829620e-017 2.133367e+000
         vertex -1.754721e+000 -5.039370e-001 2.133367e+000
      endloop
   endfacet
   facet normal -2.829130e-002 0.000000e+000 -9.995998e-001
      outer loop
         vertex -1.754721e+000 -5.039370e-001 2.133367e+000
         vertex -1.754721e+000 -6.829620e-017 2.133367e+000
         vertex -1.749713e+000 -5.039370e-001 2.133154e+000
      endloop
   endfacet
   facet normal 5.658260e-002 0.000000e+000 -9.983979e-001
      outer loop
         vertex -1.754721e+000 -5.039370e-001 2.133367e+000
         vertex -1.759729e+000 -5.039370e-001 2.133154e+000
         vertex -1.759729e+000 -6.829620e-017 2.133154e+000
      endloop
   endfacet
   facet normal 1.409813e-001 0.000000e+000 -9.900123e-001
      outer loop
         vertex -1.759729e+000 -6.829620e-017 2.133154e+000
         vertex -1.759729e+000 -5.039370e-001 2.133154e+000
         vertex -1.769602e+000 -5.039370e-001 2.131461e+000
      endloop
   endfacet
   facet normal 1.968844e-001 0.000000e+000 -9.804267e-001
      outer loop
         vertex -1.759729e+000 -6.829620e-017 2.133154e+000
         vertex -1.769602e+000 -5.039370e-001 2.131461e+000
         vertex -1.769602e+000 -6.829620e-017 2.131461e+000
      endloop
   endfacet
   facet normal 3.062663e-001 0.000000e+000 -9.519458e-001
      outer loop
         vertex -1.769602e+000 -6.829620e-017 2.131461e+000
         vertex -1.769602e+000 -5.039370e-001 2.131461e+000
         vertex -1.779046e+000 -5.039370e-001 2.128124e+000
      endloop
   endfacet
   facet normal 3.597453e-001 0.000000e+000 -9.330506e-001
      outer loop
         vertex -1.769602e+000 -6.829620e-017 2.131461e+000
         vertex -1.779046e+000 -5.039370e-001 2.128124e+000
         vertex -1.779046e+000 -6.829620e-017 2.128124e+000
      endloop
   endfacet
   facet normal 4.627406e-001 0.000000e+000 -8.864937e-001
      outer loop
         vertex -1.779046e+000 -6.829620e-017 2.128124e+000
         vertex -1.779046e+000 -5.039370e-001 2.128124e+000
         vertex -1.787791e+000 -5.039370e-001 2.123239e+000
      endloop
   endfacet
   facet normal 5.122570e-001 0.000000e+000 -8.588322e-001
      outer loop
         vertex -1.779046e+000 -6.829620e-017 2.128124e+000
         vertex -1.787791e+000 -5.039370e-001 2.123239e+000
         vertex -1.787791e+000 -6.829620e-017 2.123239e+000
      endloop
   endfacet
   facet normal 6.059027e-001 0.000000e+000 -7.955388e-001
      outer loop
         vertex -1.787791e+000 -6.829620e-017 2.123239e+000
         vertex -1.787791e+000 -5.039370e-001 2.123239e+000
         vertex -1.795584e+000 -5.039370e-001 2.116947e+000
      endloop
   endfacet
   facet normal 6.500320e-001 0.000000e+000 -7.599069e-001
      outer loop
         vertex -1.787791e+000 -6.829620e-017 2.123239e+000
         vertex -1.795584e+000 -5.039370e-001 2.116947e+000
         vertex -1.795584e+000 -6.829620e-017 2.116947e+000
      endloop
   endfacet
   facet normal 7.316340e-001 0.000000e+000 -6.816977e-001
      outer loop
         vertex -1.795584e+000 -6.829620e-017 2.116947e+000
         vertex -1.795584e+000 -5.039370e-001 2.116947e+000
         vertex -1.802201e+000 -5.039370e-001 2.109428e+000
      endloop
   endfacet
   facet normal 7.691067e-001 0.000000e+000 -6.391203e-001
      outer loop
         vertex -1.795584e+000 -6.829620e-017 2.116947e+000
         vertex -1.802201e+000 -5.039370e-001 2.109428e+000
         vertex -1.802201e+000 -6.829620e-017 2.109428e+000
      endloop
   endfacet
   facet normal 8.363176e-001 0.000000e+000 -5.482453e-001
      outer loop
         vertex -1.802201e+000 -6.829620e-017 2.109428e+000
         vertex -1.802201e+000 -5.039370e-001 2.109428e+000
         vertex -1.807453e+000 -5.039370e-001 2.100898e+000
      endloop
   endfacet
   facet normal 8.660557e-001 0.000000e+000 -4.999475e-001
      outer loop
         vertex -1.802201e+000 -6.829620e-017 2.109428e+000
         vertex -1.807453e+000 -5.039370e-001 2.100898e+000
         vertex -1.807453e+000 -6.829620e-017 2.100898e+000
      endloop
   endfacet
   facet normal 9.169418e-001 0.000000e+000 -3.990209e-001
      outer loop
         vertex -1.807453e+000 -6.829620e-017 2.100898e+000
         vertex -1.807453e+000 -5.039370e-001 2.100898e+000
         vertex -1.811188e+000 -5.039370e-001 2.091604e+000
      endloop
   endfacet
   facet normal 9.380898e-001 0.000000e+000 -3.463921e-001
      outer loop
         vertex -1.807453e+000 -6.829620e-017 2.100898e+000
         vertex -1.811188e+000 -5.039370e-001 2.091604e+000
         vertex -1.811188e+000 -6.829620e-017 2.091604e+000
      endloop
   endfacet
   facet normal 9.711873e-001 0.000000e+000 -2.383175e-001
      outer loop
         vertex -1.811188e+000 -6.829620e-017 2.091604e+000
         vertex -1.811188e+000 -5.039370e-001 2.091604e+000
         vertex -1.813298e+000 -5.039370e-001 2.081812e+000
      endloop
   endfacet
   facet normal 9.831368e-001 0.000000e+000 -1.828716e-001
      outer loop
         vertex -1.811188e+000 -6.829620e-017 2.091604e+000
         vertex -1.813298e+000 -5.039370e-001 2.081812e+000
         vertex -1.813298e+000 -6.829620e-017 2.081812e+000
      endloop
   endfacet
   facet normal 9.974935e-001 0.000000e+000 -7.075802e-002
      outer loop
         vertex -1.813298e+000 -6.829620e-017 2.081812e+000
         vertex -1.813298e+000 -5.039370e-001 2.081812e+000
         vertex -1.813723e+000 -5.039370e-001 2.071805e+000
      endloop
   endfacet
   facet normal 9.999007e-001 0.000000e+000 -1.409025e-002
      outer loop
         vertex -1.813298e+000 -6.829620e-017 2.081812e+000
         vertex -1.813723e+000 -5.039370e-001 2.071805e+000
         vertex -1.813723e+000 -6.829620e-017 2.071805e+000
      endloop
   endfacet
   facet normal 9.951036e-001 0.000000e+000 9.883699e-002
      outer loop
         vertex -1.813723e+000 -6.829620e-017 2.071805e+000
         vertex -1.813723e+000 -5.039370e-001 2.071805e+000
         vertex -1.812451e+000 -5.039370e-001 2.061870e+000
      endloop
   endfacet
   facet normal 9.878993e-001 0.000000e+000 1.550965e-001
      outer loop
         vertex -1.813723e+000 -6.829620e-017 2.071805e+000
         vertex -1.812451e+000 -5.039370e-001 2.061870e+000
         vertex -1.812451e+000 -6.829620e-017 2.061870e+000
      endloop
   endfacet
   facet normal 9.640865e-001 0.000000e+000 2.655886e-001
      outer loop
         vertex -1.812451e+000 -6.829620e-017 2.061870e+000
         vertex -1.812451e+000 -5.039370e-001 2.061870e+000
         vertex -1.809518e+000 -5.039370e-001 2.052292e+000
      endloop
   endfacet
   facet normal 9.474779e-001 0.000000e+000 3.198213e-001
      outer loop
         vertex -1.812451e+000 -6.829620e-017 2.061870e+000
         vertex -1.809518e+000 -5.039370e-001 2.052292e+000
         vertex -1.809518e+000 -6.829620e-017 2.052292e+000
      endloop
   endfacet
   facet normal 9.053342e-001 0.000000e+000 4.246998e-001
      outer loop
         vertex -1.809518e+000 -6.829620e-017 2.052292e+000
         vertex -1.809518e+000 -5.039370e-001 2.052292e+000
         vertex -1.805008e+000 -5.039370e-001 2.043349e+000
      endloop
   endfacet
   facet normal 8.797992e-001 0.000000e+000 4.753455e-001
      outer loop
         vertex -1.809518e+000 -6.829620e-017 2.052292e+000
         vertex -1.805008e+000 -5.039370e-001 2.043349e+000
         vertex -1.805008e+000 -6.829620e-017 2.043349e+000
      endloop
   endfacet
   facet normal 8.205372e-001 0.000000e+000 5.715931e-001
      outer loop
         vertex -1.805008e+000 -6.829620e-017 2.043349e+000
         vertex -1.805008e+000 -5.039370e-001 2.043349e+000
         vertex -1.799052e+000 -5.039370e-001 2.035295e+000
      endloop
   endfacet
   facet normal 7.868103e-001 0.000000e+000 6.171949e-001
      outer loop
         vertex -1.805008e+000 -6.829620e-017 2.043349e+000
         vertex -1.799052e+000 -5.039370e-001 2.035295e+000
         vertex -1.799052e+000 -6.829620e-017 2.035295e+000
      endloop
   endfacet
   facet normal 7.121348e-001 0.000000e+000 7.020428e-001
      outer loop
         vertex -1.799052e+000 -6.829620e-017 2.035295e+000
         vertex -1.799052e+000 -5.039370e-001 2.035295e+000
         vertex -1.791821e+000 -5.039370e-001 2.028364e+000
      endloop
   endfacet
   facet normal 6.711863e-001 0.000000e+000 7.412888e-001
      outer loop
         vertex -1.799052e+000 -6.829620e-017 2.035295e+000
         vertex -1.791821e+000 -5.039370e-001 2.028364e+000
         vertex -1.791821e+000 -6.829620e-017 2.028364e+000
      endloop
   endfacet
   facet normal 5.832456e-001 0.000000e+000 8.122959e-001
      outer loop
         vertex -1.791821e+000 -6.829620e-017 2.028364e+000
         vertex -1.791821e+000 -5.039370e-001 2.028364e+000
         vertex -1.783522e+000 -5.039370e-001 2.022755e+000
      endloop
   endfacet
   facet normal 5.362535e-001 0.000000e+000 8.440570e-001
      outer loop
         vertex -1.791821e+000 -6.829620e-017 2.028364e+000
         vertex -1.783522e+000 -5.039370e-001 2.022755e+000
         vertex -1.783522e+000 -6.829620e-017 2.022755e+000
      endloop
   endfacet
   facet normal 4.375775e-001 0.000000e+000 8.991807e-001
      outer loop
         vertex -1.783522e+000 -6.829620e-017 2.022755e+000
         vertex -1.783522e+000 -5.039370e-001 2.022755e+000
         vertex -1.774395e+000 -5.039370e-001 2.018630e+000
      endloop
   endfacet
   facet normal 3.858936e-001 0.000000e+000 9.225433e-001
      outer loop
         vertex -1.783522e+000 -6.829620e-017 2.022755e+000
         vertex -1.774395e+000 -5.039370e-001 2.018630e+000
         vertex -1.774395e+000 -6.829620e-017 2.018630e+000
      endloop
   endfacet
   facet normal 2.793211e-001 0.000000e+000 9.601977e-001
      outer loop
         vertex -1.774395e+000 -6.829620e-017 2.018630e+000
         vertex -1.774395e+000 -5.039370e-001 2.018630e+000
         vertex -1.764702e+000 -5.039370e-001 2.016106e+000
      endloop
   endfacet
   facet normal 2.244324e-001 0.000000e+000 9.744897e-001
      outer loop
         vertex -1.774395e+000 -6.829620e-017 2.018630e+000
         vertex -1.764702e+000 -5.039370e-001 2.016106e+000
         vertex -1.764702e+000 -6.829620e-017 2.016106e+000
      endloop
   endfacet
   facet normal 1.130291e-001 0.000000e+000 9.935917e-001
      outer loop
         vertex -1.764702e+000 -6.829620e-017 2.016106e+000
         vertex -1.764702e+000 -5.039370e-001 2.016106e+000
         vertex -1.754721e+000 -5.039370e-001 2.015256e+000
      endloop
   endfacet
   facet normal 5.651454e-002 0.000000e+000 9.984018e-001
      outer loop
         vertex -1.764702e+000 -6.829620e-017 2.016106e+000
         vertex -1.754721e+000 -5.039370e-001 2.015256e+000
         vertex -1.754721e+000 -6.829620e-017 2.015256e+000
      endloop
   endfacet
   facet normal -5.651454e-002 0.000000e+000 9.984018e-001
      outer loop
         vertex -1.754721e+000 -6.829620e-017 2.015256e+000
         vertex -1.754721e+000 -5.039370e-001 2.015256e+000
         vertex -1.744741e+000 -5.039370e-001 2.016106e+000
      endloop
   endfacet
   facet normal -1.130291e-001 0.000000e+000 9.935917e-001
      outer loop
         vertex -1.754721e+000 -6.829620e-017 2.015256e+000
         vertex -1.744741e+000 -5.039370e-001 2.016106e+000
         vertex -1.744741e+000 -6.829620e-017 2.016106e+000
      endloop
   endfacet
   facet normal -2.244324e-001 0.000000e+000 9.744897e-001
      outer loop
         vertex -1.744741e+000 -6.829620e-017 2.016106e+000
         vertex -1.744741e+000 -5.039370e-001 2.016106e+000
         vertex -1.735047e+000 -5.039370e-001 2.018630e+000
      endloop
   endfacet
   facet normal -2.793211e-001 0.000000e+000 9.601977e-001
      outer loop
         vertex -1.744741e+000 -6.829620e-017 2.016106e+000
         vertex -1.735047e+000 -5.039370e-001 2.018630e+000
         vertex -1.735047e+000 -6.829620e-017 2.018630e+000
      endloop
   endfacet
   facet normal -3.858936e-001 0.000000e+000 9.225433e-001
      outer loop
         vertex -1.735047e+000 -6.829620e-017 2.018630e+000
         vertex -1.735047e+000 -5.039370e-001 2.018630e+000
         vertex -1.725920e+000 -5.039370e-001 2.022755e+000
      endloop
   endfacet
   facet normal -4.375775e-001 0.000000e+000 8.991807e-001
      outer loop
         vertex -1.735047e+000 -6.829620e-017 2.018630e+000
         vertex -1.725920e+000 -5.039370e-001 2.022755e+000
         vertex -1.725920e+000 -6.829620e-017 2.022755e+000
      endloop
   endfacet
   facet normal -5.362535e-001 0.000000e+000 8.440570e-001
      outer loop
         vertex -1.725920e+000 -6.829620e-017 2.022755e+000
         vertex -1.725920e+000 -5.039370e-001 2.022755e+000
         vertex -1.717622e+000 -5.039370e-001 2.028364e+000
      endloop
   endfacet
   facet normal -5.832456e-001 0.000000e+000 8.122959e-001
      outer loop
         vertex -1.725920e+000 -6.829620e-017 2.022755e+000
         vertex -1.717622e+000 -5.039370e-001 2.028364e+000
         vertex -1.717622e+000 -6.829620e-017 2.028364e+000
      endloop
   endfacet
   facet normal -6.711863e-001 0.000000e+000 7.412888e-001
      outer loop
         vertex -1.717622e+000 -6.829620e-017 2.028364e+000
         vertex -1.717622e+000 -5.039370e-001 2.028364e+000
         vertex -1.710390e+000 -5.039370e-001 2.035295e+000
      endloop
   endfacet
   facet normal -7.121348e-001 0.000000e+000 7.020428e-001
      outer loop
         vertex -1.717622e+000 -6.829620e-017 2.028364e+000
         vertex -1.710390e+000 -5.039370e-001 2.035295e+000
         vertex -1.710390e+000 -6.829620e-017 2.035295e+000
      endloop
   endfacet
   facet normal -7.868103e-001 0.000000e+000 6.171949e-001
      outer loop
         vertex -1.710390e+000 -6.829620e-017 2.035295e+000
         vertex -1.710390e+000 -5.039370e-001 2.035295e+000
         vertex -1.704434e+000 -5.039370e-001 2.043349e+000
      endloop
   endfacet
   facet normal -8.205372e-001 0.000000e+000 5.715931e-001
      outer loop
         vertex -1.710390e+000 -6.829620e-017 2.035295e+000
         vertex -1.704434e+000 -5.039370e-001 2.043349e+000
         vertex -1.704434e+000 -6.829620e-017 2.043349e+000
      endloop
   endfacet
   facet normal -8.797992e-001 0.000000e+000 4.753455e-001
      outer loop
         vertex -1.704434e+000 -6.829620e-017 2.043349e+000
         vertex -1.704434e+000 -5.039370e-001 2.043349e+000
         vertex -1.699924e+000 -5.039370e-001 2.052292e+000
      endloop
   endfacet
   facet normal -9.053342e-001 0.000000e+000 4.246998e-001
      outer loop
         vertex -1.704434e+000 -6.829620e-017 2.043349e+000
         vertex -1.699924e+000 -5.039370e-001 2.052292e+000
         vertex -1.699924e+000 -6.829620e-017 2.052292e+000
      endloop
   endfacet
   facet normal -9.474779e-001 0.000000e+000 3.198213e-001
      outer loop
         vertex -1.699924e+000 -6.829620e-017 2.052292e+000
         vertex -1.699924e+000 -5.039370e-001 2.052292e+000
         vertex -1.696991e+000 -5.039370e-001 2.061870e+000
      endloop
   endfacet
   facet normal -9.640865e-001 0.000000e+000 2.655886e-001
      outer loop
         vertex -1.699924e+000 -6.829620e-017 2.052292e+000
         vertex -1.696991e+000 -5.039370e-001 2.061870e+000
         vertex -1.696991e+000 -6.829620e-017 2.061870e+000
      endloop
   endfacet
   facet normal -9.878993e-001 0.000000e+000 1.550965e-001
      outer loop
         vertex -1.696991e+000 -6.829620e-017 2.061870e+000
         vertex -1.696991e+000 -5.039370e-001 2.061870e+000
         vertex -1.695719e+000 -5.039370e-001 2.071805e+000
      endloop
   endfacet
   facet normal -9.951036e-001 0.000000e+000 9.883699e-002
      outer loop
         vertex -1.696991e+000 -6.829620e-017 2.061870e+000
         vertex -1.695719e+000 -5.039370e-001 2.071805e+000
         vertex -1.695719e+000 -6.829620e-017 2.071805e+000
      endloop
   endfacet
   facet normal -9.999007e-001 0.000000e+000 -1.409025e-002
      outer loop
         vertex -1.695719e+000 -6.829620e-017 2.071805e+000
         vertex -1.695719e+000 -5.039370e-001 2.071805e+000
         vertex -1.696144e+000 -5.039370e-001 2.081812e+000
      endloop
   endfacet
   facet normal -9.974935e-001 0.000000e+000 -7.075802e-002
      outer loop
         vertex -1.695719e+000 -6.829620e-017 2.071805e+000
         vertex -1.696144e+000 -5.039370e-001 2.081812e+000
         vertex -1.696144e+000 -6.829620e-017 2.081812e+000
      endloop
   endfacet
   facet normal -9.831368e-001 0.000000e+000 -1.828716e-001
      outer loop
         vertex -1.696144e+000 -6.829620e-017 2.081812e+000
         vertex -1.696144e+000 -5.039370e-001 2.081812e+000
         vertex -1.698255e+000 -5.039370e-001 2.091604e+000
      endloop
   endfacet
   facet normal -9.711873e-001 0.000000e+000 -2.383175e-001
      outer loop
         vertex -1.696144e+000 -6.829620e-017 2.081812e+000
         vertex -1.698255e+000 -5.039370e-001 2.091604e+000
         vertex -1.698255e+000 -6.829620e-017 2.091604e+000
      endloop
   endfacet
   facet normal -9.380898e-001 0.000000e+000 -3.463921e-001
      outer loop
         vertex -1.698255e+000 -6.829620e-017 2.091604e+000
         vertex -1.698255e+000 -5.039370e-001 2.091604e+000
         vertex -1.701989e+000 -5.039370e-001 2.100898e+000
      endloop
   endfacet
   facet normal -9.169418e-001 0.000000e+000 -3.990209e-001
      outer loop
         vertex -1.698255e+000 -6.829620e-017 2.091604e+000
         vertex -1.701989e+000 -5.039370e-001 2.100898e+000
         vertex -1.701989e+000 -6.829620e-017 2.100898e+000
      endloop
   endfacet
   facet normal -8.660557e-001 0.000000e+000 -4.999475e-001
      outer loop
         vertex -1.701989e+000 -6.829620e-017 2.100898e+000
         vertex -1.701989e+000 -5.039370e-001 2.100898e+000
         vertex -1.707241e+000 -5.039370e-001 2.109428e+000
      endloop
   endfacet
   facet normal -8.363176e-001 0.000000e+000 -5.482453e-001
      outer loop
         vertex -1.701989e+000 -6.829620e-017 2.100898e+000
         vertex -1.707241e+000 -5.039370e-001 2.109428e+000
         vertex -1.707241e+000 -6.829620e-017 2.109428e+000
      endloop
   endfacet
   facet normal -7.691067e-001 0.000000e+000 -6.391203e-001
      outer loop
         vertex -1.707241e+000 -6.829620e-017 2.109428e+000
         vertex -1.707241e+000 -5.039370e-001 2.109428e+000
         vertex -1.713858e+000 -5.039370e-001 2.116947e+000
      endloop
   endfacet
   facet normal -7.316340e-001 0.000000e+000 -6.816977e-001
      outer loop
         vertex -1.707241e+000 -6.829620e-017 2.109428e+000
         vertex -1.713858e+000 -5.039370e-001 2.116947e+000
         vertex -1.713858e+000 -6.829620e-017 2.116947e+000
      endloop
   endfacet
   facet normal -6.500320e-001 0.000000e+000 -7.599069e-001
      outer loop
         vertex -1.713858e+000 -6.829620e-017 2.116947e+000
         vertex -1.713858e+000 -5.039370e-001 2.116947e+000
         vertex -1.721652e+000 -5.039370e-001 2.123239e+000
      endloop
   endfacet
   facet normal -6.059027e-001 0.000000e+000 -7.955388e-001
      outer loop
         vertex -1.713858e+000 -6.829620e-017 2.116947e+000
         vertex -1.721652e+000 -5.039370e-001 2.123239e+000
         vertex -1.721652e+000 -6.829620e-017 2.123239e+000
      endloop
   endfacet
   facet normal -5.122570e-001 0.000000e+000 -8.588322e-001
      outer loop
         vertex -1.721652e+000 -6.829620e-017 2.123239e+000
         vertex -1.721652e+000 -5.039370e-001 2.123239e+000
         vertex -1.730396e+000 -5.039370e-001 2.128124e+000
      endloop
   endfacet
   facet normal -4.627406e-001 0.000000e+000 -8.864937e-001
      outer loop
         vertex -1.721652e+000 -6.829620e-017 2.123239e+000
         vertex -1.730396e+000 -5.039370e-001 2.128124e+000
         vertex -1.730396e+000 -6.829620e-017 2.128124e+000
      endloop
   endfacet
   facet normal -3.597453e-001 0.000000e+000 -9.330506e-001
      outer loop
         vertex -1.730396e+000 -6.829620e-017 2.128124e+000
         vertex -1.730396e+000 -5.039370e-001 2.128124e+000
         vertex -1.739841e+000 -5.039370e-001 2.131461e+000
      endloop
   endfacet
   facet normal -3.062663e-001 0.000000e+000 -9.519458e-001
      outer loop
         vertex -1.730396e+000 -6.829620e-017 2.128124e+000
         vertex -1.739841e+000 -5.039370e-001 2.131461e+000
         vertex -1.739841e+000 -6.829620e-017 2.131461e+000
      endloop
   endfacet
   facet normal -1.968844e-001 0.000000e+000 -9.804267e-001
      outer loop
         vertex -1.739841e+000 -6.829620e-017 2.131461e+000
         vertex -1.739841e+000 -5.039370e-001 2.131461e+000
         vertex -1.749713e+000 -5.039370e-001 2.133154e+000
      endloop
   endfacet
   facet normal -1.409813e-001 0.000000e+000 -9.900123e-001
      outer loop
         vertex -1.739841e+000 -6.829620e-017 2.131461e+000
         vertex -1.749713e+000 -5.039370e-001 2.133154e+000
         vertex -1.749713e+000 -6.829620e-017 2.133154e+000
      endloop
   endfacet
   facet normal -5.658260e-002 0.000000e+000 -9.983979e-001
      outer loop
         vertex -1.749713e+000 -6.829620e-017 2.133154e+000
         vertex -1.749713e+000 -5.039370e-001 2.133154e+000
         vertex -1.754721e+000 -6.829620e-017 2.133367e+000
      endloop
   endfacet
endsolid