solid Body94_Default_sldprt
   facet normal 0.000000e+000 1.000000e+000 0.000000e+000
      outer loop
         vertex -1.740680e-002 -5.826772e-001 1.646996e+000
         vertex -2.562306e-002 -5.826772e-001 1.643771e+000
         vertex -4.643572e-002 -5.826772e-001 1.709082e+000
      endloop
   endfacet
   facet normal 0.000000e+000 1.000000e+000 0.000000e+000
      outer loop
         vertex 1.740680e-002 -5.826772e-001 1.646996e+000
         vertex 8.801709e-003 -5.826772e-001 1.648960e+000
         vertex 7.942139e-002 -5.826772e-001 1.690037e+000
      endloop
   endfacet
   facet normal 0.000000e+000 1.000000e+000 0.000000e+000
      outer loop
         vertex 7.942139e-002 -5.826772e-001 1.690037e+000
         vertex 8.801709e-003 -5.826772e-001 1.648960e+000
         vertex 2.169650e-017 -5.826772e-001 1.649619e+000
      endloop
   endfacet
   facet normal 0.000000e+000 1.000000e+000 0.000000e+000
      outer loop
         vertex 7.942139e-002 -5.826772e-001 1.690037e+000
         vertex 2.169650e-017 -5.826772e-001 1.649619e+000
         vertex -4.643572e-002 -5.826772e-001 1.709082e+000
      endloop
   endfacet
   facet normal 0.000000e+000 1.000000e+000 0.000000e+000
      outer loop
         vertex -4.643572e-002 -5.826772e-001 1.709082e+000
         vertex 2.169650e-017 -5.826772e-001 1.649619e+000
         vertex -8.801709e-003 -5.826772e-001 1.648960e+000
      endloop
   endfacet
   facet normal 0.000000e+000 1.000000e+000 0.000000e+000
      outer loop
         vertex -4.643572e-002 -5.826772e-001 1.709082e+000
         vertex -8.801709e-003 -5.826772e-001 1.648960e+000
         vertex -1.740680e-002 -5.826772e-001 1.646996e+000
      endloop
   endfacet
   facet normal 0.000000e+000 1.000000e+000 0.000000e+000
      outer loop
         vertex -7.942139e-002 -5.826772e-001 1.491091e+000
         vertex -1.740680e-002 -5.826772e-001 1.534133e+000
         vertex 4.643572e-002 -5.826772e-001 1.472047e+000
      endloop
   endfacet
   facet normal 0.000000e+000 1.000000e+000 0.000000e+000
      outer loop
         vertex 4.643572e-002 -5.826772e-001 1.472047e+000
         vertex -1.740680e-002 -5.826772e-001 1.534133e+000
         vertex -8.801709e-003 -5.826772e-001 1.532169e+000
      endloop
   endfacet
   facet normal 0.000000e+000 1.000000e+000 0.000000e+000
      outer loop
         vertex 4.643572e-002 -5.826772e-001 1.472047e+000
         vertex -8.801709e-003 -5.826772e-001 1.532169e+000
         vertex 0.000000e+000 -5.826772e-001 1.531509e+000
      endloop
   endfacet
   facet normal 0.000000e+000 1.000000e+000 0.000000e+000
      outer loop
         vertex 0.000000e+000 -5.826772e-001 1.531509e+000
         vertex 8.801709e-003 -5.826772e-001 1.532169e+000
         vertex 4.643572e-002 -5.826772e-001 1.472047e+000
      endloop
   endfacet
   facet normal 0.000000e+000 1.000000e+000 0.000000e+000
      outer loop
         vertex 4.643572e-002 -5.826772e-001 1.472047e+000
         vertex 8.801709e-003 -5.826772e-001 1.532169e+000
         vertex 1.740680e-002 -5.826772e-001 1.534133e+000
      endloop
   endfacet
   facet normal 0.000000e+000 1.000000e+000 0.000000e+000
      outer loop
         vertex 4.643572e-002 -5.826772e-001 1.472047e+000
         vertex 1.740680e-002 -5.826772e-001 1.534133e+000
         vertex 2.562306e-002 -5.826772e-001 1.537357e+000
      endloop
   endfacet
   facet normal 0.000000e+000 1.000000e+000 0.000000e+000
      outer loop
         vertex -2.562306e-002 -5.826772e-001 1.643771e+000
         vertex -3.326693e-002 -5.826772e-001 1.639358e+000
         vertex -4.643572e-002 -5.826772e-001 1.709082e+000
      endloop
   endfacet
   facet normal 0.000000e+000 1.000000e+000 0.000000e+000
      outer loop
         vertex -4.643572e-002 -5.826772e-001 1.709082e+000
         vertex -3.326693e-002 -5.826772e-001 1.639358e+000
         vertex -4.016768e-002 -5.826772e-001 1.633855e+000
      endloop
   endfacet
   facet normal 0.000000e+000 1.000000e+000 0.000000e+000
      outer loop
         vertex -4.643572e-002 -5.826772e-001 1.709082e+000
         vertex -4.016768e-002 -5.826772e-001 1.633855e+000
         vertex -1.258571e-001 -5.826772e-001 1.609609e+000
      endloop
   endfacet
   facet normal 0.000000e+000 1.000000e+000 0.000000e+000
      outer loop
         vertex -1.258571e-001 -5.826772e-001 1.609609e+000
         vertex -4.016768e-002 -5.826772e-001 1.633855e+000
         vertex -4.617115e-002 -5.826772e-001 1.627384e+000
      endloop
   endfacet
   facet normal 0.000000e+000 1.000000e+000 0.000000e+000
      outer loop
         vertex -1.258571e-001 -5.826772e-001 1.609609e+000
         vertex -4.617115e-002 -5.826772e-001 1.627384e+000
         vertex -5.114323e-002 -5.826772e-001 1.620092e+000
      endloop
   endfacet
   facet normal 0.000000e+000 1.000000e+000 0.000000e+000
      outer loop
         vertex 5.114323e-002 -5.826772e-001 1.620092e+000
         vertex 4.617115e-002 -5.826772e-001 1.627384e+000
         vertex 7.942139e-002 -5.826772e-001 1.690037e+000
      endloop
   endfacet
   facet normal 0.000000e+000 1.000000e+000 0.000000e+000
      outer loop
         vertex 7.942139e-002 -5.826772e-001 1.690037e+000
         vertex 4.617115e-002 -5.826772e-001 1.627384e+000
         vertex 4.016768e-002 -5.826772e-001 1.633855e+000
      endloop
   endfacet
   facet normal 0.000000e+000 1.000000e+000 0.000000e+000
      outer loop
         vertex -5.114323e-002 -5.826772e-001 1.620092e+000
         vertex -5.497286e-002 -5.826772e-001 1.612139e+000
         vertex -1.258571e-001 -5.826772e-001 1.609609e+000
      endloop
   endfacet
   facet normal 0.000000e+000 1.000000e+000 0.000000e+000
      outer loop
         vertex -1.258571e-001 -5.826772e-001 1.609609e+000
         vertex -5.497286e-002 -5.826772e-001 1.612139e+000
         vertex -5.757448e-002 -5.826772e-001 1.603705e+000
      endloop
   endfacet
   facet normal 0.000000e+000 1.000000e+000 0.000000e+000
      outer loop
         vertex -1.258571e-001 -5.826772e-001 1.609609e+000
         vertex -5.757448e-002 -5.826772e-001 1.603705e+000
         vertex -5.888999e-002 -5.826772e-001 1.594977e+000
      endloop
   endfacet
   facet normal 0.000000e+000 1.000000e+000 0.000000e+000
      outer loop
         vertex -4.016768e-002 -5.826772e-001 1.547274e+000
         vertex -7.942139e-002 -5.826772e-001 1.491091e+000
         vertex -4.617115e-002 -5.826772e-001 1.553744e+000
      endloop
   endfacet
   facet normal 0.000000e+000 1.000000e+000 0.000000e+000
      outer loop
         vertex -4.617115e-002 -5.826772e-001 1.553744e+000
         vertex -7.942139e-002 -5.826772e-001 1.491091e+000
         vertex -5.114323e-002 -5.826772e-001 1.561037e+000
      endloop
   endfacet
   facet normal 0.000000e+000 1.000000e+000 0.000000e+000
      outer loop
         vertex -4.016768e-002 -5.826772e-001 1.547274e+000
         vertex -3.326693e-002 -5.826772e-001 1.541770e+000
         vertex -7.942139e-002 -5.826772e-001 1.491091e+000
      endloop
   endfacet
   facet normal 0.000000e+000 1.000000e+000 0.000000e+000
      outer loop
         vertex -7.942139e-002 -5.826772e-001 1.491091e+000
         vertex -3.326693e-002 -5.826772e-001 1.541770e+000
         vertex -2.562306e-002 -5.826772e-001 1.537357e+000
      endloop
   endfacet
   facet normal 0.000000e+000 1.000000e+000 0.000000e+000
      outer loop
         vertex -7.942139e-002 -5.826772e-001 1.491091e+000
         vertex -2.562306e-002 -5.826772e-001 1.537357e+000
         vertex -1.740680e-002 -5.826772e-001 1.534133e+000
      endloop
   endfacet
   facet normal 0.000000e+000 1.000000e+000 0.000000e+000
      outer loop
         vertex 2.562306e-002 -5.826772e-001 1.537357e+000
         vertex 3.326693e-002 -5.826772e-001 1.541770e+000
         vertex 4.643572e-002 -5.826772e-001 1.472047e+000
      endloop
   endfacet
   facet normal 0.000000e+000 1.000000e+000 0.000000e+000
      outer loop
         vertex 4.643572e-002 -5.826772e-001 1.472047e+000
         vertex 3.326693e-002 -5.826772e-001 1.541770e+000
         vertex 4.016768e-002 -5.826772e-001 1.547274e+000
      endloop
   endfacet
   facet normal 0.000000e+000 1.000000e+000 0.000000e+000
      outer loop
         vertex 4.643572e-002 -5.826772e-001 1.472047e+000
         vertex 4.016768e-002 -5.826772e-001 1.547274e+000
         vertex 1.258571e-001 -5.826772e-001 1.571520e+000
      endloop
   endfacet
   facet normal 0.000000e+000 1.000000e+000 0.000000e+000
      outer loop
         vertex 1.258571e-001 -5.826772e-001 1.571520e+000
         vertex 4.016768e-002 -5.826772e-001 1.547274e+000
         vertex 4.617115e-002 -5.826772e-001 1.553744e+000
      endloop
   endfacet
   facet normal 0.000000e+000 1.000000e+000 0.000000e+000
      outer loop
         vertex 1.258571e-001 -5.826772e-001 1.571520e+000
         vertex 4.617115e-002 -5.826772e-001 1.553744e+000
         vertex 5.114323e-002 -5.826772e-001 1.561037e+000
      endloop
   endfacet
   facet normal 0.000000e+000 1.000000e+000 0.000000e+000
      outer loop
         vertex 5.114323e-002 -5.826772e-001 1.561037e+000
         vertex 5.497286e-002 -5.826772e-001 1.568989e+000
         vertex 1.258571e-001 -5.826772e-001 1.571520e+000
      endloop
   endfacet
   facet normal 0.000000e+000 1.000000e+000 0.000000e+000
      outer loop
         vertex 1.258571e-001 -5.826772e-001 1.571520e+000
         vertex 5.497286e-002 -5.826772e-001 1.568989e+000
         vertex 5.757448e-002 -5.826772e-001 1.577423e+000
      endloop
   endfacet
   facet normal 0.000000e+000 1.000000e+000 0.000000e+000
      outer loop
         vertex 1.258571e-001 -5.826772e-001 1.571520e+000
         vertex 5.757448e-002 -5.826772e-001 1.577423e+000
         vertex 5.888999e-002 -5.826772e-001 1.586151e+000
      endloop
   endfacet
   facet normal 0.000000e+000 1.000000e+000 0.000000e+000
      outer loop
         vertex 4.016768e-002 -5.826772e-001 1.633855e+000
         vertex 3.326693e-002 -5.826772e-001 1.639358e+000
         vertex 7.942139e-002 -5.826772e-001 1.690037e+000
      endloop
   endfacet
   facet normal 0.000000e+000 1.000000e+000 0.000000e+000
      outer loop
         vertex 7.942139e-002 -5.826772e-001 1.690037e+000
         vertex 3.326693e-002 -5.826772e-001 1.639358e+000
         vertex 2.562306e-002 -5.826772e-001 1.643771e+000
      endloop
   endfacet
   facet normal 0.000000e+000 1.000000e+000 0.000000e+000
      outer loop
         vertex 7.942139e-002 -5.826772e-001 1.690037e+000
         vertex 2.562306e-002 -5.826772e-001 1.643771e+000
         vertex 1.740680e-002 -5.826772e-001 1.646996e+000
      endloop
   endfacet
   facet normal 0.000000e+000 1.000000e+000 0.000000e+000
      outer loop
         vertex 5.888999e-002 -5.826772e-001 1.586151e+000
         vertex 5.888999e-002 -5.826772e-001 1.594977e+000
         vertex 1.258571e-001 -5.826772e-001 1.571520e+000
      endloop
   endfacet
   facet normal 0.000000e+000 1.000000e+000 0.000000e+000
      outer loop
         vertex 1.258571e-001 -5.826772e-001 1.571520e+000
         vertex 5.888999e-002 -5.826772e-001 1.594977e+000
         vertex 5.757448e-002 -5.826772e-001 1.603705e+000
      endloop
   endfacet
   facet normal 0.000000e+000 1.000000e+000 0.000000e+000
      outer loop
         vertex 1.258571e-001 -5.826772e-001 1.571520e+000
         vertex 5.757448e-002 -5.826772e-001 1.603705e+000
         vertex 7.942139e-002 -5.826772e-001 1.690037e+000
      endloop
   endfacet
   facet normal 0.000000e+000 1.000000e+000 0.000000e+000
      outer loop
         vertex 7.942139e-002 -5.826772e-001 1.690037e+000
         vertex 5.757448e-002 -5.826772e-001 1.603705e+000
         vertex 5.497286e-002 -5.826772e-001 1.612139e+000
      endloop
   endfacet
   facet normal 0.000000e+000 1.000000e+000 0.000000e+000
      outer loop
         vertex 7.942139e-002 -5.826772e-001 1.690037e+000
         vertex 5.497286e-002 -5.826772e-001 1.612139e+000
         vertex 5.114323e-002 -5.826772e-001 1.620092e+000
      endloop
   endfacet
   facet normal 0.000000e+000 1.000000e+000 0.000000e+000
      outer loop
         vertex -5.888999e-002 -5.826772e-001 1.594977e+000
         vertex -5.888999e-002 -5.826772e-001 1.586151e+000
         vertex -1.258571e-001 -5.826772e-001 1.609609e+000
      endloop
   endfacet
   facet normal 0.000000e+000 1.000000e+000 0.000000e+000
      outer loop
         vertex -1.258571e-001 -5.826772e-001 1.609609e+000
         vertex -5.888999e-002 -5.826772e-001 1.586151e+000
         vertex -5.757448e-002 -5.826772e-001 1.577423e+000
      endloop
   endfacet
   facet normal 0.000000e+000 1.000000e+000 0.000000e+000
      outer loop
         vertex -1.258571e-001 -5.826772e-001 1.609609e+000
         vertex -5.757448e-002 -5.826772e-001 1.577423e+000
         vertex -7.942139e-002 -5.826772e-001 1.491091e+000
      endloop
   endfacet
   facet normal 0.000000e+000 1.000000e+000 0.000000e+000
      outer loop
         vertex -7.942139e-002 -5.826772e-001 1.491091e+000
         vertex -5.757448e-002 -5.826772e-001 1.577423e+000
         vertex -5.497286e-002 -5.826772e-001 1.568989e+000
      endloop
   endfacet
   facet normal 0.000000e+000 1.000000e+000 0.000000e+000
      outer loop
         vertex -7.942139e-002 -5.826772e-001 1.491091e+000
         vertex -5.497286e-002 -5.826772e-001 1.568989e+000
         vertex -5.114323e-002 -5.826772e-001 1.561037e+000
      endloop
   endfacet
   facet normal 0.000000e+000 -1.000000e+000 0.000000e+000
      outer loop
         vertex 3.326693e-002 -6.614173e-001 1.541770e+000
         vertex 2.562306e-002 -6.614173e-001 1.537357e+000
         vertex 4.643572e-002 -6.614173e-001 1.472047e+000
      endloop
   endfacet
   facet normal 0.000000e+000 -1.000000e+000 0.000000e+000
      outer loop
         vertex 4.643572e-002 -6.614173e-001 1.472047e+000
         vertex 2.562306e-002 -6.614173e-001 1.537357e+000
         vertex 1.740680e-002 -6.614173e-001 1.534133e+000
      endloop
   endfacet
   facet normal 0.000000e+000 -1.000000e+000 0.000000e+000
      outer loop
         vertex 4.643572e-002 -6.614173e-001 1.472047e+000
         vertex -8.801709e-003 -6.614173e-001 1.532169e+000
         vertex -7.942139e-002 -6.614173e-001 1.491091e+000
      endloop
   endfacet
   facet normal 0.000000e+000 -1.000000e+000 0.000000e+000
      outer loop
         vertex -7.942139e-002 -6.614173e-001 1.491091e+000
         vertex -8.801709e-003 -6.614173e-001 1.532169e+000
         vertex -1.740680e-002 -6.614173e-001 1.534133e+000
      endloop
   endfacet
   facet normal 0.000000e+000 -1.000000e+000 0.000000e+000
      outer loop
         vertex -7.942139e-002 -6.614173e-001 1.491091e+000
         vertex -1.740680e-002 -6.614173e-001 1.534133e+000
         vertex -2.562306e-002 -6.614173e-001 1.537357e+000
      endloop
   endfacet
   facet normal 0.000000e+000 -1.000000e+000 0.000000e+000
      outer loop
         vertex -3.326693e-002 -6.614173e-001 1.639358e+000
         vertex -2.562306e-002 -6.614173e-001 1.643771e+000
         vertex -4.643572e-002 -6.614173e-001 1.709082e+000
      endloop
   endfacet
   facet normal 0.000000e+000 -1.000000e+000 0.000000e+000
      outer loop
         vertex -4.643572e-002 -6.614173e-001 1.709082e+000
         vertex -2.562306e-002 -6.614173e-001 1.643771e+000
         vertex -1.740680e-002 -6.614173e-001 1.646996e+000
      endloop
   endfacet
   facet normal 0.000000e+000 -1.000000e+000 0.000000e+000
      outer loop
         vertex -4.643572e-002 -6.614173e-001 1.709082e+000
         vertex -1.740680e-002 -6.614173e-001 1.646996e+000
         vertex -8.801709e-003 -6.614173e-001 1.648960e+000
      endloop
   endfacet
   facet normal 0.000000e+000 -1.000000e+000 0.000000e+000
      outer loop
         vertex -8.801709e-003 -6.614173e-001 1.648960e+000
         vertex 7.232166e-018 -6.614173e-001 1.649619e+000
         vertex -4.643572e-002 -6.614173e-001 1.709082e+000
      endloop
   endfacet
   facet normal 0.000000e+000 -1.000000e+000 0.000000e+000
      outer loop
         vertex -4.643572e-002 -6.614173e-001 1.709082e+000
         vertex 7.232166e-018 -6.614173e-001 1.649619e+000
         vertex 8.801709e-003 -6.614173e-001 1.648960e+000
      endloop
   endfacet
   facet normal 0.000000e+000 -1.000000e+000 0.000000e+000
      outer loop
         vertex -4.643572e-002 -6.614173e-001 1.709082e+000
         vertex 8.801709e-003 -6.614173e-001 1.648960e+000
         vertex 7.942139e-002 -6.614173e-001 1.690037e+000
      endloop
   endfacet
   facet normal 0.000000e+000 -1.000000e+000 0.000000e+000
      outer loop
         vertex 7.942139e-002 -6.614173e-001 1.690037e+000
         vertex 8.801709e-003 -6.614173e-001 1.648960e+000
         vertex 1.740680e-002 -6.614173e-001 1.646996e+000
      endloop
   endfacet
   facet normal 0.000000e+000 -1.000000e+000 0.000000e+000
      outer loop
         vertex 7.942139e-002 -6.614173e-001 1.690037e+000
         vertex 1.740680e-002 -6.614173e-001 1.646996e+000
         vertex 2.562306e-002 -6.614173e-001 1.643771e+000
      endloop
   endfacet
   facet normal 0.000000e+000 -1.000000e+000 0.000000e+000
      outer loop
         vertex 1.740680e-002 -6.614173e-001 1.534133e+000
         vertex 8.801709e-003 -6.614173e-001 1.532169e+000
         vertex 4.643572e-002 -6.614173e-001 1.472047e+000
      endloop
   endfacet
   facet normal 0.000000e+000 -1.000000e+000 0.000000e+000
      outer loop
         vertex 4.643572e-002 -6.614173e-001 1.472047e+000
         vertex 8.801709e-003 -6.614173e-001 1.532169e+000
         vertex 0.000000e+000 -6.614173e-001 1.531509e+000
      endloop
   endfacet
   facet normal 0.000000e+000 -1.000000e+000 0.000000e+000
      outer loop
         vertex 4.643572e-002 -6.614173e-001 1.472047e+000
         vertex 0.000000e+000 -6.614173e-001 1.531509e+000
         vertex -8.801709e-003 -6.614173e-001 1.532169e+000
      endloop
   endfacet
   facet normal 0.000000e+000 -1.000000e+000 0.000000e+000
      outer loop
         vertex -2.562306e-002 -6.614173e-001 1.537357e+000
         vertex -3.326693e-002 -6.614173e-001 1.541770e+000
         vertex -7.942139e-002 -6.614173e-001 1.491091e+000
      endloop
   endfacet
   facet normal 0.000000e+000 -1.000000e+000 0.000000e+000
      outer loop
         vertex -7.942139e-002 -6.614173e-001 1.491091e+000
         vertex -3.326693e-002 -6.614173e-001 1.541770e+000
         vertex -4.016768e-002 -6.614173e-001 1.547274e+000
      endloop
   endfacet
   facet normal 0.000000e+000 -1.000000e+000 0.000000e+000
      outer loop
         vertex -7.942139e-002 -6.614173e-001 1.491091e+000
         vertex -4.016768e-002 -6.614173e-001 1.547274e+000
         vertex -4.617115e-002 -6.614173e-001 1.553744e+000
      endloop
   endfacet
   facet normal 0.000000e+000 -1.000000e+000 0.000000e+000
      outer loop
         vertex 2.562306e-002 -6.614173e-001 1.643771e+000
         vertex 3.326693e-002 -6.614173e-001 1.639358e+000
         vertex 7.942139e-002 -6.614173e-001 1.690037e+000
      endloop
   endfacet
   facet normal 0.000000e+000 -1.000000e+000 0.000000e+000
      outer loop
         vertex 7.942139e-002 -6.614173e-001 1.690037e+000
         vertex 3.326693e-002 -6.614173e-001 1.639358e+000
         vertex 4.016768e-002 -6.614173e-001 1.633855e+000
      endloop
   endfacet
   facet normal 0.000000e+000 -1.000000e+000 0.000000e+000
      outer loop
         vertex 7.942139e-002 -6.614173e-001 1.690037e+000
         vertex 4.016768e-002 -6.614173e-001 1.633855e+000
         vertex 4.617115e-002 -6.614173e-001 1.627384e+000
      endloop
   endfacet
   facet normal 0.000000e+000 -1.000000e+000 0.000000e+000
      outer loop
         vertex 4.617115e-002 -6.614173e-001 1.627384e+000
         vertex 5.114323e-002 -6.614173e-001 1.620092e+000
         vertex 7.942139e-002 -6.614173e-001 1.690037e+000
      endloop
   endfacet
   facet normal 0.000000e+000 -1.000000e+000 0.000000e+000
      outer loop
         vertex 7.942139e-002 -6.614173e-001 1.690037e+000
         vertex 5.114323e-002 -6.614173e-001 1.620092e+000
         vertex 5.497286e-002 -6.614173e-001 1.612139e+000
      endloop
   endfacet
   facet normal 0.000000e+000 -1.000000e+000 0.000000e+000
      outer loop
         vertex 7.942139e-002 -6.614173e-001 1.690037e+000
         vertex 5.497286e-002 -6.614173e-001 1.612139e+000
         vertex 1.258571e-001 -6.614173e-001 1.571520e+000
      endloop
   endfacet
   facet normal 0.000000e+000 -1.000000e+000 0.000000e+000
      outer loop
         vertex 1.258571e-001 -6.614173e-001 1.571520e+000
         vertex 5.497286e-002 -6.614173e-001 1.612139e+000
         vertex 5.757448e-002 -6.614173e-001 1.603705e+000
      endloop
   endfacet
   facet normal 0.000000e+000 -1.000000e+000 0.000000e+000
      outer loop
         vertex 1.258571e-001 -6.614173e-001 1.571520e+000
         vertex 5.757448e-002 -6.614173e-001 1.603705e+000
         vertex 5.888999e-002 -6.614173e-001 1.594977e+000
      endloop
   endfacet
   facet normal 0.000000e+000 -1.000000e+000 0.000000e+000
      outer loop
         vertex 5.497286e-002 -6.614173e-001 1.568989e+000
         vertex 5.114323e-002 -6.614173e-001 1.561037e+000
         vertex 1.258571e-001 -6.614173e-001 1.571520e+000
      endloop
   endfacet
   facet normal 0.000000e+000 -1.000000e+000 0.000000e+000
      outer loop
         vertex 1.258571e-001 -6.614173e-001 1.571520e+000
         vertex 5.114323e-002 -6.614173e-001 1.561037e+000
         vertex 4.617115e-002 -6.614173e-001 1.553744e+000
      endloop
   endfacet
   facet normal 0.000000e+000 -1.000000e+000 0.000000e+000
      outer loop
         vertex 1.258571e-001 -6.614173e-001 1.571520e+000
         vertex 4.617115e-002 -6.614173e-001 1.553744e+000
         vertex 4.643572e-002 -6.614173e-001 1.472047e+000
      endloop
   endfacet
   facet normal 0.000000e+000 -1.000000e+000 0.000000e+000
      outer loop
         vertex 4.643572e-002 -6.614173e-001 1.472047e+000
         vertex 4.617115e-002 -6.614173e-001 1.553744e+000
         vertex 4.016768e-002 -6.614173e-001 1.547274e+000
      endloop
   endfacet
   facet normal 0.000000e+000 -1.000000e+000 0.000000e+000
      outer loop
         vertex 4.643572e-002 -6.614173e-001 1.472047e+000
         vertex 4.016768e-002 -6.614173e-001 1.547274e+000
         vertex 3.326693e-002 -6.614173e-001 1.541770e+000
      endloop
   endfacet
   facet normal 0.000000e+000 -1.000000e+000 0.000000e+000
      outer loop
         vertex -5.497286e-002 -6.614173e-001 1.612139e+000
         vertex -5.114323e-002 -6.614173e-001 1.620092e+000
         vertex -1.258571e-001 -6.614173e-001 1.609609e+000
      endloop
   endfacet
   facet normal 0.000000e+000 -1.000000e+000 0.000000e+000
      outer loop
         vertex -1.258571e-001 -6.614173e-001 1.609609e+000
         vertex -5.114323e-002 -6.614173e-001 1.620092e+000
         vertex -4.617115e-002 -6.614173e-001 1.627384e+000
      endloop
   endfacet
   facet normal 0.000000e+000 -1.000000e+000 0.000000e+000
      outer loop
         vertex -1.258571e-001 -6.614173e-001 1.609609e+000
         vertex -4.617115e-002 -6.614173e-001 1.627384e+000
         vertex -4.643572e-002 -6.614173e-001 1.709082e+000
      endloop
   endfacet
   facet normal 0.000000e+000 -1.000000e+000 0.000000e+000
      outer loop
         vertex -4.643572e-002 -6.614173e-001 1.709082e+000
         vertex -4.617115e-002 -6.614173e-001 1.627384e+000
         vertex -4.016768e-002 -6.614173e-001 1.633855e+000
      endloop
   endfacet
   facet normal 0.000000e+000 -1.000000e+000 0.000000e+000
      outer loop
         vertex -4.643572e-002 -6.614173e-001 1.709082e+000
         vertex -4.016768e-002 -6.614173e-001 1.633855e+000
         vertex -3.326693e-002 -6.614173e-001 1.639358e+000
      endloop
   endfacet
   facet normal 0.000000e+000 -1.000000e+000 0.000000e+000
      outer loop
         vertex 5.888999e-002 -6.614173e-001 1.594977e+000
         vertex 5.888999e-002 -6.614173e-001 1.586151e+000
         vertex 1.258571e-001 -6.614173e-001 1.571520e+000
      endloop
   endfacet
   facet normal 0.000000e+000 -1.000000e+000 0.000000e+000
      outer loop
         vertex 1.258571e-001 -6.614173e-001 1.571520e+000
         vertex 5.888999e-002 -6.614173e-001 1.586151e+000
         vertex 5.757448e-002 -6.614173e-001 1.577423e+000
      endloop
   endfacet
   facet normal 0.000000e+000 -1.000000e+000 0.000000e+000
      outer loop
         vertex 1.258571e-001 -6.614173e-001 1.571520e+000
         vertex 5.757448e-002 -6.614173e-001 1.577423e+000
         vertex 5.497286e-002 -6.614173e-001 1.568989e+000
      endloop
   endfacet
   facet normal 0.000000e+000 -1.000000e+000 0.000000e+000
      outer loop
         vertex -5.888999e-002 -6.614173e-001 1.586151e+000
         vertex -5.888999e-002 -6.614173e-001 1.594977e+000
         vertex -1.258571e-001 -6.614173e-001 1.609609e+000
      endloop
   endfacet
   facet normal 0.000000e+000 -1.000000e+000 0.000000e+000
      outer loop
         vertex -1.258571e-001 -6.614173e-001 1.609609e+000
         vertex -5.888999e-002 -6.614173e-001 1.594977e+000
         vertex -5.757448e-002 -6.614173e-001 1.603705e+000
      endloop
   endfacet
   facet normal 0.000000e+000 -1.000000e+000 0.000000e+000
      outer loop
         vertex -1.258571e-001 -6.614173e-001 1.609609e+000
         vertex -5.757448e-002 -6.614173e-001 1.603705e+000
         vertex -5.497286e-002 -6.614173e-001 1.612139e+000
      endloop
   endfacet
   facet normal 0.000000e+000 -1.000000e+000 0.000000e+000
      outer loop
         vertex -4.617115e-002 -6.614173e-001 1.553744e+000
         vertex -5.114323e-002 -6.614173e-001 1.561037e+000
         vertex -7.942139e-002 -6.614173e-001 1.491091e+000
      endloop
   endfacet
   facet normal 0.000000e+000 -1.000000e+000 0.000000e+000
      outer loop
         vertex -7.942139e-002 -6.614173e-001 1.491091e+000
         vertex -5.114323e-002 -6.614173e-001 1.561037e+000
         vertex -5.497286e-002 -6.614173e-001 1.568989e+000
      endloop
   endfacet
   facet normal 0.000000e+000 -1.000000e+000 0.000000e+000
      outer loop
         vertex -7.942139e-002 -6.614173e-001 1.491091e+000
         vertex -5.497286e-002 -6.614173e-001 1.568989e+000
         vertex -1.258571e-001 -6.614173e-001 1.609609e+000
      endloop
   endfacet
   facet normal 0.000000e+000 -1.000000e+000 0.000000e+000
      outer loop
         vertex -1.258571e-001 -6.614173e-001 1.609609e+000
         vertex -5.497286e-002 -6.614173e-001 1.568989e+000
         vertex -5.757448e-002 -6.614173e-001 1.577423e+000
      endloop
   endfacet
   facet normal 0.000000e+000 -1.000000e+000 0.000000e+000
      outer loop
         vertex -1.258571e-001 -6.614173e-001 1.609609e+000
         vertex -5.757448e-002 -6.614173e-001 1.577423e+000
         vertex -5.888999e-002 -6.614173e-001 1.586151e+000
      endloop
   endfacet
   facet normal 9.310847e-001 0.000000e+000 3.648032e-001
      outer loop
         vertex 1.258571e-001 -5.826772e-001 1.571520e+000
         vertex 7.942139e-002 -5.826772e-001 1.690037e+000
         vertex 1.258571e-001 -6.614173e-001 1.571520e+000
      endloop
   endfacet
   facet normal 9.310847e-001 0.000000e+000 3.648032e-001
      outer loop
         vertex 1.258571e-001 -6.614173e-001 1.571520e+000
         vertex 7.942139e-002 -5.826772e-001 1.690037e+000
         vertex 7.942139e-002 -6.614173e-001 1.690037e+000
      endloop
   endfacet
   facet normal 7.814711e-001 0.000000e+000 -6.239415e-001
      outer loop
         vertex 4.643572e-002 -5.826772e-001 1.472047e+000
         vertex 1.258571e-001 -5.826772e-001 1.571520e+000
         vertex 4.643572e-002 -6.614173e-001 1.472047e+000
      endloop
   endfacet
   facet normal 7.814711e-001 0.000000e+000 -6.239415e-001
      outer loop
         vertex 4.643572e-002 -6.614173e-001 1.472047e+000
         vertex 1.258571e-001 -5.826772e-001 1.571520e+000
         vertex 1.258571e-001 -6.614173e-001 1.571520e+000
      endloop
   endfacet
   facet normal -1.496135e-001 0.000000e+000 -9.887446e-001
      outer loop
         vertex -7.942139e-002 -5.826772e-001 1.491091e+000
         vertex 4.643572e-002 -5.826772e-001 1.472047e+000
         vertex -7.942139e-002 -6.614173e-001 1.491091e+000
      endloop
   endfacet
   facet normal -1.496135e-001 0.000000e+000 -9.887446e-001
      outer loop
         vertex -7.942139e-002 -6.614173e-001 1.491091e+000
         vertex 4.643572e-002 -5.826772e-001 1.472047e+000
         vertex 4.643572e-002 -6.614173e-001 1.472047e+000
      endloop
   endfacet
   facet normal -9.310847e-001 0.000000e+000 -3.648032e-001
      outer loop
         vertex -1.258571e-001 -5.826772e-001 1.609609e+000
         vertex -7.942139e-002 -5.826772e-001 1.491091e+000
         vertex -1.258571e-001 -6.614173e-001 1.609609e+000
      endloop
   endfacet
   facet normal -9.310847e-001 0.000000e+000 -3.648032e-001
      outer loop
         vertex -1.258571e-001 -6.614173e-001 1.609609e+000
         vertex -7.942139e-002 -5.826772e-001 1.491091e+000
         vertex -7.942139e-002 -6.614173e-001 1.491091e+000
      endloop
   endfacet
   facet normal -7.814711e-001 0.000000e+000 6.239415e-001
      outer loop
         vertex -4.643572e-002 -5.826772e-001 1.709082e+000
         vertex -1.258571e-001 -5.826772e-001 1.609609e+000
         vertex -4.643572e-002 -6.614173e-001 1.709082e+000
      endloop
   endfacet
   facet normal -7.814711e-001 0.000000e+000 6.239415e-001
      outer loop
         vertex -4.643572e-002 -6.614173e-001 1.709082e+000
         vertex -1.258571e-001 -5.826772e-001 1.609609e+000
         vertex -1.258571e-001 -6.614173e-001 1.609609e+000
      endloop
   endfacet
   facet normal 1.496135e-001 0.000000e+000 9.887446e-001
      outer loop
         vertex 7.942139e-002 -5.826772e-001 1.690037e+000
         vertex -4.643572e-002 -5.826772e-001 1.709082e+000
         vertex 7.942139e-002 -6.614173e-001 1.690037e+000
      endloop
   endfacet
   facet normal 1.496135e-001 0.000000e+000 9.887446e-001
      outer loop
         vertex 7.942139e-002 -6.614173e-001 1.690037e+000
         vertex -4.643572e-002 -5.826772e-001 1.709082e+000
         vertex -4.643572e-002 -6.614173e-001 1.709082e+000
      endloop
   endfacet
   facet normal 4.980453e-002 0.000000e+000 9.987590e-001
      outer loop
         vertex -8.801709e-003 -5.826772e-001 1.532169e+000
         vertex -1.446433e-017 -6.614173e-001 1.531509e+000
         vertex -1.446433e-017 -5.826772e-001 1.531509e+000
      endloop
   endfacet
   facet normal -4.980453e-002 0.000000e+000 9.987590e-001
      outer loop
         vertex -1.446433e-017 -5.826772e-001 1.531509e+000
         vertex -1.446433e-017 -6.614173e-001 1.531509e+000
         vertex 8.801709e-003 -6.614173e-001 1.532169e+000
      endloop
   endfacet
   facet normal -9.960905e-002 0.000000e+000 9.950266e-001
      outer loop
         vertex -1.446433e-017 -5.826772e-001 1.531509e+000
         vertex 8.801709e-003 -6.614173e-001 1.532169e+000
         vertex 8.801709e-003 -5.826772e-001 1.532169e+000
      endloop
   endfacet
   facet normal -1.981055e-001 0.000000e+000 9.801807e-001
      outer loop
         vertex 8.801709e-003 -5.826772e-001 1.532169e+000
         vertex 8.801709e-003 -6.614173e-001 1.532169e+000
         vertex 1.740680e-002 -6.614173e-001 1.534133e+000
      endloop
   endfacet
   facet normal -2.467975e-001 0.000000e+000 9.690670e-001
      outer loop
         vertex 8.801709e-003 -5.826772e-001 1.532169e+000
         vertex 1.740680e-002 -6.614173e-001 1.534133e+000
         vertex 1.740680e-002 -5.826772e-001 1.534133e+000
      endloop
   endfacet
   facet normal -3.419812e-001 0.000000e+000 9.397067e-001
      outer loop
         vertex 1.740680e-002 -5.826772e-001 1.534133e+000
         vertex 1.740680e-002 -6.614173e-001 1.534133e+000
         vertex 2.562306e-002 -6.614173e-001 1.537357e+000
      endloop
   endfacet
   facet normal -3.884729e-001 0.000000e+000 9.214601e-001
      outer loop
         vertex 1.740680e-002 -5.826772e-001 1.534133e+000
         vertex 2.562306e-002 -6.614173e-001 1.537357e+000
         vertex 2.562306e-002 -5.826772e-001 1.537357e+000
      endloop
   endfacet
   facet normal -4.782176e-001 0.000000e+000 8.782414e-001
      outer loop
         vertex 2.562306e-002 -5.826772e-001 1.537357e+000
         vertex 2.562306e-002 -6.614173e-001 1.537357e+000
         vertex 3.326693e-002 -6.614173e-001 1.541770e+000
      endloop
   endfacet
   facet normal -5.214705e-001 0.000000e+000 8.532693e-001
      outer loop
         vertex 2.562306e-002 -5.826772e-001 1.537357e+000
         vertex 3.326693e-002 -6.614173e-001 1.541770e+000
         vertex 3.326693e-002 -5.826772e-001 1.541770e+000
      endloop
   endfacet
   facet normal -6.037714e-001 0.000000e+000 7.971576e-001
      outer loop
         vertex 3.326693e-002 -5.826772e-001 1.541770e+000
         vertex 3.326693e-002 -6.614173e-001 1.541770e+000
         vertex 4.016768e-002 -6.614173e-001 1.547274e+000
      endloop
   endfacet
   facet normal -6.428193e-001 0.000000e+000 7.660179e-001
      outer loop
         vertex 3.326693e-002 -5.826772e-001 1.541770e+000
         vertex 4.016768e-002 -6.614173e-001 1.547274e+000
         vertex 4.016768e-002 -5.826772e-001 1.547274e+000
      endloop
   endfacet
   facet normal -7.158380e-001 0.000000e+000 6.982664e-001
      outer loop
         vertex 4.016768e-002 -5.826772e-001 1.547274e+000
         vertex 4.016768e-002 -6.614173e-001 1.547274e+000
         vertex 4.617115e-002 -6.614173e-001 1.553744e+000
      endloop
   endfacet
   facet normal -7.498086e-001 0.000000e+000 6.616548e-001
      outer loop
         vertex 4.016768e-002 -5.826772e-001 1.547274e+000
         vertex 4.617115e-002 -6.614173e-001 1.553744e+000
         vertex 4.617115e-002 -5.826772e-001 1.553744e+000
      endloop
   endfacet
   facet normal -8.119138e-001 0.000000e+000 5.837772e-001
      outer loop
         vertex 4.617115e-002 -5.826772e-001 1.553744e+000
         vertex 4.617115e-002 -6.614173e-001 1.553744e+000
         vertex 5.114323e-002 -6.614173e-001 1.561037e+000
      endloop
   endfacet
   facet normal -8.400484e-001 0.000000e+000 5.425115e-001
      outer loop
         vertex 4.617115e-002 -5.826772e-001 1.553744e+000
         vertex 5.114323e-002 -6.614173e-001 1.561037e+000
         vertex 5.114323e-002 -5.826772e-001 1.561037e+000
      endloop
   endfacet
   facet normal -8.898529e-001 0.000000e+000 4.562475e-001
      outer loop
         vertex 5.114323e-002 -5.826772e-001 1.561037e+000
         vertex 5.114323e-002 -6.614173e-001 1.561037e+000
         vertex 5.497286e-002 -6.614173e-001 1.568989e+000
      endloop
   endfacet
   facet normal -9.115229e-001 0.000000e+000 4.112494e-001
      outer loop
         vertex 5.114323e-002 -5.826772e-001 1.561037e+000
         vertex 5.497286e-002 -6.614173e-001 1.568989e+000
         vertex 5.497286e-002 -5.826772e-001 1.568989e+000
      endloop
   endfacet
   facet normal -9.479141e-001 0.000000e+000 3.185259e-001
      outer loop
         vertex 5.497286e-002 -5.826772e-001 1.568989e+000
         vertex 5.497286e-002 -6.614173e-001 1.568989e+000
         vertex 5.757448e-002 -6.614173e-001 1.577423e+000
      endloop
   endfacet
   facet normal -9.626355e-001 0.000000e+000 2.708006e-001
      outer loop
         vertex 5.497286e-002 -5.826772e-001 1.568989e+000
         vertex 5.757448e-002 -6.614173e-001 1.577423e+000
         vertex 5.757448e-002 -5.826772e-001 1.577423e+000
      endloop
   endfacet
   facet normal -9.848005e-001 0.000000e+000 1.736889e-001
      outer loop
         vertex 5.757448e-002 -5.826772e-001 1.577423e+000
         vertex 5.757448e-002 -6.614173e-001 1.577423e+000
         vertex 5.888999e-002 -6.614173e-001 1.586151e+000
      endloop
   endfacet
   facet normal -9.922444e-001 0.000000e+000 1.243026e-001
      outer loop
         vertex 5.757448e-002 -5.826772e-001 1.577423e+000
         vertex 5.888999e-002 -6.614173e-001 1.586151e+000
         vertex 5.888999e-002 -5.826772e-001 1.586151e+000
      endloop
   endfacet
   facet normal -9.996881e-001 0.000000e+000 2.497209e-002
      outer loop
         vertex 5.888999e-002 -5.826772e-001 1.586151e+000
         vertex 5.888999e-002 -6.614173e-001 1.586151e+000
         vertex 5.888999e-002 -6.614173e-001 1.594977e+000
      endloop
   endfacet
   facet normal -9.996881e-001 0.000000e+000 -2.497209e-002
      outer loop
         vertex 5.888999e-002 -5.826772e-001 1.586151e+000
         vertex 5.888999e-002 -6.614173e-001 1.594977e+000
         vertex 5.888999e-002 -5.826772e-001 1.594977e+000
      endloop
   endfacet
   facet normal -9.922444e-001 0.000000e+000 -1.243026e-001
      outer loop
         vertex 5.888999e-002 -5.826772e-001 1.594977e+000
         vertex 5.888999e-002 -6.614173e-001 1.594977e+000
         vertex 5.757448e-002 -6.614173e-001 1.603705e+000
      endloop
   endfacet
   facet normal -9.848005e-001 0.000000e+000 -1.736889e-001
      outer loop
         vertex 5.888999e-002 -5.826772e-001 1.594977e+000
         vertex 5.757448e-002 -6.614173e-001 1.603705e+000
         vertex 5.757448e-002 -5.826772e-001 1.603705e+000
      endloop
   endfacet
   facet normal -9.626355e-001 0.000000e+000 -2.708006e-001
      outer loop
         vertex 5.757448e-002 -5.826772e-001 1.603705e+000
         vertex 5.757448e-002 -6.614173e-001 1.603705e+000
         vertex 5.497286e-002 -6.614173e-001 1.612139e+000
      endloop
   endfacet
   facet normal -9.479141e-001 0.000000e+000 -3.185259e-001
      outer loop
         vertex 5.757448e-002 -5.826772e-001 1.603705e+000
         vertex 5.497286e-002 -6.614173e-001 1.612139e+000
         vertex 5.497286e-002 -5.826772e-001 1.612139e+000
      endloop
   endfacet
   facet normal -9.115229e-001 0.000000e+000 -4.112494e-001
      outer loop
         vertex 5.497286e-002 -5.826772e-001 1.612139e+000
         vertex 5.497286e-002 -6.614173e-001 1.612139e+000
         vertex 5.114323e-002 -6.614173e-001 1.620092e+000
      endloop
   endfacet
   facet normal -8.898529e-001 0.000000e+000 -4.562475e-001
      outer loop
         vertex 5.497286e-002 -5.826772e-001 1.612139e+000
         vertex 5.114323e-002 -6.614173e-001 1.620092e+000
         vertex 5.114323e-002 -5.826772e-001 1.620092e+000
      endloop
   endfacet
   facet normal -8.400484e-001 0.000000e+000 -5.425115e-001
      outer loop
         vertex 5.114323e-002 -5.826772e-001 1.620092e+000
         vertex 5.114323e-002 -6.614173e-001 1.620092e+000
         vertex 4.617115e-002 -6.614173e-001 1.627384e+000
      endloop
   endfacet
   facet normal -8.119138e-001 0.000000e+000 -5.837773e-001
      outer loop
         vertex 5.114323e-002 -5.826772e-001 1.620092e+000
         vertex 4.617115e-002 -6.614173e-001 1.627384e+000
         vertex 4.617115e-002 -5.826772e-001 1.627384e+000
      endloop
   endfacet
   facet normal -7.498086e-001 0.000000e+000 -6.616548e-001
      outer loop
         vertex 4.617115e-002 -5.826772e-001 1.627384e+000
         vertex 4.617115e-002 -6.614173e-001 1.627384e+000
         vertex 4.016768e-002 -6.614173e-001 1.633855e+000
      endloop
   endfacet
   facet normal -7.158380e-001 0.000000e+000 -6.982664e-001
      outer loop
         vertex 4.617115e-002 -5.826772e-001 1.627384e+000
         vertex 4.016768e-002 -6.614173e-001 1.633855e+000
         vertex 4.016768e-002 -5.826772e-001 1.633855e+000
      endloop
   endfacet
   facet normal -6.428193e-001 0.000000e+000 -7.660179e-001
      outer loop
         vertex 4.016768e-002 -5.826772e-001 1.633855e+000
         vertex 4.016768e-002 -6.614173e-001 1.633855e+000
         vertex 3.326693e-002 -6.614173e-001 1.639358e+000
      endloop
   endfacet
   facet normal -6.037714e-001 0.000000e+000 -7.971575e-001
      outer loop
         vertex 4.016768e-002 -5.826772e-001 1.633855e+000
         vertex 3.326693e-002 -6.614173e-001 1.639358e+000
         vertex 3.326693e-002 -5.826772e-001 1.639358e+000
      endloop
   endfacet
   facet normal -5.214705e-001 0.000000e+000 -8.532693e-001
      outer loop
         vertex 3.326693e-002 -5.826772e-001 1.639358e+000
         vertex 3.326693e-002 -6.614173e-001 1.639358e+000
         vertex 2.562306e-002 -6.614173e-001 1.643771e+000
      endloop
   endfacet
   facet normal -4.782176e-001 0.000000e+000 -8.782414e-001
      outer loop
         vertex 3.326693e-002 -5.826772e-001 1.639358e+000
         vertex 2.562306e-002 -6.614173e-001 1.643771e+000
         vertex 2.562306e-002 -5.826772e-001 1.643771e+000
      endloop
   endfacet
   facet normal -3.884729e-001 0.000000e+000 -9.214601e-001
      outer loop
         vertex 2.562306e-002 -5.826772e-001 1.643771e+000
         vertex 2.562306e-002 -6.614173e-001 1.643771e+000
         vertex 1.740680e-002 -6.614173e-001 1.646996e+000
      endloop
   endfacet
   facet normal -3.419812e-001 0.000000e+000 -9.397067e-001
      outer loop
         vertex 2.562306e-002 -5.826772e-001 1.643771e+000
         vertex 1.740680e-002 -6.614173e-001 1.646996e+000
         vertex 1.740680e-002 -5.826772e-001 1.646996e+000
      endloop
   endfacet
   facet normal -2.467975e-001 0.000000e+000 -9.690670e-001
      outer loop
         vertex 1.740680e-002 -5.826772e-001 1.646996e+000
         vertex 1.740680e-002 -6.614173e-001 1.646996e+000
         vertex 8.801709e-003 -6.614173e-001 1.648960e+000
      endloop
   endfacet
   facet normal -1.981055e-001 0.000000e+000 -9.801807e-001
      outer loop
         vertex 1.740680e-002 -5.826772e-001 1.646996e+000
         vertex 8.801709e-003 -6.614173e-001 1.648960e+000
         vertex 8.801709e-003 -5.826772e-001 1.648960e+000
      endloop
   endfacet
   facet normal -9.960905e-002 0.000000e+000 -9.950266e-001
      outer loop
         vertex 8.801709e-003 -5.826772e-001 1.648960e+000
         vertex 8.801709e-003 -6.614173e-001 1.648960e+000
         vertex 7.232166e-018 -6.614173e-001 1.649619e+000
      endloop
   endfacet
   facet normal -4.980453e-002 0.000000e+000 -9.987590e-001
      outer loop
         vertex 8.801709e-003 -5.826772e-001 1.648960e+000
         vertex 7.232166e-018 -6.614173e-001 1.649619e+000
         vertex 7.232166e-018 -5.826772e-001 1.649619e+000
      endloop
   endfacet
   facet normal 4.980453e-002 0.000000e+000 -9.987590e-001
      outer loop
         vertex 7.232166e-018 -5.826772e-001 1.649619e+000
         vertex 7.232166e-018 -6.614173e-001 1.649619e+000
         vertex -8.801709e-003 -6.614173e-001 1.648960e+000
      endloop
   endfacet
   facet normal 9.960905e-002 0.000000e+000 -9.950266e-001
      outer loop
         vertex 7.232166e-018 -5.826772e-001 1.649619e+000
         vertex -8.801709e-003 -6.614173e-001 1.648960e+000
         vertex -8.801709e-003 -5.826772e-001 1.648960e+000
      endloop
   endfacet
   facet normal 1.981055e-001 0.000000e+000 -9.801807e-001
      outer loop
         vertex -8.801709e-003 -5.826772e-001 1.648960e+000
         vertex -8.801709e-003 -6.614173e-001 1.648960e+000
         vertex -1.740680e-002 -6.614173e-001 1.646996e+000
      endloop
   endfacet
   facet normal 2.467975e-001 0.000000e+000 -9.690670e-001
      outer loop
         vertex -8.801709e-003 -5.826772e-001 1.648960e+000
         vertex -1.740680e-002 -6.614173e-001 1.646996e+000
         vertex -1.740680e-002 -5.826772e-001 1.646996e+000
      endloop
   endfacet
   facet normal 3.419812e-001 0.000000e+000 -9.397067e-001
      outer loop
         vertex -1.740680e-002 -5.826772e-001 1.646996e+000
         vertex -1.740680e-002 -6.614173e-001 1.646996e+000
         vertex -2.562306e-002 -6.614173e-001 1.643771e+000
      endloop
   endfacet
   facet normal 3.884729e-001 0.000000e+000 -9.214601e-001
      outer loop
         vertex -1.740680e-002 -5.826772e-001 1.646996e+000
         vertex -2.562306e-002 -6.614173e-001 1.643771e+000
         vertex -2.562306e-002 -5.826772e-001 1.643771e+000
      endloop
   endfacet
   facet normal 4.782176e-001 0.000000e+000 -8.782414e-001
      outer loop
         vertex -2.562306e-002 -5.826772e-001 1.643771e+000
         vertex -2.562306e-002 -6.614173e-001 1.643771e+000
         vertex -3.326693e-002 -6.614173e-001 1.639358e+000
      endloop
   endfacet
   facet normal 5.214705e-001 0.000000e+000 -8.532693e-001
      outer loop
         vertex -2.562306e-002 -5.826772e-001 1.643771e+000
         vertex -3.326693e-002 -6.614173e-001 1.639358e+000
         vertex -3.326693e-002 -5.826772e-001 1.639358e+000
      endloop
   endfacet
   facet normal 6.037714e-001 0.000000e+000 -7.971576e-001
      outer loop
         vertex -3.326693e-002 -5.826772e-001 1.639358e+000
         vertex -3.326693e-002 -6.614173e-001 1.639358e+000
         vertex -4.016768e-002 -6.614173e-001 1.633855e+000
      endloop
   endfacet
   facet normal 6.428193e-001 0.000000e+000 -7.660179e-001
      outer loop
         vertex -3.326693e-002 -5.826772e-001 1.639358e+000
         vertex -4.016768e-002 -6.614173e-001 1.633855e+000
         vertex -4.016768e-002 -5.826772e-001 1.633855e+000
      endloop
   endfacet
   facet normal 7.158380e-001 0.000000e+000 -6.982664e-001
      outer loop
         vertex -4.016768e-002 -5.826772e-001 1.633855e+000
         vertex -4.016768e-002 -6.614173e-001 1.633855e+000
         vertex -4.617115e-002 -6.614173e-001 1.627384e+000
      endloop
   endfacet
   facet normal 7.498086e-001 0.000000e+000 -6.616548e-001
      outer loop
         vertex -4.016768e-002 -5.826772e-001 1.633855e+000
         vertex -4.617115e-002 -6.614173e-001 1.627384e+000
         vertex -4.617115e-002 -5.826772e-001 1.627384e+000
      endloop
   endfacet
   facet normal 8.119138e-001 0.000000e+000 -5.837772e-001
      outer loop
         vertex -4.617115e-002 -5.826772e-001 1.627384e+000
         vertex -4.617115e-002 -6.614173e-001 1.627384e+000
         vertex -5.114323e-002 -6.614173e-001 1.620092e+000
      endloop
   endfacet
   facet normal 8.400484e-001 0.000000e+000 -5.425115e-001
      outer loop
         vertex -4.617115e-002 -5.826772e-001 1.627384e+000
         vertex -5.114323e-002 -6.614173e-001 1.620092e+000
         vertex -5.114323e-002 -5.826772e-001 1.620092e+000
      endloop
   endfacet
   facet normal 8.898529e-001 0.000000e+000 -4.562475e-001
      outer loop
         vertex -5.114323e-002 -5.826772e-001 1.620092e+000
         vertex -5.114323e-002 -6.614173e-001 1.620092e+000
         vertex -5.497286e-002 -6.614173e-001 1.612139e+000
      endloop
   endfacet
   facet normal 9.115229e-001 0.000000e+000 -4.112494e-001
      outer loop
         vertex -5.114323e-002 -5.826772e-001 1.620092e+000
         vertex -5.497286e-002 -6.614173e-001 1.612139e+000
         vertex -5.497286e-002 -5.826772e-001 1.612139e+000
      endloop
   endfacet
   facet normal 9.479141e-001 0.000000e+000 -3.185259e-001
      outer loop
         vertex -5.497286e-002 -5.826772e-001 1.612139e+000
         vertex -5.497286e-002 -6.614173e-001 1.612139e+000
         vertex -5.757448e-002 -6.614173e-001 1.603705e+000
      endloop
   endfacet
   facet normal 9.626355e-001 0.000000e+000 -2.708006e-001
      outer loop
         vertex -5.497286e-002 -5.826772e-001 1.612139e+000
         vertex -5.757448e-002 -6.614173e-001 1.603705e+000
         vertex -5.757448e-002 -5.826772e-001 1.603705e+000
      endloop
   endfacet
   facet normal 9.848005e-001 0.000000e+000 -1.736889e-001
      outer loop
         vertex -5.757448e-002 -5.826772e-001 1.603705e+000
         vertex -5.757448e-002 -6.614173e-001 1.603705e+000
         vertex -5.888999e-002 -6.614173e-001 1.594977e+000
      endloop
   endfacet
   facet normal 9.922444e-001 0.000000e+000 -1.243026e-001
      outer loop
         vertex -5.757448e-002 -5.826772e-001 1.603705e+000
         vertex -5.888999e-002 -6.614173e-001 1.594977e+000
         vertex -5.888999e-002 -5.826772e-001 1.594977e+000
      endloop
   endfacet
   facet normal 9.996881e-001 0.000000e+000 -2.497209e-002
      outer loop
         vertex -5.888999e-002 -5.826772e-001 1.594977e+000
         vertex -5.888999e-002 -6.614173e-001 1.594977e+000
         vertex -5.888999e-002 -6.614173e-001 1.586151e+000
      endloop
   endfacet
   facet normal 9.996881e-001 0.000000e+000 2.497209e-002
      outer loop
         vertex -5.888999e-002 -5.826772e-001 1.594977e+000
         vertex -5.888999e-002 -6.614173e-001 1.586151e+000
         vertex -5.888999e-002 -5.826772e-001 1.586151e+000
      endloop
   endfacet
   facet normal 9.922444e-001 0.000000e+000 1.243026e-001
      outer loop
         vertex -5.888999e-002 -5.826772e-001 1.586151e+000
         vertex -5.888999e-002 -6.614173e-001 1.586151e+000
         vertex -5.757448e-002 -6.614173e-001 1.577423e+000
      endloop
   endfacet
   facet normal 9.848005e-001 0.000000e+000 1.736889e-001
      outer loop
         vertex -5.888999e-002 -5.826772e-001 1.586151e+000
         vertex -5.757448e-002 -6.614173e-001 1.577423e+000
         vertex -5.757448e-002 -5.826772e-001 1.577423e+000
      endloop
   endfacet
   facet normal 9.626355e-001 0.000000e+000 2.708006e-001
      outer loop
         vertex -5.757448e-002 -5.826772e-001 1.577423e+000
         vertex -5.757448e-002 -6.614173e-001 1.577423e+000
         vertex -5.497286e-002 -6.614173e-001 1.568989e+000
      endloop
   endfacet
   facet normal 9.479141e-001 0.000000e+000 3.185259e-001
      outer loop
         vertex -5.757448e-002 -5.826772e-001 1.577423e+000
         vertex -5.497286e-002 -6.614173e-001 1.568989e+000
         vertex -5.497286e-002 -5.826772e-001 1.568989e+000
      endloop
   endfacet
   facet normal 9.115229e-001 0.000000e+000 4.112494e-001
      outer loop
         vertex -5.497286e-002 -5.826772e-001 1.568989e+000
         vertex -5.497286e-002 -6.614173e-001 1.568989e+000
         vertex -5.114323e-002 -6.614173e-001 1.561037e+000
      endloop
   endfacet
   facet normal 8.898529e-001 0.000000e+000 4.562475e-001
      outer loop
         vertex -5.497286e-002 -5.826772e-001 1.568989e+000
         vertex -5.114323e-002 -6.614173e-001 1.561037e+000
         vertex -5.114323e-002 -5.826772e-001 1.561037e+000
      endloop
   endfacet
   facet normal 8.400484e-001 0.000000e+000 5.425115e-001
      outer loop
         vertex -5.114323e-002 -5.826772e-001 1.561037e+000
         vertex -5.114323e-002 -6.614173e-001 1.561037e+000
         vertex -4.617115e-002 -6.614173e-001 1.553744e+000
      endloop
   endfacet
   facet normal 8.119138e-001 0.000000e+000 5.837773e-001
      outer loop
         vertex -5.114323e-002 -5.826772e-001 1.561037e+000
         vertex -4.617115e-002 -6.614173e-001 1.553744e+000
         vertex -4.617115e-002 -5.826772e-001 1.553744e+000
      endloop
   endfacet
   facet normal 7.498086e-001 0.000000e+000 6.616548e-001
      outer loop
         vertex -4.617115e-002 -5.826772e-001 1.553744e+000
         vertex -4.617115e-002 -6.614173e-001 1.553744e+000
         vertex -4.016768e-002 -6.614173e-001 1.547274e+000
      endloop
   endfacet
   facet normal 7.158380e-001 0.000000e+000 6.982664e-001
      outer loop
         vertex -4.617115e-002 -5.826772e-001 1.553744e+000
         vertex -4.016768e-002 -6.614173e-001 1.547274e+000
         vertex -4.016768e-002 -5.826772e-001 1.547274e+000
      endloop
   endfacet
   facet normal 6.428193e-001 0.000000e+000 7.660179e-001
      outer loop
         vertex -4.016768e-002 -5.826772e-001 1.547274e+000
         vertex -4.016768e-002 -6.614173e-001 1.547274e+000
         vertex -3.326693e-002 -6.614173e-001 1.541770e+000
      endloop
   endfacet
   facet normal 6.037714e-001 0.000000e+000 7.971575e-001
      outer loop
         vertex -4.016768e-002 -5.826772e-001 1.547274e+000
         vertex -3.326693e-002 -6.614173e-001 1.541770e+000
         vertex -3.326693e-002 -5.826772e-001 1.541770e+000
      endloop
   endfacet
   facet normal 5.214705e-001 0.000000e+000 8.532693e-001
      outer loop
         vertex -3.326693e-002 -5.826772e-001 1.541770e+000
         vertex -3.326693e-002 -6.614173e-001 1.541770e+000
         vertex -2.562306e-002 -6.614173e-001 1.537357e+000
      endloop
   endfacet
   facet normal 4.782176e-001 0.000000e+000 8.782414e-001
      outer loop
         vertex -3.326693e-002 -5.826772e-001 1.541770e+000
         vertex -2.562306e-002 -6.614173e-001 1.537357e+000
         vertex -2.562306e-002 -5.826772e-001 1.537357e+000
      endloop
   endfacet
   facet normal 3.884729e-001 0.000000e+000 9.214601e-001
      outer loop
         vertex -2.562306e-002 -5.826772e-001 1.537357e+000
         vertex -2.562306e-002 -6.614173e-001 1.537357e+000
         vertex -1.740680e-002 -6.614173e-001 1.534133e+000
      endloop
   endfacet
   facet normal 3.419812e-001 0.000000e+000 9.397067e-001
      outer loop
         vertex -2.562306e-002 -5.826772e-001 1.537357e+000
         vertex -1.740680e-002 -6.614173e-001 1.534133e+000
         vertex -1.740680e-002 -5.826772e-001 1.534133e+000
      endloop
   endfacet
   facet normal 2.467975e-001 0.000000e+000 9.690670e-001
      outer loop
         vertex -1.740680e-002 -5.826772e-001 1.534133e+000
         vertex -1.740680e-002 -6.614173e-001 1.534133e+000
         vertex -8.801709e-003 -6.614173e-001 1.532169e+000
      endloop
   endfacet
   facet normal 1.981055e-001 0.000000e+000 9.801807e-001
      outer loop
         vertex -1.740680e-002 -5.826772e-001 1.534133e+000
         vertex -8.801709e-003 -6.614173e-001 1.532169e+000
         vertex -8.801709e-003 -5.826772e-001 1.532169e+000
      endloop
   endfacet
   facet normal 9.960905e-002 0.000000e+000 9.950266e-001
      outer loop
         vertex -8.801709e-003 -5.826772e-001 1.532169e+000
         vertex -8.801709e-003 -6.614173e-001 1.532169e+000
         vertex -1.446433e-017 -6.614173e-001 1.531509e+000
      endloop
   endfacet
endsolid