solid Body87_Default_sldprt
   facet normal 0.000000e+000 1.000000e+000 0.000000e+000
      outer loop
         vertex 1.754721e+000 -5.826772e-001 2.133367e+000
         vertex 1.745919e+000 -5.826772e-001 2.132707e+000
         vertex 1.708285e+000 -5.826772e-001 2.192829e+000
      endloop
   endfacet
   facet normal 0.000000e+000 1.000000e+000 0.000000e+000
      outer loop
         vertex 1.708285e+000 -5.826772e-001 2.192829e+000
         vertex 1.745919e+000 -5.826772e-001 2.132707e+000
         vertex 1.737314e+000 -5.826772e-001 2.130743e+000
      endloop
   endfacet
   facet normal 0.000000e+000 1.000000e+000 0.000000e+000
      outer loop
         vertex 1.708285e+000 -5.826772e-001 2.192829e+000
         vertex 1.737314e+000 -5.826772e-001 2.130743e+000
         vertex 1.729098e+000 -5.826772e-001 2.127518e+000
      endloop
   endfacet
   facet normal 0.000000e+000 1.000000e+000 0.000000e+000
      outer loop
         vertex 1.754721e+000 -5.826772e-001 2.015256e+000
         vertex 1.763523e+000 -5.826772e-001 2.015916e+000
         vertex 1.801157e+000 -5.826772e-001 1.955794e+000
      endloop
   endfacet
   facet normal 0.000000e+000 1.000000e+000 0.000000e+000
      outer loop
         vertex 1.801157e+000 -5.826772e-001 1.955794e+000
         vertex 1.763523e+000 -5.826772e-001 2.015916e+000
         vertex 1.772128e+000 -5.826772e-001 2.017880e+000
      endloop
   endfacet
   facet normal 0.000000e+000 1.000000e+000 0.000000e+000
      outer loop
         vertex 1.801157e+000 -5.826772e-001 1.955794e+000
         vertex 1.772128e+000 -5.826772e-001 2.017880e+000
         vertex 1.780344e+000 -5.826772e-001 2.021105e+000
      endloop
   endfacet
   facet normal 0.000000e+000 1.000000e+000 0.000000e+000
      outer loop
         vertex 1.721454e+000 -5.826772e-001 2.025518e+000
         vertex 1.729098e+000 -5.826772e-001 2.021105e+000
         vertex 1.675300e+000 -5.826772e-001 1.974838e+000
      endloop
   endfacet
   facet normal 0.000000e+000 1.000000e+000 0.000000e+000
      outer loop
         vertex 1.675300e+000 -5.826772e-001 1.974838e+000
         vertex 1.729098e+000 -5.826772e-001 2.021105e+000
         vertex 1.737314e+000 -5.826772e-001 2.017880e+000
      endloop
   endfacet
   facet normal 0.000000e+000 1.000000e+000 0.000000e+000
      outer loop
         vertex 1.675300e+000 -5.826772e-001 1.974838e+000
         vertex 1.737314e+000 -5.826772e-001 2.017880e+000
         vertex 1.801157e+000 -5.826772e-001 1.955794e+000
      endloop
   endfacet
   facet normal 0.000000e+000 1.000000e+000 0.000000e+000
      outer loop
         vertex 1.801157e+000 -5.826772e-001 1.955794e+000
         vertex 1.737314e+000 -5.826772e-001 2.017880e+000
         vertex 1.745919e+000 -5.826772e-001 2.015916e+000
      endloop
   endfacet
   facet normal 0.000000e+000 1.000000e+000 0.000000e+000
      outer loop
         vertex 1.801157e+000 -5.826772e-001 1.955794e+000
         vertex 1.745919e+000 -5.826772e-001 2.015916e+000
         vertex 1.754721e+000 -5.826772e-001 2.015256e+000
      endloop
   endfacet
   facet normal 0.000000e+000 1.000000e+000 0.000000e+000
      outer loop
         vertex 1.787988e+000 -5.826772e-001 2.123105e+000
         vertex 1.780344e+000 -5.826772e-001 2.127518e+000
         vertex 1.834143e+000 -5.826772e-001 2.173785e+000
      endloop
   endfacet
   facet normal 0.000000e+000 1.000000e+000 0.000000e+000
      outer loop
         vertex 1.834143e+000 -5.826772e-001 2.173785e+000
         vertex 1.780344e+000 -5.826772e-001 2.127518e+000
         vertex 1.772128e+000 -5.826772e-001 2.130743e+000
      endloop
   endfacet
   facet normal 0.000000e+000 1.000000e+000 0.000000e+000
      outer loop
         vertex 1.834143e+000 -5.826772e-001 2.173785e+000
         vertex 1.772128e+000 -5.826772e-001 2.130743e+000
         vertex 1.708285e+000 -5.826772e-001 2.192829e+000
      endloop
   endfacet
   facet normal 0.000000e+000 1.000000e+000 0.000000e+000
      outer loop
         vertex 1.708285e+000 -5.826772e-001 2.192829e+000
         vertex 1.772128e+000 -5.826772e-001 2.130743e+000
         vertex 1.763523e+000 -5.826772e-001 2.132707e+000
      endloop
   endfacet
   facet normal 0.000000e+000 1.000000e+000 0.000000e+000
      outer loop
         vertex 1.708285e+000 -5.826772e-001 2.192829e+000
         vertex 1.763523e+000 -5.826772e-001 2.132707e+000
         vertex 1.754721e+000 -5.826772e-001 2.133367e+000
      endloop
   endfacet
   facet normal 0.000000e+000 1.000000e+000 0.000000e+000
      outer loop
         vertex 1.703578e+000 -5.826772e-001 2.103839e+000
         vertex 1.699748e+000 -5.826772e-001 2.095887e+000
         vertex 1.628864e+000 -5.826772e-001 2.093356e+000
      endloop
   endfacet
   facet normal 0.000000e+000 1.000000e+000 0.000000e+000
      outer loop
         vertex 1.628864e+000 -5.826772e-001 2.093356e+000
         vertex 1.699748e+000 -5.826772e-001 2.095887e+000
         vertex 1.697147e+000 -5.826772e-001 2.087452e+000
      endloop
   endfacet
   facet normal 0.000000e+000 1.000000e+000 0.000000e+000
      outer loop
         vertex 1.628864e+000 -5.826772e-001 2.093356e+000
         vertex 1.697147e+000 -5.826772e-001 2.087452e+000
         vertex 1.695831e+000 -5.826772e-001 2.078725e+000
      endloop
   endfacet
   facet normal 0.000000e+000 1.000000e+000 0.000000e+000
      outer loop
         vertex 1.805864e+000 -5.826772e-001 2.044784e+000
         vertex 1.809694e+000 -5.826772e-001 2.052736e+000
         vertex 1.880578e+000 -5.826772e-001 2.055267e+000
      endloop
   endfacet
   facet normal 0.000000e+000 1.000000e+000 0.000000e+000
      outer loop
         vertex 1.880578e+000 -5.826772e-001 2.055267e+000
         vertex 1.809694e+000 -5.826772e-001 2.052736e+000
         vertex 1.812296e+000 -5.826772e-001 2.061170e+000
      endloop
   endfacet
   facet normal 0.000000e+000 1.000000e+000 0.000000e+000
      outer loop
         vertex 1.880578e+000 -5.826772e-001 2.055267e+000
         vertex 1.812296e+000 -5.826772e-001 2.061170e+000
         vertex 1.813611e+000 -5.826772e-001 2.069898e+000
      endloop
   endfacet
   facet normal 0.000000e+000 1.000000e+000 0.000000e+000
      outer loop
         vertex 1.729098e+000 -5.826772e-001 2.127518e+000
         vertex 1.721454e+000 -5.826772e-001 2.123105e+000
         vertex 1.708285e+000 -5.826772e-001 2.192829e+000
      endloop
   endfacet
   facet normal 0.000000e+000 1.000000e+000 0.000000e+000
      outer loop
         vertex 1.708285e+000 -5.826772e-001 2.192829e+000
         vertex 1.721454e+000 -5.826772e-001 2.123105e+000
         vertex 1.714553e+000 -5.826772e-001 2.117602e+000
      endloop
   endfacet
   facet normal 0.000000e+000 1.000000e+000 0.000000e+000
      outer loop
         vertex 1.708285e+000 -5.826772e-001 2.192829e+000
         vertex 1.714553e+000 -5.826772e-001 2.117602e+000
         vertex 1.628864e+000 -5.826772e-001 2.093356e+000
      endloop
   endfacet
   facet normal 0.000000e+000 1.000000e+000 0.000000e+000
      outer loop
         vertex 1.628864e+000 -5.826772e-001 2.093356e+000
         vertex 1.714553e+000 -5.826772e-001 2.117602e+000
         vertex 1.708550e+000 -5.826772e-001 2.111132e+000
      endloop
   endfacet
   facet normal 0.000000e+000 1.000000e+000 0.000000e+000
      outer loop
         vertex 1.628864e+000 -5.826772e-001 2.093356e+000
         vertex 1.708550e+000 -5.826772e-001 2.111132e+000
         vertex 1.703578e+000 -5.826772e-001 2.103839e+000
      endloop
   endfacet
   facet normal 0.000000e+000 1.000000e+000 0.000000e+000
      outer loop
         vertex 1.703578e+000 -5.826772e-001 2.044784e+000
         vertex 1.708550e+000 -5.826772e-001 2.037491e+000
         vertex 1.675300e+000 -5.826772e-001 1.974838e+000
      endloop
   endfacet
   facet normal 0.000000e+000 1.000000e+000 0.000000e+000
      outer loop
         vertex 1.675300e+000 -5.826772e-001 1.974838e+000
         vertex 1.708550e+000 -5.826772e-001 2.037491e+000
         vertex 1.714553e+000 -5.826772e-001 2.031021e+000
      endloop
   endfacet
   facet normal 0.000000e+000 1.000000e+000 0.000000e+000
      outer loop
         vertex 1.675300e+000 -5.826772e-001 1.974838e+000
         vertex 1.714553e+000 -5.826772e-001 2.031021e+000
         vertex 1.721454e+000 -5.826772e-001 2.025518e+000
      endloop
   endfacet
   facet normal 0.000000e+000 1.000000e+000 0.000000e+000
      outer loop
         vertex 1.780344e+000 -5.826772e-001 2.021105e+000
         vertex 1.787988e+000 -5.826772e-001 2.025518e+000
         vertex 1.801157e+000 -5.826772e-001 1.955794e+000
      endloop
   endfacet
   facet normal 0.000000e+000 1.000000e+000 0.000000e+000
      outer loop
         vertex 1.801157e+000 -5.826772e-001 1.955794e+000
         vertex 1.787988e+000 -5.826772e-001 2.025518e+000
         vertex 1.794889e+000 -5.826772e-001 2.031021e+000
      endloop
   endfacet
   facet normal 0.000000e+000 1.000000e+000 0.000000e+000
      outer loop
         vertex 1.801157e+000 -5.826772e-001 1.955794e+000
         vertex 1.794889e+000 -5.826772e-001 2.031021e+000
         vertex 1.880578e+000 -5.826772e-001 2.055267e+000
      endloop
   endfacet
   facet normal 0.000000e+000 1.000000e+000 0.000000e+000
      outer loop
         vertex 1.880578e+000 -5.826772e-001 2.055267e+000
         vertex 1.794889e+000 -5.826772e-001 2.031021e+000
         vertex 1.800892e+000 -5.826772e-001 2.037491e+000
      endloop
   endfacet
   facet normal 0.000000e+000 1.000000e+000 0.000000e+000
      outer loop
         vertex 1.880578e+000 -5.826772e-001 2.055267e+000
         vertex 1.800892e+000 -5.826772e-001 2.037491e+000
         vertex 1.805864e+000 -5.826772e-001 2.044784e+000
      endloop
   endfacet
   facet normal 0.000000e+000 1.000000e+000 0.000000e+000
      outer loop
         vertex 1.805864e+000 -5.826772e-001 2.103839e+000
         vertex 1.800892e+000 -5.826772e-001 2.111132e+000
         vertex 1.834143e+000 -5.826772e-001 2.173785e+000
      endloop
   endfacet
   facet normal 0.000000e+000 1.000000e+000 0.000000e+000
      outer loop
         vertex 1.834143e+000 -5.826772e-001 2.173785e+000
         vertex 1.800892e+000 -5.826772e-001 2.111132e+000
         vertex 1.794889e+000 -5.826772e-001 2.117602e+000
      endloop
   endfacet
   facet normal 0.000000e+000 1.000000e+000 0.000000e+000
      outer loop
         vertex 1.834143e+000 -5.826772e-001 2.173785e+000
         vertex 1.794889e+000 -5.826772e-001 2.117602e+000
         vertex 1.787988e+000 -5.826772e-001 2.123105e+000
      endloop
   endfacet
   facet normal 0.000000e+000 1.000000e+000 0.000000e+000
      outer loop
         vertex 1.695831e+000 -5.826772e-001 2.078725e+000
         vertex 1.695831e+000 -5.826772e-001 2.069898e+000
         vertex 1.628864e+000 -5.826772e-001 2.093356e+000
      endloop
   endfacet
   facet normal 0.000000e+000 1.000000e+000 0.000000e+000
      outer loop
         vertex 1.628864e+000 -5.826772e-001 2.093356e+000
         vertex 1.695831e+000 -5.826772e-001 2.069898e+000
         vertex 1.697147e+000 -5.826772e-001 2.061170e+000
      endloop
   endfacet
   facet normal 0.000000e+000 1.000000e+000 0.000000e+000
      outer loop
         vertex 1.628864e+000 -5.826772e-001 2.093356e+000
         vertex 1.697147e+000 -5.826772e-001 2.061170e+000
         vertex 1.675300e+000 -5.826772e-001 1.974838e+000
      endloop
   endfacet
   facet normal 0.000000e+000 1.000000e+000 0.000000e+000
      outer loop
         vertex 1.675300e+000 -5.826772e-001 1.974838e+000
         vertex 1.697147e+000 -5.826772e-001 2.061170e+000
         vertex 1.699748e+000 -5.826772e-001 2.052736e+000
      endloop
   endfacet
   facet normal 0.000000e+000 1.000000e+000 0.000000e+000
      outer loop
         vertex 1.675300e+000 -5.826772e-001 1.974838e+000
         vertex 1.699748e+000 -5.826772e-001 2.052736e+000
         vertex 1.703578e+000 -5.826772e-001 2.044784e+000
      endloop
   endfacet
   facet normal 0.000000e+000 1.000000e+000 0.000000e+000
      outer loop
         vertex 1.813611e+000 -5.826772e-001 2.069898e+000
         vertex 1.813611e+000 -5.826772e-001 2.078725e+000
         vertex 1.880578e+000 -5.826772e-001 2.055267e+000
      endloop
   endfacet
   facet normal 0.000000e+000 1.000000e+000 0.000000e+000
      outer loop
         vertex 1.880578e+000 -5.826772e-001 2.055267e+000
         vertex 1.813611e+000 -5.826772e-001 2.078725e+000
         vertex 1.812296e+000 -5.826772e-001 2.087452e+000
      endloop
   endfacet
   facet normal 0.000000e+000 1.000000e+000 0.000000e+000
      outer loop
         vertex 1.880578e+000 -5.826772e-001 2.055267e+000
         vertex 1.812296e+000 -5.826772e-001 2.087452e+000
         vertex 1.834143e+000 -5.826772e-001 2.173785e+000
      endloop
   endfacet
   facet normal 0.000000e+000 1.000000e+000 0.000000e+000
      outer loop
         vertex 1.834143e+000 -5.826772e-001 2.173785e+000
         vertex 1.812296e+000 -5.826772e-001 2.087452e+000
         vertex 1.809694e+000 -5.826772e-001 2.095887e+000
      endloop
   endfacet
   facet normal 0.000000e+000 1.000000e+000 0.000000e+000
      outer loop
         vertex 1.834143e+000 -5.826772e-001 2.173785e+000
         vertex 1.809694e+000 -5.826772e-001 2.095887e+000
         vertex 1.805864e+000 -5.826772e-001 2.103839e+000
      endloop
   endfacet
   facet normal 0.000000e+000 -1.000000e+000 0.000000e+000
      outer loop
         vertex 1.787988e+000 -6.614173e-001 2.025518e+000
         vertex 1.780344e+000 -6.614173e-001 2.021105e+000
         vertex 1.801157e+000 -6.614173e-001 1.955794e+000
      endloop
   endfacet
   facet normal 0.000000e+000 -1.000000e+000 0.000000e+000
      outer loop
         vertex 1.801157e+000 -6.614173e-001 1.955794e+000
         vertex 1.780344e+000 -6.614173e-001 2.021105e+000
         vertex 1.772128e+000 -6.614173e-001 2.017880e+000
      endloop
   endfacet
   facet normal 0.000000e+000 -1.000000e+000 0.000000e+000
      outer loop
         vertex 1.801157e+000 -6.614173e-001 1.955794e+000
         vertex 1.772128e+000 -6.614173e-001 2.017880e+000
         vertex 1.763523e+000 -6.614173e-001 2.015916e+000
      endloop
   endfacet
   facet normal 0.000000e+000 -1.000000e+000 0.000000e+000
      outer loop
         vertex 1.812296e+000 -6.614173e-001 2.061170e+000
         vertex 1.809694e+000 -6.614173e-001 2.052736e+000
         vertex 1.801157e+000 -6.614173e-001 1.955794e+000
      endloop
   endfacet
   facet normal 0.000000e+000 -1.000000e+000 0.000000e+000
      outer loop
         vertex 1.801157e+000 -6.614173e-001 1.955794e+000
         vertex 1.809694e+000 -6.614173e-001 2.052736e+000
         vertex 1.805864e+000 -6.614173e-001 2.044784e+000
      endloop
   endfacet
   facet normal 0.000000e+000 -1.000000e+000 0.000000e+000
      outer loop
         vertex 1.805864e+000 -6.614173e-001 2.044784e+000
         vertex 1.800892e+000 -6.614173e-001 2.037491e+000
         vertex 1.801157e+000 -6.614173e-001 1.955794e+000
      endloop
   endfacet
   facet normal 0.000000e+000 -1.000000e+000 0.000000e+000
      outer loop
         vertex 1.801157e+000 -6.614173e-001 1.955794e+000
         vertex 1.800892e+000 -6.614173e-001 2.037491e+000
         vertex 1.794889e+000 -6.614173e-001 2.031021e+000
      endloop
   endfacet
   facet normal 0.000000e+000 -1.000000e+000 0.000000e+000
      outer loop
         vertex 1.801157e+000 -6.614173e-001 1.955794e+000
         vertex 1.794889e+000 -6.614173e-001 2.031021e+000
         vertex 1.787988e+000 -6.614173e-001 2.025518e+000
      endloop
   endfacet
   facet normal 0.000000e+000 -1.000000e+000 0.000000e+000
      outer loop
         vertex 1.763523e+000 -6.614173e-001 2.015916e+000
         vertex 1.754721e+000 -6.614173e-001 2.015256e+000
         vertex 1.801157e+000 -6.614173e-001 1.955794e+000
      endloop
   endfacet
   facet normal 0.000000e+000 -1.000000e+000 0.000000e+000
      outer loop
         vertex 1.801157e+000 -6.614173e-001 1.955794e+000
         vertex 1.754721e+000 -6.614173e-001 2.015256e+000
         vertex 1.745919e+000 -6.614173e-001 2.015916e+000
      endloop
   endfacet
   facet normal 0.000000e+000 -1.000000e+000 0.000000e+000
      outer loop
         vertex 1.801157e+000 -6.614173e-001 1.955794e+000
         vertex 1.745919e+000 -6.614173e-001 2.015916e+000
         vertex 1.675300e+000 -6.614173e-001 1.974838e+000
      endloop
   endfacet
   facet normal 0.000000e+000 -1.000000e+000 0.000000e+000
      outer loop
         vertex 1.675300e+000 -6.614173e-001 1.974838e+000
         vertex 1.745919e+000 -6.614173e-001 2.015916e+000
         vertex 1.737314e+000 -6.614173e-001 2.017880e+000
      endloop
   endfacet
   facet normal 0.000000e+000 -1.000000e+000 0.000000e+000
      outer loop
         vertex 1.675300e+000 -6.614173e-001 1.974838e+000
         vertex 1.737314e+000 -6.614173e-001 2.017880e+000
         vertex 1.729098e+000 -6.614173e-001 2.021105e+000
      endloop
   endfacet
   facet normal 0.000000e+000 -1.000000e+000 0.000000e+000
      outer loop
         vertex 1.721454e+000 -6.614173e-001 2.123105e+000
         vertex 1.729098e+000 -6.614173e-001 2.127518e+000
         vertex 1.708285e+000 -6.614173e-001 2.192829e+000
      endloop
   endfacet
   facet normal 0.000000e+000 -1.000000e+000 0.000000e+000
      outer loop
         vertex 1.708285e+000 -6.614173e-001 2.192829e+000
         vertex 1.729098e+000 -6.614173e-001 2.127518e+000
         vertex 1.737314e+000 -6.614173e-001 2.130743e+000
      endloop
   endfacet
   facet normal 0.000000e+000 -1.000000e+000 0.000000e+000
      outer loop
         vertex 1.708285e+000 -6.614173e-001 2.192829e+000
         vertex 1.737314e+000 -6.614173e-001 2.130743e+000
         vertex 1.745919e+000 -6.614173e-001 2.132707e+000
      endloop
   endfacet
   facet normal 0.000000e+000 -1.000000e+000 0.000000e+000
      outer loop
         vertex 1.745919e+000 -6.614173e-001 2.132707e+000
         vertex 1.754721e+000 -6.614173e-001 2.133367e+000
         vertex 1.708285e+000 -6.614173e-001 2.192829e+000
      endloop
   endfacet
   facet normal 0.000000e+000 -1.000000e+000 0.000000e+000
      outer loop
         vertex 1.708285e+000 -6.614173e-001 2.192829e+000
         vertex 1.754721e+000 -6.614173e-001 2.133367e+000
         vertex 1.763523e+000 -6.614173e-001 2.132707e+000
      endloop
   endfacet
   facet normal 0.000000e+000 -1.000000e+000 0.000000e+000
      outer loop
         vertex 1.708285e+000 -6.614173e-001 2.192829e+000
         vertex 1.763523e+000 -6.614173e-001 2.132707e+000
         vertex 1.834143e+000 -6.614173e-001 2.173785e+000
      endloop
   endfacet
   facet normal 0.000000e+000 -1.000000e+000 0.000000e+000
      outer loop
         vertex 1.834143e+000 -6.614173e-001 2.173785e+000
         vertex 1.763523e+000 -6.614173e-001 2.132707e+000
         vertex 1.772128e+000 -6.614173e-001 2.130743e+000
      endloop
   endfacet
   facet normal 0.000000e+000 -1.000000e+000 0.000000e+000
      outer loop
         vertex 1.834143e+000 -6.614173e-001 2.173785e+000
         vertex 1.772128e+000 -6.614173e-001 2.130743e+000
         vertex 1.780344e+000 -6.614173e-001 2.127518e+000
      endloop
   endfacet
   facet normal 0.000000e+000 -1.000000e+000 0.000000e+000
      outer loop
         vertex 1.812296e+000 -6.614173e-001 2.061170e+000
         vertex 1.801157e+000 -6.614173e-001 1.955794e+000
         vertex 1.813611e+000 -6.614173e-001 2.069898e+000
      endloop
   endfacet
   facet normal 0.000000e+000 -1.000000e+000 0.000000e+000
      outer loop
         vertex 1.813611e+000 -6.614173e-001 2.069898e+000
         vertex 1.801157e+000 -6.614173e-001 1.955794e+000
         vertex 1.880578e+000 -6.614173e-001 2.055267e+000
      endloop
   endfacet
   facet normal 0.000000e+000 -1.000000e+000 0.000000e+000
      outer loop
         vertex 1.813611e+000 -6.614173e-001 2.069898e+000
         vertex 1.880578e+000 -6.614173e-001 2.055267e+000
         vertex 1.813611e+000 -6.614173e-001 2.078725e+000
      endloop
   endfacet
   facet normal 0.000000e+000 -1.000000e+000 0.000000e+000
      outer loop
         vertex 1.780344e+000 -6.614173e-001 2.127518e+000
         vertex 1.787988e+000 -6.614173e-001 2.123105e+000
         vertex 1.834143e+000 -6.614173e-001 2.173785e+000
      endloop
   endfacet
   facet normal 0.000000e+000 -1.000000e+000 0.000000e+000
      outer loop
         vertex 1.834143e+000 -6.614173e-001 2.173785e+000
         vertex 1.787988e+000 -6.614173e-001 2.123105e+000
         vertex 1.794889e+000 -6.614173e-001 2.117602e+000
      endloop
   endfacet
   facet normal 0.000000e+000 -1.000000e+000 0.000000e+000
      outer loop
         vertex 1.834143e+000 -6.614173e-001 2.173785e+000
         vertex 1.794889e+000 -6.614173e-001 2.117602e+000
         vertex 1.800892e+000 -6.614173e-001 2.111132e+000
      endloop
   endfacet
   facet normal 0.000000e+000 -1.000000e+000 0.000000e+000
      outer loop
         vertex 1.800892e+000 -6.614173e-001 2.111132e+000
         vertex 1.805864e+000 -6.614173e-001 2.103839e+000
         vertex 1.834143e+000 -6.614173e-001 2.173785e+000
      endloop
   endfacet
   facet normal 0.000000e+000 -1.000000e+000 0.000000e+000
      outer loop
         vertex 1.834143e+000 -6.614173e-001 2.173785e+000
         vertex 1.805864e+000 -6.614173e-001 2.103839e+000
         vertex 1.809694e+000 -6.614173e-001 2.095887e+000
      endloop
   endfacet
   facet normal 0.000000e+000 -1.000000e+000 0.000000e+000
      outer loop
         vertex 1.834143e+000 -6.614173e-001 2.173785e+000
         vertex 1.809694e+000 -6.614173e-001 2.095887e+000
         vertex 1.880578e+000 -6.614173e-001 2.055267e+000
      endloop
   endfacet
   facet normal 0.000000e+000 -1.000000e+000 0.000000e+000
      outer loop
         vertex 1.880578e+000 -6.614173e-001 2.055267e+000
         vertex 1.809694e+000 -6.614173e-001 2.095887e+000
         vertex 1.812296e+000 -6.614173e-001 2.087452e+000
      endloop
   endfacet
   facet normal 0.000000e+000 -1.000000e+000 0.000000e+000
      outer loop
         vertex 1.880578e+000 -6.614173e-001 2.055267e+000
         vertex 1.812296e+000 -6.614173e-001 2.087452e+000
         vertex 1.813611e+000 -6.614173e-001 2.078725e+000
      endloop
   endfacet
   facet normal 0.000000e+000 -1.000000e+000 0.000000e+000
      outer loop
         vertex 1.729098e+000 -6.614173e-001 2.021105e+000
         vertex 1.721454e+000 -6.614173e-001 2.025518e+000
         vertex 1.675300e+000 -6.614173e-001 1.974838e+000
      endloop
   endfacet
   facet normal 0.000000e+000 -1.000000e+000 0.000000e+000
      outer loop
         vertex 1.675300e+000 -6.614173e-001 1.974838e+000
         vertex 1.721454e+000 -6.614173e-001 2.025518e+000
         vertex 1.714553e+000 -6.614173e-001 2.031021e+000
      endloop
   endfacet
   facet normal 0.000000e+000 -1.000000e+000 0.000000e+000
      outer loop
         vertex 1.675300e+000 -6.614173e-001 1.974838e+000
         vertex 1.714553e+000 -6.614173e-001 2.031021e+000
         vertex 1.708550e+000 -6.614173e-001 2.037491e+000
      endloop
   endfacet
   facet normal 0.000000e+000 -1.000000e+000 0.000000e+000
      outer loop
         vertex 1.708550e+000 -6.614173e-001 2.037491e+000
         vertex 1.703578e+000 -6.614173e-001 2.044784e+000
         vertex 1.675300e+000 -6.614173e-001 1.974838e+000
      endloop
   endfacet
   facet normal 0.000000e+000 -1.000000e+000 0.000000e+000
      outer loop
         vertex 1.675300e+000 -6.614173e-001 1.974838e+000
         vertex 1.703578e+000 -6.614173e-001 2.044784e+000
         vertex 1.699748e+000 -6.614173e-001 2.052736e+000
      endloop
   endfacet
   facet normal 0.000000e+000 -1.000000e+000 0.000000e+000
      outer loop
         vertex 1.675300e+000 -6.614173e-001 1.974838e+000
         vertex 1.699748e+000 -6.614173e-001 2.052736e+000
         vertex 1.628864e+000 -6.614173e-001 2.093356e+000
      endloop
   endfacet
   facet normal 0.000000e+000 -1.000000e+000 0.000000e+000
      outer loop
         vertex 1.628864e+000 -6.614173e-001 2.093356e+000
         vertex 1.699748e+000 -6.614173e-001 2.052736e+000
         vertex 1.697147e+000 -6.614173e-001 2.061170e+000
      endloop
   endfacet
   facet normal 0.000000e+000 -1.000000e+000 0.000000e+000
      outer loop
         vertex 1.628864e+000 -6.614173e-001 2.093356e+000
         vertex 1.697147e+000 -6.614173e-001 2.061170e+000
         vertex 1.695831e+000 -6.614173e-001 2.069898e+000
      endloop
   endfacet
   facet normal 0.000000e+000 -1.000000e+000 0.000000e+000
      outer loop
         vertex 1.695831e+000 -6.614173e-001 2.069898e+000
         vertex 1.695831e+000 -6.614173e-001 2.078725e+000
         vertex 1.628864e+000 -6.614173e-001 2.093356e+000
      endloop
   endfacet
   facet normal 0.000000e+000 -1.000000e+000 0.000000e+000
      outer loop
         vertex 1.628864e+000 -6.614173e-001 2.093356e+000
         vertex 1.695831e+000 -6.614173e-001 2.078725e+000
         vertex 1.697147e+000 -6.614173e-001 2.087452e+000
      endloop
   endfacet
   facet normal 0.000000e+000 -1.000000e+000 0.000000e+000
      outer loop
         vertex 1.628864e+000 -6.614173e-001 2.093356e+000
         vertex 1.697147e+000 -6.614173e-001 2.087452e+000
         vertex 1.699748e+000 -6.614173e-001 2.095887e+000
      endloop
   endfacet
   facet normal 0.000000e+000 -1.000000e+000 0.000000e+000
      outer loop
         vertex 1.699748e+000 -6.614173e-001 2.095887e+000
         vertex 1.703578e+000 -6.614173e-001 2.103839e+000
         vertex 1.628864e+000 -6.614173e-001 2.093356e+000
      endloop
   endfacet
   facet normal 0.000000e+000 -1.000000e+000 0.000000e+000
      outer loop
         vertex 1.628864e+000 -6.614173e-001 2.093356e+000
         vertex 1.703578e+000 -6.614173e-001 2.103839e+000
         vertex 1.708550e+000 -6.614173e-001 2.111132e+000
      endloop
   endfacet
   facet normal 0.000000e+000 -1.000000e+000 0.000000e+000
      outer loop
         vertex 1.628864e+000 -6.614173e-001 2.093356e+000
         vertex 1.708550e+000 -6.614173e-001 2.111132e+000
         vertex 1.708285e+000 -6.614173e-001 2.192829e+000
      endloop
   endfacet
   facet normal 0.000000e+000 -1.000000e+000 0.000000e+000
      outer loop
         vertex 1.708285e+000 -6.614173e-001 2.192829e+000
         vertex 1.708550e+000 -6.614173e-001 2.111132e+000
         vertex 1.714553e+000 -6.614173e-001 2.117602e+000
      endloop
   endfacet
   facet normal 0.000000e+000 -1.000000e+000 0.000000e+000
      outer loop
         vertex 1.708285e+000 -6.614173e-001 2.192829e+000
         vertex 1.714553e+000 -6.614173e-001 2.117602e+000
         vertex 1.721454e+000 -6.614173e-001 2.123105e+000
      endloop
   endfacet
   facet normal 9.310847e-001 0.000000e+000 3.648032e-001
      outer loop
         vertex 1.880578e+000 -5.826772e-001 2.055267e+000
         vertex 1.834143e+000 -5.826772e-001 2.173785e+000
         vertex 1.880578e+000 -6.614173e-001 2.055267e+000
      endloop
   endfacet
   facet normal 9.310847e-001 0.000000e+000 3.648032e-001
      outer loop
         vertex 1.880578e+000 -6.614173e-001 2.055267e+000
         vertex 1.834143e+000 -5.826772e-001 2.173785e+000
         vertex 1.834143e+000 -6.614173e-001 2.173785e+000
      endloop
   endfacet
   facet normal 7.814711e-001 0.000000e+000 -6.239415e-001
      outer loop
         vertex 1.801157e+000 -5.826772e-001 1.955794e+000
         vertex 1.880578e+000 -5.826772e-001 2.055267e+000
         vertex 1.801157e+000 -6.614173e-001 1.955794e+000
      endloop
   endfacet
   facet normal 7.814711e-001 0.000000e+000 -6.239415e-001
      outer loop
         vertex 1.801157e+000 -6.614173e-001 1.955794e+000
         vertex 1.880578e+000 -5.826772e-001 2.055267e+000
         vertex 1.880578e+000 -6.614173e-001 2.055267e+000
      endloop
   endfacet
   facet normal -1.496135e-001 0.000000e+000 -9.887446e-001
      outer loop
         vertex 1.675300e+000 -5.826772e-001 1.974838e+000
         vertex 1.801157e+000 -5.826772e-001 1.955794e+000
         vertex 1.675300e+000 -6.614173e-001 1.974838e+000
      endloop
   endfacet
   facet normal -1.496135e-001 0.000000e+000 -9.887446e-001
      outer loop
         vertex 1.675300e+000 -6.614173e-001 1.974838e+000
         vertex 1.801157e+000 -5.826772e-001 1.955794e+000
         vertex 1.801157e+000 -6.614173e-001 1.955794e+000
      endloop
   endfacet
   facet normal -9.310847e-001 0.000000e+000 -3.648032e-001
      outer loop
         vertex 1.628864e+000 -5.826772e-001 2.093356e+000
         vertex 1.675300e+000 -5.826772e-001 1.974838e+000
         vertex 1.628864e+000 -6.614173e-001 2.093356e+000
      endloop
   endfacet
   facet normal -9.310847e-001 0.000000e+000 -3.648032e-001
      outer loop
         vertex 1.628864e+000 -6.614173e-001 2.093356e+000
         vertex 1.675300e+000 -5.826772e-001 1.974838e+000
         vertex 1.675300e+000 -6.614173e-001 1.974838e+000
      endloop
   endfacet
   facet normal -7.814711e-001 0.000000e+000 6.239415e-001
      outer loop
         vertex 1.708285e+000 -5.826772e-001 2.192829e+000
         vertex 1.628864e+000 -5.826772e-001 2.093356e+000
         vertex 1.708285e+000 -6.614173e-001 2.192829e+000
      endloop
   endfacet
   facet normal -7.814711e-001 0.000000e+000 6.239415e-001
      outer loop
         vertex 1.708285e+000 -6.614173e-001 2.192829e+000
         vertex 1.628864e+000 -5.826772e-001 2.093356e+000
         vertex 1.628864e+000 -6.614173e-001 2.093356e+000
      endloop
   endfacet
   facet normal 1.496135e-001 0.000000e+000 9.887446e-001
      outer loop
         vertex 1.834143e+000 -5.826772e-001 2.173785e+000
         vertex 1.708285e+000 -5.826772e-001 2.192829e+000
         vertex 1.834143e+000 -6.614173e-001 2.173785e+000
      endloop
   endfacet
   facet normal 1.496135e-001 0.000000e+000 9.887446e-001
      outer loop
         vertex 1.834143e+000 -6.614173e-001 2.173785e+000
         vertex 1.708285e+000 -5.826772e-001 2.192829e+000
         vertex 1.708285e+000 -6.614173e-001 2.192829e+000
      endloop
   endfacet
   facet normal 4.980453e-002 0.000000e+000 9.987590e-001
      outer loop
         vertex 1.745919e+000 -5.826772e-001 2.015916e+000
         vertex 1.754721e+000 -6.614173e-001 2.015256e+000
         vertex 1.754721e+000 -5.826772e-001 2.015256e+000
      endloop
   endfacet
   facet normal -4.980453e-002 0.000000e+000 9.987590e-001
      outer loop
         vertex 1.754721e+000 -5.826772e-001 2.015256e+000
         vertex 1.754721e+000 -6.614173e-001 2.015256e+000
         vertex 1.763523e+000 -6.614173e-001 2.015916e+000
      endloop
   endfacet
   facet normal -9.960905e-002 0.000000e+000 9.950266e-001
      outer loop
         vertex 1.754721e+000 -5.826772e-001 2.015256e+000
         vertex 1.763523e+000 -6.614173e-001 2.015916e+000
         vertex 1.763523e+000 -5.826772e-001 2.015916e+000
      endloop
   endfacet
   facet normal -1.981055e-001 0.000000e+000 9.801807e-001
      outer loop
         vertex 1.763523e+000 -5.826772e-001 2.015916e+000
         vertex 1.763523e+000 -6.614173e-001 2.015916e+000
         vertex 1.772128e+000 -6.614173e-001 2.017880e+000
      endloop
   endfacet
   facet normal -2.467975e-001 0.000000e+000 9.690670e-001
      outer loop
         vertex 1.763523e+000 -5.826772e-001 2.015916e+000
         vertex 1.772128e+000 -6.614173e-001 2.017880e+000
         vertex 1.772128e+000 -5.826772e-001 2.017880e+000
      endloop
   endfacet
   facet normal -3.419812e-001 0.000000e+000 9.397067e-001
      outer loop
         vertex 1.772128e+000 -5.826772e-001 2.017880e+000
         vertex 1.772128e+000 -6.614173e-001 2.017880e+000
         vertex 1.780344e+000 -6.614173e-001 2.021105e+000
      endloop
   endfacet
   facet normal -3.884729e-001 0.000000e+000 9.214601e-001
      outer loop
         vertex 1.772128e+000 -5.826772e-001 2.017880e+000
         vertex 1.780344e+000 -6.614173e-001 2.021105e+000
         vertex 1.780344e+000 -5.826772e-001 2.021105e+000
      endloop
   endfacet
   facet normal -4.782176e-001 0.000000e+000 8.782414e-001
      outer loop
         vertex 1.780344e+000 -5.826772e-001 2.021105e+000
         vertex 1.780344e+000 -6.614173e-001 2.021105e+000
         vertex 1.787988e+000 -6.614173e-001 2.025518e+000
      endloop
   endfacet
   facet normal -5.214705e-001 0.000000e+000 8.532693e-001
      outer loop
         vertex 1.780344e+000 -5.826772e-001 2.021105e+000
         vertex 1.787988e+000 -6.614173e-001 2.025518e+000
         vertex 1.787988e+000 -5.826772e-001 2.025518e+000
      endloop
   endfacet
   facet normal -6.037714e-001 0.000000e+000 7.971576e-001
      outer loop
         vertex 1.787988e+000 -5.826772e-001 2.025518e+000
         vertex 1.787988e+000 -6.614173e-001 2.025518e+000
         vertex 1.794889e+000 -6.614173e-001 2.031021e+000
      endloop
   endfacet
   facet normal -6.428193e-001 0.000000e+000 7.660179e-001
      outer loop
         vertex 1.787988e+000 -5.826772e-001 2.025518e+000
         vertex 1.794889e+000 -6.614173e-001 2.031021e+000
         vertex 1.794889e+000 -5.826772e-001 2.031021e+000
      endloop
   endfacet
   facet normal -7.158380e-001 0.000000e+000 6.982664e-001
      outer loop
         vertex 1.794889e+000 -5.826772e-001 2.031021e+000
         vertex 1.794889e+000 -6.614173e-001 2.031021e+000
         vertex 1.800892e+000 -6.614173e-001 2.037491e+000
      endloop
   endfacet
   facet normal -7.498086e-001 0.000000e+000 6.616548e-001
      outer loop
         vertex 1.794889e+000 -5.826772e-001 2.031021e+000
         vertex 1.800892e+000 -6.614173e-001 2.037491e+000
         vertex 1.800892e+000 -5.826772e-001 2.037491e+000
      endloop
   endfacet
   facet normal -8.119138e-001 0.000000e+000 5.837772e-001
      outer loop
         vertex 1.800892e+000 -5.826772e-001 2.037491e+000
         vertex 1.800892e+000 -6.614173e-001 2.037491e+000
         vertex 1.805864e+000 -6.614173e-001 2.044784e+000
      endloop
   endfacet
   facet normal -8.400484e-001 0.000000e+000 5.425115e-001
      outer loop
         vertex 1.800892e+000 -5.826772e-001 2.037491e+000
         vertex 1.805864e+000 -6.614173e-001 2.044784e+000
         vertex 1.805864e+000 -5.826772e-001 2.044784e+000
      endloop
   endfacet
   facet normal -8.898529e-001 0.000000e+000 4.562475e-001
      outer loop
         vertex 1.805864e+000 -5.826772e-001 2.044784e+000
         vertex 1.805864e+000 -6.614173e-001 2.044784e+000
         vertex 1.809694e+000 -6.614173e-001 2.052736e+000
      endloop
   endfacet
   facet normal -9.115229e-001 0.000000e+000 4.112494e-001
      outer loop
         vertex 1.805864e+000 -5.826772e-001 2.044784e+000
         vertex 1.809694e+000 -6.614173e-001 2.052736e+000
         vertex 1.809694e+000 -5.826772e-001 2.052736e+000
      endloop
   endfacet
   facet normal -9.479141e-001 0.000000e+000 3.185259e-001
      outer loop
         vertex 1.809694e+000 -5.826772e-001 2.052736e+000
         vertex 1.809694e+000 -6.614173e-001 2.052736e+000
         vertex 1.812296e+000 -6.614173e-001 2.061170e+000
      endloop
   endfacet
   facet normal -9.626355e-001 0.000000e+000 2.708006e-001
      outer loop
         vertex 1.809694e+000 -5.826772e-001 2.052736e+000
         vertex 1.812296e+000 -6.614173e-001 2.061170e+000
         vertex 1.812296e+000 -5.826772e-001 2.061170e+000
      endloop
   endfacet
   facet normal -9.848005e-001 0.000000e+000 1.736889e-001
      outer loop
         vertex 1.812296e+000 -5.826772e-001 2.061170e+000
         vertex 1.812296e+000 -6.614173e-001 2.061170e+000
         vertex 1.813611e+000 -6.614173e-001 2.069898e+000
      endloop
   endfacet
   facet normal -9.922444e-001 0.000000e+000 1.243026e-001
      outer loop
         vertex 1.812296e+000 -5.826772e-001 2.061170e+000
         vertex 1.813611e+000 -6.614173e-001 2.069898e+000
         vertex 1.813611e+000 -5.826772e-001 2.069898e+000
      endloop
   endfacet
   facet normal -9.996881e-001 0.000000e+000 2.497209e-002
      outer loop
         vertex 1.813611e+000 -5.826772e-001 2.069898e+000
         vertex 1.813611e+000 -6.614173e-001 2.069898e+000
         vertex 1.813611e+000 -6.614173e-001 2.078725e+000
      endloop
   endfacet
   facet normal -9.996881e-001 0.000000e+000 -2.497209e-002
      outer loop
         vertex 1.813611e+000 -5.826772e-001 2.069898e+000
         vertex 1.813611e+000 -6.614173e-001 2.078725e+000
         vertex 1.813611e+000 -5.826772e-001 2.078725e+000
      endloop
   endfacet
   facet normal -9.922444e-001 0.000000e+000 -1.243026e-001
      outer loop
         vertex 1.813611e+000 -5.826772e-001 2.078725e+000
         vertex 1.813611e+000 -6.614173e-001 2.078725e+000
         vertex 1.812296e+000 -6.614173e-001 2.087452e+000
      endloop
   endfacet
   facet normal -9.848005e-001 0.000000e+000 -1.736889e-001
      outer loop
         vertex 1.813611e+000 -5.826772e-001 2.078725e+000
         vertex 1.812296e+000 -6.614173e-001 2.087452e+000
         vertex 1.812296e+000 -5.826772e-001 2.087452e+000
      endloop
   endfacet
   facet normal -9.626355e-001 0.000000e+000 -2.708006e-001
      outer loop
         vertex 1.812296e+000 -5.826772e-001 2.087452e+000
         vertex 1.812296e+000 -6.614173e-001 2.087452e+000
         vertex 1.809694e+000 -6.614173e-001 2.095887e+000
      endloop
   endfacet
   facet normal -9.479141e-001 0.000000e+000 -3.185259e-001
      outer loop
         vertex 1.812296e+000 -5.826772e-001 2.087452e+000
         vertex 1.809694e+000 -6.614173e-001 2.095887e+000
         vertex 1.809694e+000 -5.826772e-001 2.095887e+000
      endloop
   endfacet
   facet normal -9.115229e-001 0.000000e+000 -4.112494e-001
      outer loop
         vertex 1.809694e+000 -5.826772e-001 2.095887e+000
         vertex 1.809694e+000 -6.614173e-001 2.095887e+000
         vertex 1.805864e+000 -6.614173e-001 2.103839e+000
      endloop
   endfacet
   facet normal -8.898529e-001 0.000000e+000 -4.562475e-001
      outer loop
         vertex 1.809694e+000 -5.826772e-001 2.095887e+000
         vertex 1.805864e+000 -6.614173e-001 2.103839e+000
         vertex 1.805864e+000 -5.826772e-001 2.103839e+000
      endloop
   endfacet
   facet normal -8.400484e-001 0.000000e+000 -5.425115e-001
      outer loop
         vertex 1.805864e+000 -5.826772e-001 2.103839e+000
         vertex 1.805864e+000 -6.614173e-001 2.103839e+000
         vertex 1.800892e+000 -6.614173e-001 2.111132e+000
      endloop
   endfacet
   facet normal -8.119138e-001 0.000000e+000 -5.837773e-001
      outer loop
         vertex 1.805864e+000 -5.826772e-001 2.103839e+000
         vertex 1.800892e+000 -6.614173e-001 2.111132e+000
         vertex 1.800892e+000 -5.826772e-001 2.111132e+000
      endloop
   endfacet
   facet normal -7.498086e-001 0.000000e+000 -6.616548e-001
      outer loop
         vertex 1.800892e+000 -5.826772e-001 2.111132e+000
         vertex 1.800892e+000 -6.614173e-001 2.111132e+000
         vertex 1.794889e+000 -6.614173e-001 2.117602e+000
      endloop
   endfacet
   facet normal -7.158380e-001 0.000000e+000 -6.982664e-001
      outer loop
         vertex 1.800892e+000 -5.826772e-001 2.111132e+000
         vertex 1.794889e+000 -6.614173e-001 2.117602e+000
         vertex 1.794889e+000 -5.826772e-001 2.117602e+000
      endloop
   endfacet
   facet normal -6.428193e-001 0.000000e+000 -7.660179e-001
      outer loop
         vertex 1.794889e+000 -5.826772e-001 2.117602e+000
         vertex 1.794889e+000 -6.614173e-001 2.117602e+000
         vertex 1.787988e+000 -6.614173e-001 2.123105e+000
      endloop
   endfacet
   facet normal -6.037714e-001 0.000000e+000 -7.971575e-001
      outer loop
         vertex 1.794889e+000 -5.826772e-001 2.117602e+000
         vertex 1.787988e+000 -6.614173e-001 2.123105e+000
         vertex 1.787988e+000 -5.826772e-001 2.123105e+000
      endloop
   endfacet
   facet normal -5.214705e-001 0.000000e+000 -8.532693e-001
      outer loop
         vertex 1.787988e+000 -5.826772e-001 2.123105e+000
         vertex 1.787988e+000 -6.614173e-001 2.123105e+000
         vertex 1.780344e+000 -6.614173e-001 2.127518e+000
      endloop
   endfacet
   facet normal -4.782176e-001 0.000000e+000 -8.782414e-001
      outer loop
         vertex 1.787988e+000 -5.826772e-001 2.123105e+000
         vertex 1.780344e+000 -6.614173e-001 2.127518e+000
         vertex 1.780344e+000 -5.826772e-001 2.127518e+000
      endloop
   endfacet
   facet normal -3.884729e-001 0.000000e+000 -9.214601e-001
      outer loop
         vertex 1.780344e+000 -5.826772e-001 2.127518e+000
         vertex 1.780344e+000 -6.614173e-001 2.127518e+000
         vertex 1.772128e+000 -6.614173e-001 2.130743e+000
      endloop
   endfacet
   facet normal -3.419812e-001 0.000000e+000 -9.397067e-001
      outer loop
         vertex 1.780344e+000 -5.826772e-001 2.127518e+000
         vertex 1.772128e+000 -6.614173e-001 2.130743e+000
         vertex 1.772128e+000 -5.826772e-001 2.130743e+000
      endloop
   endfacet
   facet normal -2.467975e-001 0.000000e+000 -9.690670e-001
      outer loop
         vertex 1.772128e+000 -5.826772e-001 2.130743e+000
         vertex 1.772128e+000 -6.614173e-001 2.130743e+000
         vertex 1.763523e+000 -6.614173e-001 2.132707e+000
      endloop
   endfacet
   facet normal -1.981055e-001 0.000000e+000 -9.801807e-001
      outer loop
         vertex 1.772128e+000 -5.826772e-001 2.130743e+000
         vertex 1.763523e+000 -6.614173e-001 2.132707e+000
         vertex 1.763523e+000 -5.826772e-001 2.132707e+000
      endloop
   endfacet
   facet normal -9.960905e-002 0.000000e+000 -9.950266e-001
      outer loop
         vertex 1.763523e+000 -5.826772e-001 2.132707e+000
         vertex 1.763523e+000 -6.614173e-001 2.132707e+000
         vertex 1.754721e+000 -6.614173e-001 2.133367e+000
      endloop
   endfacet
   facet normal -4.980453e-002 0.000000e+000 -9.987590e-001
      outer loop
         vertex 1.763523e+000 -5.826772e-001 2.132707e+000
         vertex 1.754721e+000 -6.614173e-001 2.133367e+000
         vertex 1.754721e+000 -5.826772e-001 2.133367e+000
      endloop
   endfacet
   facet normal 4.980453e-002 0.000000e+000 -9.987590e-001
      outer loop
         vertex 1.754721e+000 -5.826772e-001 2.133367e+000
         vertex 1.754721e+000 -6.614173e-001 2.133367e+000
         vertex 1.745919e+000 -6.614173e-001 2.132707e+000
      endloop
   endfacet
   facet normal 9.960905e-002 0.000000e+000 -9.950266e-001
      outer loop
         vertex 1.754721e+000 -5.826772e-001 2.133367e+000
         vertex 1.745919e+000 -6.614173e-001 2.132707e+000
         vertex 1.745919e+000 -5.826772e-001 2.132707e+000
      endloop
   endfacet
   facet normal 1.981055e-001 0.000000e+000 -9.801807e-001
      outer loop
         vertex 1.745919e+000 -5.826772e-001 2.132707e+000
         vertex 1.745919e+000 -6.614173e-001 2.132707e+000
         vertex 1.737314e+000 -6.614173e-001 2.130743e+000
      endloop
   endfacet
   facet normal 2.467975e-001 0.000000e+000 -9.690670e-001
      outer loop
         vertex 1.745919e+000 -5.826772e-001 2.132707e+000
         vertex 1.737314e+000 -6.614173e-001 2.130743e+000
         vertex 1.737314e+000 -5.826772e-001 2.130743e+000
      endloop
   endfacet
   facet normal 3.419812e-001 0.000000e+000 -9.397067e-001
      outer loop
         vertex 1.737314e+000 -5.826772e-001 2.130743e+000
         vertex 1.737314e+000 -6.614173e-001 2.130743e+000
         vertex 1.729098e+000 -6.614173e-001 2.127518e+000
      endloop
   endfacet
   facet normal 3.884729e-001 0.000000e+000 -9.214601e-001
      outer loop
         vertex 1.737314e+000 -5.826772e-001 2.130743e+000
         vertex 1.729098e+000 -6.614173e-001 2.127518e+000
         vertex 1.729098e+000 -5.826772e-001 2.127518e+000
      endloop
   endfacet
   facet normal 4.782176e-001 0.000000e+000 -8.782414e-001
      outer loop
         vertex 1.729098e+000 -5.826772e-001 2.127518e+000
         vertex 1.729098e+000 -6.614173e-001 2.127518e+000
         vertex 1.721454e+000 -6.614173e-001 2.123105e+000
      endloop
   endfacet
   facet normal 5.214705e-001 0.000000e+000 -8.532693e-001
      outer loop
         vertex 1.729098e+000 -5.826772e-001 2.127518e+000
         vertex 1.721454e+000 -6.614173e-001 2.123105e+000
         vertex 1.721454e+000 -5.826772e-001 2.123105e+000
      endloop
   endfacet
   facet normal 6.037714e-001 0.000000e+000 -7.971576e-001
      outer loop
         vertex 1.721454e+000 -5.826772e-001 2.123105e+000
         vertex 1.721454e+000 -6.614173e-001 2.123105e+000
         vertex 1.714553e+000 -6.614173e-001 2.117602e+000
      endloop
   endfacet
   facet normal 6.428193e-001 0.000000e+000 -7.660179e-001
      outer loop
         vertex 1.721454e+000 -5.826772e-001 2.123105e+000
         vertex 1.714553e+000 -6.614173e-001 2.117602e+000
         vertex 1.714553e+000 -5.826772e-001 2.117602e+000
      endloop
   endfacet
   facet normal 7.158380e-001 0.000000e+000 -6.982664e-001
      outer loop
         vertex 1.714553e+000 -5.826772e-001 2.117602e+000
         vertex 1.714553e+000 -6.614173e-001 2.117602e+000
         vertex 1.708550e+000 -6.614173e-001 2.111132e+000
      endloop
   endfacet
   facet normal 7.498086e-001 0.000000e+000 -6.616548e-001
      outer loop
         vertex 1.714553e+000 -5.826772e-001 2.117602e+000
         vertex 1.708550e+000 -6.614173e-001 2.111132e+000
         vertex 1.708550e+000 -5.826772e-001 2.111132e+000
      endloop
   endfacet
   facet normal 8.119138e-001 0.000000e+000 -5.837772e-001
      outer loop
         vertex 1.708550e+000 -5.826772e-001 2.111132e+000
         vertex 1.708550e+000 -6.614173e-001 2.111132e+000
         vertex 1.703578e+000 -6.614173e-001 2.103839e+000
      endloop
   endfacet
   facet normal 8.400484e-001 0.000000e+000 -5.425115e-001
      outer loop
         vertex 1.708550e+000 -5.826772e-001 2.111132e+000
         vertex 1.703578e+000 -6.614173e-001 2.103839e+000
         vertex 1.703578e+000 -5.826772e-001 2.103839e+000
      endloop
   endfacet
   facet normal 8.898529e-001 0.000000e+000 -4.562475e-001
      outer loop
         vertex 1.703578e+000 -5.826772e-001 2.103839e+000
         vertex 1.703578e+000 -6.614173e-001 2.103839e+000
         vertex 1.699748e+000 -6.614173e-001 2.095887e+000
      endloop
   endfacet
   facet normal 9.115229e-001 0.000000e+000 -4.112494e-001
      outer loop
         vertex 1.703578e+000 -5.826772e-001 2.103839e+000
         vertex 1.699748e+000 -6.614173e-001 2.095887e+000
         vertex 1.699748e+000 -5.826772e-001 2.095887e+000
      endloop
   endfacet
   facet normal 9.479141e-001 0.000000e+000 -3.185259e-001
      outer loop
         vertex 1.699748e+000 -5.826772e-001 2.095887e+000
         vertex 1.699748e+000 -6.614173e-001 2.095887e+000
         vertex 1.697147e+000 -6.614173e-001 2.087452e+000
      endloop
   endfacet
   facet normal 9.626355e-001 0.000000e+000 -2.708006e-001
      outer loop
         vertex 1.699748e+000 -5.826772e-001 2.095887e+000
         vertex 1.697147e+000 -6.614173e-001 2.087452e+000
         vertex 1.697147e+000 -5.826772e-001 2.087452e+000
      endloop
   endfacet
   facet normal 9.848005e-001 0.000000e+000 -1.736889e-001
      outer loop
         vertex 1.697147e+000 -5.826772e-001 2.087452e+000
         vertex 1.697147e+000 -6.614173e-001 2.087452e+000
         vertex 1.695831e+000 -6.614173e-001 2.078725e+000
      endloop
   endfacet
   facet normal 9.922444e-001 0.000000e+000 -1.243026e-001
      outer loop
         vertex 1.697147e+000 -5.826772e-001 2.087452e+000
         vertex 1.695831e+000 -6.614173e-001 2.078725e+000
         vertex 1.695831e+000 -5.826772e-001 2.078725e+000
      endloop
   endfacet
   facet normal 9.996881e-001 0.000000e+000 -2.497209e-002
      outer loop
         vertex 1.695831e+000 -5.826772e-001 2.078725e+000
         vertex 1.695831e+000 -6.614173e-001 2.078725e+000
         vertex 1.695831e+000 -6.614173e-001 2.069898e+000
      endloop
   endfacet
   facet normal 9.996881e-001 0.000000e+000 2.497209e-002
      outer loop
         vertex 1.695831e+000 -5.826772e-001 2.078725e+000
         vertex 1.695831e+000 -6.614173e-001 2.069898e+000
         vertex 1.695831e+000 -5.826772e-001 2.069898e+000
      endloop
   endfacet
   facet normal 9.922444e-001 0.000000e+000 1.243026e-001
      outer loop
         vertex 1.695831e+000 -5.826772e-001 2.069898e+000
         vertex 1.695831e+000 -6.614173e-001 2.069898e+000
         vertex 1.697147e+000 -6.614173e-001 2.061170e+000
      endloop
   endfacet
   facet normal 9.848005e-001 0.000000e+000 1.736889e-001
      outer loop
         vertex 1.695831e+000 -5.826772e-001 2.069898e+000
         vertex 1.697147e+000 -6.614173e-001 2.061170e+000
         vertex 1.697147e+000 -5.826772e-001 2.061170e+000
      endloop
   endfacet
   facet normal 9.626355e-001 0.000000e+000 2.708006e-001
      outer loop
         vertex 1.697147e+000 -5.826772e-001 2.061170e+000
         vertex 1.697147e+000 -6.614173e-001 2.061170e+000
         vertex 1.699748e+000 -6.614173e-001 2.052736e+000
      endloop
   endfacet
   facet normal 9.479141e-001 0.000000e+000 3.185259e-001
      outer loop
         vertex 1.697147e+000 -5.826772e-001 2.061170e+000
         vertex 1.699748e+000 -6.614173e-001 2.052736e+000
         vertex 1.699748e+000 -5.826772e-001 2.052736e+000
      endloop
   endfacet
   facet normal 9.115229e-001 0.000000e+000 4.112494e-001
      outer loop
         vertex 1.699748e+000 -5.826772e-001 2.052736e+000
         vertex 1.699748e+000 -6.614173e-001 2.052736e+000
         vertex 1.703578e+000 -6.614173e-001 2.044784e+000
      endloop
   endfacet
   facet normal 8.898529e-001 0.000000e+000 4.562475e-001
      outer loop
         vertex 1.699748e+000 -5.826772e-001 2.052736e+000
         vertex 1.703578e+000 -6.614173e-001 2.044784e+000
         vertex 1.703578e+000 -5.826772e-001 2.044784e+000
      endloop
   endfacet
   facet normal 8.400484e-001 0.000000e+000 5.425115e-001
      outer loop
         vertex 1.703578e+000 -5.826772e-001 2.044784e+000
         vertex 1.703578e+000 -6.614173e-001 2.044784e+000
         vertex 1.708550e+000 -6.614173e-001 2.037491e+000
      endloop
   endfacet
   facet normal 8.119138e-001 0.000000e+000 5.837773e-001
      outer loop
         vertex 1.703578e+000 -5.826772e-001 2.044784e+000
         vertex 1.708550e+000 -6.614173e-001 2.037491e+000
         vertex 1.708550e+000 -5.826772e-001 2.037491e+000
      endloop
   endfacet
   facet normal 7.498086e-001 0.000000e+000 6.616548e-001
      outer loop
         vertex 1.708550e+000 -5.826772e-001 2.037491e+000
         vertex 1.708550e+000 -6.614173e-001 2.037491e+000
         vertex 1.714553e+000 -6.614173e-001 2.031021e+000
      endloop
   endfacet
   facet normal 7.158380e-001 0.000000e+000 6.982664e-001
      outer loop
         vertex 1.708550e+000 -5.826772e-001 2.037491e+000
         vertex 1.714553e+000 -6.614173e-001 2.031021e+000
         vertex 1.714553e+000 -5.826772e-001 2.031021e+000
      endloop
   endfacet
   facet normal 6.428193e-001 0.000000e+000 7.660179e-001
      outer loop
         vertex 1.714553e+000 -5.826772e-001 2.031021e+000
         vertex 1.714553e+000 -6.614173e-001 2.031021e+000
         vertex 1.721454e+000 -6.614173e-001 2.025518e+000
      endloop
   endfacet
   facet normal 6.037714e-001 0.000000e+000 7.971575e-001
      outer loop
         vertex 1.714553e+000 -5.826772e-001 2.031021e+000
         vertex 1.721454e+000 -6.614173e-001 2.025518e+000
         vertex 1.721454e+000 -5.826772e-001 2.025518e+000
      endloop
   endfacet
   facet normal 5.214705e-001 0.000000e+000 8.532693e-001
      outer loop
         vertex 1.721454e+000 -5.826772e-001 2.025518e+000
         vertex 1.721454e+000 -6.614173e-001 2.025518e+000
         vertex 1.729098e+000 -6.614173e-001 2.021105e+000
      endloop
   endfacet
   facet normal 4.782176e-001 0.000000e+000 8.782414e-001
      outer loop
         vertex 1.721454e+000 -5.826772e-001 2.025518e+000
         vertex 1.729098e+000 -6.614173e-001 2.021105e+000
         vertex 1.729098e+000 -5.826772e-001 2.021105e+000
      endloop
   endfacet
   facet normal 3.884729e-001 0.000000e+000 9.214601e-001
      outer loop
         vertex 1.729098e+000 -5.826772e-001 2.021105e+000
         vertex 1.729098e+000 -6.614173e-001 2.021105e+000
         vertex 1.737314e+000 -6.614173e-001 2.017880e+000
      endloop
   endfacet
   facet normal 3.419812e-001 0.000000e+000 9.397067e-001
      outer loop
         vertex 1.729098e+000 -5.826772e-001 2.021105e+000
         vertex 1.737314e+000 -6.614173e-001 2.017880e+000
         vertex 1.737314e+000 -5.826772e-001 2.017880e+000
      endloop
   endfacet
   facet normal 2.467975e-001 0.000000e+000 9.690670e-001
      outer loop
         vertex 1.737314e+000 -5.826772e-001 2.017880e+000
         vertex 1.737314e+000 -6.614173e-001 2.017880e+000
         vertex 1.745919e+000 -6.614173e-001 2.015916e+000
      endloop
   endfacet
   facet normal 1.981055e-001 0.000000e+000 9.801807e-001
      outer loop
         vertex 1.737314e+000 -5.826772e-001 2.017880e+000
         vertex 1.745919e+000 -6.614173e-001 2.015916e+000
         vertex 1.745919e+000 -5.826772e-001 2.015916e+000
      endloop
   endfacet
   facet normal 9.960905e-002 0.000000e+000 9.950266e-001
      outer loop
         vertex 1.745919e+000 -5.826772e-001 2.015916e+000
         vertex 1.745919e+000 -6.614173e-001 2.015916e+000
         vertex 1.754721e+000 -6.614173e-001 2.015256e+000
      endloop
   endfacet
endsolid