solid holder_1-3-solid1_Default_sldprt
   facet normal 0.000000e+000 0.000000e+000 -1.000000e+000
      outer loop
         vertex 1.232977e+000 -8.167991e-001 1.472193e+000
         vertex 1.243824e+000 -8.334019e-001 1.472193e+000
         vertex 1.158100e+000 -9.960630e-001 1.472193e+000
      endloop
   endfacet
   facet normal 0.000000e+000 0.000000e+000 -1.000000e+000
      outer loop
         vertex 1.232977e+000 -7.024968e-001 1.472193e+000
         vertex 1.225010e+000 -7.206584e-001 1.472193e+000
         vertex 1.023622e+000 -5.676163e-001 1.472193e+000
      endloop
   endfacet
   facet normal 0.000000e+000 0.000000e+000 -1.000000e+000
      outer loop
         vertex 1.023622e+000 -5.676163e-001 1.472193e+000
         vertex 1.220142e+000 -7.794123e-001 1.472193e+000
         vertex 1.158100e+000 -9.960630e-001 1.472193e+000
      endloop
   endfacet
   facet normal 0.000000e+000 0.000000e+000 -1.000000e+000
      outer loop
         vertex 1.158100e+000 -9.960630e-001 1.472193e+000
         vertex 1.220142e+000 -7.794123e-001 1.472193e+000
         vertex 1.225010e+000 -7.986375e-001 1.472193e+000
      endloop
   endfacet
   facet normal 0.000000e+000 0.000000e+000 -1.000000e+000
      outer loop
         vertex 1.158100e+000 -9.960630e-001 1.472193e+000
         vertex 1.225010e+000 -7.986375e-001 1.472193e+000
         vertex 1.232977e+000 -8.167991e-001 1.472193e+000
      endloop
   endfacet
   facet normal 0.000000e+000 0.000000e+000 -1.000000e+000
      outer loop
         vertex 1.458661e+000 -7.596479e-001 1.472193e+000
         vertex 1.457024e+000 -7.398837e-001 1.472193e+000
         vertex 1.653543e+000 -5.676163e-001 1.472193e+000
      endloop
   endfacet
   facet normal 0.000000e+000 0.000000e+000 -1.000000e+000
      outer loop
         vertex 1.653543e+000 -5.676163e-001 1.472193e+000
         vertex 1.457024e+000 -7.398837e-001 1.472193e+000
         vertex 1.452155e+000 -7.206584e-001 1.472193e+000
      endloop
   endfacet
   facet normal 0.000000e+000 0.000000e+000 -1.000000e+000
      outer loop
         vertex 1.452155e+000 -7.206584e-001 1.472193e+000
         vertex 1.444189e+000 -7.024968e-001 1.472193e+000
         vertex 1.653543e+000 -5.676163e-001 1.472193e+000
      endloop
   endfacet
   facet normal 0.000000e+000 0.000000e+000 -1.000000e+000
      outer loop
         vertex 1.653543e+000 -5.676163e-001 1.472193e+000
         vertex 1.444189e+000 -7.024968e-001 1.472193e+000
         vertex 1.433342e+000 -6.858941e-001 1.472193e+000
      endloop
   endfacet
   facet normal 0.000000e+000 0.000000e+000 -1.000000e+000
      outer loop
         vertex 1.653543e+000 -5.676163e-001 1.472193e+000
         vertex 1.433342e+000 -6.858941e-001 1.472193e+000
         vertex 1.653543e+000 -4.251969e-001 1.472193e+000
      endloop
   endfacet
   facet normal 0.000000e+000 0.000000e+000 -1.000000e+000
      outer loop
         vertex 1.225010e+000 -7.206584e-001 1.472193e+000
         vertex 1.220142e+000 -7.398837e-001 1.472193e+000
         vertex 1.023622e+000 -5.676163e-001 1.472193e+000
      endloop
   endfacet
   facet normal 0.000000e+000 0.000000e+000 -1.000000e+000
      outer loop
         vertex 1.023622e+000 -5.676163e-001 1.472193e+000
         vertex 1.220142e+000 -7.398837e-001 1.472193e+000
         vertex 1.218504e+000 -7.596479e-001 1.472193e+000
      endloop
   endfacet
   facet normal 0.000000e+000 0.000000e+000 -1.000000e+000
      outer loop
         vertex 1.023622e+000 -5.676163e-001 1.472193e+000
         vertex 1.218504e+000 -7.596479e-001 1.472193e+000
         vertex 1.220142e+000 -7.794123e-001 1.472193e+000
      endloop
   endfacet
   facet normal 0.000000e+000 0.000000e+000 -1.000000e+000
      outer loop
         vertex 1.519066e+000 -9.960630e-001 1.472193e+000
         vertex 1.419910e+000 -8.479928e-001 1.472193e+000
         vertex 1.433342e+000 -8.334019e-001 1.472193e+000
      endloop
   endfacet
   facet normal 0.000000e+000 0.000000e+000 -1.000000e+000
      outer loop
         vertex 1.433342e+000 -8.334019e-001 1.472193e+000
         vertex 1.444189e+000 -8.167991e-001 1.472193e+000
         vertex 1.519066e+000 -9.960630e-001 1.472193e+000
      endloop
   endfacet
   facet normal 0.000000e+000 0.000000e+000 -1.000000e+000
      outer loop
         vertex 1.519066e+000 -9.960630e-001 1.472193e+000
         vertex 1.444189e+000 -8.167991e-001 1.472193e+000
         vertex 1.452155e+000 -7.986375e-001 1.472193e+000
      endloop
   endfacet
   facet normal 0.000000e+000 0.000000e+000 -1.000000e+000
      outer loop
         vertex 1.519066e+000 -9.960630e-001 1.472193e+000
         vertex 1.452155e+000 -7.986375e-001 1.472193e+000
         vertex 1.653543e+000 -5.676163e-001 1.472193e+000
      endloop
   endfacet
   facet normal 0.000000e+000 0.000000e+000 -1.000000e+000
      outer loop
         vertex 1.653543e+000 -5.676163e-001 1.472193e+000
         vertex 1.452155e+000 -7.986375e-001 1.472193e+000
         vertex 1.457024e+000 -7.794123e-001 1.472193e+000
      endloop
   endfacet
   facet normal 0.000000e+000 0.000000e+000 -1.000000e+000
      outer loop
         vertex 1.653543e+000 -5.676163e-001 1.472193e+000
         vertex 1.457024e+000 -7.794123e-001 1.472193e+000
         vertex 1.458661e+000 -7.596479e-001 1.472193e+000
      endloop
   endfacet
   facet normal 0.000000e+000 0.000000e+000 -1.000000e+000
      outer loop
         vertex 1.023622e+000 -4.251969e-001 1.472193e+000
         vertex 1.309105e+000 -6.432436e-001 1.472193e+000
         vertex 1.290348e+000 -6.496831e-001 1.472193e+000
      endloop
   endfacet
   facet normal 0.000000e+000 0.000000e+000 -1.000000e+000
      outer loop
         vertex 1.243824e+000 -8.334019e-001 1.472193e+000
         vertex 1.257256e+000 -8.479928e-001 1.472193e+000
         vertex 1.158100e+000 -9.960630e-001 1.472193e+000
      endloop
   endfacet
   facet normal 0.000000e+000 0.000000e+000 -1.000000e+000
      outer loop
         vertex 1.158100e+000 -9.960630e-001 1.472193e+000
         vertex 1.257256e+000 -8.479928e-001 1.472193e+000
         vertex 1.272906e+000 -8.601739e-001 1.472193e+000
      endloop
   endfacet
   facet normal 0.000000e+000 0.000000e+000 -1.000000e+000
      outer loop
         vertex 1.158100e+000 -9.960630e-001 1.472193e+000
         vertex 1.272906e+000 -8.601739e-001 1.472193e+000
         vertex 1.290348e+000 -8.696129e-001 1.472193e+000
      endloop
   endfacet
   facet normal 0.000000e+000 0.000000e+000 -1.000000e+000
      outer loop
         vertex 1.290348e+000 -8.696129e-001 1.472193e+000
         vertex 1.309105e+000 -8.760523e-001 1.472193e+000
         vertex 1.158100e+000 -9.960630e-001 1.472193e+000
      endloop
   endfacet
   facet normal 0.000000e+000 0.000000e+000 -1.000000e+000
      outer loop
         vertex 1.158100e+000 -9.960630e-001 1.472193e+000
         vertex 1.309105e+000 -8.760523e-001 1.472193e+000
         vertex 1.328667e+000 -8.793166e-001 1.472193e+000
      endloop
   endfacet
   facet normal 0.000000e+000 0.000000e+000 -1.000000e+000
      outer loop
         vertex 1.158100e+000 -9.960630e-001 1.472193e+000
         vertex 1.328667e+000 -8.793166e-001 1.472193e+000
         vertex 1.519066e+000 -9.960630e-001 1.472193e+000
      endloop
   endfacet
   facet normal 0.000000e+000 0.000000e+000 -1.000000e+000
      outer loop
         vertex 1.519066e+000 -9.960630e-001 1.472193e+000
         vertex 1.328667e+000 -8.793166e-001 1.472193e+000
         vertex 1.348499e+000 -8.793166e-001 1.472193e+000
      endloop
   endfacet
   facet normal 0.000000e+000 0.000000e+000 -1.000000e+000
      outer loop
         vertex 1.519066e+000 -9.960630e-001 1.472193e+000
         vertex 1.348499e+000 -8.793166e-001 1.472193e+000
         vertex 1.368060e+000 -8.760523e-001 1.472193e+000
      endloop
   endfacet
   facet normal 0.000000e+000 0.000000e+000 -1.000000e+000
      outer loop
         vertex 1.368060e+000 -8.760523e-001 1.472193e+000
         vertex 1.386818e+000 -8.696129e-001 1.472193e+000
         vertex 1.519066e+000 -9.960630e-001 1.472193e+000
      endloop
   endfacet
   facet normal 0.000000e+000 0.000000e+000 -1.000000e+000
      outer loop
         vertex 1.519066e+000 -9.960630e-001 1.472193e+000
         vertex 1.386818e+000 -8.696129e-001 1.472193e+000
         vertex 1.404259e+000 -8.601739e-001 1.472193e+000
      endloop
   endfacet
   facet normal 0.000000e+000 0.000000e+000 -1.000000e+000
      outer loop
         vertex 1.519066e+000 -9.960630e-001 1.472193e+000
         vertex 1.404259e+000 -8.601739e-001 1.472193e+000
         vertex 1.419910e+000 -8.479928e-001 1.472193e+000
      endloop
   endfacet
   facet normal 0.000000e+000 0.000000e+000 -1.000000e+000
      outer loop
         vertex 1.433342e+000 -6.858941e-001 1.472193e+000
         vertex 1.419910e+000 -6.713032e-001 1.472193e+000
         vertex 1.653543e+000 -4.251969e-001 1.472193e+000
      endloop
   endfacet
   facet normal 0.000000e+000 0.000000e+000 -1.000000e+000
      outer loop
         vertex 1.653543e+000 -4.251969e-001 1.472193e+000
         vertex 1.419910e+000 -6.713032e-001 1.472193e+000
         vertex 1.404259e+000 -6.591220e-001 1.472193e+000
      endloop
   endfacet
   facet normal 0.000000e+000 0.000000e+000 -1.000000e+000
      outer loop
         vertex 1.653543e+000 -4.251969e-001 1.472193e+000
         vertex 1.404259e+000 -6.591220e-001 1.472193e+000
         vertex 1.386818e+000 -6.496831e-001 1.472193e+000
      endloop
   endfacet
   facet normal 0.000000e+000 0.000000e+000 -1.000000e+000
      outer loop
         vertex 1.386818e+000 -6.496831e-001 1.472193e+000
         vertex 1.368060e+000 -6.432436e-001 1.472193e+000
         vertex 1.653543e+000 -4.251969e-001 1.472193e+000
      endloop
   endfacet
   facet normal 0.000000e+000 0.000000e+000 -1.000000e+000
      outer loop
         vertex 1.653543e+000 -4.251969e-001 1.472193e+000
         vertex 1.368060e+000 -6.432436e-001 1.472193e+000
         vertex 1.348499e+000 -6.399794e-001 1.472193e+000
      endloop
   endfacet
   facet normal 0.000000e+000 0.000000e+000 -1.000000e+000
      outer loop
         vertex 1.653543e+000 -4.251969e-001 1.472193e+000
         vertex 1.348499e+000 -6.399794e-001 1.472193e+000
         vertex 1.023622e+000 -4.251969e-001 1.472193e+000
      endloop
   endfacet
   facet normal 0.000000e+000 0.000000e+000 -1.000000e+000
      outer loop
         vertex 1.023622e+000 -4.251969e-001 1.472193e+000
         vertex 1.348499e+000 -6.399794e-001 1.472193e+000
         vertex 1.328667e+000 -6.399794e-001 1.472193e+000
      endloop
   endfacet
   facet normal 0.000000e+000 0.000000e+000 -1.000000e+000
      outer loop
         vertex 1.023622e+000 -4.251969e-001 1.472193e+000
         vertex 1.328667e+000 -6.399794e-001 1.472193e+000
         vertex 1.309105e+000 -6.432436e-001 1.472193e+000
      endloop
   endfacet
   facet normal 0.000000e+000 0.000000e+000 -1.000000e+000
      outer loop
         vertex 1.290348e+000 -6.496831e-001 1.472193e+000
         vertex 1.272906e+000 -6.591220e-001 1.472193e+000
         vertex 1.023622e+000 -4.251969e-001 1.472193e+000
      endloop
   endfacet
   facet normal 0.000000e+000 0.000000e+000 -1.000000e+000
      outer loop
         vertex 1.023622e+000 -4.251969e-001 1.472193e+000
         vertex 1.272906e+000 -6.591220e-001 1.472193e+000
         vertex 1.257256e+000 -6.713032e-001 1.472193e+000
      endloop
   endfacet
   facet normal 0.000000e+000 0.000000e+000 -1.000000e+000
      outer loop
         vertex 1.023622e+000 -4.251969e-001 1.472193e+000
         vertex 1.257256e+000 -6.713032e-001 1.472193e+000
         vertex 1.023622e+000 -5.676163e-001 1.472193e+000
      endloop
   endfacet
   facet normal 0.000000e+000 0.000000e+000 -1.000000e+000
      outer loop
         vertex 1.023622e+000 -5.676163e-001 1.472193e+000
         vertex 1.257256e+000 -6.713032e-001 1.472193e+000
         vertex 1.243824e+000 -6.858941e-001 1.472193e+000
      endloop
   endfacet
   facet normal 0.000000e+000 0.000000e+000 -1.000000e+000
      outer loop
         vertex 1.023622e+000 -5.676163e-001 1.472193e+000
         vertex 1.243824e+000 -6.858941e-001 1.472193e+000
         vertex 1.232977e+000 -7.024968e-001 1.472193e+000
      endloop
   endfacet
   facet normal 0.000000e+000 0.000000e+000 1.000000e+000
      outer loop
         vertex 1.653543e+000 -5.676163e-001 1.550934e+000
         vertex 1.458661e+000 -7.596479e-001 1.550934e+000
         vertex 1.457024e+000 -7.794123e-001 1.550934e+000
      endloop
   endfacet
   facet normal 0.000000e+000 0.000000e+000 1.000000e+000
      outer loop
         vertex 1.257256e+000 -8.479928e-001 1.550934e+000
         vertex 1.243824e+000 -8.334019e-001 1.550934e+000
         vertex 1.158100e+000 -9.960630e-001 1.550934e+000
      endloop
   endfacet
   facet normal 0.000000e+000 0.000000e+000 1.000000e+000
      outer loop
         vertex 1.653543e+000 -5.676163e-001 1.550934e+000
         vertex 1.457024e+000 -7.794123e-001 1.550934e+000
         vertex 1.519066e+000 -9.960630e-001 1.550934e+000
      endloop
   endfacet
   facet normal 0.000000e+000 0.000000e+000 1.000000e+000
      outer loop
         vertex 1.519066e+000 -9.960630e-001 1.550934e+000
         vertex 1.457024e+000 -7.794123e-001 1.550934e+000
         vertex 1.452155e+000 -7.986375e-001 1.550934e+000
      endloop
   endfacet
   facet normal 0.000000e+000 0.000000e+000 1.000000e+000
      outer loop
         vertex 1.519066e+000 -9.960630e-001 1.550934e+000
         vertex 1.452155e+000 -7.986375e-001 1.550934e+000
         vertex 1.444189e+000 -8.167991e-001 1.550934e+000
      endloop
   endfacet
   facet normal 0.000000e+000 0.000000e+000 1.000000e+000
      outer loop
         vertex 1.444189e+000 -8.167991e-001 1.550934e+000
         vertex 1.433342e+000 -8.334019e-001 1.550934e+000
         vertex 1.519066e+000 -9.960630e-001 1.550934e+000
      endloop
   endfacet
   facet normal 0.000000e+000 0.000000e+000 1.000000e+000
      outer loop
         vertex 1.519066e+000 -9.960630e-001 1.550934e+000
         vertex 1.433342e+000 -8.334019e-001 1.550934e+000
         vertex 1.419910e+000 -8.479928e-001 1.550934e+000
      endloop
   endfacet
   facet normal 0.000000e+000 0.000000e+000 1.000000e+000
      outer loop
         vertex 1.519066e+000 -9.960630e-001 1.550934e+000
         vertex 1.419910e+000 -8.479928e-001 1.550934e+000
         vertex 1.404259e+000 -8.601739e-001 1.550934e+000
      endloop
   endfacet
   facet normal 0.000000e+000 0.000000e+000 1.000000e+000
      outer loop
         vertex 1.519066e+000 -9.960630e-001 1.550934e+000
         vertex 1.348499e+000 -8.793166e-001 1.550934e+000
         vertex 1.158100e+000 -9.960630e-001 1.550934e+000
      endloop
   endfacet
   facet normal 0.000000e+000 0.000000e+000 1.000000e+000
      outer loop
         vertex 1.158100e+000 -9.960630e-001 1.550934e+000
         vertex 1.348499e+000 -8.793166e-001 1.550934e+000
         vertex 1.328667e+000 -8.793166e-001 1.550934e+000
      endloop
   endfacet
   facet normal 0.000000e+000 0.000000e+000 1.000000e+000
      outer loop
         vertex 1.158100e+000 -9.960630e-001 1.550934e+000
         vertex 1.328667e+000 -8.793166e-001 1.550934e+000
         vertex 1.309105e+000 -8.760523e-001 1.550934e+000
      endloop
   endfacet
   facet normal 0.000000e+000 0.000000e+000 1.000000e+000
      outer loop
         vertex 1.444189e+000 -7.024968e-001 1.550934e+000
         vertex 1.452155e+000 -7.206584e-001 1.550934e+000
         vertex 1.653543e+000 -5.676163e-001 1.550934e+000
      endloop
   endfacet
   facet normal 0.000000e+000 0.000000e+000 1.000000e+000
      outer loop
         vertex 1.653543e+000 -5.676163e-001 1.550934e+000
         vertex 1.452155e+000 -7.206584e-001 1.550934e+000
         vertex 1.457024e+000 -7.398837e-001 1.550934e+000
      endloop
   endfacet
   facet normal 0.000000e+000 0.000000e+000 1.000000e+000
      outer loop
         vertex 1.653543e+000 -5.676163e-001 1.550934e+000
         vertex 1.457024e+000 -7.398837e-001 1.550934e+000
         vertex 1.458661e+000 -7.596479e-001 1.550934e+000
      endloop
   endfacet
   facet normal 0.000000e+000 0.000000e+000 1.000000e+000
      outer loop
         vertex 1.404259e+000 -8.601739e-001 1.550934e+000
         vertex 1.386818e+000 -8.696129e-001 1.550934e+000
         vertex 1.519066e+000 -9.960630e-001 1.550934e+000
      endloop
   endfacet
   facet normal 0.000000e+000 0.000000e+000 1.000000e+000
      outer loop
         vertex 1.519066e+000 -9.960630e-001 1.550934e+000
         vertex 1.386818e+000 -8.696129e-001 1.550934e+000
         vertex 1.368060e+000 -8.760523e-001 1.550934e+000
      endloop
   endfacet
   facet normal 0.000000e+000 0.000000e+000 1.000000e+000
      outer loop
         vertex 1.519066e+000 -9.960630e-001 1.550934e+000
         vertex 1.368060e+000 -8.760523e-001 1.550934e+000
         vertex 1.348499e+000 -8.793166e-001 1.550934e+000
      endloop
   endfacet
   facet normal 0.000000e+000 0.000000e+000 1.000000e+000
      outer loop
         vertex 1.309105e+000 -8.760523e-001 1.550934e+000
         vertex 1.290348e+000 -8.696129e-001 1.550934e+000
         vertex 1.158100e+000 -9.960630e-001 1.550934e+000
      endloop
   endfacet
   facet normal 0.000000e+000 0.000000e+000 1.000000e+000
      outer loop
         vertex 1.158100e+000 -9.960630e-001 1.550934e+000
         vertex 1.290348e+000 -8.696129e-001 1.550934e+000
         vertex 1.272906e+000 -8.601739e-001 1.550934e+000
      endloop
   endfacet
   facet normal 0.000000e+000 0.000000e+000 1.000000e+000
      outer loop
         vertex 1.158100e+000 -9.960630e-001 1.550934e+000
         vertex 1.272906e+000 -8.601739e-001 1.550934e+000
         vertex 1.257256e+000 -8.479928e-001 1.550934e+000
      endloop
   endfacet
   facet normal 0.000000e+000 0.000000e+000 1.000000e+000
      outer loop
         vertex 1.653543e+000 -4.251969e-001 1.550934e+000
         vertex 1.023622e+000 -4.251969e-001 1.550934e+000
         vertex 1.328667e+000 -6.399794e-001 1.550934e+000
      endloop
   endfacet
   facet normal 0.000000e+000 0.000000e+000 1.000000e+000
      outer loop
         vertex 1.225010e+000 -7.206584e-001 1.550934e+000
         vertex 1.023622e+000 -5.676163e-001 1.550934e+000
         vertex 1.220142e+000 -7.398837e-001 1.550934e+000
      endloop
   endfacet
   facet normal 0.000000e+000 0.000000e+000 1.000000e+000
      outer loop
         vertex 1.220142e+000 -7.398837e-001 1.550934e+000
         vertex 1.023622e+000 -5.676163e-001 1.550934e+000
         vertex 1.218504e+000 -7.596479e-001 1.550934e+000
      endloop
   endfacet
   facet normal 0.000000e+000 0.000000e+000 1.000000e+000
      outer loop
         vertex 1.272906e+000 -6.591220e-001 1.550934e+000
         vertex 1.290348e+000 -6.496831e-001 1.550934e+000
         vertex 1.023622e+000 -4.251969e-001 1.550934e+000
      endloop
   endfacet
   facet normal 0.000000e+000 0.000000e+000 1.000000e+000
      outer loop
         vertex 1.023622e+000 -4.251969e-001 1.550934e+000
         vertex 1.290348e+000 -6.496831e-001 1.550934e+000
         vertex 1.309105e+000 -6.432436e-001 1.550934e+000
      endloop
   endfacet
   facet normal 0.000000e+000 0.000000e+000 1.000000e+000
      outer loop
         vertex 1.023622e+000 -4.251969e-001 1.550934e+000
         vertex 1.309105e+000 -6.432436e-001 1.550934e+000
         vertex 1.328667e+000 -6.399794e-001 1.550934e+000
      endloop
   endfacet
   facet normal 0.000000e+000 0.000000e+000 1.000000e+000
      outer loop
         vertex 1.328667e+000 -6.399794e-001 1.550934e+000
         vertex 1.348499e+000 -6.399794e-001 1.550934e+000
         vertex 1.653543e+000 -4.251969e-001 1.550934e+000
      endloop
   endfacet
   facet normal 0.000000e+000 0.000000e+000 1.000000e+000
      outer loop
         vertex 1.653543e+000 -4.251969e-001 1.550934e+000
         vertex 1.348499e+000 -6.399794e-001 1.550934e+000
         vertex 1.368060e+000 -6.432436e-001 1.550934e+000
      endloop
   endfacet
   facet normal 0.000000e+000 0.000000e+000 1.000000e+000
      outer loop
         vertex 1.653543e+000 -4.251969e-001 1.550934e+000
         vertex 1.368060e+000 -6.432436e-001 1.550934e+000
         vertex 1.386818e+000 -6.496831e-001 1.550934e+000
      endloop
   endfacet
   facet normal 0.000000e+000 0.000000e+000 1.000000e+000
      outer loop
         vertex 1.386818e+000 -6.496831e-001 1.550934e+000
         vertex 1.404259e+000 -6.591220e-001 1.550934e+000
         vertex 1.653543e+000 -4.251969e-001 1.550934e+000
      endloop
   endfacet
   facet normal 0.000000e+000 0.000000e+000 1.000000e+000
      outer loop
         vertex 1.653543e+000 -4.251969e-001 1.550934e+000
         vertex 1.404259e+000 -6.591220e-001 1.550934e+000
         vertex 1.419910e+000 -6.713032e-001 1.550934e+000
      endloop
   endfacet
   facet normal 0.000000e+000 0.000000e+000 1.000000e+000
      outer loop
         vertex 1.653543e+000 -4.251969e-001 1.550934e+000
         vertex 1.419910e+000 -6.713032e-001 1.550934e+000
         vertex 1.653543e+000 -5.676163e-001 1.550934e+000
      endloop
   endfacet
   facet normal 0.000000e+000 0.000000e+000 1.000000e+000
      outer loop
         vertex 1.653543e+000 -5.676163e-001 1.550934e+000
         vertex 1.419910e+000 -6.713032e-001 1.550934e+000
         vertex 1.433342e+000 -6.858941e-001 1.550934e+000
      endloop
   endfacet
   facet normal 0.000000e+000 0.000000e+000 1.000000e+000
      outer loop
         vertex 1.653543e+000 -5.676163e-001 1.550934e+000
         vertex 1.433342e+000 -6.858941e-001 1.550934e+000
         vertex 1.444189e+000 -7.024968e-001 1.550934e+000
      endloop
   endfacet
   facet normal 0.000000e+000 0.000000e+000 1.000000e+000
      outer loop
         vertex 1.243824e+000 -8.334019e-001 1.550934e+000
         vertex 1.232977e+000 -8.167991e-001 1.550934e+000
         vertex 1.158100e+000 -9.960630e-001 1.550934e+000
      endloop
   endfacet
   facet normal 0.000000e+000 0.000000e+000 1.000000e+000
      outer loop
         vertex 1.158100e+000 -9.960630e-001 1.550934e+000
         vertex 1.232977e+000 -8.167991e-001 1.550934e+000
         vertex 1.225010e+000 -7.986375e-001 1.550934e+000
      endloop
   endfacet
   facet normal 0.000000e+000 0.000000e+000 1.000000e+000
      outer loop
         vertex 1.158100e+000 -9.960630e-001 1.550934e+000
         vertex 1.225010e+000 -7.986375e-001 1.550934e+000
         vertex 1.023622e+000 -5.676163e-001 1.550934e+000
      endloop
   endfacet
   facet normal 0.000000e+000 0.000000e+000 1.000000e+000
      outer loop
         vertex 1.023622e+000 -5.676163e-001 1.550934e+000
         vertex 1.225010e+000 -7.986375e-001 1.550934e+000
         vertex 1.220142e+000 -7.794123e-001 1.550934e+000
      endloop
   endfacet
   facet normal 0.000000e+000 0.000000e+000 1.000000e+000
      outer loop
         vertex 1.023622e+000 -5.676163e-001 1.550934e+000
         vertex 1.220142e+000 -7.794123e-001 1.550934e+000
         vertex 1.218504e+000 -7.596479e-001 1.550934e+000
      endloop
   endfacet
   facet normal 0.000000e+000 0.000000e+000 1.000000e+000
      outer loop
         vertex 1.225010e+000 -7.206584e-001 1.550934e+000
         vertex 1.232977e+000 -7.024968e-001 1.550934e+000
         vertex 1.023622e+000 -5.676163e-001 1.550934e+000
      endloop
   endfacet
   facet normal 0.000000e+000 0.000000e+000 1.000000e+000
      outer loop
         vertex 1.023622e+000 -5.676163e-001 1.550934e+000
         vertex 1.232977e+000 -7.024968e-001 1.550934e+000
         vertex 1.243824e+000 -6.858941e-001 1.550934e+000
      endloop
   endfacet
   facet normal 0.000000e+000 0.000000e+000 1.000000e+000
      outer loop
         vertex 1.023622e+000 -5.676163e-001 1.550934e+000
         vertex 1.243824e+000 -6.858941e-001 1.550934e+000
         vertex 1.023622e+000 -4.251969e-001 1.550934e+000
      endloop
   endfacet
   facet normal 0.000000e+000 0.000000e+000 1.000000e+000
      outer loop
         vertex 1.023622e+000 -4.251969e-001 1.550934e+000
         vertex 1.243824e+000 -6.858941e-001 1.550934e+000
         vertex 1.257256e+000 -6.713032e-001 1.550934e+000
      endloop
   endfacet
   facet normal 0.000000e+000 0.000000e+000 1.000000e+000
      outer loop
         vertex 1.023622e+000 -4.251969e-001 1.550934e+000
         vertex 1.257256e+000 -6.713032e-001 1.550934e+000
         vertex 1.272906e+000 -6.591220e-001 1.550934e+000
      endloop
   endfacet
   facet normal 9.541065e-001 -2.994676e-001 0.000000e+000
      outer loop
         vertex 1.519066e+000 -9.960630e-001 1.472193e+000
         vertex 1.653543e+000 -5.676163e-001 1.472193e+000
         vertex 1.519066e+000 -9.960630e-001 1.550934e+000
      endloop
   endfacet
   facet normal 9.541065e-001 -2.994676e-001 0.000000e+000
      outer loop
         vertex 1.519066e+000 -9.960630e-001 1.550934e+000
         vertex 1.653543e+000 -5.676163e-001 1.472193e+000
         vertex 1.653543e+000 -5.676163e-001 1.550934e+000
      endloop
   endfacet
   facet normal -9.460195e-017 -1.000000e+000 0.000000e+000
      outer loop
         vertex 1.158100e+000 -9.960630e-001 1.472193e+000
         vertex 1.519066e+000 -9.960630e-001 1.472193e+000
         vertex 1.158100e+000 -9.960630e-001 1.550934e+000
      endloop
   endfacet
   facet normal -9.460195e-017 -1.000000e+000 0.000000e+000
      outer loop
         vertex 1.158100e+000 -9.960630e-001 1.550934e+000
         vertex 1.519066e+000 -9.960630e-001 1.472193e+000
         vertex 1.519066e+000 -9.960630e-001 1.550934e+000
      endloop
   endfacet
   facet normal -9.541065e-001 -2.994676e-001 0.000000e+000
      outer loop
         vertex 1.023622e+000 -5.676163e-001 1.472193e+000
         vertex 1.158100e+000 -9.960630e-001 1.472193e+000
         vertex 1.023622e+000 -5.676163e-001 1.550934e+000
      endloop
   endfacet
   facet normal -9.541065e-001 -2.994676e-001 0.000000e+000
      outer loop
         vertex 1.023622e+000 -5.676163e-001 1.550934e+000
         vertex 1.158100e+000 -9.960630e-001 1.472193e+000
         vertex 1.158100e+000 -9.960630e-001 1.550934e+000
      endloop
   endfacet
   facet normal -1.000000e+000 0.000000e+000 0.000000e+000
      outer loop
         vertex 1.023622e+000 -4.251969e-001 1.472193e+000
         vertex 1.023622e+000 -5.676163e-001 1.472193e+000
         vertex 1.023622e+000 -4.251969e-001 1.550934e+000
      endloop
   endfacet
   facet normal -1.000000e+000 0.000000e+000 0.000000e+000
      outer loop
         vertex 1.023622e+000 -4.251969e-001 1.550934e+000
         vertex 1.023622e+000 -5.676163e-001 1.472193e+000
         vertex 1.023622e+000 -5.676163e-001 1.550934e+000
      endloop
   endfacet
   facet normal 1.084202e-016 1.000000e+000 0.000000e+000
      outer loop
         vertex 1.653543e+000 -4.251969e-001 1.472193e+000
         vertex 1.023622e+000 -4.251969e-001 1.472193e+000
         vertex 1.653543e+000 -4.251969e-001 1.550934e+000
      endloop
   endfacet
   facet normal 1.084202e-016 1.000000e+000 0.000000e+000
      outer loop
         vertex 1.653543e+000 -4.251969e-001 1.550934e+000
         vertex 1.023622e+000 -4.251969e-001 1.472193e+000
         vertex 1.023622e+000 -4.251969e-001 1.550934e+000
      endloop
   endfacet
   facet normal 1.000000e+000 0.000000e+000 0.000000e+000
      outer loop
         vertex 1.653543e+000 -5.676163e-001 1.472193e+000
         vertex 1.653543e+000 -4.251969e-001 1.472193e+000
         vertex 1.653543e+000 -5.676163e-001 1.550934e+000
      endloop
   endfacet
   facet normal 1.000000e+000 0.000000e+000 0.000000e+000
      outer loop
         vertex 1.653543e+000 -5.676163e-001 1.550934e+000
         vertex 1.653543e+000 -4.251969e-001 1.472193e+000
         vertex 1.653543e+000 -4.251969e-001 1.550934e+000
      endloop
   endfacet
   facet normal -9.984846e-001 5.503191e-002 0.000000e+000
      outer loop
         vertex 1.457024e+000 -7.794123e-001 1.472193e+000
         vertex 1.458661e+000 -7.596479e-001 1.550934e+000
         vertex 1.458661e+000 -7.596479e-001 1.472193e+000
      endloop
   endfacet
   facet normal -9.984846e-001 -5.503191e-002 0.000000e+000
      outer loop
         vertex 1.458661e+000 -7.596479e-001 1.472193e+000
         vertex 1.458661e+000 -7.596479e-001 1.550934e+000
         vertex 1.457024e+000 -7.398837e-001 1.550934e+000
      endloop
   endfacet
   facet normal -9.939246e-001 -1.100638e-001 0.000000e+000
      outer loop
         vertex 1.458661e+000 -7.596479e-001 1.472193e+000
         vertex 1.457024e+000 -7.398837e-001 1.550934e+000
         vertex 1.457024e+000 -7.398837e-001 1.472193e+000
      endloop
   endfacet
   facet normal -9.758086e-001 -2.186265e-001 0.000000e+000
      outer loop
         vertex 1.457024e+000 -7.398837e-001 1.472193e+000
         vertex 1.457024e+000 -7.398837e-001 1.550934e+000
         vertex 1.452155e+000 -7.206584e-001 1.550934e+000
      endloop
   endfacet
   facet normal -9.622528e-001 -2.721573e-001 0.000000e+000
      outer loop
         vertex 1.457024e+000 -7.398837e-001 1.472193e+000
         vertex 1.452155e+000 -7.206584e-001 1.550934e+000
         vertex 1.452155e+000 -7.206584e-001 1.472193e+000
      endloop
   endfacet
   facet normal -9.265151e-001 -3.762575e-001 0.000000e+000
      outer loop
         vertex 1.452155e+000 -7.206584e-001 1.472193e+000
         vertex 1.452155e+000 -7.206584e-001 1.550934e+000
         vertex 1.444189e+000 -7.024968e-001 1.550934e+000
      endloop
   endfacet
   facet normal -9.043333e-001 -4.268270e-001 0.000000e+000
      outer loop
         vertex 1.452155e+000 -7.206584e-001 1.472193e+000
         vertex 1.444189e+000 -7.024968e-001 1.550934e+000
         vertex 1.444189e+000 -7.024968e-001 1.472193e+000
      endloop
   endfacet
   facet normal -8.519487e-001 -5.236253e-001 0.000000e+000
      outer loop
         vertex 1.444189e+000 -7.024968e-001 1.472193e+000
         vertex 1.444189e+000 -7.024968e-001 1.550934e+000
         vertex 1.433342e+000 -6.858941e-001 1.550934e+000
      endloop
   endfacet
   facet normal -8.217459e-001 -5.698540e-001 0.000000e+000
      outer loop
         vertex 1.444189e+000 -7.024968e-001 1.472193e+000
         vertex 1.433342e+000 -6.858941e-001 1.550934e+000
         vertex 1.433342e+000 -6.858941e-001 1.472193e+000
      endloop
   endfacet
   facet normal -7.541434e-001 -6.567098e-001 0.000000e+000
      outer loop
         vertex 1.433342e+000 -6.858941e-001 1.472193e+000
         vertex 1.433342e+000 -6.858941e-001 1.550934e+000
         vertex 1.419910e+000 -6.713032e-001 1.550934e+000
      endloop
   endfacet
   facet normal -7.167435e-001 -6.973369e-001 0.000000e+000
      outer loop
         vertex 1.433342e+000 -6.858941e-001 1.472193e+000
         vertex 1.419910e+000 -6.713032e-001 1.550934e+000
         vertex 1.419910e+000 -6.713032e-001 1.472193e+000
      endloop
   endfacet
   facet normal -6.357669e-001 -7.718811e-001 0.000000e+000
      outer loop
         vertex 1.419910e+000 -6.713032e-001 1.472193e+000
         vertex 1.419910e+000 -6.713032e-001 1.550934e+000
         vertex 1.404259e+000 -6.591220e-001 1.550934e+000
      endloop
   endfacet
   facet normal -5.921901e-001 -8.057982e-001 0.000000e+000
      outer loop
         vertex 1.419910e+000 -6.713032e-001 1.472193e+000
         vertex 1.404259e+000 -6.591220e-001 1.550934e+000
         vertex 1.404259e+000 -6.591220e-001 1.472193e+000
      endloop
   endfacet
   facet normal -5.000484e-001 -8.659974e-001 0.000000e+000
      outer loop
         vertex 1.404259e+000 -6.591220e-001 1.472193e+000
         vertex 1.404259e+000 -6.591220e-001 1.550934e+000
         vertex 1.386818e+000 -6.496831e-001 1.550934e+000
      endloop
   endfacet
   facet normal -4.514834e-001 -8.922795e-001 0.000000e+000
      outer loop
         vertex 1.404259e+000 -6.591220e-001 1.472193e+000
         vertex 1.386818e+000 -6.496831e-001 1.550934e+000
         vertex 1.386818e+000 -6.496831e-001 1.472193e+000
      endloop
   endfacet
   facet normal -3.506899e-001 -9.364916e-001 0.000000e+000
      outer loop
         vertex 1.386818e+000 -6.496831e-001 1.472193e+000
         vertex 1.386818e+000 -6.496831e-001 1.550934e+000
         vertex 1.368060e+000 -6.432436e-001 1.550934e+000
      endloop
   endfacet
   facet normal -2.984614e-001 -9.544217e-001 0.000000e+000
      outer loop
         vertex 1.386818e+000 -6.496831e-001 1.472193e+000
         vertex 1.368060e+000 -6.432436e-001 1.550934e+000
         vertex 1.368060e+000 -6.432436e-001 1.472193e+000
      endloop
   endfacet
   facet normal -1.917655e-001 -9.814408e-001 0.000000e+000
      outer loop
         vertex 1.368060e+000 -6.432436e-001 1.472193e+000
         vertex 1.368060e+000 -6.432436e-001 1.550934e+000
         vertex 1.348499e+000 -6.399794e-001 1.550934e+000
      endloop
   endfacet
   facet normal -1.372982e-001 -9.905298e-001 0.000000e+000
      outer loop
         vertex 1.368060e+000 -6.432436e-001 1.472193e+000
         vertex 1.348499e+000 -6.399794e-001 1.550934e+000
         vertex 1.348499e+000 -6.399794e-001 1.472193e+000
      endloop
   endfacet
   facet normal -2.761026e-002 -9.996188e-001 0.000000e+000
      outer loop
         vertex 1.348499e+000 -6.399794e-001 1.472193e+000
         vertex 1.348499e+000 -6.399794e-001 1.550934e+000
         vertex 1.328667e+000 -6.399794e-001 1.550934e+000
      endloop
   endfacet
   facet normal 2.761026e-002 -9.996188e-001 0.000000e+000
      outer loop
         vertex 1.348499e+000 -6.399794e-001 1.472193e+000
         vertex 1.328667e+000 -6.399794e-001 1.550934e+000
         vertex 1.328667e+000 -6.399794e-001 1.472193e+000
      endloop
   endfacet
   facet normal 1.372982e-001 -9.905298e-001 0.000000e+000
      outer loop
         vertex 1.328667e+000 -6.399794e-001 1.472193e+000
         vertex 1.328667e+000 -6.399794e-001 1.550934e+000
         vertex 1.309105e+000 -6.432436e-001 1.550934e+000
      endloop
   endfacet
   facet normal 1.917655e-001 -9.814408e-001 0.000000e+000
      outer loop
         vertex 1.328667e+000 -6.399794e-001 1.472193e+000
         vertex 1.309105e+000 -6.432436e-001 1.550934e+000
         vertex 1.309105e+000 -6.432436e-001 1.472193e+000
      endloop
   endfacet
   facet normal 2.984614e-001 -9.544217e-001 0.000000e+000
      outer loop
         vertex 1.309105e+000 -6.432436e-001 1.472193e+000
         vertex 1.309105e+000 -6.432436e-001 1.550934e+000
         vertex 1.290348e+000 -6.496831e-001 1.550934e+000
      endloop
   endfacet
   facet normal 3.506899e-001 -9.364916e-001 0.000000e+000
      outer loop
         vertex 1.309105e+000 -6.432436e-001 1.472193e+000
         vertex 1.290348e+000 -6.496831e-001 1.550934e+000
         vertex 1.290348e+000 -6.496831e-001 1.472193e+000
      endloop
   endfacet
   facet normal 4.514834e-001 -8.922795e-001 0.000000e+000
      outer loop
         vertex 1.290348e+000 -6.496831e-001 1.472193e+000
         vertex 1.290348e+000 -6.496831e-001 1.550934e+000
         vertex 1.272906e+000 -6.591220e-001 1.550934e+000
      endloop
   endfacet
   facet normal 5.000484e-001 -8.659974e-001 0.000000e+000
      outer loop
         vertex 1.290348e+000 -6.496831e-001 1.472193e+000
         vertex 1.272906e+000 -6.591220e-001 1.550934e+000
         vertex 1.272906e+000 -6.591220e-001 1.472193e+000
      endloop
   endfacet
   facet normal 5.921901e-001 -8.057982e-001 0.000000e+000
      outer loop
         vertex 1.272906e+000 -6.591220e-001 1.472193e+000
         vertex 1.272906e+000 -6.591220e-001 1.550934e+000
         vertex 1.257256e+000 -6.713032e-001 1.550934e+000
      endloop
   endfacet
   facet normal 6.357669e-001 -7.718811e-001 0.000000e+000
      outer loop
         vertex 1.272906e+000 -6.591220e-001 1.472193e+000
         vertex 1.257256e+000 -6.713032e-001 1.550934e+000
         vertex 1.257256e+000 -6.713032e-001 1.472193e+000
      endloop
   endfacet
   facet normal 7.167435e-001 -6.973369e-001 0.000000e+000
      outer loop
         vertex 1.257256e+000 -6.713032e-001 1.472193e+000
         vertex 1.257256e+000 -6.713032e-001 1.550934e+000
         vertex 1.243824e+000 -6.858941e-001 1.550934e+000
      endloop
   endfacet
   facet normal 7.541434e-001 -6.567098e-001 0.000000e+000
      outer loop
         vertex 1.257256e+000 -6.713032e-001 1.472193e+000
         vertex 1.243824e+000 -6.858941e-001 1.550934e+000
         vertex 1.243824e+000 -6.858941e-001 1.472193e+000
      endloop
   endfacet
   facet normal 8.217459e-001 -5.698540e-001 0.000000e+000
      outer loop
         vertex 1.243824e+000 -6.858941e-001 1.472193e+000
         vertex 1.243824e+000 -6.858941e-001 1.550934e+000
         vertex 1.232977e+000 -7.024968e-001 1.550934e+000
      endloop
   endfacet
   facet normal 8.519487e-001 -5.236253e-001 0.000000e+000
      outer loop
         vertex 1.243824e+000 -6.858941e-001 1.472193e+000
         vertex 1.232977e+000 -7.024968e-001 1.550934e+000
         vertex 1.232977e+000 -7.024968e-001 1.472193e+000
      endloop
   endfacet
   facet normal 9.043333e-001 -4.268270e-001 0.000000e+000
      outer loop
         vertex 1.232977e+000 -7.024968e-001 1.472193e+000
         vertex 1.232977e+000 -7.024968e-001 1.550934e+000
         vertex 1.225010e+000 -7.206584e-001 1.550934e+000
      endloop
   endfacet
   facet normal 9.265151e-001 -3.762575e-001 0.000000e+000
      outer loop
         vertex 1.232977e+000 -7.024968e-001 1.472193e+000
         vertex 1.225010e+000 -7.206584e-001 1.550934e+000
         vertex 1.225010e+000 -7.206584e-001 1.472193e+000
      endloop
   endfacet
   facet normal 9.622528e-001 -2.721573e-001 0.000000e+000
      outer loop
         vertex 1.225010e+000 -7.206584e-001 1.472193e+000
         vertex 1.225010e+000 -7.206584e-001 1.550934e+000
         vertex 1.220142e+000 -7.398837e-001 1.550934e+000
      endloop
   endfacet
   facet normal 9.758086e-001 -2.186265e-001 0.000000e+000
      outer loop
         vertex 1.225010e+000 -7.206584e-001 1.472193e+000
         vertex 1.220142e+000 -7.398837e-001 1.550934e+000
         vertex 1.220142e+000 -7.398837e-001 1.472193e+000
      endloop
   endfacet
   facet normal 9.939246e-001 -1.100638e-001 0.000000e+000
      outer loop
         vertex 1.220142e+000 -7.398837e-001 1.472193e+000
         vertex 1.220142e+000 -7.398837e-001 1.550934e+000
         vertex 1.218504e+000 -7.596479e-001 1.550934e+000
      endloop
   endfacet
   facet normal 9.984846e-001 -5.503191e-002 0.000000e+000
      outer loop
         vertex 1.220142e+000 -7.398837e-001 1.472193e+000
         vertex 1.218504e+000 -7.596479e-001 1.550934e+000
         vertex 1.218504e+000 -7.596479e-001 1.472193e+000
      endloop
   endfacet
   facet normal 9.984846e-001 5.503191e-002 0.000000e+000
      outer loop
         vertex 1.218504e+000 -7.596479e-001 1.472193e+000
         vertex 1.218504e+000 -7.596479e-001 1.550934e+000
         vertex 1.220142e+000 -7.794123e-001 1.550934e+000
      endloop
   endfacet
   facet normal 9.939246e-001 1.100638e-001 0.000000e+000
      outer loop
         vertex 1.218504e+000 -7.596479e-001 1.472193e+000
         vertex 1.220142e+000 -7.794123e-001 1.550934e+000
         vertex 1.220142e+000 -7.794123e-001 1.472193e+000
      endloop
   endfacet
   facet normal 9.758086e-001 2.186265e-001 0.000000e+000
      outer loop
         vertex 1.220142e+000 -7.794123e-001 1.472193e+000
         vertex 1.220142e+000 -7.794123e-001 1.550934e+000
         vertex 1.225010e+000 -7.986375e-001 1.550934e+000
      endloop
   endfacet
   facet normal 9.622528e-001 2.721573e-001 0.000000e+000
      outer loop
         vertex 1.220142e+000 -7.794123e-001 1.472193e+000
         vertex 1.225010e+000 -7.986375e-001 1.550934e+000
         vertex 1.225010e+000 -7.986375e-001 1.472193e+000
      endloop
   endfacet
   facet normal 9.265151e-001 3.762575e-001 0.000000e+000
      outer loop
         vertex 1.225010e+000 -7.986375e-001 1.472193e+000
         vertex 1.225010e+000 -7.986375e-001 1.550934e+000
         vertex 1.232977e+000 -8.167991e-001 1.550934e+000
      endloop
   endfacet
   facet normal 9.043333e-001 4.268270e-001 0.000000e+000
      outer loop
         vertex 1.225010e+000 -7.986375e-001 1.472193e+000
         vertex 1.232977e+000 -8.167991e-001 1.550934e+000
         vertex 1.232977e+000 -8.167991e-001 1.472193e+000
      endloop
   endfacet
   facet normal 8.519487e-001 5.236253e-001 0.000000e+000
      outer loop
         vertex 1.232977e+000 -8.167991e-001 1.472193e+000
         vertex 1.232977e+000 -8.167991e-001 1.550934e+000
         vertex 1.243824e+000 -8.334019e-001 1.550934e+000
      endloop
   endfacet
   facet normal 8.217459e-001 5.698540e-001 0.000000e+000
      outer loop
         vertex 1.232977e+000 -8.167991e-001 1.472193e+000
         vertex 1.243824e+000 -8.334019e-001 1.550934e+000
         vertex 1.243824e+000 -8.334019e-001 1.472193e+000
      endloop
   endfacet
   facet normal 7.541434e-001 6.567098e-001 0.000000e+000
      outer loop
         vertex 1.243824e+000 -8.334019e-001 1.472193e+000
         vertex 1.243824e+000 -8.334019e-001 1.550934e+000
         vertex 1.257256e+000 -8.479928e-001 1.550934e+000
      endloop
   endfacet
   facet normal 7.167435e-001 6.973369e-001 0.000000e+000
      outer loop
         vertex 1.243824e+000 -8.334019e-001 1.472193e+000
         vertex 1.257256e+000 -8.479928e-001 1.550934e+000
         vertex 1.257256e+000 -8.479928e-001 1.472193e+000
      endloop
   endfacet
   facet normal 6.357669e-001 7.718811e-001 0.000000e+000
      outer loop
         vertex 1.257256e+000 -8.479928e-001 1.472193e+000
         vertex 1.257256e+000 -8.479928e-001 1.550934e+000
         vertex 1.272906e+000 -8.601739e-001 1.550934e+000
      endloop
   endfacet
   facet normal 5.921901e-001 8.057982e-001 0.000000e+000
      outer loop
         vertex 1.257256e+000 -8.479928e-001 1.472193e+000
         vertex 1.272906e+000 -8.601739e-001 1.550934e+000
         vertex 1.272906e+000 -8.601739e-001 1.472193e+000
      endloop
   endfacet
   facet normal 5.000484e-001 8.659974e-001 0.000000e+000
      outer loop
         vertex 1.272906e+000 -8.601739e-001 1.472193e+000
         vertex 1.272906e+000 -8.601739e-001 1.550934e+000
         vertex 1.290348e+000 -8.696129e-001 1.550934e+000
      endloop
   endfacet
   facet normal 4.514834e-001 8.922795e-001 0.000000e+000
      outer loop
         vertex 1.272906e+000 -8.601739e-001 1.472193e+000
         vertex 1.290348e+000 -8.696129e-001 1.550934e+000
         vertex 1.290348e+000 -8.696129e-001 1.472193e+000
      endloop
   endfacet
   facet normal 3.506899e-001 9.364916e-001 0.000000e+000
      outer loop
         vertex 1.290348e+000 -8.696129e-001 1.472193e+000
         vertex 1.290348e+000 -8.696129e-001 1.550934e+000
         vertex 1.309105e+000 -8.760523e-001 1.550934e+000
      endloop
   endfacet
   facet normal 2.984614e-001 9.544217e-001 0.000000e+000
      outer loop
         vertex 1.290348e+000 -8.696129e-001 1.472193e+000
         vertex 1.309105e+000 -8.760523e-001 1.550934e+000
         vertex 1.309105e+000 -8.760523e-001 1.472193e+000
      endloop
   endfacet
   facet normal 1.917655e-001 9.814408e-001 0.000000e+000
      outer loop
         vertex 1.309105e+000 -8.760523e-001 1.472193e+000
         vertex 1.309105e+000 -8.760523e-001 1.550934e+000
         vertex 1.328667e+000 -8.793166e-001 1.550934e+000
      endloop
   endfacet
   facet normal 1.372982e-001 9.905298e-001 0.000000e+000
      outer loop
         vertex 1.309105e+000 -8.760523e-001 1.472193e+000
         vertex 1.328667e+000 -8.793166e-001 1.550934e+000
         vertex 1.328667e+000 -8.793166e-001 1.472193e+000
      endloop
   endfacet
   facet normal 2.761026e-002 9.996188e-001 0.000000e+000
      outer loop
         vertex 1.328667e+000 -8.793166e-001 1.472193e+000
         vertex 1.328667e+000 -8.793166e-001 1.550934e+000
         vertex 1.348499e+000 -8.793166e-001 1.550934e+000
      endloop
   endfacet
   facet normal -2.761026e-002 9.996188e-001 0.000000e+000
      outer loop
         vertex 1.328667e+000 -8.793166e-001 1.472193e+000
         vertex 1.348499e+000 -8.793166e-001 1.550934e+000
         vertex 1.348499e+000 -8.793166e-001 1.472193e+000
      endloop
   endfacet
   facet normal -1.372982e-001 9.905298e-001 0.000000e+000
      outer loop
         vertex 1.348499e+000 -8.793166e-001 1.472193e+000
         vertex 1.348499e+000 -8.793166e-001 1.550934e+000
         vertex 1.368060e+000 -8.760523e-001 1.550934e+000
      endloop
   endfacet
   facet normal -1.917655e-001 9.814408e-001 0.000000e+000
      outer loop
         vertex 1.348499e+000 -8.793166e-001 1.472193e+000
         vertex 1.368060e+000 -8.760523e-001 1.550934e+000
         vertex 1.368060e+000 -8.760523e-001 1.472193e+000
      endloop
   endfacet
   facet normal -2.984614e-001 9.544217e-001 0.000000e+000
      outer loop
         vertex 1.368060e+000 -8.760523e-001 1.472193e+000
         vertex 1.368060e+000 -8.760523e-001 1.550934e+000
         vertex 1.386818e+000 -8.696129e-001 1.550934e+000
      endloop
   endfacet
   facet normal -3.506899e-001 9.364916e-001 0.000000e+000
      outer loop
         vertex 1.368060e+000 -8.760523e-001 1.472193e+000
         vertex 1.386818e+000 -8.696129e-001 1.550934e+000
         vertex 1.386818e+000 -8.696129e-001 1.472193e+000
      endloop
   endfacet
   facet normal -4.514834e-001 8.922795e-001 0.000000e+000
      outer loop
         vertex 1.386818e+000 -8.696129e-001 1.472193e+000
         vertex 1.386818e+000 -8.696129e-001 1.550934e+000
         vertex 1.404259e+000 -8.601739e-001 1.550934e+000
      endloop
   endfacet
   facet normal -5.000484e-001 8.659974e-001 0.000000e+000
      outer loop
         vertex 1.386818e+000 -8.696129e-001 1.472193e+000
         vertex 1.404259e+000 -8.601739e-001 1.550934e+000
         vertex 1.404259e+000 -8.601739e-001 1.472193e+000
      endloop
   endfacet
   facet normal -5.921901e-001 8.057982e-001 0.000000e+000
      outer loop
         vertex 1.404259e+000 -8.601739e-001 1.472193e+000
         vertex 1.404259e+000 -8.601739e-001 1.550934e+000
         vertex 1.419910e+000 -8.479928e-001 1.550934e+000
      endloop
   endfacet
   facet normal -6.357669e-001 7.718811e-001 0.000000e+000
      outer loop
         vertex 1.404259e+000 -8.601739e-001 1.472193e+000
         vertex 1.419910e+000 -8.479928e-001 1.550934e+000
         vertex 1.419910e+000 -8.479928e-001 1.472193e+000
      endloop
   endfacet
   facet normal -7.167435e-001 6.973369e-001 0.000000e+000
      outer loop
         vertex 1.419910e+000 -8.479928e-001 1.472193e+000
         vertex 1.419910e+000 -8.479928e-001 1.550934e+000
         vertex 1.433342e+000 -8.334019e-001 1.550934e+000
      endloop
   endfacet
   facet normal -7.541434e-001 6.567098e-001 0.000000e+000
      outer loop
         vertex 1.419910e+000 -8.479928e-001 1.472193e+000
         vertex 1.433342e+000 -8.334019e-001 1.550934e+000
         vertex 1.433342e+000 -8.334019e-001 1.472193e+000
      endloop
   endfacet
   facet normal -8.217459e-001 5.698540e-001 0.000000e+000
      outer loop
         vertex 1.433342e+000 -8.334019e-001 1.472193e+000
         vertex 1.433342e+000 -8.334019e-001 1.550934e+000
         vertex 1.444189e+000 -8.167991e-001 1.550934e+000
      endloop
   endfacet
   facet normal -8.519487e-001 5.236253e-001 0.000000e+000
      outer loop
         vertex 1.433342e+000 -8.334019e-001 1.472193e+000
         vertex 1.444189e+000 -8.167991e-001 1.550934e+000
         vertex 1.444189e+000 -8.167991e-001 1.472193e+000
      endloop
   endfacet
   facet normal -9.043333e-001 4.268270e-001 0.000000e+000
      outer loop
         vertex 1.444189e+000 -8.167991e-001 1.472193e+000
         vertex 1.444189e+000 -8.167991e-001 1.550934e+000
         vertex 1.452155e+000 -7.986375e-001 1.550934e+000
      endloop
   endfacet
   facet normal -9.265151e-001 3.762575e-001 0.000000e+000
      outer loop
         vertex 1.444189e+000 -8.167991e-001 1.472193e+000
         vertex 1.452155e+000 -7.986375e-001 1.550934e+000
         vertex 1.452155e+000 -7.986375e-001 1.472193e+000
      endloop
   endfacet
   facet normal -9.622528e-001 2.721573e-001 0.000000e+000
      outer loop
         vertex 1.452155e+000 -7.986375e-001 1.472193e+000
         vertex 1.452155e+000 -7.986375e-001 1.550934e+000
         vertex 1.457024e+000 -7.794123e-001 1.550934e+000
      endloop
   endfacet
   facet normal -9.758086e-001 2.186265e-001 0.000000e+000
      outer loop
         vertex 1.452155e+000 -7.986375e-001 1.472193e+000
         vertex 1.457024e+000 -7.794123e-001 1.550934e+000
         vertex 1.457024e+000 -7.794123e-001 1.472193e+000
      endloop
   endfacet
   facet normal -9.939246e-001 1.100638e-001 0.000000e+000
      outer loop
         vertex 1.457024e+000 -7.794123e-001 1.472193e+000
         vertex 1.457024e+000 -7.794123e-001 1.550934e+000
         vertex 1.458661e+000 -7.596479e-001 1.550934e+000
      endloop
   endfacet
endsolid