solid hxt900-1-solid1_Default_sldprt
   facet normal -9.998644e-001 -1.646952e-002 -1.191577e-015
      outer loop
         vertex 2.373755e+000 -1.333017e+000 4.727131e+000
         vertex 2.373841e+000 -1.338269e+000 4.706955e+000
         vertex 2.375736e+000 -1.453320e+000 4.865709e+000
      endloop
   endfacet
   facet normal -9.998644e-001 -1.646952e-002 -1.191577e-015
      outer loop
         vertex 2.373183e+000 -1.298332e+000 4.778455e+000
         vertex 2.375736e+000 -1.453320e+000 4.865709e+000
         vertex 2.372907e+000 -1.281572e+000 4.790853e+000
      endloop
   endfacet
   facet normal -9.998644e-001 -1.646952e-002 -1.191577e-015
      outer loop
         vertex 2.372907e+000 -1.281572e+000 4.790853e+000
         vertex 2.375736e+000 -1.453320e+000 4.865709e+000
         vertex 2.372601e+000 -1.262958e+000 4.800240e+000
      endloop
   endfacet
   facet normal -9.998644e-001 -1.646952e-002 -1.191577e-015
      outer loop
         vertex 2.373183e+000 -1.298332e+000 4.778455e+000
         vertex 2.373421e+000 -1.312757e+000 4.763403e+000
         vertex 2.375736e+000 -1.453320e+000 4.865709e+000
      endloop
   endfacet
   facet normal -9.998644e-001 -1.646952e-002 -1.191577e-015
      outer loop
         vertex 2.375736e+000 -1.453320e+000 4.865709e+000
         vertex 2.373421e+000 -1.312757e+000 4.763403e+000
         vertex 2.373613e+000 -1.324430e+000 4.746130e+000
      endloop
   endfacet
   facet normal -9.998644e-001 -1.646952e-002 -1.191577e-015
      outer loop
         vertex 2.375736e+000 -1.453320e+000 4.865709e+000
         vertex 2.373613e+000 -1.324430e+000 4.746130e+000
         vertex 2.373755e+000 -1.333017e+000 4.727131e+000
      endloop
   endfacet
   facet normal -9.998644e-001 -1.646952e-002 -1.191577e-015
      outer loop
         vertex 2.371253e+000 -1.181142e+000 4.803716e+000
         vertex 2.367955e+000 -9.809432e-001 4.865709e+000
         vertex 2.370934e+000 -1.161799e+000 4.795942e+000
      endloop
   endfacet
   facet normal -9.998644e-001 -1.646952e-002 -1.191577e-015
      outer loop
         vertex 2.370934e+000 -1.161799e+000 4.795942e+000
         vertex 2.367955e+000 -9.809432e-001 4.865709e+000
         vertex 2.370642e+000 -1.144048e+000 4.785010e+000
      endloop
   endfacet
   facet normal -9.998644e-001 -1.646952e-002 -1.191577e-015
      outer loop
         vertex 2.369821e+000 -1.094226e+000 4.686181e+000
         vertex 2.369828e+000 -1.094669e+000 4.696606e+000
         vertex 2.367955e+000 -9.809432e-001 4.865709e+000
      endloop
   endfacet
   facet normal -9.998644e-001 -1.646952e-002 -1.191577e-015
      outer loop
         vertex 2.367955e+000 -9.809432e-001 4.865709e+000
         vertex 2.369828e+000 -1.094669e+000 4.696606e+000
         vertex 2.369887e+000 -1.098192e+000 4.717155e+000
      endloop
   endfacet
   facet normal -9.998644e-001 -1.646952e-002 -1.191577e-015
      outer loop
         vertex 2.367955e+000 -9.809432e-001 4.865709e+000
         vertex 2.369887e+000 -1.098192e+000 4.717155e+000
         vertex 2.370001e+000 -1.105136e+000 4.736813e+000
      endloop
   endfacet
   facet normal -9.998644e-001 -1.646952e-002 -1.191577e-015
      outer loop
         vertex 2.371253e+000 -1.181142e+000 4.803716e+000
         vertex 2.371588e+000 -1.201520e+000 4.808108e+000
         vertex 2.367955e+000 -9.809432e-001 4.865709e+000
      endloop
   endfacet
   facet normal -9.998644e-001 -1.646952e-002 -1.191577e-015
      outer loop
         vertex 2.367955e+000 -9.809432e-001 4.865709e+000
         vertex 2.371588e+000 -1.201520e+000 4.808108e+000
         vertex 2.371932e+000 -1.222348e+000 4.808993e+000
      endloop
   endfacet
   facet normal -9.998644e-001 -1.646952e-002 -1.191577e-015
      outer loop
         vertex 2.367955e+000 -9.809432e-001 4.865709e+000
         vertex 2.371932e+000 -1.222348e+000 4.808993e+000
         vertex 2.375736e+000 -1.453320e+000 4.865709e+000
      endloop
   endfacet
   facet normal -9.998644e-001 -1.646952e-002 -1.191577e-015
      outer loop
         vertex 2.375736e+000 -1.453320e+000 4.865709e+000
         vertex 2.371932e+000 -1.222348e+000 4.808993e+000
         vertex 2.372272e+000 -1.243025e+000 4.806345e+000
      endloop
   endfacet
   facet normal -9.998644e-001 -1.646952e-002 -1.191577e-015
      outer loop
         vertex 2.375736e+000 -1.453320e+000 4.865709e+000
         vertex 2.372272e+000 -1.243025e+000 4.806345e+000
         vertex 2.372601e+000 -1.262958e+000 4.800240e+000
      endloop
   endfacet
   facet normal -9.998644e-001 -1.646952e-002 -1.191577e-015
      outer loop
         vertex 2.373841e+000 -1.338269e+000 4.706955e+000
         vertex 2.373870e+000 -1.340037e+000 4.686181e+000
         vertex 2.375736e+000 -1.453320e+000 4.865709e+000
      endloop
   endfacet
   facet normal -9.998644e-001 -1.646952e-002 -1.191577e-015
      outer loop
         vertex 2.375736e+000 -1.453320e+000 4.865709e+000
         vertex 2.373870e+000 -1.340037e+000 4.686181e+000
         vertex 2.373841e+000 -1.338269e+000 4.665407e+000
      endloop
   endfacet
   facet normal -9.998644e-001 -1.646952e-002 -1.191577e-015
      outer loop
         vertex 2.375736e+000 -1.453320e+000 4.865709e+000
         vertex 2.373841e+000 -1.338269e+000 4.665407e+000
         vertex 2.375736e+000 -1.453320e+000 3.960197e+000
      endloop
   endfacet
   facet normal -9.998644e-001 -1.646952e-002 -1.191577e-015
      outer loop
         vertex 2.373841e+000 -1.338269e+000 4.665407e+000
         vertex 2.373755e+000 -1.333017e+000 4.645231e+000
         vertex 2.375736e+000 -1.453320e+000 3.960197e+000
      endloop
   endfacet
   facet normal -9.998644e-001 -1.646952e-002 -1.191577e-015
      outer loop
         vertex 2.375736e+000 -1.453320e+000 3.960197e+000
         vertex 2.373755e+000 -1.333017e+000 4.645231e+000
         vertex 2.373613e+000 -1.324430e+000 4.626233e+000
      endloop
   endfacet
   facet normal -9.998644e-001 -1.646952e-002 -1.191577e-015
      outer loop
         vertex 2.375736e+000 -1.453320e+000 3.960197e+000
         vertex 2.373613e+000 -1.324430e+000 4.626233e+000
         vertex 2.373421e+000 -1.312757e+000 4.608959e+000
      endloop
   endfacet
   facet normal -9.998644e-001 -1.646952e-002 -1.191577e-015
      outer loop
         vertex 2.373421e+000 -1.312757e+000 4.608959e+000
         vertex 2.373183e+000 -1.298332e+000 4.593906e+000
         vertex 2.375736e+000 -1.453320e+000 3.960197e+000
      endloop
   endfacet
   facet normal -9.998644e-001 -1.646952e-002 -1.191577e-015
      outer loop
         vertex 2.375736e+000 -1.453320e+000 3.960197e+000
         vertex 2.373183e+000 -1.298332e+000 4.593906e+000
         vertex 2.372907e+000 -1.281572e+000 4.581509e+000
      endloop
   endfacet
   facet normal -9.998644e-001 -1.646952e-002 -1.191577e-015
      outer loop
         vertex 2.375736e+000 -1.453320e+000 3.960197e+000
         vertex 2.372907e+000 -1.281572e+000 4.581509e+000
         vertex 2.372601e+000 -1.262958e+000 4.572123e+000
      endloop
   endfacet
   facet normal -9.998644e-001 -1.646952e-002 -1.191577e-015
      outer loop
         vertex 2.370001e+000 -1.105136e+000 4.736813e+000
         vertex 2.370168e+000 -1.115303e+000 4.755014e+000
         vertex 2.367955e+000 -9.809432e-001 4.865709e+000
      endloop
   endfacet
   facet normal -9.998644e-001 -1.646952e-002 -1.191577e-015
      outer loop
         vertex 2.367955e+000 -9.809432e-001 4.865709e+000
         vertex 2.370168e+000 -1.115303e+000 4.755014e+000
         vertex 2.370384e+000 -1.128399e+000 4.771236e+000
      endloop
   endfacet
   facet normal -9.998644e-001 -1.646952e-002 -1.191577e-015
      outer loop
         vertex 2.367955e+000 -9.809432e-001 4.865709e+000
         vertex 2.370384e+000 -1.128399e+000 4.771236e+000
         vertex 2.370642e+000 -1.144048e+000 4.785010e+000
      endloop
   endfacet
   facet normal -9.998644e-001 -1.646952e-002 -1.191577e-015
      outer loop
         vertex 2.367955e+000 -9.809432e-001 3.960197e+000
         vertex 2.370384e+000 -1.128399e+000 4.601126e+000
         vertex 2.370168e+000 -1.115303e+000 4.617348e+000
      endloop
   endfacet
   facet normal -9.998644e-001 -1.646952e-002 -1.191577e-015
      outer loop
         vertex 2.372601e+000 -1.262958e+000 4.572123e+000
         vertex 2.372272e+000 -1.243025e+000 4.566018e+000
         vertex 2.375736e+000 -1.453320e+000 3.960197e+000
      endloop
   endfacet
   facet normal -9.998644e-001 -1.646952e-002 -1.191577e-015
      outer loop
         vertex 2.375736e+000 -1.453320e+000 3.960197e+000
         vertex 2.372272e+000 -1.243025e+000 4.566018e+000
         vertex 2.371932e+000 -1.222348e+000 4.563369e+000
      endloop
   endfacet
   facet normal -9.998644e-001 -1.646952e-002 -1.191577e-015
      outer loop
         vertex 2.375736e+000 -1.453320e+000 3.960197e+000
         vertex 2.371932e+000 -1.222348e+000 4.563369e+000
         vertex 2.367955e+000 -9.809432e-001 3.960197e+000
      endloop
   endfacet
   facet normal -9.998644e-001 -1.646952e-002 -1.191577e-015
      outer loop
         vertex 2.367955e+000 -9.809432e-001 3.960197e+000
         vertex 2.371932e+000 -1.222348e+000 4.563369e+000
         vertex 2.371588e+000 -1.201520e+000 4.564254e+000
      endloop
   endfacet
   facet normal -9.998644e-001 -1.646952e-002 -1.191577e-015
      outer loop
         vertex 2.367955e+000 -9.809432e-001 3.960197e+000
         vertex 2.371588e+000 -1.201520e+000 4.564254e+000
         vertex 2.371253e+000 -1.181142e+000 4.568647e+000
      endloop
   endfacet
   facet normal -9.998644e-001 -1.646952e-002 -1.191577e-015
      outer loop
         vertex 2.371253e+000 -1.181142e+000 4.568647e+000
         vertex 2.370934e+000 -1.161799e+000 4.576421e+000
         vertex 2.367955e+000 -9.809432e-001 3.960197e+000
      endloop
   endfacet
   facet normal -9.998644e-001 -1.646952e-002 -1.191577e-015
      outer loop
         vertex 2.367955e+000 -9.809432e-001 3.960197e+000
         vertex 2.370934e+000 -1.161799e+000 4.576421e+000
         vertex 2.370642e+000 -1.144048e+000 4.587352e+000
      endloop
   endfacet
   facet normal -9.998644e-001 -1.646952e-002 -1.191577e-015
      outer loop
         vertex 2.367955e+000 -9.809432e-001 3.960197e+000
         vertex 2.370642e+000 -1.144048e+000 4.587352e+000
         vertex 2.370384e+000 -1.128399e+000 4.601126e+000
      endloop
   endfacet
   facet normal -9.998644e-001 -1.646952e-002 -1.191577e-015
      outer loop
         vertex 2.370168e+000 -1.115303e+000 4.617348e+000
         vertex 2.370001e+000 -1.105136e+000 4.635549e+000
         vertex 2.367955e+000 -9.809432e-001 3.960197e+000
      endloop
   endfacet
   facet normal -9.998644e-001 -1.646952e-002 -1.191577e-015
      outer loop
         vertex 2.367955e+000 -9.809432e-001 3.960197e+000
         vertex 2.370001e+000 -1.105136e+000 4.635549e+000
         vertex 2.369887e+000 -1.098192e+000 4.655207e+000
      endloop
   endfacet
   facet normal -9.998644e-001 -1.646952e-002 -1.191577e-015
      outer loop
         vertex 2.367955e+000 -9.809432e-001 3.960197e+000
         vertex 2.369887e+000 -1.098192e+000 4.655207e+000
         vertex 2.367955e+000 -9.809432e-001 4.865709e+000
      endloop
   endfacet
   facet normal -9.998644e-001 -1.646952e-002 -1.191577e-015
      outer loop
         vertex 2.367955e+000 -9.809432e-001 4.865709e+000
         vertex 2.369887e+000 -1.098192e+000 4.655207e+000
         vertex 2.369828e+000 -1.094669e+000 4.675756e+000
      endloop
   endfacet
   facet normal -9.998644e-001 -1.646952e-002 -1.191577e-015
      outer loop
         vertex 2.367955e+000 -9.809432e-001 4.865709e+000
         vertex 2.369828e+000 -1.094669e+000 4.675756e+000
         vertex 2.369821e+000 -1.094226e+000 4.686181e+000
      endloop
   endfacet
   facet normal 1.646952e-002 -9.998644e-001 2.420725e-016
      outer loop
         vertex 2.375736e+000 -1.453320e+000 4.865709e+000
         vertex 2.375736e+000 -1.453320e+000 3.960197e+000
         vertex 3.241760e+000 -1.439055e+000 4.865709e+000
      endloop
   endfacet
   facet normal 1.646952e-002 -9.998644e-001 2.420725e-016
      outer loop
         vertex 3.241760e+000 -1.439055e+000 4.865709e+000
         vertex 2.375736e+000 -1.453320e+000 3.960197e+000
         vertex 3.241760e+000 -1.439055e+000 3.960197e+000
      endloop
   endfacet
   facet normal -1.193385e-015 9.996691e-017 1.000000e+000
      outer loop
         vertex 2.367955e+000 -9.809432e-001 4.865709e+000
         vertex 2.375736e+000 -1.453320e+000 4.865709e+000
         vertex 3.233979e+000 -9.666783e-001 4.865709e+000
      endloop
   endfacet
   facet normal -1.193385e-015 9.996691e-017 1.000000e+000
      outer loop
         vertex 3.233979e+000 -9.666783e-001 4.865709e+000
         vertex 2.375736e+000 -1.453320e+000 4.865709e+000
         vertex 3.241760e+000 -1.439055e+000 4.865709e+000
      endloop
   endfacet
   facet normal -1.646952e-002 9.998644e-001 -2.704534e-016
      outer loop
         vertex 2.367955e+000 -9.809432e-001 3.960197e+000
         vertex 2.367955e+000 -9.809432e-001 4.865709e+000
         vertex 3.233979e+000 -9.666783e-001 3.960197e+000
      endloop
   endfacet
   facet normal -1.646952e-002 9.998644e-001 -2.704534e-016
      outer loop
         vertex 3.233979e+000 -9.666783e-001 3.960197e+000
         vertex 2.367955e+000 -9.809432e-001 4.865709e+000
         vertex 3.233979e+000 -9.666783e-001 4.865709e+000
      endloop
   endfacet
   facet normal 1.193385e-015 -9.996691e-017 -1.000000e+000
      outer loop
         vertex 2.375736e+000 -1.453320e+000 3.960197e+000
         vertex 2.367955e+000 -9.809432e-001 3.960197e+000
         vertex 3.241760e+000 -1.439055e+000 3.960197e+000
      endloop
   endfacet
   facet normal 1.193385e-015 -9.996691e-017 -1.000000e+000
      outer loop
         vertex 3.241760e+000 -1.439055e+000 3.960197e+000
         vertex 2.367955e+000 -9.809432e-001 3.960197e+000
         vertex 3.233979e+000 -9.666783e-001 3.960197e+000
      endloop
   endfacet
   facet normal 9.998644e-001 1.646952e-002 1.191577e-015
      outer loop
         vertex 3.233979e+000 -9.666783e-001 3.960197e+000
         vertex 3.233979e+000 -9.666783e-001 4.865709e+000
         vertex 3.241760e+000 -1.439055e+000 3.960197e+000
      endloop
   endfacet
   facet normal 9.998644e-001 1.646952e-002 1.191577e-015
      outer loop
         vertex 3.241760e+000 -1.439055e+000 3.960197e+000
         vertex 3.233979e+000 -9.666783e-001 4.865709e+000
         vertex 3.241760e+000 -1.439055e+000 4.865709e+000
      endloop
   endfacet
   facet normal -1.646293e-002 9.994642e-001 2.829130e-002
      outer loop
         vertex 2.369828e+000 -1.094669e+000 4.696606e+000
         vertex 2.369821e+000 -1.094226e+000 4.686181e+000
         vertex 2.251727e+000 -1.096171e+000 4.686181e+000
      endloop
   endfacet
   facet normal -1.646293e-002 9.994642e-001 -2.829130e-002
      outer loop
         vertex 2.251727e+000 -1.096171e+000 4.686181e+000
         vertex 2.369821e+000 -1.094226e+000 4.686181e+000
         vertex 2.251734e+000 -1.096614e+000 4.675756e+000
      endloop
   endfacet
   facet normal -1.644313e-002 9.982625e-001 -5.658260e-002
      outer loop
         vertex 2.369821e+000 -1.094226e+000 4.686181e+000
         vertex 2.369828e+000 -1.094669e+000 4.675756e+000
         vertex 2.251734e+000 -1.096614e+000 4.675756e+000
      endloop
   endfacet
   facet normal -1.630502e-002 9.898779e-001 -1.409813e-001
      outer loop
         vertex 2.251734e+000 -1.096614e+000 4.675756e+000
         vertex 2.369828e+000 -1.094669e+000 4.675756e+000
         vertex 2.369887e+000 -1.098192e+000 4.655207e+000
      endloop
   endfacet
   facet normal -1.614716e-002 9.802938e-001 -1.968843e-001
      outer loop
         vertex 2.251734e+000 -1.096614e+000 4.675756e+000
         vertex 2.369887e+000 -1.098192e+000 4.655207e+000
         vertex 2.251792e+000 -1.100137e+000 4.655207e+000
      endloop
   endfacet
   facet normal -1.567809e-002 9.518167e-001 -3.062663e-001
      outer loop
         vertex 2.251792e+000 -1.100137e+000 4.655207e+000
         vertex 2.369887e+000 -1.098192e+000 4.655207e+000
         vertex 2.370001e+000 -1.105136e+000 4.635549e+000
      endloop
   endfacet
   facet normal -1.536690e-002 9.329240e-001 -3.597453e-001
      outer loop
         vertex 2.251792e+000 -1.100137e+000 4.655207e+000
         vertex 2.370001e+000 -1.105136e+000 4.635549e+000
         vertex 2.251907e+000 -1.107082e+000 4.635549e+000
      endloop
   endfacet
   facet normal -1.460013e-002 8.863735e-001 -4.627406e-001
      outer loop
         vertex 2.251907e+000 -1.107082e+000 4.635549e+000
         vertex 2.370001e+000 -1.105136e+000 4.635549e+000
         vertex 2.370168e+000 -1.115303e+000 4.617348e+000
      endloop
   endfacet
   facet normal -1.414455e-002 8.587157e-001 -5.122570e-001
      outer loop
         vertex 2.251907e+000 -1.107082e+000 4.635549e+000
         vertex 2.370168e+000 -1.115303e+000 4.617348e+000
         vertex 2.252074e+000 -1.117248e+000 4.617348e+000
      endloop
   endfacet
   facet normal -1.310214e-002 7.954309e-001 -6.059027e-001
      outer loop
         vertex 2.252074e+000 -1.117248e+000 4.617348e+000
         vertex 2.370168e+000 -1.115303e+000 4.617348e+000
         vertex 2.370384e+000 -1.128399e+000 4.601126e+000
      endloop
   endfacet
   facet normal -1.251530e-002 7.598038e-001 -6.500319e-001
      outer loop
         vertex 2.252074e+000 -1.117248e+000 4.617348e+000
         vertex 2.370384e+000 -1.128399e+000 4.601126e+000
         vertex 2.252290e+000 -1.130344e+000 4.601126e+000
      endloop
   endfacet
   facet normal -1.122723e-002 6.816052e-001 -7.316340e-001
      outer loop
         vertex 2.252290e+000 -1.130344e+000 4.601126e+000
         vertex 2.370384e+000 -1.128399e+000 4.601126e+000
         vertex 2.370642e+000 -1.144048e+000 4.587352e+000
      endloop
   endfacet
   facet normal -1.052601e-002 6.390336e-001 -7.691067e-001
      outer loop
         vertex 2.252290e+000 -1.130344e+000 4.601126e+000
         vertex 2.370642e+000 -1.144048e+000 4.587352e+000
         vertex 2.252548e+000 -1.145993e+000 4.587352e+000
      endloop
   endfacet
   facet normal -9.029336e-003 5.481709e-001 -8.363176e-001
      outer loop
         vertex 2.252548e+000 -1.145993e+000 4.587352e+000
         vertex 2.370642e+000 -1.144048e+000 4.587352e+000
         vertex 2.370934e+000 -1.161799e+000 4.576421e+000
      endloop
   endfacet
   facet normal -8.233896e-003 4.998797e-001 -8.660557e-001
      outer loop
         vertex 2.252548e+000 -1.145993e+000 4.587352e+000
         vertex 2.370934e+000 -1.161799e+000 4.576421e+000
         vertex 2.252840e+000 -1.163744e+000 4.576421e+000
      endloop
   endfacet
   facet normal -6.571683e-003 3.989668e-001 -9.169419e-001
      outer loop
         vertex 2.252840e+000 -1.163744e+000 4.576421e+000
         vertex 2.370934e+000 -1.161799e+000 4.576421e+000
         vertex 2.371253e+000 -1.181142e+000 4.568647e+000
      endloop
   endfacet
   facet normal -5.704912e-003 3.463451e-001 -9.380898e-001
      outer loop
         vertex 2.252840e+000 -1.163744e+000 4.576421e+000
         vertex 2.371253e+000 -1.181142e+000 4.568647e+000
         vertex 2.253159e+000 -1.183087e+000 4.568647e+000
      endloop
   endfacet
   facet normal -3.924974e-003 2.382851e-001 -9.711873e-001
      outer loop
         vertex 2.253159e+000 -1.183087e+000 4.568647e+000
         vertex 2.371253e+000 -1.181142e+000 4.568647e+000
         vertex 2.371588e+000 -1.201520e+000 4.564254e+000
      endloop
   endfacet
   facet normal -3.011807e-003 1.828468e-001 -9.831368e-001
      outer loop
         vertex 2.253159e+000 -1.183087e+000 4.568647e+000
         vertex 2.371588e+000 -1.201520e+000 4.564254e+000
         vertex 2.253494e+000 -1.203466e+000 4.564254e+000
      endloop
   endfacet
   facet normal -1.165350e-003 7.074841e-002 -9.974935e-001
      outer loop
         vertex 2.253494e+000 -1.203466e+000 4.564254e+000
         vertex 2.371588e+000 -1.201520e+000 4.564254e+000
         vertex 2.371932e+000 -1.222348e+000 4.563369e+000
      endloop
   endfacet
   facet normal -2.320596e-004 1.408833e-002 -9.999007e-001
      outer loop
         vertex 2.253494e+000 -1.203466e+000 4.564254e+000
         vertex 2.371932e+000 -1.222348e+000 4.563369e+000
         vertex 2.253837e+000 -1.224293e+000 4.563369e+000
      endloop
   endfacet
   facet normal 1.627798e-003 -9.882359e-002 -9.951036e-001
      outer loop
         vertex 2.253837e+000 -1.224293e+000 4.563369e+000
         vertex 2.371932e+000 -1.222348e+000 4.563369e+000
         vertex 2.372272e+000 -1.243025e+000 4.566018e+000
      endloop
   endfacet
   facet normal 2.554365e-003 -1.550754e-001 -9.878993e-001
      outer loop
         vertex 2.253837e+000 -1.224293e+000 4.563369e+000
         vertex 2.372272e+000 -1.243025e+000 4.566018e+000
         vertex 2.254178e+000 -1.244971e+000 4.566018e+000
      endloop
   endfacet
   facet normal 4.374118e-003 -2.655526e-001 -9.640864e-001
      outer loop
         vertex 2.254178e+000 -1.244971e+000 4.566018e+000
         vertex 2.372272e+000 -1.243025e+000 4.566018e+000
         vertex 2.372601e+000 -1.262958e+000 4.572123e+000
      endloop
   endfacet
   facet normal 5.267304e-003 -3.197780e-001 -9.474779e-001
      outer loop
         vertex 2.254178e+000 -1.244971e+000 4.566018e+000
         vertex 2.372601e+000 -1.262958e+000 4.572123e+000
         vertex 2.254506e+000 -1.264903e+000 4.572123e+000
      endloop
   endfacet
   facet normal 6.994601e-003 -4.246421e-001 -9.053342e-001
      outer loop
         vertex 2.254506e+000 -1.264903e+000 4.572123e+000
         vertex 2.372601e+000 -1.262958e+000 4.572123e+000
         vertex 2.372907e+000 -1.281572e+000 4.581509e+000
      endloop
   endfacet
   facet normal 7.828712e-003 -4.752811e-001 -8.797992e-001
      outer loop
         vertex 2.254506e+000 -1.264903e+000 4.572123e+000
         vertex 2.372907e+000 -1.281572e+000 4.581509e+000
         vertex 2.254813e+000 -1.283517e+000 4.581509e+000
      endloop
   endfacet
   facet normal 9.413864e-003 -5.715155e-001 -8.205372e-001
      outer loop
         vertex 2.254813e+000 -1.283517e+000 4.581509e+000
         vertex 2.372907e+000 -1.281572e+000 4.581509e+000
         vertex 2.373183e+000 -1.298332e+000 4.593906e+000
      endloop
   endfacet
   facet normal 1.016490e-002 -6.171112e-001 -7.868103e-001
      outer loop
         vertex 2.254813e+000 -1.283517e+000 4.581509e+000
         vertex 2.373183e+000 -1.298332e+000 4.593906e+000
         vertex 2.255089e+000 -1.300278e+000 4.593906e+000
      endloop
   endfacet
   facet normal 1.156231e-002 -7.019475e-001 -7.121348e-001
      outer loop
         vertex 2.255089e+000 -1.300278e+000 4.593906e+000
         vertex 2.373183e+000 -1.298332e+000 4.593906e+000
         vertex 2.373421e+000 -1.312757e+000 4.608959e+000
      endloop
   endfacet
   facet normal 1.220867e-002 -7.411882e-001 -6.711863e-001
      outer loop
         vertex 2.255089e+000 -1.300278e+000 4.593906e+000
         vertex 2.373421e+000 -1.312757e+000 4.608959e+000
         vertex 2.255327e+000 -1.314702e+000 4.608959e+000
      endloop
   endfacet
   facet normal 1.337812e-002 -8.121856e-001 -5.832456e-001
      outer loop
         vertex 2.255327e+000 -1.314702e+000 4.608959e+000
         vertex 2.373421e+000 -1.312757e+000 4.608959e+000
         vertex 2.373613e+000 -1.324430e+000 4.626233e+000
      endloop
   endfacet
   facet normal 1.390121e-002 -8.439425e-001 -5.362535e-001
      outer loop
         vertex 2.255327e+000 -1.314702e+000 4.608959e+000
         vertex 2.373613e+000 -1.324430e+000 4.626233e+000
         vertex 2.255519e+000 -1.326375e+000 4.626233e+000
      endloop
   endfacet
   facet normal 1.480907e-002 -8.990587e-001 -4.375775e-001
      outer loop
         vertex 2.255519e+000 -1.326375e+000 4.626233e+000
         vertex 2.373613e+000 -1.324430e+000 4.626233e+000
         vertex 2.373755e+000 -1.333017e+000 4.645231e+000
      endloop
   endfacet
   facet normal 1.519385e-002 -9.224182e-001 -3.858937e-001
      outer loop
         vertex 2.255519e+000 -1.326375e+000 4.626233e+000
         vertex 2.373755e+000 -1.333017e+000 4.645231e+000
         vertex 2.255660e+000 -1.334962e+000 4.645231e+000
      endloop
   endfacet
   facet normal 1.581400e-002 -9.600675e-001 -2.793211e-001
      outer loop
         vertex 2.255660e+000 -1.334962e+000 4.645231e+000
         vertex 2.373755e+000 -1.333017e+000 4.645231e+000
         vertex 2.373841e+000 -1.338269e+000 4.665407e+000
      endloop
   endfacet
   facet normal 1.604938e-002 -9.743575e-001 -2.244324e-001
      outer loop
         vertex 2.255660e+000 -1.334962e+000 4.645231e+000
         vertex 2.373841e+000 -1.338269e+000 4.665407e+000
         vertex 2.255747e+000 -1.340215e+000 4.665407e+000
      endloop
   endfacet
   facet normal 1.636398e-002 -9.934570e-001 -1.130291e-001
      outer loop
         vertex 2.255747e+000 -1.340215e+000 4.665407e+000
         vertex 2.373841e+000 -1.338269e+000 4.665407e+000
         vertex 2.373870e+000 -1.340037e+000 4.686181e+000
      endloop
   endfacet
   facet normal 1.644320e-002 -9.982663e-001 -5.651454e-002
      outer loop
         vertex 2.255747e+000 -1.340215e+000 4.665407e+000
         vertex 2.373870e+000 -1.340037e+000 4.686181e+000
         vertex 2.255776e+000 -1.341983e+000 4.686181e+000
      endloop
   endfacet
   facet normal 1.644320e-002 -9.982663e-001 5.651454e-002
      outer loop
         vertex 2.255776e+000 -1.341983e+000 4.686181e+000
         vertex 2.373870e+000 -1.340037e+000 4.686181e+000
         vertex 2.373841e+000 -1.338269e+000 4.706955e+000
      endloop
   endfacet
   facet normal 1.636398e-002 -9.934570e-001 1.130291e-001
      outer loop
         vertex 2.255776e+000 -1.341983e+000 4.686181e+000
         vertex 2.373841e+000 -1.338269e+000 4.706955e+000
         vertex 2.255747e+000 -1.340215e+000 4.706955e+000
      endloop
   endfacet
   facet normal 1.604938e-002 -9.743575e-001 2.244324e-001
      outer loop
         vertex 2.255747e+000 -1.340215e+000 4.706955e+000
         vertex 2.373841e+000 -1.338269e+000 4.706955e+000
         vertex 2.373755e+000 -1.333017e+000 4.727131e+000
      endloop
   endfacet
   facet normal 1.581400e-002 -9.600675e-001 2.793211e-001
      outer loop
         vertex 2.255747e+000 -1.340215e+000 4.706955e+000
         vertex 2.373755e+000 -1.333017e+000 4.727131e+000
         vertex 2.255660e+000 -1.334962e+000 4.727131e+000
      endloop
   endfacet
   facet normal 1.519385e-002 -9.224182e-001 3.858937e-001
      outer loop
         vertex 2.255660e+000 -1.334962e+000 4.727131e+000
         vertex 2.373755e+000 -1.333017e+000 4.727131e+000
         vertex 2.373613e+000 -1.324430e+000 4.746130e+000
      endloop
   endfacet
   facet normal 1.480907e-002 -8.990587e-001 4.375775e-001
      outer loop
         vertex 2.255660e+000 -1.334962e+000 4.727131e+000
         vertex 2.373613e+000 -1.324430e+000 4.746130e+000
         vertex 2.255519e+000 -1.326375e+000 4.746130e+000
      endloop
   endfacet
   facet normal 1.390121e-002 -8.439425e-001 5.362535e-001
      outer loop
         vertex 2.255519e+000 -1.326375e+000 4.746130e+000
         vertex 2.373613e+000 -1.324430e+000 4.746130e+000
         vertex 2.373421e+000 -1.312757e+000 4.763403e+000
      endloop
   endfacet
   facet normal 1.337812e-002 -8.121857e-001 5.832456e-001
      outer loop
         vertex 2.255519e+000 -1.326375e+000 4.746130e+000
         vertex 2.373421e+000 -1.312757e+000 4.763403e+000
         vertex 2.255327e+000 -1.314702e+000 4.763403e+000
      endloop
   endfacet
   facet normal 1.220867e-002 -7.411882e-001 6.711863e-001
      outer loop
         vertex 2.255327e+000 -1.314702e+000 4.763403e+000
         vertex 2.373421e+000 -1.312757e+000 4.763403e+000
         vertex 2.373183e+000 -1.298332e+000 4.778455e+000
      endloop
   endfacet
   facet normal 1.156231e-002 -7.019475e-001 7.121348e-001
      outer loop
         vertex 2.255327e+000 -1.314702e+000 4.763403e+000
         vertex 2.373183e+000 -1.298332e+000 4.778455e+000
         vertex 2.255089e+000 -1.300278e+000 4.778455e+000
      endloop
   endfacet
   facet normal 1.016490e-002 -6.171112e-001 7.868103e-001
      outer loop
         vertex 2.255089e+000 -1.300278e+000 4.778455e+000
         vertex 2.373183e+000 -1.298332e+000 4.778455e+000
         vertex 2.372907e+000 -1.281572e+000 4.790853e+000
      endloop
   endfacet
   facet normal 9.413864e-003 -5.715155e-001 8.205372e-001
      outer loop
         vertex 2.255089e+000 -1.300278e+000 4.778455e+000
         vertex 2.372907e+000 -1.281572e+000 4.790853e+000
         vertex 2.254813e+000 -1.283517e+000 4.790853e+000
      endloop
   endfacet
   facet normal 7.828712e-003 -4.752811e-001 8.797992e-001
      outer loop
         vertex 2.254813e+000 -1.283517e+000 4.790853e+000
         vertex 2.372907e+000 -1.281572e+000 4.790853e+000
         vertex 2.372601e+000 -1.262958e+000 4.800240e+000
      endloop
   endfacet
   facet normal 6.994601e-003 -4.246421e-001 9.053342e-001
      outer loop
         vertex 2.254813e+000 -1.283517e+000 4.790853e+000
         vertex 2.372601e+000 -1.262958e+000 4.800240e+000
         vertex 2.254506e+000 -1.264903e+000 4.800240e+000
      endloop
   endfacet
   facet normal 5.267304e-003 -3.197780e-001 9.474779e-001
      outer loop
         vertex 2.254506e+000 -1.264903e+000 4.800240e+000
         vertex 2.372601e+000 -1.262958e+000 4.800240e+000
         vertex 2.372272e+000 -1.243025e+000 4.806345e+000
      endloop
   endfacet
   facet normal 4.374118e-003 -2.655526e-001 9.640865e-001
      outer loop
         vertex 2.254506e+000 -1.264903e+000 4.800240e+000
         vertex 2.372272e+000 -1.243025e+000 4.806345e+000
         vertex 2.254178e+000 -1.244971e+000 4.806345e+000
      endloop
   endfacet
   facet normal 2.554365e-003 -1.550754e-001 9.878993e-001
      outer loop
         vertex 2.254178e+000 -1.244971e+000 4.806345e+000
         vertex 2.372272e+000 -1.243025e+000 4.806345e+000
         vertex 2.371932e+000 -1.222348e+000 4.808993e+000
      endloop
   endfacet
   facet normal 1.627798e-003 -9.882359e-002 9.951036e-001
      outer loop
         vertex 2.254178e+000 -1.244971e+000 4.806345e+000
         vertex 2.371932e+000 -1.222348e+000 4.808993e+000
         vertex 2.253837e+000 -1.224293e+000 4.808993e+000
      endloop
   endfacet
   facet normal -2.320596e-004 1.408833e-002 9.999007e-001
      outer loop
         vertex 2.253837e+000 -1.224293e+000 4.808993e+000
         vertex 2.371932e+000 -1.222348e+000 4.808993e+000
         vertex 2.371588e+000 -1.201520e+000 4.808108e+000
      endloop
   endfacet
   facet normal -1.165350e-003 7.074841e-002 9.974935e-001
      outer loop
         vertex 2.253837e+000 -1.224293e+000 4.808993e+000
         vertex 2.371588e+000 -1.201520e+000 4.808108e+000
         vertex 2.253494e+000 -1.203466e+000 4.808108e+000
      endloop
   endfacet
   facet normal -3.011807e-003 1.828468e-001 9.831368e-001
      outer loop
         vertex 2.253494e+000 -1.203466e+000 4.808108e+000
         vertex 2.371588e+000 -1.201520e+000 4.808108e+000
         vertex 2.371253e+000 -1.181142e+000 4.803716e+000
      endloop
   endfacet
   facet normal -3.924974e-003 2.382851e-001 9.711873e-001
      outer loop
         vertex 2.253494e+000 -1.203466e+000 4.808108e+000
         vertex 2.371253e+000 -1.181142e+000 4.803716e+000
         vertex 2.253159e+000 -1.183087e+000 4.803716e+000
      endloop
   endfacet
   facet normal -5.704912e-003 3.463451e-001 9.380898e-001
      outer loop
         vertex 2.253159e+000 -1.183087e+000 4.803716e+000
         vertex 2.371253e+000 -1.181142e+000 4.803716e+000
         vertex 2.370934e+000 -1.161799e+000 4.795942e+000
      endloop
   endfacet
   facet normal -6.571683e-003 3.989668e-001 9.169418e-001
      outer loop
         vertex 2.253159e+000 -1.183087e+000 4.803716e+000
         vertex 2.370934e+000 -1.161799e+000 4.795942e+000
         vertex 2.252840e+000 -1.163744e+000 4.795942e+000
      endloop
   endfacet
   facet normal -8.233895e-003 4.998797e-001 8.660557e-001
      outer loop
         vertex 2.252840e+000 -1.163744e+000 4.795942e+000
         vertex 2.370934e+000 -1.161799e+000 4.795942e+000
         vertex 2.370642e+000 -1.144048e+000 4.785010e+000
      endloop
   endfacet
   facet normal -9.029336e-003 5.481709e-001 8.363176e-001
      outer loop
         vertex 2.252840e+000 -1.163744e+000 4.795942e+000
         vertex 2.370642e+000 -1.144048e+000 4.785010e+000
         vertex 2.252548e+000 -1.145993e+000 4.785010e+000
      endloop
   endfacet
   facet normal -1.052601e-002 6.390336e-001 7.691067e-001
      outer loop
         vertex 2.252548e+000 -1.145993e+000 4.785010e+000
         vertex 2.370642e+000 -1.144048e+000 4.785010e+000
         vertex 2.370384e+000 -1.128399e+000 4.771236e+000
      endloop
   endfacet
   facet normal -1.122723e-002 6.816052e-001 7.316340e-001
      outer loop
         vertex 2.252548e+000 -1.145993e+000 4.785010e+000
         vertex 2.370384e+000 -1.128399e+000 4.771236e+000
         vertex 2.252290e+000 -1.130344e+000 4.771236e+000
      endloop
   endfacet
   facet normal -1.251530e-002 7.598038e-001 6.500319e-001
      outer loop
         vertex 2.252290e+000 -1.130344e+000 4.771236e+000
         vertex 2.370384e+000 -1.128399e+000 4.771236e+000
         vertex 2.370168e+000 -1.115303e+000 4.755014e+000
      endloop
   endfacet
   facet normal -1.310214e-002 7.954309e-001 6.059027e-001
      outer loop
         vertex 2.252290e+000 -1.130344e+000 4.771236e+000
         vertex 2.370168e+000 -1.115303e+000 4.755014e+000
         vertex 2.252074e+000 -1.117248e+000 4.755014e+000
      endloop
   endfacet
   facet normal -1.414455e-002 8.587157e-001 5.122570e-001
      outer loop
         vertex 2.252074e+000 -1.117248e+000 4.755014e+000
         vertex 2.370168e+000 -1.115303e+000 4.755014e+000
         vertex 2.370001e+000 -1.105136e+000 4.736813e+000
      endloop
   endfacet
   facet normal -1.460013e-002 8.863735e-001 4.627406e-001
      outer loop
         vertex 2.252074e+000 -1.117248e+000 4.755014e+000
         vertex 2.370001e+000 -1.105136e+000 4.736813e+000
         vertex 2.251907e+000 -1.107082e+000 4.736813e+000
      endloop
   endfacet
   facet normal -1.536690e-002 9.329240e-001 3.597453e-001
      outer loop
         vertex 2.251907e+000 -1.107082e+000 4.736813e+000
         vertex 2.370001e+000 -1.105136e+000 4.736813e+000
         vertex 2.369887e+000 -1.098192e+000 4.717155e+000
      endloop
   endfacet
   facet normal -1.567809e-002 9.518167e-001 3.062663e-001
      outer loop
         vertex 2.251907e+000 -1.107082e+000 4.736813e+000
         vertex 2.369887e+000 -1.098192e+000 4.717155e+000
         vertex 2.251792e+000 -1.100137e+000 4.717155e+000
      endloop
   endfacet
   facet normal -1.614716e-002 9.802938e-001 1.968843e-001
      outer loop
         vertex 2.251792e+000 -1.100137e+000 4.717155e+000
         vertex 2.369887e+000 -1.098192e+000 4.717155e+000
         vertex 2.369828e+000 -1.094669e+000 4.696606e+000
      endloop
   endfacet
   facet normal -1.630502e-002 9.898779e-001 1.409813e-001
      outer loop
         vertex 2.251792e+000 -1.100137e+000 4.717155e+000
         vertex 2.369828e+000 -1.094669e+000 4.696606e+000
         vertex 2.251734e+000 -1.096614e+000 4.696606e+000
      endloop
   endfacet
   facet normal -1.644313e-002 9.982625e-001 5.658260e-002
      outer loop
         vertex 2.251734e+000 -1.096614e+000 4.696606e+000
         vertex 2.369828e+000 -1.094669e+000 4.696606e+000
         vertex 2.251727e+000 -1.096171e+000 4.686181e+000
      endloop
   endfacet
   facet normal -9.998644e-001 -1.646952e-002 -1.191577e-015
      outer loop
         vertex 2.251734e+000 -1.096614e+000 4.675756e+000
         vertex 2.255519e+000 -1.326375e+000 4.626233e+000
         vertex 2.255660e+000 -1.334962e+000 4.645231e+000
      endloop
   endfacet
   facet normal -9.998644e-001 -1.646952e-002 -1.191577e-015
      outer loop
         vertex 2.255519e+000 -1.326375e+000 4.746130e+000
         vertex 2.255776e+000 -1.341983e+000 4.686181e+000
         vertex 2.255660e+000 -1.334962e+000 4.727131e+000
      endloop
   endfacet
   facet normal -9.998644e-001 -1.646952e-002 -1.191577e-015
      outer loop
         vertex 2.255660e+000 -1.334962e+000 4.727131e+000
         vertex 2.255776e+000 -1.341983e+000 4.686181e+000
         vertex 2.255747e+000 -1.340215e+000 4.706955e+000
      endloop
   endfacet
   facet normal -9.998644e-001 -1.646952e-002 -1.191577e-015
      outer loop
         vertex 2.254178e+000 -1.244971e+000 4.806345e+000
         vertex 2.255776e+000 -1.341983e+000 4.686181e+000
         vertex 2.254506e+000 -1.264903e+000 4.800240e+000
      endloop
   endfacet
   facet normal -9.998644e-001 -1.646952e-002 -1.191577e-015
      outer loop
         vertex 2.254506e+000 -1.264903e+000 4.800240e+000
         vertex 2.255776e+000 -1.341983e+000 4.686181e+000
         vertex 2.254813e+000 -1.283517e+000 4.790853e+000
      endloop
   endfacet
   facet normal -9.998644e-001 -1.646952e-002 -1.191577e-015
      outer loop
         vertex 2.254178e+000 -1.244971e+000 4.806345e+000
         vertex 2.253837e+000 -1.224293e+000 4.808993e+000
         vertex 2.255776e+000 -1.341983e+000 4.686181e+000
      endloop
   endfacet
   facet normal -9.998644e-001 -1.646952e-002 -1.191577e-015
      outer loop
         vertex 2.255776e+000 -1.341983e+000 4.686181e+000
         vertex 2.253837e+000 -1.224293e+000 4.808993e+000
         vertex 2.253494e+000 -1.203466e+000 4.808108e+000
      endloop
   endfacet
   facet normal -9.998644e-001 -1.646952e-002 -1.191577e-015
      outer loop
         vertex 2.255776e+000 -1.341983e+000 4.686181e+000
         vertex 2.253494e+000 -1.203466e+000 4.808108e+000
         vertex 2.253159e+000 -1.183087e+000 4.803716e+000
      endloop
   endfacet
   facet normal -9.998644e-001 -1.646952e-002 -1.191577e-015
      outer loop
         vertex 2.255776e+000 -1.341983e+000 4.686181e+000
         vertex 2.252290e+000 -1.130344e+000 4.771236e+000
         vertex 2.252074e+000 -1.117248e+000 4.755014e+000
      endloop
   endfacet
   facet normal -9.998644e-001 -1.646952e-002 -1.191577e-015
      outer loop
         vertex 2.252074e+000 -1.117248e+000 4.755014e+000
         vertex 2.251907e+000 -1.107082e+000 4.736813e+000
         vertex 2.255776e+000 -1.341983e+000 4.686181e+000
      endloop
   endfacet
   facet normal -9.998644e-001 -1.646952e-002 -1.191577e-015
      outer loop
         vertex 2.255776e+000 -1.341983e+000 4.686181e+000
         vertex 2.251907e+000 -1.107082e+000 4.736813e+000
         vertex 2.251792e+000 -1.100137e+000 4.717155e+000
      endloop
   endfacet
   facet normal -9.998644e-001 -1.646952e-002 -1.191577e-015
      outer loop
         vertex 2.255776e+000 -1.341983e+000 4.686181e+000
         vertex 2.251792e+000 -1.100137e+000 4.717155e+000
         vertex 2.251734e+000 -1.096614e+000 4.696606e+000
      endloop
   endfacet
   facet normal -9.998644e-001 -1.646952e-002 -1.191577e-015
      outer loop
         vertex 2.251907e+000 -1.107082e+000 4.635549e+000
         vertex 2.252074e+000 -1.117248e+000 4.617348e+000
         vertex 2.253494e+000 -1.203466e+000 4.564254e+000
      endloop
   endfacet
   facet normal -9.998644e-001 -1.646952e-002 -1.191577e-015
      outer loop
         vertex 2.253494e+000 -1.203466e+000 4.564254e+000
         vertex 2.252074e+000 -1.117248e+000 4.617348e+000
         vertex 2.252290e+000 -1.130344e+000 4.601126e+000
      endloop
   endfacet
   facet normal -9.998644e-001 -1.646952e-002 -1.191577e-015
      outer loop
         vertex 2.253837e+000 -1.224293e+000 4.563369e+000
         vertex 2.254178e+000 -1.244971e+000 4.566018e+000
         vertex 2.251734e+000 -1.096614e+000 4.675756e+000
      endloop
   endfacet
   facet normal -9.998644e-001 -1.646952e-002 -1.191577e-015
      outer loop
         vertex 2.251734e+000 -1.096614e+000 4.675756e+000
         vertex 2.254178e+000 -1.244971e+000 4.566018e+000
         vertex 2.254506e+000 -1.264903e+000 4.572123e+000
      endloop
   endfacet
   facet normal -9.998644e-001 -1.646952e-002 -1.191577e-015
      outer loop
         vertex 2.251734e+000 -1.096614e+000 4.675756e+000
         vertex 2.254506e+000 -1.264903e+000 4.572123e+000
         vertex 2.254813e+000 -1.283517e+000 4.581509e+000
      endloop
   endfacet
   facet normal -9.998644e-001 -1.646952e-002 -1.191577e-015
      outer loop
         vertex 2.254813e+000 -1.283517e+000 4.581509e+000
         vertex 2.255089e+000 -1.300278e+000 4.593906e+000
         vertex 2.251734e+000 -1.096614e+000 4.675756e+000
      endloop
   endfacet
   facet normal -9.998644e-001 -1.646952e-002 -1.191577e-015
      outer loop
         vertex 2.251734e+000 -1.096614e+000 4.675756e+000
         vertex 2.255089e+000 -1.300278e+000 4.593906e+000
         vertex 2.255327e+000 -1.314702e+000 4.608959e+000
      endloop
   endfacet
   facet normal -9.998644e-001 -1.646952e-002 -1.191577e-015
      outer loop
         vertex 2.251734e+000 -1.096614e+000 4.675756e+000
         vertex 2.255327e+000 -1.314702e+000 4.608959e+000
         vertex 2.255519e+000 -1.326375e+000 4.626233e+000
      endloop
   endfacet
   facet normal -9.998644e-001 -1.646952e-002 -1.191577e-015
      outer loop
         vertex 2.251734e+000 -1.096614e+000 4.696606e+000
         vertex 2.251727e+000 -1.096171e+000 4.686181e+000
         vertex 2.255776e+000 -1.341983e+000 4.686181e+000
      endloop
   endfacet
   facet normal -9.998644e-001 -1.646952e-002 -1.191577e-015
      outer loop
         vertex 2.255776e+000 -1.341983e+000 4.686181e+000
         vertex 2.251727e+000 -1.096171e+000 4.686181e+000
         vertex 2.251734e+000 -1.096614e+000 4.675756e+000
      endloop
   endfacet
   facet normal -9.998644e-001 -1.646952e-002 -1.191577e-015
      outer loop
         vertex 2.255776e+000 -1.341983e+000 4.686181e+000
         vertex 2.251734e+000 -1.096614e+000 4.675756e+000
         vertex 2.255747e+000 -1.340215e+000 4.665407e+000
      endloop
   endfacet
   facet normal -9.998644e-001 -1.646952e-002 -1.191577e-015
      outer loop
         vertex 2.255747e+000 -1.340215e+000 4.665407e+000
         vertex 2.251734e+000 -1.096614e+000 4.675756e+000
         vertex 2.255660e+000 -1.334962e+000 4.645231e+000
      endloop
   endfacet
   facet normal -9.998644e-001 -1.646952e-002 -1.191577e-015
      outer loop
         vertex 2.255519e+000 -1.326375e+000 4.746130e+000
         vertex 2.255327e+000 -1.314702e+000 4.763403e+000
         vertex 2.255776e+000 -1.341983e+000 4.686181e+000
      endloop
   endfacet
   facet normal -9.998644e-001 -1.646952e-002 -1.191577e-015
      outer loop
         vertex 2.255776e+000 -1.341983e+000 4.686181e+000
         vertex 2.255327e+000 -1.314702e+000 4.763403e+000
         vertex 2.255089e+000 -1.300278e+000 4.778455e+000
      endloop
   endfacet
   facet normal -9.998644e-001 -1.646952e-002 -1.191577e-015
      outer loop
         vertex 2.255776e+000 -1.341983e+000 4.686181e+000
         vertex 2.255089e+000 -1.300278e+000 4.778455e+000
         vertex 2.254813e+000 -1.283517e+000 4.790853e+000
      endloop
   endfacet
   facet normal -9.998644e-001 -1.646952e-002 -1.191577e-015
      outer loop
         vertex 2.253159e+000 -1.183087e+000 4.803716e+000
         vertex 2.252840e+000 -1.163744e+000 4.795942e+000
         vertex 2.255776e+000 -1.341983e+000 4.686181e+000
      endloop
   endfacet
   facet normal -9.998644e-001 -1.646952e-002 -1.191577e-015
      outer loop
         vertex 2.255776e+000 -1.341983e+000 4.686181e+000
         vertex 2.252840e+000 -1.163744e+000 4.795942e+000
         vertex 2.252548e+000 -1.145993e+000 4.785010e+000
      endloop
   endfacet
   facet normal -9.998644e-001 -1.646952e-002 -1.191577e-015
      outer loop
         vertex 2.255776e+000 -1.341983e+000 4.686181e+000
         vertex 2.252548e+000 -1.145993e+000 4.785010e+000
         vertex 2.252290e+000 -1.130344e+000 4.771236e+000
      endloop
   endfacet
   facet normal -9.998644e-001 -1.646952e-002 -1.191577e-015
      outer loop
         vertex 2.253837e+000 -1.224293e+000 4.563369e+000
         vertex 2.251734e+000 -1.096614e+000 4.675756e+000
         vertex 2.253494e+000 -1.203466e+000 4.564254e+000
      endloop
   endfacet
   facet normal -9.998644e-001 -1.646952e-002 -1.191577e-015
      outer loop
         vertex 2.253494e+000 -1.203466e+000 4.564254e+000
         vertex 2.251734e+000 -1.096614e+000 4.675756e+000
         vertex 2.251792e+000 -1.100137e+000 4.655207e+000
      endloop
   endfacet
   facet normal -9.998644e-001 -1.646952e-002 -1.191577e-015
      outer loop
         vertex 2.253494e+000 -1.203466e+000 4.564254e+000
         vertex 2.251792e+000 -1.100137e+000 4.655207e+000
         vertex 2.251907e+000 -1.107082e+000 4.635549e+000
      endloop
   endfacet
   facet normal -9.998644e-001 -1.646952e-002 -1.191577e-015
      outer loop
         vertex 2.252290e+000 -1.130344e+000 4.601126e+000
         vertex 2.252548e+000 -1.145993e+000 4.587352e+000
         vertex 2.253494e+000 -1.203466e+000 4.564254e+000
      endloop
   endfacet
   facet normal -9.998644e-001 -1.646952e-002 -1.191577e-015
      outer loop
         vertex 2.253494e+000 -1.203466e+000 4.564254e+000
         vertex 2.252548e+000 -1.145993e+000 4.587352e+000
         vertex 2.252840e+000 -1.163744e+000 4.576421e+000
      endloop
   endfacet
   facet normal -9.998644e-001 -1.646952e-002 -1.191577e-015
      outer loop
         vertex 2.253494e+000 -1.203466e+000 4.564254e+000
         vertex 2.252840e+000 -1.163744e+000 4.576421e+000
         vertex 2.253159e+000 -1.183087e+000 4.568647e+000
      endloop
   endfacet
endsolid