solid peça_gimbal3_2-1-solid1_Default_sldprt
   facet normal 1.646952e-002 -9.998644e-001 2.420725e-016
      outer loop
         vertex -1.991189e+000 -1.680784e+000 3.235852e+000
         vertex -1.991189e+000 -1.680784e+000 2.369710e+000
         vertex -1.912459e+000 -1.679487e+000 3.235852e+000
      endloop
   endfacet
   facet normal 1.646952e-002 -9.998644e-001 2.420725e-016
      outer loop
         vertex -1.912459e+000 -1.679487e+000 3.235852e+000
         vertex -1.991189e+000 -1.680784e+000 2.369710e+000
         vertex -1.912459e+000 -1.679487e+000 2.369710e+000
      endloop
   endfacet
   facet normal 1.645077e-002 -9.987259e-001 -4.770591e-002
      outer loop
         vertex -1.991189e+000 -1.680784e+000 3.235852e+000
         vertex -1.912459e+000 -1.679487e+000 3.235852e+000
         vertex -1.912395e+000 -1.683396e+000 3.291134e+000
      endloop
   endfacet
   facet normal 1.639438e-002 -9.953029e-001 -9.541182e-002
      outer loop
         vertex -1.991189e+000 -1.680784e+000 3.235852e+000
         vertex -1.912395e+000 -1.683396e+000 3.291134e+000
         vertex -1.991124e+000 -1.684693e+000 3.291134e+000
      endloop
   endfacet
   facet normal 1.616485e-002 -9.813682e-001 -1.914556e-001
      outer loop
         vertex -1.991124e+000 -1.684693e+000 3.291134e+000
         vertex -1.912395e+000 -1.683396e+000 3.291134e+000
         vertex -1.912202e+000 -1.695078e+000 3.344099e+000
      endloop
   endfacet
   facet normal 1.598909e-002 -9.706979e-001 -2.397705e-001
      outer loop
         vertex -1.991124e+000 -1.684693e+000 3.291134e+000
         vertex -1.912202e+000 -1.695078e+000 3.344099e+000
         vertex -1.990932e+000 -1.696374e+000 3.344099e+000
      endloop
   endfacet
   facet normal 1.552617e-002 -9.425938e-001 -3.335803e-001
      outer loop
         vertex -1.990932e+000 -1.696374e+000 3.344099e+000
         vertex -1.912202e+000 -1.695078e+000 3.344099e+000
         vertex -1.911886e+000 -1.714315e+000 3.394454e+000
      endloop
   endfacet
   facet normal 1.524019e-002 -9.252316e-001 -3.790966e-001
      outer loop
         vertex -1.990932e+000 -1.696374e+000 3.344099e+000
         vertex -1.911886e+000 -1.714315e+000 3.394454e+000
         vertex -1.990615e+000 -1.715612e+000 3.394454e+000
      endloop
   endfacet
   facet normal 1.457913e-002 -8.850991e-001 -4.651741e-001
      outer loop
         vertex -1.990615e+000 -1.715612e+000 3.394454e+000
         vertex -1.911886e+000 -1.714315e+000 3.394454e+000
         vertex -1.911442e+000 -1.741229e+000 3.442774e+000
      endloop
   endfacet
   facet normal 1.420720e-002 -8.625193e-001 -5.058246e-001
      outer loop
         vertex -1.990615e+000 -1.715612e+000 3.394454e+000
         vertex -1.911442e+000 -1.741229e+000 3.442774e+000
         vertex -1.990172e+000 -1.742526e+000 3.442774e+000
      endloop
   endfacet
   facet normal 1.343977e-002 -8.159285e-001 -5.779967e-001
      outer loop
         vertex -1.990172e+000 -1.742526e+000 3.442774e+000
         vertex -1.911442e+000 -1.741229e+000 3.442774e+000
         vertex -1.910921e+000 -1.772853e+000 3.485484e+000
      endloop
   endfacet
   facet normal 1.305247e-002 -7.924154e-001 -6.098423e-001
      outer loop
         vertex -1.990172e+000 -1.742526e+000 3.442774e+000
         vertex -1.910921e+000 -1.772853e+000 3.485484e+000
         vertex -1.989651e+000 -1.774150e+000 3.485484e+000
      endloop
   endfacet
   facet normal 1.646952e-002 -9.998644e-001 2.420725e-016
      outer loop
         vertex -1.989651e+000 -1.774150e+000 5.125615e+000
         vertex -1.989651e+000 -1.774150e+000 3.485484e+000
         vertex -1.910921e+000 -1.772853e+000 5.125615e+000
      endloop
   endfacet
   facet normal 1.646952e-002 -9.998644e-001 2.420725e-016
      outer loop
         vertex -1.910921e+000 -1.772853e+000 5.125615e+000
         vertex -1.989651e+000 -1.774150e+000 3.485484e+000
         vertex -1.910921e+000 -1.772853e+000 3.485484e+000
      endloop
   endfacet
   facet normal 6.910384e-003 -4.195293e-001 9.077154e-001
      outer loop
         vertex -1.989651e+000 -1.774150e+000 5.125615e+000
         vertex -1.910921e+000 -1.772853e+000 5.125615e+000
         vertex -1.912031e+000 -1.705514e+000 5.156020e+000
      endloop
   endfacet
   facet normal 6.631583e-003 -4.026033e-001 9.153505e-001
      outer loop
         vertex -1.989651e+000 -1.774150e+000 5.125615e+000
         vertex -1.912031e+000 -1.705514e+000 5.156020e+000
         vertex -1.990760e+000 -1.706810e+000 5.156020e+000
      endloop
   endfacet
   facet normal 5.946400e-003 -3.610059e-001 9.325446e-001
      outer loop
         vertex -1.990760e+000 -1.706810e+000 5.156020e+000
         vertex -1.912031e+000 -1.705514e+000 5.156020e+000
         vertex -1.913527e+000 -1.614693e+000 5.189873e+000
      endloop
   endfacet
   facet normal 5.537760e-003 -3.361973e-001 9.417753e-001
      outer loop
         vertex -1.990760e+000 -1.706810e+000 5.156020e+000
         vertex -1.913527e+000 -1.614693e+000 5.189873e+000
         vertex -1.992256e+000 -1.615990e+000 5.189873e+000
      endloop
   endfacet
   facet normal 4.691366e-003 -2.848128e-001 9.585717e-001
      outer loop
         vertex -1.992256e+000 -1.615990e+000 5.189873e+000
         vertex -1.913527e+000 -1.614693e+000 5.189873e+000
         vertex -1.915008e+000 -1.524780e+000 5.215295e+000
      endloop
   endfacet
   facet normal 4.253291e-003 -2.582172e-001 9.660775e-001
      outer loop
         vertex -1.992256e+000 -1.615990e+000 5.189873e+000
         vertex -1.915008e+000 -1.524780e+000 5.215295e+000
         vertex -1.993737e+000 -1.526076e+000 5.215295e+000
      endloop
   endfacet
   facet normal 3.353216e-003 -2.035737e-001 9.790539e-001
      outer loop
         vertex -1.993737e+000 -1.526076e+000 5.215295e+000
         vertex -1.915008e+000 -1.524780e+000 5.215295e+000
         vertex -1.916479e+000 -1.435446e+000 5.232580e+000
      endloop
   endfacet
   facet normal 2.891014e-003 -1.755134e-001 9.844728e-001
      outer loop
         vertex -1.993737e+000 -1.526076e+000 5.215295e+000
         vertex -1.916479e+000 -1.435446e+000 5.232580e+000
         vertex -1.995209e+000 -1.436743e+000 5.232580e+000
      endloop
   endfacet
   facet normal 1.949747e-003 -1.183691e-001 9.929677e-001
      outer loop
         vertex -1.995209e+000 -1.436743e+000 5.232580e+000
         vertex -1.916479e+000 -1.435446e+000 5.232580e+000
         vertex -1.917947e+000 -1.346349e+000 5.241902e+000
      endloop
   endfacet
   facet normal 1.470588e-003 -8.927941e-002 9.960055e-001
      outer loop
         vertex -1.995209e+000 -1.436743e+000 5.232580e+000
         vertex -1.917947e+000 -1.346349e+000 5.241902e+000
         vertex -1.996676e+000 -1.347646e+000 5.241902e+000
      endloop
   endfacet
   facet normal 5.039881e-004 -3.059711e-002 9.995317e-001
      outer loop
         vertex -1.996676e+000 -1.347646e+000 5.241902e+000
         vertex -1.917947e+000 -1.346349e+000 5.241902e+000
         vertex -1.919416e+000 -1.257138e+000 5.243315e+000
      endloop
   endfacet
   facet normal 1.652557e-005 -1.003269e-003 9.999995e-001
      outer loop
         vertex -1.996676e+000 -1.347646e+000 5.241902e+000
         vertex -1.919416e+000 -1.257138e+000 5.243315e+000
         vertex -1.998146e+000 -1.258435e+000 5.243315e+000
      endloop
   endfacet
   facet normal -9.572246e-004 5.811310e-002 9.983096e-001
      outer loop
         vertex -1.998146e+000 -1.258435e+000 5.243315e+000
         vertex -1.919416e+000 -1.257138e+000 5.243315e+000
         vertex -1.920893e+000 -1.167462e+000 5.236747e+000
      endloop
   endfacet
   facet normal -1.443512e-003 8.763562e-002 9.961515e-001
      outer loop
         vertex -1.998146e+000 -1.258435e+000 5.243315e+000
         vertex -1.920893e+000 -1.167462e+000 5.236747e+000
         vertex -1.999623e+000 -1.168758e+000 5.236747e+000
      endloop
   endfacet
   facet normal -2.405389e-003 1.460312e-001 9.892771e-001
      outer loop
         vertex -1.999623e+000 -1.168758e+000 5.236747e+000
         vertex -1.920893e+000 -1.167462e+000 5.236747e+000
         vertex -1.922384e+000 -1.076971e+000 5.222001e+000
      endloop
   endfacet
   facet normal -2.881018e-003 1.749066e-001 9.845809e-001
      outer loop
         vertex -1.999623e+000 -1.168758e+000 5.236747e+000
         vertex -1.922384e+000 -1.076971e+000 5.222001e+000
         vertex -2.001113e+000 -1.078268e+000 5.222001e+000
      endloop
   endfacet
   facet normal -3.812834e-003 2.314771e-001 9.728329e-001
      outer loop
         vertex -2.001113e+000 -1.078268e+000 5.222001e+000
         vertex -1.922384e+000 -1.076971e+000 5.222001e+000
         vertex -1.923893e+000 -9.853309e-001 5.198756e+000
      endloop
   endfacet
   facet normal -4.269153e-003 2.591802e-001 9.658195e-001
      outer loop
         vertex -2.001113e+000 -1.078268e+000 5.222001e+000
         vertex -1.923893e+000 -9.853309e-001 5.198756e+000
         vertex -2.002623e+000 -9.866277e-001 5.198756e+000
      endloop
   endfacet
   facet normal -5.155046e-003 3.129628e-001 9.497514e-001
      outer loop
         vertex -2.002623e+000 -9.866277e-001 5.198756e+000
         vertex -1.923893e+000 -9.853309e-001 5.198756e+000
         vertex -1.925427e+000 -8.922357e-001 5.166578e+000
      endloop
   endfacet
   facet normal -5.584877e-003 3.390578e-001 9.407490e-001
      outer loop
         vertex -2.002623e+000 -9.866277e-001 5.198756e+000
         vertex -1.925427e+000 -8.922357e-001 5.166578e+000
         vertex -2.004156e+000 -8.935325e-001 5.166578e+000
      endloop
   endfacet
   facet normal -6.406651e-003 3.889477e-001 9.212375e-001
      outer loop
         vertex -2.004156e+000 -8.935325e-001 5.166578e+000
         vertex -1.925427e+000 -8.922357e-001 5.166578e+000
         vertex -1.926965e+000 -7.988260e-001 5.125615e+000
      endloop
   endfacet
   facet normal -6.799109e-003 4.127738e-001 9.108081e-001
      outer loop
         vertex -2.004156e+000 -8.935325e-001 5.166578e+000
         vertex -1.926965e+000 -7.988260e-001 5.125615e+000
         vertex -2.005695e+000 -8.001228e-001 5.125615e+000
      endloop
   endfacet
   facet normal -1.646952e-002 9.998644e-001 -2.941234e-016
      outer loop
         vertex -2.005695e+000 -8.001228e-001 3.485484e+000
         vertex -2.005695e+000 -8.001228e-001 5.125615e+000
         vertex -1.926965e+000 -7.988260e-001 3.485484e+000
      endloop
   endfacet
   facet normal -1.646952e-002 9.998644e-001 -2.941234e-016
      outer loop
         vertex -1.926965e+000 -7.988260e-001 3.485484e+000
         vertex -2.005695e+000 -8.001228e-001 5.125615e+000
         vertex -1.926965e+000 -7.988260e-001 5.125615e+000
      endloop
   endfacet
   facet normal -1.305247e-002 7.924154e-001 -6.098423e-001
      outer loop
         vertex -2.005695e+000 -8.001228e-001 3.485484e+000
         vertex -1.926965e+000 -7.988260e-001 3.485484e+000
         vertex -1.926444e+000 -8.304502e-001 3.442774e+000
      endloop
   endfacet
   facet normal -1.343977e-002 8.159285e-001 -5.779967e-001
      outer loop
         vertex -2.005695e+000 -8.001228e-001 3.485484e+000
         vertex -1.926444e+000 -8.304502e-001 3.442774e+000
         vertex -2.005174e+000 -8.317471e-001 3.442774e+000
      endloop
   endfacet
   facet normal -1.420720e-002 8.625193e-001 -5.058246e-001
      outer loop
         vertex -2.005174e+000 -8.317471e-001 3.442774e+000
         vertex -1.926444e+000 -8.304502e-001 3.442774e+000
         vertex -1.926001e+000 -8.573647e-001 3.394454e+000
      endloop
   endfacet
   facet normal -1.457913e-002 8.850991e-001 -4.651741e-001
      outer loop
         vertex -2.005174e+000 -8.317471e-001 3.442774e+000
         vertex -1.926001e+000 -8.573647e-001 3.394454e+000
         vertex -2.004730e+000 -8.586615e-001 3.394454e+000
      endloop
   endfacet
   facet normal -1.524019e-002 9.252316e-001 -3.790966e-001
      outer loop
         vertex -2.004730e+000 -8.586615e-001 3.394454e+000
         vertex -1.926001e+000 -8.573647e-001 3.394454e+000
         vertex -1.925684e+000 -8.766019e-001 3.344099e+000
      endloop
   endfacet
   facet normal -1.552617e-002 9.425938e-001 -3.335803e-001
      outer loop
         vertex -2.004730e+000 -8.586615e-001 3.394454e+000
         vertex -1.925684e+000 -8.766019e-001 3.344099e+000
         vertex -2.004414e+000 -8.778988e-001 3.344099e+000
      endloop
   endfacet
   facet normal -1.598910e-002 9.706979e-001 -2.397705e-001
      outer loop
         vertex -2.004414e+000 -8.778988e-001 3.344099e+000
         vertex -1.925684e+000 -8.766019e-001 3.344099e+000
         vertex -1.925492e+000 -8.882830e-001 3.291134e+000
      endloop
   endfacet
   facet normal -1.616485e-002 9.813682e-001 -1.914556e-001
      outer loop
         vertex -2.004414e+000 -8.778988e-001 3.344099e+000
         vertex -1.925492e+000 -8.882830e-001 3.291134e+000
         vertex -2.004221e+000 -8.895798e-001 3.291134e+000
      endloop
   endfacet
   facet normal -1.639438e-002 9.953029e-001 -9.541182e-002
      outer loop
         vertex -2.004221e+000 -8.895798e-001 3.291134e+000
         vertex -1.925492e+000 -8.882830e-001 3.291134e+000
         vertex -1.925427e+000 -8.921923e-001 3.235852e+000
      endloop
   endfacet
   facet normal -1.645077e-002 9.987259e-001 -4.770591e-002
      outer loop
         vertex -2.004221e+000 -8.895798e-001 3.291134e+000
         vertex -1.925427e+000 -8.921923e-001 3.235852e+000
         vertex -2.004157e+000 -8.934891e-001 3.235852e+000
      endloop
   endfacet
   facet normal -1.646952e-002 9.998644e-001 -2.420725e-016
      outer loop
         vertex -2.004157e+000 -8.934891e-001 2.369710e+000
         vertex -2.004157e+000 -8.934891e-001 3.235852e+000
         vertex -1.925427e+000 -8.921923e-001 2.369710e+000
      endloop
   endfacet
   facet normal -1.646952e-002 9.998644e-001 -2.420725e-016
      outer loop
         vertex -1.925427e+000 -8.921923e-001 2.369710e+000
         vertex -2.004157e+000 -8.934891e-001 3.235852e+000
         vertex -1.925427e+000 -8.921923e-001 3.235852e+000
      endloop
   endfacet
   facet normal 1.195410e-015 -2.224148e-016 -1.000000e+000
      outer loop
         vertex -1.991189e+000 -1.680784e+000 2.369710e+000
         vertex -2.004157e+000 -8.934891e-001 2.369710e+000
         vertex -1.912459e+000 -1.679487e+000 2.369710e+000
      endloop
   endfacet
   facet normal 1.195410e-015 -2.224148e-016 -1.000000e+000
      outer loop
         vertex -1.912459e+000 -1.679487e+000 2.369710e+000
         vertex -2.004157e+000 -8.934891e-001 2.369710e+000
         vertex -1.925427e+000 -8.921923e-001 2.369710e+000
      endloop
   endfacet
   facet normal -9.998644e-001 -1.646952e-002 -1.191585e-015
      outer loop
         vertex -1.994471e+000 -1.481511e+000 4.727654e+000
         vertex -1.989651e+000 -1.774150e+000 5.125615e+000
         vertex -1.994632e+000 -1.471735e+000 4.759578e+000
      endloop
   endfacet
   facet normal -9.998644e-001 -1.646952e-002 -1.191585e-015
      outer loop
         vertex -1.994632e+000 -1.471735e+000 4.759578e+000
         vertex -1.989651e+000 -1.774150e+000 5.125615e+000
         vertex -1.994880e+000 -1.456706e+000 4.789391e+000
      endloop
   endfacet
   facet normal -9.998644e-001 -1.646952e-002 -1.191585e-015
      outer loop
         vertex -1.994471e+000 -1.481511e+000 4.727654e+000
         vertex -1.994401e+000 -1.485751e+000 4.694536e+000
         vertex -1.989651e+000 -1.774150e+000 5.125615e+000
      endloop
   endfacet
   facet normal -9.998644e-001 -1.646952e-002 -1.191585e-015
      outer loop
         vertex -1.989651e+000 -1.774150e+000 5.125615e+000
         vertex -1.994401e+000 -1.485751e+000 4.694536e+000
         vertex -1.994425e+000 -1.484334e+000 4.661178e+000
      endloop
   endfacet
   facet normal -9.998644e-001 -1.646952e-002 -1.191585e-015
      outer loop
         vertex -1.989651e+000 -1.774150e+000 5.125615e+000
         vertex -1.994425e+000 -1.484334e+000 4.661178e+000
         vertex -1.989651e+000 -1.774150e+000 3.485484e+000
      endloop
   endfacet
   facet normal -9.998644e-001 -1.646952e-002 -1.191585e-015
      outer loop
         vertex -1.989651e+000 -1.774150e+000 3.485484e+000
         vertex -1.994425e+000 -1.484334e+000 4.661178e+000
         vertex -1.994541e+000 -1.477301e+000 4.628539e+000
      endloop
   endfacet
   facet normal -9.998644e-001 -1.646952e-002 -1.191585e-015
      outer loop
         vertex -1.996059e+000 -1.385095e+000 4.858034e+000
         vertex -1.995604e+000 -1.412753e+000 4.839338e+000
         vertex -1.990760e+000 -1.706810e+000 5.156020e+000
      endloop
   endfacet
   facet normal -9.998644e-001 -1.646952e-002 -1.191585e-015
      outer loop
         vertex -1.990760e+000 -1.706810e+000 5.156020e+000
         vertex -1.995604e+000 -1.412753e+000 4.839338e+000
         vertex -1.989651e+000 -1.774150e+000 5.125615e+000
      endloop
   endfacet
   facet normal -9.998644e-001 -1.646952e-002 -1.191585e-015
      outer loop
         vertex -1.989651e+000 -1.774150e+000 5.125615e+000
         vertex -1.995604e+000 -1.412753e+000 4.839338e+000
         vertex -1.995207e+000 -1.436855e+000 4.816235e+000
      endloop
   endfacet
   facet normal -9.998644e-001 -1.646952e-002 -1.191585e-015
      outer loop
         vertex -1.989651e+000 -1.774150e+000 5.125615e+000
         vertex -1.995207e+000 -1.436855e+000 4.816235e+000
         vertex -1.994880e+000 -1.456706e+000 4.789391e+000
      endloop
   endfacet
   facet normal -9.998644e-001 -1.646952e-002 -1.191585e-015
      outer loop
         vertex -1.994541e+000 -1.477301e+000 4.628539e+000
         vertex -1.994746e+000 -1.464854e+000 4.597558e+000
         vertex -1.989651e+000 -1.774150e+000 3.485484e+000
      endloop
   endfacet
   facet normal -9.998644e-001 -1.646952e-002 -1.191585e-015
      outer loop
         vertex -1.989651e+000 -1.774150e+000 3.485484e+000
         vertex -1.994746e+000 -1.464854e+000 4.597558e+000
         vertex -1.995034e+000 -1.447350e+000 4.569127e+000
      endloop
   endfacet
   facet normal -9.998644e-001 -1.646952e-002 -1.191585e-015
      outer loop
         vertex -1.989651e+000 -1.774150e+000 3.485484e+000
         vertex -1.995034e+000 -1.447350e+000 4.569127e+000
         vertex -1.995397e+000 -1.425295e+000 4.544064e+000
      endloop
   endfacet
   facet normal -9.998644e-001 -1.646952e-002 -1.191585e-015
      outer loop
         vertex -2.000810e+000 -1.096699e+000 4.727654e+000
         vertex -2.000649e+000 -1.106474e+000 4.759578e+000
         vertex -2.005695e+000 -8.001228e-001 5.125615e+000
      endloop
   endfacet
   facet normal -9.998644e-001 -1.646952e-002 -1.191585e-015
      outer loop
         vertex -1.997365e+000 -1.305797e+000 4.490040e+000
         vertex -1.991189e+000 -1.680784e+000 3.235852e+000
         vertex -1.996824e+000 -1.338700e+000 4.495682e+000
      endloop
   endfacet
   facet normal -9.998644e-001 -1.646952e-002 -1.191585e-015
      outer loop
         vertex -1.996824e+000 -1.338700e+000 4.495682e+000
         vertex -1.991189e+000 -1.680784e+000 3.235852e+000
         vertex -1.991124e+000 -1.684693e+000 3.291134e+000
      endloop
   endfacet
   facet normal -9.998644e-001 -1.646952e-002 -1.191585e-015
      outer loop
         vertex -1.996824e+000 -1.338700e+000 4.495682e+000
         vertex -1.991124e+000 -1.684693e+000 3.291134e+000
         vertex -1.990932e+000 -1.696374e+000 3.344099e+000
      endloop
   endfacet
   facet normal -9.998644e-001 -1.646952e-002 -1.191585e-015
      outer loop
         vertex -2.004730e+000 -8.586615e-001 3.394454e+000
         vertex -2.004414e+000 -8.778988e-001 3.344099e+000
         vertex -1.998457e+000 -1.239510e+000 4.495682e+000
      endloop
   endfacet
   facet normal -9.998644e-001 -1.646952e-002 -1.191585e-015
      outer loop
         vertex -1.998976e+000 -1.208033e+000 4.506805e+000
         vertex -1.999456e+000 -1.178888e+000 4.523088e+000
         vertex -2.005695e+000 -8.001228e-001 3.485484e+000
      endloop
   endfacet
   facet normal -9.998644e-001 -1.646952e-002 -1.191585e-015
      outer loop
         vertex -2.005695e+000 -8.001228e-001 3.485484e+000
         vertex -1.999456e+000 -1.178888e+000 4.523088e+000
         vertex -1.999884e+000 -1.152915e+000 4.544064e+000
      endloop
   endfacet
   facet normal -9.998644e-001 -1.646952e-002 -1.191585e-015
      outer loop
         vertex -2.005695e+000 -8.001228e-001 3.485484e+000
         vertex -1.999884e+000 -1.152915e+000 4.544064e+000
         vertex -2.000247e+000 -1.130859e+000 4.569127e+000
      endloop
   endfacet
   facet normal -9.998644e-001 -1.646952e-002 -1.191585e-015
      outer loop
         vertex -2.000810e+000 -1.096699e+000 4.727654e+000
         vertex -2.005695e+000 -8.001228e-001 5.125615e+000
         vertex -2.000880e+000 -1.092458e+000 4.694536e+000
      endloop
   endfacet
   facet normal -9.998644e-001 -1.646952e-002 -1.191585e-015
      outer loop
         vertex -1.990760e+000 -1.706810e+000 5.156020e+000
         vertex -1.992256e+000 -1.615990e+000 5.189873e+000
         vertex -1.996059e+000 -1.385095e+000 4.858034e+000
      endloop
   endfacet
   facet normal -9.998644e-001 -1.646952e-002 -1.191585e-015
      outer loop
         vertex -1.996059e+000 -1.385095e+000 4.858034e+000
         vertex -1.992256e+000 -1.615990e+000 5.189873e+000
         vertex -1.993737e+000 -1.526076e+000 5.215295e+000
      endloop
   endfacet
   facet normal -9.998644e-001 -1.646952e-002 -1.191585e-015
      outer loop
         vertex -1.996059e+000 -1.385095e+000 4.858034e+000
         vertex -1.993737e+000 -1.526076e+000 5.215295e+000
         vertex -1.996560e+000 -1.354675e+000 4.871787e+000
      endloop
   endfacet
   facet normal -9.998644e-001 -1.646952e-002 -1.191585e-015
      outer loop
         vertex -1.996560e+000 -1.354675e+000 4.871787e+000
         vertex -1.993737e+000 -1.526076e+000 5.215295e+000
         vertex -1.995209e+000 -1.436743e+000 5.232580e+000
      endloop
   endfacet
   facet normal -9.998644e-001 -1.646952e-002 -1.191585e-015
      outer loop
         vertex -1.996560e+000 -1.354675e+000 4.871787e+000
         vertex -1.995209e+000 -1.436743e+000 5.232580e+000
         vertex -1.997092e+000 -1.322368e+000 4.880200e+000
      endloop
   endfacet
   facet normal -9.998644e-001 -1.646952e-002 -1.191585e-015
      outer loop
         vertex -1.997092e+000 -1.322368e+000 4.880200e+000
         vertex -1.995209e+000 -1.436743e+000 5.232580e+000
         vertex -1.996676e+000 -1.347646e+000 5.241902e+000
      endloop
   endfacet
   facet normal -9.998644e-001 -1.646952e-002 -1.191585e-015
      outer loop
         vertex -1.997092e+000 -1.322368e+000 4.880200e+000
         vertex -1.996676e+000 -1.347646e+000 5.241902e+000
         vertex -1.997640e+000 -1.289105e+000 4.883031e+000
      endloop
   endfacet
   facet normal -9.998644e-001 -1.646952e-002 -1.191585e-015
      outer loop
         vertex -1.997640e+000 -1.289105e+000 4.883031e+000
         vertex -1.996676e+000 -1.347646e+000 5.241902e+000
         vertex -1.998146e+000 -1.258435e+000 5.243315e+000
      endloop
   endfacet
   facet normal -9.998644e-001 -1.646952e-002 -1.191585e-015
      outer loop
         vertex -1.997640e+000 -1.289105e+000 4.883031e+000
         vertex -1.998146e+000 -1.258435e+000 5.243315e+000
         vertex -1.998188e+000 -1.255841e+000 4.880200e+000
      endloop
   endfacet
   facet normal -9.998644e-001 -1.646952e-002 -1.191585e-015
      outer loop
         vertex -1.998188e+000 -1.255841e+000 4.880200e+000
         vertex -1.998146e+000 -1.258435e+000 5.243315e+000
         vertex -1.999623e+000 -1.168758e+000 5.236747e+000
      endloop
   endfacet
   facet normal -9.998644e-001 -1.646952e-002 -1.191585e-015
      outer loop
         vertex -1.998188e+000 -1.255841e+000 4.880200e+000
         vertex -1.999623e+000 -1.168758e+000 5.236747e+000
         vertex -1.998721e+000 -1.223535e+000 4.871787e+000
      endloop
   endfacet
   facet normal -9.998644e-001 -1.646952e-002 -1.191585e-015
      outer loop
         vertex -1.998721e+000 -1.223535e+000 4.871787e+000
         vertex -1.999623e+000 -1.168758e+000 5.236747e+000
         vertex -2.001113e+000 -1.078268e+000 5.222001e+000
      endloop
   endfacet
   facet normal -9.998644e-001 -1.646952e-002 -1.191585e-015
      outer loop
         vertex -1.998721e+000 -1.223535e+000 4.871787e+000
         vertex -2.001113e+000 -1.078268e+000 5.222001e+000
         vertex -1.999221e+000 -1.193115e+000 4.858034e+000
      endloop
   endfacet
   facet normal -9.998644e-001 -1.646952e-002 -1.191585e-015
      outer loop
         vertex -1.999221e+000 -1.193115e+000 4.858034e+000
         vertex -2.001113e+000 -1.078268e+000 5.222001e+000
         vertex -2.002623e+000 -9.866277e-001 5.198756e+000
      endloop
   endfacet
   facet normal -9.998644e-001 -1.646952e-002 -1.191585e-015
      outer loop
         vertex -1.999221e+000 -1.193115e+000 4.858034e+000
         vertex -2.002623e+000 -9.866277e-001 5.198756e+000
         vertex -1.999677e+000 -1.165456e+000 4.839338e+000
      endloop
   endfacet
   facet normal -9.998644e-001 -1.646952e-002 -1.191585e-015
      outer loop
         vertex -1.999677e+000 -1.165456e+000 4.839338e+000
         vertex -2.002623e+000 -9.866277e-001 5.198756e+000
         vertex -2.004156e+000 -8.935325e-001 5.166578e+000
      endloop
   endfacet
   facet normal -9.998644e-001 -1.646952e-002 -1.191585e-015
      outer loop
         vertex -1.999677e+000 -1.165456e+000 4.839338e+000
         vertex -2.004156e+000 -8.935325e-001 5.166578e+000
         vertex -2.000074e+000 -1.141355e+000 4.816235e+000
      endloop
   endfacet
   facet normal -9.998644e-001 -1.646952e-002 -1.191585e-015
      outer loop
         vertex -2.000074e+000 -1.141355e+000 4.816235e+000
         vertex -2.004156e+000 -8.935325e-001 5.166578e+000
         vertex -2.005695e+000 -8.001228e-001 5.125615e+000
      endloop
   endfacet
   facet normal -9.998644e-001 -1.646952e-002 -1.191585e-015
      outer loop
         vertex -2.000074e+000 -1.141355e+000 4.816235e+000
         vertex -2.005695e+000 -8.001228e-001 5.125615e+000
         vertex -2.000401e+000 -1.121504e+000 4.789391e+000
      endloop
   endfacet
   facet normal -9.998644e-001 -1.646952e-002 -1.191585e-015
      outer loop
         vertex -2.000401e+000 -1.121504e+000 4.789391e+000
         vertex -2.005695e+000 -8.001228e-001 5.125615e+000
         vertex -2.000649e+000 -1.106474e+000 4.759578e+000
      endloop
   endfacet
   facet normal -9.998644e-001 -1.646952e-002 -1.191585e-015
      outer loop
         vertex -2.004414e+000 -8.778988e-001 3.344099e+000
         vertex -2.004221e+000 -8.895798e-001 3.291134e+000
         vertex -1.998457e+000 -1.239510e+000 4.495682e+000
      endloop
   endfacet
   facet normal -9.998644e-001 -1.646952e-002 -1.191585e-015
      outer loop
         vertex -1.998457e+000 -1.239510e+000 4.495682e+000
         vertex -2.004221e+000 -8.895798e-001 3.291134e+000
         vertex -2.004157e+000 -8.934891e-001 3.235852e+000
      endloop
   endfacet
   facet normal -9.998644e-001 -1.646952e-002 -1.191585e-015
      outer loop
         vertex -1.998457e+000 -1.239510e+000 4.495682e+000
         vertex -2.004157e+000 -8.934891e-001 3.235852e+000
         vertex -1.997915e+000 -1.272413e+000 4.490040e+000
      endloop
   endfacet
   facet normal -9.998644e-001 -1.646952e-002 -1.191585e-015
      outer loop
         vertex -1.997915e+000 -1.272413e+000 4.490040e+000
         vertex -2.004157e+000 -8.934891e-001 3.235852e+000
         vertex -2.004157e+000 -8.934891e-001 2.369710e+000
      endloop
   endfacet
   facet normal -9.998644e-001 -1.646952e-002 -1.191585e-015
      outer loop
         vertex -1.997915e+000 -1.272413e+000 4.490040e+000
         vertex -2.004157e+000 -8.934891e-001 2.369710e+000
         vertex -1.997365e+000 -1.305797e+000 4.490040e+000
      endloop
   endfacet
   facet normal -9.998644e-001 -1.646952e-002 -1.191585e-015
      outer loop
         vertex -1.997365e+000 -1.305797e+000 4.490040e+000
         vertex -2.004157e+000 -8.934891e-001 2.369710e+000
         vertex -1.991189e+000 -1.680784e+000 2.369710e+000
      endloop
   endfacet
   facet normal -9.998644e-001 -1.646952e-002 -1.191585e-015
      outer loop
         vertex -1.997365e+000 -1.305797e+000 4.490040e+000
         vertex -1.991189e+000 -1.680784e+000 2.369710e+000
         vertex -1.991189e+000 -1.680784e+000 3.235852e+000
      endloop
   endfacet
   facet normal -9.998644e-001 -1.646952e-002 -1.191585e-015
      outer loop
         vertex -2.000247e+000 -1.130859e+000 4.569127e+000
         vertex -2.000535e+000 -1.113356e+000 4.597558e+000
         vertex -2.005695e+000 -8.001228e-001 3.485484e+000
      endloop
   endfacet
   facet normal -9.998644e-001 -1.646952e-002 -1.191585e-015
      outer loop
         vertex -2.005695e+000 -8.001228e-001 3.485484e+000
         vertex -2.000535e+000 -1.113356e+000 4.597558e+000
         vertex -2.000740e+000 -1.100909e+000 4.628539e+000
      endloop
   endfacet
   facet normal -9.998644e-001 -1.646952e-002 -1.191585e-015
      outer loop
         vertex -2.005695e+000 -8.001228e-001 3.485484e+000
         vertex -2.000740e+000 -1.100909e+000 4.628539e+000
         vertex -2.005695e+000 -8.001228e-001 5.125615e+000
      endloop
   endfacet
   facet normal -9.998644e-001 -1.646952e-002 -1.191585e-015
      outer loop
         vertex -2.005695e+000 -8.001228e-001 5.125615e+000
         vertex -2.000740e+000 -1.100909e+000 4.628539e+000
         vertex -2.000856e+000 -1.093875e+000 4.661178e+000
      endloop
   endfacet
   facet normal -9.998644e-001 -1.646952e-002 -1.191585e-015
      outer loop
         vertex -2.005695e+000 -8.001228e-001 5.125615e+000
         vertex -2.000856e+000 -1.093875e+000 4.661178e+000
         vertex -2.000880e+000 -1.092458e+000 4.694536e+000
      endloop
   endfacet
   facet normal -9.998644e-001 -1.646952e-002 -1.191585e-015
      outer loop
         vertex -1.995397e+000 -1.425295e+000 4.544064e+000
         vertex -1.995825e+000 -1.399321e+000 4.523088e+000
         vertex -1.989651e+000 -1.774150e+000 3.485484e+000
      endloop
   endfacet
   facet normal -9.998644e-001 -1.646952e-002 -1.191585e-015
      outer loop
         vertex -1.989651e+000 -1.774150e+000 3.485484e+000
         vertex -1.995825e+000 -1.399321e+000 4.523088e+000
         vertex -1.996305e+000 -1.370177e+000 4.506805e+000
      endloop
   endfacet
   facet normal -9.998644e-001 -1.646952e-002 -1.191585e-015
      outer loop
         vertex -1.989651e+000 -1.774150e+000 3.485484e+000
         vertex -1.996305e+000 -1.370177e+000 4.506805e+000
         vertex -1.990172e+000 -1.742526e+000 3.442774e+000
      endloop
   endfacet
   facet normal -9.998644e-001 -1.646952e-002 -1.191585e-015
      outer loop
         vertex -1.990172e+000 -1.742526e+000 3.442774e+000
         vertex -1.996305e+000 -1.370177e+000 4.506805e+000
         vertex -1.996824e+000 -1.338700e+000 4.495682e+000
      endloop
   endfacet
   facet normal -9.998644e-001 -1.646952e-002 -1.191585e-015
      outer loop
         vertex -1.990172e+000 -1.742526e+000 3.442774e+000
         vertex -1.996824e+000 -1.338700e+000 4.495682e+000
         vertex -1.990615e+000 -1.715612e+000 3.394454e+000
      endloop
   endfacet
   facet normal -9.998644e-001 -1.646952e-002 -1.191585e-015
      outer loop
         vertex -1.990615e+000 -1.715612e+000 3.394454e+000
         vertex -1.996824e+000 -1.338700e+000 4.495682e+000
         vertex -1.990932e+000 -1.696374e+000 3.344099e+000
      endloop
   endfacet
   facet normal -9.998644e-001 -1.646952e-002 -1.191585e-015
      outer loop
         vertex -1.998976e+000 -1.208033e+000 4.506805e+000
         vertex -2.005695e+000 -8.001228e-001 3.485484e+000
         vertex -1.998457e+000 -1.239510e+000 4.495682e+000
      endloop
   endfacet
   facet normal -9.998644e-001 -1.646952e-002 -1.191585e-015
      outer loop
         vertex -1.998457e+000 -1.239510e+000 4.495682e+000
         vertex -2.005695e+000 -8.001228e-001 3.485484e+000
         vertex -2.005174e+000 -8.317471e-001 3.442774e+000
      endloop
   endfacet
   facet normal -9.998644e-001 -1.646952e-002 -1.191585e-015
      outer loop
         vertex -1.998457e+000 -1.239510e+000 4.495682e+000
         vertex -2.005174e+000 -8.317471e-001 3.442774e+000
         vertex -2.004730e+000 -8.586615e-001 3.394454e+000
      endloop
   endfacet
   facet normal 9.998644e-001 1.646952e-002 1.191585e-015
      outer loop
         vertex -1.921345e+000 -1.140058e+000 4.816235e+000
         vertex -1.926965e+000 -7.988260e-001 5.125615e+000
         vertex -1.920948e+000 -1.164159e+000 4.839338e+000
      endloop
   endfacet
   facet normal 9.998644e-001 1.646952e-002 1.191585e-015
      outer loop
         vertex -1.920948e+000 -1.164159e+000 4.839338e+000
         vertex -1.926965e+000 -7.988260e-001 5.125615e+000
         vertex -1.925427e+000 -8.922357e-001 5.166578e+000
      endloop
   endfacet
   facet normal 9.998644e-001 1.646952e-002 1.191585e-015
      outer loop
         vertex -1.920948e+000 -1.164159e+000 4.839338e+000
         vertex -1.925427e+000 -8.922357e-001 5.166578e+000
         vertex -1.920492e+000 -1.191818e+000 4.858034e+000
      endloop
   endfacet
   facet normal 9.998644e-001 1.646952e-002 1.191585e-015
      outer loop
         vertex -1.920492e+000 -1.191818e+000 4.858034e+000
         vertex -1.925427e+000 -8.922357e-001 5.166578e+000
         vertex -1.923893e+000 -9.853309e-001 5.198756e+000
      endloop
   endfacet
   facet normal 9.998644e-001 1.646952e-002 1.191585e-015
      outer loop
         vertex -1.920492e+000 -1.191818e+000 4.858034e+000
         vertex -1.923893e+000 -9.853309e-001 5.198756e+000
         vertex -1.919991e+000 -1.222238e+000 4.871787e+000
      endloop
   endfacet
   facet normal 9.998644e-001 1.646952e-002 1.191585e-015
      outer loop
         vertex -1.919991e+000 -1.222238e+000 4.871787e+000
         vertex -1.923893e+000 -9.853309e-001 5.198756e+000
         vertex -1.922384e+000 -1.076971e+000 5.222001e+000
      endloop
   endfacet
   facet normal 9.998644e-001 1.646952e-002 1.191585e-015
      outer loop
         vertex -1.919991e+000 -1.222238e+000 4.871787e+000
         vertex -1.922384e+000 -1.076971e+000 5.222001e+000
         vertex -1.919459e+000 -1.254545e+000 4.880200e+000
      endloop
   endfacet
   facet normal 9.998644e-001 1.646952e-002 1.191585e-015
      outer loop
         vertex -1.919459e+000 -1.254545e+000 4.880200e+000
         vertex -1.922384e+000 -1.076971e+000 5.222001e+000
         vertex -1.920893e+000 -1.167462e+000 5.236747e+000
      endloop
   endfacet
   facet normal 9.998644e-001 1.646952e-002 1.191585e-015
      outer loop
         vertex -1.919459e+000 -1.254545e+000 4.880200e+000
         vertex -1.920893e+000 -1.167462e+000 5.236747e+000
         vertex -1.918911e+000 -1.287808e+000 4.883031e+000
      endloop
   endfacet
   facet normal 9.998644e-001 1.646952e-002 1.191585e-015
      outer loop
         vertex -1.918911e+000 -1.287808e+000 4.883031e+000
         vertex -1.920893e+000 -1.167462e+000 5.236747e+000
         vertex -1.919416e+000 -1.257138e+000 5.243315e+000
      endloop
   endfacet
   facet normal 9.998644e-001 1.646952e-002 1.191585e-015
      outer loop
         vertex -1.918911e+000 -1.287808e+000 4.883031e+000
         vertex -1.919416e+000 -1.257138e+000 5.243315e+000
         vertex -1.918363e+000 -1.321071e+000 4.880200e+000
      endloop
   endfacet
   facet normal 9.998644e-001 1.646952e-002 1.191585e-015
      outer loop
         vertex -1.918363e+000 -1.321071e+000 4.880200e+000
         vertex -1.919416e+000 -1.257138e+000 5.243315e+000
         vertex -1.917947e+000 -1.346349e+000 5.241902e+000
      endloop
   endfacet
   facet normal 9.998644e-001 1.646952e-002 1.191585e-015
      outer loop
         vertex -1.918363e+000 -1.321071e+000 4.880200e+000
         vertex -1.917947e+000 -1.346349e+000 5.241902e+000
         vertex -1.917831e+000 -1.353378e+000 4.871787e+000
      endloop
   endfacet
   facet normal 9.998644e-001 1.646952e-002 1.191585e-015
      outer loop
         vertex -1.921345e+000 -1.140058e+000 4.816235e+000
         vertex -1.921672e+000 -1.120207e+000 4.789391e+000
         vertex -1.926965e+000 -7.988260e-001 5.125615e+000
      endloop
   endfacet
   facet normal 9.998644e-001 1.646952e-002 1.191585e-015
      outer loop
         vertex -1.926965e+000 -7.988260e-001 5.125615e+000
         vertex -1.921672e+000 -1.120207e+000 4.789391e+000
         vertex -1.921919e+000 -1.105177e+000 4.759578e+000
      endloop
   endfacet
   facet normal 9.998644e-001 1.646952e-002 1.191585e-015
      outer loop
         vertex -1.926965e+000 -7.988260e-001 5.125615e+000
         vertex -1.921919e+000 -1.105177e+000 4.759578e+000
         vertex -1.922080e+000 -1.095402e+000 4.727654e+000
      endloop
   endfacet
   facet normal 9.998644e-001 1.646952e-002 1.191585e-015
      outer loop
         vertex -1.922080e+000 -1.095402e+000 4.727654e+000
         vertex -1.922150e+000 -1.091162e+000 4.694536e+000
         vertex -1.926965e+000 -7.988260e-001 5.125615e+000
      endloop
   endfacet
   facet normal 9.998644e-001 1.646952e-002 1.191585e-015
      outer loop
         vertex -1.926965e+000 -7.988260e-001 5.125615e+000
         vertex -1.922150e+000 -1.091162e+000 4.694536e+000
         vertex -1.922127e+000 -1.092578e+000 4.661178e+000
      endloop
   endfacet
   facet normal 9.998644e-001 1.646952e-002 1.191585e-015
      outer loop
         vertex -1.926965e+000 -7.988260e-001 5.125615e+000
         vertex -1.922127e+000 -1.092578e+000 4.661178e+000
         vertex -1.926965e+000 -7.988260e-001 3.485484e+000
      endloop
   endfacet
   facet normal 9.998644e-001 1.646952e-002 1.191585e-015
      outer loop
         vertex -1.926965e+000 -7.988260e-001 3.485484e+000
         vertex -1.922127e+000 -1.092578e+000 4.661178e+000
         vertex -1.922011e+000 -1.099612e+000 4.628539e+000
      endloop
   endfacet
   facet normal 9.998644e-001 1.646952e-002 1.191585e-015
      outer loop
         vertex -1.922011e+000 -1.099612e+000 4.628539e+000
         vertex -1.921806e+000 -1.112059e+000 4.597558e+000
         vertex -1.926965e+000 -7.988260e-001 3.485484e+000
      endloop
   endfacet
   facet normal 9.998644e-001 1.646952e-002 1.191585e-015
      outer loop
         vertex -1.926965e+000 -7.988260e-001 3.485484e+000
         vertex -1.921806e+000 -1.112059e+000 4.597558e+000
         vertex -1.921517e+000 -1.129562e+000 4.569127e+000
      endloop
   endfacet
   facet normal 9.998644e-001 1.646952e-002 1.191585e-015
      outer loop
         vertex -1.926965e+000 -7.988260e-001 3.485484e+000
         vertex -1.921517e+000 -1.129562e+000 4.569127e+000
         vertex -1.921154e+000 -1.151618e+000 4.544064e+000
      endloop
   endfacet
   facet normal 9.998644e-001 1.646952e-002 1.191585e-015
      outer loop
         vertex -1.917576e+000 -1.368880e+000 4.506805e+000
         vertex -1.917095e+000 -1.398024e+000 4.523088e+000
         vertex -1.910921e+000 -1.772853e+000 3.485484e+000
      endloop
   endfacet
   facet normal 9.998644e-001 1.646952e-002 1.191585e-015
      outer loop
         vertex -1.910921e+000 -1.772853e+000 3.485484e+000
         vertex -1.917095e+000 -1.398024e+000 4.523088e+000
         vertex -1.916668e+000 -1.423998e+000 4.544064e+000
      endloop
   endfacet
   facet normal 9.998644e-001 1.646952e-002 1.191585e-015
      outer loop
         vertex -1.910921e+000 -1.772853e+000 3.485484e+000
         vertex -1.916668e+000 -1.423998e+000 4.544064e+000
         vertex -1.916304e+000 -1.446054e+000 4.569127e+000
      endloop
   endfacet
   facet normal 9.998644e-001 1.646952e-002 1.191585e-015
      outer loop
         vertex -1.915672e+000 -1.484454e+000 4.694536e+000
         vertex -1.915742e+000 -1.480214e+000 4.727654e+000
         vertex -1.910921e+000 -1.772853e+000 5.125615e+000
      endloop
   endfacet
   facet normal 9.998644e-001 1.646952e-002 1.191585e-015
      outer loop
         vertex -1.910921e+000 -1.772853e+000 5.125615e+000
         vertex -1.915742e+000 -1.480214e+000 4.727654e+000
         vertex -1.915903e+000 -1.470438e+000 4.759578e+000
      endloop
   endfacet
   facet normal 9.998644e-001 1.646952e-002 1.191585e-015
      outer loop
         vertex -1.919186e+000 -1.271116e+000 4.490040e+000
         vertex -1.925427e+000 -8.921923e-001 3.235852e+000
         vertex -1.919728e+000 -1.238213e+000 4.495682e+000
      endloop
   endfacet
   facet normal 9.998644e-001 1.646952e-002 1.191585e-015
      outer loop
         vertex -1.919728e+000 -1.238213e+000 4.495682e+000
         vertex -1.925427e+000 -8.921923e-001 3.235852e+000
         vertex -1.925492e+000 -8.882830e-001 3.291134e+000
      endloop
   endfacet
   facet normal 9.998644e-001 1.646952e-002 1.191585e-015
      outer loop
         vertex -1.919728e+000 -1.238213e+000 4.495682e+000
         vertex -1.925492e+000 -8.882830e-001 3.291134e+000
         vertex -1.925684e+000 -8.766019e-001 3.344099e+000
      endloop
   endfacet
   facet normal 9.998644e-001 1.646952e-002 1.191585e-015
      outer loop
         vertex -1.911886e+000 -1.714315e+000 3.394454e+000
         vertex -1.912202e+000 -1.695078e+000 3.344099e+000
         vertex -1.918094e+000 -1.337403e+000 4.495682e+000
      endloop
   endfacet
   facet normal 9.998644e-001 1.646952e-002 1.191585e-015
      outer loop
         vertex -1.916304e+000 -1.446054e+000 4.569127e+000
         vertex -1.916016e+000 -1.463557e+000 4.597558e+000
         vertex -1.910921e+000 -1.772853e+000 3.485484e+000
      endloop
   endfacet
   facet normal 9.998644e-001 1.646952e-002 1.191585e-015
      outer loop
         vertex -1.910921e+000 -1.772853e+000 3.485484e+000
         vertex -1.916016e+000 -1.463557e+000 4.597558e+000
         vertex -1.915811e+000 -1.476004e+000 4.628539e+000
      endloop
   endfacet
   facet normal 9.998644e-001 1.646952e-002 1.191585e-015
      outer loop
         vertex -1.910921e+000 -1.772853e+000 3.485484e+000
         vertex -1.915811e+000 -1.476004e+000 4.628539e+000
         vertex -1.910921e+000 -1.772853e+000 5.125615e+000
      endloop
   endfacet
   facet normal 9.998644e-001 1.646952e-002 1.191585e-015
      outer loop
         vertex -1.910921e+000 -1.772853e+000 5.125615e+000
         vertex -1.915811e+000 -1.476004e+000 4.628539e+000
         vertex -1.915695e+000 -1.483037e+000 4.661178e+000
      endloop
   endfacet
   facet normal 9.998644e-001 1.646952e-002 1.191585e-015
      outer loop
         vertex -1.910921e+000 -1.772853e+000 5.125615e+000
         vertex -1.915695e+000 -1.483037e+000 4.661178e+000
         vertex -1.915672e+000 -1.484454e+000 4.694536e+000
      endloop
   endfacet
   facet normal 9.998644e-001 1.646952e-002 1.191585e-015
      outer loop
         vertex -1.917947e+000 -1.346349e+000 5.241902e+000
         vertex -1.916479e+000 -1.435446e+000 5.232580e+000
         vertex -1.917831e+000 -1.353378e+000 4.871787e+000
      endloop
   endfacet
   facet normal 9.998644e-001 1.646952e-002 1.191585e-015
      outer loop
         vertex -1.917831e+000 -1.353378e+000 4.871787e+000
         vertex -1.916479e+000 -1.435446e+000 5.232580e+000
         vertex -1.915008e+000 -1.524780e+000 5.215295e+000
      endloop
   endfacet
   facet normal 9.998644e-001 1.646952e-002 1.191585e-015
      outer loop
         vertex -1.917831e+000 -1.353378e+000 4.871787e+000
         vertex -1.915008e+000 -1.524780e+000 5.215295e+000
         vertex -1.917330e+000 -1.383798e+000 4.858034e+000
      endloop
   endfacet
   facet normal 9.998644e-001 1.646952e-002 1.191585e-015
      outer loop
         vertex -1.917330e+000 -1.383798e+000 4.858034e+000
         vertex -1.915008e+000 -1.524780e+000 5.215295e+000
         vertex -1.913527e+000 -1.614693e+000 5.189873e+000
      endloop
   endfacet
   facet normal 9.998644e-001 1.646952e-002 1.191585e-015
      outer loop
         vertex -1.917330e+000 -1.383798e+000 4.858034e+000
         vertex -1.913527e+000 -1.614693e+000 5.189873e+000
         vertex -1.916874e+000 -1.411456e+000 4.839338e+000
      endloop
   endfacet
   facet normal 9.998644e-001 1.646952e-002 1.191585e-015
      outer loop
         vertex -1.916874e+000 -1.411456e+000 4.839338e+000
         vertex -1.913527e+000 -1.614693e+000 5.189873e+000
         vertex -1.912031e+000 -1.705514e+000 5.156020e+000
      endloop
   endfacet
   facet normal 9.998644e-001 1.646952e-002 1.191585e-015
      outer loop
         vertex -1.916874e+000 -1.411456e+000 4.839338e+000
         vertex -1.912031e+000 -1.705514e+000 5.156020e+000
         vertex -1.916477e+000 -1.435558e+000 4.816235e+000
      endloop
   endfacet
   facet normal 9.998644e-001 1.646952e-002 1.191585e-015
      outer loop
         vertex -1.916477e+000 -1.435558e+000 4.816235e+000
         vertex -1.912031e+000 -1.705514e+000 5.156020e+000
         vertex -1.910921e+000 -1.772853e+000 5.125615e+000
      endloop
   endfacet
   facet normal 9.998644e-001 1.646952e-002 1.191585e-015
      outer loop
         vertex -1.916477e+000 -1.435558e+000 4.816235e+000
         vertex -1.910921e+000 -1.772853e+000 5.125615e+000
         vertex -1.916150e+000 -1.455409e+000 4.789391e+000
      endloop
   endfacet
   facet normal 9.998644e-001 1.646952e-002 1.191585e-015
      outer loop
         vertex -1.916150e+000 -1.455409e+000 4.789391e+000
         vertex -1.910921e+000 -1.772853e+000 5.125615e+000
         vertex -1.915903e+000 -1.470438e+000 4.759578e+000
      endloop
   endfacet
   facet normal 9.998644e-001 1.646952e-002 1.191585e-015
      outer loop
         vertex -1.912202e+000 -1.695078e+000 3.344099e+000
         vertex -1.912395e+000 -1.683396e+000 3.291134e+000
         vertex -1.918094e+000 -1.337403e+000 4.495682e+000
      endloop
   endfacet
   facet normal 9.998644e-001 1.646952e-002 1.191585e-015
      outer loop
         vertex -1.918094e+000 -1.337403e+000 4.495682e+000
         vertex -1.912395e+000 -1.683396e+000 3.291134e+000
         vertex -1.912459e+000 -1.679487e+000 3.235852e+000
      endloop
   endfacet
   facet normal 9.998644e-001 1.646952e-002 1.191585e-015
      outer loop
         vertex -1.918094e+000 -1.337403e+000 4.495682e+000
         vertex -1.912459e+000 -1.679487e+000 3.235852e+000
         vertex -1.918636e+000 -1.304500e+000 4.490040e+000
      endloop
   endfacet
   facet normal 9.998644e-001 1.646952e-002 1.191585e-015
      outer loop
         vertex -1.918636e+000 -1.304500e+000 4.490040e+000
         vertex -1.912459e+000 -1.679487e+000 3.235852e+000
         vertex -1.912459e+000 -1.679487e+000 2.369710e+000
      endloop
   endfacet
   facet normal 9.998644e-001 1.646952e-002 1.191585e-015
      outer loop
         vertex -1.918636e+000 -1.304500e+000 4.490040e+000
         vertex -1.912459e+000 -1.679487e+000 2.369710e+000
         vertex -1.919186e+000 -1.271116e+000 4.490040e+000
      endloop
   endfacet
   facet normal 9.998644e-001 1.646952e-002 1.191585e-015
      outer loop
         vertex -1.919186e+000 -1.271116e+000 4.490040e+000
         vertex -1.912459e+000 -1.679487e+000 2.369710e+000
         vertex -1.925427e+000 -8.921923e-001 2.369710e+000
      endloop
   endfacet
   facet normal 9.998644e-001 1.646952e-002 1.191585e-015
      outer loop
         vertex -1.919186e+000 -1.271116e+000 4.490040e+000
         vertex -1.925427e+000 -8.921923e-001 2.369710e+000
         vertex -1.925427e+000 -8.921923e-001 3.235852e+000
      endloop
   endfacet
   facet normal 9.998644e-001 1.646952e-002 1.191585e-015
      outer loop
         vertex -1.921154e+000 -1.151618e+000 4.544064e+000
         vertex -1.920726e+000 -1.177592e+000 4.523088e+000
         vertex -1.926965e+000 -7.988260e-001 3.485484e+000
      endloop
   endfacet
   facet normal 9.998644e-001 1.646952e-002 1.191585e-015
      outer loop
         vertex -1.926965e+000 -7.988260e-001 3.485484e+000
         vertex -1.920726e+000 -1.177592e+000 4.523088e+000
         vertex -1.920246e+000 -1.206736e+000 4.506805e+000
      endloop
   endfacet
   facet normal 9.998644e-001 1.646952e-002 1.191585e-015
      outer loop
         vertex -1.926965e+000 -7.988260e-001 3.485484e+000
         vertex -1.920246e+000 -1.206736e+000 4.506805e+000
         vertex -1.926444e+000 -8.304502e-001 3.442774e+000
      endloop
   endfacet
   facet normal 9.998644e-001 1.646952e-002 1.191585e-015
      outer loop
         vertex -1.926444e+000 -8.304502e-001 3.442774e+000
         vertex -1.920246e+000 -1.206736e+000 4.506805e+000
         vertex -1.919728e+000 -1.238213e+000 4.495682e+000
      endloop
   endfacet
   facet normal 9.998644e-001 1.646952e-002 1.191585e-015
      outer loop
         vertex -1.926444e+000 -8.304502e-001 3.442774e+000
         vertex -1.919728e+000 -1.238213e+000 4.495682e+000
         vertex -1.926001e+000 -8.573647e-001 3.394454e+000
      endloop
   endfacet
   facet normal 9.998644e-001 1.646952e-002 1.191585e-015
      outer loop
         vertex -1.926001e+000 -8.573647e-001 3.394454e+000
         vertex -1.919728e+000 -1.238213e+000 4.495682e+000
         vertex -1.925684e+000 -8.766019e-001 3.344099e+000
      endloop
   endfacet
   facet normal 9.998644e-001 1.646952e-002 1.191585e-015
      outer loop
         vertex -1.917576e+000 -1.368880e+000 4.506805e+000
         vertex -1.910921e+000 -1.772853e+000 3.485484e+000
         vertex -1.918094e+000 -1.337403e+000 4.495682e+000
      endloop
   endfacet
   facet normal 9.998644e-001 1.646952e-002 1.191585e-015
      outer loop
         vertex -1.918094e+000 -1.337403e+000 4.495682e+000
         vertex -1.910921e+000 -1.772853e+000 3.485484e+000
         vertex -1.911442e+000 -1.741229e+000 3.442774e+000
      endloop
   endfacet
   facet normal 9.998644e-001 1.646952e-002 1.191585e-015
      outer loop
         vertex -1.918094e+000 -1.337403e+000 4.495682e+000
         vertex -1.911442e+000 -1.741229e+000 3.442774e+000
         vertex -1.911886e+000 -1.714315e+000 3.394454e+000
      endloop
   endfacet
   facet normal -9.307673e-004 5.650688e-002 -9.984018e-001
      outer loop
         vertex -1.918363e+000 -1.321071e+000 4.880200e+000
         vertex -1.997640e+000 -1.289105e+000 4.883031e+000
         vertex -1.918911e+000 -1.287808e+000 4.883031e+000
      endloop
   endfacet
   facet normal 9.307673e-004 -5.650688e-002 -9.984018e-001
      outer loop
         vertex -1.918911e+000 -1.287808e+000 4.883031e+000
         vertex -1.997640e+000 -1.289105e+000 4.883031e+000
         vertex -1.998188e+000 -1.255841e+000 4.880200e+000
      endloop
   endfacet
   facet normal 1.861535e-003 -1.130138e-001 -9.935917e-001
      outer loop
         vertex -1.918911e+000 -1.287808e+000 4.883031e+000
         vertex -1.998188e+000 -1.255841e+000 4.880200e+000
         vertex -1.919459e+000 -1.254545e+000 4.880200e+000
      endloop
   endfacet
   facet normal 3.696293e-003 -2.244019e-001 -9.744897e-001
      outer loop
         vertex -1.919459e+000 -1.254545e+000 4.880200e+000
         vertex -1.998188e+000 -1.255841e+000 4.880200e+000
         vertex -1.998721e+000 -1.223535e+000 4.871787e+000
      endloop
   endfacet
   facet normal 4.600284e-003 -2.792832e-001 -9.601977e-001
      outer loop
         vertex -1.919459e+000 -1.254545e+000 4.880200e+000
         vertex -1.998721e+000 -1.223535e+000 4.871787e+000
         vertex -1.919991e+000 -1.222238e+000 4.871787e+000
      endloop
   endfacet
   facet normal 6.355483e-003 -3.858413e-001 -9.225433e-001
      outer loop
         vertex -1.919991e+000 -1.222238e+000 4.871787e+000
         vertex -1.998721e+000 -1.223535e+000 4.871787e+000
         vertex -1.999221e+000 -1.193115e+000 4.858034e+000
      endloop
   endfacet
   facet normal 7.206691e-003 -4.375181e-001 -8.991807e-001
      outer loop
         vertex -1.919991e+000 -1.222238e+000 4.871787e+000
         vertex -1.999221e+000 -1.193115e+000 4.858034e+000
         vertex -1.920492e+000 -1.191818e+000 4.858034e+000
      endloop
   endfacet
   facet normal 8.831837e-003 -5.361807e-001 -8.440570e-001
      outer loop
         vertex -1.920492e+000 -1.191818e+000 4.858034e+000
         vertex -1.999221e+000 -1.193115e+000 4.858034e+000
         vertex -1.999677e+000 -1.165456e+000 4.839338e+000
      endloop
   endfacet
   facet normal 9.605775e-003 -5.831665e-001 -8.122959e-001
      outer loop
         vertex -1.920492e+000 -1.191818e+000 4.858034e+000
         vertex -1.999677e+000 -1.165456e+000 4.839338e+000
         vertex -1.920948e+000 -1.164159e+000 4.839338e+000
      endloop
   endfacet
   facet normal 1.105412e-002 -6.710953e-001 -7.412887e-001
      outer loop
         vertex -1.920948e+000 -1.164159e+000 4.839338e+000
         vertex -1.999677e+000 -1.165456e+000 4.839338e+000
         vertex -2.000074e+000 -1.141355e+000 4.816235e+000
      endloop
   endfacet
   facet normal 1.172852e-002 -7.120382e-001 -7.020428e-001
      outer loop
         vertex -1.920948e+000 -1.164159e+000 4.839338e+000
         vertex -2.000074e+000 -1.141355e+000 4.816235e+000
         vertex -1.921345e+000 -1.140058e+000 4.816235e+000
      endloop
   endfacet
   facet normal 1.295839e-002 -7.867036e-001 -6.171950e-001
      outer loop
         vertex -1.921345e+000 -1.140058e+000 4.816235e+000
         vertex -2.000074e+000 -1.141355e+000 4.816235e+000
         vertex -2.000401e+000 -1.121504e+000 4.789391e+000
      endloop
   endfacet
   facet normal 1.351385e-002 -8.204259e-001 -5.715931e-001
      outer loop
         vertex -1.921345e+000 -1.140058e+000 4.816235e+000
         vertex -2.000401e+000 -1.121504e+000 4.789391e+000
         vertex -1.921672e+000 -1.120207e+000 4.789391e+000
      endloop
   endfacet
   facet normal 1.448987e-002 -8.796799e-001 -4.753456e-001
      outer loop
         vertex -1.921672e+000 -1.120207e+000 4.789391e+000
         vertex -2.000401e+000 -1.121504e+000 4.789391e+000
         vertex -2.000649e+000 -1.106474e+000 4.759578e+000
      endloop
   endfacet
   facet normal 1.491042e-002 -9.052114e-001 -4.246998e-001
      outer loop
         vertex -1.921672e+000 -1.120207e+000 4.789391e+000
         vertex -2.000649e+000 -1.106474e+000 4.759578e+000
         vertex -1.921919e+000 -1.105177e+000 4.759578e+000
      endloop
   endfacet
   facet normal 1.560450e-002 -9.473494e-001 -3.198213e-001
      outer loop
         vertex -1.921919e+000 -1.105177e+000 4.759578e+000
         vertex -2.000649e+000 -1.106474e+000 4.759578e+000
         vertex -2.000810e+000 -1.096699e+000 4.727654e+000
      endloop
   endfacet
   facet normal 1.587804e-002 -9.639557e-001 -2.655886e-001
      outer loop
         vertex -1.921919e+000 -1.105177e+000 4.759578e+000
         vertex -2.000810e+000 -1.096699e+000 4.727654e+000
         vertex -1.922080e+000 -1.095402e+000 4.727654e+000
      endloop
   endfacet
   facet normal 1.627023e-002 -9.877654e-001 -1.550965e-001
      outer loop
         vertex -1.922080e+000 -1.095402e+000 4.727654e+000
         vertex -2.000810e+000 -1.096699e+000 4.727654e+000
         vertex -2.000880e+000 -1.092458e+000 4.694536e+000
      endloop
   endfacet
   facet normal 1.638888e-002 -9.949687e-001 -9.883699e-002
      outer loop
         vertex -1.922080e+000 -1.095402e+000 4.727654e+000
         vertex -2.000880e+000 -1.092458e+000 4.694536e+000
         vertex -1.922150e+000 -1.091162e+000 4.694536e+000
      endloop
   endfacet
   facet normal 1.646788e-002 -9.997650e-001 1.409025e-002
      outer loop
         vertex -1.922150e+000 -1.091162e+000 4.694536e+000
         vertex -2.000880e+000 -1.092458e+000 4.694536e+000
         vertex -2.000856e+000 -1.093875e+000 4.661178e+000
      endloop
   endfacet
   facet normal 1.642824e-002 -9.973582e-001 7.075801e-002
      outer loop
         vertex -1.922150e+000 -1.091162e+000 4.694536e+000
         vertex -2.000856e+000 -1.093875e+000 4.661178e+000
         vertex -1.922127e+000 -1.092578e+000 4.661178e+000
      endloop
   endfacet
   facet normal 1.619179e-002 -9.830034e-001 1.828716e-001
      outer loop
         vertex -1.922127e+000 -1.092578e+000 4.661178e+000
         vertex -2.000856e+000 -1.093875e+000 4.661178e+000
         vertex -2.000740e+000 -1.100909e+000 4.628539e+000
      endloop
   endfacet
   facet normal 1.599499e-002 -9.710556e-001 2.383175e-001
      outer loop
         vertex -1.922127e+000 -1.092578e+000 4.661178e+000
         vertex -2.000740e+000 -1.100909e+000 4.628539e+000
         vertex -1.922011e+000 -1.099612e+000 4.628539e+000
      endloop
   endfacet
   facet normal 1.544989e-002 -9.379626e-001 3.463921e-001
      outer loop
         vertex -1.922011e+000 -1.099612e+000 4.628539e+000
         vertex -2.000740e+000 -1.100909e+000 4.628539e+000
         vertex -2.000535e+000 -1.113356e+000 4.597558e+000
      endloop
   endfacet
   facet normal 1.510159e-002 -9.168174e-001 3.990209e-001
      outer loop
         vertex -1.922011e+000 -1.099612e+000 4.628539e+000
         vertex -2.000535e+000 -1.113356e+000 4.597558e+000
         vertex -1.921806e+000 -1.112059e+000 4.597558e+000
      endloop
   endfacet
   facet normal 1.426352e-002 -8.659382e-001 4.999475e-001
      outer loop
         vertex -1.921806e+000 -1.112059e+000 4.597558e+000
         vertex -2.000535e+000 -1.113356e+000 4.597558e+000
         vertex -2.000247e+000 -1.130859e+000 4.569127e+000
      endloop
   endfacet
   facet normal 1.377375e-002 -8.362041e-001 5.482453e-001
      outer loop
         vertex -1.921806e+000 -1.112059e+000 4.597558e+000
         vertex -2.000247e+000 -1.130859e+000 4.569127e+000
         vertex -1.921517e+000 -1.129562e+000 4.569127e+000
      endloop
   endfacet
   facet normal 1.266682e-002 -7.690024e-001 6.391204e-001
      outer loop
         vertex -1.921517e+000 -1.129562e+000 4.569127e+000
         vertex -2.000247e+000 -1.130859e+000 4.569127e+000
         vertex -1.999884e+000 -1.152915e+000 4.544064e+000
      endloop
   endfacet
   facet normal 1.204966e-002 -7.315348e-001 6.816977e-001
      outer loop
         vertex -1.921517e+000 -1.129562e+000 4.569127e+000
         vertex -1.999884e+000 -1.152915e+000 4.544064e+000
         vertex -1.921154e+000 -1.151618e+000 4.544064e+000
      endloop
   endfacet
   facet normal 1.070572e-002 -6.499438e-001 7.599069e-001
      outer loop
         vertex -1.921154e+000 -1.151618e+000 4.544064e+000
         vertex -1.999884e+000 -1.152915e+000 4.544064e+000
         vertex -1.999456e+000 -1.178888e+000 4.523088e+000
      endloop
   endfacet
   facet normal 9.978925e-003 -6.058204e-001 7.955388e-001
      outer loop
         vertex -1.921154e+000 -1.151618e+000 4.544064e+000
         vertex -1.999456e+000 -1.178888e+000 4.523088e+000
         vertex -1.920726e+000 -1.177592e+000 4.523088e+000
      endloop
   endfacet
   facet normal 8.436626e-003 -5.121875e-001 8.588322e-001
      outer loop
         vertex -1.920726e+000 -1.177592e+000 4.523088e+000
         vertex -1.999456e+000 -1.178888e+000 4.523088e+000
         vertex -1.998976e+000 -1.208033e+000 4.506805e+000
      endloop
   endfacet
   facet normal 7.621115e-003 -4.626778e-001 8.864937e-001
      outer loop
         vertex -1.920726e+000 -1.177592e+000 4.523088e+000
         vertex -1.998976e+000 -1.208033e+000 4.506805e+000
         vertex -1.920246e+000 -1.206736e+000 4.506805e+000
      endloop
   endfacet
   facet normal 5.924832e-003 -3.596965e-001 9.330505e-001
      outer loop
         vertex -1.920246e+000 -1.206736e+000 4.506805e+000
         vertex -1.998976e+000 -1.208033e+000 4.506805e+000
         vertex -1.998457e+000 -1.239510e+000 4.495682e+000
      endloop
   endfacet
   facet normal 5.044059e-003 -3.062248e-001 9.519458e-001
      outer loop
         vertex -1.920246e+000 -1.206736e+000 4.506805e+000
         vertex -1.998457e+000 -1.239510e+000 4.495682e+000
         vertex -1.919728e+000 -1.238213e+000 4.495682e+000
      endloop
   endfacet
   facet normal 3.242591e-003 -1.968576e-001 9.804267e-001
      outer loop
         vertex -1.919728e+000 -1.238213e+000 4.495682e+000
         vertex -1.998457e+000 -1.239510e+000 4.495682e+000
         vertex -1.997915e+000 -1.272413e+000 4.490040e+000
      endloop
   endfacet
   facet normal 2.321895e-003 -1.409622e-001 9.900123e-001
      outer loop
         vertex -1.919728e+000 -1.238213e+000 4.495682e+000
         vertex -1.997915e+000 -1.272413e+000 4.490040e+000
         vertex -1.919186e+000 -1.271116e+000 4.490040e+000
      endloop
   endfacet
   facet normal 4.670663e-004 -2.835559e-002 9.995977e-001
      outer loop
         vertex -1.919186e+000 -1.271116e+000 4.490040e+000
         vertex -1.997915e+000 -1.272413e+000 4.490040e+000
         vertex -1.997365e+000 -1.305797e+000 4.490040e+000
      endloop
   endfacet
   facet normal -4.670663e-004 2.835559e-002 9.995977e-001
      outer loop
         vertex -1.919186e+000 -1.271116e+000 4.490040e+000
         vertex -1.997365e+000 -1.305797e+000 4.490040e+000
         vertex -1.918636e+000 -1.304500e+000 4.490040e+000
      endloop
   endfacet
   facet normal -2.321895e-003 1.409622e-001 9.900123e-001
      outer loop
         vertex -1.918636e+000 -1.304500e+000 4.490040e+000
         vertex -1.997365e+000 -1.305797e+000 4.490040e+000
         vertex -1.996824e+000 -1.338700e+000 4.495682e+000
      endloop
   endfacet
   facet normal -3.242591e-003 1.968576e-001 9.804267e-001
      outer loop
         vertex -1.918636e+000 -1.304500e+000 4.490040e+000
         vertex -1.996824e+000 -1.338700e+000 4.495682e+000
         vertex -1.918094e+000 -1.337403e+000 4.495682e+000
      endloop
   endfacet
   facet normal -5.044059e-003 3.062248e-001 9.519458e-001
      outer loop
         vertex -1.918094e+000 -1.337403e+000 4.495682e+000
         vertex -1.996824e+000 -1.338700e+000 4.495682e+000
         vertex -1.996305e+000 -1.370177e+000 4.506805e+000
      endloop
   endfacet
   facet normal -5.924832e-003 3.596965e-001 9.330505e-001
      outer loop
         vertex -1.918094e+000 -1.337403e+000 4.495682e+000
         vertex -1.996305e+000 -1.370177e+000 4.506805e+000
         vertex -1.917576e+000 -1.368880e+000 4.506805e+000
      endloop
   endfacet
   facet normal -7.621115e-003 4.626778e-001 8.864937e-001
      outer loop
         vertex -1.917576e+000 -1.368880e+000 4.506805e+000
         vertex -1.996305e+000 -1.370177e+000 4.506805e+000
         vertex -1.995825e+000 -1.399321e+000 4.523088e+000
      endloop
   endfacet
   facet normal -8.436626e-003 5.121875e-001 8.588322e-001
      outer loop
         vertex -1.917576e+000 -1.368880e+000 4.506805e+000
         vertex -1.995825e+000 -1.399321e+000 4.523088e+000
         vertex -1.917095e+000 -1.398024e+000 4.523088e+000
      endloop
   endfacet
   facet normal -9.978925e-003 6.058204e-001 7.955388e-001
      outer loop
         vertex -1.917095e+000 -1.398024e+000 4.523088e+000
         vertex -1.995825e+000 -1.399321e+000 4.523088e+000
         vertex -1.995397e+000 -1.425295e+000 4.544064e+000
      endloop
   endfacet
   facet normal -1.070572e-002 6.499438e-001 7.599069e-001
      outer loop
         vertex -1.917095e+000 -1.398024e+000 4.523088e+000
         vertex -1.995397e+000 -1.425295e+000 4.544064e+000
         vertex -1.916668e+000 -1.423998e+000 4.544064e+000
      endloop
   endfacet
   facet normal -1.204966e-002 7.315348e-001 6.816976e-001
      outer loop
         vertex -1.916668e+000 -1.423998e+000 4.544064e+000
         vertex -1.995397e+000 -1.425295e+000 4.544064e+000
         vertex -1.995034e+000 -1.447350e+000 4.569127e+000
      endloop
   endfacet
   facet normal -1.266682e-002 7.690024e-001 6.391204e-001
      outer loop
         vertex -1.916668e+000 -1.423998e+000 4.544064e+000
         vertex -1.995034e+000 -1.447350e+000 4.569127e+000
         vertex -1.916304e+000 -1.446054e+000 4.569127e+000
      endloop
   endfacet
   facet normal -1.377375e-002 8.362041e-001 5.482453e-001
      outer loop
         vertex -1.916304e+000 -1.446054e+000 4.569127e+000
         vertex -1.995034e+000 -1.447350e+000 4.569127e+000
         vertex -1.994746e+000 -1.464854e+000 4.597558e+000
      endloop
   endfacet
   facet normal -1.426352e-002 8.659382e-001 4.999475e-001
      outer loop
         vertex -1.916304e+000 -1.446054e+000 4.569127e+000
         vertex -1.994746e+000 -1.464854e+000 4.597558e+000
         vertex -1.916016e+000 -1.463557e+000 4.597558e+000
      endloop
   endfacet
   facet normal -1.510159e-002 9.168174e-001 3.990209e-001
      outer loop
         vertex -1.916016e+000 -1.463557e+000 4.597558e+000
         vertex -1.994746e+000 -1.464854e+000 4.597558e+000
         vertex -1.994541e+000 -1.477301e+000 4.628539e+000
      endloop
   endfacet
   facet normal -1.544989e-002 9.379626e-001 3.463921e-001
      outer loop
         vertex -1.916016e+000 -1.463557e+000 4.597558e+000
         vertex -1.994541e+000 -1.477301e+000 4.628539e+000
         vertex -1.915811e+000 -1.476004e+000 4.628539e+000
      endloop
   endfacet
   facet normal -1.599499e-002 9.710556e-001 2.383175e-001
      outer loop
         vertex -1.915811e+000 -1.476004e+000 4.628539e+000
         vertex -1.994541e+000 -1.477301e+000 4.628539e+000
         vertex -1.994425e+000 -1.484334e+000 4.661178e+000
      endloop
   endfacet
   facet normal -1.619179e-002 9.830034e-001 1.828716e-001
      outer loop
         vertex -1.915811e+000 -1.476004e+000 4.628539e+000
         vertex -1.994425e+000 -1.484334e+000 4.661178e+000
         vertex -1.915695e+000 -1.483037e+000 4.661178e+000
      endloop
   endfacet
   facet normal -1.642824e-002 9.973582e-001 7.075801e-002
      outer loop
         vertex -1.915695e+000 -1.483037e+000 4.661178e+000
         vertex -1.994425e+000 -1.484334e+000 4.661178e+000
         vertex -1.994401e+000 -1.485751e+000 4.694536e+000
      endloop
   endfacet
   facet normal -1.646789e-002 9.997650e-001 1.409025e-002
      outer loop
         vertex -1.915695e+000 -1.483037e+000 4.661178e+000
         vertex -1.994401e+000 -1.485751e+000 4.694536e+000
         vertex -1.915672e+000 -1.484454e+000 4.694536e+000
      endloop
   endfacet
   facet normal -1.638888e-002 9.949687e-001 -9.883699e-002
      outer loop
         vertex -1.915672e+000 -1.484454e+000 4.694536e+000
         vertex -1.994401e+000 -1.485751e+000 4.694536e+000
         vertex -1.994471e+000 -1.481511e+000 4.727654e+000
      endloop
   endfacet
   facet normal -1.627023e-002 9.877654e-001 -1.550965e-001
      outer loop
         vertex -1.915672e+000 -1.484454e+000 4.694536e+000
         vertex -1.994471e+000 -1.481511e+000 4.727654e+000
         vertex -1.915742e+000 -1.480214e+000 4.727654e+000
      endloop
   endfacet
   facet normal -1.587804e-002 9.639557e-001 -2.655886e-001
      outer loop
         vertex -1.915742e+000 -1.480214e+000 4.727654e+000
         vertex -1.994471e+000 -1.481511e+000 4.727654e+000
         vertex -1.994632e+000 -1.471735e+000 4.759578e+000
      endloop
   endfacet
   facet normal -1.560450e-002 9.473494e-001 -3.198213e-001
      outer loop
         vertex -1.915742e+000 -1.480214e+000 4.727654e+000
         vertex -1.994632e+000 -1.471735e+000 4.759578e+000
         vertex -1.915903e+000 -1.470438e+000 4.759578e+000
      endloop
   endfacet
   facet normal -1.491042e-002 9.052114e-001 -4.246998e-001
      outer loop
         vertex -1.915903e+000 -1.470438e+000 4.759578e+000
         vertex -1.994632e+000 -1.471735e+000 4.759578e+000
         vertex -1.994880e+000 -1.456706e+000 4.789391e+000
      endloop
   endfacet
   facet normal -1.448987e-002 8.796799e-001 -4.753456e-001
      outer loop
         vertex -1.915903e+000 -1.470438e+000 4.759578e+000
         vertex -1.994880e+000 -1.456706e+000 4.789391e+000
         vertex -1.916150e+000 -1.455409e+000 4.789391e+000
      endloop
   endfacet
   facet normal -1.351385e-002 8.204259e-001 -5.715931e-001
      outer loop
         vertex -1.916150e+000 -1.455409e+000 4.789391e+000
         vertex -1.994880e+000 -1.456706e+000 4.789391e+000
         vertex -1.995207e+000 -1.436855e+000 4.816235e+000
      endloop
   endfacet
   facet normal -1.295839e-002 7.867036e-001 -6.171950e-001
      outer loop
         vertex -1.916150e+000 -1.455409e+000 4.789391e+000
         vertex -1.995207e+000 -1.436855e+000 4.816235e+000
         vertex -1.916477e+000 -1.435558e+000 4.816235e+000
      endloop
   endfacet
   facet normal -1.172852e-002 7.120382e-001 -7.020428e-001
      outer loop
         vertex -1.916477e+000 -1.435558e+000 4.816235e+000
         vertex -1.995207e+000 -1.436855e+000 4.816235e+000
         vertex -1.995604e+000 -1.412753e+000 4.839338e+000
      endloop
   endfacet
   facet normal -1.105412e-002 6.710953e-001 -7.412887e-001
      outer loop
         vertex -1.916477e+000 -1.435558e+000 4.816235e+000
         vertex -1.995604e+000 -1.412753e+000 4.839338e+000
         vertex -1.916874e+000 -1.411456e+000 4.839338e+000
      endloop
   endfacet
   facet normal -9.605775e-003 5.831665e-001 -8.122959e-001
      outer loop
         vertex -1.916874e+000 -1.411456e+000 4.839338e+000
         vertex -1.995604e+000 -1.412753e+000 4.839338e+000
         vertex -1.996059e+000 -1.385095e+000 4.858034e+000
      endloop
   endfacet
   facet normal -8.831837e-003 5.361807e-001 -8.440570e-001
      outer loop
         vertex -1.916874e+000 -1.411456e+000 4.839338e+000
         vertex -1.996059e+000 -1.385095e+000 4.858034e+000
         vertex -1.917330e+000 -1.383798e+000 4.858034e+000
      endloop
   endfacet
   facet normal -7.206691e-003 4.375181e-001 -8.991807e-001
      outer loop
         vertex -1.917330e+000 -1.383798e+000 4.858034e+000
         vertex -1.996059e+000 -1.385095e+000 4.858034e+000
         vertex -1.996560e+000 -1.354675e+000 4.871787e+000
      endloop
   endfacet
   facet normal -6.355483e-003 3.858413e-001 -9.225433e-001
      outer loop
         vertex -1.917330e+000 -1.383798e+000 4.858034e+000
         vertex -1.996560e+000 -1.354675e+000 4.871787e+000
         vertex -1.917831e+000 -1.353378e+000 4.871787e+000
      endloop
   endfacet
   facet normal -4.600284e-003 2.792832e-001 -9.601977e-001
      outer loop
         vertex -1.917831e+000 -1.353378e+000 4.871787e+000
         vertex -1.996560e+000 -1.354675e+000 4.871787e+000
         vertex -1.997092e+000 -1.322368e+000 4.880200e+000
      endloop
   endfacet
   facet normal -3.696293e-003 2.244019e-001 -9.744897e-001
      outer loop
         vertex -1.917831e+000 -1.353378e+000 4.871787e+000
         vertex -1.997092e+000 -1.322368e+000 4.880200e+000
         vertex -1.918363e+000 -1.321071e+000 4.880200e+000
      endloop
   endfacet
   facet normal -1.861535e-003 1.130138e-001 -9.935917e-001
      outer loop
         vertex -1.918363e+000 -1.321071e+000 4.880200e+000
         vertex -1.997092e+000 -1.322368e+000 4.880200e+000
         vertex -1.997640e+000 -1.289105e+000 4.883031e+000
      endloop
   endfacet
endsolid