solid peça_gimbal3-1-solid1_Default_sldprt
   facet normal 1.646952e-002 -9.998644e-001 2.420725e-016
      outer loop
         vertex 2.446620e+000 -9.757099e-001 4.865709e+000
         vertex 2.446620e+000 -9.757099e-001 3.956260e+000
         vertex 2.525349e+000 -9.744131e-001 4.865709e+000
      endloop
   endfacet
   facet normal 1.646952e-002 -9.998644e-001 2.420725e-016
      outer loop
         vertex 2.525349e+000 -9.744131e-001 4.865709e+000
         vertex 2.446620e+000 -9.757099e-001 3.956260e+000
         vertex 2.525349e+000 -9.744131e-001 3.956260e+000
      endloop
   endfacet
   facet normal 1.195402e-015 -2.224150e-016 -1.000000e+000
      outer loop
         vertex 2.454466e+000 -1.452023e+000 4.865709e+000
         vertex 2.446620e+000 -9.757099e-001 4.865709e+000
         vertex 2.533195e+000 -1.450727e+000 4.865709e+000
      endloop
   endfacet
   facet normal 1.195402e-015 -2.224150e-016 -1.000000e+000
      outer loop
         vertex 2.533195e+000 -1.450727e+000 4.865709e+000
         vertex 2.446620e+000 -9.757099e-001 4.865709e+000
         vertex 2.525349e+000 -9.744131e-001 4.865709e+000
      endloop
   endfacet
   facet normal -1.646952e-002 9.998644e-001 -2.420725e-016
      outer loop
         vertex 2.454466e+000 -1.452023e+000 3.956260e+000
         vertex 2.454466e+000 -1.452023e+000 4.865709e+000
         vertex 2.533195e+000 -1.450727e+000 3.956260e+000
      endloop
   endfacet
   facet normal -1.646952e-002 9.998644e-001 -2.420725e-016
      outer loop
         vertex 2.533195e+000 -1.450727e+000 3.956260e+000
         vertex 2.454466e+000 -1.452023e+000 4.865709e+000
         vertex 2.533195e+000 -1.450727e+000 4.865709e+000
      endloop
   endfacet
   facet normal 1.646952e-002 -9.998644e-001 2.420725e-016
      outer loop
         vertex 2.457027e+000 -1.607514e+000 3.235852e+000
         vertex 2.457027e+000 -1.607514e+000 2.763410e+000
         vertex 2.535756e+000 -1.606217e+000 3.235852e+000
      endloop
   endfacet
   facet normal 1.646952e-002 -9.998644e-001 2.420725e-016
      outer loop
         vertex 2.535756e+000 -1.606217e+000 3.235852e+000
         vertex 2.457027e+000 -1.607514e+000 2.763410e+000
         vertex 2.535756e+000 -1.606217e+000 2.763410e+000
      endloop
   endfacet
   facet normal 1.645309e-002 -9.988669e-001 -4.465564e-002
      outer loop
         vertex 2.457027e+000 -1.607514e+000 3.235852e+000
         vertex 2.535756e+000 -1.606217e+000 3.235852e+000
         vertex 2.535813e+000 -1.609653e+000 3.287740e+000
      endloop
   endfacet
   facet normal 1.640370e-002 -9.958687e-001 -8.931129e-002
      outer loop
         vertex 2.457027e+000 -1.607514e+000 3.235852e+000
         vertex 2.535813e+000 -1.609653e+000 3.287740e+000
         vertex 2.457083e+000 -1.610950e+000 3.287740e+000
      endloop
   endfacet
   facet normal 1.620248e-002 -9.836525e-001 -1.793469e-001
      outer loop
         vertex 2.457083e+000 -1.610950e+000 3.287740e+000
         vertex 2.535813e+000 -1.609653e+000 3.287740e+000
         vertex 2.535982e+000 -1.619920e+000 3.337589e+000
      endloop
   endfacet
   facet normal 1.604833e-002 -9.742941e-001 -2.247079e-001
      outer loop
         vertex 2.457083e+000 -1.610950e+000 3.287740e+000
         vertex 2.535982e+000 -1.619920e+000 3.337589e+000
         vertex 2.457253e+000 -1.621217e+000 3.337589e+000
      endloop
   endfacet
   facet normal 1.564056e-002 -9.495385e-001 -3.132603e-001
      outer loop
         vertex 2.457253e+000 -1.621217e+000 3.337589e+000
         vertex 2.535982e+000 -1.619920e+000 3.337589e+000
         vertex 2.536260e+000 -1.636830e+000 3.385111e+000
      endloop
   endfacet
   facet normal 1.538762e-002 -9.341826e-001 -3.564633e-001
      outer loop
         vertex 2.457253e+000 -1.621217e+000 3.337589e+000
         vertex 2.536260e+000 -1.636830e+000 3.385111e+000
         vertex 2.457531e+000 -1.638127e+000 3.385111e+000
      endloop
   endfacet
   facet normal 1.479893e-002 -8.984431e-001 -4.388404e-001
      outer loop
         vertex 2.457531e+000 -1.638127e+000 3.385111e+000
         vertex 2.536260e+000 -1.636830e+000 3.385111e+000
         vertex 2.536650e+000 -1.660450e+000 3.430788e+000
      endloop
   endfacet
   facet normal 1.446549e-002 -8.781997e-001 -4.780754e-001
      outer loop
         vertex 2.457531e+000 -1.638127e+000 3.385111e+000
         vertex 2.536650e+000 -1.660450e+000 3.430788e+000
         vertex 2.457920e+000 -1.661747e+000 3.430788e+000
      endloop
   endfacet
   facet normal 1.375211e-002 -8.348907e-001 -5.502439e-001
      outer loop
         vertex 2.457920e+000 -1.661747e+000 3.430788e+000
         vertex 2.536650e+000 -1.660450e+000 3.430788e+000
         vertex 2.537136e+000 -1.689986e+000 3.473597e+000
      endloop
   endfacet
   facet normal 1.337689e-002 -8.121109e-001 -5.833498e-001
      outer loop
         vertex 2.457920e+000 -1.661747e+000 3.430788e+000
         vertex 2.537136e+000 -1.689986e+000 3.473597e+000
         vertex 2.458407e+000 -1.691283e+000 3.473597e+000
      endloop
   endfacet
   facet normal 1.287044e-002 -7.813641e-001 -6.239427e-001
      outer loop
         vertex 2.458407e+000 -1.691283e+000 3.473597e+000
         vertex 2.537136e+000 -1.689986e+000 3.473597e+000
         vertex 2.537294e+000 -1.699584e+000 3.485484e+000
      endloop
   endfacet
   facet normal 1.275864e-002 -7.745769e-001 -6.323510e-001
      outer loop
         vertex 2.458407e+000 -1.691283e+000 3.473597e+000
         vertex 2.537294e+000 -1.699584e+000 3.485484e+000
         vertex 2.458565e+000 -1.700880e+000 3.485484e+000
      endloop
   endfacet
   facet normal 1.646952e-002 -9.998644e-001 2.420725e-016
      outer loop
         vertex 2.458565e+000 -1.700880e+000 5.125615e+000
         vertex 2.458565e+000 -1.700880e+000 3.485484e+000
         vertex 2.537294e+000 -1.699584e+000 5.125615e+000
      endloop
   endfacet
   facet normal 1.646952e-002 -9.998644e-001 2.420725e-016
      outer loop
         vertex 2.537294e+000 -1.699584e+000 5.125615e+000
         vertex 2.458565e+000 -1.700880e+000 3.485484e+000
         vertex 2.537294e+000 -1.699584e+000 3.485484e+000
      endloop
   endfacet
   facet normal 7.028147e-003 -4.266787e-001 9.043759e-001
      outer loop
         vertex 2.458565e+000 -1.700880e+000 5.125615e+000
         vertex 2.537294e+000 -1.699584e+000 5.125615e+000
         vertex 2.536650e+000 -1.660462e+000 5.143829e+000
      endloop
   endfacet
   facet normal 6.868769e-003 -4.170029e-001 9.088792e-001
      outer loop
         vertex 2.458565e+000 -1.700880e+000 5.125615e+000
         vertex 2.536650e+000 -1.660462e+000 5.143829e+000
         vertex 2.457920e+000 -1.661759e+000 5.143829e+000
      endloop
   endfacet
   facet normal 6.339534e-003 -3.848730e-001 9.229478e-001
      outer loop
         vertex 2.457920e+000 -1.661759e+000 5.143829e+000
         vertex 2.536650e+000 -1.660462e+000 5.143829e+000
         vertex 2.535241e+000 -1.574925e+000 5.178341e+000
      endloop
   endfacet
   facet normal 5.966442e-003 -3.622226e-001 9.320725e-001
      outer loop
         vertex 2.457920e+000 -1.661759e+000 5.143829e+000
         vertex 2.535241e+000 -1.574925e+000 5.178341e+000
         vertex 2.456511e+000 -1.576221e+000 5.178341e+000
      endloop
   endfacet
   facet normal 5.193443e-003 -3.152938e-001 9.489799e-001
      outer loop
         vertex 2.456511e+000 -1.576221e+000 5.178341e+000
         vertex 2.535241e+000 -1.574925e+000 5.178341e+000
         vertex 2.533847e+000 -1.490304e+000 5.205314e+000
      endloop
   endfacet
   facet normal 4.793234e-003 -2.909972e-001 9.567119e-001
      outer loop
         vertex 2.456511e+000 -1.576221e+000 5.178341e+000
         vertex 2.533847e+000 -1.490304e+000 5.205314e+000
         vertex 2.455117e+000 -1.491601e+000 5.205314e+000
      endloop
   endfacet
   facet normal 3.969656e-003 -2.409978e-001 9.705175e-001
      outer loop
         vertex 2.455117e+000 -1.491601e+000 5.205314e+000
         vertex 2.533847e+000 -1.490304e+000 5.205314e+000
         vertex 2.532464e+000 -1.406337e+000 5.225029e+000
      endloop
   endfacet
   facet normal 3.546078e-003 -2.152824e-001 9.765455e-001
      outer loop
         vertex 2.455117e+000 -1.491601e+000 5.205314e+000
         vertex 2.532464e+000 -1.406337e+000 5.225029e+000
         vertex 2.453734e+000 -1.407634e+000 5.225029e+000
      endloop
   endfacet
   facet normal 2.680913e-003 -1.627582e-001 9.866624e-001
      outer loop
         vertex 2.453734e+000 -1.407634e+000 5.225029e+000
         vertex 2.532464e+000 -1.406337e+000 5.225029e+000
         vertex 2.531087e+000 -1.322747e+000 5.237681e+000
      endloop
   endfacet
   facet normal 2.239209e-003 -1.359424e-001 9.907143e-001
      outer loop
         vertex 2.453734e+000 -1.407634e+000 5.225029e+000
         vertex 2.531087e+000 -1.322747e+000 5.237681e+000
         vertex 2.452358e+000 -1.324044e+000 5.237681e+000
      endloop
   endfacet
   facet normal 1.344278e-003 -8.161109e-002 9.966633e-001
      outer loop
         vertex 2.452358e+000 -1.324044e+000 5.237681e+000
         vertex 2.531087e+000 -1.322747e+000 5.237681e+000
         vertex 2.529712e+000 -1.239249e+000 5.243371e+000
      endloop
   endfacet
   facet normal 8.910051e-004 -5.409291e-002 9.985355e-001
      outer loop
         vertex 2.452358e+000 -1.324044e+000 5.237681e+000
         vertex 2.529712e+000 -1.239249e+000 5.243371e+000
         vertex 2.450982e+000 -1.240546e+000 5.243371e+000
      endloop
   endfacet
   facet normal -1.961342e-005 1.190730e-003 9.999993e-001
      outer loop
         vertex 2.450982e+000 -1.240546e+000 5.243371e+000
         vertex 2.529712e+000 -1.239249e+000 5.243371e+000
         vertex 2.528333e+000 -1.155553e+000 5.242106e+000
      endloop
   endfacet
   facet normal -4.769639e-004 2.895647e-002 9.995806e-001
      outer loop
         vertex 2.450982e+000 -1.240546e+000 5.243371e+000
         vertex 2.528333e+000 -1.155553e+000 5.242106e+000
         vertex 2.449604e+000 -1.156850e+000 5.242106e+000
      endloop
   endfacet
   facet normal -1.387852e-003 8.425648e-002 9.964431e-001
      outer loop
         vertex 2.449604e+000 -1.156850e+000 5.242106e+000
         vertex 2.528333e+000 -1.155553e+000 5.242106e+000
         vertex 2.526946e+000 -1.071370e+000 5.233797e+000
      endloop
   endfacet
   facet normal -1.841395e-003 1.117911e-001 9.937301e-001
      outer loop
         vertex 2.449604e+000 -1.156850e+000 5.242106e+000
         vertex 2.526946e+000 -1.071370e+000 5.233797e+000
         vertex 2.448217e+000 -1.072667e+000 5.233797e+000
      endloop
   endfacet
   facet normal -2.736958e-003 1.661607e-001 9.860950e-001
      outer loop
         vertex 2.448217e+000 -1.072667e+000 5.233797e+000
         vertex 2.526946e+000 -1.071370e+000 5.233797e+000
         vertex 2.525547e+000 -9.864165e-001 5.218256e+000
      endloop
   endfacet
   facet normal -3.179026e-003 1.929987e-001 9.811938e-001
      outer loop
         vertex 2.448217e+000 -1.072667e+000 5.233797e+000
         vertex 2.525547e+000 -9.864165e-001 5.218256e+000
         vertex 2.446818e+000 -9.877133e-001 5.218256e+000
      endloop
   endfacet
   facet normal -4.044704e-003 2.455539e-001 9.693745e-001
      outer loop
         vertex 2.446818e+000 -9.877133e-001 5.218256e+000
         vertex 2.525547e+000 -9.864165e-001 5.218256e+000
         vertex 2.524131e+000 -9.004182e-001 5.195204e+000
      endloop
   endfacet
   facet normal -4.468439e-003 2.712789e-001 9.624904e-001
      outer loop
         vertex 2.446818e+000 -9.877133e-001 5.218256e+000
         vertex 2.524131e+000 -9.004182e-001 5.195204e+000
         vertex 2.445401e+000 -9.017150e-001 5.195204e+000
      endloop
   endfacet
   facet normal -5.291706e-003 3.212595e-001 9.469764e-001
      outer loop
         vertex 2.445401e+000 -9.017150e-001 5.195204e+000
         vertex 2.524131e+000 -9.004182e-001 5.195204e+000
         vertex 2.522693e+000 -8.131258e-001 5.164271e+000
      endloop
   endfacet
   facet normal -5.691468e-003 3.455290e-001 9.383909e-001
      outer loop
         vertex 2.445401e+000 -9.017150e-001 5.195204e+000
         vertex 2.522693e+000 -8.131258e-001 5.164271e+000
         vertex 2.443963e+000 -8.144227e-001 5.164271e+000
      endloop
   endfacet
   facet normal -6.457519e-003 3.920359e-001 9.199272e-001
      outer loop
         vertex 2.443963e+000 -8.144227e-001 5.164271e+000
         vertex 2.522693e+000 -8.131258e-001 5.164271e+000
         vertex 2.521250e+000 -7.255560e-001 5.125615e+000
      endloop
   endfacet
   facet normal -6.824240e-003 4.142995e-001 9.101150e-001
      outer loop
         vertex 2.443963e+000 -8.144227e-001 5.164271e+000
         vertex 2.521250e+000 -7.255560e-001 5.125615e+000
         vertex 2.442521e+000 -7.268528e-001 5.125615e+000
      endloop
   endfacet
   facet normal -1.646952e-002 9.998644e-001 -2.941234e-016
      outer loop
         vertex 2.442521e+000 -7.268528e-001 3.485484e+000
         vertex 2.442521e+000 -7.268528e-001 5.125615e+000
         vertex 2.521250e+000 -7.255560e-001 3.485484e+000
      endloop
   endfacet
   facet normal -1.646952e-002 9.998644e-001 -2.941234e-016
      outer loop
         vertex 2.521250e+000 -7.255560e-001 3.485484e+000
         vertex 2.442521e+000 -7.268528e-001 5.125615e+000
         vertex 2.521250e+000 -7.255560e-001 5.125615e+000
      endloop
   endfacet
   facet normal -1.275864e-002 7.745769e-001 -6.323510e-001
      outer loop
         vertex 2.442521e+000 -7.268528e-001 3.485484e+000
         vertex 2.521250e+000 -7.255560e-001 3.485484e+000
         vertex 2.521408e+000 -7.351530e-001 3.473597e+000
      endloop
   endfacet
   facet normal -1.287044e-002 7.813641e-001 -6.239427e-001
      outer loop
         vertex 2.442521e+000 -7.268528e-001 3.485484e+000
         vertex 2.521408e+000 -7.351530e-001 3.473597e+000
         vertex 2.442679e+000 -7.364498e-001 3.473597e+000
      endloop
   endfacet
   facet normal -1.337689e-002 8.121109e-001 -5.833498e-001
      outer loop
         vertex 2.442679e+000 -7.364498e-001 3.473597e+000
         vertex 2.521408e+000 -7.351530e-001 3.473597e+000
         vertex 2.521895e+000 -7.646896e-001 3.430788e+000
      endloop
   endfacet
   facet normal -1.375211e-002 8.348907e-001 -5.502439e-001
      outer loop
         vertex 2.442679e+000 -7.364498e-001 3.473597e+000
         vertex 2.521895e+000 -7.646896e-001 3.430788e+000
         vertex 2.443165e+000 -7.659863e-001 3.430788e+000
      endloop
   endfacet
   facet normal -1.446549e-002 8.781997e-001 -4.780754e-001
      outer loop
         vertex 2.443165e+000 -7.659863e-001 3.430788e+000
         vertex 2.521895e+000 -7.646896e-001 3.430788e+000
         vertex 2.522284e+000 -7.883098e-001 3.385111e+000
      endloop
   endfacet
   facet normal -1.479893e-002 8.984432e-001 -4.388404e-001
      outer loop
         vertex 2.443165e+000 -7.659863e-001 3.430788e+000
         vertex 2.522284e+000 -7.883098e-001 3.385111e+000
         vertex 2.443554e+000 -7.896066e-001 3.385111e+000
      endloop
   endfacet
   facet normal -1.538762e-002 9.341826e-001 -3.564633e-001
      outer loop
         vertex 2.443554e+000 -7.896066e-001 3.385111e+000
         vertex 2.522284e+000 -7.883098e-001 3.385111e+000
         vertex 2.522563e+000 -8.052192e-001 3.337589e+000
      endloop
   endfacet
   facet normal -1.564056e-002 9.495385e-001 -3.132603e-001
      outer loop
         vertex 2.443554e+000 -7.896066e-001 3.385111e+000
         vertex 2.522563e+000 -8.052192e-001 3.337589e+000
         vertex 2.443833e+000 -8.065160e-001 3.337589e+000
      endloop
   endfacet
   facet normal -1.604833e-002 9.742941e-001 -2.247079e-001
      outer loop
         vertex 2.443833e+000 -8.065160e-001 3.337589e+000
         vertex 2.522563e+000 -8.052192e-001 3.337589e+000
         vertex 2.522731e+000 -8.154868e-001 3.287740e+000
      endloop
   endfacet
   facet normal -1.620248e-002 9.836525e-001 -1.793469e-001
      outer loop
         vertex 2.443833e+000 -8.065160e-001 3.337589e+000
         vertex 2.522731e+000 -8.154868e-001 3.287740e+000
         vertex 2.444002e+000 -8.167836e-001 3.287740e+000
      endloop
   endfacet
   facet normal -1.640370e-002 9.958687e-001 -8.931129e-002
      outer loop
         vertex 2.444002e+000 -8.167836e-001 3.287740e+000
         vertex 2.522731e+000 -8.154868e-001 3.287740e+000
         vertex 2.522788e+000 -8.189225e-001 3.235852e+000
      endloop
   endfacet
   facet normal -1.645309e-002 9.988669e-001 -4.465564e-002
      outer loop
         vertex 2.444002e+000 -8.167836e-001 3.287740e+000
         vertex 2.522788e+000 -8.189225e-001 3.235852e+000
         vertex 2.444059e+000 -8.202192e-001 3.235852e+000
      endloop
   endfacet
   facet normal -1.646952e-002 9.998644e-001 -2.420725e-016
      outer loop
         vertex 2.444059e+000 -8.202192e-001 2.763410e+000
         vertex 2.444059e+000 -8.202192e-001 3.235852e+000
         vertex 2.522788e+000 -8.189225e-001 2.763410e+000
      endloop
   endfacet
   facet normal -1.646952e-002 9.998644e-001 -2.420725e-016
      outer loop
         vertex 2.522788e+000 -8.189225e-001 2.763410e+000
         vertex 2.444059e+000 -8.202192e-001 3.235852e+000
         vertex 2.522788e+000 -8.189225e-001 3.235852e+000
      endloop
   endfacet
   facet normal 1.195402e-015 -2.224150e-016 -1.000000e+000
      outer loop
         vertex 2.457027e+000 -1.607514e+000 2.763410e+000
         vertex 2.444059e+000 -8.202192e-001 2.763410e+000
         vertex 2.535756e+000 -1.606217e+000 2.763410e+000
      endloop
   endfacet
   facet normal 1.195402e-015 -2.224150e-016 -1.000000e+000
      outer loop
         vertex 2.535756e+000 -1.606217e+000 2.763410e+000
         vertex 2.444059e+000 -8.202192e-001 2.763410e+000
         vertex 2.522788e+000 -8.189225e-001 2.763410e+000
      endloop
   endfacet
   facet normal -1.195402e-015 2.224150e-016 1.000000e+000
      outer loop
         vertex 2.446620e+000 -9.757099e-001 3.956260e+000
         vertex 2.454466e+000 -1.452023e+000 3.956260e+000
         vertex 2.525349e+000 -9.744131e-001 3.956260e+000
      endloop
   endfacet
   facet normal -1.195402e-015 2.224150e-016 1.000000e+000
      outer loop
         vertex 2.525349e+000 -9.744131e-001 3.956260e+000
         vertex 2.454466e+000 -1.452023e+000 3.956260e+000
         vertex 2.533195e+000 -1.450727e+000 3.956260e+000
      endloop
   endfacet
   facet normal -9.998644e-001 -1.646952e-002 -1.191577e-015
      outer loop
         vertex 2.458565e+000 -1.700880e+000 5.125615e+000
         vertex 2.457920e+000 -1.661759e+000 5.143829e+000
         vertex 2.454466e+000 -1.452023e+000 4.865709e+000
      endloop
   endfacet
   facet normal -9.998644e-001 -1.646952e-002 -1.191577e-015
      outer loop
         vertex 2.454466e+000 -1.452023e+000 4.865709e+000
         vertex 2.457920e+000 -1.661759e+000 5.143829e+000
         vertex 2.456511e+000 -1.576221e+000 5.178341e+000
      endloop
   endfacet
   facet normal -9.998644e-001 -1.646952e-002 -1.191577e-015
      outer loop
         vertex 2.446818e+000 -9.877133e-001 5.218256e+000
         vertex 2.445401e+000 -9.017150e-001 5.195204e+000
         vertex 2.446620e+000 -9.757099e-001 4.865709e+000
      endloop
   endfacet
   facet normal -9.998644e-001 -1.646952e-002 -1.191577e-015
      outer loop
         vertex 2.458565e+000 -1.700880e+000 5.125615e+000
         vertex 2.454466e+000 -1.452023e+000 4.865709e+000
         vertex 2.458565e+000 -1.700880e+000 3.485484e+000
      endloop
   endfacet
   facet normal -9.998644e-001 -1.646952e-002 -1.191577e-015
      outer loop
         vertex 2.458565e+000 -1.700880e+000 3.485484e+000
         vertex 2.454466e+000 -1.452023e+000 4.865709e+000
         vertex 2.454466e+000 -1.452023e+000 3.956260e+000
      endloop
   endfacet
   facet normal -9.998644e-001 -1.646952e-002 -1.191577e-015
      outer loop
         vertex 2.458565e+000 -1.700880e+000 3.485484e+000
         vertex 2.454466e+000 -1.452023e+000 3.956260e+000
         vertex 2.443165e+000 -7.659863e-001 3.430788e+000
      endloop
   endfacet
   facet normal -9.998644e-001 -1.646952e-002 -1.191577e-015
      outer loop
         vertex 2.443833e+000 -8.065160e-001 3.337589e+000
         vertex 2.457531e+000 -1.638127e+000 3.385111e+000
         vertex 2.457920e+000 -1.661747e+000 3.430788e+000
      endloop
   endfacet
   facet normal -9.998644e-001 -1.646952e-002 -1.191577e-015
      outer loop
         vertex 2.445401e+000 -9.017150e-001 5.195204e+000
         vertex 2.443963e+000 -8.144227e-001 5.164271e+000
         vertex 2.446620e+000 -9.757099e-001 4.865709e+000
      endloop
   endfacet
   facet normal -9.998644e-001 -1.646952e-002 -1.191577e-015
      outer loop
         vertex 2.446620e+000 -9.757099e-001 4.865709e+000
         vertex 2.443963e+000 -8.144227e-001 5.164271e+000
         vertex 2.442521e+000 -7.268528e-001 5.125615e+000
      endloop
   endfacet
   facet normal -9.998644e-001 -1.646952e-002 -1.191577e-015
      outer loop
         vertex 2.446620e+000 -9.757099e-001 4.865709e+000
         vertex 2.442521e+000 -7.268528e-001 5.125615e+000
         vertex 2.446620e+000 -9.757099e-001 3.956260e+000
      endloop
   endfacet
   facet normal -9.998644e-001 -1.646952e-002 -1.191577e-015
      outer loop
         vertex 2.446620e+000 -9.757099e-001 3.956260e+000
         vertex 2.442521e+000 -7.268528e-001 5.125615e+000
         vertex 2.442521e+000 -7.268528e-001 3.485484e+000
      endloop
   endfacet
   facet normal -9.998644e-001 -1.646952e-002 -1.191577e-015
      outer loop
         vertex 2.446620e+000 -9.757099e-001 3.956260e+000
         vertex 2.442521e+000 -7.268528e-001 3.485484e+000
         vertex 2.454466e+000 -1.452023e+000 3.956260e+000
      endloop
   endfacet
   facet normal -9.998644e-001 -1.646952e-002 -1.191577e-015
      outer loop
         vertex 2.454466e+000 -1.452023e+000 3.956260e+000
         vertex 2.442521e+000 -7.268528e-001 3.485484e+000
         vertex 2.442679e+000 -7.364498e-001 3.473597e+000
      endloop
   endfacet
   facet normal -9.998644e-001 -1.646952e-002 -1.191577e-015
      outer loop
         vertex 2.454466e+000 -1.452023e+000 3.956260e+000
         vertex 2.442679e+000 -7.364498e-001 3.473597e+000
         vertex 2.443165e+000 -7.659863e-001 3.430788e+000
      endloop
   endfacet
   facet normal -9.998644e-001 -1.646952e-002 -1.191577e-015
      outer loop
         vertex 2.443165e+000 -7.659863e-001 3.430788e+000
         vertex 2.443554e+000 -7.896066e-001 3.385111e+000
         vertex 2.458565e+000 -1.700880e+000 3.485484e+000
      endloop
   endfacet
   facet normal -9.998644e-001 -1.646952e-002 -1.191577e-015
      outer loop
         vertex 2.458565e+000 -1.700880e+000 3.485484e+000
         vertex 2.443554e+000 -7.896066e-001 3.385111e+000
         vertex 2.443833e+000 -8.065160e-001 3.337589e+000
      endloop
   endfacet
   facet normal -9.998644e-001 -1.646952e-002 -1.191577e-015
      outer loop
         vertex 2.458565e+000 -1.700880e+000 3.485484e+000
         vertex 2.443833e+000 -8.065160e-001 3.337589e+000
         vertex 2.458407e+000 -1.691283e+000 3.473597e+000
      endloop
   endfacet
   facet normal -9.998644e-001 -1.646952e-002 -1.191577e-015
      outer loop
         vertex 2.458407e+000 -1.691283e+000 3.473597e+000
         vertex 2.443833e+000 -8.065160e-001 3.337589e+000
         vertex 2.457920e+000 -1.661747e+000 3.430788e+000
      endloop
   endfacet
   facet normal -9.998644e-001 -1.646952e-002 -1.191577e-015
      outer loop
         vertex 2.456511e+000 -1.576221e+000 5.178341e+000
         vertex 2.455117e+000 -1.491601e+000 5.205314e+000
         vertex 2.454466e+000 -1.452023e+000 4.865709e+000
      endloop
   endfacet
   facet normal -9.998644e-001 -1.646952e-002 -1.191577e-015
      outer loop
         vertex 2.454466e+000 -1.452023e+000 4.865709e+000
         vertex 2.455117e+000 -1.491601e+000 5.205314e+000
         vertex 2.453734e+000 -1.407634e+000 5.225029e+000
      endloop
   endfacet
   facet normal -9.998644e-001 -1.646952e-002 -1.191577e-015
      outer loop
         vertex 2.454466e+000 -1.452023e+000 4.865709e+000
         vertex 2.453734e+000 -1.407634e+000 5.225029e+000
         vertex 2.452358e+000 -1.324044e+000 5.237681e+000
      endloop
   endfacet
   facet normal -9.998644e-001 -1.646952e-002 -1.191577e-015
      outer loop
         vertex 2.444059e+000 -8.202192e-001 2.763410e+000
         vertex 2.457027e+000 -1.607514e+000 2.763410e+000
         vertex 2.444059e+000 -8.202192e-001 3.235852e+000
      endloop
   endfacet
   facet normal -9.998644e-001 -1.646952e-002 -1.191577e-015
      outer loop
         vertex 2.444059e+000 -8.202192e-001 3.235852e+000
         vertex 2.457027e+000 -1.607514e+000 2.763410e+000
         vertex 2.457027e+000 -1.607514e+000 3.235852e+000
      endloop
   endfacet
   facet normal -9.998644e-001 -1.646952e-002 -1.191577e-015
      outer loop
         vertex 2.444059e+000 -8.202192e-001 3.235852e+000
         vertex 2.457027e+000 -1.607514e+000 3.235852e+000
         vertex 2.444002e+000 -8.167836e-001 3.287740e+000
      endloop
   endfacet
   facet normal -9.998644e-001 -1.646952e-002 -1.191577e-015
      outer loop
         vertex 2.444002e+000 -8.167836e-001 3.287740e+000
         vertex 2.457027e+000 -1.607514e+000 3.235852e+000
         vertex 2.457083e+000 -1.610950e+000 3.287740e+000
      endloop
   endfacet
   facet normal -9.998644e-001 -1.646952e-002 -1.191577e-015
      outer loop
         vertex 2.444002e+000 -8.167836e-001 3.287740e+000
         vertex 2.457083e+000 -1.610950e+000 3.287740e+000
         vertex 2.443833e+000 -8.065160e-001 3.337589e+000
      endloop
   endfacet
   facet normal -9.998644e-001 -1.646952e-002 -1.191577e-015
      outer loop
         vertex 2.443833e+000 -8.065160e-001 3.337589e+000
         vertex 2.457083e+000 -1.610950e+000 3.287740e+000
         vertex 2.457253e+000 -1.621217e+000 3.337589e+000
      endloop
   endfacet
   facet normal -9.998644e-001 -1.646952e-002 -1.191577e-015
      outer loop
         vertex 2.443833e+000 -8.065160e-001 3.337589e+000
         vertex 2.457253e+000 -1.621217e+000 3.337589e+000
         vertex 2.457531e+000 -1.638127e+000 3.385111e+000
      endloop
   endfacet
   facet normal -9.998644e-001 -1.646952e-002 -1.191577e-015
      outer loop
         vertex 2.452358e+000 -1.324044e+000 5.237681e+000
         vertex 2.450982e+000 -1.240546e+000 5.243371e+000
         vertex 2.454466e+000 -1.452023e+000 4.865709e+000
      endloop
   endfacet
   facet normal -9.998644e-001 -1.646952e-002 -1.191577e-015
      outer loop
         vertex 2.454466e+000 -1.452023e+000 4.865709e+000
         vertex 2.450982e+000 -1.240546e+000 5.243371e+000
         vertex 2.449604e+000 -1.156850e+000 5.242106e+000
      endloop
   endfacet
   facet normal -9.998644e-001 -1.646952e-002 -1.191577e-015
      outer loop
         vertex 2.454466e+000 -1.452023e+000 4.865709e+000
         vertex 2.449604e+000 -1.156850e+000 5.242106e+000
         vertex 2.446620e+000 -9.757099e-001 4.865709e+000
      endloop
   endfacet
   facet normal -9.998644e-001 -1.646952e-002 -1.191577e-015
      outer loop
         vertex 2.446620e+000 -9.757099e-001 4.865709e+000
         vertex 2.449604e+000 -1.156850e+000 5.242106e+000
         vertex 2.448217e+000 -1.072667e+000 5.233797e+000
      endloop
   endfacet
   facet normal -9.998644e-001 -1.646952e-002 -1.191577e-015
      outer loop
         vertex 2.446620e+000 -9.757099e-001 4.865709e+000
         vertex 2.448217e+000 -1.072667e+000 5.233797e+000
         vertex 2.446818e+000 -9.877133e-001 5.218256e+000
      endloop
   endfacet
   facet normal 9.998644e-001 1.646952e-002 1.191577e-015
      outer loop
         vertex 2.536650e+000 -1.660450e+000 3.430788e+000
         vertex 2.536260e+000 -1.636830e+000 3.385111e+000
         vertex 2.522563e+000 -8.052192e-001 3.337589e+000
      endloop
   endfacet
   facet normal 9.998644e-001 1.646952e-002 1.191577e-015
      outer loop
         vertex 2.535241e+000 -1.574925e+000 5.178341e+000
         vertex 2.536650e+000 -1.660462e+000 5.143829e+000
         vertex 2.533195e+000 -1.450727e+000 4.865709e+000
      endloop
   endfacet
   facet normal 9.998644e-001 1.646952e-002 1.191577e-015
      outer loop
         vertex 2.533195e+000 -1.450727e+000 4.865709e+000
         vertex 2.536650e+000 -1.660462e+000 5.143829e+000
         vertex 2.537294e+000 -1.699584e+000 5.125615e+000
      endloop
   endfacet
   facet normal 9.998644e-001 1.646952e-002 1.191577e-015
      outer loop
         vertex 2.533195e+000 -1.450727e+000 4.865709e+000
         vertex 2.537294e+000 -1.699584e+000 5.125615e+000
         vertex 2.533195e+000 -1.450727e+000 3.956260e+000
      endloop
   endfacet
   facet normal 9.998644e-001 1.646952e-002 1.191577e-015
      outer loop
         vertex 2.533195e+000 -1.450727e+000 3.956260e+000
         vertex 2.537294e+000 -1.699584e+000 5.125615e+000
         vertex 2.537294e+000 -1.699584e+000 3.485484e+000
      endloop
   endfacet
   facet normal 9.998644e-001 1.646952e-002 1.191577e-015
      outer loop
         vertex 2.533195e+000 -1.450727e+000 3.956260e+000
         vertex 2.537294e+000 -1.699584e+000 3.485484e+000
         vertex 2.522284e+000 -7.883098e-001 3.385111e+000
      endloop
   endfacet
   facet normal 9.998644e-001 1.646952e-002 1.191577e-015
      outer loop
         vertex 2.522284e+000 -7.883098e-001 3.385111e+000
         vertex 2.537294e+000 -1.699584e+000 3.485484e+000
         vertex 2.522563e+000 -8.052192e-001 3.337589e+000
      endloop
   endfacet
   facet normal 9.998644e-001 1.646952e-002 1.191577e-015
      outer loop
         vertex 2.522563e+000 -8.052192e-001 3.337589e+000
         vertex 2.537294e+000 -1.699584e+000 3.485484e+000
         vertex 2.537136e+000 -1.689986e+000 3.473597e+000
      endloop
   endfacet
   facet normal 9.998644e-001 1.646952e-002 1.191577e-015
      outer loop
         vertex 2.522563e+000 -8.052192e-001 3.337589e+000
         vertex 2.537136e+000 -1.689986e+000 3.473597e+000
         vertex 2.536650e+000 -1.660450e+000 3.430788e+000
      endloop
   endfacet
   facet normal 9.998644e-001 1.646952e-002 1.191577e-015
      outer loop
         vertex 2.521250e+000 -7.255560e-001 5.125615e+000
         vertex 2.525349e+000 -9.744131e-001 4.865709e+000
         vertex 2.521250e+000 -7.255560e-001 3.485484e+000
      endloop
   endfacet
   facet normal 9.998644e-001 1.646952e-002 1.191577e-015
      outer loop
         vertex 2.521250e+000 -7.255560e-001 3.485484e+000
         vertex 2.525349e+000 -9.744131e-001 4.865709e+000
         vertex 2.525349e+000 -9.744131e-001 3.956260e+000
      endloop
   endfacet
   facet normal 9.998644e-001 1.646952e-002 1.191577e-015
      outer loop
         vertex 2.521250e+000 -7.255560e-001 3.485484e+000
         vertex 2.525349e+000 -9.744131e-001 3.956260e+000
         vertex 2.521408e+000 -7.351530e-001 3.473597e+000
      endloop
   endfacet
   facet normal 9.998644e-001 1.646952e-002 1.191577e-015
      outer loop
         vertex 2.521408e+000 -7.351530e-001 3.473597e+000
         vertex 2.525349e+000 -9.744131e-001 3.956260e+000
         vertex 2.533195e+000 -1.450727e+000 3.956260e+000
      endloop
   endfacet
   facet normal 9.998644e-001 1.646952e-002 1.191577e-015
      outer loop
         vertex 2.521408e+000 -7.351530e-001 3.473597e+000
         vertex 2.533195e+000 -1.450727e+000 3.956260e+000
         vertex 2.521895e+000 -7.646896e-001 3.430788e+000
      endloop
   endfacet
   facet normal 9.998644e-001 1.646952e-002 1.191577e-015
      outer loop
         vertex 2.521895e+000 -7.646896e-001 3.430788e+000
         vertex 2.533195e+000 -1.450727e+000 3.956260e+000
         vertex 2.522284e+000 -7.883098e-001 3.385111e+000
      endloop
   endfacet
   facet normal 9.998644e-001 1.646952e-002 1.191577e-015
      outer loop
         vertex 2.535756e+000 -1.606217e+000 3.235852e+000
         vertex 2.535756e+000 -1.606217e+000 2.763410e+000
         vertex 2.522788e+000 -8.189225e-001 2.763410e+000
      endloop
   endfacet
   facet normal 9.998644e-001 1.646952e-002 1.191577e-015
      outer loop
         vertex 2.536260e+000 -1.636830e+000 3.385111e+000
         vertex 2.535982e+000 -1.619920e+000 3.337589e+000
         vertex 2.522563e+000 -8.052192e-001 3.337589e+000
      endloop
   endfacet
   facet normal 9.998644e-001 1.646952e-002 1.191577e-015
      outer loop
         vertex 2.522563e+000 -8.052192e-001 3.337589e+000
         vertex 2.535982e+000 -1.619920e+000 3.337589e+000
         vertex 2.535813e+000 -1.609653e+000 3.287740e+000
      endloop
   endfacet
   facet normal 9.998644e-001 1.646952e-002 1.191577e-015
      outer loop
         vertex 2.522563e+000 -8.052192e-001 3.337589e+000
         vertex 2.535813e+000 -1.609653e+000 3.287740e+000
         vertex 2.522731e+000 -8.154868e-001 3.287740e+000
      endloop
   endfacet
   facet normal 9.998644e-001 1.646952e-002 1.191577e-015
      outer loop
         vertex 2.522731e+000 -8.154868e-001 3.287740e+000
         vertex 2.535813e+000 -1.609653e+000 3.287740e+000
         vertex 2.535756e+000 -1.606217e+000 3.235852e+000
      endloop
   endfacet
   facet normal 9.998644e-001 1.646952e-002 1.191577e-015
      outer loop
         vertex 2.522731e+000 -8.154868e-001 3.287740e+000
         vertex 2.535756e+000 -1.606217e+000 3.235852e+000
         vertex 2.522788e+000 -8.189225e-001 3.235852e+000
      endloop
   endfacet
   facet normal 9.998644e-001 1.646952e-002 1.191577e-015
      outer loop
         vertex 2.522788e+000 -8.189225e-001 3.235852e+000
         vertex 2.535756e+000 -1.606217e+000 3.235852e+000
         vertex 2.522788e+000 -8.189225e-001 2.763410e+000
      endloop
   endfacet
   facet normal 9.998644e-001 1.646952e-002 1.191577e-015
      outer loop
         vertex 2.531087e+000 -1.322747e+000 5.237681e+000
         vertex 2.532464e+000 -1.406337e+000 5.225029e+000
         vertex 2.533195e+000 -1.450727e+000 4.865709e+000
      endloop
   endfacet
   facet normal 9.998644e-001 1.646952e-002 1.191577e-015
      outer loop
         vertex 2.533195e+000 -1.450727e+000 4.865709e+000
         vertex 2.532464e+000 -1.406337e+000 5.225029e+000
         vertex 2.533847e+000 -1.490304e+000 5.205314e+000
      endloop
   endfacet
   facet normal 9.998644e-001 1.646952e-002 1.191577e-015
      outer loop
         vertex 2.533195e+000 -1.450727e+000 4.865709e+000
         vertex 2.533847e+000 -1.490304e+000 5.205314e+000
         vertex 2.535241e+000 -1.574925e+000 5.178341e+000
      endloop
   endfacet
   facet normal 9.998644e-001 1.646952e-002 1.191577e-015
      outer loop
         vertex 2.521250e+000 -7.255560e-001 5.125615e+000
         vertex 2.522693e+000 -8.131258e-001 5.164271e+000
         vertex 2.525349e+000 -9.744131e-001 4.865709e+000
      endloop
   endfacet
   facet normal 9.998644e-001 1.646952e-002 1.191577e-015
      outer loop
         vertex 2.525349e+000 -9.744131e-001 4.865709e+000
         vertex 2.522693e+000 -8.131258e-001 5.164271e+000
         vertex 2.524131e+000 -9.004182e-001 5.195204e+000
      endloop
   endfacet
   facet normal 9.998644e-001 1.646952e-002 1.191577e-015
      outer loop
         vertex 2.525349e+000 -9.744131e-001 4.865709e+000
         vertex 2.524131e+000 -9.004182e-001 5.195204e+000
         vertex 2.525547e+000 -9.864165e-001 5.218256e+000
      endloop
   endfacet
   facet normal 9.998644e-001 1.646952e-002 1.191577e-015
      outer loop
         vertex 2.525547e+000 -9.864165e-001 5.218256e+000
         vertex 2.526946e+000 -1.071370e+000 5.233797e+000
         vertex 2.525349e+000 -9.744131e-001 4.865709e+000
      endloop
   endfacet
   facet normal 9.998644e-001 1.646952e-002 1.191577e-015
      outer loop
         vertex 2.525349e+000 -9.744131e-001 4.865709e+000
         vertex 2.526946e+000 -1.071370e+000 5.233797e+000
         vertex 2.528333e+000 -1.155553e+000 5.242106e+000
      endloop
   endfacet
   facet normal 9.998644e-001 1.646952e-002 1.191577e-015
      outer loop
         vertex 2.525349e+000 -9.744131e-001 4.865709e+000
         vertex 2.528333e+000 -1.155553e+000 5.242106e+000
         vertex 2.533195e+000 -1.450727e+000 4.865709e+000
      endloop
   endfacet
   facet normal 9.998644e-001 1.646952e-002 1.191577e-015
      outer loop
         vertex 2.533195e+000 -1.450727e+000 4.865709e+000
         vertex 2.528333e+000 -1.155553e+000 5.242106e+000
         vertex 2.529712e+000 -1.239249e+000 5.243371e+000
      endloop
   endfacet
   facet normal 9.998644e-001 1.646952e-002 1.191577e-015
      outer loop
         vertex 2.533195e+000 -1.450727e+000 4.865709e+000
         vertex 2.529712e+000 -1.239249e+000 5.243371e+000
         vertex 2.531087e+000 -1.322747e+000 5.237681e+000
      endloop
   endfacet
endsolid