solid servo_big40x20-1-solid1_Default_sldprt
   facet normal 0.000000e+000 0.000000e+000 1.000000e+000
      outer loop
         vertex 4.166996e-001 -1.282375e+000 2.684670e+000
         vertex 4.090329e-001 -1.307409e+000 2.684670e+000
         vertex 4.958463e-001 -1.645522e+000 2.684670e+000
      endloop
   endfacet
   facet normal 0.000000e+000 0.000000e+000 1.000000e+000
      outer loop
         vertex 4.090329e-001 -1.307409e+000 2.684670e+000
         vertex 3.972456e-001 -1.330788e+000 2.684670e+000
         vertex 4.958463e-001 -1.645522e+000 2.684670e+000
      endloop
   endfacet
   facet normal 0.000000e+000 0.000000e+000 1.000000e+000
      outer loop
         vertex 4.958463e-001 -1.645522e+000 2.684670e+000
         vertex 3.972456e-001 -1.330788e+000 2.684670e+000
         vertex 3.816769e-001 -1.351838e+000 2.684670e+000
      endloop
   endfacet
   facet normal 0.000000e+000 0.000000e+000 1.000000e+000
      outer loop
         vertex 4.958463e-001 -1.645522e+000 2.684670e+000
         vertex 3.816769e-001 -1.351838e+000 2.684670e+000
         vertex 3.627746e-001 -1.369954e+000 2.684670e+000
      endloop
   endfacet
   facet normal 0.000000e+000 0.000000e+000 1.000000e+000
      outer loop
         vertex -1.098642e+000 -1.645522e+000 2.684670e+000
         vertex 1.905168e-001 -1.384616e+000 2.684670e+000
         vertex 1.688247e-001 -1.369954e+000 2.684670e+000
      endloop
   endfacet
   facet normal 0.000000e+000 0.000000e+000 1.000000e+000
      outer loop
         vertex 1.688247e-001 -1.369954e+000 2.684670e+000
         vertex 1.499224e-001 -1.351838e+000 2.684670e+000
         vertex -1.098642e+000 -1.645522e+000 2.684670e+000
      endloop
   endfacet
   facet normal 0.000000e+000 0.000000e+000 1.000000e+000
      outer loop
         vertex -1.098642e+000 -1.645522e+000 2.684670e+000
         vertex 1.499224e-001 -1.351838e+000 2.684670e+000
         vertex 1.343537e-001 -1.330788e+000 2.684670e+000
      endloop
   endfacet
   facet normal 0.000000e+000 0.000000e+000 1.000000e+000
      outer loop
         vertex -1.098642e+000 -1.645522e+000 2.684670e+000
         vertex 1.343537e-001 -1.330788e+000 2.684670e+000
         vertex 1.225665e-001 -1.307409e+000 2.684670e+000
      endloop
   endfacet
   facet normal 0.000000e+000 0.000000e+000 1.000000e+000
      outer loop
         vertex 4.166996e-001 -1.282375e+000 2.684670e+000
         vertex 4.958463e-001 -1.645522e+000 2.684670e+000
         vertex 4.200252e-001 -1.256405e+000 2.684670e+000
      endloop
   endfacet
   facet normal 0.000000e+000 0.000000e+000 1.000000e+000
      outer loop
         vertex 4.200252e-001 -1.256405e+000 2.684670e+000
         vertex 4.958463e-001 -1.645522e+000 2.684670e+000
         vertex 4.958463e-001 -8.541839e-001 2.684670e+000
      endloop
   endfacet
   facet normal 0.000000e+000 0.000000e+000 1.000000e+000
      outer loop
         vertex 4.200252e-001 -1.256405e+000 2.684670e+000
         vertex 4.958463e-001 -8.541839e-001 2.684670e+000
         vertex 4.189140e-001 -1.230246e+000 2.684670e+000
      endloop
   endfacet
   facet normal 0.000000e+000 0.000000e+000 1.000000e+000
      outer loop
         vertex 3.046962e-001 -1.100469e+000 2.684670e+000
         vertex 3.293827e-001 -1.109192e+000 2.684670e+000
         vertex 4.958463e-001 -8.541839e-001 2.684670e+000
      endloop
   endfacet
   facet normal 0.000000e+000 0.000000e+000 1.000000e+000
      outer loop
         vertex 3.627746e-001 -1.369954e+000 2.684670e+000
         vertex 3.410825e-001 -1.384616e+000 2.684670e+000
         vertex 4.958463e-001 -1.645522e+000 2.684670e+000
      endloop
   endfacet
   facet normal 0.000000e+000 0.000000e+000 1.000000e+000
      outer loop
         vertex 4.958463e-001 -1.645522e+000 2.684670e+000
         vertex 3.410825e-001 -1.384616e+000 2.684670e+000
         vertex 3.172247e-001 -1.395400e+000 2.684670e+000
      endloop
   endfacet
   facet normal 0.000000e+000 0.000000e+000 1.000000e+000
      outer loop
         vertex 4.958463e-001 -1.645522e+000 2.684670e+000
         vertex 3.172247e-001 -1.395400e+000 2.684670e+000
         vertex 2.918874e-001 -1.401997e+000 2.684670e+000
      endloop
   endfacet
   facet normal 0.000000e+000 0.000000e+000 1.000000e+000
      outer loop
         vertex 2.918874e-001 -1.401997e+000 2.684670e+000
         vertex 2.657997e-001 -1.404218e+000 2.684670e+000
         vertex 4.958463e-001 -1.645522e+000 2.684670e+000
      endloop
   endfacet
   facet normal 0.000000e+000 0.000000e+000 1.000000e+000
      outer loop
         vertex 4.958463e-001 -1.645522e+000 2.684670e+000
         vertex 2.657997e-001 -1.404218e+000 2.684670e+000
         vertex 2.397119e-001 -1.401997e+000 2.684670e+000
      endloop
   endfacet
   facet normal 0.000000e+000 0.000000e+000 1.000000e+000
      outer loop
         vertex 4.958463e-001 -1.645522e+000 2.684670e+000
         vertex 2.397119e-001 -1.401997e+000 2.684670e+000
         vertex -1.098642e+000 -1.645522e+000 2.684670e+000
      endloop
   endfacet
   facet normal 0.000000e+000 0.000000e+000 1.000000e+000
      outer loop
         vertex -1.098642e+000 -1.645522e+000 2.684670e+000
         vertex 2.397119e-001 -1.401997e+000 2.684670e+000
         vertex 2.143747e-001 -1.395400e+000 2.684670e+000
      endloop
   endfacet
   facet normal 0.000000e+000 0.000000e+000 1.000000e+000
      outer loop
         vertex -1.098642e+000 -1.645522e+000 2.684670e+000
         vertex 2.143747e-001 -1.395400e+000 2.684670e+000
         vertex 1.905168e-001 -1.384616e+000 2.684670e+000
      endloop
   endfacet
   facet normal 0.000000e+000 0.000000e+000 1.000000e+000
      outer loop
         vertex 1.182014e-001 -1.204652e+000 2.684670e+000
         vertex 1.279635e-001 -1.180358e+000 2.684670e+000
         vertex -1.098642e+000 -8.541839e-001 2.684670e+000
      endloop
   endfacet
   facet normal 0.000000e+000 0.000000e+000 1.000000e+000
      outer loop
         vertex -1.098642e+000 -8.541839e-001 2.684670e+000
         vertex 1.279635e-001 -1.180358e+000 2.684670e+000
         vertex 1.416910e-001 -1.158063e+000 2.684670e+000
      endloop
   endfacet
   facet normal 0.000000e+000 0.000000e+000 1.000000e+000
      outer loop
         vertex -1.098642e+000 -8.541839e-001 2.684670e+000
         vertex 1.416910e-001 -1.158063e+000 2.684670e+000
         vertex 1.589888e-001 -1.138409e+000 2.684670e+000
      endloop
   endfacet
   facet normal 0.000000e+000 0.000000e+000 1.000000e+000
      outer loop
         vertex 3.293827e-001 -1.109192e+000 2.684670e+000
         vertex 3.522400e-001 -1.121961e+000 2.684670e+000
         vertex 4.958463e-001 -8.541839e-001 2.684670e+000
      endloop
   endfacet
   facet normal 0.000000e+000 0.000000e+000 1.000000e+000
      outer loop
         vertex 4.958463e-001 -8.541839e-001 2.684670e+000
         vertex 3.522400e-001 -1.121961e+000 2.684670e+000
         vertex 3.726105e-001 -1.138409e+000 2.684670e+000
      endloop
   endfacet
   facet normal 0.000000e+000 0.000000e+000 1.000000e+000
      outer loop
         vertex 4.958463e-001 -8.541839e-001 2.684670e+000
         vertex 3.726105e-001 -1.138409e+000 2.684670e+000
         vertex 3.899084e-001 -1.158063e+000 2.684670e+000
      endloop
   endfacet
   facet normal 0.000000e+000 0.000000e+000 1.000000e+000
      outer loop
         vertex 3.899084e-001 -1.158063e+000 2.684670e+000
         vertex 4.036358e-001 -1.180358e+000 2.684670e+000
         vertex 4.958463e-001 -8.541839e-001 2.684670e+000
      endloop
   endfacet
   facet normal 0.000000e+000 0.000000e+000 1.000000e+000
      outer loop
         vertex 4.958463e-001 -8.541839e-001 2.684670e+000
         vertex 4.036358e-001 -1.180358e+000 2.684670e+000
         vertex 4.133980e-001 -1.204652e+000 2.684670e+000
      endloop
   endfacet
   facet normal 0.000000e+000 0.000000e+000 1.000000e+000
      outer loop
         vertex 4.958463e-001 -8.541839e-001 2.684670e+000
         vertex 4.133980e-001 -1.204652e+000 2.684670e+000
         vertex 4.189140e-001 -1.230246e+000 2.684670e+000
      endloop
   endfacet
   facet normal 0.000000e+000 0.000000e+000 1.000000e+000
      outer loop
         vertex 1.225665e-001 -1.307409e+000 2.684670e+000
         vertex 1.148998e-001 -1.282375e+000 2.684670e+000
         vertex -1.098642e+000 -1.645522e+000 2.684670e+000
      endloop
   endfacet
   facet normal 0.000000e+000 0.000000e+000 1.000000e+000
      outer loop
         vertex -1.098642e+000 -1.645522e+000 2.684670e+000
         vertex 1.148998e-001 -1.282375e+000 2.684670e+000
         vertex 1.115742e-001 -1.256405e+000 2.684670e+000
      endloop
   endfacet
   facet normal 0.000000e+000 0.000000e+000 1.000000e+000
      outer loop
         vertex -1.098642e+000 -1.645522e+000 2.684670e+000
         vertex 1.115742e-001 -1.256405e+000 2.684670e+000
         vertex -1.098642e+000 -8.541839e-001 2.684670e+000
      endloop
   endfacet
   facet normal 0.000000e+000 0.000000e+000 1.000000e+000
      outer loop
         vertex -1.098642e+000 -8.541839e-001 2.684670e+000
         vertex 1.115742e-001 -1.256405e+000 2.684670e+000
         vertex 1.126854e-001 -1.230246e+000 2.684670e+000
      endloop
   endfacet
   facet normal 0.000000e+000 0.000000e+000 1.000000e+000
      outer loop
         vertex -1.098642e+000 -8.541839e-001 2.684670e+000
         vertex 1.126854e-001 -1.230246e+000 2.684670e+000
         vertex 1.182014e-001 -1.204652e+000 2.684670e+000
      endloop
   endfacet
   facet normal 0.000000e+000 0.000000e+000 1.000000e+000
      outer loop
         vertex 1.589888e-001 -1.138409e+000 2.684670e+000
         vertex 1.793594e-001 -1.121961e+000 2.684670e+000
         vertex -1.098642e+000 -8.541839e-001 2.684670e+000
      endloop
   endfacet
   facet normal 0.000000e+000 0.000000e+000 1.000000e+000
      outer loop
         vertex -1.098642e+000 -8.541839e-001 2.684670e+000
         vertex 1.793594e-001 -1.121961e+000 2.684670e+000
         vertex 2.022167e-001 -1.109192e+000 2.684670e+000
      endloop
   endfacet
   facet normal 0.000000e+000 0.000000e+000 1.000000e+000
      outer loop
         vertex -1.098642e+000 -8.541839e-001 2.684670e+000
         vertex 2.022167e-001 -1.109192e+000 2.684670e+000
         vertex 4.958463e-001 -8.541839e-001 2.684670e+000
      endloop
   endfacet
   facet normal 0.000000e+000 0.000000e+000 1.000000e+000
      outer loop
         vertex 4.958463e-001 -8.541839e-001 2.684670e+000
         vertex 2.022167e-001 -1.109192e+000 2.684670e+000
         vertex 2.269032e-001 -1.100469e+000 2.684670e+000
      endloop
   endfacet
   facet normal 0.000000e+000 0.000000e+000 1.000000e+000
      outer loop
         vertex 4.958463e-001 -8.541839e-001 2.684670e+000
         vertex 2.269032e-001 -1.100469e+000 2.684670e+000
         vertex 2.527086e-001 -1.096045e+000 2.684670e+000
      endloop
   endfacet
   facet normal 0.000000e+000 0.000000e+000 1.000000e+000
      outer loop
         vertex 2.527086e-001 -1.096045e+000 2.684670e+000
         vertex 2.657997e-001 -1.095489e+000 2.684670e+000
         vertex 4.958463e-001 -8.541839e-001 2.684670e+000
      endloop
   endfacet
   facet normal 0.000000e+000 0.000000e+000 1.000000e+000
      outer loop
         vertex 4.958463e-001 -8.541839e-001 2.684670e+000
         vertex 2.657997e-001 -1.095489e+000 2.684670e+000
         vertex 2.788907e-001 -1.096045e+000 2.684670e+000
      endloop
   endfacet
   facet normal 0.000000e+000 0.000000e+000 1.000000e+000
      outer loop
         vertex 4.958463e-001 -8.541839e-001 2.684670e+000
         vertex 2.788907e-001 -1.096045e+000 2.684670e+000
         vertex 3.046962e-001 -1.100469e+000 2.684670e+000
      endloop
   endfacet
   facet normal 8.462066e-017 -1.000000e+000 0.000000e+000
      outer loop
         vertex 4.958463e-001 -1.645522e+000 2.684670e+000
         vertex -1.098642e+000 -1.645522e+000 2.684670e+000
         vertex 4.958463e-001 -1.645522e+000 1.503568e+000
      endloop
   endfacet
   facet normal 8.462066e-017 -1.000000e+000 0.000000e+000
      outer loop
         vertex 4.958463e-001 -1.645522e+000 1.503568e+000
         vertex -1.098642e+000 -1.645522e+000 2.684670e+000
         vertex -1.098642e+000 -1.645522e+000 1.503568e+000
      endloop
   endfacet
   facet normal 1.000000e+000 -3.784402e-017 0.000000e+000
      outer loop
         vertex 4.958463e-001 -8.541839e-001 2.684670e+000
         vertex 4.958463e-001 -1.645522e+000 2.684670e+000
         vertex 4.958463e-001 -8.541839e-001 1.503568e+000
      endloop
   endfacet
   facet normal 1.000000e+000 -3.784402e-017 0.000000e+000
      outer loop
         vertex 4.958463e-001 -8.541839e-001 1.503568e+000
         vertex 4.958463e-001 -1.645522e+000 2.684670e+000
         vertex 4.958463e-001 -1.645522e+000 1.503568e+000
      endloop
   endfacet
   facet normal -4.782133e-017 1.000000e+000 0.000000e+000
      outer loop
         vertex -1.098642e+000 -8.541839e-001 2.684670e+000
         vertex 4.958463e-001 -8.541839e-001 2.684670e+000
         vertex -1.098642e+000 -8.541839e-001 1.503568e+000
      endloop
   endfacet
   facet normal -4.782133e-017 1.000000e+000 0.000000e+000
      outer loop
         vertex -1.098642e+000 -8.541839e-001 1.503568e+000
         vertex 4.958463e-001 -8.541839e-001 2.684670e+000
         vertex 4.958463e-001 -8.541839e-001 1.503568e+000
      endloop
   endfacet
   facet normal -1.000000e+000 3.784402e-017 0.000000e+000
      outer loop
         vertex -1.098642e+000 -1.645522e+000 2.684670e+000
         vertex -1.098642e+000 -8.541839e-001 2.684670e+000
         vertex -1.098642e+000 -1.645522e+000 1.503568e+000
      endloop
   endfacet
   facet normal -1.000000e+000 3.784402e-017 0.000000e+000
      outer loop
         vertex -1.098642e+000 -1.645522e+000 1.503568e+000
         vertex -1.098642e+000 -8.541839e-001 2.684670e+000
         vertex -1.098642e+000 -8.541839e-001 1.503568e+000
      endloop
   endfacet
   facet normal 0.000000e+000 0.000000e+000 -1.000000e+000
      outer loop
         vertex -1.098642e+000 -8.541839e-001 1.503568e+000
         vertex 4.958463e-001 -8.541839e-001 1.503568e+000
         vertex -1.098642e+000 -1.645522e+000 1.503568e+000
      endloop
   endfacet
   facet normal 0.000000e+000 0.000000e+000 -1.000000e+000
      outer loop
         vertex -1.098642e+000 -1.645522e+000 1.503568e+000
         vertex 4.958463e-001 -8.541839e-001 1.503568e+000
         vertex 4.958463e-001 -1.645522e+000 1.503568e+000
      endloop
   endfacet
   facet normal -2.829130e-002 9.995998e-001 0.000000e+000
      outer loop
         vertex 2.527086e-001 -1.096045e+000 2.842151e+000
         vertex 2.657997e-001 -1.095489e+000 2.842151e+000
         vertex 2.657997e-001 -1.095489e+000 2.684670e+000
      endloop
   endfacet
   facet normal 2.829130e-002 9.995998e-001 0.000000e+000
      outer loop
         vertex 2.657997e-001 -1.095489e+000 2.684670e+000
         vertex 2.657997e-001 -1.095489e+000 2.842151e+000
         vertex 2.788907e-001 -1.096045e+000 2.684670e+000
      endloop
   endfacet
   facet normal -5.658260e-002 9.983979e-001 0.000000e+000
      outer loop
         vertex 2.657997e-001 -1.095489e+000 2.684670e+000
         vertex 2.527086e-001 -1.096045e+000 2.684670e+000
         vertex 2.527086e-001 -1.096045e+000 2.842151e+000
      endloop
   endfacet
   facet normal -1.409813e-001 9.900123e-001 0.000000e+000
      outer loop
         vertex 2.527086e-001 -1.096045e+000 2.842151e+000
         vertex 2.527086e-001 -1.096045e+000 2.684670e+000
         vertex 2.269032e-001 -1.100469e+000 2.684670e+000
      endloop
   endfacet
   facet normal -1.968844e-001 9.804267e-001 0.000000e+000
      outer loop
         vertex 2.527086e-001 -1.096045e+000 2.842151e+000
         vertex 2.269032e-001 -1.100469e+000 2.684670e+000
         vertex 2.269032e-001 -1.100469e+000 2.842151e+000
      endloop
   endfacet
   facet normal -3.062663e-001 9.519458e-001 0.000000e+000
      outer loop
         vertex 2.269032e-001 -1.100469e+000 2.842151e+000
         vertex 2.269032e-001 -1.100469e+000 2.684670e+000
         vertex 2.022167e-001 -1.109192e+000 2.684670e+000
      endloop
   endfacet
   facet normal -3.597453e-001 9.330506e-001 0.000000e+000
      outer loop
         vertex 2.269032e-001 -1.100469e+000 2.842151e+000
         vertex 2.022167e-001 -1.109192e+000 2.684670e+000
         vertex 2.022167e-001 -1.109192e+000 2.842151e+000
      endloop
   endfacet
   facet normal -4.627406e-001 8.864937e-001 0.000000e+000
      outer loop
         vertex 2.022167e-001 -1.109192e+000 2.842151e+000
         vertex 2.022167e-001 -1.109192e+000 2.684670e+000
         vertex 1.793594e-001 -1.121961e+000 2.684670e+000
      endloop
   endfacet
   facet normal -5.122570e-001 8.588322e-001 0.000000e+000
      outer loop
         vertex 2.022167e-001 -1.109192e+000 2.842151e+000
         vertex 1.793594e-001 -1.121961e+000 2.684670e+000
         vertex 1.793594e-001 -1.121961e+000 2.842151e+000
      endloop
   endfacet
   facet normal -6.059027e-001 7.955388e-001 0.000000e+000
      outer loop
         vertex 1.793594e-001 -1.121961e+000 2.842151e+000
         vertex 1.793594e-001 -1.121961e+000 2.684670e+000
         vertex 1.589888e-001 -1.138409e+000 2.684670e+000
      endloop
   endfacet
   facet normal -6.500320e-001 7.599069e-001 0.000000e+000
      outer loop
         vertex 1.793594e-001 -1.121961e+000 2.842151e+000
         vertex 1.589888e-001 -1.138409e+000 2.684670e+000
         vertex 1.589888e-001 -1.138409e+000 2.842151e+000
      endloop
   endfacet
   facet normal -7.316340e-001 6.816977e-001 0.000000e+000
      outer loop
         vertex 1.589888e-001 -1.138409e+000 2.842151e+000
         vertex 1.589888e-001 -1.138409e+000 2.684670e+000
         vertex 1.416910e-001 -1.158063e+000 2.684670e+000
      endloop
   endfacet
   facet normal -7.691067e-001 6.391203e-001 0.000000e+000
      outer loop
         vertex 1.589888e-001 -1.138409e+000 2.842151e+000
         vertex 1.416910e-001 -1.158063e+000 2.684670e+000
         vertex 1.416910e-001 -1.158063e+000 2.842151e+000
      endloop
   endfacet
   facet normal -8.363176e-001 5.482453e-001 0.000000e+000
      outer loop
         vertex 1.416910e-001 -1.158063e+000 2.842151e+000
         vertex 1.416910e-001 -1.158063e+000 2.684670e+000
         vertex 1.279635e-001 -1.180358e+000 2.684670e+000
      endloop
   endfacet
   facet normal -8.660557e-001 4.999475e-001 0.000000e+000
      outer loop
         vertex 1.416910e-001 -1.158063e+000 2.842151e+000
         vertex 1.279635e-001 -1.180358e+000 2.684670e+000
         vertex 1.279635e-001 -1.180358e+000 2.842151e+000
      endloop
   endfacet
   facet normal -9.169418e-001 3.990209e-001 0.000000e+000
      outer loop
         vertex 1.279635e-001 -1.180358e+000 2.842151e+000
         vertex 1.279635e-001 -1.180358e+000 2.684670e+000
         vertex 1.182014e-001 -1.204652e+000 2.684670e+000
      endloop
   endfacet
   facet normal -9.380898e-001 3.463921e-001 0.000000e+000
      outer loop
         vertex 1.279635e-001 -1.180358e+000 2.842151e+000
         vertex 1.182014e-001 -1.204652e+000 2.684670e+000
         vertex 1.182014e-001 -1.204652e+000 2.842151e+000
      endloop
   endfacet
   facet normal -9.711873e-001 2.383175e-001 0.000000e+000
      outer loop
         vertex 1.182014e-001 -1.204652e+000 2.842151e+000
         vertex 1.182014e-001 -1.204652e+000 2.684670e+000
         vertex 1.126854e-001 -1.230246e+000 2.684670e+000
      endloop
   endfacet
   facet normal -9.831368e-001 1.828716e-001 0.000000e+000
      outer loop
         vertex 1.182014e-001 -1.204652e+000 2.842151e+000
         vertex 1.126854e-001 -1.230246e+000 2.684670e+000
         vertex 1.126854e-001 -1.230246e+000 2.842151e+000
      endloop
   endfacet
   facet normal -9.974935e-001 7.075802e-002 0.000000e+000
      outer loop
         vertex 1.126854e-001 -1.230246e+000 2.842151e+000
         vertex 1.126854e-001 -1.230246e+000 2.684670e+000
         vertex 1.115742e-001 -1.256405e+000 2.684670e+000
      endloop
   endfacet
   facet normal -9.999007e-001 1.409025e-002 0.000000e+000
      outer loop
         vertex 1.126854e-001 -1.230246e+000 2.842151e+000
         vertex 1.115742e-001 -1.256405e+000 2.684670e+000
         vertex 1.115742e-001 -1.256405e+000 2.842151e+000
      endloop
   endfacet
   facet normal -9.951036e-001 -9.883699e-002 0.000000e+000
      outer loop
         vertex 1.115742e-001 -1.256405e+000 2.842151e+000
         vertex 1.115742e-001 -1.256405e+000 2.684670e+000
         vertex 1.148998e-001 -1.282375e+000 2.684670e+000
      endloop
   endfacet
   facet normal -9.878993e-001 -1.550965e-001 0.000000e+000
      outer loop
         vertex 1.115742e-001 -1.256405e+000 2.842151e+000
         vertex 1.148998e-001 -1.282375e+000 2.684670e+000
         vertex 1.148998e-001 -1.282375e+000 2.842151e+000
      endloop
   endfacet
   facet normal -9.640865e-001 -2.655886e-001 0.000000e+000
      outer loop
         vertex 1.148998e-001 -1.282375e+000 2.842151e+000
         vertex 1.148998e-001 -1.282375e+000 2.684670e+000
         vertex 1.225665e-001 -1.307409e+000 2.684670e+000
      endloop
   endfacet
   facet normal -9.474779e-001 -3.198213e-001 0.000000e+000
      outer loop
         vertex 1.148998e-001 -1.282375e+000 2.842151e+000
         vertex 1.225665e-001 -1.307409e+000 2.684670e+000
         vertex 1.225665e-001 -1.307409e+000 2.842151e+000
      endloop
   endfacet
   facet normal -9.053342e-001 -4.246998e-001 0.000000e+000
      outer loop
         vertex 1.225665e-001 -1.307409e+000 2.842151e+000
         vertex 1.225665e-001 -1.307409e+000 2.684670e+000
         vertex 1.343537e-001 -1.330788e+000 2.684670e+000
      endloop
   endfacet
   facet normal -8.797992e-001 -4.753455e-001 0.000000e+000
      outer loop
         vertex 1.225665e-001 -1.307409e+000 2.842151e+000
         vertex 1.343537e-001 -1.330788e+000 2.684670e+000
         vertex 1.343537e-001 -1.330788e+000 2.842151e+000
      endloop
   endfacet
   facet normal -8.205372e-001 -5.715931e-001 0.000000e+000
      outer loop
         vertex 1.343537e-001 -1.330788e+000 2.842151e+000
         vertex 1.343537e-001 -1.330788e+000 2.684670e+000
         vertex 1.499224e-001 -1.351838e+000 2.684670e+000
      endloop
   endfacet
   facet normal -7.868103e-001 -6.171949e-001 0.000000e+000
      outer loop
         vertex 1.343537e-001 -1.330788e+000 2.842151e+000
         vertex 1.499224e-001 -1.351838e+000 2.684670e+000
         vertex 1.499224e-001 -1.351838e+000 2.842151e+000
      endloop
   endfacet
   facet normal -7.121348e-001 -7.020428e-001 0.000000e+000
      outer loop
         vertex 1.499224e-001 -1.351838e+000 2.842151e+000
         vertex 1.499224e-001 -1.351838e+000 2.684670e+000
         vertex 1.688247e-001 -1.369954e+000 2.684670e+000
      endloop
   endfacet
   facet normal -6.711863e-001 -7.412888e-001 0.000000e+000
      outer loop
         vertex 1.499224e-001 -1.351838e+000 2.842151e+000
         vertex 1.688247e-001 -1.369954e+000 2.684670e+000
         vertex 1.688247e-001 -1.369954e+000 2.842151e+000
      endloop
   endfacet
   facet normal -5.832456e-001 -8.122959e-001 0.000000e+000
      outer loop
         vertex 1.688247e-001 -1.369954e+000 2.842151e+000
         vertex 1.688247e-001 -1.369954e+000 2.684670e+000
         vertex 1.905168e-001 -1.384616e+000 2.684670e+000
      endloop
   endfacet
   facet normal -5.362535e-001 -8.440570e-001 0.000000e+000
      outer loop
         vertex 1.688247e-001 -1.369954e+000 2.842151e+000
         vertex 1.905168e-001 -1.384616e+000 2.684670e+000
         vertex 1.905168e-001 -1.384616e+000 2.842151e+000
      endloop
   endfacet
   facet normal -4.375775e-001 -8.991807e-001 0.000000e+000
      outer loop
         vertex 1.905168e-001 -1.384616e+000 2.842151e+000
         vertex 1.905168e-001 -1.384616e+000 2.684670e+000
         vertex 2.143747e-001 -1.395400e+000 2.684670e+000
      endloop
   endfacet
   facet normal -3.858936e-001 -9.225433e-001 0.000000e+000
      outer loop
         vertex 1.905168e-001 -1.384616e+000 2.842151e+000
         vertex 2.143747e-001 -1.395400e+000 2.684670e+000
         vertex 2.143747e-001 -1.395400e+000 2.842151e+000
      endloop
   endfacet
   facet normal -2.793211e-001 -9.601977e-001 0.000000e+000
      outer loop
         vertex 2.143747e-001 -1.395400e+000 2.842151e+000
         vertex 2.143747e-001 -1.395400e+000 2.684670e+000
         vertex 2.397119e-001 -1.401997e+000 2.684670e+000
      endloop
   endfacet
   facet normal -2.244324e-001 -9.744897e-001 0.000000e+000
      outer loop
         vertex 2.143747e-001 -1.395400e+000 2.842151e+000
         vertex 2.397119e-001 -1.401997e+000 2.684670e+000
         vertex 2.397119e-001 -1.401997e+000 2.842151e+000
      endloop
   endfacet
   facet normal -1.130291e-001 -9.935917e-001 0.000000e+000
      outer loop
         vertex 2.397119e-001 -1.401997e+000 2.842151e+000
         vertex 2.397119e-001 -1.401997e+000 2.684670e+000
         vertex 2.657997e-001 -1.404218e+000 2.684670e+000
      endloop
   endfacet
   facet normal -5.651454e-002 -9.984018e-001 0.000000e+000
      outer loop
         vertex 2.397119e-001 -1.401997e+000 2.842151e+000
         vertex 2.657997e-001 -1.404218e+000 2.684670e+000
         vertex 2.657997e-001 -1.404218e+000 2.842151e+000
      endloop
   endfacet
   facet normal 5.651454e-002 -9.984018e-001 0.000000e+000
      outer loop
         vertex 2.657997e-001 -1.404218e+000 2.842151e+000
         vertex 2.657997e-001 -1.404218e+000 2.684670e+000
         vertex 2.918874e-001 -1.401997e+000 2.684670e+000
      endloop
   endfacet
   facet normal 1.130291e-001 -9.935917e-001 0.000000e+000
      outer loop
         vertex 2.657997e-001 -1.404218e+000 2.842151e+000
         vertex 2.918874e-001 -1.401997e+000 2.684670e+000
         vertex 2.918874e-001 -1.401997e+000 2.842151e+000
      endloop
   endfacet
   facet normal 2.244324e-001 -9.744897e-001 0.000000e+000
      outer loop
         vertex 2.918874e-001 -1.401997e+000 2.842151e+000
         vertex 2.918874e-001 -1.401997e+000 2.684670e+000
         vertex 3.172247e-001 -1.395400e+000 2.684670e+000
      endloop
   endfacet
   facet normal 2.793211e-001 -9.601977e-001 0.000000e+000
      outer loop
         vertex 2.918874e-001 -1.401997e+000 2.842151e+000
         vertex 3.172247e-001 -1.395400e+000 2.684670e+000
         vertex 3.172247e-001 -1.395400e+000 2.842151e+000
      endloop
   endfacet
   facet normal 3.858936e-001 -9.225433e-001 0.000000e+000
      outer loop
         vertex 3.172247e-001 -1.395400e+000 2.842151e+000
         vertex 3.172247e-001 -1.395400e+000 2.684670e+000
         vertex 3.410825e-001 -1.384616e+000 2.684670e+000
      endloop
   endfacet
   facet normal 4.375775e-001 -8.991807e-001 0.000000e+000
      outer loop
         vertex 3.172247e-001 -1.395400e+000 2.842151e+000
         vertex 3.410825e-001 -1.384616e+000 2.684670e+000
         vertex 3.410825e-001 -1.384616e+000 2.842151e+000
      endloop
   endfacet
   facet normal 5.362535e-001 -8.440570e-001 0.000000e+000
      outer loop
         vertex 3.410825e-001 -1.384616e+000 2.842151e+000
         vertex 3.410825e-001 -1.384616e+000 2.684670e+000
         vertex 3.627746e-001 -1.369954e+000 2.684670e+000
      endloop
   endfacet
   facet normal 5.832456e-001 -8.122959e-001 0.000000e+000
      outer loop
         vertex 3.410825e-001 -1.384616e+000 2.842151e+000
         vertex 3.627746e-001 -1.369954e+000 2.684670e+000
         vertex 3.627746e-001 -1.369954e+000 2.842151e+000
      endloop
   endfacet
   facet normal 6.711863e-001 -7.412888e-001 0.000000e+000
      outer loop
         vertex 3.627746e-001 -1.369954e+000 2.842151e+000
         vertex 3.627746e-001 -1.369954e+000 2.684670e+000
         vertex 3.816769e-001 -1.351838e+000 2.684670e+000
      endloop
   endfacet
   facet normal 7.121348e-001 -7.020428e-001 0.000000e+000
      outer loop
         vertex 3.627746e-001 -1.369954e+000 2.842151e+000
         vertex 3.816769e-001 -1.351838e+000 2.684670e+000
         vertex 3.816769e-001 -1.351838e+000 2.842151e+000
      endloop
   endfacet
   facet normal 7.868103e-001 -6.171949e-001 0.000000e+000
      outer loop
         vertex 3.816769e-001 -1.351838e+000 2.842151e+000
         vertex 3.816769e-001 -1.351838e+000 2.684670e+000
         vertex 3.972456e-001 -1.330788e+000 2.684670e+000
      endloop
   endfacet
   facet normal 8.205372e-001 -5.715931e-001 0.000000e+000
      outer loop
         vertex 3.816769e-001 -1.351838e+000 2.842151e+000
         vertex 3.972456e-001 -1.330788e+000 2.684670e+000
         vertex 3.972456e-001 -1.330788e+000 2.842151e+000
      endloop
   endfacet
   facet normal 8.797992e-001 -4.753455e-001 0.000000e+000
      outer loop
         vertex 3.972456e-001 -1.330788e+000 2.842151e+000
         vertex 3.972456e-001 -1.330788e+000 2.684670e+000
         vertex 4.090329e-001 -1.307409e+000 2.684670e+000
      endloop
   endfacet
   facet normal 9.053342e-001 -4.246998e-001 0.000000e+000
      outer loop
         vertex 3.972456e-001 -1.330788e+000 2.842151e+000
         vertex 4.090329e-001 -1.307409e+000 2.684670e+000
         vertex 4.090329e-001 -1.307409e+000 2.842151e+000
      endloop
   endfacet
   facet normal 9.474779e-001 -3.198213e-001 0.000000e+000
      outer loop
         vertex 4.090329e-001 -1.307409e+000 2.842151e+000
         vertex 4.090329e-001 -1.307409e+000 2.684670e+000
         vertex 4.166996e-001 -1.282375e+000 2.684670e+000
      endloop
   endfacet
   facet normal 9.640865e-001 -2.655886e-001 0.000000e+000
      outer loop
         vertex 4.090329e-001 -1.307409e+000 2.842151e+000
         vertex 4.166996e-001 -1.282375e+000 2.684670e+000
         vertex 4.166996e-001 -1.282375e+000 2.842151e+000
      endloop
   endfacet
   facet normal 9.878993e-001 -1.550965e-001 0.000000e+000
      outer loop
         vertex 4.166996e-001 -1.282375e+000 2.842151e+000
         vertex 4.166996e-001 -1.282375e+000 2.684670e+000
         vertex 4.200252e-001 -1.256405e+000 2.684670e+000
      endloop
   endfacet
   facet normal 9.951036e-001 -9.883699e-002 0.000000e+000
      outer loop
         vertex 4.166996e-001 -1.282375e+000 2.842151e+000
         vertex 4.200252e-001 -1.256405e+000 2.684670e+000
         vertex 4.200252e-001 -1.256405e+000 2.842151e+000
      endloop
   endfacet
   facet normal 9.999007e-001 1.409025e-002 0.000000e+000
      outer loop
         vertex 4.200252e-001 -1.256405e+000 2.842151e+000
         vertex 4.200252e-001 -1.256405e+000 2.684670e+000
         vertex 4.189140e-001 -1.230246e+000 2.684670e+000
      endloop
   endfacet
   facet normal 9.974935e-001 7.075802e-002 0.000000e+000
      outer loop
         vertex 4.200252e-001 -1.256405e+000 2.842151e+000
         vertex 4.189140e-001 -1.230246e+000 2.684670e+000
         vertex 4.189140e-001 -1.230246e+000 2.842151e+000
      endloop
   endfacet
   facet normal 9.831368e-001 1.828716e-001 0.000000e+000
      outer loop
         vertex 4.189140e-001 -1.230246e+000 2.842151e+000
         vertex 4.189140e-001 -1.230246e+000 2.684670e+000
         vertex 4.133980e-001 -1.204652e+000 2.684670e+000
      endloop
   endfacet
   facet normal 9.711873e-001 2.383175e-001 0.000000e+000
      outer loop
         vertex 4.189140e-001 -1.230246e+000 2.842151e+000
         vertex 4.133980e-001 -1.204652e+000 2.684670e+000
         vertex 4.133980e-001 -1.204652e+000 2.842151e+000
      endloop
   endfacet
   facet normal 9.380898e-001 3.463921e-001 0.000000e+000
      outer loop
         vertex 4.133980e-001 -1.204652e+000 2.842151e+000
         vertex 4.133980e-001 -1.204652e+000 2.684670e+000
         vertex 4.036358e-001 -1.180358e+000 2.684670e+000
      endloop
   endfacet
   facet normal 9.169418e-001 3.990209e-001 0.000000e+000
      outer loop
         vertex 4.133980e-001 -1.204652e+000 2.842151e+000
         vertex 4.036358e-001 -1.180358e+000 2.684670e+000
         vertex 4.036358e-001 -1.180358e+000 2.842151e+000
      endloop
   endfacet
   facet normal 8.660557e-001 4.999475e-001 0.000000e+000
      outer loop
         vertex 4.036358e-001 -1.180358e+000 2.842151e+000
         vertex 4.036358e-001 -1.180358e+000 2.684670e+000
         vertex 3.899084e-001 -1.158063e+000 2.684670e+000
      endloop
   endfacet
   facet normal 8.363176e-001 5.482453e-001 0.000000e+000
      outer loop
         vertex 4.036358e-001 -1.180358e+000 2.842151e+000
         vertex 3.899084e-001 -1.158063e+000 2.684670e+000
         vertex 3.899084e-001 -1.158063e+000 2.842151e+000
      endloop
   endfacet
   facet normal 7.691067e-001 6.391203e-001 0.000000e+000
      outer loop
         vertex 3.899084e-001 -1.158063e+000 2.842151e+000
         vertex 3.899084e-001 -1.158063e+000 2.684670e+000
         vertex 3.726105e-001 -1.138409e+000 2.684670e+000
      endloop
   endfacet
   facet normal 7.316340e-001 6.816977e-001 0.000000e+000
      outer loop
         vertex 3.899084e-001 -1.158063e+000 2.842151e+000
         vertex 3.726105e-001 -1.138409e+000 2.684670e+000
         vertex 3.726105e-001 -1.138409e+000 2.842151e+000
      endloop
   endfacet
   facet normal 6.500320e-001 7.599069e-001 0.000000e+000
      outer loop
         vertex 3.726105e-001 -1.138409e+000 2.842151e+000
         vertex 3.726105e-001 -1.138409e+000 2.684670e+000
         vertex 3.522400e-001 -1.121961e+000 2.684670e+000
      endloop
   endfacet
   facet normal 6.059027e-001 7.955388e-001 0.000000e+000
      outer loop
         vertex 3.726105e-001 -1.138409e+000 2.842151e+000
         vertex 3.522400e-001 -1.121961e+000 2.684670e+000
         vertex 3.522400e-001 -1.121961e+000 2.842151e+000
      endloop
   endfacet
   facet normal 5.122570e-001 8.588322e-001 0.000000e+000
      outer loop
         vertex 3.522400e-001 -1.121961e+000 2.842151e+000
         vertex 3.522400e-001 -1.121961e+000 2.684670e+000
         vertex 3.293827e-001 -1.109192e+000 2.684670e+000
      endloop
   endfacet
   facet normal 4.627406e-001 8.864937e-001 0.000000e+000
      outer loop
         vertex 3.522400e-001 -1.121961e+000 2.842151e+000
         vertex 3.293827e-001 -1.109192e+000 2.684670e+000
         vertex 3.293827e-001 -1.109192e+000 2.842151e+000
      endloop
   endfacet
   facet normal 3.597453e-001 9.330506e-001 0.000000e+000
      outer loop
         vertex 3.293827e-001 -1.109192e+000 2.842151e+000
         vertex 3.293827e-001 -1.109192e+000 2.684670e+000
         vertex 3.046962e-001 -1.100469e+000 2.684670e+000
      endloop
   endfacet
   facet normal 3.062663e-001 9.519458e-001 0.000000e+000
      outer loop
         vertex 3.293827e-001 -1.109192e+000 2.842151e+000
         vertex 3.046962e-001 -1.100469e+000 2.684670e+000
         vertex 3.046962e-001 -1.100469e+000 2.842151e+000
      endloop
   endfacet
   facet normal 1.968844e-001 9.804267e-001 0.000000e+000
      outer loop
         vertex 3.046962e-001 -1.100469e+000 2.842151e+000
         vertex 3.046962e-001 -1.100469e+000 2.684670e+000
         vertex 2.788907e-001 -1.096045e+000 2.684670e+000
      endloop
   endfacet
   facet normal 1.409813e-001 9.900123e-001 0.000000e+000
      outer loop
         vertex 3.046962e-001 -1.100469e+000 2.842151e+000
         vertex 2.788907e-001 -1.096045e+000 2.684670e+000
         vertex 2.788907e-001 -1.096045e+000 2.842151e+000
      endloop
   endfacet
   facet normal 5.658260e-002 9.983979e-001 0.000000e+000
      outer loop
         vertex 2.788907e-001 -1.096045e+000 2.842151e+000
         vertex 2.788907e-001 -1.096045e+000 2.684670e+000
         vertex 2.657997e-001 -1.095489e+000 2.842151e+000
      endloop
   endfacet
   facet normal 0.000000e+000 0.000000e+000 1.000000e+000
      outer loop
         vertex 2.657997e-001 -1.404218e+000 2.842151e+000
         vertex 2.527086e-001 -1.096045e+000 2.842151e+000
         vertex 2.397119e-001 -1.401997e+000 2.842151e+000
      endloop
   endfacet
   facet normal 0.000000e+000 0.000000e+000 1.000000e+000
      outer loop
         vertex 2.397119e-001 -1.401997e+000 2.842151e+000
         vertex 2.527086e-001 -1.096045e+000 2.842151e+000
         vertex 2.143747e-001 -1.395400e+000 2.842151e+000
      endloop
   endfacet
   facet normal 0.000000e+000 0.000000e+000 1.000000e+000
      outer loop
         vertex 2.918874e-001 -1.401997e+000 2.842151e+000
         vertex 2.788907e-001 -1.096045e+000 2.842151e+000
         vertex 2.657997e-001 -1.404218e+000 2.842151e+000
      endloop
   endfacet
   facet normal 0.000000e+000 0.000000e+000 1.000000e+000
      outer loop
         vertex 2.657997e-001 -1.404218e+000 2.842151e+000
         vertex 2.788907e-001 -1.096045e+000 2.842151e+000
         vertex 2.657997e-001 -1.095489e+000 2.842151e+000
      endloop
   endfacet
   facet normal 0.000000e+000 0.000000e+000 1.000000e+000
      outer loop
         vertex 2.657997e-001 -1.404218e+000 2.842151e+000
         vertex 2.657997e-001 -1.095489e+000 2.842151e+000
         vertex 2.527086e-001 -1.096045e+000 2.842151e+000
      endloop
   endfacet
   facet normal 0.000000e+000 0.000000e+000 1.000000e+000
      outer loop
         vertex 2.918874e-001 -1.401997e+000 2.842151e+000
         vertex 3.172247e-001 -1.395400e+000 2.842151e+000
         vertex 2.788907e-001 -1.096045e+000 2.842151e+000
      endloop
   endfacet
   facet normal 0.000000e+000 0.000000e+000 1.000000e+000
      outer loop
         vertex 2.788907e-001 -1.096045e+000 2.842151e+000
         vertex 3.172247e-001 -1.395400e+000 2.842151e+000
         vertex 3.410825e-001 -1.384616e+000 2.842151e+000
      endloop
   endfacet
   facet normal 0.000000e+000 0.000000e+000 1.000000e+000
      outer loop
         vertex 2.788907e-001 -1.096045e+000 2.842151e+000
         vertex 3.410825e-001 -1.384616e+000 2.842151e+000
         vertex 3.627746e-001 -1.369954e+000 2.842151e+000
      endloop
   endfacet
   facet normal 0.000000e+000 0.000000e+000 1.000000e+000
      outer loop
         vertex 2.269032e-001 -1.100469e+000 2.842151e+000
         vertex 1.688247e-001 -1.369954e+000 2.842151e+000
         vertex 2.527086e-001 -1.096045e+000 2.842151e+000
      endloop
   endfacet
   facet normal 0.000000e+000 0.000000e+000 1.000000e+000
      outer loop
         vertex 2.527086e-001 -1.096045e+000 2.842151e+000
         vertex 1.688247e-001 -1.369954e+000 2.842151e+000
         vertex 1.905168e-001 -1.384616e+000 2.842151e+000
      endloop
   endfacet
   facet normal 0.000000e+000 0.000000e+000 1.000000e+000
      outer loop
         vertex 2.527086e-001 -1.096045e+000 2.842151e+000
         vertex 1.905168e-001 -1.384616e+000 2.842151e+000
         vertex 2.143747e-001 -1.395400e+000 2.842151e+000
      endloop
   endfacet
   facet normal 0.000000e+000 0.000000e+000 1.000000e+000
      outer loop
         vertex 3.627746e-001 -1.369954e+000 2.842151e+000
         vertex 3.816769e-001 -1.351838e+000 2.842151e+000
         vertex 2.788907e-001 -1.096045e+000 2.842151e+000
      endloop
   endfacet
   facet normal 0.000000e+000 0.000000e+000 1.000000e+000
      outer loop
         vertex 2.788907e-001 -1.096045e+000 2.842151e+000
         vertex 3.816769e-001 -1.351838e+000 2.842151e+000
         vertex 3.972456e-001 -1.330788e+000 2.842151e+000
      endloop
   endfacet
   facet normal 0.000000e+000 0.000000e+000 1.000000e+000
      outer loop
         vertex 2.788907e-001 -1.096045e+000 2.842151e+000
         vertex 3.972456e-001 -1.330788e+000 2.842151e+000
         vertex 4.090329e-001 -1.307409e+000 2.842151e+000
      endloop
   endfacet
   facet normal 0.000000e+000 0.000000e+000 1.000000e+000
      outer loop
         vertex 4.090329e-001 -1.307409e+000 2.842151e+000
         vertex 4.166996e-001 -1.282375e+000 2.842151e+000
         vertex 2.788907e-001 -1.096045e+000 2.842151e+000
      endloop
   endfacet
   facet normal 0.000000e+000 0.000000e+000 1.000000e+000
      outer loop
         vertex 2.788907e-001 -1.096045e+000 2.842151e+000
         vertex 4.166996e-001 -1.282375e+000 2.842151e+000
         vertex 4.200252e-001 -1.256405e+000 2.842151e+000
      endloop
   endfacet
   facet normal 0.000000e+000 0.000000e+000 1.000000e+000
      outer loop
         vertex 2.788907e-001 -1.096045e+000 2.842151e+000
         vertex 4.200252e-001 -1.256405e+000 2.842151e+000
         vertex 4.189140e-001 -1.230246e+000 2.842151e+000
      endloop
   endfacet
   facet normal 0.000000e+000 0.000000e+000 1.000000e+000
      outer loop
         vertex 4.189140e-001 -1.230246e+000 2.842151e+000
         vertex 4.133980e-001 -1.204652e+000 2.842151e+000
         vertex 2.788907e-001 -1.096045e+000 2.842151e+000
      endloop
   endfacet
   facet normal 0.000000e+000 0.000000e+000 1.000000e+000
      outer loop
         vertex 2.788907e-001 -1.096045e+000 2.842151e+000
         vertex 4.133980e-001 -1.204652e+000 2.842151e+000
         vertex 4.036358e-001 -1.180358e+000 2.842151e+000
      endloop
   endfacet
   facet normal 0.000000e+000 0.000000e+000 1.000000e+000
      outer loop
         vertex 2.788907e-001 -1.096045e+000 2.842151e+000
         vertex 4.036358e-001 -1.180358e+000 2.842151e+000
         vertex 3.046962e-001 -1.100469e+000 2.842151e+000
      endloop
   endfacet
   facet normal 0.000000e+000 0.000000e+000 1.000000e+000
      outer loop
         vertex 3.046962e-001 -1.100469e+000 2.842151e+000
         vertex 4.036358e-001 -1.180358e+000 2.842151e+000
         vertex 3.293827e-001 -1.109192e+000 2.842151e+000
      endloop
   endfacet
   facet normal 0.000000e+000 0.000000e+000 1.000000e+000
      outer loop
         vertex 2.269032e-001 -1.100469e+000 2.842151e+000
         vertex 2.022167e-001 -1.109192e+000 2.842151e+000
         vertex 1.688247e-001 -1.369954e+000 2.842151e+000
      endloop
   endfacet
   facet normal 0.000000e+000 0.000000e+000 1.000000e+000
      outer loop
         vertex 1.688247e-001 -1.369954e+000 2.842151e+000
         vertex 2.022167e-001 -1.109192e+000 2.842151e+000
         vertex 1.793594e-001 -1.121961e+000 2.842151e+000
      endloop
   endfacet
   facet normal 0.000000e+000 0.000000e+000 1.000000e+000
      outer loop
         vertex 1.688247e-001 -1.369954e+000 2.842151e+000
         vertex 1.793594e-001 -1.121961e+000 2.842151e+000
         vertex 1.589888e-001 -1.138409e+000 2.842151e+000
      endloop
   endfacet
   facet normal 0.000000e+000 0.000000e+000 1.000000e+000
      outer loop
         vertex 1.589888e-001 -1.138409e+000 2.842151e+000
         vertex 1.416910e-001 -1.158063e+000 2.842151e+000
         vertex 1.688247e-001 -1.369954e+000 2.842151e+000
      endloop
   endfacet
   facet normal 0.000000e+000 0.000000e+000 1.000000e+000
      outer loop
         vertex 1.688247e-001 -1.369954e+000 2.842151e+000
         vertex 1.416910e-001 -1.158063e+000 2.842151e+000
         vertex 1.279635e-001 -1.180358e+000 2.842151e+000
      endloop
   endfacet
   facet normal 0.000000e+000 0.000000e+000 1.000000e+000
      outer loop
         vertex 1.688247e-001 -1.369954e+000 2.842151e+000
         vertex 1.279635e-001 -1.180358e+000 2.842151e+000
         vertex 1.499224e-001 -1.351838e+000 2.842151e+000
      endloop
   endfacet
   facet normal 0.000000e+000 0.000000e+000 1.000000e+000
      outer loop
         vertex 3.899084e-001 -1.158063e+000 2.842151e+000
         vertex 3.726105e-001 -1.138409e+000 2.842151e+000
         vertex 4.036358e-001 -1.180358e+000 2.842151e+000
      endloop
   endfacet
   facet normal 0.000000e+000 0.000000e+000 1.000000e+000
      outer loop
         vertex 4.036358e-001 -1.180358e+000 2.842151e+000
         vertex 3.726105e-001 -1.138409e+000 2.842151e+000
         vertex 3.522400e-001 -1.121961e+000 2.842151e+000
      endloop
   endfacet
   facet normal 0.000000e+000 0.000000e+000 1.000000e+000
      outer loop
         vertex 4.036358e-001 -1.180358e+000 2.842151e+000
         vertex 3.522400e-001 -1.121961e+000 2.842151e+000
         vertex 3.293827e-001 -1.109192e+000 2.842151e+000
      endloop
   endfacet
   facet normal 0.000000e+000 0.000000e+000 1.000000e+000
      outer loop
         vertex 1.182014e-001 -1.204652e+000 2.842151e+000
         vertex 1.126854e-001 -1.230246e+000 2.842151e+000
         vertex 1.225665e-001 -1.307409e+000 2.842151e+000
      endloop
   endfacet
   facet normal 0.000000e+000 0.000000e+000 1.000000e+000
      outer loop
         vertex 1.225665e-001 -1.307409e+000 2.842151e+000
         vertex 1.126854e-001 -1.230246e+000 2.842151e+000
         vertex 1.115742e-001 -1.256405e+000 2.842151e+000
      endloop
   endfacet
   facet normal 0.000000e+000 0.000000e+000 1.000000e+000
      outer loop
         vertex 1.225665e-001 -1.307409e+000 2.842151e+000
         vertex 1.115742e-001 -1.256405e+000 2.842151e+000
         vertex 1.148998e-001 -1.282375e+000 2.842151e+000
      endloop
   endfacet
   facet normal 0.000000e+000 0.000000e+000 1.000000e+000
      outer loop
         vertex 1.182014e-001 -1.204652e+000 2.842151e+000
         vertex 1.225665e-001 -1.307409e+000 2.842151e+000
         vertex 1.279635e-001 -1.180358e+000 2.842151e+000
      endloop
   endfacet
   facet normal 0.000000e+000 0.000000e+000 1.000000e+000
      outer loop
         vertex 1.279635e-001 -1.180358e+000 2.842151e+000
         vertex 1.225665e-001 -1.307409e+000 2.842151e+000
         vertex 1.343537e-001 -1.330788e+000 2.842151e+000
      endloop
   endfacet
   facet normal 0.000000e+000 0.000000e+000 1.000000e+000
      outer loop
         vertex 1.279635e-001 -1.180358e+000 2.842151e+000
         vertex 1.343537e-001 -1.330788e+000 2.842151e+000
         vertex 1.499224e-001 -1.351838e+000 2.842151e+000
      endloop
   endfacet
endsolid