solid tubocarbono-4-solid1_Default_sldprt
   facet normal 0.000000e+000 0.000000e+000 -1.000000e+000
      outer loop
         vertex 1.283771e+000 -7.031177e-001 -1.260224e+000
         vertex 1.270068e+000 -6.889852e-001 -1.260224e+000
         vertex 1.288762e+000 -6.986730e-001 -1.260224e+000
      endloop
   endfacet
   facet normal 0.000000e+000 0.000000e+000 -1.000000e+000
      outer loop
         vertex 1.288762e+000 -6.986730e-001 -1.260224e+000
         vertex 1.270068e+000 -6.889852e-001 -1.260224e+000
         vertex 1.276307e+000 -6.834293e-001 -1.260224e+000
      endloop
   endfacet
   facet normal 0.000000e+000 0.000000e+000 -1.000000e+000
      outer loop
         vertex 1.288762e+000 -6.986730e-001 -1.260224e+000
         vertex 1.276307e+000 -6.834293e-001 -1.260224e+000
         vertex 1.299784e+000 -6.911304e-001 -1.260224e+000
      endloop
   endfacet
   facet normal 0.000000e+000 0.000000e+000 -1.000000e+000
      outer loop
         vertex 1.299784e+000 -6.911304e-001 -1.260224e+000
         vertex 1.276307e+000 -6.834293e-001 -1.260224e+000
         vertex 1.290084e+000 -6.740010e-001 -1.260224e+000
      endloop
   endfacet
   facet normal 0.000000e+000 0.000000e+000 -1.000000e+000
      outer loop
         vertex 1.299784e+000 -6.911304e-001 -1.260224e+000
         vertex 1.290084e+000 -6.740010e-001 -1.260224e+000
         vertex 1.311921e+000 -6.855590e-001 -1.260224e+000
      endloop
   endfacet
   facet normal 0.000000e+000 0.000000e+000 -1.000000e+000
      outer loop
         vertex 1.311921e+000 -6.855590e-001 -1.260224e+000
         vertex 1.290084e+000 -6.740010e-001 -1.260224e+000
         vertex 1.305256e+000 -6.670367e-001 -1.260224e+000
      endloop
   endfacet
   facet normal 0.000000e+000 0.000000e+000 -1.000000e+000
      outer loop
         vertex 1.311921e+000 -6.855590e-001 -1.260224e+000
         vertex 1.305256e+000 -6.670367e-001 -1.260224e+000
         vertex 1.324826e+000 -6.821188e-001 -1.260224e+000
      endloop
   endfacet
   facet normal 0.000000e+000 0.000000e+000 -1.000000e+000
      outer loop
         vertex 1.324826e+000 -6.821188e-001 -1.260224e+000
         vertex 1.305256e+000 -6.670367e-001 -1.260224e+000
         vertex 1.321387e+000 -6.627365e-001 -1.260224e+000
      endloop
   endfacet
   facet normal 0.000000e+000 0.000000e+000 -1.000000e+000
      outer loop
         vertex 1.324826e+000 -6.821188e-001 -1.260224e+000
         vertex 1.321387e+000 -6.627365e-001 -1.260224e+000
         vertex 1.338126e+000 -6.809092e-001 -1.260224e+000
      endloop
   endfacet
   facet normal 0.000000e+000 0.000000e+000 -1.000000e+000
      outer loop
         vertex 1.338126e+000 -6.809092e-001 -1.260224e+000
         vertex 1.321387e+000 -6.627365e-001 -1.260224e+000
         vertex 1.338012e+000 -6.612244e-001 -1.260224e+000
      endloop
   endfacet
   facet normal 0.000000e+000 0.000000e+000 -1.000000e+000
      outer loop
         vertex 1.338126e+000 -6.809092e-001 -1.260224e+000
         vertex 1.338012e+000 -6.612244e-001 -1.260224e+000
         vertex 1.351440e+000 -6.819646e-001 -1.260224e+000
      endloop
   endfacet
   facet normal 0.000000e+000 0.000000e+000 -1.000000e+000
      outer loop
         vertex 1.351440e+000 -6.819646e-001 -1.260224e+000
         vertex 1.338012e+000 -6.612244e-001 -1.260224e+000
         vertex 1.354654e+000 -6.625438e-001 -1.260224e+000
      endloop
   endfacet
   facet normal 0.000000e+000 0.000000e+000 -1.000000e+000
      outer loop
         vertex 1.351440e+000 -6.819646e-001 -1.260224e+000
         vertex 1.354654e+000 -6.625438e-001 -1.260224e+000
         vertex 1.364383e+000 -6.852548e-001 -1.260224e+000
      endloop
   endfacet
   facet normal 0.000000e+000 0.000000e+000 -1.000000e+000
      outer loop
         vertex 1.364383e+000 -6.852548e-001 -1.260224e+000
         vertex 1.354654e+000 -6.625438e-001 -1.260224e+000
         vertex 1.370834e+000 -6.666566e-001 -1.260224e+000
      endloop
   endfacet
   facet normal 0.000000e+000 0.000000e+000 -1.000000e+000
      outer loop
         vertex 1.364383e+000 -6.852548e-001 -1.260224e+000
         vertex 1.370834e+000 -6.666566e-001 -1.260224e+000
         vertex 1.376585e+000 -6.906853e-001 -1.260224e+000
      endloop
   endfacet
   facet normal 0.000000e+000 0.000000e+000 -1.000000e+000
      outer loop
         vertex 1.376585e+000 -6.906853e-001 -1.260224e+000
         vertex 1.370834e+000 -6.666566e-001 -1.260224e+000
         vertex 1.386085e+000 -6.734446e-001 -1.260224e+000
      endloop
   endfacet
   facet normal 0.000000e+000 0.000000e+000 -1.000000e+000
      outer loop
         vertex 1.376585e+000 -6.906853e-001 -1.260224e+000
         vertex 1.386085e+000 -6.734446e-001 -1.260224e+000
         vertex 1.387693e+000 -6.980996e-001 -1.260224e+000
      endloop
   endfacet
   facet normal 0.000000e+000 0.000000e+000 -1.000000e+000
      outer loop
         vertex 1.387693e+000 -6.980996e-001 -1.260224e+000
         vertex 1.386085e+000 -6.734446e-001 -1.260224e+000
         vertex 1.399971e+000 -6.827126e-001 -1.260224e+000
      endloop
   endfacet
   facet normal 0.000000e+000 0.000000e+000 -1.000000e+000
      outer loop
         vertex 1.387693e+000 -6.980996e-001 -1.260224e+000
         vertex 1.399971e+000 -6.827126e-001 -1.260224e+000
         vertex 1.397388e+000 -7.072846e-001 -1.260224e+000
      endloop
   endfacet
   facet normal 0.000000e+000 0.000000e+000 -1.000000e+000
      outer loop
         vertex 1.397388e+000 -7.072846e-001 -1.260224e+000
         vertex 1.399971e+000 -6.827126e-001 -1.260224e+000
         vertex 1.412090e+000 -6.941938e-001 -1.260224e+000
      endloop
   endfacet
   facet normal 0.000000e+000 0.000000e+000 -1.000000e+000
      outer loop
         vertex 1.397388e+000 -7.072846e-001 -1.260224e+000
         vertex 1.412090e+000 -6.941938e-001 -1.260224e+000
         vertex 1.405392e+000 -7.179760e-001 -1.260224e+000
      endloop
   endfacet
   facet normal 0.000000e+000 0.000000e+000 -1.000000e+000
      outer loop
         vertex 1.405392e+000 -7.179760e-001 -1.260224e+000
         vertex 1.412090e+000 -6.941938e-001 -1.260224e+000
         vertex 1.422094e+000 -7.075580e-001 -1.260224e+000
      endloop
   endfacet
   facet normal 0.000000e+000 0.000000e+000 -1.000000e+000
      outer loop
         vertex 1.405392e+000 -7.179760e-001 -1.260224e+000
         vertex 1.422094e+000 -7.075580e-001 -1.260224e+000
         vertex 1.411474e+000 -7.298662e-001 -1.260224e+000
      endloop
   endfacet
   facet normal 0.000000e+000 0.000000e+000 -1.000000e+000
      outer loop
         vertex 1.411474e+000 -7.298662e-001 -1.260224e+000
         vertex 1.422094e+000 -7.075580e-001 -1.260224e+000
         vertex 1.429696e+000 -7.224208e-001 -1.260224e+000
      endloop
   endfacet
   facet normal 0.000000e+000 0.000000e+000 -1.000000e+000
      outer loop
         vertex 1.411474e+000 -7.298662e-001 -1.260224e+000
         vertex 1.429696e+000 -7.224208e-001 -1.260224e+000
         vertex 1.415458e+000 -7.426133e-001 -1.260224e+000
      endloop
   endfacet
   facet normal 0.000000e+000 0.000000e+000 -1.000000e+000
      outer loop
         vertex 1.415458e+000 -7.426133e-001 -1.260224e+000
         vertex 1.429696e+000 -7.224208e-001 -1.260224e+000
         vertex 1.434677e+000 -7.383545e-001 -1.260224e+000
      endloop
   endfacet
   facet normal 0.000000e+000 0.000000e+000 -1.000000e+000
      outer loop
         vertex 1.415458e+000 -7.426133e-001 -1.260224e+000
         vertex 1.434677e+000 -7.383545e-001 -1.260224e+000
         vertex 1.417231e+000 -7.558503e-001 -1.260224e+000
      endloop
   endfacet
   facet normal 0.000000e+000 0.000000e+000 -1.000000e+000
      outer loop
         vertex 1.417231e+000 -7.558503e-001 -1.260224e+000
         vertex 1.434677e+000 -7.383545e-001 -1.260224e+000
         vertex 1.436893e+000 -7.549008e-001 -1.260224e+000
      endloop
   endfacet
   facet normal 0.000000e+000 0.000000e+000 -1.000000e+000
      outer loop
         vertex 1.417231e+000 -7.558503e-001 -1.260224e+000
         vertex 1.436893e+000 -7.549008e-001 -1.260224e+000
         vertex 1.416742e+000 -7.691966e-001 -1.260224e+000
      endloop
   endfacet
   facet normal 0.000000e+000 0.000000e+000 -1.000000e+000
      outer loop
         vertex 1.416742e+000 -7.691966e-001 -1.260224e+000
         vertex 1.436893e+000 -7.549008e-001 -1.260224e+000
         vertex 1.436281e+000 -7.715837e-001 -1.260224e+000
      endloop
   endfacet
   facet normal 0.000000e+000 0.000000e+000 -1.000000e+000
      outer loop
         vertex 1.416742e+000 -7.691966e-001 -1.260224e+000
         vertex 1.436281e+000 -7.715837e-001 -1.260224e+000
         vertex 1.414004e+000 -7.822682e-001 -1.260224e+000
      endloop
   endfacet
   facet normal 0.000000e+000 0.000000e+000 -1.000000e+000
      outer loop
         vertex 1.414004e+000 -7.822682e-001 -1.260224e+000
         vertex 1.436281e+000 -7.715837e-001 -1.260224e+000
         vertex 1.432859e+000 -7.879232e-001 -1.260224e+000
      endloop
   endfacet
   facet normal 0.000000e+000 0.000000e+000 -1.000000e+000
      outer loop
         vertex 1.414004e+000 -7.822682e-001 -1.260224e+000
         vertex 1.432859e+000 -7.879232e-001 -1.260224e+000
         vertex 1.409096e+000 -7.946890e-001 -1.260224e+000
      endloop
   endfacet
   facet normal 0.000000e+000 0.000000e+000 -1.000000e+000
      outer loop
         vertex 1.409096e+000 -7.946890e-001 -1.260224e+000
         vertex 1.432859e+000 -7.879232e-001 -1.260224e+000
         vertex 1.426724e+000 -8.034492e-001 -1.260224e+000
      endloop
   endfacet
   facet normal 0.000000e+000 0.000000e+000 -1.000000e+000
      outer loop
         vertex 1.409096e+000 -7.946890e-001 -1.260224e+000
         vertex 1.426724e+000 -8.034492e-001 -1.260224e+000
         vertex 1.402160e+000 -8.061018e-001 -1.260224e+000
      endloop
   endfacet
   facet normal 0.000000e+000 0.000000e+000 -1.000000e+000
      outer loop
         vertex 1.402160e+000 -8.061018e-001 -1.260224e+000
         vertex 1.426724e+000 -8.034492e-001 -1.260224e+000
         vertex 1.418054e+000 -8.177152e-001 -1.260224e+000
      endloop
   endfacet
   facet normal 0.000000e+000 0.000000e+000 -1.000000e+000
      outer loop
         vertex 1.402160e+000 -8.061018e-001 -1.260224e+000
         vertex 1.418054e+000 -8.177152e-001 -1.260224e+000
         vertex 1.393395e+000 -8.161782e-001 -1.260224e+000
      endloop
   endfacet
   facet normal 0.000000e+000 0.000000e+000 -1.000000e+000
      outer loop
         vertex 1.393395e+000 -8.161782e-001 -1.260224e+000
         vertex 1.418054e+000 -8.177152e-001 -1.260224e+000
         vertex 1.407098e+000 -8.303108e-001 -1.260224e+000
      endloop
   endfacet
   facet normal 0.000000e+000 0.000000e+000 -1.000000e+000
      outer loop
         vertex 1.393395e+000 -8.161782e-001 -1.260224e+000
         vertex 1.407098e+000 -8.303108e-001 -1.260224e+000
         vertex 1.383053e+000 -8.246283e-001 -1.260224e+000
      endloop
   endfacet
   facet normal 0.000000e+000 0.000000e+000 -1.000000e+000
      outer loop
         vertex 1.383053e+000 -8.246283e-001 -1.260224e+000
         vertex 1.407098e+000 -8.303108e-001 -1.260224e+000
         vertex 1.394170e+000 -8.408734e-001 -1.260224e+000
      endloop
   endfacet
   facet normal 0.000000e+000 0.000000e+000 -1.000000e+000
      outer loop
         vertex 1.383053e+000 -8.246283e-001 -1.260224e+000
         vertex 1.394170e+000 -8.408734e-001 -1.260224e+000
         vertex 1.371431e+000 -8.312091e-001 -1.260224e+000
      endloop
   endfacet
   facet normal 0.000000e+000 0.000000e+000 -1.000000e+000
      outer loop
         vertex 1.371431e+000 -8.312091e-001 -1.260224e+000
         vertex 1.394170e+000 -8.408734e-001 -1.260224e+000
         vertex 1.379643e+000 -8.490993e-001 -1.260224e+000
      endloop
   endfacet
   facet normal 0.000000e+000 0.000000e+000 -1.000000e+000
      outer loop
         vertex 1.371431e+000 -8.312091e-001 -1.260224e+000
         vertex 1.379643e+000 -8.490993e-001 -1.260224e+000
         vertex 1.358865e+000 -8.357311e-001 -1.260224e+000
      endloop
   endfacet
   facet normal 0.000000e+000 0.000000e+000 -1.000000e+000
      outer loop
         vertex 1.358865e+000 -8.357311e-001 -1.260224e+000
         vertex 1.379643e+000 -8.490993e-001 -1.260224e+000
         vertex 1.363935e+000 -8.547519e-001 -1.260224e+000
      endloop
   endfacet
   facet normal 0.000000e+000 0.000000e+000 -1.000000e+000
      outer loop
         vertex 1.358865e+000 -8.357311e-001 -1.260224e+000
         vertex 1.363935e+000 -8.547519e-001 -1.260224e+000
         vertex 1.345715e+000 -8.380644e-001 -1.260224e+000
      endloop
   endfacet
   facet normal 0.000000e+000 0.000000e+000 -1.000000e+000
      outer loop
         vertex 1.345715e+000 -8.380644e-001 -1.260224e+000
         vertex 1.363935e+000 -8.547519e-001 -1.260224e+000
         vertex 1.347498e+000 -8.576685e-001 -1.260224e+000
      endloop
   endfacet
   facet normal 0.000000e+000 0.000000e+000 -1.000000e+000
      outer loop
         vertex 1.345715e+000 -8.380644e-001 -1.260224e+000
         vertex 1.347498e+000 -8.576685e-001 -1.260224e+000
         vertex 1.332360e+000 -8.381419e-001 -1.260224e+000
      endloop
   endfacet
   facet normal 0.000000e+000 0.000000e+000 -1.000000e+000
      outer loop
         vertex 1.332360e+000 -8.381419e-001 -1.260224e+000
         vertex 1.347498e+000 -8.576685e-001 -1.260224e+000
         vertex 1.330804e+000 -8.577653e-001 -1.260224e+000
      endloop
   endfacet
   facet normal 0.000000e+000 0.000000e+000 -1.000000e+000
      outer loop
         vertex 1.332360e+000 -8.381419e-001 -1.260224e+000
         vertex 1.330804e+000 -8.577653e-001 -1.260224e+000
         vertex 1.319184e+000 -8.359611e-001 -1.260224e+000
      endloop
   endfacet
   facet normal 0.000000e+000 0.000000e+000 -1.000000e+000
      outer loop
         vertex 1.319184e+000 -8.359611e-001 -1.260224e+000
         vertex 1.330804e+000 -8.577653e-001 -1.260224e+000
         vertex 1.314334e+000 -8.550394e-001 -1.260224e+000
      endloop
   endfacet
   facet normal 0.000000e+000 0.000000e+000 -1.000000e+000
      outer loop
         vertex 1.319184e+000 -8.359611e-001 -1.260224e+000
         vertex 1.314334e+000 -8.550394e-001 -1.260224e+000
         vertex 1.306566e+000 -8.315850e-001 -1.260224e+000
      endloop
   endfacet
   facet normal 0.000000e+000 0.000000e+000 -1.000000e+000
      outer loop
         vertex 1.306566e+000 -8.315850e-001 -1.260224e+000
         vertex 1.314334e+000 -8.550394e-001 -1.260224e+000
         vertex 1.298562e+000 -8.495693e-001 -1.260224e+000
      endloop
   endfacet
   facet normal 0.000000e+000 0.000000e+000 -1.000000e+000
      outer loop
         vertex 1.306566e+000 -8.315850e-001 -1.260224e+000
         vertex 1.298562e+000 -8.495693e-001 -1.260224e+000
         vertex 1.294869e+000 -8.251394e-001 -1.260224e+000
      endloop
   endfacet
   facet normal 0.000000e+000 0.000000e+000 -1.000000e+000
      outer loop
         vertex 1.294869e+000 -8.251394e-001 -1.260224e+000
         vertex 1.298562e+000 -8.495693e-001 -1.260224e+000
         vertex 1.283941e+000 -8.415123e-001 -1.260224e+000
      endloop
   endfacet
   facet normal 0.000000e+000 0.000000e+000 -1.000000e+000
      outer loop
         vertex 1.294869e+000 -8.251394e-001 -1.260224e+000
         vertex 1.283941e+000 -8.415123e-001 -1.260224e+000
         vertex 1.284430e+000 -8.168097e-001 -1.260224e+000
      endloop
   endfacet
   facet normal 0.000000e+000 0.000000e+000 -1.000000e+000
      outer loop
         vertex 1.284430e+000 -8.168097e-001 -1.260224e+000
         vertex 1.283941e+000 -8.415123e-001 -1.260224e+000
         vertex 1.270891e+000 -8.311002e-001 -1.260224e+000
      endloop
   endfacet
   facet normal 0.000000e+000 0.000000e+000 -1.000000e+000
      outer loop
         vertex 1.284430e+000 -8.168097e-001 -1.260224e+000
         vertex 1.270891e+000 -8.311002e-001 -1.260224e+000
         vertex 1.275548e+000 -8.068357e-001 -1.260224e+000
      endloop
   endfacet
   facet normal 0.000000e+000 0.000000e+000 -1.000000e+000
      outer loop
         vertex 1.275548e+000 -8.068357e-001 -1.260224e+000
         vertex 1.270891e+000 -8.311002e-001 -1.260224e+000
         vertex 1.259790e+000 -8.186325e-001 -1.260224e+000
      endloop
   endfacet
   facet normal 0.000000e+000 0.000000e+000 -1.000000e+000
      outer loop
         vertex 1.275548e+000 -8.068357e-001 -1.260224e+000
         vertex 1.259790e+000 -8.186325e-001 -1.260224e+000
         vertex 1.268480e+000 -7.955040e-001 -1.260224e+000
      endloop
   endfacet
   facet normal 0.000000e+000 0.000000e+000 -1.000000e+000
      outer loop
         vertex 1.268480e+000 -7.955040e-001 -1.260224e+000
         vertex 1.259790e+000 -8.186325e-001 -1.260224e+000
         vertex 1.250955e+000 -8.044679e-001 -1.260224e+000
      endloop
   endfacet
   facet normal 0.000000e+000 0.000000e+000 -1.000000e+000
      outer loop
         vertex 1.268480e+000 -7.955040e-001 -1.260224e+000
         vertex 1.250955e+000 -8.044679e-001 -1.260224e+000
         vertex 1.263429e+000 -7.831408e-001 -1.260224e+000
      endloop
   endfacet
   facet normal 0.000000e+000 0.000000e+000 -1.000000e+000
      outer loop
         vertex 1.263429e+000 -7.831408e-001 -1.260224e+000
         vertex 1.250955e+000 -8.044679e-001 -1.260224e+000
         vertex 1.244640e+000 -7.890141e-001 -1.260224e+000
      endloop
   endfacet
   facet normal 0.000000e+000 0.000000e+000 -1.000000e+000
      outer loop
         vertex 1.263429e+000 -7.831408e-001 -1.260224e+000
         vertex 1.244640e+000 -7.890141e-001 -1.260224e+000
         vertex 1.260540e+000 -7.701018e-001 -1.260224e+000
      endloop
   endfacet
   facet normal 0.000000e+000 0.000000e+000 -1.000000e+000
      outer loop
         vertex 1.260540e+000 -7.701018e-001 -1.260224e+000
         vertex 1.244640e+000 -7.890141e-001 -1.260224e+000
         vertex 1.241029e+000 -7.727153e-001 -1.260224e+000
      endloop
   endfacet
   facet normal 0.000000e+000 0.000000e+000 -1.000000e+000
      outer loop
         vertex 1.260540e+000 -7.701018e-001 -1.260224e+000
         vertex 1.241029e+000 -7.727153e-001 -1.260224e+000
         vertex 1.259895e+000 -7.567621e-001 -1.260224e+000
      endloop
   endfacet
   facet normal 0.000000e+000 0.000000e+000 -1.000000e+000
      outer loop
         vertex 1.259895e+000 -7.567621e-001 -1.260224e+000
         vertex 1.241029e+000 -7.727153e-001 -1.260224e+000
         vertex 1.240224e+000 -7.560407e-001 -1.260224e+000
      endloop
   endfacet
   facet normal 0.000000e+000 0.000000e+000 -1.000000e+000
      outer loop
         vertex 1.259895e+000 -7.567621e-001 -1.260224e+000
         vertex 1.240224e+000 -7.560407e-001 -1.260224e+000
         vertex 1.261515e+000 -7.435054e-001 -1.260224e+000
      endloop
   endfacet
   facet normal 0.000000e+000 0.000000e+000 -1.000000e+000
      outer loop
         vertex 1.261515e+000 -7.435054e-001 -1.260224e+000
         vertex 1.240224e+000 -7.560407e-001 -1.260224e+000
         vertex 1.242248e+000 -7.394698e-001 -1.260224e+000
      endloop
   endfacet
   facet normal 0.000000e+000 0.000000e+000 -1.000000e+000
      outer loop
         vertex 1.261515e+000 -7.435054e-001 -1.260224e+000
         vertex 1.242248e+000 -7.394698e-001 -1.260224e+000
         vertex 1.265352e+000 -7.307131e-001 -1.260224e+000
      endloop
   endfacet
   facet normal 0.000000e+000 0.000000e+000 -1.000000e+000
      outer loop
         vertex 1.265352e+000 -7.307131e-001 -1.260224e+000
         vertex 1.242248e+000 -7.394698e-001 -1.260224e+000
         vertex 1.247044e+000 -7.234794e-001 -1.260224e+000
      endloop
   endfacet
   facet normal 0.000000e+000 0.000000e+000 -1.000000e+000
      outer loop
         vertex 1.265352e+000 -7.307131e-001 -1.260224e+000
         vertex 1.247044e+000 -7.234794e-001 -1.260224e+000
         vertex 1.271295e+000 -7.187532e-001 -1.260224e+000
      endloop
   endfacet
   facet normal 0.000000e+000 0.000000e+000 -1.000000e+000
      outer loop
         vertex 1.271295e+000 -7.187532e-001 -1.260224e+000
         vertex 1.247044e+000 -7.234794e-001 -1.260224e+000
         vertex 1.254473e+000 -7.085295e-001 -1.260224e+000
      endloop
   endfacet
   facet normal 0.000000e+000 0.000000e+000 -1.000000e+000
      outer loop
         vertex 1.271295e+000 -7.187532e-001 -1.260224e+000
         vertex 1.254473e+000 -7.085295e-001 -1.260224e+000
         vertex 1.279174e+000 -7.079698e-001 -1.260224e+000
      endloop
   endfacet
   facet normal 0.000000e+000 0.000000e+000 -1.000000e+000
      outer loop
         vertex 1.279174e+000 -7.079698e-001 -1.260224e+000
         vertex 1.254473e+000 -7.085295e-001 -1.260224e+000
         vertex 1.264322e+000 -6.950502e-001 -1.260224e+000
      endloop
   endfacet
   facet normal 0.000000e+000 0.000000e+000 -1.000000e+000
      outer loop
         vertex 1.279174e+000 -7.079698e-001 -1.260224e+000
         vertex 1.264322e+000 -6.950502e-001 -1.260224e+000
         vertex 1.283771e+000 -7.031177e-001 -1.260224e+000
      endloop
   endfacet
   facet normal 0.000000e+000 0.000000e+000 -1.000000e+000
      outer loop
         vertex 1.283771e+000 -7.031177e-001 -1.260224e+000
         vertex 1.264322e+000 -6.950502e-001 -1.260224e+000
         vertex 1.270068e+000 -6.889852e-001 -1.260224e+000
      endloop
   endfacet
   facet normal 0.000000e+000 0.000000e+000 1.000000e+000
      outer loop
         vertex 1.283771e+000 -7.031177e-001 1.889382e+000
         vertex 1.270068e+000 -6.889852e-001 1.889382e+000
         vertex 1.279174e+000 -7.079698e-001 1.889382e+000
      endloop
   endfacet
   facet normal 0.000000e+000 0.000000e+000 1.000000e+000
      outer loop
         vertex 1.279174e+000 -7.079698e-001 1.889382e+000
         vertex 1.270068e+000 -6.889852e-001 1.889382e+000
         vertex 1.264322e+000 -6.950502e-001 1.889382e+000
      endloop
   endfacet
   facet normal 0.000000e+000 0.000000e+000 1.000000e+000
      outer loop
         vertex 1.279174e+000 -7.079698e-001 1.889382e+000
         vertex 1.264322e+000 -6.950502e-001 1.889382e+000
         vertex 1.271295e+000 -7.187532e-001 1.889382e+000
      endloop
   endfacet
   facet normal 0.000000e+000 0.000000e+000 1.000000e+000
      outer loop
         vertex 1.271295e+000 -7.187532e-001 1.889382e+000
         vertex 1.264322e+000 -6.950502e-001 1.889382e+000
         vertex 1.254473e+000 -7.085295e-001 1.889382e+000
      endloop
   endfacet
   facet normal 0.000000e+000 0.000000e+000 1.000000e+000
      outer loop
         vertex 1.271295e+000 -7.187532e-001 1.889382e+000
         vertex 1.254473e+000 -7.085295e-001 1.889382e+000
         vertex 1.265352e+000 -7.307131e-001 1.889382e+000
      endloop
   endfacet
   facet normal 0.000000e+000 0.000000e+000 1.000000e+000
      outer loop
         vertex 1.265352e+000 -7.307131e-001 1.889382e+000
         vertex 1.254473e+000 -7.085295e-001 1.889382e+000
         vertex 1.247044e+000 -7.234794e-001 1.889382e+000
      endloop
   endfacet
   facet normal 0.000000e+000 0.000000e+000 1.000000e+000
      outer loop
         vertex 1.265352e+000 -7.307131e-001 1.889382e+000
         vertex 1.247044e+000 -7.234794e-001 1.889382e+000
         vertex 1.261515e+000 -7.435054e-001 1.889382e+000
      endloop
   endfacet
   facet normal 0.000000e+000 0.000000e+000 1.000000e+000
      outer loop
         vertex 1.261515e+000 -7.435054e-001 1.889382e+000
         vertex 1.247044e+000 -7.234794e-001 1.889382e+000
         vertex 1.242248e+000 -7.394698e-001 1.889382e+000
      endloop
   endfacet
   facet normal 0.000000e+000 0.000000e+000 1.000000e+000
      outer loop
         vertex 1.261515e+000 -7.435054e-001 1.889382e+000
         vertex 1.242248e+000 -7.394698e-001 1.889382e+000
         vertex 1.259895e+000 -7.567621e-001 1.889382e+000
      endloop
   endfacet
   facet normal 0.000000e+000 0.000000e+000 1.000000e+000
      outer loop
         vertex 1.259895e+000 -7.567621e-001 1.889382e+000
         vertex 1.242248e+000 -7.394698e-001 1.889382e+000
         vertex 1.240224e+000 -7.560407e-001 1.889382e+000
      endloop
   endfacet
   facet normal 0.000000e+000 0.000000e+000 1.000000e+000
      outer loop
         vertex 1.259895e+000 -7.567621e-001 1.889382e+000
         vertex 1.240224e+000 -7.560407e-001 1.889382e+000
         vertex 1.260540e+000 -7.701018e-001 1.889382e+000
      endloop
   endfacet
   facet normal 0.000000e+000 0.000000e+000 1.000000e+000
      outer loop
         vertex 1.260540e+000 -7.701018e-001 1.889382e+000
         vertex 1.240224e+000 -7.560407e-001 1.889382e+000
         vertex 1.241029e+000 -7.727153e-001 1.889382e+000
      endloop
   endfacet
   facet normal 0.000000e+000 0.000000e+000 1.000000e+000
      outer loop
         vertex 1.260540e+000 -7.701018e-001 1.889382e+000
         vertex 1.241029e+000 -7.727153e-001 1.889382e+000
         vertex 1.263429e+000 -7.831408e-001 1.889382e+000
      endloop
   endfacet
   facet normal 0.000000e+000 0.000000e+000 1.000000e+000
      outer loop
         vertex 1.263429e+000 -7.831408e-001 1.889382e+000
         vertex 1.241029e+000 -7.727153e-001 1.889382e+000
         vertex 1.244640e+000 -7.890141e-001 1.889382e+000
      endloop
   endfacet
   facet normal 0.000000e+000 0.000000e+000 1.000000e+000
      outer loop
         vertex 1.263429e+000 -7.831408e-001 1.889382e+000
         vertex 1.244640e+000 -7.890141e-001 1.889382e+000
         vertex 1.268480e+000 -7.955040e-001 1.889382e+000
      endloop
   endfacet
   facet normal 0.000000e+000 0.000000e+000 1.000000e+000
      outer loop
         vertex 1.268480e+000 -7.955040e-001 1.889382e+000
         vertex 1.244640e+000 -7.890141e-001 1.889382e+000
         vertex 1.250955e+000 -8.044679e-001 1.889382e+000
      endloop
   endfacet
   facet normal 0.000000e+000 0.000000e+000 1.000000e+000
      outer loop
         vertex 1.268480e+000 -7.955040e-001 1.889382e+000
         vertex 1.250955e+000 -8.044679e-001 1.889382e+000
         vertex 1.275548e+000 -8.068357e-001 1.889382e+000
      endloop
   endfacet
   facet normal 0.000000e+000 0.000000e+000 1.000000e+000
      outer loop
         vertex 1.275548e+000 -8.068357e-001 1.889382e+000
         vertex 1.250955e+000 -8.044679e-001 1.889382e+000
         vertex 1.259790e+000 -8.186325e-001 1.889382e+000
      endloop
   endfacet
   facet normal 0.000000e+000 0.000000e+000 1.000000e+000
      outer loop
         vertex 1.275548e+000 -8.068357e-001 1.889382e+000
         vertex 1.259790e+000 -8.186325e-001 1.889382e+000
         vertex 1.284430e+000 -8.168097e-001 1.889382e+000
      endloop
   endfacet
   facet normal 0.000000e+000 0.000000e+000 1.000000e+000
      outer loop
         vertex 1.284430e+000 -8.168097e-001 1.889382e+000
         vertex 1.259790e+000 -8.186325e-001 1.889382e+000
         vertex 1.270891e+000 -8.311002e-001 1.889382e+000
      endloop
   endfacet
   facet normal 0.000000e+000 0.000000e+000 1.000000e+000
      outer loop
         vertex 1.284430e+000 -8.168097e-001 1.889382e+000
         vertex 1.270891e+000 -8.311002e-001 1.889382e+000
         vertex 1.294869e+000 -8.251394e-001 1.889382e+000
      endloop
   endfacet
   facet normal 0.000000e+000 0.000000e+000 1.000000e+000
      outer loop
         vertex 1.294869e+000 -8.251394e-001 1.889382e+000
         vertex 1.270891e+000 -8.311002e-001 1.889382e+000
         vertex 1.283941e+000 -8.415123e-001 1.889382e+000
      endloop
   endfacet
   facet normal 0.000000e+000 0.000000e+000 1.000000e+000
      outer loop
         vertex 1.294869e+000 -8.251394e-001 1.889382e+000
         vertex 1.283941e+000 -8.415123e-001 1.889382e+000
         vertex 1.306566e+000 -8.315850e-001 1.889382e+000
      endloop
   endfacet
   facet normal 0.000000e+000 0.000000e+000 1.000000e+000
      outer loop
         vertex 1.306566e+000 -8.315850e-001 1.889382e+000
         vertex 1.283941e+000 -8.415123e-001 1.889382e+000
         vertex 1.298562e+000 -8.495693e-001 1.889382e+000
      endloop
   endfacet
   facet normal 0.000000e+000 0.000000e+000 1.000000e+000
      outer loop
         vertex 1.306566e+000 -8.315850e-001 1.889382e+000
         vertex 1.298562e+000 -8.495693e-001 1.889382e+000
         vertex 1.319184e+000 -8.359611e-001 1.889382e+000
      endloop
   endfacet
   facet normal 0.000000e+000 0.000000e+000 1.000000e+000
      outer loop
         vertex 1.319184e+000 -8.359611e-001 1.889382e+000
         vertex 1.298562e+000 -8.495693e-001 1.889382e+000
         vertex 1.314334e+000 -8.550394e-001 1.889382e+000
      endloop
   endfacet
   facet normal 0.000000e+000 0.000000e+000 1.000000e+000
      outer loop
         vertex 1.319184e+000 -8.359611e-001 1.889382e+000
         vertex 1.314334e+000 -8.550394e-001 1.889382e+000
         vertex 1.332360e+000 -8.381419e-001 1.889382e+000
      endloop
   endfacet
   facet normal 0.000000e+000 0.000000e+000 1.000000e+000
      outer loop
         vertex 1.332360e+000 -8.381419e-001 1.889382e+000
         vertex 1.314334e+000 -8.550394e-001 1.889382e+000
         vertex 1.330804e+000 -8.577653e-001 1.889382e+000
      endloop
   endfacet
   facet normal 0.000000e+000 0.000000e+000 1.000000e+000
      outer loop
         vertex 1.332360e+000 -8.381419e-001 1.889382e+000
         vertex 1.330804e+000 -8.577653e-001 1.889382e+000
         vertex 1.345715e+000 -8.380644e-001 1.889382e+000
      endloop
   endfacet
   facet normal 0.000000e+000 0.000000e+000 1.000000e+000
      outer loop
         vertex 1.345715e+000 -8.380644e-001 1.889382e+000
         vertex 1.330804e+000 -8.577653e-001 1.889382e+000
         vertex 1.347498e+000 -8.576685e-001 1.889382e+000
      endloop
   endfacet
   facet normal 0.000000e+000 0.000000e+000 1.000000e+000
      outer loop
         vertex 1.345715e+000 -8.380644e-001 1.889382e+000
         vertex 1.347498e+000 -8.576685e-001 1.889382e+000
         vertex 1.358865e+000 -8.357311e-001 1.889382e+000
      endloop
   endfacet
   facet normal 0.000000e+000 0.000000e+000 1.000000e+000
      outer loop
         vertex 1.358865e+000 -8.357311e-001 1.889382e+000
         vertex 1.347498e+000 -8.576685e-001 1.889382e+000
         vertex 1.363935e+000 -8.547519e-001 1.889382e+000
      endloop
   endfacet
   facet normal 0.000000e+000 0.000000e+000 1.000000e+000
      outer loop
         vertex 1.358865e+000 -8.357311e-001 1.889382e+000
         vertex 1.363935e+000 -8.547519e-001 1.889382e+000
         vertex 1.371431e+000 -8.312091e-001 1.889382e+000
      endloop
   endfacet
   facet normal 0.000000e+000 0.000000e+000 1.000000e+000
      outer loop
         vertex 1.371431e+000 -8.312091e-001 1.889382e+000
         vertex 1.363935e+000 -8.547519e-001 1.889382e+000
         vertex 1.379643e+000 -8.490993e-001 1.889382e+000
      endloop
   endfacet
   facet normal 0.000000e+000 0.000000e+000 1.000000e+000
      outer loop
         vertex 1.371431e+000 -8.312091e-001 1.889382e+000
         vertex 1.379643e+000 -8.490993e-001 1.889382e+000
         vertex 1.383053e+000 -8.246283e-001 1.889382e+000
      endloop
   endfacet
   facet normal 0.000000e+000 0.000000e+000 1.000000e+000
      outer loop
         vertex 1.383053e+000 -8.246283e-001 1.889382e+000
         vertex 1.379643e+000 -8.490993e-001 1.889382e+000
         vertex 1.394170e+000 -8.408734e-001 1.889382e+000
      endloop
   endfacet
   facet normal 0.000000e+000 0.000000e+000 1.000000e+000
      outer loop
         vertex 1.383053e+000 -8.246283e-001 1.889382e+000
         vertex 1.394170e+000 -8.408734e-001 1.889382e+000
         vertex 1.393395e+000 -8.161782e-001 1.889382e+000
      endloop
   endfacet
   facet normal 0.000000e+000 0.000000e+000 1.000000e+000
      outer loop
         vertex 1.393395e+000 -8.161782e-001 1.889382e+000
         vertex 1.394170e+000 -8.408734e-001 1.889382e+000
         vertex 1.407098e+000 -8.303108e-001 1.889382e+000
      endloop
   endfacet
   facet normal 0.000000e+000 0.000000e+000 1.000000e+000
      outer loop
         vertex 1.393395e+000 -8.161782e-001 1.889382e+000
         vertex 1.407098e+000 -8.303108e-001 1.889382e+000
         vertex 1.402160e+000 -8.061018e-001 1.889382e+000
      endloop
   endfacet
   facet normal 0.000000e+000 0.000000e+000 1.000000e+000
      outer loop
         vertex 1.402160e+000 -8.061018e-001 1.889382e+000
         vertex 1.407098e+000 -8.303108e-001 1.889382e+000
         vertex 1.418054e+000 -8.177152e-001 1.889382e+000
      endloop
   endfacet
   facet normal 0.000000e+000 0.000000e+000 1.000000e+000
      outer loop
         vertex 1.402160e+000 -8.061018e-001 1.889382e+000
         vertex 1.418054e+000 -8.177152e-001 1.889382e+000
         vertex 1.409096e+000 -7.946890e-001 1.889382e+000
      endloop
   endfacet
   facet normal 0.000000e+000 0.000000e+000 1.000000e+000
      outer loop
         vertex 1.409096e+000 -7.946890e-001 1.889382e+000
         vertex 1.418054e+000 -8.177152e-001 1.889382e+000
         vertex 1.426724e+000 -8.034492e-001 1.889382e+000
      endloop
   endfacet
   facet normal 0.000000e+000 0.000000e+000 1.000000e+000
      outer loop
         vertex 1.409096e+000 -7.946890e-001 1.889382e+000
         vertex 1.426724e+000 -8.034492e-001 1.889382e+000
         vertex 1.414004e+000 -7.822682e-001 1.889382e+000
      endloop
   endfacet
   facet normal 0.000000e+000 0.000000e+000 1.000000e+000
      outer loop
         vertex 1.414004e+000 -7.822682e-001 1.889382e+000
         vertex 1.426724e+000 -8.034492e-001 1.889382e+000
         vertex 1.432859e+000 -7.879232e-001 1.889382e+000
      endloop
   endfacet
   facet normal 0.000000e+000 0.000000e+000 1.000000e+000
      outer loop
         vertex 1.414004e+000 -7.822682e-001 1.889382e+000
         vertex 1.432859e+000 -7.879232e-001 1.889382e+000
         vertex 1.416742e+000 -7.691966e-001 1.889382e+000
      endloop
   endfacet
   facet normal 0.000000e+000 0.000000e+000 1.000000e+000
      outer loop
         vertex 1.416742e+000 -7.691966e-001 1.889382e+000
         vertex 1.432859e+000 -7.879232e-001 1.889382e+000
         vertex 1.436281e+000 -7.715837e-001 1.889382e+000
      endloop
   endfacet
   facet normal 0.000000e+000 0.000000e+000 1.000000e+000
      outer loop
         vertex 1.416742e+000 -7.691966e-001 1.889382e+000
         vertex 1.436281e+000 -7.715837e-001 1.889382e+000
         vertex 1.417231e+000 -7.558503e-001 1.889382e+000
      endloop
   endfacet
   facet normal 0.000000e+000 0.000000e+000 1.000000e+000
      outer loop
         vertex 1.417231e+000 -7.558503e-001 1.889382e+000
         vertex 1.436281e+000 -7.715837e-001 1.889382e+000
         vertex 1.436893e+000 -7.549008e-001 1.889382e+000
      endloop
   endfacet
   facet normal 0.000000e+000 0.000000e+000 1.000000e+000
      outer loop
         vertex 1.417231e+000 -7.558503e-001 1.889382e+000
         vertex 1.436893e+000 -7.549008e-001 1.889382e+000
         vertex 1.415458e+000 -7.426133e-001 1.889382e+000
      endloop
   endfacet
   facet normal 0.000000e+000 0.000000e+000 1.000000e+000
      outer loop
         vertex 1.415458e+000 -7.426133e-001 1.889382e+000
         vertex 1.436893e+000 -7.549008e-001 1.889382e+000
         vertex 1.434677e+000 -7.383545e-001 1.889382e+000
      endloop
   endfacet
   facet normal 0.000000e+000 0.000000e+000 1.000000e+000
      outer loop
         vertex 1.415458e+000 -7.426133e-001 1.889382e+000
         vertex 1.434677e+000 -7.383545e-001 1.889382e+000
         vertex 1.411474e+000 -7.298662e-001 1.889382e+000
      endloop
   endfacet
   facet normal 0.000000e+000 0.000000e+000 1.000000e+000
      outer loop
         vertex 1.411474e+000 -7.298662e-001 1.889382e+000
         vertex 1.434677e+000 -7.383545e-001 1.889382e+000
         vertex 1.429696e+000 -7.224208e-001 1.889382e+000
      endloop
   endfacet
   facet normal 0.000000e+000 0.000000e+000 1.000000e+000
      outer loop
         vertex 1.411474e+000 -7.298662e-001 1.889382e+000
         vertex 1.429696e+000 -7.224208e-001 1.889382e+000
         vertex 1.405392e+000 -7.179760e-001 1.889382e+000
      endloop
   endfacet
   facet normal 0.000000e+000 0.000000e+000 1.000000e+000
      outer loop
         vertex 1.405392e+000 -7.179760e-001 1.889382e+000
         vertex 1.429696e+000 -7.224208e-001 1.889382e+000
         vertex 1.422094e+000 -7.075580e-001 1.889382e+000
      endloop
   endfacet
   facet normal 0.000000e+000 0.000000e+000 1.000000e+000
      outer loop
         vertex 1.405392e+000 -7.179760e-001 1.889382e+000
         vertex 1.422094e+000 -7.075580e-001 1.889382e+000
         vertex 1.397388e+000 -7.072846e-001 1.889382e+000
      endloop
   endfacet
   facet normal 0.000000e+000 0.000000e+000 1.000000e+000
      outer loop
         vertex 1.397388e+000 -7.072846e-001 1.889382e+000
         vertex 1.422094e+000 -7.075580e-001 1.889382e+000
         vertex 1.412090e+000 -6.941938e-001 1.889382e+000
      endloop
   endfacet
   facet normal 0.000000e+000 0.000000e+000 1.000000e+000
      outer loop
         vertex 1.397388e+000 -7.072846e-001 1.889382e+000
         vertex 1.412090e+000 -6.941938e-001 1.889382e+000
         vertex 1.387693e+000 -6.980996e-001 1.889382e+000
      endloop
   endfacet
   facet normal 0.000000e+000 0.000000e+000 1.000000e+000
      outer loop
         vertex 1.387693e+000 -6.980996e-001 1.889382e+000
         vertex 1.412090e+000 -6.941938e-001 1.889382e+000
         vertex 1.399971e+000 -6.827126e-001 1.889382e+000
      endloop
   endfacet
   facet normal 0.000000e+000 0.000000e+000 1.000000e+000
      outer loop
         vertex 1.387693e+000 -6.980996e-001 1.889382e+000
         vertex 1.399971e+000 -6.827126e-001 1.889382e+000
         vertex 1.376585e+000 -6.906853e-001 1.889382e+000
      endloop
   endfacet
   facet normal 0.000000e+000 0.000000e+000 1.000000e+000
      outer loop
         vertex 1.376585e+000 -6.906853e-001 1.889382e+000
         vertex 1.399971e+000 -6.827126e-001 1.889382e+000
         vertex 1.386085e+000 -6.734446e-001 1.889382e+000
      endloop
   endfacet
   facet normal 0.000000e+000 0.000000e+000 1.000000e+000
      outer loop
         vertex 1.376585e+000 -6.906853e-001 1.889382e+000
         vertex 1.386085e+000 -6.734446e-001 1.889382e+000
         vertex 1.364383e+000 -6.852548e-001 1.889382e+000
      endloop
   endfacet
   facet normal 0.000000e+000 0.000000e+000 1.000000e+000
      outer loop
         vertex 1.364383e+000 -6.852548e-001 1.889382e+000
         vertex 1.386085e+000 -6.734446e-001 1.889382e+000
         vertex 1.370834e+000 -6.666566e-001 1.889382e+000
      endloop
   endfacet
   facet normal 0.000000e+000 0.000000e+000 1.000000e+000
      outer loop
         vertex 1.364383e+000 -6.852548e-001 1.889382e+000
         vertex 1.370834e+000 -6.666566e-001 1.889382e+000
         vertex 1.351440e+000 -6.819646e-001 1.889382e+000
      endloop
   endfacet
   facet normal 0.000000e+000 0.000000e+000 1.000000e+000
      outer loop
         vertex 1.351440e+000 -6.819646e-001 1.889382e+000
         vertex 1.370834e+000 -6.666566e-001 1.889382e+000
         vertex 1.354654e+000 -6.625438e-001 1.889382e+000
      endloop
   endfacet
   facet normal 0.000000e+000 0.000000e+000 1.000000e+000
      outer loop
         vertex 1.351440e+000 -6.819646e-001 1.889382e+000
         vertex 1.354654e+000 -6.625438e-001 1.889382e+000
         vertex 1.338126e+000 -6.809092e-001 1.889382e+000
      endloop
   endfacet
   facet normal 0.000000e+000 0.000000e+000 1.000000e+000
      outer loop
         vertex 1.338126e+000 -6.809092e-001 1.889382e+000
         vertex 1.354654e+000 -6.625438e-001 1.889382e+000
         vertex 1.338012e+000 -6.612244e-001 1.889382e+000
      endloop
   endfacet
   facet normal 0.000000e+000 0.000000e+000 1.000000e+000
      outer loop
         vertex 1.338126e+000 -6.809092e-001 1.889382e+000
         vertex 1.338012e+000 -6.612244e-001 1.889382e+000
         vertex 1.324826e+000 -6.821188e-001 1.889382e+000
      endloop
   endfacet
   facet normal 0.000000e+000 0.000000e+000 1.000000e+000
      outer loop
         vertex 1.324826e+000 -6.821188e-001 1.889382e+000
         vertex 1.338012e+000 -6.612244e-001 1.889382e+000
         vertex 1.321387e+000 -6.627365e-001 1.889382e+000
      endloop
   endfacet
   facet normal 0.000000e+000 0.000000e+000 1.000000e+000
      outer loop
         vertex 1.324826e+000 -6.821188e-001 1.889382e+000
         vertex 1.321387e+000 -6.627365e-001 1.889382e+000
         vertex 1.311921e+000 -6.855590e-001 1.889382e+000
      endloop
   endfacet
   facet normal 0.000000e+000 0.000000e+000 1.000000e+000
      outer loop
         vertex 1.311921e+000 -6.855590e-001 1.889382e+000
         vertex 1.321387e+000 -6.627365e-001 1.889382e+000
         vertex 1.305256e+000 -6.670367e-001 1.889382e+000
      endloop
   endfacet
   facet normal 0.000000e+000 0.000000e+000 1.000000e+000
      outer loop
         vertex 1.311921e+000 -6.855590e-001 1.889382e+000
         vertex 1.305256e+000 -6.670367e-001 1.889382e+000
         vertex 1.299784e+000 -6.911304e-001 1.889382e+000
      endloop
   endfacet
   facet normal 0.000000e+000 0.000000e+000 1.000000e+000
      outer loop
         vertex 1.299784e+000 -6.911304e-001 1.889382e+000
         vertex 1.305256e+000 -6.670367e-001 1.889382e+000
         vertex 1.290084e+000 -6.740010e-001 1.889382e+000
      endloop
   endfacet
   facet normal 0.000000e+000 0.000000e+000 1.000000e+000
      outer loop
         vertex 1.299784e+000 -6.911304e-001 1.889382e+000
         vertex 1.290084e+000 -6.740010e-001 1.889382e+000
         vertex 1.288762e+000 -6.986730e-001 1.889382e+000
      endloop
   endfacet
   facet normal 0.000000e+000 0.000000e+000 1.000000e+000
      outer loop
         vertex 1.288762e+000 -6.986730e-001 1.889382e+000
         vertex 1.290084e+000 -6.740010e-001 1.889382e+000
         vertex 1.276307e+000 -6.834293e-001 1.889382e+000
      endloop
   endfacet
   facet normal 0.000000e+000 0.000000e+000 1.000000e+000
      outer loop
         vertex 1.288762e+000 -6.986730e-001 1.889382e+000
         vertex 1.276307e+000 -6.834293e-001 1.889382e+000
         vertex 1.283771e+000 -7.031177e-001 1.889382e+000
      endloop
   endfacet
   facet normal 0.000000e+000 0.000000e+000 1.000000e+000
      outer loop
         vertex 1.283771e+000 -7.031177e-001 1.889382e+000
         vertex 1.276307e+000 -6.834293e-001 1.889382e+000
         vertex 1.270068e+000 -6.889852e-001 1.889382e+000
      endloop
   endfacet
   facet normal -6.755216e-001 7.373402e-001 0.000000e+000
      outer loop
         vertex 1.276307e+000 -6.834293e-001 -1.260224e+000
         vertex 1.270068e+000 -6.889852e-001 -1.260224e+000
         vertex 1.270068e+000 -6.889852e-001 1.889382e+000
      endloop
   endfacet
   facet normal -7.161441e-001 6.979524e-001 0.000000e+000
      outer loop
         vertex 1.270068e+000 -6.889852e-001 1.889382e+000
         vertex 1.270068e+000 -6.889852e-001 -1.260224e+000
         vertex 1.264322e+000 -6.950502e-001 1.889382e+000
      endloop
   endfacet
   facet normal -6.543738e-001 7.561713e-001 0.000000e+000
      outer loop
         vertex 1.270068e+000 -6.889852e-001 1.889382e+000
         vertex 1.276307e+000 -6.834293e-001 1.889382e+000
         vertex 1.276307e+000 -6.834293e-001 -1.260224e+000
      endloop
   endfacet
   facet normal -5.879437e-001 8.089018e-001 0.000000e+000
      outer loop
         vertex 1.276307e+000 -6.834293e-001 -1.260224e+000
         vertex 1.276307e+000 -6.834293e-001 1.889382e+000
         vertex 1.290084e+000 -6.740010e-001 1.889382e+000
      endloop
   endfacet
   facet normal -5.411364e-001 8.409348e-001 0.000000e+000
      outer loop
         vertex 1.276307e+000 -6.834293e-001 -1.260224e+000
         vertex 1.290084e+000 -6.740010e-001 1.889382e+000
         vertex 1.290084e+000 -6.740010e-001 -1.260224e+000
      endloop
   endfacet
   facet normal -4.427815e-001 8.966295e-001 0.000000e+000
      outer loop
         vertex 1.290084e+000 -6.740010e-001 -1.260224e+000
         vertex 1.290084e+000 -6.740010e-001 1.889382e+000
         vertex 1.305256e+000 -6.670367e-001 1.889382e+000
      endloop
   endfacet
   facet normal -3.912340e-001 9.202912e-001 0.000000e+000
      outer loop
         vertex 1.290084e+000 -6.740010e-001 -1.260224e+000
         vertex 1.305256e+000 -6.670367e-001 1.889382e+000
         vertex 1.305256e+000 -6.670367e-001 -1.260224e+000
      endloop
   endfacet
   facet normal -2.848814e-001 9.585627e-001 0.000000e+000
      outer loop
         vertex 1.305256e+000 -6.670367e-001 -1.260224e+000
         vertex 1.305256e+000 -6.670367e-001 1.889382e+000
         vertex 1.321387e+000 -6.627365e-001 1.889382e+000
      endloop
   endfacet
   facet normal -2.300765e-001 9.731725e-001 0.000000e+000
      outer loop
         vertex 1.305256e+000 -6.670367e-001 -1.260224e+000
         vertex 1.321387e+000 -6.627365e-001 1.889382e+000
         vertex 1.321387e+000 -6.627365e-001 -1.260224e+000
      endloop
   endfacet
   facet normal -1.187858e-001 9.929199e-001 0.000000e+000
      outer loop
         vertex 1.321387e+000 -6.627365e-001 -1.260224e+000
         vertex 1.321387e+000 -6.627365e-001 1.889382e+000
         vertex 1.338012e+000 -6.612244e-001 1.889382e+000
      endloop
   endfacet
   facet normal -6.230008e-002 9.980575e-001 0.000000e+000
      outer loop
         vertex 1.321387e+000 -6.627365e-001 -1.260224e+000
         vertex 1.338012e+000 -6.612244e-001 1.889382e+000
         vertex 1.338012e+000 -6.612244e-001 -1.260224e+000
      endloop
   endfacet
   facet normal 5.072711e-002 9.987125e-001 0.000000e+000
      outer loop
         vertex 1.338012e+000 -6.612244e-001 -1.260224e+000
         vertex 1.338012e+000 -6.612244e-001 1.889382e+000
         vertex 1.354654e+000 -6.625438e-001 1.889382e+000
      endloop
   endfacet
   facet normal 1.072686e-001 9.942300e-001 0.000000e+000
      outer loop
         vertex 1.338012e+000 -6.612244e-001 -1.260224e+000
         vertex 1.354654e+000 -6.625438e-001 1.889382e+000
         vertex 1.354654e+000 -6.625438e-001 -1.260224e+000
      endloop
   endfacet
   facet normal 2.187807e-001 9.757740e-001 0.000000e+000
      outer loop
         vertex 1.354654e+000 -6.625438e-001 -1.260224e+000
         vertex 1.354654e+000 -6.625438e-001 1.889382e+000
         vertex 1.370834e+000 -6.666566e-001 1.889382e+000
      endloop
   endfacet
   facet normal 2.737513e-001 9.618005e-001 0.000000e+000
      outer loop
         vertex 1.354654e+000 -6.625438e-001 -1.260224e+000
         vertex 1.370834e+000 -6.666566e-001 1.889382e+000
         vertex 1.370834e+000 -6.666566e-001 -1.260224e+000
      endloop
   endfacet
   facet normal 3.805403e-001 9.247643e-001 0.000000e+000
      outer loop
         vertex 1.370834e+000 -6.666566e-001 -1.260224e+000
         vertex 1.370834e+000 -6.666566e-001 1.889382e+000
         vertex 1.386085e+000 -6.734446e-001 1.889382e+000
      endloop
   endfacet
   facet normal 4.323587e-001 9.017017e-001 0.000000e+000
      outer loop
         vertex 1.370834e+000 -6.666566e-001 -1.260224e+000
         vertex 1.386085e+000 -6.734446e-001 1.889382e+000
         vertex 1.386085e+000 -6.734446e-001 -1.260224e+000
      endloop
   endfacet
   facet normal 5.313525e-001 8.471508e-001 0.000000e+000
      outer loop
         vertex 1.386085e+000 -6.734446e-001 -1.260224e+000
         vertex 1.386085e+000 -6.734446e-001 1.889382e+000
         vertex 1.399971e+000 -6.827126e-001 1.889382e+000
      endloop
   endfacet
   facet normal 5.785279e-001 8.156626e-001 0.000000e+000
      outer loop
         vertex 1.386085e+000 -6.734446e-001 -1.260224e+000
         vertex 1.399971e+000 -6.827126e-001 1.889382e+000
         vertex 1.399971e+000 -6.827126e-001 -1.260224e+000
      endloop
   endfacet
   facet normal 6.668786e-001 7.451663e-001 0.000000e+000
      outer loop
         vertex 1.399971e+000 -6.827126e-001 -1.260224e+000
         vertex 1.399971e+000 -6.827126e-001 1.889382e+000
         vertex 1.412090e+000 -6.941938e-001 1.889382e+000
      endloop
   endfacet
   facet normal 7.080540e-001 7.061583e-001 0.000000e+000
      outer loop
         vertex 1.399971e+000 -6.827126e-001 -1.260224e+000
         vertex 1.412090e+000 -6.941938e-001 1.889382e+000
         vertex 1.412090e+000 -6.941938e-001 -1.260224e+000
      endloop
   endfacet
   facet normal 7.832199e-001 6.217447e-001 0.000000e+000
      outer loop
         vertex 1.412090e+000 -6.941938e-001 -1.260224e+000
         vertex 1.412090e+000 -6.941938e-001 1.889382e+000
         vertex 1.422094e+000 -7.075580e-001 1.889382e+000
      endloop
   endfacet
   facet normal 8.172107e-001 5.763391e-001 0.000000e+000
      outer loop
         vertex 1.412090e+000 -6.941938e-001 -1.260224e+000
         vertex 1.422094e+000 -7.075580e-001 1.889382e+000
         vertex 1.422094e+000 -7.075580e-001 -1.260224e+000
      endloop
   endfacet
   facet normal 8.770294e-001 4.804366e-001 0.000000e+000
      outer loop
         vertex 1.422094e+000 -7.075580e-001 -1.260224e+000
         vertex 1.422094e+000 -7.075580e-001 1.889382e+000
         vertex 1.429696e+000 -7.224208e-001 1.889382e+000
      endloop
   endfacet
   facet normal 9.028575e-001 4.299397e-001 0.000000e+000
      outer loop
         vertex 1.422094e+000 -7.075580e-001 -1.260224e+000
         vertex 1.429696e+000 -7.224208e-001 1.889382e+000
         vertex 1.429696e+000 -7.224208e-001 -1.260224e+000
      endloop
   endfacet
   facet normal 9.456083e-001 3.253073e-001 0.000000e+000
      outer loop
         vertex 1.429696e+000 -7.224208e-001 -1.260224e+000
         vertex 1.429696e+000 -7.224208e-001 1.889382e+000
         vertex 1.434677e+000 -7.383545e-001 1.889382e+000
      endloop
   endfacet
   facet normal 9.625309e-001 2.711718e-001 0.000000e+000
      outer loop
         vertex 1.429696e+000 -7.224208e-001 -1.260224e+000
         vertex 1.434677e+000 -7.383545e-001 1.889382e+000
         vertex 1.434677e+000 -7.383545e-001 -1.260224e+000
      endloop
   endfacet
   facet normal 9.869838e-001 1.608195e-001 0.000000e+000
      outer loop
         vertex 1.434677e+000 -7.383545e-001 -1.260224e+000
         vertex 1.434677e+000 -7.383545e-001 1.889382e+000
         vertex 1.436893e+000 -7.549008e-001 1.889382e+000
      endloop
   endfacet
   facet normal 9.945140e-001 1.046027e-001 0.000000e+000
      outer loop
         vertex 1.434677e+000 -7.383545e-001 -1.260224e+000
         vertex 1.436893e+000 -7.549008e-001 1.889382e+000
         vertex 1.436893e+000 -7.549008e-001 -1.260224e+000
      endloop
   endfacet
   facet normal 9.999655e-001 -8.294843e-003 0.000000e+000
      outer loop
         vertex 1.436893e+000 -7.549008e-001 -1.260224e+000
         vertex 1.436893e+000 -7.549008e-001 1.889382e+000
         vertex 1.436281e+000 -7.715837e-001 1.889382e+000
      endloop
   endfacet
   facet normal 9.978868e-001 -6.497561e-002 0.000000e+000
      outer loop
         vertex 1.436893e+000 -7.549008e-001 -1.260224e+000
         vertex 1.436281e+000 -7.715837e-001 1.889382e+000
         vertex 1.436281e+000 -7.715837e-001 -1.260224e+000
      endloop
   endfacet
   facet normal 9.841802e-001 -1.771705e-001 0.000000e+000
      outer loop
         vertex 1.436281e+000 -7.715837e-001 -1.260224e+000
         vertex 1.436281e+000 -7.715837e-001 1.889382e+000
         vertex 1.432859e+000 -7.879232e-001 1.889382e+000
      endloop
   endfacet
   facet normal 9.725522e-001 -2.326847e-001 0.000000e+000
      outer loop
         vertex 1.436281e+000 -7.715837e-001 -1.260224e+000
         vertex 1.432859e+000 -7.879232e-001 1.889382e+000
         vertex 1.432859e+000 -7.879232e-001 -1.260224e+000
      endloop
   endfacet
   facet normal 9.400817e-001 -3.409494e-001 0.000000e+000
      outer loop
         vertex 1.432859e+000 -7.879232e-001 -1.260224e+000
         vertex 1.432859e+000 -7.879232e-001 1.889382e+000
         vertex 1.426724e+000 -8.034492e-001 1.889382e+000
      endloop
   endfacet
   facet normal 9.192390e-001 -3.936999e-001 0.000000e+000
      outer loop
         vertex 1.432859e+000 -7.879232e-001 -1.260224e+000
         vertex 1.426724e+000 -8.034492e-001 1.889382e+000
         vertex 1.426724e+000 -8.034492e-001 -1.260224e+000
      endloop
   endfacet
   facet normal 8.689387e-001 -4.949197e-001 0.000000e+000
      outer loop
         vertex 1.426724e+000 -8.034492e-001 -1.260224e+000
         vertex 1.426724e+000 -8.034492e-001 1.889382e+000
         vertex 1.418054e+000 -8.177152e-001 1.889382e+000
      endloop
   endfacet
   facet normal 8.394810e-001 -5.433890e-001 0.000000e+000
      outer loop
         vertex 1.426724e+000 -8.034492e-001 -1.260224e+000
         vertex 1.418054e+000 -8.177152e-001 1.889382e+000
         vertex 1.418054e+000 -8.177152e-001 -1.260224e+000
      endloop
   endfacet
   facet normal 7.727980e-001 -6.346521e-001 0.000000e+000
      outer loop
         vertex 1.418054e+000 -8.177152e-001 -1.260224e+000
         vertex 1.418054e+000 -8.177152e-001 1.889382e+000
         vertex 1.407098e+000 -8.303108e-001 1.889382e+000
      endloop
   endfacet
   facet normal 7.355727e-001 -6.774458e-001 0.000000e+000
      outer loop
         vertex 1.418054e+000 -8.177152e-001 -1.260224e+000
         vertex 1.407098e+000 -8.303108e-001 1.889382e+000
         vertex 1.407098e+000 -8.303108e-001 -1.260224e+000
      endloop
   endfacet
   facet normal 6.544253e-001 -7.561266e-001 0.000000e+000
      outer loop
         vertex 1.407098e+000 -8.303108e-001 -1.260224e+000
         vertex 1.407098e+000 -8.303108e-001 1.889382e+000
         vertex 1.394170e+000 -8.408734e-001 1.889382e+000
      endloop
   endfacet
   facet normal 6.105033e-001 -7.920137e-001 0.000000e+000
      outer loop
         vertex 1.407098e+000 -8.303108e-001 -1.260224e+000
         vertex 1.394170e+000 -8.408734e-001 1.889382e+000
         vertex 1.394170e+000 -8.408734e-001 -1.260224e+000
      endloop
   endfacet
   facet normal 5.172259e-001 -8.558489e-001 0.000000e+000
      outer loop
         vertex 1.394170e+000 -8.408734e-001 -1.260224e+000
         vertex 1.394170e+000 -8.408734e-001 1.889382e+000
         vertex 1.379643e+000 -8.490993e-001 1.889382e+000
      endloop
   endfacet
   facet normal 4.678707e-001 -8.837969e-001 0.000000e+000
      outer loop
         vertex 1.394170e+000 -8.408734e-001 -1.260224e+000
         vertex 1.379643e+000 -8.490993e-001 1.889382e+000
         vertex 1.379643e+000 -8.490993e-001 -1.260224e+000
      endloop
   endfacet
   facet normal 3.651469e-001 -9.309499e-001 0.000000e+000
      outer loop
         vertex 1.379643e+000 -8.490993e-001 -1.260224e+000
         vertex 1.379643e+000 -8.490993e-001 1.889382e+000
         vertex 1.363935e+000 -8.547519e-001 1.889382e+000
      endloop
   endfacet
   facet normal 3.117784e-001 -9.501548e-001 0.000000e+000
      outer loop
         vertex 1.379643e+000 -8.490993e-001 -1.260224e+000
         vertex 1.363935e+000 -8.547519e-001 1.889382e+000
         vertex 1.363935e+000 -8.547519e-001 -1.260224e+000
      endloop
   endfacet
   facet normal 2.025634e-001 -9.792691e-001 0.000000e+000
      outer loop
         vertex 1.363935e+000 -8.547519e-001 -1.260224e+000
         vertex 1.363935e+000 -8.547519e-001 1.889382e+000
         vertex 1.347498e+000 -8.576685e-001 1.889382e+000
      endloop
   endfacet
   facet normal 1.467168e-001 -9.891785e-001 0.000000e+000
      outer loop
         vertex 1.363935e+000 -8.547519e-001 -1.260224e+000
         vertex 1.347498e+000 -8.576685e-001 1.889382e+000
         vertex 1.347498e+000 -8.576685e-001 -1.260224e+000
      endloop
   endfacet
   facet normal 3.415237e-002 -9.994166e-001 0.000000e+000
      outer loop
         vertex 1.347498e+000 -8.576685e-001 -1.260224e+000
         vertex 1.347498e+000 -8.576685e-001 1.889382e+000
         vertex 1.330804e+000 -8.577653e-001 1.889382e+000
      endloop
   endfacet
   facet normal -2.256555e-002 -9.997454e-001 0.000000e+000
      outer loop
         vertex 1.347498e+000 -8.576685e-001 -1.260224e+000
         vertex 1.330804e+000 -8.577653e-001 1.889382e+000
         vertex 1.330804e+000 -8.577653e-001 -1.260224e+000
      endloop
   endfacet
   facet normal -1.352411e-001 -9.908127e-001 0.000000e+000
      outer loop
         vertex 1.330804e+000 -8.577653e-001 -1.260224e+000
         vertex 1.330804e+000 -8.577653e-001 1.889382e+000
         vertex 1.314334e+000 -8.550394e-001 1.889382e+000
      endloop
   endfacet
   facet normal -1.911988e-001 -9.815513e-001 0.000000e+000
      outer loop
         vertex 1.330804e+000 -8.577653e-001 -1.260224e+000
         vertex 1.314334e+000 -8.550394e-001 1.889382e+000
         vertex 1.314334e+000 -8.550394e-001 -1.260224e+000
      endloop
   endfacet
   facet normal -3.007440e-001 -9.537049e-001 0.000000e+000
      outer loop
         vertex 1.314334e+000 -8.550394e-001 -1.260224e+000
         vertex 1.314334e+000 -8.550394e-001 1.889382e+000
         vertex 1.298562e+000 -8.495693e-001 1.889382e+000
      endloop
   endfacet
   facet normal -3.543315e-001 -9.351199e-001 0.000000e+000
      outer loop
         vertex 1.314334e+000 -8.550394e-001 -1.260224e+000
         vertex 1.298562e+000 -8.495693e-001 1.889382e+000
         vertex 1.298562e+000 -8.495693e-001 -1.260224e+000
      endloop
   endfacet
   facet normal -4.575949e-001 -8.891608e-001 0.000000e+000
      outer loop
         vertex 1.298562e+000 -8.495693e-001 -1.260224e+000
         vertex 1.298562e+000 -8.495693e-001 1.889382e+000
         vertex 1.283941e+000 -8.415123e-001 1.889382e+000
      endloop
   endfacet
   facet normal -5.072708e-001 -8.617867e-001 0.000000e+000
      outer loop
         vertex 1.298562e+000 -8.495693e-001 -1.260224e+000
         vertex 1.283941e+000 -8.415123e-001 1.889382e+000
         vertex 1.283941e+000 -8.415123e-001 -1.260224e+000
      endloop
   endfacet
   facet normal -6.012818e-001 -7.990371e-001 0.000000e+000
      outer loop
         vertex 1.283941e+000 -8.415123e-001 -1.260224e+000
         vertex 1.283941e+000 -8.415123e-001 1.889382e+000
         vertex 1.270891e+000 -8.311002e-001 1.889382e+000
      endloop
   endfacet
   facet normal -6.456168e-001 -7.636616e-001 0.000000e+000
      outer loop
         vertex 1.283941e+000 -8.415123e-001 -1.260224e+000
         vertex 1.270891e+000 -8.311002e-001 1.889382e+000
         vertex 1.270891e+000 -8.311002e-001 -1.260224e+000
      endloop
   endfacet
   facet normal -7.276707e-001 -6.859266e-001 0.000000e+000
      outer loop
         vertex 1.270891e+000 -8.311002e-001 -1.260224e+000
         vertex 1.270891e+000 -8.311002e-001 1.889382e+000
         vertex 1.259790e+000 -8.186325e-001 1.889382e+000
      endloop
   endfacet
   facet normal -7.653896e-001 -6.435671e-001 0.000000e+000
      outer loop
         vertex 1.270891e+000 -8.311002e-001 -1.260224e+000
         vertex 1.259790e+000 -8.186325e-001 1.889382e+000
         vertex 1.259790e+000 -8.186325e-001 -1.260224e+000
      endloop
   endfacet
   facet normal -8.331260e-001 -5.530832e-001 0.000000e+000
      outer loop
         vertex 1.259790e+000 -8.186325e-001 -1.260224e+000
         vertex 1.259790e+000 -8.186325e-001 1.889382e+000
         vertex 1.250955e+000 -8.044679e-001 1.889382e+000
      endloop
   endfacet
   facet normal -8.631436e-001 -5.049586e-001 0.000000e+000
      outer loop
         vertex 1.259790e+000 -8.186325e-001 -1.260224e+000
         vertex 1.250955e+000 -8.044679e-001 1.889382e+000
         vertex 1.250955e+000 -8.044679e-001 -1.260224e+000
      endloop
   endfacet
   facet normal -9.146138e-001 -4.043286e-001 0.000000e+000
      outer loop
         vertex 1.250955e+000 -8.044679e-001 -1.260224e+000
         vertex 1.250955e+000 -8.044679e-001 1.889382e+000
         vertex 1.244640e+000 -7.890141e-001 1.889382e+000
      endloop
   endfacet
   facet normal -9.360664e-001 -3.518232e-001 0.000000e+000
      outer loop
         vertex 1.250955e+000 -8.044679e-001 -1.260224e+000
         vertex 1.244640e+000 -7.890141e-001 1.889382e+000
         vertex 1.244640e+000 -7.890141e-001 -1.260224e+000
      endloop
   endfacet
   facet normal -9.697897e-001 -2.439422e-001 0.000000e+000
      outer loop
         vertex 1.244640e+000 -7.890141e-001 -1.260224e+000
         vertex 1.244640e+000 -7.890141e-001 1.889382e+000
         vertex 1.241029e+000 -7.727153e-001 1.889382e+000
      endloop
   endfacet
   facet normal -9.820604e-001 -1.885665e-001 0.000000e+000
      outer loop
         vertex 1.244640e+000 -7.890141e-001 -1.260224e+000
         vertex 1.241029e+000 -7.727153e-001 1.889382e+000
         vertex 1.241029e+000 -7.727153e-001 -1.260224e+000
      endloop
   endfacet
   facet normal -9.970666e-001 -7.653804e-002 0.000000e+000
      outer loop
         vertex 1.241029e+000 -7.727153e-001 -1.260224e+000
         vertex 1.241029e+000 -7.727153e-001 1.889382e+000
         vertex 1.240224e+000 -7.560407e-001 1.889382e+000
      endloop
   endfacet
   facet normal -9.998022e-001 -1.988518e-002 0.000000e+000
      outer loop
         vertex 1.241029e+000 -7.727153e-001 -1.260224e+000
         vertex 1.240224e+000 -7.560407e-001 1.889382e+000
         vertex 1.240224e+000 -7.560407e-001 -1.260224e+000
      endloop
   endfacet
   facet normal -9.956598e-001 9.306797e-002 0.000000e+000
      outer loop
         vertex 1.240224e+000 -7.560407e-001 -1.260224e+000
         vertex 1.240224e+000 -7.560407e-001 1.889382e+000
         vertex 1.242248e+000 -7.394698e-001 1.889382e+000
      endloop
   endfacet
   facet normal -9.887816e-001 1.493683e-001 0.000000e+000
      outer loop
         vertex 1.240224e+000 -7.560407e-001 -1.260224e+000
         vertex 1.242248e+000 -7.394698e-001 1.889382e+000
         vertex 1.242248e+000 -7.394698e-001 -1.260224e+000
      endloop
   endfacet
   facet normal -9.656096e-001 2.599966e-001 0.000000e+000
      outer loop
         vertex 1.242248e+000 -7.394698e-001 -1.260224e+000
         vertex 1.242248e+000 -7.394698e-001 1.889382e+000
         vertex 1.247044e+000 -7.234794e-001 1.889382e+000
      endloop
   endfacet
   facet normal -9.493155e-001 3.143246e-001 0.000000e+000
      outer loop
         vertex 1.242248e+000 -7.394698e-001 -1.260224e+000
         vertex 1.247044e+000 -7.234794e-001 1.889382e+000
         vertex 1.247044e+000 -7.234794e-001 -1.260224e+000
      endloop
   endfacet
   facet normal -9.077805e-001 4.194455e-001 0.000000e+000
      outer loop
         vertex 1.247044e+000 -7.234794e-001 -1.260224e+000
         vertex 1.247044e+000 -7.234794e-001 1.889382e+000
         vertex 1.254473e+000 -7.085295e-001 1.889382e+000
      endloop
   endfacet
   facet normal -8.825394e-001 4.702385e-001 0.000000e+000
      outer loop
         vertex 1.247044e+000 -7.234794e-001 -1.260224e+000
         vertex 1.254473e+000 -7.085295e-001 1.889382e+000
         vertex 1.254473e+000 -7.085295e-001 -1.260224e+000
      endloop
   endfacet
   facet normal -8.238363e-001 5.668279e-001 0.000000e+000
      outer loop
         vertex 1.254473e+000 -7.085295e-001 -1.260224e+000
         vertex 1.254473e+000 -7.085295e-001 1.889382e+000
         vertex 1.264322e+000 -6.950502e-001 1.889382e+000
      endloop
   endfacet
   facet normal -7.903742e-001 6.126244e-001 0.000000e+000
      outer loop
         vertex 1.254473e+000 -7.085295e-001 -1.260224e+000
         vertex 1.264322e+000 -6.950502e-001 1.889382e+000
         vertex 1.264322e+000 -6.950502e-001 -1.260224e+000
      endloop
   endfacet
   facet normal -7.356188e-001 6.773956e-001 0.000000e+000
      outer loop
         vertex 1.264322e+000 -6.950502e-001 -1.260224e+000
         vertex 1.264322e+000 -6.950502e-001 1.889382e+000
         vertex 1.270068e+000 -6.889852e-001 -1.260224e+000
      endloop
   endfacet
   facet normal 7.161441e-001 -6.979524e-001 0.000000e+000
      outer loop
         vertex 1.279174e+000 -7.079698e-001 -1.260224e+000
         vertex 1.283771e+000 -7.031177e-001 -1.260224e+000
         vertex 1.283771e+000 -7.031177e-001 1.889382e+000
      endloop
   endfacet
   facet normal 6.755216e-001 -7.373402e-001 0.000000e+000
      outer loop
         vertex 1.283771e+000 -7.031177e-001 1.889382e+000
         vertex 1.283771e+000 -7.031177e-001 -1.260224e+000
         vertex 1.288762e+000 -6.986730e-001 1.889382e+000
      endloop
   endfacet
   facet normal 7.356188e-001 -6.773956e-001 0.000000e+000
      outer loop
         vertex 1.283771e+000 -7.031177e-001 1.889382e+000
         vertex 1.279174e+000 -7.079698e-001 1.889382e+000
         vertex 1.279174e+000 -7.079698e-001 -1.260224e+000
      endloop
   endfacet
   facet normal 7.903742e-001 -6.126244e-001 0.000000e+000
      outer loop
         vertex 1.279174e+000 -7.079698e-001 -1.260224e+000
         vertex 1.279174e+000 -7.079698e-001 1.889382e+000
         vertex 1.271295e+000 -7.187532e-001 1.889382e+000
      endloop
   endfacet
   facet normal 8.238363e-001 -5.668279e-001 0.000000e+000
      outer loop
         vertex 1.279174e+000 -7.079698e-001 -1.260224e+000
         vertex 1.271295e+000 -7.187532e-001 1.889382e+000
         vertex 1.271295e+000 -7.187532e-001 -1.260224e+000
      endloop
   endfacet
   facet normal 8.825394e-001 -4.702385e-001 0.000000e+000
      outer loop
         vertex 1.271295e+000 -7.187532e-001 -1.260224e+000
         vertex 1.271295e+000 -7.187532e-001 1.889382e+000
         vertex 1.265352e+000 -7.307131e-001 1.889382e+000
      endloop
   endfacet
   facet normal 9.077805e-001 -4.194455e-001 0.000000e+000
      outer loop
         vertex 1.271295e+000 -7.187532e-001 -1.260224e+000
         vertex 1.265352e+000 -7.307131e-001 1.889382e+000
         vertex 1.265352e+000 -7.307131e-001 -1.260224e+000
      endloop
   endfacet
   facet normal 9.493155e-001 -3.143246e-001 0.000000e+000
      outer loop
         vertex 1.265352e+000 -7.307131e-001 -1.260224e+000
         vertex 1.265352e+000 -7.307131e-001 1.889382e+000
         vertex 1.261515e+000 -7.435054e-001 1.889382e+000
      endloop
   endfacet
   facet normal 9.656096e-001 -2.599966e-001 0.000000e+000
      outer loop
         vertex 1.265352e+000 -7.307131e-001 -1.260224e+000
         vertex 1.261515e+000 -7.435054e-001 1.889382e+000
         vertex 1.261515e+000 -7.435054e-001 -1.260224e+000
      endloop
   endfacet
   facet normal 9.887816e-001 -1.493683e-001 0.000000e+000
      outer loop
         vertex 1.261515e+000 -7.435054e-001 -1.260224e+000
         vertex 1.261515e+000 -7.435054e-001 1.889382e+000
         vertex 1.259895e+000 -7.567621e-001 1.889382e+000
      endloop
   endfacet
   facet normal 9.956598e-001 -9.306797e-002 0.000000e+000
      outer loop
         vertex 1.261515e+000 -7.435054e-001 -1.260224e+000
         vertex 1.259895e+000 -7.567621e-001 1.889382e+000
         vertex 1.259895e+000 -7.567621e-001 -1.260224e+000
      endloop
   endfacet
   facet normal 9.998022e-001 1.988518e-002 0.000000e+000
      outer loop
         vertex 1.259895e+000 -7.567621e-001 -1.260224e+000
         vertex 1.259895e+000 -7.567621e-001 1.889382e+000
         vertex 1.260540e+000 -7.701018e-001 1.889382e+000
      endloop
   endfacet
   facet normal 9.970666e-001 7.653804e-002 0.000000e+000
      outer loop
         vertex 1.259895e+000 -7.567621e-001 -1.260224e+000
         vertex 1.260540e+000 -7.701018e-001 1.889382e+000
         vertex 1.260540e+000 -7.701018e-001 -1.260224e+000
      endloop
   endfacet
   facet normal 9.820604e-001 1.885666e-001 0.000000e+000
      outer loop
         vertex 1.260540e+000 -7.701018e-001 -1.260224e+000
         vertex 1.260540e+000 -7.701018e-001 1.889382e+000
         vertex 1.263429e+000 -7.831408e-001 1.889382e+000
      endloop
   endfacet
   facet normal 9.697897e-001 2.439422e-001 0.000000e+000
      outer loop
         vertex 1.260540e+000 -7.701018e-001 -1.260224e+000
         vertex 1.263429e+000 -7.831408e-001 1.889382e+000
         vertex 1.263429e+000 -7.831408e-001 -1.260224e+000
      endloop
   endfacet
   facet normal 9.360664e-001 3.518232e-001 0.000000e+000
      outer loop
         vertex 1.263429e+000 -7.831408e-001 -1.260224e+000
         vertex 1.263429e+000 -7.831408e-001 1.889382e+000
         vertex 1.268480e+000 -7.955040e-001 1.889382e+000
      endloop
   endfacet
   facet normal 9.146138e-001 4.043286e-001 0.000000e+000
      outer loop
         vertex 1.263429e+000 -7.831408e-001 -1.260224e+000
         vertex 1.268480e+000 -7.955040e-001 1.889382e+000
         vertex 1.268480e+000 -7.955040e-001 -1.260224e+000
      endloop
   endfacet
   facet normal 8.631436e-001 5.049586e-001 0.000000e+000
      outer loop
         vertex 1.268480e+000 -7.955040e-001 -1.260224e+000
         vertex 1.268480e+000 -7.955040e-001 1.889382e+000
         vertex 1.275548e+000 -8.068357e-001 1.889382e+000
      endloop
   endfacet
   facet normal 8.331260e-001 5.530832e-001 0.000000e+000
      outer loop
         vertex 1.268480e+000 -7.955040e-001 -1.260224e+000
         vertex 1.275548e+000 -8.068357e-001 1.889382e+000
         vertex 1.275548e+000 -8.068357e-001 -1.260224e+000
      endloop
   endfacet
   facet normal 7.653896e-001 6.435672e-001 0.000000e+000
      outer loop
         vertex 1.275548e+000 -8.068357e-001 -1.260224e+000
         vertex 1.275548e+000 -8.068357e-001 1.889382e+000
         vertex 1.284430e+000 -8.168097e-001 1.889382e+000
      endloop
   endfacet
   facet normal 7.276707e-001 6.859266e-001 0.000000e+000
      outer loop
         vertex 1.275548e+000 -8.068357e-001 -1.260224e+000
         vertex 1.284430e+000 -8.168097e-001 1.889382e+000
         vertex 1.284430e+000 -8.168097e-001 -1.260224e+000
      endloop
   endfacet
   facet normal 6.456168e-001 7.636616e-001 0.000000e+000
      outer loop
         vertex 1.284430e+000 -8.168097e-001 -1.260224e+000
         vertex 1.284430e+000 -8.168097e-001 1.889382e+000
         vertex 1.294869e+000 -8.251394e-001 1.889382e+000
      endloop
   endfacet
   facet normal 6.012818e-001 7.990371e-001 0.000000e+000
      outer loop
         vertex 1.284430e+000 -8.168097e-001 -1.260224e+000
         vertex 1.294869e+000 -8.251394e-001 1.889382e+000
         vertex 1.294869e+000 -8.251394e-001 -1.260224e+000
      endloop
   endfacet
   facet normal 5.072708e-001 8.617867e-001 0.000000e+000
      outer loop
         vertex 1.294869e+000 -8.251394e-001 -1.260224e+000
         vertex 1.294869e+000 -8.251394e-001 1.889382e+000
         vertex 1.306566e+000 -8.315850e-001 1.889382e+000
      endloop
   endfacet
   facet normal 4.575949e-001 8.891608e-001 0.000000e+000
      outer loop
         vertex 1.294869e+000 -8.251394e-001 -1.260224e+000
         vertex 1.306566e+000 -8.315850e-001 1.889382e+000
         vertex 1.306566e+000 -8.315850e-001 -1.260224e+000
      endloop
   endfacet
   facet normal 3.543315e-001 9.351199e-001 0.000000e+000
      outer loop
         vertex 1.306566e+000 -8.315850e-001 -1.260224e+000
         vertex 1.306566e+000 -8.315850e-001 1.889382e+000
         vertex 1.319184e+000 -8.359611e-001 1.889382e+000
      endloop
   endfacet
   facet normal 3.007440e-001 9.537049e-001 0.000000e+000
      outer loop
         vertex 1.306566e+000 -8.315850e-001 -1.260224e+000
         vertex 1.319184e+000 -8.359611e-001 1.889382e+000
         vertex 1.319184e+000 -8.359611e-001 -1.260224e+000
      endloop
   endfacet
   facet normal 1.911988e-001 9.815513e-001 0.000000e+000
      outer loop
         vertex 1.319184e+000 -8.359611e-001 -1.260224e+000
         vertex 1.319184e+000 -8.359611e-001 1.889382e+000
         vertex 1.332360e+000 -8.381419e-001 1.889382e+000
      endloop
   endfacet
   facet normal 1.352411e-001 9.908127e-001 0.000000e+000
      outer loop
         vertex 1.319184e+000 -8.359611e-001 -1.260224e+000
         vertex 1.332360e+000 -8.381419e-001 1.889382e+000
         vertex 1.332360e+000 -8.381419e-001 -1.260224e+000
      endloop
   endfacet
   facet normal 2.256555e-002 9.997454e-001 0.000000e+000
      outer loop
         vertex 1.332360e+000 -8.381419e-001 -1.260224e+000
         vertex 1.332360e+000 -8.381419e-001 1.889382e+000
         vertex 1.345715e+000 -8.380644e-001 1.889382e+000
      endloop
   endfacet
   facet normal -3.415237e-002 9.994166e-001 0.000000e+000
      outer loop
         vertex 1.332360e+000 -8.381419e-001 -1.260224e+000
         vertex 1.345715e+000 -8.380644e-001 1.889382e+000
         vertex 1.345715e+000 -8.380644e-001 -1.260224e+000
      endloop
   endfacet
   facet normal -1.467168e-001 9.891785e-001 0.000000e+000
      outer loop
         vertex 1.345715e+000 -8.380644e-001 -1.260224e+000
         vertex 1.345715e+000 -8.380644e-001 1.889382e+000
         vertex 1.358865e+000 -8.357311e-001 1.889382e+000
      endloop
   endfacet
   facet normal -2.025633e-001 9.792691e-001 0.000000e+000
      outer loop
         vertex 1.345715e+000 -8.380644e-001 -1.260224e+000
         vertex 1.358865e+000 -8.357311e-001 1.889382e+000
         vertex 1.358865e+000 -8.357311e-001 -1.260224e+000
      endloop
   endfacet
   facet normal -3.117784e-001 9.501548e-001 0.000000e+000
      outer loop
         vertex 1.358865e+000 -8.357311e-001 -1.260224e+000
         vertex 1.358865e+000 -8.357311e-001 1.889382e+000
         vertex 1.371431e+000 -8.312091e-001 1.889382e+000
      endloop
   endfacet
   facet normal -3.651469e-001 9.309499e-001 0.000000e+000
      outer loop
         vertex 1.358865e+000 -8.357311e-001 -1.260224e+000
         vertex 1.371431e+000 -8.312091e-001 1.889382e+000
         vertex 1.371431e+000 -8.312091e-001 -1.260224e+000
      endloop
   endfacet
   facet normal -4.678707e-001 8.837969e-001 0.000000e+000
      outer loop
         vertex 1.371431e+000 -8.312091e-001 -1.260224e+000
         vertex 1.371431e+000 -8.312091e-001 1.889382e+000
         vertex 1.383053e+000 -8.246283e-001 1.889382e+000
      endloop
   endfacet
   facet normal -5.172259e-001 8.558489e-001 0.000000e+000
      outer loop
         vertex 1.371431e+000 -8.312091e-001 -1.260224e+000
         vertex 1.383053e+000 -8.246283e-001 1.889382e+000
         vertex 1.383053e+000 -8.246283e-001 -1.260224e+000
      endloop
   endfacet
   facet normal -6.105033e-001 7.920138e-001 0.000000e+000
      outer loop
         vertex 1.383053e+000 -8.246283e-001 -1.260224e+000
         vertex 1.383053e+000 -8.246283e-001 1.889382e+000
         vertex 1.393395e+000 -8.161782e-001 1.889382e+000
      endloop
   endfacet
   facet normal -6.544253e-001 7.561266e-001 0.000000e+000
      outer loop
         vertex 1.383053e+000 -8.246283e-001 -1.260224e+000
         vertex 1.393395e+000 -8.161782e-001 1.889382e+000
         vertex 1.393395e+000 -8.161782e-001 -1.260224e+000
      endloop
   endfacet
   facet normal -7.355727e-001 6.774458e-001 0.000000e+000
      outer loop
         vertex 1.393395e+000 -8.161782e-001 -1.260224e+000
         vertex 1.393395e+000 -8.161782e-001 1.889382e+000
         vertex 1.402160e+000 -8.061018e-001 1.889382e+000
      endloop
   endfacet
   facet normal -7.727980e-001 6.346521e-001 0.000000e+000
      outer loop
         vertex 1.393395e+000 -8.161782e-001 -1.260224e+000
         vertex 1.402160e+000 -8.061018e-001 1.889382e+000
         vertex 1.402160e+000 -8.061018e-001 -1.260224e+000
      endloop
   endfacet
   facet normal -8.394810e-001 5.433890e-001 0.000000e+000
      outer loop
         vertex 1.402160e+000 -8.061018e-001 -1.260224e+000
         vertex 1.402160e+000 -8.061018e-001 1.889382e+000
         vertex 1.409096e+000 -7.946890e-001 1.889382e+000
      endloop
   endfacet
   facet normal -8.689387e-001 4.949197e-001 0.000000e+000
      outer loop
         vertex 1.402160e+000 -8.061018e-001 -1.260224e+000
         vertex 1.409096e+000 -7.946890e-001 1.889382e+000
         vertex 1.409096e+000 -7.946890e-001 -1.260224e+000
      endloop
   endfacet
   facet normal -9.192390e-001 3.936998e-001 0.000000e+000
      outer loop
         vertex 1.409096e+000 -7.946890e-001 -1.260224e+000
         vertex 1.409096e+000 -7.946890e-001 1.889382e+000
         vertex 1.414004e+000 -7.822682e-001 1.889382e+000
      endloop
   endfacet
   facet normal -9.400817e-001 3.409494e-001 0.000000e+000
      outer loop
         vertex 1.409096e+000 -7.946890e-001 -1.260224e+000
         vertex 1.414004e+000 -7.822682e-001 1.889382e+000
         vertex 1.414004e+000 -7.822682e-001 -1.260224e+000
      endloop
   endfacet
   facet normal -9.725522e-001 2.326847e-001 0.000000e+000
      outer loop
         vertex 1.414004e+000 -7.822682e-001 -1.260224e+000
         vertex 1.414004e+000 -7.822682e-001 1.889382e+000
         vertex 1.416742e+000 -7.691966e-001 1.889382e+000
      endloop
   endfacet
   facet normal -9.841802e-001 1.771705e-001 0.000000e+000
      outer loop
         vertex 1.414004e+000 -7.822682e-001 -1.260224e+000
         vertex 1.416742e+000 -7.691966e-001 1.889382e+000
         vertex 1.416742e+000 -7.691966e-001 -1.260224e+000
      endloop
   endfacet
   facet normal -9.978868e-001 6.497561e-002 0.000000e+000
      outer loop
         vertex 1.416742e+000 -7.691966e-001 -1.260224e+000
         vertex 1.416742e+000 -7.691966e-001 1.889382e+000
         vertex 1.417231e+000 -7.558503e-001 1.889382e+000
      endloop
   endfacet
   facet normal -9.999655e-001 8.294843e-003 0.000000e+000
      outer loop
         vertex 1.416742e+000 -7.691966e-001 -1.260224e+000
         vertex 1.417231e+000 -7.558503e-001 1.889382e+000
         vertex 1.417231e+000 -7.558503e-001 -1.260224e+000
      endloop
   endfacet
   facet normal -9.945140e-001 -1.046027e-001 0.000000e+000
      outer loop
         vertex 1.417231e+000 -7.558503e-001 -1.260224e+000
         vertex 1.417231e+000 -7.558503e-001 1.889382e+000
         vertex 1.415458e+000 -7.426133e-001 1.889382e+000
      endloop
   endfacet
   facet normal -9.869838e-001 -1.608195e-001 0.000000e+000
      outer loop
         vertex 1.417231e+000 -7.558503e-001 -1.260224e+000
         vertex 1.415458e+000 -7.426133e-001 1.889382e+000
         vertex 1.415458e+000 -7.426133e-001 -1.260224e+000
      endloop
   endfacet
   facet normal -9.625309e-001 -2.711718e-001 0.000000e+000
      outer loop
         vertex 1.415458e+000 -7.426133e-001 -1.260224e+000
         vertex 1.415458e+000 -7.426133e-001 1.889382e+000
         vertex 1.411474e+000 -7.298662e-001 1.889382e+000
      endloop
   endfacet
   facet normal -9.456083e-001 -3.253073e-001 0.000000e+000
      outer loop
         vertex 1.415458e+000 -7.426133e-001 -1.260224e+000
         vertex 1.411474e+000 -7.298662e-001 1.889382e+000
         vertex 1.411474e+000 -7.298662e-001 -1.260224e+000
      endloop
   endfacet
   facet normal -9.028575e-001 -4.299397e-001 0.000000e+000
      outer loop
         vertex 1.411474e+000 -7.298662e-001 -1.260224e+000
         vertex 1.411474e+000 -7.298662e-001 1.889382e+000
         vertex 1.405392e+000 -7.179760e-001 1.889382e+000
      endloop
   endfacet
   facet normal -8.770294e-001 -4.804366e-001 0.000000e+000
      outer loop
         vertex 1.411474e+000 -7.298662e-001 -1.260224e+000
         vertex 1.405392e+000 -7.179760e-001 1.889382e+000
         vertex 1.405392e+000 -7.179760e-001 -1.260224e+000
      endloop
   endfacet
   facet normal -8.172107e-001 -5.763391e-001 0.000000e+000
      outer loop
         vertex 1.405392e+000 -7.179760e-001 -1.260224e+000
         vertex 1.405392e+000 -7.179760e-001 1.889382e+000
         vertex 1.397388e+000 -7.072846e-001 1.889382e+000
      endloop
   endfacet
   facet normal -7.832200e-001 -6.217446e-001 0.000000e+000
      outer loop
         vertex 1.405392e+000 -7.179760e-001 -1.260224e+000
         vertex 1.397388e+000 -7.072846e-001 1.889382e+000
         vertex 1.397388e+000 -7.072846e-001 -1.260224e+000
      endloop
   endfacet
   facet normal -7.080540e-001 -7.061583e-001 0.000000e+000
      outer loop
         vertex 1.397388e+000 -7.072846e-001 -1.260224e+000
         vertex 1.397388e+000 -7.072846e-001 1.889382e+000
         vertex 1.387693e+000 -6.980996e-001 1.889382e+000
      endloop
   endfacet
   facet normal -6.668786e-001 -7.451663e-001 0.000000e+000
      outer loop
         vertex 1.397388e+000 -7.072846e-001 -1.260224e+000
         vertex 1.387693e+000 -6.980996e-001 1.889382e+000
         vertex 1.387693e+000 -6.980996e-001 -1.260224e+000
      endloop
   endfacet
   facet normal -5.785279e-001 -8.156626e-001 0.000000e+000
      outer loop
         vertex 1.387693e+000 -6.980996e-001 -1.260224e+000
         vertex 1.387693e+000 -6.980996e-001 1.889382e+000
         vertex 1.376585e+000 -6.906853e-001 1.889382e+000
      endloop
   endfacet
   facet normal -5.313525e-001 -8.471508e-001 0.000000e+000
      outer loop
         vertex 1.387693e+000 -6.980996e-001 -1.260224e+000
         vertex 1.376585e+000 -6.906853e-001 1.889382e+000
         vertex 1.376585e+000 -6.906853e-001 -1.260224e+000
      endloop
   endfacet
   facet normal -4.323587e-001 -9.017017e-001 0.000000e+000
      outer loop
         vertex 1.376585e+000 -6.906853e-001 -1.260224e+000
         vertex 1.376585e+000 -6.906853e-001 1.889382e+000
         vertex 1.364383e+000 -6.852548e-001 1.889382e+000
      endloop
   endfacet
   facet normal -3.805403e-001 -9.247643e-001 0.000000e+000
      outer loop
         vertex 1.376585e+000 -6.906853e-001 -1.260224e+000
         vertex 1.364383e+000 -6.852548e-001 1.889382e+000
         vertex 1.364383e+000 -6.852548e-001 -1.260224e+000
      endloop
   endfacet
   facet normal -2.737513e-001 -9.618005e-001 0.000000e+000
      outer loop
         vertex 1.364383e+000 -6.852548e-001 -1.260224e+000
         vertex 1.364383e+000 -6.852548e-001 1.889382e+000
         vertex 1.351440e+000 -6.819646e-001 1.889382e+000
      endloop
   endfacet
   facet normal -2.187807e-001 -9.757740e-001 0.000000e+000
      outer loop
         vertex 1.364383e+000 -6.852548e-001 -1.260224e+000
         vertex 1.351440e+000 -6.819646e-001 1.889382e+000
         vertex 1.351440e+000 -6.819646e-001 -1.260224e+000
      endloop
   endfacet
   facet normal -1.072686e-001 -9.942300e-001 0.000000e+000
      outer loop
         vertex 1.351440e+000 -6.819646e-001 -1.260224e+000
         vertex 1.351440e+000 -6.819646e-001 1.889382e+000
         vertex 1.338126e+000 -6.809092e-001 1.889382e+000
      endloop
   endfacet
   facet normal -5.072711e-002 -9.987125e-001 0.000000e+000
      outer loop
         vertex 1.351440e+000 -6.819646e-001 -1.260224e+000
         vertex 1.338126e+000 -6.809092e-001 1.889382e+000
         vertex 1.338126e+000 -6.809092e-001 -1.260224e+000
      endloop
   endfacet
   facet normal 6.230008e-002 -9.980575e-001 0.000000e+000
      outer loop
         vertex 1.338126e+000 -6.809092e-001 -1.260224e+000
         vertex 1.338126e+000 -6.809092e-001 1.889382e+000
         vertex 1.324826e+000 -6.821188e-001 1.889382e+000
      endloop
   endfacet
   facet normal 1.187858e-001 -9.929199e-001 0.000000e+000
      outer loop
         vertex 1.338126e+000 -6.809092e-001 -1.260224e+000
         vertex 1.324826e+000 -6.821188e-001 1.889382e+000
         vertex 1.324826e+000 -6.821188e-001 -1.260224e+000
      endloop
   endfacet
   facet normal 2.300765e-001 -9.731725e-001 0.000000e+000
      outer loop
         vertex 1.324826e+000 -6.821188e-001 -1.260224e+000
         vertex 1.324826e+000 -6.821188e-001 1.889382e+000
         vertex 1.311921e+000 -6.855590e-001 1.889382e+000
      endloop
   endfacet
   facet normal 2.848814e-001 -9.585627e-001 0.000000e+000
      outer loop
         vertex 1.324826e+000 -6.821188e-001 -1.260224e+000
         vertex 1.311921e+000 -6.855590e-001 1.889382e+000
         vertex 1.311921e+000 -6.855590e-001 -1.260224e+000
      endloop
   endfacet
   facet normal 3.912340e-001 -9.202912e-001 0.000000e+000
      outer loop
         vertex 1.311921e+000 -6.855590e-001 -1.260224e+000
         vertex 1.311921e+000 -6.855590e-001 1.889382e+000
         vertex 1.299784e+000 -6.911304e-001 1.889382e+000
      endloop
   endfacet
   facet normal 4.427815e-001 -8.966295e-001 0.000000e+000
      outer loop
         vertex 1.311921e+000 -6.855590e-001 -1.260224e+000
         vertex 1.299784e+000 -6.911304e-001 1.889382e+000
         vertex 1.299784e+000 -6.911304e-001 -1.260224e+000
      endloop
   endfacet
   facet normal 5.411364e-001 -8.409348e-001 0.000000e+000
      outer loop
         vertex 1.299784e+000 -6.911304e-001 -1.260224e+000
         vertex 1.299784e+000 -6.911304e-001 1.889382e+000
         vertex 1.288762e+000 -6.986730e-001 1.889382e+000
      endloop
   endfacet
   facet normal 5.879437e-001 -8.089018e-001 0.000000e+000
      outer loop
         vertex 1.299784e+000 -6.911304e-001 -1.260224e+000
         vertex 1.288762e+000 -6.986730e-001 1.889382e+000
         vertex 1.288762e+000 -6.986730e-001 -1.260224e+000
      endloop
   endfacet
   facet normal 6.543738e-001 -7.561713e-001 0.000000e+000
      outer loop
         vertex 1.288762e+000 -6.986730e-001 -1.260224e+000
         vertex 1.288762e+000 -6.986730e-001 1.889382e+000
         vertex 1.283771e+000 -7.031177e-001 -1.260224e+000
      endloop
   endfacet
endsolid