solid tubocarbono-6-solid1_Default_sldprt
   facet normal 0.000000e+000 0.000000e+000 -1.000000e+000
      outer loop
         vertex 3.202641e+000 -2.967527e+000 -1.109368e+000
         vertex 3.202102e+000 -2.980872e+000 -1.109368e+000
         vertex 3.183111e+000 -2.965066e+000 -1.109368e+000
      endloop
   endfacet
   facet normal 0.000000e+000 0.000000e+000 -1.000000e+000
      outer loop
         vertex 3.202641e+000 -2.967527e+000 -1.109368e+000
         vertex 3.183111e+000 -2.965066e+000 -1.109368e+000
         vertex 3.205429e+000 -2.954466e+000 -1.109368e+000
      endloop
   endfacet
   facet normal 0.000000e+000 0.000000e+000 -1.000000e+000
      outer loop
         vertex 3.205429e+000 -2.954466e+000 -1.109368e+000
         vertex 3.183111e+000 -2.965066e+000 -1.109368e+000
         vertex 3.186595e+000 -2.948740e+000 -1.109368e+000
      endloop
   endfacet
   facet normal 0.000000e+000 0.000000e+000 -1.000000e+000
      outer loop
         vertex 3.205429e+000 -2.954466e+000 -1.109368e+000
         vertex 3.186595e+000 -2.948740e+000 -1.109368e+000
         vertex 3.210383e+000 -2.942064e+000 -1.109368e+000
      endloop
   endfacet
   facet normal 0.000000e+000 0.000000e+000 -1.000000e+000
      outer loop
         vertex 3.210383e+000 -2.942064e+000 -1.109368e+000
         vertex 3.186595e+000 -2.948740e+000 -1.109368e+000
         vertex 3.192788e+000 -2.933237e+000 -1.109368e+000
      endloop
   endfacet
   facet normal 0.000000e+000 0.000000e+000 -1.000000e+000
      outer loop
         vertex 3.210383e+000 -2.942064e+000 -1.109368e+000
         vertex 3.192788e+000 -2.933237e+000 -1.109368e+000
         vertex 3.217362e+000 -2.930677e+000 -1.109368e+000
      endloop
   endfacet
   facet normal 0.000000e+000 0.000000e+000 -1.000000e+000
      outer loop
         vertex 3.217362e+000 -2.930677e+000 -1.109368e+000
         vertex 3.192788e+000 -2.933237e+000 -1.109368e+000
         vertex 3.201512e+000 -2.919004e+000 -1.109368e+000
      endloop
   endfacet
   facet normal 0.000000e+000 0.000000e+000 -1.000000e+000
      outer loop
         vertex 3.217362e+000 -2.930677e+000 -1.109368e+000
         vertex 3.201512e+000 -2.919004e+000 -1.109368e+000
         vertex 3.226165e+000 -2.920634e+000 -1.109368e+000
      endloop
   endfacet
   facet normal 0.000000e+000 0.000000e+000 -1.000000e+000
      outer loop
         vertex 3.226165e+000 -2.920634e+000 -1.109368e+000
         vertex 3.201512e+000 -2.919004e+000 -1.109368e+000
         vertex 3.212516e+000 -2.906450e+000 -1.109368e+000
      endloop
   endfacet
   facet normal 0.000000e+000 0.000000e+000 -1.000000e+000
      outer loop
         vertex 3.226165e+000 -2.920634e+000 -1.109368e+000
         vertex 3.212516e+000 -2.906450e+000 -1.109368e+000
         vertex 3.236539e+000 -2.912223e+000 -1.109368e+000
      endloop
   endfacet
   facet normal 0.000000e+000 0.000000e+000 -1.000000e+000
      outer loop
         vertex 3.236539e+000 -2.912223e+000 -1.109368e+000
         vertex 3.212516e+000 -2.906450e+000 -1.109368e+000
         vertex 3.225483e+000 -2.895936e+000 -1.109368e+000
      endloop
   endfacet
   facet normal 0.000000e+000 0.000000e+000 -1.000000e+000
      outer loop
         vertex 3.236539e+000 -2.912223e+000 -1.109368e+000
         vertex 3.225483e+000 -2.895936e+000 -1.109368e+000
         vertex 3.248185e+000 -2.905686e+000 -1.109368e+000
      endloop
   endfacet
   facet normal 0.000000e+000 0.000000e+000 -1.000000e+000
      outer loop
         vertex 3.248185e+000 -2.905686e+000 -1.109368e+000
         vertex 3.225483e+000 -2.895936e+000 -1.109368e+000
         vertex 3.240041e+000 -2.887765e+000 -1.109368e+000
      endloop
   endfacet
   facet normal 0.000000e+000 0.000000e+000 -1.000000e+000
      outer loop
         vertex 3.248185e+000 -2.905686e+000 -1.109368e+000
         vertex 3.240041e+000 -2.887765e+000 -1.109368e+000
         vertex 3.260769e+000 -2.901211e+000 -1.109368e+000
      endloop
   endfacet
   facet normal 0.000000e+000 0.000000e+000 -1.000000e+000
      outer loop
         vertex 3.260769e+000 -2.901211e+000 -1.109368e+000
         vertex 3.240041e+000 -2.887765e+000 -1.109368e+000
         vertex 3.255770e+000 -2.882171e+000 -1.109368e+000
      endloop
   endfacet
   facet normal 0.000000e+000 0.000000e+000 -1.000000e+000
      outer loop
         vertex 3.260769e+000 -2.901211e+000 -1.109368e+000
         vertex 3.255770e+000 -2.882171e+000 -1.109368e+000
         vertex 3.273927e+000 -2.898927e+000 -1.109368e+000
      endloop
   endfacet
   facet normal 0.000000e+000 0.000000e+000 -1.000000e+000
      outer loop
         vertex 3.273927e+000 -2.898927e+000 -1.109368e+000
         vertex 3.255770e+000 -2.882171e+000 -1.109368e+000
         vertex 3.272218e+000 -2.879317e+000 -1.109368e+000
      endloop
   endfacet
   facet normal 0.000000e+000 0.000000e+000 -1.000000e+000
      outer loop
         vertex 3.273927e+000 -2.898927e+000 -1.109368e+000
         vertex 3.272218e+000 -2.879317e+000 -1.109368e+000
         vertex 3.287282e+000 -2.898900e+000 -1.109368e+000
      endloop
   endfacet
   facet normal 0.000000e+000 0.000000e+000 -1.000000e+000
      outer loop
         vertex 3.287282e+000 -2.898900e+000 -1.109368e+000
         vertex 3.272218e+000 -2.879317e+000 -1.109368e+000
         vertex 3.288912e+000 -2.879283e+000 -1.109368e+000
      endloop
   endfacet
   facet normal 0.000000e+000 0.000000e+000 -1.000000e+000
      outer loop
         vertex 3.287282e+000 -2.898900e+000 -1.109368e+000
         vertex 3.288912e+000 -2.879283e+000 -1.109368e+000
         vertex 3.300450e+000 -2.901131e+000 -1.109368e+000
      endloop
   endfacet
   facet normal 0.000000e+000 0.000000e+000 -1.000000e+000
      outer loop
         vertex 3.300450e+000 -2.901131e+000 -1.109368e+000
         vertex 3.288912e+000 -2.879283e+000 -1.109368e+000
         vertex 3.305372e+000 -2.882071e+000 -1.109368e+000
      endloop
   endfacet
   facet normal 0.000000e+000 0.000000e+000 -1.000000e+000
      outer loop
         vertex 3.300450e+000 -2.901131e+000 -1.109368e+000
         vertex 3.305372e+000 -2.882071e+000 -1.109368e+000
         vertex 3.313051e+000 -2.905554e+000 -1.109368e+000
      endloop
   endfacet
   facet normal 0.000000e+000 0.000000e+000 -1.000000e+000
      outer loop
         vertex 3.313051e+000 -2.905554e+000 -1.109368e+000
         vertex 3.305372e+000 -2.882071e+000 -1.109368e+000
         vertex 3.321123e+000 -2.887600e+000 -1.109368e+000
      endloop
   endfacet
   facet normal 0.000000e+000 0.000000e+000 -1.000000e+000
      outer loop
         vertex 3.313051e+000 -2.905554e+000 -1.109368e+000
         vertex 3.321123e+000 -2.887600e+000 -1.109368e+000
         vertex 3.324724e+000 -2.912044e+000 -1.109368e+000
      endloop
   endfacet
   facet normal 0.000000e+000 0.000000e+000 -1.000000e+000
      outer loop
         vertex 3.324724e+000 -2.912044e+000 -1.109368e+000
         vertex 3.321123e+000 -2.887600e+000 -1.109368e+000
         vertex 3.335714e+000 -2.895712e+000 -1.109368e+000
      endloop
   endfacet
   facet normal 0.000000e+000 0.000000e+000 -1.000000e+000
      outer loop
         vertex 3.324724e+000 -2.912044e+000 -1.109368e+000
         vertex 3.335714e+000 -2.895712e+000 -1.109368e+000
         vertex 3.335132e+000 -2.920413e+000 -1.109368e+000
      endloop
   endfacet
   facet normal 0.000000e+000 0.000000e+000 -1.000000e+000
      outer loop
         vertex 3.335132e+000 -2.920413e+000 -1.109368e+000
         vertex 3.335714e+000 -2.895712e+000 -1.109368e+000
         vertex 3.348724e+000 -2.906174e+000 -1.109368e+000
      endloop
   endfacet
   facet normal 0.000000e+000 0.000000e+000 -1.000000e+000
      outer loop
         vertex 3.335132e+000 -2.920413e+000 -1.109368e+000
         vertex 3.348724e+000 -2.906174e+000 -1.109368e+000
         vertex 3.343976e+000 -2.930420e+000 -1.109368e+000
      endloop
   endfacet
   facet normal 0.000000e+000 0.000000e+000 -1.000000e+000
      outer loop
         vertex 3.343976e+000 -2.930420e+000 -1.109368e+000
         vertex 3.348724e+000 -2.906174e+000 -1.109368e+000
         vertex 3.359779e+000 -2.918683e+000 -1.109368e+000
      endloop
   endfacet
   facet normal 0.000000e+000 0.000000e+000 -1.000000e+000
      outer loop
         vertex 3.343976e+000 -2.930420e+000 -1.109368e+000
         vertex 3.359779e+000 -2.918683e+000 -1.109368e+000
         vertex 3.351001e+000 -2.941779e+000 -1.109368e+000
      endloop
   endfacet
   facet normal 0.000000e+000 0.000000e+000 -1.000000e+000
      outer loop
         vertex 3.351001e+000 -2.941779e+000 -1.109368e+000
         vertex 3.359779e+000 -2.918683e+000 -1.109368e+000
         vertex 3.368560e+000 -2.932881e+000 -1.109368e+000
      endloop
   endfacet
   facet normal 0.000000e+000 0.000000e+000 -1.000000e+000
      outer loop
         vertex 3.351001e+000 -2.941779e+000 -1.109368e+000
         vertex 3.368560e+000 -2.932881e+000 -1.109368e+000
         vertex 3.356006e+000 -2.954161e+000 -1.109368e+000
      endloop
   endfacet
   facet normal 0.000000e+000 0.000000e+000 -1.000000e+000
      outer loop
         vertex 3.356006e+000 -2.954161e+000 -1.109368e+000
         vertex 3.368560e+000 -2.932881e+000 -1.109368e+000
         vertex 3.374816e+000 -2.948359e+000 -1.109368e+000
      endloop
   endfacet
   facet normal 0.000000e+000 0.000000e+000 -1.000000e+000
      outer loop
         vertex 3.356006e+000 -2.954161e+000 -1.109368e+000
         vertex 3.374816e+000 -2.948359e+000 -1.109368e+000
         vertex 3.358846e+000 -2.967211e+000 -1.109368e+000
      endloop
   endfacet
   facet normal 0.000000e+000 0.000000e+000 -1.000000e+000
      outer loop
         vertex 3.358846e+000 -2.967211e+000 -1.109368e+000
         vertex 3.374816e+000 -2.948359e+000 -1.109368e+000
         vertex 3.378366e+000 -2.964670e+000 -1.109368e+000
      endloop
   endfacet
   facet normal 0.000000e+000 0.000000e+000 -1.000000e+000
      outer loop
         vertex 3.358846e+000 -2.967211e+000 -1.109368e+000
         vertex 3.378366e+000 -2.964670e+000 -1.109368e+000
         vertex 3.359440e+000 -2.980553e+000 -1.109368e+000
      endloop
   endfacet
   facet normal 0.000000e+000 0.000000e+000 -1.000000e+000
      outer loop
         vertex 3.359440e+000 -2.980553e+000 -1.109368e+000
         vertex 3.378366e+000 -2.964670e+000 -1.109368e+000
         vertex 3.379109e+000 -2.981348e+000 -1.109368e+000
      endloop
   endfacet
   facet normal 0.000000e+000 0.000000e+000 -1.000000e+000
      outer loop
         vertex 3.359440e+000 -2.980553e+000 -1.109368e+000
         vertex 3.379109e+000 -2.981348e+000 -1.109368e+000
         vertex 3.357770e+000 -2.993803e+000 -1.109368e+000
      endloop
   endfacet
   facet normal 0.000000e+000 0.000000e+000 -1.000000e+000
      outer loop
         vertex 3.357770e+000 -2.993803e+000 -1.109368e+000
         vertex 3.379109e+000 -2.981348e+000 -1.109368e+000
         vertex 3.377022e+000 -2.997911e+000 -1.109368e+000
      endloop
   endfacet
   facet normal 0.000000e+000 0.000000e+000 -1.000000e+000
      outer loop
         vertex 3.357770e+000 -2.993803e+000 -1.109368e+000
         vertex 3.377022e+000 -2.997911e+000 -1.109368e+000
         vertex 3.353885e+000 -3.006581e+000 -1.109368e+000
      endloop
   endfacet
   facet normal 0.000000e+000 0.000000e+000 -1.000000e+000
      outer loop
         vertex 3.353885e+000 -3.006581e+000 -1.109368e+000
         vertex 3.377022e+000 -2.997911e+000 -1.109368e+000
         vertex 3.372166e+000 -3.013883e+000 -1.109368e+000
      endloop
   endfacet
   facet normal 0.000000e+000 0.000000e+000 -1.000000e+000
      outer loop
         vertex 3.353885e+000 -3.006581e+000 -1.109368e+000
         vertex 3.372166e+000 -3.013883e+000 -1.109368e+000
         vertex 3.347897e+000 -3.018518e+000 -1.109368e+000
      endloop
   endfacet
   facet normal 0.000000e+000 0.000000e+000 -1.000000e+000
      outer loop
         vertex 3.347897e+000 -3.018518e+000 -1.109368e+000
         vertex 3.372166e+000 -3.013883e+000 -1.109368e+000
         vertex 3.364680e+000 -3.028805e+000 -1.109368e+000
      endloop
   endfacet
   facet normal 0.000000e+000 0.000000e+000 -1.000000e+000
      outer loop
         vertex 3.347897e+000 -3.018518e+000 -1.109368e+000
         vertex 3.364680e+000 -3.028805e+000 -1.109368e+000
         vertex 3.339978e+000 -3.029272e+000 -1.109368e+000
      endloop
   endfacet
   facet normal 0.000000e+000 0.000000e+000 -1.000000e+000
      outer loop
         vertex 3.339978e+000 -3.029272e+000 -1.109368e+000
         vertex 3.364680e+000 -3.028805e+000 -1.109368e+000
         vertex 3.354781e+000 -3.042248e+000 -1.109368e+000
      endloop
   endfacet
   facet normal 0.000000e+000 0.000000e+000 -1.000000e+000
      outer loop
         vertex 3.339978e+000 -3.029272e+000 -1.109368e+000
         vertex 3.354781e+000 -3.042248e+000 -1.109368e+000
         vertex 3.330354e+000 -3.038532e+000 -1.109368e+000
      endloop
   endfacet
   facet normal 0.000000e+000 0.000000e+000 -1.000000e+000
      outer loop
         vertex 3.330354e+000 -3.038532e+000 -1.109368e+000
         vertex 3.354781e+000 -3.042248e+000 -1.109368e+000
         vertex 3.342752e+000 -3.053823e+000 -1.109368e+000
      endloop
   endfacet
   facet normal 0.000000e+000 0.000000e+000 -1.000000e+000
      outer loop
         vertex 3.330354e+000 -3.038532e+000 -1.109368e+000
         vertex 3.342752e+000 -3.053823e+000 -1.109368e+000
         vertex 3.319304e+000 -3.046034e+000 -1.109368e+000
      endloop
   endfacet
   facet normal 0.000000e+000 0.000000e+000 -1.000000e+000
      outer loop
         vertex 3.319304e+000 -3.046034e+000 -1.109368e+000
         vertex 3.342752e+000 -3.053823e+000 -1.109368e+000
         vertex 3.328940e+000 -3.063200e+000 -1.109368e+000
      endloop
   endfacet
   facet normal 0.000000e+000 0.000000e+000 -1.000000e+000
      outer loop
         vertex 3.319304e+000 -3.046034e+000 -1.109368e+000
         vertex 3.328940e+000 -3.063200e+000 -1.109368e+000
         vertex 3.307146e+000 -3.051559e+000 -1.109368e+000
      endloop
   endfacet
   facet normal 0.000000e+000 0.000000e+000 -1.000000e+000
      outer loop
         vertex 3.307146e+000 -3.051559e+000 -1.109368e+000
         vertex 3.328940e+000 -3.063200e+000 -1.109368e+000
         vertex 3.313741e+000 -3.070107e+000 -1.109368e+000
      endloop
   endfacet
   facet normal 0.000000e+000 0.000000e+000 -1.000000e+000
      outer loop
         vertex 3.307146e+000 -3.051559e+000 -1.109368e+000
         vertex 3.313741e+000 -3.070107e+000 -1.109368e+000
         vertex 3.294229e+000 -3.054951e+000 -1.109368e+000
      endloop
   endfacet
   facet normal 0.000000e+000 0.000000e+000 -1.000000e+000
      outer loop
         vertex 3.294229e+000 -3.054951e+000 -1.109368e+000
         vertex 3.313741e+000 -3.070107e+000 -1.109368e+000
         vertex 3.297595e+000 -3.074346e+000 -1.109368e+000
      endloop
   endfacet
   facet normal 0.000000e+000 0.000000e+000 -1.000000e+000
      outer loop
         vertex 3.294229e+000 -3.054951e+000 -1.109368e+000
         vertex 3.297595e+000 -3.074346e+000 -1.109368e+000
         vertex 3.280924e+000 -3.056110e+000 -1.109368e+000
      endloop
   endfacet
   facet normal 0.000000e+000 0.000000e+000 -1.000000e+000
      outer loop
         vertex 3.280924e+000 -3.056110e+000 -1.109368e+000
         vertex 3.297595e+000 -3.074346e+000 -1.109368e+000
         vertex 3.280963e+000 -3.075795e+000 -1.109368e+000
      endloop
   endfacet
   facet normal 0.000000e+000 0.000000e+000 -1.000000e+000
      outer loop
         vertex 3.280924e+000 -3.056110e+000 -1.109368e+000
         vertex 3.280963e+000 -3.075795e+000 -1.109368e+000
         vertex 3.267614e+000 -3.055005e+000 -1.109368e+000
      endloop
   endfacet
   facet normal 0.000000e+000 0.000000e+000 -1.000000e+000
      outer loop
         vertex 3.267614e+000 -3.055005e+000 -1.109368e+000
         vertex 3.280963e+000 -3.075795e+000 -1.109368e+000
         vertex 3.264327e+000 -3.074413e+000 -1.109368e+000
      endloop
   endfacet
   facet normal 0.000000e+000 0.000000e+000 -1.000000e+000
      outer loop
         vertex 3.267614e+000 -3.055005e+000 -1.109368e+000
         vertex 3.264327e+000 -3.074413e+000 -1.109368e+000
         vertex 3.254683e+000 -3.051666e+000 -1.109368e+000
      endloop
   endfacet
   facet normal 0.000000e+000 0.000000e+000 -1.000000e+000
      outer loop
         vertex 3.254683e+000 -3.051666e+000 -1.109368e+000
         vertex 3.264327e+000 -3.074413e+000 -1.109368e+000
         vertex 3.248163e+000 -3.070239e+000 -1.109368e+000
      endloop
   endfacet
   facet normal 0.000000e+000 0.000000e+000 -1.000000e+000
      outer loop
         vertex 3.254683e+000 -3.051666e+000 -1.109368e+000
         vertex 3.248163e+000 -3.070239e+000 -1.109368e+000
         vertex 3.242502e+000 -3.046189e+000 -1.109368e+000
      endloop
   endfacet
   facet normal 0.000000e+000 0.000000e+000 -1.000000e+000
      outer loop
         vertex 3.242502e+000 -3.046189e+000 -1.109368e+000
         vertex 3.248163e+000 -3.070239e+000 -1.109368e+000
         vertex 3.232937e+000 -3.063394e+000 -1.109368e+000
      endloop
   endfacet
   facet normal 0.000000e+000 0.000000e+000 -1.000000e+000
      outer loop
         vertex 3.242502e+000 -3.046189e+000 -1.109368e+000
         vertex 3.232937e+000 -3.063394e+000 -1.109368e+000
         vertex 3.231422e+000 -3.038733e+000 -1.109368e+000
      endloop
   endfacet
   facet normal 0.000000e+000 0.000000e+000 -1.000000e+000
      outer loop
         vertex 3.231422e+000 -3.038733e+000 -1.109368e+000
         vertex 3.232937e+000 -3.063394e+000 -1.109368e+000
         vertex 3.219087e+000 -3.054074e+000 -1.109368e+000
      endloop
   endfacet
   facet normal 0.000000e+000 0.000000e+000 -1.000000e+000
      outer loop
         vertex 3.231422e+000 -3.038733e+000 -1.109368e+000
         vertex 3.219087e+000 -3.054074e+000 -1.109368e+000
         vertex 3.221762e+000 -3.029512e+000 -1.109368e+000
      endloop
   endfacet
   facet normal 0.000000e+000 0.000000e+000 -1.000000e+000
      outer loop
         vertex 3.221762e+000 -3.029512e+000 -1.109368e+000
         vertex 3.219087e+000 -3.054074e+000 -1.109368e+000
         vertex 3.207011e+000 -3.042547e+000 -1.109368e+000
      endloop
   endfacet
   facet normal 0.000000e+000 0.000000e+000 -1.000000e+000
      outer loop
         vertex 3.221762e+000 -3.029512e+000 -1.109368e+000
         vertex 3.207011e+000 -3.042547e+000 -1.109368e+000
         vertex 3.213798e+000 -3.018790e+000 -1.109368e+000
      endloop
   endfacet
   facet normal 0.000000e+000 0.000000e+000 -1.000000e+000
      outer loop
         vertex 3.213798e+000 -3.018790e+000 -1.109368e+000
         vertex 3.207011e+000 -3.042547e+000 -1.109368e+000
         vertex 3.197057e+000 -3.029145e+000 -1.109368e+000
      endloop
   endfacet
   facet normal 0.000000e+000 0.000000e+000 -1.000000e+000
      outer loop
         vertex 3.213798e+000 -3.018790e+000 -1.109368e+000
         vertex 3.197057e+000 -3.029145e+000 -1.109368e+000
         vertex 3.210527e+000 -3.012962e+000 -1.109368e+000
      endloop
   endfacet
   facet normal 0.000000e+000 0.000000e+000 -1.000000e+000
      outer loop
         vertex 3.210527e+000 -3.012962e+000 -1.109368e+000
         vertex 3.197057e+000 -3.029145e+000 -1.109368e+000
         vertex 3.192967e+000 -3.021860e+000 -1.109368e+000
      endloop
   endfacet
   facet normal 0.000000e+000 0.000000e+000 -1.000000e+000
      outer loop
         vertex 3.210527e+000 -3.012962e+000 -1.109368e+000
         vertex 3.192967e+000 -3.021860e+000 -1.109368e+000
         vertex 3.207762e+000 -3.006877e+000 -1.109368e+000
      endloop
   endfacet
   facet normal 0.000000e+000 0.000000e+000 -1.000000e+000
      outer loop
         vertex 3.207762e+000 -3.006877e+000 -1.109368e+000
         vertex 3.192967e+000 -3.021860e+000 -1.109368e+000
         vertex 3.189511e+000 -3.014254e+000 -1.109368e+000
      endloop
   endfacet
   facet normal 0.000000e+000 0.000000e+000 -1.000000e+000
      outer loop
         vertex 3.207762e+000 -3.006877e+000 -1.109368e+000
         vertex 3.189511e+000 -3.014254e+000 -1.109368e+000
         vertex 3.203825e+000 -2.994115e+000 -1.109368e+000
      endloop
   endfacet
   facet normal 0.000000e+000 0.000000e+000 -1.000000e+000
      outer loop
         vertex 3.203825e+000 -2.994115e+000 -1.109368e+000
         vertex 3.189511e+000 -3.014254e+000 -1.109368e+000
         vertex 3.184590e+000 -2.998301e+000 -1.109368e+000
      endloop
   endfacet
   facet normal 0.000000e+000 0.000000e+000 -1.000000e+000
      outer loop
         vertex 3.203825e+000 -2.994115e+000 -1.109368e+000
         vertex 3.184590e+000 -2.998301e+000 -1.109368e+000
         vertex 3.202102e+000 -2.980872e+000 -1.109368e+000
      endloop
   endfacet
   facet normal 0.000000e+000 0.000000e+000 -1.000000e+000
      outer loop
         vertex 3.202102e+000 -2.980872e+000 -1.109368e+000
         vertex 3.184590e+000 -2.998301e+000 -1.109368e+000
         vertex 3.182436e+000 -2.981747e+000 -1.109368e+000
      endloop
   endfacet
   facet normal 0.000000e+000 0.000000e+000 -1.000000e+000
      outer loop
         vertex 3.202102e+000 -2.980872e+000 -1.109368e+000
         vertex 3.182436e+000 -2.981747e+000 -1.109368e+000
         vertex 3.183111e+000 -2.965066e+000 -1.109368e+000
      endloop
   endfacet
   facet normal 0.000000e+000 0.000000e+000 1.000000e+000
      outer loop
         vertex 3.273927e+000 -2.898927e+000 2.040238e+000
         vertex 3.272218e+000 -2.879317e+000 2.040238e+000
         vertex 3.260769e+000 -2.901211e+000 2.040238e+000
      endloop
   endfacet
   facet normal 0.000000e+000 0.000000e+000 1.000000e+000
      outer loop
         vertex 3.260769e+000 -2.901211e+000 2.040238e+000
         vertex 3.272218e+000 -2.879317e+000 2.040238e+000
         vertex 3.255770e+000 -2.882171e+000 2.040238e+000
      endloop
   endfacet
   facet normal 0.000000e+000 0.000000e+000 1.000000e+000
      outer loop
         vertex 3.260769e+000 -2.901211e+000 2.040238e+000
         vertex 3.255770e+000 -2.882171e+000 2.040238e+000
         vertex 3.248185e+000 -2.905686e+000 2.040238e+000
      endloop
   endfacet
   facet normal 0.000000e+000 0.000000e+000 1.000000e+000
      outer loop
         vertex 3.248185e+000 -2.905686e+000 2.040238e+000
         vertex 3.255770e+000 -2.882171e+000 2.040238e+000
         vertex 3.240041e+000 -2.887765e+000 2.040238e+000
      endloop
   endfacet
   facet normal 0.000000e+000 0.000000e+000 1.000000e+000
      outer loop
         vertex 3.248185e+000 -2.905686e+000 2.040238e+000
         vertex 3.240041e+000 -2.887765e+000 2.040238e+000
         vertex 3.236539e+000 -2.912223e+000 2.040238e+000
      endloop
   endfacet
   facet normal 0.000000e+000 0.000000e+000 1.000000e+000
      outer loop
         vertex 3.236539e+000 -2.912223e+000 2.040238e+000
         vertex 3.240041e+000 -2.887765e+000 2.040238e+000
         vertex 3.225483e+000 -2.895936e+000 2.040238e+000
      endloop
   endfacet
   facet normal 0.000000e+000 0.000000e+000 1.000000e+000
      outer loop
         vertex 3.236539e+000 -2.912223e+000 2.040238e+000
         vertex 3.225483e+000 -2.895936e+000 2.040238e+000
         vertex 3.226165e+000 -2.920634e+000 2.040238e+000
      endloop
   endfacet
   facet normal 0.000000e+000 0.000000e+000 1.000000e+000
      outer loop
         vertex 3.226165e+000 -2.920634e+000 2.040238e+000
         vertex 3.225483e+000 -2.895936e+000 2.040238e+000
         vertex 3.212516e+000 -2.906450e+000 2.040238e+000
      endloop
   endfacet
   facet normal 0.000000e+000 0.000000e+000 1.000000e+000
      outer loop
         vertex 3.226165e+000 -2.920634e+000 2.040238e+000
         vertex 3.212516e+000 -2.906450e+000 2.040238e+000
         vertex 3.217362e+000 -2.930677e+000 2.040238e+000
      endloop
   endfacet
   facet normal 0.000000e+000 0.000000e+000 1.000000e+000
      outer loop
         vertex 3.217362e+000 -2.930677e+000 2.040238e+000
         vertex 3.212516e+000 -2.906450e+000 2.040238e+000
         vertex 3.201512e+000 -2.919004e+000 2.040238e+000
      endloop
   endfacet
   facet normal 0.000000e+000 0.000000e+000 1.000000e+000
      outer loop
         vertex 3.217362e+000 -2.930677e+000 2.040238e+000
         vertex 3.201512e+000 -2.919004e+000 2.040238e+000
         vertex 3.210383e+000 -2.942064e+000 2.040238e+000
      endloop
   endfacet
   facet normal 0.000000e+000 0.000000e+000 1.000000e+000
      outer loop
         vertex 3.210383e+000 -2.942064e+000 2.040238e+000
         vertex 3.201512e+000 -2.919004e+000 2.040238e+000
         vertex 3.192788e+000 -2.933237e+000 2.040238e+000
      endloop
   endfacet
   facet normal 0.000000e+000 0.000000e+000 1.000000e+000
      outer loop
         vertex 3.210383e+000 -2.942064e+000 2.040238e+000
         vertex 3.192788e+000 -2.933237e+000 2.040238e+000
         vertex 3.205429e+000 -2.954466e+000 2.040238e+000
      endloop
   endfacet
   facet normal 0.000000e+000 0.000000e+000 1.000000e+000
      outer loop
         vertex 3.205429e+000 -2.954466e+000 2.040238e+000
         vertex 3.192788e+000 -2.933237e+000 2.040238e+000
         vertex 3.186595e+000 -2.948740e+000 2.040238e+000
      endloop
   endfacet
   facet normal 0.000000e+000 0.000000e+000 1.000000e+000
      outer loop
         vertex 3.205429e+000 -2.954466e+000 2.040238e+000
         vertex 3.186595e+000 -2.948740e+000 2.040238e+000
         vertex 3.202641e+000 -2.967527e+000 2.040238e+000
      endloop
   endfacet
   facet normal 0.000000e+000 0.000000e+000 1.000000e+000
      outer loop
         vertex 3.202641e+000 -2.967527e+000 2.040238e+000
         vertex 3.186595e+000 -2.948740e+000 2.040238e+000
         vertex 3.183111e+000 -2.965066e+000 2.040238e+000
      endloop
   endfacet
   facet normal 0.000000e+000 0.000000e+000 1.000000e+000
      outer loop
         vertex 3.202641e+000 -2.967527e+000 2.040238e+000
         vertex 3.183111e+000 -2.965066e+000 2.040238e+000
         vertex 3.202102e+000 -2.980872e+000 2.040238e+000
      endloop
   endfacet
   facet normal 0.000000e+000 0.000000e+000 1.000000e+000
      outer loop
         vertex 3.202102e+000 -2.980872e+000 2.040238e+000
         vertex 3.183111e+000 -2.965066e+000 2.040238e+000
         vertex 3.182436e+000 -2.981747e+000 2.040238e+000
      endloop
   endfacet
   facet normal 0.000000e+000 0.000000e+000 1.000000e+000
      outer loop
         vertex 3.202102e+000 -2.980872e+000 2.040238e+000
         vertex 3.182436e+000 -2.981747e+000 2.040238e+000
         vertex 3.203825e+000 -2.994115e+000 2.040238e+000
      endloop
   endfacet
   facet normal 0.000000e+000 0.000000e+000 1.000000e+000
      outer loop
         vertex 3.203825e+000 -2.994115e+000 2.040238e+000
         vertex 3.182436e+000 -2.981747e+000 2.040238e+000
         vertex 3.184590e+000 -2.998301e+000 2.040238e+000
      endloop
   endfacet
   facet normal 0.000000e+000 0.000000e+000 1.000000e+000
      outer loop
         vertex 3.203825e+000 -2.994115e+000 2.040238e+000
         vertex 3.184590e+000 -2.998301e+000 2.040238e+000
         vertex 3.207762e+000 -3.006877e+000 2.040238e+000
      endloop
   endfacet
   facet normal 0.000000e+000 0.000000e+000 1.000000e+000
      outer loop
         vertex 3.207762e+000 -3.006877e+000 2.040238e+000
         vertex 3.184590e+000 -2.998301e+000 2.040238e+000
         vertex 3.189511e+000 -3.014254e+000 2.040238e+000
      endloop
   endfacet
   facet normal 0.000000e+000 0.000000e+000 1.000000e+000
      outer loop
         vertex 3.207762e+000 -3.006877e+000 2.040238e+000
         vertex 3.189511e+000 -3.014254e+000 2.040238e+000
         vertex 3.210527e+000 -3.012962e+000 2.040238e+000
      endloop
   endfacet
   facet normal 0.000000e+000 0.000000e+000 1.000000e+000
      outer loop
         vertex 3.210527e+000 -3.012962e+000 2.040238e+000
         vertex 3.189511e+000 -3.014254e+000 2.040238e+000
         vertex 3.192967e+000 -3.021860e+000 2.040238e+000
      endloop
   endfacet
   facet normal 0.000000e+000 0.000000e+000 1.000000e+000
      outer loop
         vertex 3.210527e+000 -3.012962e+000 2.040238e+000
         vertex 3.192967e+000 -3.021860e+000 2.040238e+000
         vertex 3.213798e+000 -3.018790e+000 2.040238e+000
      endloop
   endfacet
   facet normal 0.000000e+000 0.000000e+000 1.000000e+000
      outer loop
         vertex 3.213798e+000 -3.018790e+000 2.040238e+000
         vertex 3.192967e+000 -3.021860e+000 2.040238e+000
         vertex 3.197057e+000 -3.029145e+000 2.040238e+000
      endloop
   endfacet
   facet normal 0.000000e+000 0.000000e+000 1.000000e+000
      outer loop
         vertex 3.213798e+000 -3.018790e+000 2.040238e+000
         vertex 3.197057e+000 -3.029145e+000 2.040238e+000
         vertex 3.221762e+000 -3.029512e+000 2.040238e+000
      endloop
   endfacet
   facet normal 0.000000e+000 0.000000e+000 1.000000e+000
      outer loop
         vertex 3.221762e+000 -3.029512e+000 2.040238e+000
         vertex 3.197057e+000 -3.029145e+000 2.040238e+000
         vertex 3.207011e+000 -3.042547e+000 2.040238e+000
      endloop
   endfacet
   facet normal 0.000000e+000 0.000000e+000 1.000000e+000
      outer loop
         vertex 3.221762e+000 -3.029512e+000 2.040238e+000
         vertex 3.207011e+000 -3.042547e+000 2.040238e+000
         vertex 3.231422e+000 -3.038733e+000 2.040238e+000
      endloop
   endfacet
   facet normal 0.000000e+000 0.000000e+000 1.000000e+000
      outer loop
         vertex 3.231422e+000 -3.038733e+000 2.040238e+000
         vertex 3.207011e+000 -3.042547e+000 2.040238e+000
         vertex 3.219087e+000 -3.054074e+000 2.040238e+000
      endloop
   endfacet
   facet normal 0.000000e+000 0.000000e+000 1.000000e+000
      outer loop
         vertex 3.231422e+000 -3.038733e+000 2.040238e+000
         vertex 3.219087e+000 -3.054074e+000 2.040238e+000
         vertex 3.242502e+000 -3.046189e+000 2.040238e+000
      endloop
   endfacet
   facet normal 0.000000e+000 0.000000e+000 1.000000e+000
      outer loop
         vertex 3.242502e+000 -3.046189e+000 2.040238e+000
         vertex 3.219087e+000 -3.054074e+000 2.040238e+000
         vertex 3.232937e+000 -3.063394e+000 2.040238e+000
      endloop
   endfacet
   facet normal 0.000000e+000 0.000000e+000 1.000000e+000
      outer loop
         vertex 3.242502e+000 -3.046189e+000 2.040238e+000
         vertex 3.232937e+000 -3.063394e+000 2.040238e+000
         vertex 3.254683e+000 -3.051666e+000 2.040238e+000
      endloop
   endfacet
   facet normal 0.000000e+000 0.000000e+000 1.000000e+000
      outer loop
         vertex 3.254683e+000 -3.051666e+000 2.040238e+000
         vertex 3.232937e+000 -3.063394e+000 2.040238e+000
         vertex 3.248163e+000 -3.070239e+000 2.040238e+000
      endloop
   endfacet
   facet normal 0.000000e+000 0.000000e+000 1.000000e+000
      outer loop
         vertex 3.254683e+000 -3.051666e+000 2.040238e+000
         vertex 3.248163e+000 -3.070239e+000 2.040238e+000
         vertex 3.267614e+000 -3.055005e+000 2.040238e+000
      endloop
   endfacet
   facet normal 0.000000e+000 0.000000e+000 1.000000e+000
      outer loop
         vertex 3.267614e+000 -3.055005e+000 2.040238e+000
         vertex 3.248163e+000 -3.070239e+000 2.040238e+000
         vertex 3.264327e+000 -3.074413e+000 2.040238e+000
      endloop
   endfacet
   facet normal 0.000000e+000 0.000000e+000 1.000000e+000
      outer loop
         vertex 3.267614e+000 -3.055005e+000 2.040238e+000
         vertex 3.264327e+000 -3.074413e+000 2.040238e+000
         vertex 3.280924e+000 -3.056110e+000 2.040238e+000
      endloop
   endfacet
   facet normal 0.000000e+000 0.000000e+000 1.000000e+000
      outer loop
         vertex 3.280924e+000 -3.056110e+000 2.040238e+000
         vertex 3.264327e+000 -3.074413e+000 2.040238e+000
         vertex 3.280963e+000 -3.075795e+000 2.040238e+000
      endloop
   endfacet
   facet normal 0.000000e+000 0.000000e+000 1.000000e+000
      outer loop
         vertex 3.280924e+000 -3.056110e+000 2.040238e+000
         vertex 3.280963e+000 -3.075795e+000 2.040238e+000
         vertex 3.294229e+000 -3.054951e+000 2.040238e+000
      endloop
   endfacet
   facet normal 0.000000e+000 0.000000e+000 1.000000e+000
      outer loop
         vertex 3.294229e+000 -3.054951e+000 2.040238e+000
         vertex 3.280963e+000 -3.075795e+000 2.040238e+000
         vertex 3.297595e+000 -3.074346e+000 2.040238e+000
      endloop
   endfacet
   facet normal 0.000000e+000 0.000000e+000 1.000000e+000
      outer loop
         vertex 3.294229e+000 -3.054951e+000 2.040238e+000
         vertex 3.297595e+000 -3.074346e+000 2.040238e+000
         vertex 3.307146e+000 -3.051559e+000 2.040238e+000
      endloop
   endfacet
   facet normal 0.000000e+000 0.000000e+000 1.000000e+000
      outer loop
         vertex 3.307146e+000 -3.051559e+000 2.040238e+000
         vertex 3.297595e+000 -3.074346e+000 2.040238e+000
         vertex 3.313741e+000 -3.070107e+000 2.040238e+000
      endloop
   endfacet
   facet normal 0.000000e+000 0.000000e+000 1.000000e+000
      outer loop
         vertex 3.307146e+000 -3.051559e+000 2.040238e+000
         vertex 3.313741e+000 -3.070107e+000 2.040238e+000
         vertex 3.319304e+000 -3.046034e+000 2.040238e+000
      endloop
   endfacet
   facet normal 0.000000e+000 0.000000e+000 1.000000e+000
      outer loop
         vertex 3.319304e+000 -3.046034e+000 2.040238e+000
         vertex 3.313741e+000 -3.070107e+000 2.040238e+000
         vertex 3.328940e+000 -3.063200e+000 2.040238e+000
      endloop
   endfacet
   facet normal 0.000000e+000 0.000000e+000 1.000000e+000
      outer loop
         vertex 3.319304e+000 -3.046034e+000 2.040238e+000
         vertex 3.328940e+000 -3.063200e+000 2.040238e+000
         vertex 3.330354e+000 -3.038532e+000 2.040238e+000
      endloop
   endfacet
   facet normal 0.000000e+000 0.000000e+000 1.000000e+000
      outer loop
         vertex 3.330354e+000 -3.038532e+000 2.040238e+000
         vertex 3.328940e+000 -3.063200e+000 2.040238e+000
         vertex 3.342752e+000 -3.053823e+000 2.040238e+000
      endloop
   endfacet
   facet normal 0.000000e+000 0.000000e+000 1.000000e+000
      outer loop
         vertex 3.330354e+000 -3.038532e+000 2.040238e+000
         vertex 3.342752e+000 -3.053823e+000 2.040238e+000
         vertex 3.339978e+000 -3.029272e+000 2.040238e+000
      endloop
   endfacet
   facet normal 0.000000e+000 0.000000e+000 1.000000e+000
      outer loop
         vertex 3.339978e+000 -3.029272e+000 2.040238e+000
         vertex 3.342752e+000 -3.053823e+000 2.040238e+000
         vertex 3.354781e+000 -3.042248e+000 2.040238e+000
      endloop
   endfacet
   facet normal 0.000000e+000 0.000000e+000 1.000000e+000
      outer loop
         vertex 3.339978e+000 -3.029272e+000 2.040238e+000
         vertex 3.354781e+000 -3.042248e+000 2.040238e+000
         vertex 3.347897e+000 -3.018518e+000 2.040238e+000
      endloop
   endfacet
   facet normal 0.000000e+000 0.000000e+000 1.000000e+000
      outer loop
         vertex 3.347897e+000 -3.018518e+000 2.040238e+000
         vertex 3.354781e+000 -3.042248e+000 2.040238e+000
         vertex 3.364680e+000 -3.028805e+000 2.040238e+000
      endloop
   endfacet
   facet normal 0.000000e+000 0.000000e+000 1.000000e+000
      outer loop
         vertex 3.347897e+000 -3.018518e+000 2.040238e+000
         vertex 3.364680e+000 -3.028805e+000 2.040238e+000
         vertex 3.353885e+000 -3.006581e+000 2.040238e+000
      endloop
   endfacet
   facet normal 0.000000e+000 0.000000e+000 1.000000e+000
      outer loop
         vertex 3.353885e+000 -3.006581e+000 2.040238e+000
         vertex 3.364680e+000 -3.028805e+000 2.040238e+000
         vertex 3.372166e+000 -3.013883e+000 2.040238e+000
      endloop
   endfacet
   facet normal 0.000000e+000 0.000000e+000 1.000000e+000
      outer loop
         vertex 3.353885e+000 -3.006581e+000 2.040238e+000
         vertex 3.372166e+000 -3.013883e+000 2.040238e+000
         vertex 3.357770e+000 -2.993803e+000 2.040238e+000
      endloop
   endfacet
   facet normal 0.000000e+000 0.000000e+000 1.000000e+000
      outer loop
         vertex 3.357770e+000 -2.993803e+000 2.040238e+000
         vertex 3.372166e+000 -3.013883e+000 2.040238e+000
         vertex 3.377022e+000 -2.997911e+000 2.040238e+000
      endloop
   endfacet
   facet normal 0.000000e+000 0.000000e+000 1.000000e+000
      outer loop
         vertex 3.357770e+000 -2.993803e+000 2.040238e+000
         vertex 3.377022e+000 -2.997911e+000 2.040238e+000
         vertex 3.359440e+000 -2.980553e+000 2.040238e+000
      endloop
   endfacet
   facet normal 0.000000e+000 0.000000e+000 1.000000e+000
      outer loop
         vertex 3.359440e+000 -2.980553e+000 2.040238e+000
         vertex 3.377022e+000 -2.997911e+000 2.040238e+000
         vertex 3.379109e+000 -2.981348e+000 2.040238e+000
      endloop
   endfacet
   facet normal 0.000000e+000 0.000000e+000 1.000000e+000
      outer loop
         vertex 3.359440e+000 -2.980553e+000 2.040238e+000
         vertex 3.379109e+000 -2.981348e+000 2.040238e+000
         vertex 3.358846e+000 -2.967211e+000 2.040238e+000
      endloop
   endfacet
   facet normal 0.000000e+000 0.000000e+000 1.000000e+000
      outer loop
         vertex 3.358846e+000 -2.967211e+000 2.040238e+000
         vertex 3.379109e+000 -2.981348e+000 2.040238e+000
         vertex 3.378366e+000 -2.964670e+000 2.040238e+000
      endloop
   endfacet
   facet normal 0.000000e+000 0.000000e+000 1.000000e+000
      outer loop
         vertex 3.358846e+000 -2.967211e+000 2.040238e+000
         vertex 3.378366e+000 -2.964670e+000 2.040238e+000
         vertex 3.356006e+000 -2.954161e+000 2.040238e+000
      endloop
   endfacet
   facet normal 0.000000e+000 0.000000e+000 1.000000e+000
      outer loop
         vertex 3.356006e+000 -2.954161e+000 2.040238e+000
         vertex 3.378366e+000 -2.964670e+000 2.040238e+000
         vertex 3.374816e+000 -2.948359e+000 2.040238e+000
      endloop
   endfacet
   facet normal 0.000000e+000 0.000000e+000 1.000000e+000
      outer loop
         vertex 3.356006e+000 -2.954161e+000 2.040238e+000
         vertex 3.374816e+000 -2.948359e+000 2.040238e+000
         vertex 3.351001e+000 -2.941779e+000 2.040238e+000
      endloop
   endfacet
   facet normal 0.000000e+000 0.000000e+000 1.000000e+000
      outer loop
         vertex 3.351001e+000 -2.941779e+000 2.040238e+000
         vertex 3.374816e+000 -2.948359e+000 2.040238e+000
         vertex 3.368560e+000 -2.932881e+000 2.040238e+000
      endloop
   endfacet
   facet normal 0.000000e+000 0.000000e+000 1.000000e+000
      outer loop
         vertex 3.351001e+000 -2.941779e+000 2.040238e+000
         vertex 3.368560e+000 -2.932881e+000 2.040238e+000
         vertex 3.343976e+000 -2.930420e+000 2.040238e+000
      endloop
   endfacet
   facet normal 0.000000e+000 0.000000e+000 1.000000e+000
      outer loop
         vertex 3.343976e+000 -2.930420e+000 2.040238e+000
         vertex 3.368560e+000 -2.932881e+000 2.040238e+000
         vertex 3.359779e+000 -2.918683e+000 2.040238e+000
      endloop
   endfacet
   facet normal 0.000000e+000 0.000000e+000 1.000000e+000
      outer loop
         vertex 3.343976e+000 -2.930420e+000 2.040238e+000
         vertex 3.359779e+000 -2.918683e+000 2.040238e+000
         vertex 3.335132e+000 -2.920413e+000 2.040238e+000
      endloop
   endfacet
   facet normal 0.000000e+000 0.000000e+000 1.000000e+000
      outer loop
         vertex 3.335132e+000 -2.920413e+000 2.040238e+000
         vertex 3.359779e+000 -2.918683e+000 2.040238e+000
         vertex 3.348724e+000 -2.906174e+000 2.040238e+000
      endloop
   endfacet
   facet normal 0.000000e+000 0.000000e+000 1.000000e+000
      outer loop
         vertex 3.335132e+000 -2.920413e+000 2.040238e+000
         vertex 3.348724e+000 -2.906174e+000 2.040238e+000
         vertex 3.324724e+000 -2.912044e+000 2.040238e+000
      endloop
   endfacet
   facet normal 0.000000e+000 0.000000e+000 1.000000e+000
      outer loop
         vertex 3.324724e+000 -2.912044e+000 2.040238e+000
         vertex 3.348724e+000 -2.906174e+000 2.040238e+000
         vertex 3.335714e+000 -2.895712e+000 2.040238e+000
      endloop
   endfacet
   facet normal 0.000000e+000 0.000000e+000 1.000000e+000
      outer loop
         vertex 3.324724e+000 -2.912044e+000 2.040238e+000
         vertex 3.335714e+000 -2.895712e+000 2.040238e+000
         vertex 3.313051e+000 -2.905554e+000 2.040238e+000
      endloop
   endfacet
   facet normal 0.000000e+000 0.000000e+000 1.000000e+000
      outer loop
         vertex 3.313051e+000 -2.905554e+000 2.040238e+000
         vertex 3.335714e+000 -2.895712e+000 2.040238e+000
         vertex 3.321123e+000 -2.887600e+000 2.040238e+000
      endloop
   endfacet
   facet normal 0.000000e+000 0.000000e+000 1.000000e+000
      outer loop
         vertex 3.313051e+000 -2.905554e+000 2.040238e+000
         vertex 3.321123e+000 -2.887600e+000 2.040238e+000
         vertex 3.300450e+000 -2.901131e+000 2.040238e+000
      endloop
   endfacet
   facet normal 0.000000e+000 0.000000e+000 1.000000e+000
      outer loop
         vertex 3.300450e+000 -2.901131e+000 2.040238e+000
         vertex 3.321123e+000 -2.887600e+000 2.040238e+000
         vertex 3.305372e+000 -2.882071e+000 2.040238e+000
      endloop
   endfacet
   facet normal 0.000000e+000 0.000000e+000 1.000000e+000
      outer loop
         vertex 3.300450e+000 -2.901131e+000 2.040238e+000
         vertex 3.305372e+000 -2.882071e+000 2.040238e+000
         vertex 3.287282e+000 -2.898900e+000 2.040238e+000
      endloop
   endfacet
   facet normal 0.000000e+000 0.000000e+000 1.000000e+000
      outer loop
         vertex 3.287282e+000 -2.898900e+000 2.040238e+000
         vertex 3.305372e+000 -2.882071e+000 2.040238e+000
         vertex 3.288912e+000 -2.879283e+000 2.040238e+000
      endloop
   endfacet
   facet normal 0.000000e+000 0.000000e+000 1.000000e+000
      outer loop
         vertex 3.287282e+000 -2.898900e+000 2.040238e+000
         vertex 3.288912e+000 -2.879283e+000 2.040238e+000
         vertex 3.273927e+000 -2.898927e+000 2.040238e+000
      endloop
   endfacet
   facet normal 0.000000e+000 0.000000e+000 1.000000e+000
      outer loop
         vertex 3.273927e+000 -2.898927e+000 2.040238e+000
         vertex 3.288912e+000 -2.879283e+000 2.040238e+000
         vertex 3.272218e+000 -2.879317e+000 2.040238e+000
      endloop
   endfacet
   facet normal -9.044421e-001 -4.265963e-001 0.000000e+000
      outer loop
         vertex 3.189511e+000 -3.014254e+000 -1.109368e+000
         vertex 3.192967e+000 -3.021860e+000 -1.109368e+000
         vertex 3.192967e+000 -3.021860e+000 2.040238e+000
      endloop
   endfacet
   facet normal -8.788660e-001 -4.770687e-001 0.000000e+000
      outer loop
         vertex 3.192967e+000 -3.021860e+000 2.040238e+000
         vertex 3.192967e+000 -3.021860e+000 -1.109368e+000
         vertex 3.197057e+000 -3.029145e+000 2.040238e+000
      endloop
   endfacet
   facet normal -9.161581e-001 -4.008170e-001 0.000000e+000
      outer loop
         vertex 3.192967e+000 -3.021860e+000 2.040238e+000
         vertex 3.189511e+000 -3.014254e+000 2.040238e+000
         vertex 3.189511e+000 -3.014254e+000 -1.109368e+000
      endloop
   endfacet
   facet normal -9.468274e-001 -3.217420e-001 0.000000e+000
      outer loop
         vertex 3.189511e+000 -3.014254e+000 -1.109368e+000
         vertex 3.189511e+000 -3.014254e+000 2.040238e+000
         vertex 3.184590e+000 -2.998301e+000 2.040238e+000
      endloop
   endfacet
   facet normal -9.635459e-001 -2.675430e-001 0.000000e+000
      outer loop
         vertex 3.189511e+000 -3.014254e+000 -1.109368e+000
         vertex 3.184590e+000 -2.998301e+000 2.040238e+000
         vertex 3.184590e+000 -2.998301e+000 -1.109368e+000
      endloop
   endfacet
   facet normal -9.875828e-001 -1.570994e-001 0.000000e+000
      outer loop
         vertex 3.184590e+000 -2.998301e+000 -1.109368e+000
         vertex 3.184590e+000 -2.998301e+000 2.040238e+000
         vertex 3.182436e+000 -2.981747e+000 2.040238e+000
      endloop
   endfacet
   facet normal -9.949012e-001 -1.008546e-001 0.000000e+000
      outer loop
         vertex 3.184590e+000 -2.998301e+000 -1.109368e+000
         vertex 3.182436e+000 -2.981747e+000 2.040238e+000
         vertex 3.182436e+000 -2.981747e+000 -1.109368e+000
      endloop
   endfacet
   facet normal -9.999272e-001 1.206269e-002 0.000000e+000
      outer loop
         vertex 3.182436e+000 -2.981747e+000 -1.109368e+000
         vertex 3.182436e+000 -2.981747e+000 2.040238e+000
         vertex 3.183111e+000 -2.965066e+000 2.040238e+000
      endloop
   endfacet
   facet normal -9.976349e-001 6.873523e-002 0.000000e+000
      outer loop
         vertex 3.182436e+000 -2.981747e+000 -1.109368e+000
         vertex 3.183111e+000 -2.965066e+000 2.040238e+000
         vertex 3.183111e+000 -2.965066e+000 -1.109368e+000
      endloop
   endfacet
   facet normal -9.835055e-001 1.808777e-001 0.000000e+000
      outer loop
         vertex 3.183111e+000 -2.965066e+000 -1.109368e+000
         vertex 3.183111e+000 -2.965066e+000 2.040238e+000
         vertex 3.186595e+000 -2.948740e+000 2.040238e+000
      endloop
   endfacet
   facet normal -9.716685e-001 2.363477e-001 0.000000e+000
      outer loop
         vertex 3.183111e+000 -2.965066e+000 -1.109368e+000
         vertex 3.186595e+000 -2.948740e+000 2.040238e+000
         vertex 3.186595e+000 -2.948740e+000 -1.109368e+000
      endloop
   endfacet
   facet normal -9.387903e-001 3.444892e-001 0.000000e+000
      outer loop
         vertex 3.186595e+000 -2.948740e+000 -1.109368e+000
         vertex 3.186595e+000 -2.948740e+000 2.040238e+000
         vertex 3.192788e+000 -2.933237e+000 2.040238e+000
      endloop
   endfacet
   facet normal -9.177490e-001 3.971608e-001 0.000000e+000
      outer loop
         vertex 3.186595e+000 -2.948740e+000 -1.109368e+000
         vertex 3.192788e+000 -2.933237e+000 2.040238e+000
         vertex 3.192788e+000 -2.933237e+000 -1.109368e+000
      endloop
   endfacet
   facet normal -8.670677e-001 4.981904e-001 0.000000e+000
      outer loop
         vertex 3.192788e+000 -2.933237e+000 -1.109368e+000
         vertex 3.192788e+000 -2.933237e+000 2.040238e+000
         vertex 3.201512e+000 -2.919004e+000 2.040238e+000
      endloop
   endfacet
   facet normal -8.374276e-001 5.465484e-001 0.000000e+000
      outer loop
         vertex 3.192788e+000 -2.933237e+000 -1.109368e+000
         vertex 3.201512e+000 -2.919004e+000 2.040238e+000
         vertex 3.201512e+000 -2.919004e+000 -1.109368e+000
      endloop
   endfacet
   facet normal -7.704011e-001 6.375595e-001 0.000000e+000
      outer loop
         vertex 3.201512e+000 -2.919004e+000 -1.109368e+000
         vertex 3.201512e+000 -2.919004e+000 2.040238e+000
         vertex 3.212516e+000 -2.906450e+000 2.040238e+000
      endloop
   endfacet
   facet normal -7.330148e-001 6.802127e-001 0.000000e+000
      outer loop
         vertex 3.201512e+000 -2.919004e+000 -1.109368e+000
         vertex 3.212516e+000 -2.906450e+000 2.040238e+000
         vertex 3.212516e+000 -2.906450e+000 -1.109368e+000
      endloop
   endfacet
   facet normal -6.515715e-001 7.585872e-001 0.000000e+000
      outer loop
         vertex 3.212516e+000 -2.906450e+000 -1.109368e+000
         vertex 3.212516e+000 -2.906450e+000 2.040238e+000
         vertex 3.225483e+000 -2.895936e+000 2.040238e+000
      endloop
   endfacet
   facet normal -6.075145e-001 7.943085e-001 0.000000e+000
      outer loop
         vertex 3.212516e+000 -2.906450e+000 -1.109368e+000
         vertex 3.225483e+000 -2.895936e+000 2.040238e+000
         vertex 3.225483e+000 -2.895936e+000 -1.109368e+000
      endloop
   endfacet
   facet normal -5.139974e-001 8.577918e-001 0.000000e+000
      outer loop
         vertex 3.225483e+000 -2.895936e+000 -1.109368e+000
         vertex 3.225483e+000 -2.895936e+000 2.040238e+000
         vertex 3.240041e+000 -2.887765e+000 2.040238e+000
      endloop
   endfacet
   facet normal -4.645372e-001 8.855536e-001 0.000000e+000
      outer loop
         vertex 3.225483e+000 -2.895936e+000 -1.109368e+000
         vertex 3.240041e+000 -2.887765e+000 2.040238e+000
         vertex 3.240041e+000 -2.887765e+000 -1.109368e+000
      endloop
   endfacet
   facet normal -3.616365e-001 9.323192e-001 0.000000e+000
      outer loop
         vertex 3.240041e+000 -2.887765e+000 -1.109368e+000
         vertex 3.240041e+000 -2.887765e+000 2.040238e+000
         vertex 3.255770e+000 -2.882171e+000 2.040238e+000
      endloop
   endfacet
   facet normal -3.081959e-001 9.513229e-001 0.000000e+000
      outer loop
         vertex 3.240041e+000 -2.887765e+000 -1.109368e+000
         vertex 3.255770e+000 -2.882171e+000 2.040238e+000
         vertex 3.255770e+000 -2.882171e+000 -1.109368e+000
      endloop
   endfacet
   facet normal -1.988720e-001 9.800255e-001 0.000000e+000
      outer loop
         vertex 3.255770e+000 -2.882171e+000 -1.109368e+000
         vertex 3.255770e+000 -2.882171e+000 2.040238e+000
         vertex 3.272218e+000 -2.879317e+000 2.040238e+000
      endloop
   endfacet
   facet normal -1.429885e-001 9.897243e-001 0.000000e+000
      outer loop
         vertex 3.255770e+000 -2.882171e+000 -1.109368e+000
         vertex 3.272218e+000 -2.879317e+000 2.040238e+000
         vertex 3.272218e+000 -2.879317e+000 -1.109368e+000
      endloop
   endfacet
   facet normal -3.038629e-002 9.995382e-001 0.000000e+000
      outer loop
         vertex 3.272218e+000 -2.879317e+000 -1.109368e+000
         vertex 3.272218e+000 -2.879317e+000 2.040238e+000
         vertex 3.288912e+000 -2.879283e+000 2.040238e+000
      endloop
   endfacet
   facet normal 2.633246e-002 9.996532e-001 0.000000e+000
      outer loop
         vertex 3.272218e+000 -2.879317e+000 -1.109368e+000
         vertex 3.288912e+000 -2.879283e+000 2.040238e+000
         vertex 3.288912e+000 -2.879283e+000 -1.109368e+000
      endloop
   endfacet
   facet normal 1.389736e-001 9.902961e-001 0.000000e+000
      outer loop
         vertex 3.288912e+000 -2.879283e+000 -1.109368e+000
         vertex 3.288912e+000 -2.879283e+000 2.040238e+000
         vertex 3.305372e+000 -2.882071e+000 2.040238e+000
      endloop
   endfacet
   facet normal 1.948959e-001 9.808239e-001 0.000000e+000
      outer loop
         vertex 3.288912e+000 -2.879283e+000 -1.109368e+000
         vertex 3.305372e+000 -2.882071e+000 2.040238e+000
         vertex 3.305372e+000 -2.882071e+000 -1.109368e+000
      endloop
   endfacet
   facet normal 3.043354e-001 9.525650e-001 0.000000e+000
      outer loop
         vertex 3.305372e+000 -2.882071e+000 -1.109368e+000
         vertex 3.305372e+000 -2.882071e+000 2.040238e+000
         vertex 3.321123e+000 -2.887600e+000 2.040238e+000
      endloop
   endfacet
   facet normal 3.578525e-001 9.337781e-001 0.000000e+000
      outer loop
         vertex 3.305372e+000 -2.882071e+000 -1.109368e+000
         vertex 3.321123e+000 -2.887600e+000 2.040238e+000
         vertex 3.321123e+000 -2.887600e+000 -1.109368e+000
      endloop
   endfacet
   facet normal 4.609421e-001 8.874302e-001 0.000000e+000
      outer loop
         vertex 3.321123e+000 -2.887600e+000 -1.109368e+000
         vertex 3.321123e+000 -2.887600e+000 2.040238e+000
         vertex 3.335714e+000 -2.895712e+000 2.040238e+000
      endloop
   endfacet
   facet normal 5.105144e-001 8.598692e-001 0.000000e+000
      outer loop
         vertex 3.321123e+000 -2.887600e+000 -1.109368e+000
         vertex 3.335714e+000 -2.895712e+000 2.040238e+000
         vertex 3.335714e+000 -2.895712e+000 -1.109368e+000
      endloop
   endfacet
   facet normal 6.042882e-001 7.967658e-001 0.000000e+000
      outer loop
         vertex 3.335714e+000 -2.895712e+000 -1.109368e+000
         vertex 3.335714e+000 -2.895712e+000 2.040238e+000
         vertex 3.348724e+000 -2.906174e+000 2.040238e+000
      endloop
   endfacet
   facet normal 6.484897e-001 7.612234e-001 0.000000e+000
      outer loop
         vertex 3.335714e+000 -2.895712e+000 -1.109368e+000
         vertex 3.348724e+000 -2.906174e+000 2.040238e+000
         vertex 3.348724e+000 -2.906174e+000 -1.109368e+000
      endloop
   endfacet
   facet normal 7.302502e-001 6.831798e-001 0.000000e+000
      outer loop
         vertex 3.348724e+000 -2.906174e+000 -1.109368e+000
         vertex 3.348724e+000 -2.906174e+000 2.040238e+000
         vertex 3.359779e+000 -2.918683e+000 2.040238e+000
      endloop
   endfacet
   facet normal 7.678092e-001 6.406785e-001 0.000000e+000
      outer loop
         vertex 3.348724e+000 -2.906174e+000 -1.109368e+000
         vertex 3.359779e+000 -2.918683e+000 2.040238e+000
         vertex 3.359779e+000 -2.918683e+000 -1.109368e+000
      endloop
   endfacet
   facet normal 8.352041e-001 5.499400e-001 0.000000e+000
      outer loop
         vertex 3.359779e+000 -2.918683e+000 -1.109368e+000
         vertex 3.359779e+000 -2.918683e+000 2.040238e+000
         vertex 3.368560e+000 -2.932881e+000 2.040238e+000
      endloop
   endfacet
   facet normal 8.650402e-001 5.017026e-001 0.000000e+000
      outer loop
         vertex 3.359779e+000 -2.918683e+000 -1.109368e+000
         vertex 3.368560e+000 -2.932881e+000 2.040238e+000
         vertex 3.368560e+000 -2.932881e+000 -1.109368e+000
      endloop
   endfacet
   facet normal 9.161308e-001 4.008794e-001 0.000000e+000
      outer loop
         vertex 3.368560e+000 -2.932881e+000 -1.109368e+000
         vertex 3.368560e+000 -2.932881e+000 2.040238e+000
         vertex 3.374816e+000 -2.948359e+000 2.040238e+000
      endloop
   endfacet
   facet normal 9.373855e-001 3.482936e-001 0.000000e+000
      outer loop
         vertex 3.368560e+000 -2.932881e+000 -1.109368e+000
         vertex 3.374816e+000 -2.948359e+000 2.040238e+000
         vertex 3.374816e+000 -2.948359e+000 -1.109368e+000
      endloop
   endfacet
   facet normal 9.707021e-001 2.402863e-001 0.000000e+000
      outer loop
         vertex 3.374816e+000 -2.948359e+000 -1.109368e+000
         vertex 3.374816e+000 -2.948359e+000 2.040238e+000
         vertex 3.378366e+000 -2.964670e+000 2.040238e+000
      endloop
   endfacet
   facet normal 9.827639e-001 1.848648e-001 0.000000e+000
      outer loop
         vertex 3.374816e+000 -2.948359e+000 -1.109368e+000
         vertex 3.378366e+000 -2.964670e+000 2.040238e+000
         vertex 3.378366e+000 -2.964670e+000 -1.109368e+000
      endloop
   endfacet
   facet normal 9.973480e-001 7.278052e-002 0.000000e+000
      outer loop
         vertex 3.378366e+000 -2.964670e+000 -1.109368e+000
         vertex 3.378366e+000 -2.964670e+000 2.040238e+000
         vertex 3.379109e+000 -2.981348e+000 2.040238e+000
      endloop
   endfacet
   facet normal 9.998701e-001 1.611775e-002 0.000000e+000
      outer loop
         vertex 3.378366e+000 -2.964670e+000 -1.109368e+000
         vertex 3.379109e+000 -2.981348e+000 2.040238e+000
         vertex 3.379109e+000 -2.981348e+000 -1.109368e+000
      endloop
   endfacet
   facet normal 9.953020e-001 -9.681899e-002 0.000000e+000
      outer loop
         vertex 3.379109e+000 -2.981348e+000 -1.109368e+000
         vertex 3.379109e+000 -2.981348e+000 2.040238e+000
         vertex 3.377022e+000 -2.997911e+000 2.040238e+000
      endloop
   endfacet
   facet normal 9.882118e-001 -1.530929e-001 0.000000e+000
      outer loop
         vertex 3.379109e+000 -2.981348e+000 -1.109368e+000
         vertex 3.377022e+000 -2.997911e+000 2.040238e+000
         vertex 3.377022e+000 -2.997911e+000 -1.109368e+000
      endloop
   endfacet
   facet normal 9.646230e-001 -2.636332e-001 0.000000e+000
      outer loop
         vertex 3.377022e+000 -2.997911e+000 -1.109368e+000
         vertex 3.377022e+000 -2.997911e+000 2.040238e+000
         vertex 3.372166e+000 -3.013883e+000 2.040238e+000
      endloop
   endfacet
   facet normal 9.481245e-001 -3.178995e-001 0.000000e+000
      outer loop
         vertex 3.377022e+000 -2.997911e+000 -1.109368e+000
         vertex 3.372166e+000 -3.013883e+000 2.040238e+000
         vertex 3.372166e+000 -3.013883e+000 -1.109368e+000
      endloop
   endfacet
   facet normal 9.061935e-001 -4.228632e-001 0.000000e+000
      outer loop
         vertex 3.372166e+000 -3.013883e+000 -1.109368e+000
         vertex 3.372166e+000 -3.013883e+000 2.040238e+000
         vertex 3.364680e+000 -3.028805e+000 2.040238e+000
      endloop
   endfacet
   facet normal 8.807612e-001 -4.735606e-001 0.000000e+000
      outer loop
         vertex 3.372166e+000 -3.013883e+000 -1.109368e+000
         vertex 3.364680e+000 -3.028805e+000 2.040238e+000
         vertex 3.364680e+000 -3.028805e+000 -1.109368e+000
      endloop
   endfacet
   facet normal 8.216946e-001 -5.699281e-001 0.000000e+000
      outer loop
         vertex 3.364680e+000 -3.028805e+000 -1.109368e+000
         vertex 3.364680e+000 -3.028805e+000 2.040238e+000
         vertex 3.354781e+000 -3.042248e+000 2.040238e+000
      endloop
   endfacet
   facet normal 7.880602e-001 -6.155983e-001 0.000000e+000
      outer loop
         vertex 3.364680e+000 -3.028805e+000 -1.109368e+000
         vertex 3.354781e+000 -3.042248e+000 2.040238e+000
         vertex 3.354781e+000 -3.042248e+000 -1.109368e+000
      endloop
   endfacet
   facet normal 7.135569e-001 -7.005973e-001 0.000000e+000
      outer loop
         vertex 3.354781e+000 -3.042248e+000 -1.109368e+000
         vertex 3.354781e+000 -3.042248e+000 2.040238e+000
         vertex 3.342752e+000 -3.053823e+000 2.040238e+000
      endloop
   endfacet
   facet normal 6.726881e-001 -7.399262e-001 0.000000e+000
      outer loop
         vertex 3.354781e+000 -3.042248e+000 -1.109368e+000
         vertex 3.342752e+000 -3.053823e+000 2.040238e+000
         vertex 3.342752e+000 -3.053823e+000 -1.109368e+000
      endloop
   endfacet
   facet normal 5.848916e-001 -8.111115e-001 0.000000e+000
      outer loop
         vertex 3.342752e+000 -3.053823e+000 -1.109368e+000
         vertex 3.342752e+000 -3.053823e+000 2.040238e+000
         vertex 3.328940e+000 -3.063200e+000 2.040238e+000
      endloop
   endfacet
   facet normal 5.379639e-001 -8.429678e-001 0.000000e+000
      outer loop
         vertex 3.342752e+000 -3.053823e+000 -1.109368e+000
         vertex 3.328940e+000 -3.063200e+000 2.040238e+000
         vertex 3.328940e+000 -3.063200e+000 -1.109368e+000
      endloop
   endfacet
   facet normal 4.393999e-001 -8.982916e-001 0.000000e+000
      outer loop
         vertex 3.328940e+000 -3.063200e+000 -1.109368e+000
         vertex 3.328940e+000 -3.063200e+000 2.040238e+000
         vertex 3.313741e+000 -3.070107e+000 2.040238e+000
      endloop
   endfacet
   facet normal 3.877635e-001 -9.217589e-001 0.000000e+000
      outer loop
         vertex 3.328940e+000 -3.063200e+000 -1.109368e+000
         vertex 3.313741e+000 -3.070107e+000 2.040238e+000
         vertex 3.313741e+000 -3.070107e+000 -1.109368e+000
      endloop
   endfacet
   facet normal 2.812675e-001 -9.596294e-001 0.000000e+000
      outer loop
         vertex 3.313741e+000 -3.070107e+000 -1.109368e+000
         vertex 3.313741e+000 -3.070107e+000 2.040238e+000
         vertex 3.297595e+000 -3.074346e+000 2.040238e+000
      endloop
   endfacet
   facet normal 2.264079e-001 -9.740326e-001 0.000000e+000
      outer loop
         vertex 3.313741e+000 -3.070107e+000 -1.109368e+000
         vertex 3.297595e+000 -3.074346e+000 2.040238e+000
         vertex 3.297595e+000 -3.074346e+000 -1.109368e+000
      endloop
   endfacet
   facet normal 1.150436e-001 -9.933604e-001 0.000000e+000
      outer loop
         vertex 3.297595e+000 -3.074346e+000 -1.109368e+000
         vertex 3.297595e+000 -3.074346e+000 2.040238e+000
         vertex 3.280963e+000 -3.075795e+000 2.040238e+000
      endloop
   endfacet
   facet normal 5.853892e-002 -9.982851e-001 0.000000e+000
      outer loop
         vertex 3.297595e+000 -3.074346e+000 -1.109368e+000
         vertex 3.280963e+000 -3.075795e+000 2.040238e+000
         vertex 3.280963e+000 -3.075795e+000 -1.109368e+000
      endloop
   endfacet
   facet normal -5.448994e-002 -9.985143e-001 0.000000e+000
      outer loop
         vertex 3.280963e+000 -3.075795e+000 -1.109368e+000
         vertex 3.280963e+000 -3.075795e+000 2.040238e+000
         vertex 3.264327e+000 -3.074413e+000 2.040238e+000
      endloop
   endfacet
   facet normal -1.110141e-001 -9.938188e-001 0.000000e+000
      outer loop
         vertex 3.280963e+000 -3.075795e+000 -1.109368e+000
         vertex 3.264327e+000 -3.074413e+000 2.040238e+000
         vertex 3.264327e+000 -3.074413e+000 -1.109368e+000
      endloop
   endfacet
   facet normal -2.224559e-001 -9.749427e-001 0.000000e+000
      outer loop
         vertex 3.264327e+000 -3.074413e+000 -1.109368e+000
         vertex 3.264327e+000 -3.074413e+000 2.040238e+000
         vertex 3.248163e+000 -3.070239e+000 2.040238e+000
      endloop
   endfacet
   facet normal -2.773735e-001 -9.607621e-001 0.000000e+000
      outer loop
         vertex 3.264327e+000 -3.074413e+000 -1.109368e+000
         vertex 3.248163e+000 -3.070239e+000 2.040238e+000
         vertex 3.248163e+000 -3.070239e+000 -1.109368e+000
      endloop
   endfacet
   facet normal -3.840222e-001 -9.233238e-001 0.000000e+000
      outer loop
         vertex 3.248163e+000 -3.070239e+000 -1.109368e+000
         vertex 3.248163e+000 -3.070239e+000 2.040238e+000
         vertex 3.232937e+000 -3.063394e+000 2.040238e+000
      endloop
   endfacet
   facet normal -4.357533e-001 -9.000661e-001 0.000000e+000
      outer loop
         vertex 3.248163e+000 -3.070239e+000 -1.109368e+000
         vertex 3.232937e+000 -3.063394e+000 2.040238e+000
         vertex 3.232937e+000 -3.063394e+000 -1.109368e+000
      endloop
   endfacet
   facet normal -5.345408e-001 -8.451426e-001 0.000000e+000
      outer loop
         vertex 3.232937e+000 -3.063394e+000 -1.109368e+000
         vertex 3.232937e+000 -3.063394e+000 2.040238e+000
         vertex 3.219087e+000 -3.054074e+000 2.040238e+000
      endloop
   endfacet
   facet normal -5.815973e-001 -8.134768e-001 0.000000e+000
      outer loop
         vertex 3.232937e+000 -3.063394e+000 -1.109368e+000
         vertex 3.219087e+000 -3.054074e+000 2.040238e+000
         vertex 3.219087e+000 -3.054074e+000 -1.109368e+000
      endloop
   endfacet
   facet normal -6.696817e-001 -7.426482e-001 0.000000e+000
      outer loop
         vertex 3.219087e+000 -3.054074e+000 -1.109368e+000
         vertex 3.219087e+000 -3.054074e+000 2.040238e+000
         vertex 3.207011e+000 -3.042547e+000 2.040238e+000
      endloop
   endfacet
   facet normal -7.107099e-001 -7.034853e-001 0.000000e+000
      outer loop
         vertex 3.219087e+000 -3.054074e+000 -1.109368e+000
         vertex 3.207011e+000 -3.042547e+000 2.040238e+000
         vertex 3.207011e+000 -3.042547e+000 -1.109368e+000
      endloop
   endfacet
   facet normal -7.855572e-001 -6.187891e-001 0.000000e+000
      outer loop
         vertex 3.207011e+000 -3.042547e+000 -1.109368e+000
         vertex 3.207011e+000 -3.042547e+000 2.040238e+000
         vertex 3.197057e+000 -3.029145e+000 2.040238e+000
      endloop
   endfacet
   facet normal -8.193765e-001 -5.732557e-001 0.000000e+000
      outer loop
         vertex 3.207011e+000 -3.042547e+000 -1.109368e+000
         vertex 3.197057e+000 -3.029145e+000 2.040238e+000
         vertex 3.197057e+000 -3.029145e+000 -1.109368e+000
      endloop
   endfacet
   facet normal -8.650060e-001 -5.017616e-001 0.000000e+000
      outer loop
         vertex 3.197057e+000 -3.029145e+000 -1.109368e+000
         vertex 3.197057e+000 -3.029145e+000 2.040238e+000
         vertex 3.192967e+000 -3.021860e+000 -1.109368e+000
      endloop
   endfacet
   facet normal 8.788660e-001 4.770687e-001 0.000000e+000
      outer loop
         vertex 3.213798e+000 -3.018790e+000 -1.109368e+000
         vertex 3.210527e+000 -3.012962e+000 -1.109368e+000
         vertex 3.210527e+000 -3.012962e+000 2.040238e+000
      endloop
   endfacet
   facet normal 9.044421e-001 4.265964e-001 0.000000e+000
      outer loop
         vertex 3.210527e+000 -3.012962e+000 2.040238e+000
         vertex 3.210527e+000 -3.012962e+000 -1.109368e+000
         vertex 3.207762e+000 -3.006877e+000 2.040238e+000
      endloop
   endfacet
   facet normal 8.650060e-001 5.017616e-001 0.000000e+000
      outer loop
         vertex 3.210527e+000 -3.012962e+000 2.040238e+000
         vertex 3.213798e+000 -3.018790e+000 2.040238e+000
         vertex 3.213798e+000 -3.018790e+000 -1.109368e+000
      endloop
   endfacet
   facet normal 8.193765e-001 5.732557e-001 0.000000e+000
      outer loop
         vertex 3.213798e+000 -3.018790e+000 -1.109368e+000
         vertex 3.213798e+000 -3.018790e+000 2.040238e+000
         vertex 3.221762e+000 -3.029512e+000 2.040238e+000
      endloop
   endfacet
   facet normal 7.855572e-001 6.187891e-001 0.000000e+000
      outer loop
         vertex 3.213798e+000 -3.018790e+000 -1.109368e+000
         vertex 3.221762e+000 -3.029512e+000 2.040238e+000
         vertex 3.221762e+000 -3.029512e+000 -1.109368e+000
      endloop
   endfacet
   facet normal 7.107099e-001 7.034853e-001 0.000000e+000
      outer loop
         vertex 3.221762e+000 -3.029512e+000 -1.109368e+000
         vertex 3.221762e+000 -3.029512e+000 2.040238e+000
         vertex 3.231422e+000 -3.038733e+000 2.040238e+000
      endloop
   endfacet
   facet normal 6.696817e-001 7.426482e-001 0.000000e+000
      outer loop
         vertex 3.221762e+000 -3.029512e+000 -1.109368e+000
         vertex 3.231422e+000 -3.038733e+000 2.040238e+000
         vertex 3.231422e+000 -3.038733e+000 -1.109368e+000
      endloop
   endfacet
   facet normal 5.815973e-001 8.134768e-001 0.000000e+000
      outer loop
         vertex 3.231422e+000 -3.038733e+000 -1.109368e+000
         vertex 3.231422e+000 -3.038733e+000 2.040238e+000
         vertex 3.242502e+000 -3.046189e+000 2.040238e+000
      endloop
   endfacet
   facet normal 5.345409e-001 8.451426e-001 0.000000e+000
      outer loop
         vertex 3.231422e+000 -3.038733e+000 -1.109368e+000
         vertex 3.242502e+000 -3.046189e+000 2.040238e+000
         vertex 3.242502e+000 -3.046189e+000 -1.109368e+000
      endloop
   endfacet
   facet normal 4.357533e-001 9.000661e-001 0.000000e+000
      outer loop
         vertex 3.242502e+000 -3.046189e+000 -1.109368e+000
         vertex 3.242502e+000 -3.046189e+000 2.040238e+000
         vertex 3.254683e+000 -3.051666e+000 2.040238e+000
      endloop
   endfacet
   facet normal 3.840222e-001 9.233238e-001 0.000000e+000
      outer loop
         vertex 3.242502e+000 -3.046189e+000 -1.109368e+000
         vertex 3.254683e+000 -3.051666e+000 2.040238e+000
         vertex 3.254683e+000 -3.051666e+000 -1.109368e+000
      endloop
   endfacet
   facet normal 2.773735e-001 9.607621e-001 0.000000e+000
      outer loop
         vertex 3.254683e+000 -3.051666e+000 -1.109368e+000
         vertex 3.254683e+000 -3.051666e+000 2.040238e+000
         vertex 3.267614e+000 -3.055005e+000 2.040238e+000
      endloop
   endfacet
   facet normal 2.224559e-001 9.749427e-001 0.000000e+000
      outer loop
         vertex 3.254683e+000 -3.051666e+000 -1.109368e+000
         vertex 3.267614e+000 -3.055005e+000 2.040238e+000
         vertex 3.267614e+000 -3.055005e+000 -1.109368e+000
      endloop
   endfacet
   facet normal 1.110141e-001 9.938188e-001 0.000000e+000
      outer loop
         vertex 3.267614e+000 -3.055005e+000 -1.109368e+000
         vertex 3.267614e+000 -3.055005e+000 2.040238e+000
         vertex 3.280924e+000 -3.056110e+000 2.040238e+000
      endloop
   endfacet
   facet normal 5.448993e-002 9.985143e-001 0.000000e+000
      outer loop
         vertex 3.267614e+000 -3.055005e+000 -1.109368e+000
         vertex 3.280924e+000 -3.056110e+000 2.040238e+000
         vertex 3.280924e+000 -3.056110e+000 -1.109368e+000
      endloop
   endfacet
   facet normal -5.853891e-002 9.982851e-001 0.000000e+000
      outer loop
         vertex 3.280924e+000 -3.056110e+000 -1.109368e+000
         vertex 3.280924e+000 -3.056110e+000 2.040238e+000
         vertex 3.294229e+000 -3.054951e+000 2.040238e+000
      endloop
   endfacet
   facet normal -1.150436e-001 9.933604e-001 0.000000e+000
      outer loop
         vertex 3.280924e+000 -3.056110e+000 -1.109368e+000
         vertex 3.294229e+000 -3.054951e+000 2.040238e+000
         vertex 3.294229e+000 -3.054951e+000 -1.109368e+000
      endloop
   endfacet
   facet normal -2.264079e-001 9.740326e-001 0.000000e+000
      outer loop
         vertex 3.294229e+000 -3.054951e+000 -1.109368e+000
         vertex 3.294229e+000 -3.054951e+000 2.040238e+000
         vertex 3.307146e+000 -3.051559e+000 2.040238e+000
      endloop
   endfacet
   facet normal -2.812675e-001 9.596294e-001 0.000000e+000
      outer loop
         vertex 3.294229e+000 -3.054951e+000 -1.109368e+000
         vertex 3.307146e+000 -3.051559e+000 2.040238e+000
         vertex 3.307146e+000 -3.051559e+000 -1.109368e+000
      endloop
   endfacet
   facet normal -3.877635e-001 9.217589e-001 0.000000e+000
      outer loop
         vertex 3.307146e+000 -3.051559e+000 -1.109368e+000
         vertex 3.307146e+000 -3.051559e+000 2.040238e+000
         vertex 3.319304e+000 -3.046034e+000 2.040238e+000
      endloop
   endfacet
   facet normal -4.393999e-001 8.982916e-001 0.000000e+000
      outer loop
         vertex 3.307146e+000 -3.051559e+000 -1.109368e+000
         vertex 3.319304e+000 -3.046034e+000 2.040238e+000
         vertex 3.319304e+000 -3.046034e+000 -1.109368e+000
      endloop
   endfacet
   facet normal -5.379639e-001 8.429678e-001 0.000000e+000
      outer loop
         vertex 3.319304e+000 -3.046034e+000 -1.109368e+000
         vertex 3.319304e+000 -3.046034e+000 2.040238e+000
         vertex 3.330354e+000 -3.038532e+000 2.040238e+000
      endloop
   endfacet
   facet normal -5.848916e-001 8.111115e-001 0.000000e+000
      outer loop
         vertex 3.319304e+000 -3.046034e+000 -1.109368e+000
         vertex 3.330354e+000 -3.038532e+000 2.040238e+000
         vertex 3.330354e+000 -3.038532e+000 -1.109368e+000
      endloop
   endfacet
   facet normal -6.726881e-001 7.399262e-001 0.000000e+000
      outer loop
         vertex 3.330354e+000 -3.038532e+000 -1.109368e+000
         vertex 3.330354e+000 -3.038532e+000 2.040238e+000
         vertex 3.339978e+000 -3.029272e+000 2.040238e+000
      endloop
   endfacet
   facet normal -7.135569e-001 7.005973e-001 0.000000e+000
      outer loop
         vertex 3.330354e+000 -3.038532e+000 -1.109368e+000
         vertex 3.339978e+000 -3.029272e+000 2.040238e+000
         vertex 3.339978e+000 -3.029272e+000 -1.109368e+000
      endloop
   endfacet
   facet normal -7.880602e-001 6.155983e-001 0.000000e+000
      outer loop
         vertex 3.339978e+000 -3.029272e+000 -1.109368e+000
         vertex 3.339978e+000 -3.029272e+000 2.040238e+000
         vertex 3.347897e+000 -3.018518e+000 2.040238e+000
      endloop
   endfacet
   facet normal -8.216946e-001 5.699281e-001 0.000000e+000
      outer loop
         vertex 3.339978e+000 -3.029272e+000 -1.109368e+000
         vertex 3.347897e+000 -3.018518e+000 2.040238e+000
         vertex 3.347897e+000 -3.018518e+000 -1.109368e+000
      endloop
   endfacet
   facet normal -8.807612e-001 4.735606e-001 0.000000e+000
      outer loop
         vertex 3.347897e+000 -3.018518e+000 -1.109368e+000
         vertex 3.347897e+000 -3.018518e+000 2.040238e+000
         vertex 3.353885e+000 -3.006581e+000 2.040238e+000
      endloop
   endfacet
   facet normal -9.061936e-001 4.228631e-001 0.000000e+000
      outer loop
         vertex 3.347897e+000 -3.018518e+000 -1.109368e+000
         vertex 3.353885e+000 -3.006581e+000 2.040238e+000
         vertex 3.353885e+000 -3.006581e+000 -1.109368e+000
      endloop
   endfacet
   facet normal -9.481245e-001 3.178995e-001 0.000000e+000
      outer loop
         vertex 3.353885e+000 -3.006581e+000 -1.109368e+000
         vertex 3.353885e+000 -3.006581e+000 2.040238e+000
         vertex 3.357770e+000 -2.993803e+000 2.040238e+000
      endloop
   endfacet
   facet normal -9.646230e-001 2.636332e-001 0.000000e+000
      outer loop
         vertex 3.353885e+000 -3.006581e+000 -1.109368e+000
         vertex 3.357770e+000 -2.993803e+000 2.040238e+000
         vertex 3.357770e+000 -2.993803e+000 -1.109368e+000
      endloop
   endfacet
   facet normal -9.882118e-001 1.530929e-001 0.000000e+000
      outer loop
         vertex 3.357770e+000 -2.993803e+000 -1.109368e+000
         vertex 3.357770e+000 -2.993803e+000 2.040238e+000
         vertex 3.359440e+000 -2.980553e+000 2.040238e+000
      endloop
   endfacet
   facet normal -9.953020e-001 9.681899e-002 0.000000e+000
      outer loop
         vertex 3.357770e+000 -2.993803e+000 -1.109368e+000
         vertex 3.359440e+000 -2.980553e+000 2.040238e+000
         vertex 3.359440e+000 -2.980553e+000 -1.109368e+000
      endloop
   endfacet
   facet normal -9.998701e-001 -1.611775e-002 0.000000e+000
      outer loop
         vertex 3.359440e+000 -2.980553e+000 -1.109368e+000
         vertex 3.359440e+000 -2.980553e+000 2.040238e+000
         vertex 3.358846e+000 -2.967211e+000 2.040238e+000
      endloop
   endfacet
   facet normal -9.973480e-001 -7.278052e-002 0.000000e+000
      outer loop
         vertex 3.359440e+000 -2.980553e+000 -1.109368e+000
         vertex 3.358846e+000 -2.967211e+000 2.040238e+000
         vertex 3.358846e+000 -2.967211e+000 -1.109368e+000
      endloop
   endfacet
   facet normal -9.827639e-001 -1.848648e-001 0.000000e+000
      outer loop
         vertex 3.358846e+000 -2.967211e+000 -1.109368e+000
         vertex 3.358846e+000 -2.967211e+000 2.040238e+000
         vertex 3.356006e+000 -2.954161e+000 2.040238e+000
      endloop
   endfacet
   facet normal -9.707021e-001 -2.402863e-001 0.000000e+000
      outer loop
         vertex 3.358846e+000 -2.967211e+000 -1.109368e+000
         vertex 3.356006e+000 -2.954161e+000 2.040238e+000
         vertex 3.356006e+000 -2.954161e+000 -1.109368e+000
      endloop
   endfacet
   facet normal -9.373855e-001 -3.482936e-001 0.000000e+000
      outer loop
         vertex 3.356006e+000 -2.954161e+000 -1.109368e+000
         vertex 3.356006e+000 -2.954161e+000 2.040238e+000
         vertex 3.351001e+000 -2.941779e+000 2.040238e+000
      endloop
   endfacet
   facet normal -9.161308e-001 -4.008794e-001 0.000000e+000
      outer loop
         vertex 3.356006e+000 -2.954161e+000 -1.109368e+000
         vertex 3.351001e+000 -2.941779e+000 2.040238e+000
         vertex 3.351001e+000 -2.941779e+000 -1.109368e+000
      endloop
   endfacet
   facet normal -8.650402e-001 -5.017026e-001 0.000000e+000
      outer loop
         vertex 3.351001e+000 -2.941779e+000 -1.109368e+000
         vertex 3.351001e+000 -2.941779e+000 2.040238e+000
         vertex 3.343976e+000 -2.930420e+000 2.040238e+000
      endloop
   endfacet
   facet normal -8.352041e-001 -5.499400e-001 0.000000e+000
      outer loop
         vertex 3.351001e+000 -2.941779e+000 -1.109368e+000
         vertex 3.343976e+000 -2.930420e+000 2.040238e+000
         vertex 3.343976e+000 -2.930420e+000 -1.109368e+000
      endloop
   endfacet
   facet normal -7.678092e-001 -6.406785e-001 0.000000e+000
      outer loop
         vertex 3.343976e+000 -2.930420e+000 -1.109368e+000
         vertex 3.343976e+000 -2.930420e+000 2.040238e+000
         vertex 3.335132e+000 -2.920413e+000 2.040238e+000
      endloop
   endfacet
   facet normal -7.302502e-001 -6.831798e-001 0.000000e+000
      outer loop
         vertex 3.343976e+000 -2.930420e+000 -1.109368e+000
         vertex 3.335132e+000 -2.920413e+000 2.040238e+000
         vertex 3.335132e+000 -2.920413e+000 -1.109368e+000
      endloop
   endfacet
   facet normal -6.484897e-001 -7.612234e-001 0.000000e+000
      outer loop
         vertex 3.335132e+000 -2.920413e+000 -1.109368e+000
         vertex 3.335132e+000 -2.920413e+000 2.040238e+000
         vertex 3.324724e+000 -2.912044e+000 2.040238e+000
      endloop
   endfacet
   facet normal -6.042882e-001 -7.967658e-001 0.000000e+000
      outer loop
         vertex 3.335132e+000 -2.920413e+000 -1.109368e+000
         vertex 3.324724e+000 -2.912044e+000 2.040238e+000
         vertex 3.324724e+000 -2.912044e+000 -1.109368e+000
      endloop
   endfacet
   facet normal -5.105144e-001 -8.598692e-001 0.000000e+000
      outer loop
         vertex 3.324724e+000 -2.912044e+000 -1.109368e+000
         vertex 3.324724e+000 -2.912044e+000 2.040238e+000
         vertex 3.313051e+000 -2.905554e+000 2.040238e+000
      endloop
   endfacet
   facet normal -4.609421e-001 -8.874302e-001 0.000000e+000
      outer loop
         vertex 3.324724e+000 -2.912044e+000 -1.109368e+000
         vertex 3.313051e+000 -2.905554e+000 2.040238e+000
         vertex 3.313051e+000 -2.905554e+000 -1.109368e+000
      endloop
   endfacet
   facet normal -3.578525e-001 -9.337781e-001 0.000000e+000
      outer loop
         vertex 3.313051e+000 -2.905554e+000 -1.109368e+000
         vertex 3.313051e+000 -2.905554e+000 2.040238e+000
         vertex 3.300450e+000 -2.901131e+000 2.040238e+000
      endloop
   endfacet
   facet normal -3.043354e-001 -9.525650e-001 0.000000e+000
      outer loop
         vertex 3.313051e+000 -2.905554e+000 -1.109368e+000
         vertex 3.300450e+000 -2.901131e+000 2.040238e+000
         vertex 3.300450e+000 -2.901131e+000 -1.109368e+000
      endloop
   endfacet
   facet normal -1.948959e-001 -9.808239e-001 0.000000e+000
      outer loop
         vertex 3.300450e+000 -2.901131e+000 -1.109368e+000
         vertex 3.300450e+000 -2.901131e+000 2.040238e+000
         vertex 3.287282e+000 -2.898900e+000 2.040238e+000
      endloop
   endfacet
   facet normal -1.389735e-001 -9.902961e-001 0.000000e+000
      outer loop
         vertex 3.300450e+000 -2.901131e+000 -1.109368e+000
         vertex 3.287282e+000 -2.898900e+000 2.040238e+000
         vertex 3.287282e+000 -2.898900e+000 -1.109368e+000
      endloop
   endfacet
   facet normal -2.633246e-002 -9.996532e-001 0.000000e+000
      outer loop
         vertex 3.287282e+000 -2.898900e+000 -1.109368e+000
         vertex 3.287282e+000 -2.898900e+000 2.040238e+000
         vertex 3.273927e+000 -2.898927e+000 2.040238e+000
      endloop
   endfacet
   facet normal 3.038629e-002 -9.995382e-001 0.000000e+000
      outer loop
         vertex 3.287282e+000 -2.898900e+000 -1.109368e+000
         vertex 3.273927e+000 -2.898927e+000 2.040238e+000
         vertex 3.273927e+000 -2.898927e+000 -1.109368e+000
      endloop
   endfacet
   facet normal 1.429885e-001 -9.897243e-001 0.000000e+000
      outer loop
         vertex 3.273927e+000 -2.898927e+000 -1.109368e+000
         vertex 3.273927e+000 -2.898927e+000 2.040238e+000
         vertex 3.260769e+000 -2.901211e+000 2.040238e+000
      endloop
   endfacet
   facet normal 1.988720e-001 -9.800255e-001 0.000000e+000
      outer loop
         vertex 3.273927e+000 -2.898927e+000 -1.109368e+000
         vertex 3.260769e+000 -2.901211e+000 2.040238e+000
         vertex 3.260769e+000 -2.901211e+000 -1.109368e+000
      endloop
   endfacet
   facet normal 3.081959e-001 -9.513229e-001 0.000000e+000
      outer loop
         vertex 3.260769e+000 -2.901211e+000 -1.109368e+000
         vertex 3.260769e+000 -2.901211e+000 2.040238e+000
         vertex 3.248185e+000 -2.905686e+000 2.040238e+000
      endloop
   endfacet
   facet normal 3.616365e-001 -9.323192e-001 0.000000e+000
      outer loop
         vertex 3.260769e+000 -2.901211e+000 -1.109368e+000
         vertex 3.248185e+000 -2.905686e+000 2.040238e+000
         vertex 3.248185e+000 -2.905686e+000 -1.109368e+000
      endloop
   endfacet
   facet normal 4.645372e-001 -8.855536e-001 0.000000e+000
      outer loop
         vertex 3.248185e+000 -2.905686e+000 -1.109368e+000
         vertex 3.248185e+000 -2.905686e+000 2.040238e+000
         vertex 3.236539e+000 -2.912223e+000 2.040238e+000
      endloop
   endfacet
   facet normal 5.139974e-001 -8.577918e-001 0.000000e+000
      outer loop
         vertex 3.248185e+000 -2.905686e+000 -1.109368e+000
         vertex 3.236539e+000 -2.912223e+000 2.040238e+000
         vertex 3.236539e+000 -2.912223e+000 -1.109368e+000
      endloop
   endfacet
   facet normal 6.075145e-001 -7.943085e-001 0.000000e+000
      outer loop
         vertex 3.236539e+000 -2.912223e+000 -1.109368e+000
         vertex 3.236539e+000 -2.912223e+000 2.040238e+000
         vertex 3.226165e+000 -2.920634e+000 2.040238e+000
      endloop
   endfacet
   facet normal 6.515715e-001 -7.585872e-001 0.000000e+000
      outer loop
         vertex 3.236539e+000 -2.912223e+000 -1.109368e+000
         vertex 3.226165e+000 -2.920634e+000 2.040238e+000
         vertex 3.226165e+000 -2.920634e+000 -1.109368e+000
      endloop
   endfacet
   facet normal 7.330148e-001 -6.802127e-001 0.000000e+000
      outer loop
         vertex 3.226165e+000 -2.920634e+000 -1.109368e+000
         vertex 3.226165e+000 -2.920634e+000 2.040238e+000
         vertex 3.217362e+000 -2.930677e+000 2.040238e+000
      endloop
   endfacet
   facet normal 7.704011e-001 -6.375595e-001 0.000000e+000
      outer loop
         vertex 3.226165e+000 -2.920634e+000 -1.109368e+000
         vertex 3.217362e+000 -2.930677e+000 2.040238e+000
         vertex 3.217362e+000 -2.930677e+000 -1.109368e+000
      endloop
   endfacet
   facet normal 8.374276e-001 -5.465484e-001 0.000000e+000
      outer loop
         vertex 3.217362e+000 -2.930677e+000 -1.109368e+000
         vertex 3.217362e+000 -2.930677e+000 2.040238e+000
         vertex 3.210383e+000 -2.942064e+000 2.040238e+000
      endloop
   endfacet
   facet normal 8.670677e-001 -4.981904e-001 0.000000e+000
      outer loop
         vertex 3.217362e+000 -2.930677e+000 -1.109368e+000
         vertex 3.210383e+000 -2.942064e+000 2.040238e+000
         vertex 3.210383e+000 -2.942064e+000 -1.109368e+000
      endloop
   endfacet
   facet normal 9.177490e-001 -3.971608e-001 0.000000e+000
      outer loop
         vertex 3.210383e+000 -2.942064e+000 -1.109368e+000
         vertex 3.210383e+000 -2.942064e+000 2.040238e+000
         vertex 3.205429e+000 -2.954466e+000 2.040238e+000
      endloop
   endfacet
   facet normal 9.387903e-001 -3.444892e-001 0.000000e+000
      outer loop
         vertex 3.210383e+000 -2.942064e+000 -1.109368e+000
         vertex 3.205429e+000 -2.954466e+000 2.040238e+000
         vertex 3.205429e+000 -2.954466e+000 -1.109368e+000
      endloop
   endfacet
   facet normal 9.716685e-001 -2.363477e-001 0.000000e+000
      outer loop
         vertex 3.205429e+000 -2.954466e+000 -1.109368e+000
         vertex 3.205429e+000 -2.954466e+000 2.040238e+000
         vertex 3.202641e+000 -2.967527e+000 2.040238e+000
      endloop
   endfacet
   facet normal 9.835055e-001 -1.808777e-001 0.000000e+000
      outer loop
         vertex 3.205429e+000 -2.954466e+000 -1.109368e+000
         vertex 3.202641e+000 -2.967527e+000 2.040238e+000
         vertex 3.202641e+000 -2.967527e+000 -1.109368e+000
      endloop
   endfacet
   facet normal 9.976349e-001 -6.873523e-002 0.000000e+000
      outer loop
         vertex 3.202641e+000 -2.967527e+000 -1.109368e+000
         vertex 3.202641e+000 -2.967527e+000 2.040238e+000
         vertex 3.202102e+000 -2.980872e+000 2.040238e+000
      endloop
   endfacet
   facet normal 9.999272e-001 -1.206269e-002 0.000000e+000
      outer loop
         vertex 3.202641e+000 -2.967527e+000 -1.109368e+000
         vertex 3.202102e+000 -2.980872e+000 2.040238e+000
         vertex 3.202102e+000 -2.980872e+000 -1.109368e+000
      endloop
   endfacet
   facet normal 9.949012e-001 1.008546e-001 0.000000e+000
      outer loop
         vertex 3.202102e+000 -2.980872e+000 -1.109368e+000
         vertex 3.202102e+000 -2.980872e+000 2.040238e+000
         vertex 3.203825e+000 -2.994115e+000 2.040238e+000
      endloop
   endfacet
   facet normal 9.875828e-001 1.570994e-001 0.000000e+000
      outer loop
         vertex 3.202102e+000 -2.980872e+000 -1.109368e+000
         vertex 3.203825e+000 -2.994115e+000 2.040238e+000
         vertex 3.203825e+000 -2.994115e+000 -1.109368e+000
      endloop
   endfacet
   facet normal 9.635459e-001 2.675430e-001 0.000000e+000
      outer loop
         vertex 3.203825e+000 -2.994115e+000 -1.109368e+000
         vertex 3.203825e+000 -2.994115e+000 2.040238e+000
         vertex 3.207762e+000 -3.006877e+000 2.040238e+000
      endloop
   endfacet
   facet normal 9.468274e-001 3.217420e-001 0.000000e+000
      outer loop
         vertex 3.203825e+000 -2.994115e+000 -1.109368e+000
         vertex 3.207762e+000 -3.006877e+000 2.040238e+000
         vertex 3.207762e+000 -3.006877e+000 -1.109368e+000
      endloop
   endfacet
   facet normal 9.161581e-001 4.008170e-001 0.000000e+000
      outer loop
         vertex 3.207762e+000 -3.006877e+000 -1.109368e+000
         vertex 3.207762e+000 -3.006877e+000 2.040238e+000
         vertex 3.210527e+000 -3.012962e+000 -1.109368e+000
      endloop
   endfacet
endsolid