solid veio 30-1-solid1_Default_sldprt
   facet normal 8.198085e-003 -4.977056e-001 -8.673072e-001
      outer loop
         vertex -2.444723e+000 -1.328720e+000 4.636707e+000
         vertex -2.444794e+000 -1.324409e+000 4.634151e+000
         vertex -1.263852e+000 -1.304957e+000 4.634151e+000
      endloop
   endfacet
   facet normal 7.377051e-003 -4.478607e-001 -8.940729e-001
      outer loop
         vertex -1.263852e+000 -1.304957e+000 4.634151e+000
         vertex -2.444794e+000 -1.324409e+000 4.634151e+000
         vertex -1.263926e+000 -1.300444e+000 4.631969e+000
      endloop
   endfacet
   facet normal 6.957172e-003 -4.223698e-001 -9.063969e-001
      outer loop
         vertex -2.444794e+000 -1.324409e+000 4.634151e+000
         vertex -2.444868e+000 -1.319897e+000 4.631969e+000
         vertex -1.263926e+000 -1.300444e+000 4.631969e+000
      endloop
   endfacet
   facet normal 5.667186e-003 -3.440548e-001 -9.389325e-001
      outer loop
         vertex -1.263926e+000 -1.300444e+000 4.631969e+000
         vertex -2.444868e+000 -1.319897e+000 4.631969e+000
         vertex -2.445024e+000 -1.310399e+000 4.628791e+000
      endloop
   endfacet
   facet normal 4.781336e-003 -2.902749e-001 -9.569314e-001
      outer loop
         vertex -1.263926e+000 -1.300444e+000 4.631969e+000
         vertex -2.445024e+000 -1.310399e+000 4.628791e+000
         vertex -1.264082e+000 -1.290947e+000 4.628791e+000
      endloop
   endfacet
   facet normal 2.972279e-003 -1.804471e-001 -9.835802e-001
      outer loop
         vertex -1.264082e+000 -1.290947e+000 4.628791e+000
         vertex -2.445024e+000 -1.310399e+000 4.628791e+000
         vertex -2.445188e+000 -1.300501e+000 4.627263e+000
      endloop
   endfacet
   facet normal 2.049074e-003 -1.243993e-001 -9.922301e-001
      outer loop
         vertex -1.264082e+000 -1.290947e+000 4.628791e+000
         vertex -2.445188e+000 -1.300501e+000 4.627263e+000
         vertex -1.264246e+000 -1.281049e+000 4.627263e+000
      endloop
   endfacet
   facet normal 1.918661e-004 -1.164819e-002 -9.999321e-001
      outer loop
         vertex -1.264246e+000 -1.281049e+000 4.627263e+000
         vertex -2.445188e+000 -1.300501e+000 4.627263e+000
         vertex -2.445353e+000 -1.290488e+000 4.627431e+000
      endloop
   endfacet
   facet normal -7.421359e-004 4.505506e-002 -9.989842e-001
      outer loop
         vertex -1.264246e+000 -1.281049e+000 4.627263e+000
         vertex -2.445353e+000 -1.290488e+000 4.627431e+000
         vertex -1.264410e+000 -1.271035e+000 4.627431e+000
      endloop
   endfacet
   facet normal -2.594067e-003 1.574858e-001 -9.875178e-001
      outer loop
         vertex -1.264410e+000 -1.271035e+000 4.627431e+000
         vertex -2.445353e+000 -1.290488e+000 4.627431e+000
         vertex -2.445515e+000 -1.280646e+000 4.629288e+000
      endloop
   endfacet
   facet normal -3.511996e-003 2.132132e-001 -9.769994e-001
      outer loop
         vertex -1.264410e+000 -1.271035e+000 4.627431e+000
         vertex -2.445515e+000 -1.280646e+000 4.629288e+000
         vertex -1.264573e+000 -1.261194e+000 4.629288e+000
      endloop
   endfacet
   facet normal -5.305374e-003 3.220892e-001 -9.466945e-001
      outer loop
         vertex -1.264573e+000 -1.261194e+000 4.629288e+000
         vertex -2.445515e+000 -1.280646e+000 4.629288e+000
         vertex -2.445669e+000 -1.271260e+000 4.632782e+000
      endloop
   endfacet
   facet normal -6.180822e-003 3.752376e-001 -9.269080e-001
      outer loop
         vertex -1.264573e+000 -1.261194e+000 4.629288e+000
         vertex -2.445669e+000 -1.271260e+000 4.632782e+000
         vertex -1.264727e+000 -1.251808e+000 4.632782e+000
      endloop
   endfacet
   facet normal -7.864054e-003 4.774267e-001 -8.786364e-001
      outer loop
         vertex -1.264727e+000 -1.251808e+000 4.632782e+000
         vertex -2.445669e+000 -1.271260e+000 4.632782e+000
         vertex -2.445812e+000 -1.262600e+000 4.637813e+000
      endloop
   endfacet
   facet normal -8.671838e-003 5.264671e-001 -8.501512e-001
      outer loop
         vertex -1.264727e+000 -1.251808e+000 4.632782e+000
         vertex -2.445812e+000 -1.262600e+000 4.637813e+000
         vertex -1.264870e+000 -1.243148e+000 4.637813e+000
      endloop
   endfacet
   facet normal -1.019650e-002 6.190295e-001 -7.853016e-001
      outer loop
         vertex -1.264870e+000 -1.243148e+000 4.637813e+000
         vertex -2.445812e+000 -1.262600e+000 4.637813e+000
         vertex -2.445939e+000 -1.254914e+000 4.644235e+000
      endloop
   endfacet
   facet normal -1.091338e-002 6.625512e-001 -7.489371e-001
      outer loop
         vertex -1.264870e+000 -1.243148e+000 4.637813e+000
         vertex -2.445939e+000 -1.254914e+000 4.644235e+000
         vertex -1.264996e+000 -1.235462e+000 4.644235e+000
      endloop
   endfacet
   facet normal -1.223561e-002 7.428239e-001 -6.693751e-001
      outer loop
         vertex -1.264996e+000 -1.235462e+000 4.644235e+000
         vertex -2.445939e+000 -1.254914e+000 4.644235e+000
         vertex -2.446045e+000 -1.248424e+000 4.651863e+000
      endloop
   endfacet
   facet normal -1.284096e-002 7.795748e-001 -6.261774e-001
      outer loop
         vertex -1.264996e+000 -1.235462e+000 4.644235e+000
         vertex -2.446045e+000 -1.248424e+000 4.651863e+000
         vertex -1.265103e+000 -1.228972e+000 4.651863e+000
      endloop
   endfacet
   facet normal -1.392273e-002 8.452486e-001 -5.341919e-001
      outer loop
         vertex -1.265103e+000 -1.228972e+000 4.651863e+000
         vertex -2.446045e+000 -1.248424e+000 4.651863e+000
         vertex -2.446130e+000 -1.243316e+000 4.660479e+000
      endloop
   endfacet
   facet normal -1.439914e-002 8.741715e-001 -4.854038e-001
      outer loop
         vertex -1.265103e+000 -1.228972e+000 4.651863e+000
         vertex -2.446130e+000 -1.243316e+000 4.660479e+000
         vertex -1.265187e+000 -1.223864e+000 4.660479e+000
      endloop
   endfacet
   facet normal -1.520931e-002 9.233571e-001 -3.836408e-001
      outer loop
         vertex -1.265187e+000 -1.223864e+000 4.660479e+000
         vertex -2.446130e+000 -1.243316e+000 4.660479e+000
         vertex -2.446188e+000 -1.239738e+000 4.669835e+000
      endloop
   endfacet
   facet normal -1.554307e-002 9.436199e-001 -3.306660e-001
      outer loop
         vertex -1.265187e+000 -1.223864e+000 4.660479e+000
         vertex -2.446188e+000 -1.239738e+000 4.669835e+000
         vertex -1.265246e+000 -1.220286e+000 4.669835e+000
      endloop
   endfacet
   facet normal -1.605835e-002 9.749023e-001 -2.220533e-001
      outer loop
         vertex -1.265246e+000 -1.220286e+000 4.669835e+000
         vertex -2.446188e+000 -1.239738e+000 4.669835e+000
         vertex -2.446221e+000 -1.237792e+000 4.679660e+000
      endloop
   endfacet
   facet normal -1.623986e-002 9.859220e-001 -1.664155e-001
      outer loop
         vertex -1.265246e+000 -1.220286e+000 4.669835e+000
         vertex -2.446221e+000 -1.237792e+000 4.679660e+000
         vertex -1.265278e+000 -1.218340e+000 4.679660e+000
      endloop
   endfacet
   facet normal -1.644542e-002 9.984013e-001 -5.407760e-002
      outer loop
         vertex -1.265278e+000 -1.218340e+000 4.679660e+000
         vertex -2.446221e+000 -1.237792e+000 4.679660e+000
         vertex -2.446225e+000 -1.237534e+000 4.689673e+000
      endloop
   endfacet
   facet normal -1.646946e-002 9.998609e-001 2.622487e-003
      outer loop
         vertex -1.265278e+000 -1.218340e+000 4.679660e+000
         vertex -2.446225e+000 -1.237534e+000 4.689673e+000
         vertex -1.265283e+000 -1.218082e+000 4.689673e+000
      endloop
   endfacet
   facet normal -1.635939e-002 9.931781e-001 1.154538e-001
      outer loop
         vertex -1.265283e+000 -1.218082e+000 4.689673e+000
         vertex -2.446225e+000 -1.237534e+000 4.689673e+000
         vertex -2.446201e+000 -1.238972e+000 4.699586e+000
      endloop
   endfacet
   facet normal -1.622527e-002 9.850357e-001 1.715850e-001
      outer loop
         vertex -1.265283e+000 -1.218082e+000 4.689673e+000
         vertex -2.446201e+000 -1.238972e+000 4.699586e+000
         vertex -1.265259e+000 -1.219520e+000 4.699586e+000
      endloop
   endfacet
   facet normal -1.580272e-002 9.593830e-001 2.816638e-001
      outer loop
         vertex -1.265259e+000 -1.219520e+000 4.699586e+000
         vertex -2.446201e+000 -1.238972e+000 4.699586e+000
         vertex -2.446150e+000 -1.242064e+000 4.709113e+000
      endloop
   endfacet
   facet normal -1.551430e-002 9.418728e-001 3.356113e-001
      outer loop
         vertex -1.265259e+000 -1.219520e+000 4.699586e+000
         vertex -2.446150e+000 -1.242064e+000 4.709113e+000
         vertex -1.265208e+000 -1.222612e+000 4.709113e+000
      endloop
   endfacet
   facet normal -1.479144e-002 8.979883e-001 4.397708e-001
      outer loop
         vertex -1.265208e+000 -1.222612e+000 4.709113e+000
         vertex -2.446150e+000 -1.242064e+000 4.709113e+000
         vertex -2.446074e+000 -1.246722e+000 4.717980e+000
      endloop
   endfacet
   facet normal -1.435701e-002 8.716139e-001 4.899828e-001
      outer loop
         vertex -1.265208e+000 -1.222612e+000 4.709113e+000
         vertex -2.446074e+000 -1.246722e+000 4.717980e+000
         vertex -1.265131e+000 -1.227270e+000 4.717980e+000
      endloop
   endfacet
   facet normal -1.335464e-002 8.107599e-001 5.852265e-001
      outer loop
         vertex -1.265131e+000 -1.227270e+000 4.717980e+000
         vertex -2.446074e+000 -1.246722e+000 4.717980e+000
         vertex -2.445973e+000 -1.252811e+000 4.725933e+000
      endloop
   endfacet
   facet normal -1.278670e-002 7.762802e-001 6.302582e-001
      outer loop
         vertex -1.265131e+000 -1.227270e+000 4.717980e+000
         vertex -2.445973e+000 -1.252811e+000 4.725933e+000
         vertex -1.265031e+000 -1.233359e+000 4.725933e+000
      endloop
   endfacet
   facet normal -1.153364e-002 7.002075e-001 7.138461e-001
      outer loop
         vertex -1.265031e+000 -1.233359e+000 4.725933e+000
         vertex -2.445973e+000 -1.252811e+000 4.725933e+000
         vertex -2.445852e+000 -1.260156e+000 4.732742e+000
      endloop
   endfacet
   facet normal -1.084853e-002 6.586145e-001 7.524024e-001
      outer loop
         vertex -1.265031e+000 -1.233359e+000 4.725933e+000
         vertex -2.445852e+000 -1.260156e+000 4.732742e+000
         vertex -1.264910e+000 -1.240704e+000 4.732742e+000
      endloop
   endfacet
   facet normal -9.380853e-003 5.695115e-001 8.219298e-001
      outer loop
         vertex -1.264910e+000 -1.240704e+000 4.732742e+000
         vertex -2.445852e+000 -1.260156e+000 4.732742e+000
         vertex -2.445714e+000 -1.268546e+000 4.738211e+000
      endloop
   endfacet
   facet normal -8.598280e-003 5.220016e-001 8.529012e-001
      outer loop
         vertex -1.264910e+000 -1.240704e+000 4.732742e+000
         vertex -2.445714e+000 -1.268546e+000 4.738211e+000
         vertex -1.264772e+000 -1.249094e+000 4.738211e+000
      endloop
   endfacet
   facet normal -6.958188e-003 4.224316e-001 9.063681e-001
      outer loop
         vertex -1.264772e+000 -1.249094e+000 4.738211e+000
         vertex -2.445714e+000 -1.268546e+000 4.738211e+000
         vertex -2.445562e+000 -1.277740e+000 4.742184e+000
      endloop
   endfacet
   facet normal -6.100669e-003 3.703716e-001 9.288636e-001
      outer loop
         vertex -1.264772e+000 -1.249094e+000 4.738211e+000
         vertex -2.445562e+000 -1.277740e+000 4.742184e+000
         vertex -1.264620e+000 -1.258288e+000 4.742184e+000
      endloop
   endfacet
   facet normal -4.335351e-003 2.631991e-001 9.647318e-001
      outer loop
         vertex -1.264620e+000 -1.258288e+000 4.742184e+000
         vertex -2.445562e+000 -1.277740e+000 4.742184e+000
         vertex -2.445402e+000 -1.287473e+000 4.744545e+000
      endloop
   endfacet
   facet normal -3.427553e-003 2.080867e-001 9.781044e-001
      outer loop
         vertex -1.264620e+000 -1.258288e+000 4.742184e+000
         vertex -2.445402e+000 -1.287473e+000 4.744545e+000
         vertex -1.264460e+000 -1.268021e+000 4.744545e+000
      endloop
   endfacet
   facet normal -1.587793e-003 9.639490e-002 9.953419e-001
      outer loop
         vertex -1.264460e+000 -1.268021e+000 4.744545e+000
         vertex -2.445402e+000 -1.287473e+000 4.744545e+000
         vertex -2.445238e+000 -1.297464e+000 4.745228e+000
      endloop
   endfacet
   facet normal -6.558317e-004 3.981553e-002 9.992068e-001
      outer loop
         vertex -1.264460e+000 -1.268021e+000 4.744545e+000
         vertex -2.445238e+000 -1.297464e+000 4.745228e+000
         vertex -1.264295e+000 -1.278012e+000 4.745228e+000
      endloop
   endfacet
   facet normal 1.205443e-003 -7.318244e-002 9.973179e-001
      outer loop
         vertex -1.264295e+000 -1.278012e+000 4.745228e+000
         vertex -2.445238e+000 -1.297464e+000 4.745228e+000
         vertex -2.445073e+000 -1.307428e+000 4.744212e+000
      endloop
   endfacet
   facet normal 2.134757e-003 -1.296011e-001 9.915639e-001
      outer loop
         vertex -1.264295e+000 -1.278012e+000 4.745228e+000
         vertex -2.445073e+000 -1.307428e+000 4.744212e+000
         vertex -1.264131e+000 -1.287976e+000 4.744212e+000
      endloop
   endfacet
   facet normal 3.964001e-003 -2.406545e-001 9.706028e-001
      outer loop
         vertex -1.264131e+000 -1.287976e+000 4.744212e+000
         vertex -2.445073e+000 -1.307428e+000 4.744212e+000
         vertex -2.444915e+000 -1.317076e+000 4.741526e+000
      endloop
   endfacet
   facet normal 4.863932e-003 -2.952892e-001 9.553955e-001
      outer loop
         vertex -1.264131e+000 -1.287976e+000 4.744212e+000
         vertex -2.444915e+000 -1.317076e+000 4.741526e+000
         vertex -1.263972e+000 -1.297624e+000 4.741526e+000
      endloop
   endfacet
   facet normal 6.608521e-003 -4.012033e-001 9.159652e-001
      outer loop
         vertex -1.263972e+000 -1.297624e+000 4.741526e+000
         vertex -2.444915e+000 -1.317076e+000 4.741526e+000
         vertex -2.444766e+000 -1.326132e+000 4.737248e+000
      endloop
   endfacet
   facet normal 7.453180e-003 -4.524825e-001 8.917421e-001
      outer loop
         vertex -1.263972e+000 -1.297624e+000 4.741526e+000
         vertex -2.444766e+000 -1.326132e+000 4.737248e+000
         vertex -1.263823e+000 -1.306680e+000 4.737248e+000
      endloop
   endfacet
   facet normal 9.062927e-003 -5.502102e-001 8.349770e-001
      outer loop
         vertex -1.263823e+000 -1.306680e+000 4.737248e+000
         vertex -2.444766e+000 -1.326132e+000 4.737248e+000
         vertex -2.444630e+000 -1.334335e+000 4.731502e+000
      endloop
   endfacet
   facet normal 9.828013e-003 -5.966586e-001 8.024349e-001
      outer loop
         vertex -1.263823e+000 -1.306680e+000 4.737248e+000
         vertex -2.444630e+000 -1.334335e+000 4.731502e+000
         vertex -1.263688e+000 -1.314883e+000 4.731502e+000
      endloop
   endfacet
   facet normal 1.125661e-002 -6.833886e-001 7.299681e-001
      outer loop
         vertex -1.263688e+000 -1.314883e+000 4.731502e+000
         vertex -2.444630e+000 -1.334335e+000 4.731502e+000
         vertex -2.444513e+000 -1.341449e+000 4.724451e+000
      endloop
   endfacet
   facet normal 1.192011e-002 -7.236699e-001 6.900432e-001
      outer loop
         vertex -1.263688e+000 -1.314883e+000 4.731502e+000
         vertex -2.444513e+000 -1.341449e+000 4.724451e+000
         vertex -1.263571e+000 -1.321996e+000 4.724451e+000
      endloop
   endfacet
   facet normal 1.312646e-002 -7.969071e-001 6.039591e-001
      outer loop
         vertex -1.263571e+000 -1.321996e+000 4.724451e+000
         vertex -2.444513e+000 -1.341449e+000 4.724451e+000
         vertex -2.444417e+000 -1.347268e+000 4.716300e+000
      endloop
   endfacet
   facet normal 1.366929e-002 -8.298627e-001 5.578001e-001
      outer loop
         vertex -1.263571e+000 -1.321996e+000 4.724451e+000
         vertex -2.444417e+000 -1.347268e+000 4.716300e+000
         vertex -1.263475e+000 -1.327816e+000 4.716300e+000
      endloop
   endfacet
   facet normal 1.461868e-002 -8.875001e-001 4.605756e-001
      outer loop
         vertex -1.263475e+000 -1.327816e+000 4.716300e+000
         vertex -2.444417e+000 -1.347268e+000 4.716300e+000
         vertex -2.444345e+000 -1.351627e+000 4.707281e+000
      endloop
   endfacet
   facet normal 1.502523e-002 -9.121819e-001 4.095102e-001
      outer loop
         vertex -1.263475e+000 -1.327816e+000 4.716300e+000
         vertex -2.444345e+000 -1.351627e+000 4.707281e+000
         vertex -1.263403e+000 -1.332175e+000 4.707281e+000
      endloop
   endfacet
   facet normal 1.569035e-002 -9.525613e-001 3.039420e-001
      outer loop
         vertex -1.263403e+000 -1.332175e+000 4.707281e+000
         vertex -2.444345e+000 -1.351627e+000 4.707281e+000
         vertex -2.444300e+000 -1.354399e+000 4.697656e+000
      endloop
   endfacet
   facet normal 1.594893e-002 -9.682591e-001 2.494393e-001
      outer loop
         vertex -1.263403e+000 -1.332175e+000 4.707281e+000
         vertex -2.444300e+000 -1.354399e+000 4.697656e+000
         vertex -1.263358e+000 -1.334947e+000 4.697656e+000
      endloop
   endfacet
   facet normal 1.631064e-002 -9.902191e-001 1.385646e-001
      outer loop
         vertex -1.263358e+000 -1.334947e+000 4.697656e+000
         vertex -2.444300e+000 -1.354399e+000 4.697656e+000
         vertex -2.444282e+000 -1.355505e+000 4.687701e+000
      endloop
   endfacet
   facet normal 1.641379e-002 -9.964813e-001 8.219260e-002
      outer loop
         vertex -1.263358e+000 -1.334947e+000 4.697656e+000
         vertex -2.444282e+000 -1.355505e+000 4.687701e+000
         vertex -1.263339e+000 -1.336053e+000 4.687701e+000
      endloop
   endfacet
   facet normal 1.646171e-002 -9.993900e-001 -3.079905e-002
      outer loop
         vertex -1.263339e+000 -1.336053e+000 4.687701e+000
         vertex -2.444282e+000 -1.355505e+000 4.687701e+000
         vertex -2.444291e+000 -1.354913e+000 4.677702e+000
      endloop
   endfacet
   facet normal 1.640647e-002 -9.960365e-001 -8.741868e-002
      outer loop
         vertex -1.263339e+000 -1.336053e+000 4.687701e+000
         vertex -2.444291e+000 -1.354913e+000 4.677702e+000
         vertex -1.263349e+000 -1.335461e+000 4.677702e+000
      endloop
   endfacet
   facet normal 1.613919e-002 -9.798104e-001 -1.992767e-001
      outer loop
         vertex -1.263349e+000 -1.335461e+000 4.677702e+000
         vertex -2.444291e+000 -1.354913e+000 4.677702e+000
         vertex -2.444329e+000 -1.352640e+000 4.667947e+000
      endloop
   endfacet
   facet normal 1.592716e-002 -9.669376e-001 -2.545151e-001
      outer loop
         vertex -1.263349e+000 -1.335461e+000 4.677702e+000
         vertex -2.444329e+000 -1.352640e+000 4.667947e+000
         vertex -1.263387e+000 -1.333188e+000 4.667947e+000
      endloop
   endfacet
   facet normal 1.535239e-002 -9.320433e-001 -3.620215e-001
      outer loop
         vertex -1.263387e+000 -1.333188e+000 4.667947e+000
         vertex -2.444329e+000 -1.352640e+000 4.667947e+000
         vertex -2.444393e+000 -1.348751e+000 4.658717e+000
      endloop
   endfacet
   facet normal 1.498965e-002 -9.100217e-001 -4.142895e-001
      outer loop
         vertex -1.263387e+000 -1.333188e+000 4.667947e+000
         vertex -2.444393e+000 -1.348751e+000 4.658717e+000
         vertex -1.263451e+000 -1.329299e+000 4.658717e+000
      endloop
   endfacet
   facet normal 1.412392e-002 -8.574631e-001 -5.143515e-001
      outer loop
         vertex -1.263451e+000 -1.329299e+000 4.658717e+000
         vertex -2.444393e+000 -1.348751e+000 4.658717e+000
         vertex -2.444482e+000 -1.343358e+000 4.650276e+000
      endloop
   endfacet
   facet normal 1.362092e-002 -8.269261e-001 -5.621457e-001
      outer loop
         vertex -1.263451e+000 -1.329299e+000 4.658717e+000
         vertex -2.444482e+000 -1.343358e+000 4.650276e+000
         vertex -1.263539e+000 -1.323906e+000 4.650276e+000
      endloop
   endfacet
   facet normal 1.248914e-002 -7.582152e-001 -6.518848e-001
      outer loop
         vertex -1.263539e+000 -1.323906e+000 4.650276e+000
         vertex -2.444482e+000 -1.343358e+000 4.650276e+000
         vertex -2.444593e+000 -1.336617e+000 4.642869e+000
      endloop
   endfacet
   facet normal 1.186034e-002 -7.200413e-001 -6.938298e-001
      outer loop
         vertex -1.263539e+000 -1.323906e+000 4.650276e+000
         vertex -2.444593e+000 -1.336617e+000 4.642869e+000
         vertex -1.263651e+000 -1.317164e+000 4.642869e+000
      endloop
   endfacet
   facet normal 1.049506e-002 -6.371548e-001 -7.706643e-001
      outer loop
         vertex -1.263651e+000 -1.317164e+000 4.642869e+000
         vertex -2.444593e+000 -1.336617e+000 4.642869e+000
         vertex -2.444723e+000 -1.328720e+000 4.636707e+000
      endloop
   endfacet
   facet normal 9.758564e-003 -5.924423e-001 -8.055538e-001
      outer loop
         vertex -1.263651e+000 -1.317164e+000 4.642869e+000
         vertex -2.444723e+000 -1.328720e+000 4.636707e+000
         vertex -1.263781e+000 -1.309268e+000 4.636707e+000
      endloop
   endfacet
   facet normal 8.599238e-003 -5.220597e-001 -8.528656e-001
      outer loop
         vertex -1.263781e+000 -1.309268e+000 4.636707e+000
         vertex -2.444723e+000 -1.328720e+000 4.636707e+000
         vertex -1.263852e+000 -1.304957e+000 4.634151e+000
      endloop
   endfacet
   facet normal 9.998644e-001 1.646952e-002 1.158794e-015
      outer loop
         vertex -1.263651e+000 -1.317164e+000 4.642869e+000
         vertex -1.263781e+000 -1.309268e+000 4.636707e+000
         vertex -1.264772e+000 -1.249094e+000 4.738211e+000
      endloop
   endfacet
   facet normal 9.998644e-001 1.646952e-002 1.158794e-015
      outer loop
         vertex -1.263781e+000 -1.309268e+000 4.636707e+000
         vertex -1.263852e+000 -1.304957e+000 4.634151e+000
         vertex -1.264772e+000 -1.249094e+000 4.738211e+000
      endloop
   endfacet
   facet normal 9.998644e-001 1.646952e-002 1.158794e-015
      outer loop
         vertex -1.264772e+000 -1.249094e+000 4.738211e+000
         vertex -1.263852e+000 -1.304957e+000 4.634151e+000
         vertex -1.263926e+000 -1.300444e+000 4.631969e+000
      endloop
   endfacet
   facet normal 9.998644e-001 1.646952e-002 1.158794e-015
      outer loop
         vertex -1.264772e+000 -1.249094e+000 4.738211e+000
         vertex -1.263926e+000 -1.300444e+000 4.631969e+000
         vertex -1.264910e+000 -1.240704e+000 4.732742e+000
      endloop
   endfacet
   facet normal 9.998644e-001 1.646952e-002 1.158794e-015
      outer loop
         vertex -1.265278e+000 -1.218340e+000 4.679660e+000
         vertex -1.263926e+000 -1.300444e+000 4.631969e+000
         vertex -1.264082e+000 -1.290947e+000 4.628791e+000
      endloop
   endfacet
   facet normal 9.998644e-001 1.646952e-002 1.158794e-015
      outer loop
         vertex -1.265278e+000 -1.218340e+000 4.679660e+000
         vertex -1.265283e+000 -1.218082e+000 4.689673e+000
         vertex -1.263926e+000 -1.300444e+000 4.631969e+000
      endloop
   endfacet
   facet normal 9.998644e-001 1.646952e-002 1.158794e-015
      outer loop
         vertex -1.263926e+000 -1.300444e+000 4.631969e+000
         vertex -1.265283e+000 -1.218082e+000 4.689673e+000
         vertex -1.265259e+000 -1.219520e+000 4.699586e+000
      endloop
   endfacet
   facet normal 9.998644e-001 1.646952e-002 1.158794e-015
      outer loop
         vertex -1.263926e+000 -1.300444e+000 4.631969e+000
         vertex -1.265259e+000 -1.219520e+000 4.699586e+000
         vertex -1.265208e+000 -1.222612e+000 4.709113e+000
      endloop
   endfacet
   facet normal 9.998644e-001 1.646952e-002 1.158794e-015
      outer loop
         vertex -1.264460e+000 -1.268021e+000 4.744545e+000
         vertex -1.264295e+000 -1.278012e+000 4.745228e+000
         vertex -1.263539e+000 -1.323906e+000 4.650276e+000
      endloop
   endfacet
   facet normal 9.998644e-001 1.646952e-002 1.158794e-015
      outer loop
         vertex -1.263539e+000 -1.323906e+000 4.650276e+000
         vertex -1.263823e+000 -1.306680e+000 4.737248e+000
         vertex -1.263688e+000 -1.314883e+000 4.731502e+000
      endloop
   endfacet
   facet normal 9.998644e-001 1.646952e-002 1.158794e-015
      outer loop
         vertex -1.263387e+000 -1.333188e+000 4.667947e+000
         vertex -1.263475e+000 -1.327816e+000 4.716300e+000
         vertex -1.263403e+000 -1.332175e+000 4.707281e+000
      endloop
   endfacet
   facet normal 9.998644e-001 1.646952e-002 1.158794e-015
      outer loop
         vertex -1.263688e+000 -1.314883e+000 4.731502e+000
         vertex -1.263571e+000 -1.321996e+000 4.724451e+000
         vertex -1.263539e+000 -1.323906e+000 4.650276e+000
      endloop
   endfacet
   facet normal 9.998644e-001 1.646952e-002 1.158794e-015
      outer loop
         vertex -1.263539e+000 -1.323906e+000 4.650276e+000
         vertex -1.263571e+000 -1.321996e+000 4.724451e+000
         vertex -1.263475e+000 -1.327816e+000 4.716300e+000
      endloop
   endfacet
   facet normal 9.998644e-001 1.646952e-002 1.158794e-015
      outer loop
         vertex -1.263539e+000 -1.323906e+000 4.650276e+000
         vertex -1.263475e+000 -1.327816e+000 4.716300e+000
         vertex -1.263451e+000 -1.329299e+000 4.658717e+000
      endloop
   endfacet
   facet normal 9.998644e-001 1.646952e-002 1.158794e-015
      outer loop
         vertex -1.263451e+000 -1.329299e+000 4.658717e+000
         vertex -1.263475e+000 -1.327816e+000 4.716300e+000
         vertex -1.263387e+000 -1.333188e+000 4.667947e+000
      endloop
   endfacet
   facet normal 9.998644e-001 1.646952e-002 1.158794e-015
      outer loop
         vertex -1.265103e+000 -1.228972e+000 4.651863e+000
         vertex -1.264082e+000 -1.290947e+000 4.628791e+000
         vertex -1.264246e+000 -1.281049e+000 4.627263e+000
      endloop
   endfacet
   facet normal 9.998644e-001 1.646952e-002 1.158794e-015
      outer loop
         vertex -1.265103e+000 -1.228972e+000 4.651863e+000
         vertex -1.265187e+000 -1.223864e+000 4.660479e+000
         vertex -1.264082e+000 -1.290947e+000 4.628791e+000
      endloop
   endfacet
   facet normal 9.998644e-001 1.646952e-002 1.158794e-015
      outer loop
         vertex -1.264082e+000 -1.290947e+000 4.628791e+000
         vertex -1.265187e+000 -1.223864e+000 4.660479e+000
         vertex -1.265246e+000 -1.220286e+000 4.669835e+000
      endloop
   endfacet
   facet normal 9.998644e-001 1.646952e-002 1.158794e-015
      outer loop
         vertex -1.264082e+000 -1.290947e+000 4.628791e+000
         vertex -1.265246e+000 -1.220286e+000 4.669835e+000
         vertex -1.265278e+000 -1.218340e+000 4.679660e+000
      endloop
   endfacet
   facet normal 9.998644e-001 1.646952e-002 1.158794e-015
      outer loop
         vertex -1.265208e+000 -1.222612e+000 4.709113e+000
         vertex -1.265131e+000 -1.227270e+000 4.717980e+000
         vertex -1.263926e+000 -1.300444e+000 4.631969e+000
      endloop
   endfacet
   facet normal 9.998644e-001 1.646952e-002 1.158794e-015
      outer loop
         vertex -1.263926e+000 -1.300444e+000 4.631969e+000
         vertex -1.265131e+000 -1.227270e+000 4.717980e+000
         vertex -1.265031e+000 -1.233359e+000 4.725933e+000
      endloop
   endfacet
   facet normal 9.998644e-001 1.646952e-002 1.158794e-015
      outer loop
         vertex -1.263926e+000 -1.300444e+000 4.631969e+000
         vertex -1.265031e+000 -1.233359e+000 4.725933e+000
         vertex -1.264910e+000 -1.240704e+000 4.732742e+000
      endloop
   endfacet
   facet normal 9.998644e-001 1.646952e-002 1.158794e-015
      outer loop
         vertex -1.263651e+000 -1.317164e+000 4.642869e+000
         vertex -1.264772e+000 -1.249094e+000 4.738211e+000
         vertex -1.263539e+000 -1.323906e+000 4.650276e+000
      endloop
   endfacet
   facet normal 9.998644e-001 1.646952e-002 1.158794e-015
      outer loop
         vertex -1.263539e+000 -1.323906e+000 4.650276e+000
         vertex -1.264772e+000 -1.249094e+000 4.738211e+000
         vertex -1.264620e+000 -1.258288e+000 4.742184e+000
      endloop
   endfacet
   facet normal 9.998644e-001 1.646952e-002 1.158794e-015
      outer loop
         vertex -1.263539e+000 -1.323906e+000 4.650276e+000
         vertex -1.264620e+000 -1.258288e+000 4.742184e+000
         vertex -1.264460e+000 -1.268021e+000 4.744545e+000
      endloop
   endfacet
   facet normal 9.998644e-001 1.646952e-002 1.158794e-015
      outer loop
         vertex -1.264295e+000 -1.278012e+000 4.745228e+000
         vertex -1.264131e+000 -1.287976e+000 4.744212e+000
         vertex -1.263539e+000 -1.323906e+000 4.650276e+000
      endloop
   endfacet
   facet normal 9.998644e-001 1.646952e-002 1.158794e-015
      outer loop
         vertex -1.263539e+000 -1.323906e+000 4.650276e+000
         vertex -1.264131e+000 -1.287976e+000 4.744212e+000
         vertex -1.263972e+000 -1.297624e+000 4.741526e+000
      endloop
   endfacet
   facet normal 9.998644e-001 1.646952e-002 1.158794e-015
      outer loop
         vertex -1.263539e+000 -1.323906e+000 4.650276e+000
         vertex -1.263972e+000 -1.297624e+000 4.741526e+000
         vertex -1.263823e+000 -1.306680e+000 4.737248e+000
      endloop
   endfacet
   facet normal 9.998644e-001 1.646952e-002 1.158794e-015
      outer loop
         vertex -1.263358e+000 -1.334947e+000 4.697656e+000
         vertex -1.263339e+000 -1.336053e+000 4.687701e+000
         vertex -1.263403e+000 -1.332175e+000 4.707281e+000
      endloop
   endfacet
   facet normal 9.998644e-001 1.646952e-002 1.158794e-015
      outer loop
         vertex -1.263403e+000 -1.332175e+000 4.707281e+000
         vertex -1.263339e+000 -1.336053e+000 4.687701e+000
         vertex -1.263349e+000 -1.335461e+000 4.677702e+000
      endloop
   endfacet
   facet normal 9.998644e-001 1.646952e-002 1.158794e-015
      outer loop
         vertex -1.263403e+000 -1.332175e+000 4.707281e+000
         vertex -1.263349e+000 -1.335461e+000 4.677702e+000
         vertex -1.263387e+000 -1.333188e+000 4.667947e+000
      endloop
   endfacet
   facet normal 9.998644e-001 1.646952e-002 1.158794e-015
      outer loop
         vertex -1.264246e+000 -1.281049e+000 4.627263e+000
         vertex -1.264410e+000 -1.271035e+000 4.627431e+000
         vertex -1.265103e+000 -1.228972e+000 4.651863e+000
      endloop
   endfacet
   facet normal 9.998644e-001 1.646952e-002 1.158794e-015
      outer loop
         vertex -1.265103e+000 -1.228972e+000 4.651863e+000
         vertex -1.264410e+000 -1.271035e+000 4.627431e+000
         vertex -1.264573e+000 -1.261194e+000 4.629288e+000
      endloop
   endfacet
   facet normal 9.998644e-001 1.646952e-002 1.158794e-015
      outer loop
         vertex -1.265103e+000 -1.228972e+000 4.651863e+000
         vertex -1.264573e+000 -1.261194e+000 4.629288e+000
         vertex -1.264996e+000 -1.235462e+000 4.644235e+000
      endloop
   endfacet
   facet normal 9.998644e-001 1.646952e-002 1.158794e-015
      outer loop
         vertex -1.264996e+000 -1.235462e+000 4.644235e+000
         vertex -1.264573e+000 -1.261194e+000 4.629288e+000
         vertex -1.264727e+000 -1.251808e+000 4.632782e+000
      endloop
   endfacet
   facet normal 9.998644e-001 1.646952e-002 1.158794e-015
      outer loop
         vertex -1.264996e+000 -1.235462e+000 4.644235e+000
         vertex -1.264727e+000 -1.251808e+000 4.632782e+000
         vertex -1.264870e+000 -1.243148e+000 4.637813e+000
      endloop
   endfacet
   facet normal -9.998644e-001 -1.646952e-002 -1.158794e-015
      outer loop
         vertex -2.444794e+000 -1.324409e+000 4.634151e+000
         vertex -2.444723e+000 -1.328720e+000 4.636707e+000
         vertex -2.445714e+000 -1.268546e+000 4.738211e+000
      endloop
   endfacet
   facet normal -9.998644e-001 -1.646952e-002 -1.158794e-015
      outer loop
         vertex -2.445714e+000 -1.268546e+000 4.738211e+000
         vertex -2.444723e+000 -1.328720e+000 4.636707e+000
         vertex -2.444593e+000 -1.336617e+000 4.642869e+000
      endloop
   endfacet
   facet normal -9.998644e-001 -1.646952e-002 -1.158794e-015
      outer loop
         vertex -2.445714e+000 -1.268546e+000 4.738211e+000
         vertex -2.444593e+000 -1.336617e+000 4.642869e+000
         vertex -2.444482e+000 -1.343358e+000 4.650276e+000
      endloop
   endfacet
   facet normal -9.998644e-001 -1.646952e-002 -1.158794e-015
      outer loop
         vertex -2.444794e+000 -1.324409e+000 4.634151e+000
         vertex -2.445714e+000 -1.268546e+000 4.738211e+000
         vertex -2.444868e+000 -1.319897e+000 4.631969e+000
      endloop
   endfacet
   facet normal -9.998644e-001 -1.646952e-002 -1.158794e-015
      outer loop
         vertex -2.444868e+000 -1.319897e+000 4.631969e+000
         vertex -2.445714e+000 -1.268546e+000 4.738211e+000
         vertex -2.445852e+000 -1.260156e+000 4.732742e+000
      endloop
   endfacet
   facet normal -9.998644e-001 -1.646952e-002 -1.158794e-015
      outer loop
         vertex -2.444868e+000 -1.319897e+000 4.631969e+000
         vertex -2.445852e+000 -1.260156e+000 4.732742e+000
         vertex -2.445973e+000 -1.252811e+000 4.725933e+000
      endloop
   endfacet
   facet normal -9.998644e-001 -1.646952e-002 -1.158794e-015
      outer loop
         vertex -2.445973e+000 -1.252811e+000 4.725933e+000
         vertex -2.446074e+000 -1.246722e+000 4.717980e+000
         vertex -2.444868e+000 -1.319897e+000 4.631969e+000
      endloop
   endfacet
   facet normal -9.998644e-001 -1.646952e-002 -1.158794e-015
      outer loop
         vertex -2.444868e+000 -1.319897e+000 4.631969e+000
         vertex -2.446074e+000 -1.246722e+000 4.717980e+000
         vertex -2.446150e+000 -1.242064e+000 4.709113e+000
      endloop
   endfacet
   facet normal -9.998644e-001 -1.646952e-002 -1.158794e-015
      outer loop
         vertex -2.444868e+000 -1.319897e+000 4.631969e+000
         vertex -2.446150e+000 -1.242064e+000 4.709113e+000
         vertex -2.445024e+000 -1.310399e+000 4.628791e+000
      endloop
   endfacet
   facet normal -9.998644e-001 -1.646952e-002 -1.158794e-015
      outer loop
         vertex -2.444282e+000 -1.355505e+000 4.687701e+000
         vertex -2.444300e+000 -1.354399e+000 4.697656e+000
         vertex -2.444345e+000 -1.351627e+000 4.707281e+000
      endloop
   endfacet
   facet normal -9.998644e-001 -1.646952e-002 -1.158794e-015
      outer loop
         vertex -2.444417e+000 -1.347268e+000 4.716300e+000
         vertex -2.444513e+000 -1.341449e+000 4.724451e+000
         vertex -2.444482e+000 -1.343358e+000 4.650276e+000
      endloop
   endfacet
   facet normal -9.998644e-001 -1.646952e-002 -1.158794e-015
      outer loop
         vertex -2.444482e+000 -1.343358e+000 4.650276e+000
         vertex -2.444513e+000 -1.341449e+000 4.724451e+000
         vertex -2.444630e+000 -1.334335e+000 4.731502e+000
      endloop
   endfacet
   facet normal -9.998644e-001 -1.646952e-002 -1.158794e-015
      outer loop
         vertex -2.444482e+000 -1.343358e+000 4.650276e+000
         vertex -2.444630e+000 -1.334335e+000 4.731502e+000
         vertex -2.444766e+000 -1.326132e+000 4.737248e+000
      endloop
   endfacet
   facet normal -9.998644e-001 -1.646952e-002 -1.158794e-015
      outer loop
         vertex -2.446201e+000 -1.238972e+000 4.699586e+000
         vertex -2.445353e+000 -1.290488e+000 4.627431e+000
         vertex -2.446150e+000 -1.242064e+000 4.709113e+000
      endloop
   endfacet
   facet normal -9.998644e-001 -1.646952e-002 -1.158794e-015
      outer loop
         vertex -2.446150e+000 -1.242064e+000 4.709113e+000
         vertex -2.445353e+000 -1.290488e+000 4.627431e+000
         vertex -2.445188e+000 -1.300501e+000 4.627263e+000
      endloop
   endfacet
   facet normal -9.998644e-001 -1.646952e-002 -1.158794e-015
      outer loop
         vertex -2.446150e+000 -1.242064e+000 4.709113e+000
         vertex -2.445188e+000 -1.300501e+000 4.627263e+000
         vertex -2.445024e+000 -1.310399e+000 4.628791e+000
      endloop
   endfacet
   facet normal -9.998644e-001 -1.646952e-002 -1.158794e-015
      outer loop
         vertex -2.446201e+000 -1.238972e+000 4.699586e+000
         vertex -2.446225e+000 -1.237534e+000 4.689673e+000
         vertex -2.445353e+000 -1.290488e+000 4.627431e+000
      endloop
   endfacet
   facet normal -9.998644e-001 -1.646952e-002 -1.158794e-015
      outer loop
         vertex -2.445353e+000 -1.290488e+000 4.627431e+000
         vertex -2.446225e+000 -1.237534e+000 4.689673e+000
         vertex -2.446221e+000 -1.237792e+000 4.679660e+000
      endloop
   endfacet
   facet normal -9.998644e-001 -1.646952e-002 -1.158794e-015
      outer loop
         vertex -2.445353e+000 -1.290488e+000 4.627431e+000
         vertex -2.446221e+000 -1.237792e+000 4.679660e+000
         vertex -2.446188e+000 -1.239738e+000 4.669835e+000
      endloop
   endfacet
   facet normal -9.998644e-001 -1.646952e-002 -1.158794e-015
      outer loop
         vertex -2.444766e+000 -1.326132e+000 4.737248e+000
         vertex -2.444915e+000 -1.317076e+000 4.741526e+000
         vertex -2.444482e+000 -1.343358e+000 4.650276e+000
      endloop
   endfacet
   facet normal -9.998644e-001 -1.646952e-002 -1.158794e-015
      outer loop
         vertex -2.444482e+000 -1.343358e+000 4.650276e+000
         vertex -2.444915e+000 -1.317076e+000 4.741526e+000
         vertex -2.445073e+000 -1.307428e+000 4.744212e+000
      endloop
   endfacet
   facet normal -9.998644e-001 -1.646952e-002 -1.158794e-015
      outer loop
         vertex -2.444482e+000 -1.343358e+000 4.650276e+000
         vertex -2.445073e+000 -1.307428e+000 4.744212e+000
         vertex -2.445238e+000 -1.297464e+000 4.745228e+000
      endloop
   endfacet
   facet normal -9.998644e-001 -1.646952e-002 -1.158794e-015
      outer loop
         vertex -2.445238e+000 -1.297464e+000 4.745228e+000
         vertex -2.445402e+000 -1.287473e+000 4.744545e+000
         vertex -2.444482e+000 -1.343358e+000 4.650276e+000
      endloop
   endfacet
   facet normal -9.998644e-001 -1.646952e-002 -1.158794e-015
      outer loop
         vertex -2.444482e+000 -1.343358e+000 4.650276e+000
         vertex -2.445402e+000 -1.287473e+000 4.744545e+000
         vertex -2.445562e+000 -1.277740e+000 4.742184e+000
      endloop
   endfacet
   facet normal -9.998644e-001 -1.646952e-002 -1.158794e-015
      outer loop
         vertex -2.444482e+000 -1.343358e+000 4.650276e+000
         vertex -2.445562e+000 -1.277740e+000 4.742184e+000
         vertex -2.445714e+000 -1.268546e+000 4.738211e+000
      endloop
   endfacet
   facet normal -9.998644e-001 -1.646952e-002 -1.158794e-015
      outer loop
         vertex -2.445812e+000 -1.262600e+000 4.637813e+000
         vertex -2.445669e+000 -1.271260e+000 4.632782e+000
         vertex -2.445939e+000 -1.254914e+000 4.644235e+000
      endloop
   endfacet
   facet normal -9.998644e-001 -1.646952e-002 -1.158794e-015
      outer loop
         vertex -2.445939e+000 -1.254914e+000 4.644235e+000
         vertex -2.445669e+000 -1.271260e+000 4.632782e+000
         vertex -2.445515e+000 -1.280646e+000 4.629288e+000
      endloop
   endfacet
   facet normal -9.998644e-001 -1.646952e-002 -1.158794e-015
      outer loop
         vertex -2.445939e+000 -1.254914e+000 4.644235e+000
         vertex -2.445515e+000 -1.280646e+000 4.629288e+000
         vertex -2.445353e+000 -1.290488e+000 4.627431e+000
      endloop
   endfacet
   facet normal -9.998644e-001 -1.646952e-002 -1.158794e-015
      outer loop
         vertex -2.444482e+000 -1.343358e+000 4.650276e+000
         vertex -2.444393e+000 -1.348751e+000 4.658717e+000
         vertex -2.444417e+000 -1.347268e+000 4.716300e+000
      endloop
   endfacet
   facet normal -9.998644e-001 -1.646952e-002 -1.158794e-015
      outer loop
         vertex -2.444417e+000 -1.347268e+000 4.716300e+000
         vertex -2.444393e+000 -1.348751e+000 4.658717e+000
         vertex -2.444329e+000 -1.352640e+000 4.667947e+000
      endloop
   endfacet
   facet normal -9.998644e-001 -1.646952e-002 -1.158794e-015
      outer loop
         vertex -2.444417e+000 -1.347268e+000 4.716300e+000
         vertex -2.444329e+000 -1.352640e+000 4.667947e+000
         vertex -2.444345e+000 -1.351627e+000 4.707281e+000
      endloop
   endfacet
   facet normal -9.998644e-001 -1.646952e-002 -1.158794e-015
      outer loop
         vertex -2.444345e+000 -1.351627e+000 4.707281e+000
         vertex -2.444329e+000 -1.352640e+000 4.667947e+000
         vertex -2.444291e+000 -1.354913e+000 4.677702e+000
      endloop
   endfacet
   facet normal -9.998644e-001 -1.646952e-002 -1.158794e-015
      outer loop
         vertex -2.444345e+000 -1.351627e+000 4.707281e+000
         vertex -2.444291e+000 -1.354913e+000 4.677702e+000
         vertex -2.444282e+000 -1.355505e+000 4.687701e+000
      endloop
   endfacet
   facet normal -9.998644e-001 -1.646952e-002 -1.158794e-015
      outer loop
         vertex -2.446188e+000 -1.239738e+000 4.669835e+000
         vertex -2.446130e+000 -1.243316e+000 4.660479e+000
         vertex -2.445353e+000 -1.290488e+000 4.627431e+000
      endloop
   endfacet
   facet normal -9.998644e-001 -1.646952e-002 -1.158794e-015
      outer loop
         vertex -2.445353e+000 -1.290488e+000 4.627431e+000
         vertex -2.446130e+000 -1.243316e+000 4.660479e+000
         vertex -2.446045e+000 -1.248424e+000 4.651863e+000
      endloop
   endfacet
   facet normal -9.998644e-001 -1.646952e-002 -1.158794e-015
      outer loop
         vertex -2.445353e+000 -1.290488e+000 4.627431e+000
         vertex -2.446045e+000 -1.248424e+000 4.651863e+000
         vertex -2.445939e+000 -1.254914e+000 4.644235e+000
      endloop
   endfacet
endsolid